<svg version="1.1" xmlns="http://www.w3.org/2000/svg" xmlns:xlink="http://www.w3.org/1999/xlink" width="28.06281" height="18.21655" viewBox="0,0,28.06281,18.21655"><g transform="translate(-226.47299,-182.40619)"><g data-paper-data="{&quot;isPaintingLayer&quot;:true}" fill-rule="nonzero" stroke-linejoin="miter" stroke-miterlimit="10" stroke-dasharray="" stroke-dashoffset="0" style="mix-blend-mode: normal"><g stroke="#000000" stroke-width="0.3" stroke-linecap="butt"><path d="M242.70423,193.92233l-1.5361,-1.24811l-0.60108,-0.96627l3.33934,1.52994l2.27059,-0.84054l-0.11079,0.74134l-2.31374,0.85116z" fill="#418040"/><path d="M242.34182,194.57407c-0.42094,0 -0.63372,-1.1103 -1.68238,-1.0726c-1.73933,0.06253 -4.90256,1.50162 -4.90256,1.14087c0,-0.26609 1.71494,-1.23837 1.71494,-1.23837c0,0 -0.73813,-1.95982 -0.13399,-1.95982c1.11911,0 3.02632,-0.19752 3.02632,0.38074c0,0.22926 2.65309,2.74918 1.97767,2.74918z" data-paper-data="{&quot;index&quot;:null}" fill="#61bf60"/><path d="M233.82158,192.87552l3.40613,-1.32863l0.13357,0.92602l-1.66967,1.36889l-3.81707,0.12126l-0.22966,-0.98608z" fill="#418040"/></g><g data-paper-data="{&quot;index&quot;:null}"><path d="M232.9992,194.15864c-0.48773,0.15265 -2.42107,-2.85359 -1.57086,-3.31914c0.9744,-0.53356 1.00665,-0.6455 1.35663,-0.79595c0.38705,-0.16639 0.91506,-0.26491 1.75316,-0.56394c0.19356,-0.06905 0.68336,0.49252 0.40774,0.99857c-0.11622,0.21339 -0.70852,0.44238 -0.9675,0.5689c-0.32724,0.15986 0.67155,-0.49711 1.25353,-0.10635c0.25396,0.17051 0.08071,0.75046 -0.95283,1.20014c-0.43577,0.18961 0.58957,-0.11404 1.17664,-0.3651c0.52918,-0.2263 0.65035,1.14352 0.6153,1.16019c-0.83778,0.39852 -0.61586,0.31367 -1.39747,0.64968c-0.7816,0.336 -0.59947,0.2366 -1.67432,0.57301z" data-paper-data="{&quot;index&quot;:null}" fill="#ffc380" stroke="#000000" stroke-width="0.3" stroke-linecap="butt"/><path d="M231.75744,190.71695l-0.33441,-0.72299l2.59859,-1.19369l0.33441,0.72299z" fill="#808080" stroke="#000000" stroke-width="0.3" stroke-linecap="butt"/><path d="M231.04061,190.14607l-0.26799,-0.5211l3.53723,-1.53954l0.26799,0.5211z" fill="#bfbfbf" stroke="#000000" stroke-width="0.3" stroke-linecap="butt"/><path d="M229.17524,186.86575c0,-1.10457 1.824,-1.92857 2.92857,-1.92857c1.10457,0 3.20309,2.5077 2.21429,3c-1.21429,0.60456 -2.24508,1.0416 -3.35715,1.64285c-1.17896,0.63741 -1.78572,-1.60971 -1.78572,-2.71428z" fill="#808080" stroke="#000000" stroke-width="0.3" stroke-linecap="butt"/><path d="M232.74665,187.68716c0,-1.20319 -1.62803,-3.17857 -0.32143,-2.60714c1.06623,0.4663 2.70332,2.19091 1.67857,2.82143c-1.14285,0.70319 -2.36169,1.13913 -3.39285,1.67857c-1.09231,0.57143 2.03572,-0.68967 2.03572,-1.89286z" fill="#404040" stroke="none" stroke-width="0" stroke-linecap="butt"/><path d="M229.53267,188.51776c0,0 1.09983,-0.8985 1.76574,-1.24724c0.73953,-0.3873 2.47378,-0.97301 2.47378,-0.97301" data-paper-data="{&quot;index&quot;:null}" fill="none" stroke="#000000" stroke-width="0.2" stroke-linecap="round"/><path d="M230.07183,189.34454c0,0 1.09983,-0.8985 1.76574,-1.24724c0.73953,-0.3873 2.47378,-0.97301 2.47378,-0.97301" data-paper-data="{&quot;index&quot;:null}" fill="none" stroke="#000000" stroke-width="0.2" stroke-linecap="round"/><path d="M229.17587,187.73507c0,0 1.09983,-0.8985 1.76574,-1.24724c0.73953,-0.3873 2.47378,-0.97301 2.47378,-0.97301" data-paper-data="{&quot;index&quot;:null}" fill="none" stroke="#000000" stroke-width="0.2" stroke-linecap="round"/><path d="M229.12572,186.85078c0,0 0.94282,-0.81628 1.52388,-1.12058c0.64531,-0.33795 2.17549,-0.81678 2.17549,-0.81678" data-paper-data="{&quot;index&quot;:null}" fill="none" stroke="#000000" stroke-width="0.2" stroke-linecap="round"/><path d="M231.92499,184.79621c0,0 0.75802,0.79064 1.03159,1.29089c0.30382,0.55556 0.71015,1.89397 0.71015,1.89397" data-paper-data="{&quot;index&quot;:null}" fill="none" stroke="#000000" stroke-width="0.2" stroke-linecap="round"/><path d="M231.09362,185.32365c0,0 0.75802,0.79064 1.03159,1.29089c0.30382,0.55556 0.71015,1.89397 0.71015,1.89397" data-paper-data="{&quot;index&quot;:null}" fill="none" stroke="#000000" stroke-width="0.2" stroke-linecap="round"/><path d="M231.03204,189.56613c0,0 -0.86872,-1.09625 -1.15233,-1.66239c-0.25539,-0.50978 -0.47355,-1.58314 -0.47355,-1.58314" data-paper-data="{&quot;index&quot;:null}" fill="none" stroke="#000000" stroke-width="0.2" stroke-linecap="round"/><path d="M231.93907,189.18313c0,0 -0.86872,-1.09626 -1.15233,-1.6624c-0.25539,-0.50978 -0.47355,-1.58313 -0.47355,-1.58313" data-paper-data="{&quot;index&quot;:null}" fill="none" stroke="#000000" stroke-width="0.2" stroke-linecap="round"/></g><g><path d="M244.53381,192.14085c0,0.70168 -1.70646,1.27051 -3.8115,1.27051c-2.10504,0 -3.81151,-0.56883 -3.81151,-1.27051c0,-0.40408 -0.81006,-3.39093 0.47769,-4.57026c0.94842,-0.86857 4.22658,-0.27139 5.11939,-0.27139c0.63107,0 -0.76529,4.17168 -0.2411,4.26217c1.22433,0.21138 2.26704,0.08815 2.26704,0.57947z" data-paper-data="{&quot;index&quot;:null}" fill="#ffc380" stroke="#000000" stroke-width="0.3" stroke-linecap="butt"/><path d="M242.58789,186.95244c0,1.13364 -1.69747,0.15789 -2.94738,0.15789c-1.24991,0 -3,2.5547 -3,1.42105c0,-0.04823 -1.39804,-0.23222 -1.93388,-0.94448c-0.50054,-0.66535 -0.14143,-1.852 -0.13732,-2.16033c0.00765,-0.57354 2.10682,0.60836 2.05611,0.10106c-0.1282,-1.2824 -0.4281,-1.92813 0.02891,-2.34969c0.49839,-0.45972 2.63987,2.53409 2.99915,2.09082c0.79875,-0.98547 0.47333,-1.79001 1.03966,-1.79001c1.24991,0 1.89474,2.34004 1.89474,3.47368z" data-paper-data="{&quot;index&quot;:null}" fill="#ff7c00" stroke="#000000" stroke-width="0.3" stroke-linecap="butt"/><path d="M235.24098,191.77566l-0.13334,-4.16666l1.56667,1.33334l-0.1,1.9z" data-paper-data="{&quot;index&quot;:null}" fill="#ffc380" stroke="#000000" stroke-width="0.3" stroke-linecap="butt"/><path d="M235.73795,191.47566l-0.02044,-2.32198l0.89013,0.73771l-0.03199,0.74122z" data-paper-data="{&quot;index&quot;:null}" fill="#bf9360" stroke="#000000" stroke-width="0.2" stroke-linecap="butt"/><path d="M235.16681,187.11033c0,1.1627 2.97574,1.42105 1.8421,1.42105c-1.13363,0 -2.36842,-0.62677 -2.36842,-1.78947c0,-1.1627 -0.10174,-1.6927 0.94737,-1.26316c1.02838,0.42105 -0.42105,0.46887 -0.42105,1.63158z" data-paper-data="{&quot;index&quot;:null}" fill="#bf5c00" stroke="none" stroke-width="0" stroke-linecap="butt"/><path d="M237.2721,184.61033c0,1.14817 -0.68935,0.57035 -0.28947,1.18421c0.08355,0.12827 -0.23685,0.38501 -0.23685,-0.76316c0,-1.14817 -0.52306,-1.18871 -0.18421,-1.71052c0.10374,-0.15975 0.71053,0.1413 0.71053,1.28947z" data-paper-data="{&quot;index&quot;:null}" fill="#bf5c00" stroke="none" stroke-width="0" stroke-linecap="butt"/><path d="M240.71945,184.2156c-0.73758,1.0626 -0.81579,2.30882 -0.81579,1.13157c0,-1.17724 0.111,-0.26637 0.5,-1.5c0.08299,-0.26316 1.08298,-0.73684 0.31579,0.36843z" data-paper-data="{&quot;index&quot;:null}" fill="#bf5c00" stroke="none" stroke-width="0" stroke-linecap="butt"/><path d="M241.69313,186.00507c0,0.61669 -0.66079,0.78263 -1.25861,0.66172c-0.50112,-0.10135 -0.8954,-0.45119 -1.4256,-0.45119c-1.1627,0 -1.89474,1.92311 -1.89474,0.78947c0,-1.13363 0.6794,-1.10526 1.84211,-1.10526c0.43324,0 0.76572,0.3309 1.21049,0.21039c0.74886,-0.2029 1.52635,-0.81635 1.52635,-0.10513z" data-paper-data="{&quot;index&quot;:null}" fill="#ff9c40" stroke="none" stroke-width="0" stroke-linecap="butt"/><path d="M241.21942,189.41667c0,0.62495 -0.24742,1.13158 -0.55263,1.13158c-0.30521,0 -0.65789,-1.07895 -0.65789,-1.07895l0.65789,-1.18421c0,0 0.55263,0.50663 0.55263,1.13158z" data-paper-data="{&quot;index&quot;:null}" fill="#ffffff" stroke="#000000" stroke-width="0.3" stroke-linecap="butt"/><path d="M240.00894,189.26822c0,0 0.57583,-1.08467 0.90603,-1.29833c0.20991,-0.13582 0.88344,0.14044 0.88344,0.14044" data-paper-data="{&quot;index&quot;:null}" fill="none" stroke="#000000" stroke-width="0.3" stroke-linecap="round"/><path d="M239.37735,189.45243c0,0 -0.24742,1.44737 -0.55263,1.44737c-0.30521,0 -0.55263,-0.64801 -0.55263,-1.44737c0,-0.79936 0.55263,-1.44737 0.55263,-1.44737z" data-paper-data="{&quot;index&quot;:null}" fill="#ffffff" stroke="#000000" stroke-width="0.3" stroke-linecap="butt"/><path d="M236.74577,187.0577c0,0 1.10758,-0.25389 1.53651,0.1503c0.47802,0.45044 1.20033,2.42865 1.20033,2.42865" data-paper-data="{&quot;index&quot;:null}" fill="none" stroke="#000000" stroke-width="0.3" stroke-linecap="round"/><path d="M238.37733,191.58401c0,0 0.72006,0.39895 1.30192,0.57275c0.73356,0.21911 2.75071,0.63777 2.75071,0.63777c0,0 -0.51341,-0.26967 -1.47183,-0.34076c-0.51071,-0.03788 -1.41158,0.20675 -1.84396,0.0776c-1.2438,-0.37152 -0.73684,-0.94737 -0.73684,-0.94737z" data-paper-data="{&quot;index&quot;:null}" fill="#ffffff" stroke="#000000" stroke-width="0.3" stroke-linecap="round"/></g><g stroke="#000000" stroke-width="0.3" stroke-linecap="butt"><g fill="#404040"><path d="M246.40291,191.10841c0,0 1.67524,-0.71843 1.55375,-1.0501c-0.13708,-0.37423 -0.43764,-1.1947 -0.43764,-1.1947l1.11617,-0.44651l0.71937,2.15794l-2.40701,1.1724z"/><path d="M243.94728,190.36437l-1.41393,-3.53453l7.50313,-3.0015l1.41393,3.53453z"/><path d="M245.4373,193.78853l-1.33676,-3.34162l1.26056,-0.50427c0,0 1.58358,1.66625 2.82497,2.38661c0.74144,0.43025 -2.74877,1.45925 -2.74877,1.45925z"/><path d="M244.64178,189.58302l-0.37209,-0.93014l5.58084,-2.23252l0.37209,0.93014z"/><path d="M243.79906,187.68052l-0.19845,-0.49608l5.58084,-2.23252l0.19845,0.49608z"/><path d="M248.85337,184.22969c0.57123,-0.22851 1.22865,0.07208 1.4684,0.67141c0.23975,0.59932 -0.02897,1.27041 -0.6002,1.49892c-0.57122,0.22851 -1.22864,-0.07209 -1.46839,-0.67141c-0.23975,-0.59932 0.02896,-1.2704 0.60019,-1.49891z"/><path d="M251.16769,186.10926l-0.71937,-1.79827l1.3332,-0.53332l0.71937,1.79827z"/><path d="M252.60699,185.59571l-0.74417,-1.86027l1.25877,-1.07901l1.19068,2.97645z"/></g><path d="M245.22873,193.93092c-0.48773,0.15265 -2.42107,-2.85359 -1.57086,-3.31914c0.9744,-0.53356 1.00665,-0.6455 1.35663,-0.79595c0.38705,-0.16639 0.91506,-0.26491 1.75316,-0.56394c0.19356,-0.06905 0.68336,0.49252 0.40774,0.99857c-0.11622,0.21339 -0.70852,0.44238 -0.9675,0.5689c-0.32724,0.15986 0.67155,-0.49711 1.25353,-0.10635c0.25396,0.17051 0.08071,0.75046 -0.95283,1.20014c-0.43577,0.18961 0.58957,-0.11404 1.17664,-0.3651c0.52918,-0.2263 0.65035,1.14352 0.6153,1.16019c-0.83778,0.39852 -0.61586,0.31367 -1.39747,0.64968c-0.7816,0.336 -0.59947,0.2366 -1.67432,0.57301z" data-paper-data="{&quot;index&quot;:null}" fill="#ffc380"/></g><g stroke-linecap="butt"><path d="M245.54751,198.17196l-0.68492,-2.64997l0.80368,-1.09032c0,0 1.78855,-2.69058 1.85019,-2.76601c0.17984,-0.22006 1.723,-1.68303 2.54716,-0.91824c0.79885,0.74132 0.64725,2.05627 0.60613,3.09707c-0.04018,1.01696 0.52847,3.92253 -0.43697,5.05991c-1.15772,1.36391 -3.87984,0.87955 -3.87984,0.87955z" fill="#ff0000" stroke="#000000" stroke-width="0.3"/><path d="M250.76452,194.11159c-0.05738,1.45225 -1.73709,5.88338 -2.81175,5.84091c-1.07466,-0.04246 -2.30695,-0.26949 -2.24957,-1.72174c0.02142,-0.54221 0.60557,-0.90472 1.00796,-1.62093c0.67537,-1.20209 1.38563,-2.709 2.05907,-2.68239c1.07466,0.04246 2.05167,-1.26811 1.99428,0.18414z" fill="#bf0000" stroke="none" stroke-width="0"/><path d="M247.48368,191.82888c0.01464,-0.37053 -0.12538,0.96223 0.93477,1.00412c1.06014,0.04189 1.72019,-0.21059 1.70554,0.15995c-0.01464,0.37054 -1.05824,0.99886 -2.11838,0.95697c-1.06013,-0.04189 -0.53657,-1.7505 -0.52193,-2.12104z" fill="#ff7b00" stroke="#000000" stroke-width="0.3"/><path d="M246.60143,196.02767c-1.06014,-0.04189 -0.53658,-1.75051 -0.52194,-2.12104c0.01464,-0.37053 -0.12537,0.96223 0.93478,1.00412c1.06014,0.04189 1.72018,-0.21058 1.70553,0.15995c-0.01464,0.37053 -1.05824,0.99886 -2.11838,0.95697z" fill="#ff7b00" stroke="#000000" stroke-width="0.3"/><path d="M249.88656,190.33715c0.3921,0.01549 2.23466,0.25328 2.0699,4.26926c-0.16232,3.95635 -2.90463,5.45824 -3.29577,5.42674c-1.28407,-0.10341 1.75218,-1.62914 2.02736,-5.31884c0.30647,-4.10903 -1.1936,-4.39266 -0.8015,-4.37717z" fill="#fffdc0" stroke="#000000" stroke-width="0.3"/><path d="M246.385,197.92939c0.02508,-0.63463 0.54668,-1.1293 1.16504,-1.10486c0.61836,0.02443 1.09931,0.55871 1.07423,1.19334c-0.02508,0.63463 -0.54668,1.1293 -1.16504,1.10486c-0.61836,-0.02443 -1.09931,-0.55871 -1.07423,-1.19334z" fill="#ff7b00" stroke="#000000" stroke-width="0.3"/></g><path d="M235.75658,194.77815c0,0 3.61942,-1.40921 4.70252,-1.38386c1.10686,0.02589 2.21383,1.2455 2.21383,1.2455l2.84949,-0.11415l-0.71886,1.35564l1.50052,3.78999l-1.20386,-1.57603c0,0 -1.75585,1.01862 -3.05712,1.00603c-1.30126,-0.01259 -2.84047,-0.02994 -3.61093,0.03445c-0.77046,0.06439 -3.40798,-0.40957 -3.40798,-0.40957l-2.51629,0.9714l1.3953,-3.92464z" fill="#e4af72" stroke="#000000" stroke-width="0.3" stroke-linecap="butt"/><g data-paper-data="{&quot;index&quot;:null}" stroke-linecap="butt"><path d="M232.22651,199.86728c0,0 -2.72212,0.48436 -3.87984,-0.87955c-0.96544,-1.13738 -0.39679,-4.04296 -0.43697,-5.05991c-0.04112,-1.0408 -0.19272,-2.35575 0.60613,-3.09707c0.82416,-0.76478 2.36731,0.69818 2.54716,0.91824c0.06163,0.07542 1.85019,2.76601 1.85019,2.76601l0.80369,1.09032l-0.68492,2.64997z" fill="#ff0000" stroke="#000000" stroke-width="0.3"/><path d="M229.80921,194.01078c0.67344,-0.02661 1.3837,1.4803 2.05907,2.68239c0.40239,0.71621 0.98654,1.07872 1.00796,1.62092c0.05738,1.45225 -1.1749,1.67928 -2.24956,1.72174c-1.07466,0.04246 -2.75437,-4.38867 -2.81175,-5.84091c-0.05738,-1.45225 0.91962,-0.14168 1.99428,-0.18414z" fill="#bf0000" stroke="none" stroke-width="0"/><path d="M230.57384,194.03325c-1.06015,0.04189 -2.10374,-0.58643 -2.11838,-0.95697c-0.01464,-0.37054 0.6454,-0.11806 1.70555,-0.15995c1.06015,-0.04189 0.92012,-1.37465 0.93476,-1.00412c0.01464,0.37054 0.53821,2.07915 -0.52193,2.12104z" fill="#ff7b00" stroke="#000000" stroke-width="0.3"/><path d="M231.97802,196.111c-1.06015,0.04189 -2.10374,-0.58644 -2.11838,-0.95697c-0.01464,-0.37053 0.64539,-0.11806 1.70553,-0.15995c1.06015,-0.04189 0.92013,-1.37465 0.93478,-1.00412c0.01464,0.37053 0.53821,2.07915 -0.52194,2.12104z" fill="#ff7b00" stroke="#000000" stroke-width="0.3"/><path d="M228.6929,190.42047c0.3921,-0.01549 -1.10797,0.26813 -0.8015,4.37716c0.27519,3.6897 3.31143,5.21544 2.02736,5.31885c-0.39114,0.0315 -3.13346,-1.47039 -3.29577,-5.42674c-0.16476,-4.01597 1.6778,-4.25377 2.0699,-4.26926z" fill="#fffdc0" stroke="#000000" stroke-width="0.3"/><path d="M231.12021,199.20607c-0.61836,0.02443 -1.13997,-0.47022 -1.16504,-1.10486c-0.02507,-0.63464 0.45587,-1.16891 1.07423,-1.19334c0.61836,-0.02443 1.13996,0.47023 1.16504,1.10486c0.02507,0.63464 -0.45587,1.16891 -1.07423,1.19334z" fill="#ff7b00" stroke="#000000" stroke-width="0.3"/></g></g></g></svg>