<svg version="1.1" xmlns="http://www.w3.org/2000/svg" xmlns:xlink="http://www.w3.org/1999/xlink" width="20.26477" height="41.19456" viewBox="0,0,20.26477,41.19456"><g transform="translate(-229.88494,-175.21621)"><g data-paper-data="{&quot;isPaintingLayer&quot;:true}" fill-rule="nonzero" stroke-linejoin="miter" stroke-miterlimit="10" stroke-dasharray="" stroke-dashoffset="0" style="mix-blend-mode: normal"><path d="M242.26583,192.35141c0,-2.22887 1.02667,-6.60715 3.26236,-6.60715c2.23569,0 2.47785,10.32086 0.14167,12.60242c-1.4604,2.16637 -0.74134,6.86274 -1.57024,5.82615c-1.95218,-5.49037 -1.83379,-9.59256 -1.83379,-11.82142z" data-paper-data="{&quot;index&quot;:null}" fill="#404040" stroke="#000000" stroke-width="0.3" stroke-linecap="butt"/><path d="M241.20329,192.49427c0,2.22887 0.90411,5.40249 -1.47664,7.75c-0.47175,0.46517 -3.64166,3.67385 -3.64166,3.67385c0,0 -0.40642,-6.66213 -0.40642,-7.63814c0,-2.22887 -3.33046,-9.75 -1.09477,-9.75c2.23569,0 6.6195,3.73542 6.6195,5.96429z" fill="#404040" stroke="#000000" stroke-width="0.3" stroke-linecap="butt"/><path d="M231.76916,187.92471c0,0 1.96734,-1.35092 2.68329,-1.61426c0.71595,-0.26334 2.2381,-0.42857 2.2381,-0.42857l3.17737,2.14222l2.75135,0.18961l-4.65557,3.57938l4.81986,-3.75432l1.2235,2.26551l-7.92713,5.9112z" fill="#404040" stroke="#000000" stroke-width="0.3" stroke-linecap="butt"/><path d="M245.67202,190.08293l-2.74338,-4.62962c0,0 1.59801,-0.1877 2.71429,0.2381c1.11628,0.4258 2.35891,2.4321 2.35891,2.4321l1.9662,2.00738l-1.99095,4.02204l-8.08812,-4.07737l0.12286,-1.80474z" fill="#404040" stroke="#000000" stroke-width="0.3" stroke-linecap="butt"/><path d="M244.39286,204.52998c0,0.06053 -0.69508,2.0414 -0.254,3.27437c0.4281,1.19667 0.23085,1.90932 0.23085,1.90932c0,0 -0.67628,2.97994 -0.53549,4.02889c0.227,1.69142 2.042,2.03752 2.042,2.03752c0,0 -5.05188,-0.75118 -5.716,0.19527c-0.24645,0.35122 0.11687,-7.87581 -0.31412,-8.38399c-0.22843,-0.26934 -1.40883,7.33509 -0.26143,8.33635c1.47131,1.28392 -1.76417,-1.55823 -1.76417,-1.55823l-2.92579,1.69232l-0.57115,-1.23611c0,0 -1.64418,1.34878 -2.56098,1.36667c-4.01627,0.07834 -0.06427,0.16426 2.13028,-4.16235c1.86225,-3.67147 2.14286,-5.42624 2.14286,-7.71428c0,-2.28804 4.01378,-2 5,-2c0.98622,0 3.35714,-0.07375 3.35714,2.21428z" fill="#404040" stroke="#000000" stroke-width="0.3" stroke-linecap="butt"/><g stroke="#000000" stroke-width="0.3" stroke-linecap="butt"><path d="M237.60715,202.24427l2.07143,-2l3.92857,0.35714v1.78572z" fill="#000000"/><path d="M239.75,202.24427l1,-1.92857l1.78572,0.21428l-0.21429,1.71429z" fill="#fff700"/></g><g stroke="#000000" stroke-width="0.3"><path d="M242.95914,188.25362l1.08855,-0.24919c0,0 -0.09332,-0.50726 0.16474,-0.56215c0.4392,-0.09342 0.95165,-0.00357 1.46551,0.52509c0.98462,1.01298 1.61708,0.9744 1.61708,0.9744l-1.05957,0.22014l-0.48658,0.77853l-2.1734,-0.64878l-0.61634,-1.03804z" fill="#e480ff" stroke-linecap="butt"/><path d="M244.32757,188.47494l0.31175,-0.59558l0.72629,-0.11807" fill="none" stroke-linecap="round"/><path d="M245.12464,189.31871l0.31175,-0.59558l0.72629,-0.11807" fill="none" stroke-linecap="round"/><path d="M244.66083,188.7148l0.31175,-0.59558l0.72629,-0.11807" fill="none" stroke-linecap="round"/></g><g stroke="#000000" stroke-width="0.3"><path d="M240.68913,190.73722c0,0 -1.08239,1.29854 -0.72165,2.4558c0.37547,1.20451 -1.57618,0.72657 -1.57618,0.72657l-0.80444,-1.9413l0.86369,-0.69218l1.61678,-2.03813z" fill="#e480ff" stroke-linecap="butt"/><path d="M239.41048,193.98376l-0.33533,-0.58264l0.29004,-0.67626" fill="none" stroke-linecap="round"/><path d="M238.24734,193.71475l0.11854,-0.66171l0.65733,-0.33069" fill="none" stroke-linecap="round"/><path d="M237.89186,192.54961l0.48092,-0.46971l0.72715,0.11274" fill="none" stroke-linecap="round"/></g><path d="M242.16667,191.70854c0.06667,8.30457 2.69352,8.57141 0.56667,8.46667c-3.05097,-0.15026 -3.78494,0.5999 -2.76667,-0.26667c1.71938,-1.46322 1.28051,-2.46666 1.36667,-7.86666c0.01733,-1.08602 0.82447,-1.43787 0.83333,-0.33334z" fill="#e480ff" stroke="#000000" stroke-width="0.3" stroke-linecap="butt"/><path d="M242.63334,191.50854l-0.53333,-2.6l1.73334,0.6l0.86666,2.73333z" fill="#cccccc" stroke="#000000" stroke-width="0.3" stroke-linecap="butt"/><path d="M243.4,189.24188c0.64433,0 1.16666,0.50741 1.16666,1.13333c0,0.62593 -0.52233,1.13334 -1.16666,1.13334c-0.64433,0 -1.16666,-0.50742 -1.16666,-1.13334c0,-0.62592 0.52233,-1.13333 1.16666,-1.13333z" fill="#cccccc" stroke="#000000" stroke-width="0.3" stroke-linecap="butt"/><path d="M243.46667,189.44188c0.46024,0 0.83334,0.34324 0.83334,0.76666c0,0.42342 -0.3731,0.76666 -0.83334,0.76666c-0.46023,0 -0.83333,-0.34324 -0.83333,-0.76666c0,-0.42342 0.37309,-0.76666 0.83333,-0.76666z" fill="#ffffff" stroke="#000000" stroke-width="0.3" stroke-linecap="butt"/><g><g fill="#808080" stroke="#000000" stroke-width="0.1" stroke-linecap="butt"><path d="M241.09683,193.87033l-1.03283,-0.22256c0,0 -0.10637,-0.77846 -0.07049,-1.0958c0.03663,-0.32393 0.28809,-0.8284 0.28809,-0.8284l1.27638,1.09177z"/><path d="M241.69609,193.12101c0.10897,0.31041 -0.01136,0.63533 -0.26878,0.72569c-0.25743,0.09037 -0.55444,-0.08802 -0.66343,-0.39845c-0.10897,-0.31041 0.01135,-0.63532 0.26879,-0.72569c0.25743,-0.09037 0.55444,0.08801 0.66342,0.39844z"/></g><g><path d="M238.05426,192.36576l-0.48126,-0.27898l0.99696,-1.73024l0.48124,0.27897z" fill="#808080" stroke="#000000" stroke-width="0.1" stroke-linecap="butt"/><path d="M237.31566,192.55081l-0.34513,-0.21983l1.29775,-2.3607l0.34513,0.21983z" fill="#bfbfbf" stroke="#000000" stroke-width="0.1" stroke-linecap="butt"/><path d="M236.53919,188.59259c0.76805,0.07095 2.29162,0.63723 1.77266,1.41604c-0.48952,0.73465 -0.85963,1.42333 -1.35801,2.22884c-0.40584,0.65593 -2.01475,-0.96436 -1.94379,-1.73241c0.07095,-0.76805 0.7611,-1.98343 1.52915,-1.91248z" fill="#808080" stroke="#000000" stroke-width="0.1" stroke-linecap="butt"/><path d="M236.88092,191.12874c0.83663,0.0773 1.91449,-2.01676 1.44697,-1.29392c-0.44135,0.68236 -0.82277,1.50187 -1.38514,2.25136c-0.50426,0.67205 -1.59829,-0.57709 -1.85404,-1.34844c-0.31341,-0.94525 0.95559,0.3137 1.79222,0.391z" fill="#404040" stroke="none" stroke-width="0" stroke-linecap="butt"/><path d="M235.84875,191.75255c0,0 0.51868,-1.16827 0.83549,-1.65762c0.28527,-0.44064 0.98069,-1.14768 0.98069,-1.14768" data-paper-data="{&quot;index&quot;:null}" fill="none" stroke="#000000" stroke-width="0.1" stroke-linecap="round"/><path d="M236.38902,192.18061c0,0 0.51868,-1.16828 0.83548,-1.65763c0.28527,-0.44064 0.9807,-1.14768 0.9807,-1.14768" data-paper-data="{&quot;index&quot;:null}" fill="none" stroke="#000000" stroke-width="0.1" stroke-linecap="round"/><path d="M235.32743,191.45419c0,0 0.51868,-1.16828 0.83549,-1.65763c0.28527,-0.44064 0.9807,-1.14767 0.9807,-1.14767" data-paper-data="{&quot;index&quot;:null}" fill="none" stroke="#000000" stroke-width="0.1" stroke-linecap="round"/><path d="M234.94717,191.00511c0,0 0.43126,-1.03326 0.70769,-1.46025c0.24892,-0.3845 0.87708,-0.98763 0.87708,-0.98763" data-paper-data="{&quot;index&quot;:null}" fill="none" stroke="#000000" stroke-width="0.1" stroke-linecap="round"/><path d="M237.02618,191.7874c0,0 -0.90457,-0.36852 -1.27135,-0.61547c-0.33027,-0.22237 -0.83134,-0.80024 -0.83134,-0.80024" data-paper-data="{&quot;index&quot;:null}" fill="none" stroke="#000000" stroke-width="0.1" stroke-linecap="round"/><path d="M237.44634,191.24318c0,0 -0.90457,-0.36852 -1.27135,-0.61547c-0.33027,-0.22237 -0.83134,-0.80023 -0.83134,-0.80023" data-paper-data="{&quot;index&quot;:null}" fill="none" stroke="#000000" stroke-width="0.1" stroke-linecap="round"/><path d="M236.14529,188.71814c0,0 0.73235,0.22066 1.07041,0.43099c0.37545,0.23356 1.08191,0.90806 1.08191,0.90806" data-paper-data="{&quot;index&quot;:null}" fill="none" stroke="#000000" stroke-width="0.1" stroke-linecap="round"/><path d="M235.8207,189.32424c0,0 0.73233,0.22065 1.0704,0.43098c0.37545,0.23356 1.08193,0.90806 1.08193,0.90806" data-paper-data="{&quot;index&quot;:null}" fill="none" stroke="#000000" stroke-width="0.1" stroke-linecap="round"/></g></g><g><path d="M236.96458,186.82828l0.24241,-2.36906l3.27674,1.31548l2.2058,-0.00505c0,0 1.02612,0.85487 1.23205,1.49838c0.22648,0.70773 -0.86644,0.69872 -0.86644,0.69872l-3.08223,0.0998z" fill="#e480ff" stroke="#000000" stroke-width="0.3" stroke-linecap="butt"/><path d="M240.35638,185.53994l-3.1145,-1.13741l-0.45434,-7.18274l7.32394,0.53261l0.69249,3.9284l-1.09882,3.22644l0.59814,0.86138z" fill="#e480ff" stroke="#000000" stroke-width="0.3" stroke-linecap="butt"/><path d="M240.54739,184.97236l-2.20247,-1.50356l0.20244,-2.08816l1.35604,1.43724l2.15346,0.0437l1.53307,-1.05983l-0.97046,2.93038z" fill="#000000" stroke="none" stroke-width="0" stroke-linecap="butt"/><path d="M239.3351,183.44431l-0.27195,-1.36885c0,0 0.40132,0.53221 0.86655,0.66001c0.521,0.14312 2.1111,0.15797 2.1111,0.15797l-0.62921,0.99729z" fill="#ffffff" stroke="#000000" stroke-width="0.2" stroke-linecap="butt"/><path d="M239.38416,184.03691l0.08511,-0.53379l2.35377,0.3758l-0.21034,0.89487c0,0 -0.8261,0.1345 -1.19048,0.0089c-0.32625,-0.11246 -1.03805,-0.74579 -1.03805,-0.74579z" fill="#ffffff" stroke="#000000" stroke-width="0.2" stroke-linecap="butt"/><path d="M239.62858,183.48063l-0.30559,-0.93291l1.11562,0.37834l-0.18525,0.51035l-0.34911,-0.38534z" fill="#ff8080" stroke="#000000" stroke-width="0.2" stroke-linecap="butt"/><path d="M242.3232,179.7602c-0.09582,1.16639 -1.16651,2.03036 -2.33289,1.93454c-1.16639,-0.09582 -1.98679,-1.11515 -1.89097,-2.28154c0.09582,-1.16639 -0.19677,-1.13898 0.56131,-1.88895c0.38292,-0.37882 0.88992,1.00053 0.88992,1.00053c0,0 2.82435,0.60588 2.77262,1.23544z" fill="#000000" stroke="none" stroke-width="0" stroke-linecap="butt"/><path d="M243.63314,178.68815c0,0 0.40447,-1.30445 0.53846,-0.88318c0.26527,0.83405 0.13124,0.77158 0.03542,1.93798c-0.09582,1.16639 -0.60391,2.07657 -1.16292,2.03065c-0.55901,-0.04592 -0.95724,-1.03056 -0.86141,-2.19696c0.05172,-0.62957 1.45045,-0.88849 1.45045,-0.88849z" data-paper-data="{&quot;index&quot;:null}" fill="#000000" stroke="none" stroke-width="0" stroke-linecap="butt"/><path d="M240.02369,181.50635l-0.32285,-0.89339l-0.79979,-0.49009l0.93997,-0.23872l0.3594,-0.86336l0.20116,0.89566l0.68261,0.38576l-0.6796,0.24637z" fill="#ff0000" stroke="none" stroke-width="0" stroke-linecap="butt"/><path d="M243.32568,181.44314l-0.32285,-0.89339l-0.79979,-0.49009l0.93996,-0.23872l0.3594,-0.86336l0.20115,0.89566l0.68262,0.38576l-0.6796,0.24637z" fill="#ff0000" stroke="none" stroke-width="0" stroke-linecap="butt"/><path d="M236.9114,179.915l-0.20879,-2.6928l7.546,0.61993l-5.97919,0.08215z" fill="#7f7f7f" stroke="#000000" stroke-width="0.3" stroke-linecap="butt"/><path d="M244.35322,175.98732c-0.09475,1.15328 -0.30637,2.79383 -2.50808,2.61295c-1.13563,-0.0933 -2.64519,-0.40677 -3.16548,-1.02369c-0.48843,-0.57913 -0.02385,-1.44735 0.02202,-2.00577c0.06979,-0.84948 0.09103,1.1936 0.99089,1.62201c0.32182,0.15321 0.77868,-1.18994 1.35867,-1.1423c2.20172,0.18088 3.39672,-1.21648 3.30199,-0.0632z" fill="#7f7f7f" stroke="#000000" stroke-width="0.3" stroke-linecap="butt"/><path d="M243.91808,177.2127c-0.04754,0.5787 0.13656,1.47351 -2.06517,1.29263c-1.13563,-0.0933 -2.30897,-0.4281 -2.85261,-0.76086c-0.51035,-0.31238 -0.33162,-0.60917 -0.3086,-0.88938c0.03502,-0.42624 0.04433,0.59881 0.95861,0.8518c0.32698,0.09048 0.7277,-0.56941 1.30769,-0.52176c2.20172,0.18088 3.00761,-0.55113 2.96007,0.02757z" fill="#404040" stroke="#000000" stroke-width="0" stroke-linecap="butt"/><path d="M239.98794,187.30493l2.31592,-1.72313l-0.4856,2.03128l2.25516,-0.71575l-2.18524,1.87721z" fill="#7f7f7f" stroke="#000000" stroke-width="0.3" stroke-linecap="butt"/><path d="M244.02653,177.07014l-1.99456,2.29439l-2.88899,-2.69559" fill="none" stroke="#000000" stroke-width="0.5" stroke-linecap="round"/><path d="M237.19611,186.74898l-0.00815,-2.05813l3.07528,1.21336l-2.43292,0.2728l0.80168,1.31029z" fill="#ab60bf" stroke="#000000" stroke-width="0" stroke-linecap="butt"/><path d="M235.5808,183.31656l0.3353,-4.08149l0.93037,0.88869l0.14049,1.77938z" fill="#e480ff" stroke="#000000" stroke-width="0.3" stroke-linecap="butt"/><path d="M237.2705,184.26762l-0.20086,-2.65052l-1.27406,1.22519l0.0673,-1.796l0.62626,0.62926l0.2277,-0.99956l1.1283,1.24984l-0.17857,1.20811l0.91673,0.22377l0.23982,0.73683l1.65191,1.29635z" fill="#ab60bf" stroke="none" stroke-width="0" stroke-linecap="butt"/><path d="M236.20609,180.35781c0,0 0.22777,0.29757 0.27502,0.49084c0.05788,0.2367 0.04685,0.82566 0.04685,0.82566" fill="none" stroke="#000000" stroke-width="0.3" stroke-linecap="round"/><path d="M239.34701,184.58153l0.65797,1.29633l-2.86449,-1.19092l1.4387,-0.64627z" fill="#ab60bf" stroke="none" stroke-width="0" stroke-linecap="butt"/></g></g></g></svg>