<svg version="1.1" xmlns="http://www.w3.org/2000/svg" xmlns:xlink="http://www.w3.org/1999/xlink" width="8.05996" height="19.82802" viewBox="0,0,8.05996,19.82802"><g transform="translate(-235.89246,-168.1721)"><g data-paper-data="{&quot;isPaintingLayer&quot;:true}" fill-rule="nonzero" stroke="none" stroke-width="0" stroke-linecap="butt" stroke-linejoin="miter" stroke-miterlimit="10" stroke-dasharray="" stroke-dashoffset="0" style="mix-blend-mode: normal"><path d="M235.95242,188.00013l4,-16.16666l4,16.16666z" fill="#bf0000"/><path d="M237.50798,181.94457l2.49999,-10.11112l2.44445,10l-1.40403,-1.86745l-0.44733,0.55965l-0.70303,-0.49662l-0.6027,0.48304l-0.40039,-0.66725z" fill="#ff0000"/><path d="M242.61981,172.4476c0,2.18801 -1.18605,3.96174 -2.64912,3.96174c-1.46306,0 -2.64912,-1.77373 -2.64912,-3.96174c0,-0.21352 0.15775,-1.66678 -0.24242,-2.66212c-0.34031,-0.84645 -1.25587,-1.25604 -1.18253,-1.41804c0.13418,-0.29637 1.6203,-0.28543 2.29962,0.24163c0.57688,0.44758 0.34565,1.4271 0.60105,1.21935c1.06703,-0.86796 2.50988,-1.53349 2.50988,-1.53349c0,0 -0.95543,1.19055 -0.57662,2.23614c0.12449,0.34361 1.98806,-2.11947 1.98806,-2.11947c0,0 -0.09883,3.59954 -0.09883,4.036z" fill="#fff700"/><path d="M242.02901,172.68418c0,1.53013 -0.97262,2.91373 -1.99578,2.91373c-1.02316,0 -1.90032,-1.38361 -1.90032,-2.91373c0,-0.14932 -0.17607,-1.97706 -0.45592,-2.67312c-0.23799,-0.59195 -0.68733,-1.06931 -0.63604,-1.18259c0.09383,-0.20726 0.41714,-0.00868 0.8922,0.3599c0.40342,0.31301 0.76677,1.57078 0.94538,1.42549c0.7462,-0.60699 1.61202,-1.54972 1.61202,-1.54972c0,0 -0.47723,1.59629 -0.21231,2.32749c0.08706,0.24029 2.15401,-1.62539 2.15401,-1.62539c0,0 -0.40323,2.61271 -0.40323,2.91793z" fill="#ff7b00"/><path d="M241.67126,172.96487c0,1.15713 -0.6878,2.06026 -1.46155,2.06026c-0.77374,0 -1.53255,-1.04633 -1.53255,-2.20346c0,-0.11292 -0.41954,-1.82924 -0.63117,-2.35562c-0.17997,-0.44765 -0.42432,-1.0473 -0.38553,-1.13298c0.07096,-0.15673 0.07679,0.42302 0.43605,0.70176c0.30508,0.2367 0.72305,1.09241 0.85812,0.98254c0.5643,-0.45902 1.21907,-1.26741 1.21907,-1.26741c0,0 -0.31316,1.63675 -0.11283,2.18971c0.06584,0.18172 1.86759,-1.4201 1.86759,-1.4201c0,0 -0.25721,2.21447 -0.25721,2.44529z" fill="#ff0000"/></g></g></svg>