<svg version="1.1" xmlns="http://www.w3.org/2000/svg" xmlns:xlink="http://www.w3.org/1999/xlink" width="18.57485" height="42.73981" viewBox="0,0,18.57485,42.73981"><g transform="translate(-231.57485,-173.52988)"><g data-paper-data="{&quot;isPaintingLayer&quot;:true}" fill-rule="nonzero" stroke-linejoin="miter" stroke-miterlimit="10" stroke-dasharray="" stroke-dashoffset="0" style="mix-blend-mode: normal"><g><path d="M236.78578,185.52954l0.04762,-2.38095l3.37345,1.04277l2.19798,-0.18563l1.63215,3.95174l-4.28816,-0.04926z" fill="#e480ff" stroke="#000000" stroke-width="0.3" stroke-linecap="butt"/><path d="M240.06071,183.96782l-3.19717,-0.87858l-1.04092,-7.12142l7.34296,-0.06885l1.01181,3.85851l-0.83096,3.30557l0.66666,0.80952z" fill="#e480ff" stroke="#000000" stroke-width="0.3" stroke-linecap="butt"/><path d="M240.20461,183.3865l-2.31818,-1.31818l0.03079,-2.09772l1.46916,1.32138l2.1498,-0.13277l1.44115,-1.1818l-0.72727,3z" fill="#000000" stroke="none" stroke-width="0" stroke-linecap="butt"/><path d="M238.87127,181.96285l-0.38312,-1.34199c0,0 0.44355,0.49756 0.91768,0.58684c0.53097,0.09998 2.11695,-0.01541 2.11695,-0.01541l-0.54545,1.04546z" fill="#ffffff" stroke="#000000" stroke-width="0.2" stroke-linecap="butt"/><path d="M238.96868,182.54944l0.04112,-0.53896l2.37663,0.18182l-0.13637,0.90909c0,0 -0.81232,0.20169 -1.18576,0.10635c-0.33436,-0.08537 -1.09563,-0.65829 -1.09563,-0.65829z" fill="#ffffff" stroke="#000000" stroke-width="0.2" stroke-linecap="butt"/><path d="M239.16674,181.97501l-0.38095,-0.90476l1.14285,0.28572l-0.14285,0.52381l-0.37948,-0.35546z" fill="#ff8080" stroke="#000000" stroke-width="0.2" stroke-linecap="butt"/><path d="M241.54769,178.04644c0,1.17032 -0.99635,2.11905 -2.16667,2.11905c-1.17032,0 -2.07143,-0.94873 -2.07143,-2.11905c0,-1.17032 -0.28937,-1.11904 0.40476,-1.92857c0.35061,-0.4089 0.96886,0.9243 0.96886,0.9243c0,0 2.86447,0.37259 2.86447,1.00428z" fill="#000000" stroke="none" stroke-width="0" stroke-linecap="butt"/><path d="M242.76546,176.87074c0,0 0.2963,-1.33319 0.46434,-0.9243c0.33267,0.80953 0.19398,0.75825 0.19398,1.92857c0,1.17032 -0.43186,2.11905 -0.99275,2.11905c-0.56089,0 -1.0384,-0.94873 -1.0384,-2.11905c0,-0.63169 1.37283,-1.00427 1.37283,-1.00427z" data-paper-data="{&quot;index&quot;:null}" fill="#000000" stroke="none" stroke-width="0" stroke-linecap="butt"/><path d="M239.39888,179.97501l-0.39491,-0.86395l-0.83723,-0.42296l0.91727,-0.31488l0.2875,-0.88988l0.27381,0.87619l0.7119,0.32857l-0.65714,0.30119z" fill="#ff0000" stroke="none" stroke-width="0" stroke-linecap="butt"/><path d="M242.6846,179.64166l-0.39491,-0.86395l-0.83723,-0.42296l0.91726,-0.31488l0.2875,-0.88988l0.2738,0.87619l0.71191,0.32857l-0.65714,0.30119z" fill="#ff0000" stroke="none" stroke-width="0" stroke-linecap="butt"/><path d="M236.16674,178.64383l-0.42857,-2.66666h7.57143l-5.95238,0.57143z" fill="#7f7f7f" stroke="#000000" stroke-width="0.3" stroke-linecap="butt"/><path d="M243.26198,174.12002c0,1.15717 -0.07658,2.80953 -2.28572,2.80953c-1.13946,0 -2.66961,-0.18883 -3.23867,-0.76107c-0.53421,-0.53719 -0.14228,-1.44053 -0.14228,-2.00084c0,-0.85234 0.18845,1.18214 1.12037,1.53543c0.33329,0.12635 0.67863,-1.24971 1.26058,-1.24971c2.20914,0 3.28572,-1.49051 3.28572,-0.33334z" fill="#7f7f7f" stroke="#000000" stroke-width="0.3" stroke-linecap="butt"/><path d="M242.92864,175.37692c0,0.58065 0.25675,1.45738 -1.95239,1.45738c-1.13946,0 -2.33627,-0.23761 -2.90533,-0.52474c-0.53421,-0.26955 -0.38038,-0.57997 -0.38038,-0.86112c0,-0.42768 0.09321,0.59317 1.02513,0.77045c0.33329,0.0634 0.67863,-0.62708 1.26058,-0.62708c2.20914,0 2.95239,-0.79553 2.95239,-0.21489z" fill="#404040" stroke="#000000" stroke-width="0" stroke-linecap="butt"/><path d="M239.83801,185.75705l2.16706,-1.90697l-0.31765,2.06422l2.18898,-0.89799l-2.0242,2.04983z" fill="#7f7f7f" stroke="#000000" stroke-width="0.3" stroke-linecap="butt"/><path d="M243.02505,175.22595l-1.8,2.45l-3.1,-2.45" fill="none" stroke="#000000" stroke-width="0.5" stroke-linecap="round"/><path d="M236.8334,185.57148v-2.19048l3.16431,0.95749l-2.40241,0.47108l0.82263,1.74881z" fill="#ab60bf" stroke="#000000" stroke-width="0" stroke-linecap="butt"/><path d="M235.11911,182.14291l-0.00001,-4.09524l1.00001,0.80953l0.28571,1.7619z" fill="#e480ff" stroke="#000000" stroke-width="0.3" stroke-linecap="butt"/><path d="M236.88101,182.95243l-0.41721,-2.62517l-1.16947,1.3254l-0.07998,-1.79548l0.67568,0.57587l0.14509,-1.01484l1.22685,1.15326l-0.07905,1.21867l0.93197,0.14796l0.29934,0.71472l1.7525,1.15675z" fill="#ab60bf" stroke="none" stroke-width="0" stroke-linecap="butt"/><path d="M235.50005,179.1429c0,0 0.25137,0.27792 0.31429,0.46667c0.07706,0.23117 0.11429,0.81905 0.11429,0.81905" fill="none" stroke="#000000" stroke-width="0.3" stroke-linecap="round"/><path d="M238.97625,183.09527l0.7619,1.2381l-2.95238,-0.95238l1.38095,-0.7619z" fill="#ab60bf" stroke="none" stroke-width="0" stroke-linecap="butt"/></g><path d="M242.26583,192.35146c0,-2.22887 1.02667,-6.60715 3.26236,-6.60715c2.23569,0 2.47785,10.32086 0.14167,12.60242c-1.4604,2.16637 -0.74134,6.86274 -1.57024,5.82615c-1.95218,-5.49037 -1.83379,-9.59256 -1.83379,-11.82142z" data-paper-data="{&quot;index&quot;:null}" fill="#404040" stroke="#000000" stroke-width="0.3" stroke-linecap="butt"/><path d="M241.20329,192.49432c0,2.22887 0.90411,5.40249 -1.47664,7.75c-0.47175,0.46517 -3.64166,3.67385 -3.64166,3.67385c0,0 -0.40642,-6.66213 -0.40642,-7.63814c0,-2.22887 -3.33046,-9.75 -1.09477,-9.75c2.23569,0 6.6195,3.73542 6.6195,5.96429z" fill="#404040" stroke="#000000" stroke-width="0.3" stroke-linecap="butt"/><path d="M231.76916,187.92476c0,0 1.96734,-1.35092 2.68329,-1.61426c0.71595,-0.26334 2.2381,-0.42857 2.2381,-0.42857l3.17737,2.14222l2.75135,0.18961l-4.65557,3.57938l4.81986,-3.75432l1.2235,2.26551l-7.92713,5.9112z" fill="#404040" stroke="#000000" stroke-width="0.3" stroke-linecap="butt"/><path d="M245.67202,190.08298l-2.74338,-4.62962c0,0 1.59801,-0.1877 2.71429,0.2381c1.11628,0.4258 2.35891,2.4321 2.35891,2.4321l1.9662,2.00738l-1.99095,4.02204l-8.08812,-4.07737l0.12286,-1.80474z" fill="#404040" stroke="#000000" stroke-width="0.3" stroke-linecap="butt"/><path d="M244.39286,204.53003c0,0.06053 -2.07008,2.4164 -1.629,3.64937c0.4281,1.19667 0.60585,2.90932 0.60585,2.90932c0,0 -0.80128,-1.14506 -0.66049,-0.09611c0.227,1.69142 -2.583,0.66252 -2.583,0.66252c0,0 -4.67688,-0.00118 -6.341,0.07027c-4.24645,-5.14878 6.99187,-1.50081 6.56088,-2.00899c-0.22843,-0.26934 3.72746,3.98433 3.72746,3.98433c0,0 5.10582,2.22378 4.18902,2.24167c-4.01627,0.07834 -10.31427,1.16426 -8.11972,-3.16235c-4.26275,-4.67147 -4.10714,-6.17624 -4.10714,-8.46428c0,-2.28804 4.01378,-2 5,-2c0.98622,0 3.35714,-0.07375 3.35714,2.21428z" fill="#404040" stroke="#000000" stroke-width="0.3" stroke-linecap="butt"/><g stroke="#000000" stroke-width="0.3" stroke-linecap="butt"><path d="M237.60715,202.24432l2.07143,-2l3.92857,0.35714v1.78572z" fill="#000000"/><path d="M239.75,202.24432l1,-1.92857l1.78572,0.21428l-0.21429,1.71429z" fill="#fff700"/></g><g stroke="#000000" stroke-width="0.3"><path d="M242.95914,188.25367l1.08855,-0.24919c0,0 -0.09332,-0.50726 0.16474,-0.56215c0.4392,-0.09342 0.95165,-0.00357 1.46551,0.52509c0.98462,1.01298 1.61708,0.9744 1.61708,0.9744l-1.05957,0.22014l-0.48658,0.77853l-2.1734,-0.64878l-0.61634,-1.03804z" fill="#e480ff" stroke-linecap="butt"/><path d="M244.32757,188.47499l0.31175,-0.59558l0.72629,-0.11807" fill="none" stroke-linecap="round"/><path d="M245.12464,189.31876l0.31175,-0.59558l0.72629,-0.11807" fill="none" stroke-linecap="round"/><path d="M244.66083,188.71485l0.31175,-0.59558l0.72629,-0.11807" fill="none" stroke-linecap="round"/></g><g stroke="#000000" stroke-width="0.3"><path d="M240.08289,190.05567c0,0 -1.45142,0.86669 -1.49438,2.07812c-0.04471,1.26088 -1.72787,0.16345 -1.72787,0.16345l-0.11599,-2.09816l1.04421,-0.36701l2.20063,-1.38752z" fill="#e480ff" stroke-linecap="butt"/><path d="M237.80103,192.69537l-0.12341,-0.66082l0.49767,-0.542" fill="none" stroke-linecap="round"/><path d="M236.79266,192.05627l0.33103,-0.58509l0.72976,-0.09429" fill="none" stroke-linecap="round"/><path d="M236.84319,190.83916l0.60936,-0.28389l0.64875,0.34723" fill="none" stroke-linecap="round"/></g><path d="M242.16667,191.70859c0.06667,8.30457 2.69352,8.57141 0.56667,8.46667c-3.05097,-0.15026 -3.78494,0.5999 -2.76667,-0.26667c1.71938,-1.46322 1.28051,-2.46666 1.36667,-7.86666c0.01733,-1.08602 0.82447,-1.43787 0.83333,-0.33334z" fill="#e480ff" stroke="#000000" stroke-width="0.3" stroke-linecap="butt"/><path d="M242.63334,191.50859l-0.53333,-2.6l1.73334,0.6l0.86666,2.73333z" fill="#cccccc" stroke="#000000" stroke-width="0.3" stroke-linecap="butt"/><path d="M243.4,189.24193c0.64433,0 1.16666,0.50741 1.16666,1.13333c0,0.62593 -0.52233,1.13334 -1.16666,1.13334c-0.64433,0 -1.16666,-0.50742 -1.16666,-1.13334c0,-0.62592 0.52233,-1.13333 1.16666,-1.13333z" fill="#cccccc" stroke="#000000" stroke-width="0.3" stroke-linecap="butt"/><path d="M243.46667,189.44193c0.46024,0 0.83334,0.34324 0.83334,0.76666c0,0.42342 -0.3731,0.76666 -0.83334,0.76666c-0.46023,0 -0.83333,-0.34324 -0.83333,-0.76666c0,-0.42342 0.37309,-0.76666 0.83333,-0.76666z" fill="#ffffff" stroke="#000000" stroke-width="0.3" stroke-linecap="butt"/><g><g fill="#808080" stroke="#000000" stroke-width="0.1" stroke-linecap="butt"><path d="M239.42974,193.14695l-0.9008,-0.55211c0,0 0.15749,-0.76975 0.29647,-1.05729c0.14186,-0.2935 0.54622,-0.6862 0.54622,-0.6862l0.84268,1.45292z"/><path d="M240.24337,192.63843c0,0.32899 -0.22117,0.5957 -0.49399,0.5957c-0.27283,0 -0.49399,-0.2667 -0.49399,-0.5957c0,-0.32899 0.22116,-0.59569 0.49399,-0.59569c0.27283,0 0.49399,0.26669 0.49399,0.59569z"/></g><g><path d="M237.05732,190.71948l-0.36167,-0.42264l1.51381,-1.30232l0.36167,0.42263z" fill="#808080" stroke="#000000" stroke-width="0.1" stroke-linecap="butt"/><path d="M236.29912,190.64944l-0.25283,-0.32174l2.00645,-1.79756l0.25283,0.32174z" fill="#bfbfbf" stroke="#000000" stroke-width="0.1" stroke-linecap="butt"/><path d="M236.87761,186.65747c0.70119,0.32136 1.95117,1.36033 1.20352,1.92329c-0.70523,0.53103 -1.28257,1.05823 -2.01963,1.65318c-0.6002,0.48447 -1.58157,-1.57729 -1.26021,-2.27848c0.32136,-0.70119 1.37513,-1.61935 2.07632,-1.29799z" fill="#808080" stroke="#000000" stroke-width="0.1" stroke-linecap="butt"/><path d="M236.35998,189.16364c0.7638,0.35006 2.47444,-1.26874 1.79389,-0.74158c-0.64246,0.49765 -1.2738,1.14454 -2.05269,1.66545c-0.69841,0.46708 -1.31691,-1.07393 -1.30271,-1.88645c0.01739,-0.9957 0.79773,0.61252 1.56153,0.96258z" fill="#404040" stroke="none" stroke-width="0" stroke-linecap="butt"/><path d="M235.17945,189.41034c0,0 0.87638,-0.93051 1.33741,-1.28729c0.41512,-0.32127 1.30549,-0.75804 1.30549,-0.75804" data-paper-data="{&quot;index&quot;:null}" fill="none" stroke="#000000" stroke-width="0.1" stroke-linecap="round"/><path d="M235.54742,189.99318c0,0 0.87638,-0.93052 1.3374,-1.2873c0.41512,-0.32127 1.3055,-0.75804 1.3055,-0.75804" data-paper-data="{&quot;index&quot;:null}" fill="none" stroke="#000000" stroke-width="0.1" stroke-linecap="round"/><path d="M234.78639,188.95612c0,0 0.87638,-0.93052 1.33741,-1.2873c0.41512,-0.32127 1.30549,-0.75803 1.30549,-0.75803" data-paper-data="{&quot;index&quot;:null}" fill="none" stroke="#000000" stroke-width="0.1" stroke-linecap="round"/><path d="M234.57635,188.40644c0,0 0.74917,-0.83207 1.15144,-1.1434c0.36223,-0.28033 1.15472,-0.64135 1.15472,-0.64135" data-paper-data="{&quot;index&quot;:null}" fill="none" stroke="#000000" stroke-width="0.1" stroke-linecap="round"/><path d="M236.27886,189.83323c0,0 -0.73143,-0.64735 -0.99571,-1.00185c-0.23797,-0.31921 -0.51933,-1.03044 -0.51933,-1.03044" data-paper-data="{&quot;index&quot;:null}" fill="none" stroke="#000000" stroke-width="0.1" stroke-linecap="round"/><path d="M236.85558,189.45891c0,0 -0.73143,-0.64735 -0.99571,-1.00185c-0.23797,-0.31921 -0.51933,-1.03043 -0.51933,-1.03043" data-paper-data="{&quot;index&quot;:null}" fill="none" stroke="#000000" stroke-width="0.1" stroke-linecap="round"/><path d="M236.46437,186.64545c0,0 0.61791,0.45078 0.86722,0.76122c0.27688,0.34475 0.72004,1.21517 0.72004,1.21517" data-paper-data="{&quot;index&quot;:null}" fill="none" stroke="#000000" stroke-width="0.1" stroke-linecap="round"/><path d="M235.95734,187.10982c0,0 0.6179,0.45077 0.86721,0.76121c0.27688,0.34475 0.72005,1.21518 0.72005,1.21518" data-paper-data="{&quot;index&quot;:null}" fill="none" stroke="#000000" stroke-width="0.1" stroke-linecap="round"/></g></g></g></g></svg>