<svg version="1.1" xmlns="http://www.w3.org/2000/svg" xmlns:xlink="http://www.w3.org/1999/xlink" width="31.69328" height="32.75294" viewBox="0,0,31.69328,32.75294"><g transform="translate(-226.03005,-175.1235)"><g data-paper-data="{&quot;isPaintingLayer&quot;:true}" fill-rule="nonzero" stroke-linejoin="miter" stroke-miterlimit="10" stroke-dasharray="" stroke-dashoffset="0" style="mix-blend-mode: normal"><g stroke="#000000" stroke-width="0.3" stroke-linecap="butt"><path d="M242.78758,187.90979l-1.5361,-2.07039l-0.60108,-1.60288l5.51902,4.05268l-1.11079,1.04794z" fill="#418040"/><path d="M242.42516,188.99092c-0.42094,0 -0.63372,-1.84179 -1.68238,-1.77925c-1.73933,0.10373 -4.90256,2.49093 -4.90256,1.8925c0,-0.44139 1.71494,-2.05424 1.71494,-2.05424c0,0 -0.73813,-3.251 -0.13399,-3.251c1.11911,0 3.02632,-0.32765 3.02632,0.63158c0,0.3803 2.65309,4.56041 1.97767,4.56041z" data-paper-data="{&quot;index&quot;:null}" fill="#61bf60"/><path d="M237.31105,183.96936l0.13357,1.5361l-4.75947,5.56281l-1.41148,-2.27209z" fill="#418040"/></g><g data-paper-data="{&quot;index&quot;:null}"><path d="M233.54309,189.52222c0.4082,0.3075 -0.90898,3.63019 -1.78267,3.21035c-1.00131,-0.48116 -1.11108,-0.44216 -1.43725,-0.63898c-0.36072,-0.21766 -0.74839,-0.58943 -1.47967,-1.09643c-0.16888,-0.1171 0.00222,-0.84235 0.5741,-0.91313c0.24115,-0.02985 0.77231,0.31817 1.02602,0.45496c0.32057,0.17285 -0.79526,-0.25624 -0.81669,-0.95691c-0.00936,-0.30575 0.56295,-0.50278 1.53054,0.07531c0.40797,0.24373 -0.43615,-0.41276 -0.9822,-0.74368c-0.49221,-0.29828 0.55058,-1.19476 0.58455,-1.17598c0.81196,0.44878 0.61372,0.31784 1.34215,0.75738c0.72842,0.43954 0.54153,0.34941 1.44112,1.02707z" data-paper-data="{&quot;index&quot;:null}" fill="#ffc380" stroke="#000000" stroke-width="0.3" stroke-linecap="butt"/><path d="M231.4691,192.53648l-0.39283,0.69299l-2.48404,-1.41673l0.39283,-0.69299z" fill="#808080" stroke="#000000" stroke-width="0.3" stroke-linecap="butt"/><path d="M231.42268,193.45168l-0.26743,0.52139l-3.31195,-1.97818l0.26743,-0.52139z" fill="#bfbfbf" stroke="#000000" stroke-width="0.3" stroke-linecap="butt"/><path d="M229.84312,196.87879c-0.89779,0.64347 -2.6301,-0.35905 -3.27357,-1.25683c-0.64347,-0.89779 0.17228,-4.06432 1.14844,-3.54742c1.19877,0.63478 2.15448,1.218 3.29101,1.77163c1.20489,0.58693 -0.26809,2.38916 -1.16588,3.03263z" fill="#808080" stroke="#000000" stroke-width="0.3" stroke-linecap="butt"/><path d="M228.43023,193.49747c-0.97795,0.70092 -1.63511,3.17493 -1.93182,1.78005c-0.24213,-1.13827 0.20594,-3.47356 1.31539,-3.00796c1.23732,0.51926 2.30168,1.25597 3.34084,1.77983c1.10078,0.55494 -1.74647,-1.25285 -2.72442,-0.55193z" fill="#404040" stroke="none" stroke-width="0" stroke-linecap="butt"/><path d="M230.97765,195.6259c0,0 -1.371,-0.37051 -2.04238,-0.7086c-0.74561,-0.37546 -2.23196,-1.44385 -2.23196,-1.44385" data-paper-data="{&quot;index&quot;:null}" fill="none" stroke="#000000" stroke-width="0.2" stroke-linecap="round"/><path d="M231.33555,194.70602c0,0 -1.371,-0.37051 -2.04238,-0.7086c-0.74561,-0.37546 -2.23196,-1.44385 -2.23196,-1.44385" data-paper-data="{&quot;index&quot;:null}" fill="none" stroke="#000000" stroke-width="0.2" stroke-linecap="round"/><path d="M230.54934,196.37186c0,0 -1.371,-0.37051 -2.04238,-0.7086c-0.74561,-0.37546 -2.23196,-1.44385 -2.23196,-1.44385" data-paper-data="{&quot;index&quot;:null}" fill="none" stroke="#000000" stroke-width="0.2" stroke-linecap="round"/><path d="M229.8598,196.92775c0,0 -1.21271,-0.29079 -1.79854,-0.5858c-0.65061,-0.32763 -1.93121,-1.29241 -1.93121,-1.29241" data-paper-data="{&quot;index&quot;:null}" fill="none" stroke="#000000" stroke-width="0.2" stroke-linecap="round"/><path d="M226.55914,195.84942c0,0 0.20104,-1.0767 0.44827,-1.59048c0.27457,-0.57059 1.12571,-1.68054 1.12571,-1.68054" data-paper-data="{&quot;index&quot;:null}" fill="none" stroke="#000000" stroke-width="0.2" stroke-linecap="round"/><path d="M227.47216,196.2179c0,0 0.20104,-1.0767 0.44827,-1.59048c0.27457,-0.57059 1.12571,-1.68054 1.12571,-1.68054" data-paper-data="{&quot;index&quot;:null}" fill="none" stroke="#000000" stroke-width="0.2" stroke-linecap="round"/><path d="M230.9563,193.79649c0,0 -0.38495,1.34471 -0.67989,1.90503c-0.26557,0.50455 -1.0109,1.30716 -1.0109,1.30716" data-paper-data="{&quot;index&quot;:null}" fill="none" stroke="#000000" stroke-width="0.2" stroke-linecap="round"/><path d="M230.11661,193.28238c0,0 -0.38496,1.34472 -0.6799,1.90504c-0.26557,0.50455 -1.01089,1.30715 -1.01089,1.30715" data-paper-data="{&quot;index&quot;:null}" fill="none" stroke="#000000" stroke-width="0.2" stroke-linecap="round"/></g><path d="M234.95005,192.14879l-0.8,-1.5l2,-1.5c0,0 3.56465,-1.7667 4.59758,-1.75004c1.03374,0.01667 1.60242,1.85004 1.60242,1.85004l1.84854,1.77826l-0.99525,0.12706l1.88307,4.22196l-4.14835,-1.08477l0.22094,-2.42819l-1.04022,-1.75587l0.83455,1.8517l-1.75788,2.2179l-2.55286,-2.19979c0,0 -2.23653,1.73104 -2.89375,1.69193c-1.30676,-0.07779 1.2012,-1.52017 1.2012,-1.52017z" fill="#e4af72" stroke="#000000" stroke-width="0.3" stroke-linecap="butt"/><g><path d="M242.17054,179.59122c0.45731,0.53218 -0.46621,2.07578 -2.06277,3.44771c-1.59656,1.37193 -3.26155,2.05267 -3.71886,1.52049c-0.26335,-0.30648 -2.82438,-2.04389 -2.6163,-3.77762c0.15324,-1.27688 3.02875,-2.96045 3.7059,-3.54233c0.47863,-0.41129 2.13841,3.66276 2.59495,3.38976c1.06635,-0.63762 1.77687,-1.41066 2.09708,-1.03802z" data-paper-data="{&quot;index&quot;:null}" fill="#ffc380" stroke="#000000" stroke-width="0.3" stroke-linecap="butt"/><path d="M237.31319,176.92432c0.73883,0.8598 -1.18453,1.22606 -2.13252,2.04067c-0.94799,0.81461 -0.61034,3.89281 -1.34919,3.033c-0.03143,-0.03658 -1.21168,0.73503 -2.08229,0.54405c-0.81327,-0.17841 -1.31428,-1.31247 -1.51212,-1.549c-0.368,-0.43999 1.9944,-0.91169 1.62531,-1.2634c-0.93302,-0.88908 -1.58132,-1.18337 -1.50945,-1.80095c0.07838,-0.67349 3.65376,0.20146 3.63736,-0.36889c-0.03646,-1.268 -0.80762,-1.6661 -0.37809,-2.0352c0.94799,-0.81461 2.96214,0.53992 3.70098,1.39972z" data-paper-data="{&quot;index&quot;:null}" fill="#ff7c00" stroke="#000000" stroke-width="0.3" stroke-linecap="butt"/><path d="M234.88443,185.37072l-2.8167,-3.07328l2.05722,-0.00979l1.16245,1.50622z" data-paper-data="{&quot;index&quot;:null}" fill="#ffc380" stroke="#000000" stroke-width="0.3" stroke-linecap="butt"/><path d="M235.06584,184.81929l-1.52882,-1.74777l1.15591,-0.02062l0.45882,0.58302z" data-paper-data="{&quot;index&quot;:null}" fill="#bf9360" stroke="#000000" stroke-width="0.2" stroke-linecap="butt"/><path d="M231.78762,181.88066c0.75778,0.88184 3.18309,-0.86161 2.32328,-0.12277c-0.85979,0.73883 -2.2048,1.06822 -2.96258,0.18637c-0.75778,-0.88184 -1.18036,-1.21752 -0.10472,-1.57548c1.05438,-0.35089 -0.01377,0.63003 0.74401,1.51188z" data-paper-data="{&quot;index&quot;:null}" fill="#bf5c00" stroke="none" stroke-width="0" stroke-linecap="butt"/><path d="M231.75502,178.61245c0.7483,0.87082 -0.15111,0.88186 0.55225,1.08682c0.14696,0.04283 0.07129,0.44637 -0.67702,-0.42446c-0.7483,-0.87082 -1.17144,-0.56067 -1.25453,-1.17727c-0.02543,-0.18877 0.63099,-0.35592 1.37929,0.51491z" data-paper-data="{&quot;index&quot;:null}" fill="#bf5c00" stroke="none" stroke-width="0" stroke-linecap="butt"/><path d="M234.11239,176.0663c0.13312,1.28663 0.88601,2.28279 0.11875,1.38991c-0.76725,-0.89287 -0.08942,-0.27437 -0.59838,-1.46353c-0.10857,-0.25368 0.34116,-1.26467 0.47963,0.07362z" data-paper-data="{&quot;index&quot;:null}" fill="#bf5c00" stroke="none" stroke-width="0" stroke-linecap="butt"/><path d="M236.01714,176.78893c0.40192,0.46773 0.0089,1.02424 -0.52332,1.32216c-0.44612,0.24973 -0.97317,0.24137 -1.3753,0.58692c-0.88184,0.75778 -0.1837,2.69344 -0.92253,1.83364c-0.73883,-0.85979 -0.20505,-1.28107 0.6768,-2.03885c0.32859,-0.28236 0.79641,-0.24808 1.05521,-0.62935c0.43573,-0.64195 0.62561,-1.61394 1.08913,-1.07452z" data-paper-data="{&quot;index&quot;:null}" fill="#ff9c40" stroke="none" stroke-width="0" stroke-linecap="butt"/><path d="M237.88131,179.68519c0.40731,0.47399 0.54983,1.0195 0.31835,1.21841c-0.23148,0.19891 -1.20217,-0.38956 -1.20217,-0.38956l-0.27282,-1.32693c0,0 0.74933,0.02409 1.15664,0.49808z" data-paper-data="{&quot;index&quot;:null}" fill="#ffffff" stroke="#000000" stroke-width="0.3" stroke-linecap="butt"/><path d="M236.86648,180.36151c0,0 -0.27018,-1.19795 -0.159,-1.5752c0.07068,-0.23982 0.76157,-0.46925 0.76157,-0.46925" data-paper-data="{&quot;index&quot;:null}" fill="none" stroke="#000000" stroke-width="0.3" stroke-linecap="round"/><path d="M236.50751,180.91285c0,0 0.75565,1.25901 0.52416,1.45792c-0.23148,0.19891 -0.84147,-0.13131 -1.36244,-0.73758c-0.52097,-0.60627 -0.52417,-1.45792 -0.52417,-1.45792z" data-paper-data="{&quot;index&quot;:null}" fill="#ffffff" stroke="#000000" stroke-width="0.3" stroke-linecap="butt"/><path d="M232.95087,180.81168c0,0 0.67457,-0.91441 1.26331,-0.88741c0.65612,0.03009 2.49323,1.0597 2.49323,1.0597" data-paper-data="{&quot;index&quot;:null}" fill="none" stroke="#000000" stroke-width="0.3" stroke-linecap="round"/><path d="M237.13828,183.18128c0,0 0.80614,-0.16671 1.36072,-0.41411c0.69916,-0.3119 2.50192,-1.30902 2.50192,-1.30902c0,0 -0.56515,0.13008 -1.33839,0.7008c-0.41204,0.30412 -0.93586,1.07679 -1.34797,1.26063c-1.18548,0.52885 -1.17629,-0.2383 -1.17629,-0.2383z" data-paper-data="{&quot;index&quot;:null}" fill="#ffffff" stroke="#000000" stroke-width="0.3" stroke-linecap="round"/></g><g data-paper-data="{&quot;index&quot;:null}" stroke="#000000" stroke-width="0.3" stroke-linecap="butt"><g fill="#404040"><path d="M247.30946,190.36559c0,0 1.21657,1.35738 1.49195,1.13618c0.31071,-0.24959 0.99193,-0.79682 0.99193,-0.79682l0.7801,0.91468l-1.81442,1.37188l-1.88079,-1.90548z"/><path d="M247.22886,187.80098l2.89649,-2.47031l5.24399,6.1487l-2.89649,2.47031z"/><path d="M244.46128,190.30808l2.73841,-2.33548l0.88102,1.033c0,0 -1.07211,2.0334 -1.35751,3.44c-0.17046,0.84011 -2.26189,-2.13753 -2.26189,-2.13753z"/><path d="M248.19132,188.20903l0.76224,-0.65009l3.90049,4.57342l-0.76224,0.65008z"/><path d="M249.72427,186.80201l0.40653,-0.34672l3.90049,4.57341l-0.40653,0.34672z"/><path d="M254.61061,190.48682c0.39924,0.46812 0.32475,1.18714 -0.16639,1.60602c-0.49114,0.41887 -1.21293,0.37895 -1.61216,-0.08917c-0.39924,-0.46811 -0.32474,-1.18714 0.1664,-1.60601c0.49114,-0.41887 1.21291,-0.37896 1.61214,0.08916z"/><path d="M253.57015,193.28079l1.47365,-1.25683l0.93178,1.09254l-1.47365,1.25682z"/><path d="M254.51713,194.48018l1.52446,-1.30015l1.42499,0.84745l-2.43916,2.08026z"/></g><path d="M244.25965,190.15601c-0.30065,-0.41327 1.92915,-3.2067 2.64222,-2.55009c0.81723,0.75251 0.93361,0.74726 1.18811,1.03072c0.28146,0.31349 0.54371,0.78224 1.09513,1.48064c0.12734,0.1613 -0.24803,0.805 -0.81566,0.70575c-0.23935,-0.04185 -0.64578,-0.52977 -0.8485,-0.73467c-0.25614,-0.2589 0.68581,0.47724 0.50176,1.15364c-0.08031,0.29516 -0.68521,0.31653 -1.44188,-0.51884c-0.31904,-0.35222 0.29665,0.52211 0.72232,0.99802c0.38369,0.42898 -0.87539,0.98198 -0.9024,0.9541c-0.64558,-0.66628 -0.4942,-0.48316 -1.06258,-1.11621c-0.56838,-0.63305 -0.41594,-0.49228 -1.07851,-1.40304z" data-paper-data="{&quot;index&quot;:null}" fill="#ffc380"/></g><g stroke-linecap="butt"><path d="M242.23607,194.65655l2.86579,0.83452l0.20045,2.32206c0,0 1.27416,4.36863 1.30358,4.50526c0.08586,0.39864 0.46653,3.47697 -0.6245,3.87667c-1.05755,0.38741 -2.07544,-0.85765 -2.92425,-1.74597c-0.82937,-0.86797 -3.57281,-2.50599 -3.99692,-4.61062c-0.50857,-2.52381 1.38583,-5.48714 1.38583,-5.48714z" fill="#ff0000" stroke="#000000" stroke-width="0.3"/><path d="M242.78169,204.35086c-1.18437,-1.23949 -3.97516,-6.87488 -3.35181,-8.16449c0.62335,-1.28961 1.48743,-2.62485 2.6718,-1.38536c0.44219,0.46277 0.42616,1.47409 0.80564,2.54619c0.63693,1.79941 1.50995,3.88712 1.11933,4.69526c-0.62335,1.28961 -0.0606,3.54789 -1.24497,2.3084z" fill="#bf0000" stroke="none" stroke-width="0"/><path d="M246.48718,202.14665c0.30219,0.31625 -0.73695,-0.92887 -1.35188,0.34332c-0.61493,1.27219 -0.7646,2.28844 -1.06679,1.97219c-0.30219,-0.31626 -0.25737,-2.10747 0.35755,-3.37966c0.61492,-1.27218 1.75893,0.7479 2.06112,1.06415z" fill="#ff7b00" stroke="#000000" stroke-width="0.3"/><path d="M243.4547,197.68057c0.61493,-1.27219 1.75893,0.74789 2.06112,1.06414c0.30219,0.31625 -0.73696,-0.92886 -1.35189,0.34333c-0.61493,1.27219 -0.76459,2.28843 -1.06678,1.97218c-0.30219,-0.31625 -0.25737,-2.10747 0.35755,-3.37966z" fill="#ff7b00" stroke="#000000" stroke-width="0.3"/><path d="M246.42169,206.30714c-0.22744,0.47053 -1.43433,2.54885 -4.7062,-0.88628c-3.22329,-3.38412 -2.98065,-7.97091 -2.74034,-8.42738c0.78891,-1.49851 0.40546,3.46954 3.34379,6.7781c3.27227,3.68457 4.3302,2.06503 4.10276,2.53556z" fill="#fffdc0" stroke="#000000" stroke-width="0.3"/><path d="M241.98105,195.88341c0.51757,0.54166 0.64638,1.5823 0.2877,2.32434c-0.35868,0.74204 -1.06901,0.90448 -1.58658,0.36282c-0.51757,-0.54166 -0.64638,-1.5823 -0.28771,-2.32434c0.35868,-0.74204 1.06902,-0.90449 1.58659,-0.36283z" fill="#ff7b00" stroke="#000000" stroke-width="0.3"/></g><g stroke-linecap="butt"><path d="M240.02568,200.21871c0,0 1.55876,1.89765 1.00195,2.43505c-0.74138,0.71553 -0.2471,3.03776 -4.87032,3.00397c-2.98696,-0.02183 -2.08064,-6.44752 -2.10012,-8.69098c-0.02039,-2.34845 0.00949,-3.0264 0.00949,-3.0264l2.4564,-1.74317l2.50676,2.1652c0,0 0.15634,1.08113 0.01011,2.06208c-0.0461,0.30926 0.98573,3.79424 0.98573,3.79424z" fill="#ff0000" stroke="#000000" stroke-width="0.3"/><path d="M240.95618,202.45114c-0.50944,1.06839 -0.5184,1.70692 -1.49874,2.32845c-0.53888,0.34165 -1.25618,0.76165 -2.92231,0.76637c-1.18079,0.00335 -1.13129,-0.13082 -1.45858,-0.38625c-0.57083,-0.4455 -0.89066,-1.25987 -0.85721,-2.3569c-0.02804,-2.14371 1.71398,-2.03978 2.78948,-2.03978c1.0755,0 4.55658,0.41045 3.94736,1.6881z" fill="#bf0000" stroke="none" stroke-width="0"/><path d="M236.80353,198.84322c-1.13363,0 -1.89473,0.61314 -1.89473,-0.10551c0,-0.71865 0.81373,-0.94954 1.94736,-0.94954c1.13363,0 2,0.4419 2,1.16054c0,0.71865 -0.919,-0.1055 -2.05263,-0.1055z" data-paper-data="{&quot;index&quot;:null}" fill="#ff7b00" stroke="#000000" stroke-width="0.3"/><path d="M236.75091,196.3814c-1.13363,0 -1.89473,0.61315 -1.89473,-0.1055c0,-0.71865 0.81373,-0.94956 1.94736,-0.94956c1.13363,0 2,0.44191 2,1.16055c0,0.71865 -0.919,-0.1055 -2.05263,-0.1055z" data-paper-data="{&quot;index&quot;:null}" fill="#ff7c00" stroke="#000000" stroke-width="0.3"/><path d="M241.27197,202.2753c0,0.52442 -0.32275,5.45926 -4.34211,5.45113c-3.95967,-0.008 -3.14761,-4.43479 -3.13158,-4.95878c0.05263,-1.72016 -0.724,2.81653 2.97369,2.98933c4.11793,0.19244 4.5,-4.00612 4.5,-3.4817z" fill="#fffdc0" stroke="#000000" stroke-width="0.3"/><path d="M237.06144,207.30441c0,0.28456 -0.83102,0.35169 -1.76316,-0.21101c-0.54611,-0.32967 -0.76031,-0.45282 -0.93729,-0.75266c-0.14494,-0.24556 -0.40482,-0.51528 -0.40482,-0.8651c0,-0.77692 -0.0604,-3.07427 -0.07895,-1.61775c-0.00791,0.62166 0.24997,1.77856 1.10584,2.45007c0.79035,0.62009 2.07837,0.62346 2.07837,0.99645z" fill="#bfbfbf" stroke="none" stroke-width="0"/></g></g></g></svg>