<svg version="1.1" xmlns="http://www.w3.org/2000/svg" xmlns:xlink="http://www.w3.org/1999/xlink" width="25.62723" height="30.06503" viewBox="0,0,25.62723,30.06503"><g transform="translate(-228.9419,-173.9023)"><g data-paper-data="{&quot;isPaintingLayer&quot;:true}" fill-rule="nonzero" stroke-linejoin="miter" stroke-miterlimit="10" stroke-dasharray="" stroke-dashoffset="0" style="mix-blend-mode: normal"><g stroke="#000000" stroke-width="0.3" stroke-linecap="butt"><path d="M242.78758,187.90978l-1.5361,-2.07039l-0.60108,-1.60288l3.33934,2.5379l2.27059,-1.39431l-0.11079,1.22976l-2.31374,1.41192z" fill="#418040"/><path d="M242.42516,188.99091c-0.42094,0 -0.63372,-1.84179 -1.68238,-1.77925c-1.73933,0.10373 -4.90256,2.49093 -4.90256,1.8925c0,-0.44139 1.71494,-2.05424 1.71494,-2.05424c0,0 -0.73813,-3.251 -0.13399,-3.251c1.11911,0 3.02632,-0.32765 3.02632,0.63158c0,0.3803 2.65309,4.56041 1.97767,4.56041z" data-paper-data="{&quot;index&quot;:null}" fill="#61bf60"/><path d="M233.90492,186.17332l3.40613,-2.20397l0.13357,1.5361l-1.66967,2.27075l-3.81707,0.20115l-0.22966,-1.63573z" fill="#418040"/></g><g data-paper-data="{&quot;index&quot;:null}"><path d="M232.91588,188.65864c-0.48773,0.15265 -2.42107,-2.85359 -1.57086,-3.31914c0.9744,-0.53356 1.00665,-0.6455 1.35663,-0.79595c0.38705,-0.16639 0.91506,-0.26491 1.75316,-0.56394c0.19356,-0.06905 0.68336,0.49252 0.40774,0.99857c-0.11622,0.21339 -0.70852,0.44238 -0.9675,0.5689c-0.32724,0.15986 0.67155,-0.49711 1.25353,-0.10635c0.25396,0.17051 0.08071,0.75046 -0.95283,1.20014c-0.43577,0.18961 0.58957,-0.11404 1.17664,-0.3651c0.52918,-0.2263 0.65035,1.14352 0.6153,1.16019c-0.83778,0.39852 -0.61586,0.31367 -1.39747,0.64968c-0.7816,0.336 -0.59947,0.2366 -1.67432,0.57301z" data-paper-data="{&quot;index&quot;:null}" fill="#ffc380" stroke="#000000" stroke-width="0.3" stroke-linecap="butt"/><path d="M231.67411,185.21695l-0.33441,-0.72299l2.59859,-1.19369l0.33441,0.72299z" fill="#808080" stroke="#000000" stroke-width="0.3" stroke-linecap="butt"/><path d="M230.95729,184.64607l-0.26799,-0.5211l3.53723,-1.53954l0.26799,0.5211z" fill="#bfbfbf" stroke="#000000" stroke-width="0.3" stroke-linecap="butt"/><path d="M229.09192,181.36575c0,-1.10457 1.824,-1.92857 2.92857,-1.92857c1.10457,0 3.20309,2.5077 2.21429,3c-1.21429,0.60456 -2.24508,1.0416 -3.35715,1.64285c-1.17896,0.63741 -1.78572,-1.60971 -1.78572,-2.71428z" fill="#808080" stroke="#000000" stroke-width="0.3" stroke-linecap="butt"/><path d="M232.66333,182.18716c0,-1.20319 -1.62803,-3.17857 -0.32143,-2.60714c1.06623,0.4663 2.70332,2.19091 1.67857,2.82143c-1.14285,0.70319 -2.36169,1.13913 -3.39285,1.67857c-1.09231,0.57143 2.03572,-0.68967 2.03572,-1.89286z" fill="#404040" stroke="none" stroke-width="0" stroke-linecap="butt"/><path d="M229.44934,183.01776c0,0 1.09983,-0.8985 1.76574,-1.24724c0.73953,-0.3873 2.47378,-0.97301 2.47378,-0.97301" data-paper-data="{&quot;index&quot;:null}" fill="none" stroke="#000000" stroke-width="0.2" stroke-linecap="round"/><path d="M229.98852,183.84454c0,0 1.09983,-0.8985 1.76574,-1.24724c0.73953,-0.3873 2.47378,-0.97301 2.47378,-0.97301" data-paper-data="{&quot;index&quot;:null}" fill="none" stroke="#000000" stroke-width="0.2" stroke-linecap="round"/><path d="M229.09254,182.23507c0,0 1.09983,-0.8985 1.76574,-1.24724c0.73953,-0.3873 2.47378,-0.97301 2.47378,-0.97301" data-paper-data="{&quot;index&quot;:null}" fill="none" stroke="#000000" stroke-width="0.2" stroke-linecap="round"/><path d="M229.04241,181.35078c0,0 0.94282,-0.81628 1.52388,-1.12058c0.64531,-0.33795 2.17549,-0.81678 2.17549,-0.81678" data-paper-data="{&quot;index&quot;:null}" fill="none" stroke="#000000" stroke-width="0.2" stroke-linecap="round"/><path d="M231.84168,179.29621c0,0 0.75802,0.79064 1.03159,1.29089c0.30382,0.55556 0.71015,1.89397 0.71015,1.89397" data-paper-data="{&quot;index&quot;:null}" fill="none" stroke="#000000" stroke-width="0.2" stroke-linecap="round"/><path d="M231.0103,179.82365c0,0 0.75802,0.79064 1.03159,1.29089c0.30382,0.55556 0.71015,1.89397 0.71015,1.89397" data-paper-data="{&quot;index&quot;:null}" fill="none" stroke="#000000" stroke-width="0.2" stroke-linecap="round"/><path d="M230.94871,184.06613c0,0 -0.86872,-1.09625 -1.15233,-1.66239c-0.25539,-0.50978 -0.47355,-1.58314 -0.47355,-1.58314" data-paper-data="{&quot;index&quot;:null}" fill="none" stroke="#000000" stroke-width="0.2" stroke-linecap="round"/><path d="M231.85575,183.68313c0,0 -0.86872,-1.09626 -1.15233,-1.6624c-0.25539,-0.50978 -0.47355,-1.58313 -0.47355,-1.58313" data-paper-data="{&quot;index&quot;:null}" fill="none" stroke="#000000" stroke-width="0.2" stroke-linecap="round"/></g><path d="M234.95005,192.14878l-0.8,-1.5l2,-1.5c0,0 3.56465,-1.7667 4.59758,-1.75004c1.03374,0.01667 1.60242,1.85004 1.60242,1.85004l1.84854,1.77826l-0.99525,0.12706l1.24671,1.49468l-4.60289,1.91523l1.31185,-2.70092l-1.04022,-1.75587l0.83455,1.8517l-1.21243,2.2179l-3.09831,-2.19979c0,0 -2.23653,1.73104 -2.89375,1.69193c-1.30676,-0.07779 1.2012,-1.52017 1.2012,-1.52017z" fill="#e4af72" stroke="#000000" stroke-width="0.3" stroke-linecap="butt"/><g><path d="M243.50326,184.16247c-0.10921,0.69313 -1.88341,0.98943 -3.9628,0.66179c-2.07939,-0.32764 -3.67652,-1.15514 -3.56731,-1.84827c0.06289,-0.39916 -0.27241,-3.47569 1.1832,-4.44021c1.07205,-0.71037 4.21731,0.38976 5.09924,0.52872c0.62338,0.09822 -1.40526,4.00173 -0.90154,4.1727c1.17651,0.39936 2.22569,0.43993 2.14922,0.92526z" data-paper-data="{&quot;index&quot;:null}" fill="#ffc380" stroke="#000000" stroke-width="0.3" stroke-linecap="butt"/><path d="M242.3886,178.73442c-0.17644,1.11982 -1.70136,-0.10824 -2.93604,-0.30278c-1.23468,-0.19454 -3.36106,2.05663 -3.18462,0.9368c0.00751,-0.04764 -1.34486,-0.44699 -1.76331,-1.23397c-0.39088,-0.73515 0.14855,-1.85144 0.2006,-2.15538c0.09682,-0.56536 1.98646,0.92886 2.01532,0.41985c0.07296,-1.28673 -0.12278,-1.97126 0.39427,-2.31656c0.56387,-0.37655 2.21328,2.91409 2.63718,2.53214c0.9424,-0.84914 0.74617,-1.69452 1.30559,-1.60638c1.23468,0.19454 1.50744,2.60643 1.33099,3.72625z" data-paper-data="{&quot;index&quot;:null}" fill="#ff7c00" stroke="#000000" stroke-width="0.3" stroke-linecap="butt"/><path d="M234.38052,182.35536l0.5168,-4.13664l1.34005,1.56093l-0.39451,1.86128z" data-paper-data="{&quot;index&quot;:null}" fill="#ffc380" stroke="#000000" stroke-width="0.3" stroke-linecap="butt"/><path d="M234.91811,182.13636l0.34121,-2.29686l0.76446,0.86726l-0.14697,0.72721z" data-paper-data="{&quot;index&quot;:null}" fill="#bf9360" stroke="#000000" stroke-width="0.2" stroke-linecap="butt"/><path d="M235.0334,177.73534c-0.18097,1.14853 2.7183,1.86689 1.59847,1.69044c-1.11981,-0.17644 -2.242,-0.98776 -2.06104,-2.13629c0.18097,-1.14853 0.16296,-1.68791 1.13243,-1.10031c0.95031,0.57598 -0.4889,0.39762 -0.66986,1.54616z" data-paper-data="{&quot;index&quot;:null}" fill="#bf5c00" stroke="none" stroke-width="0" stroke-linecap="butt"/><path d="M237.50213,175.59348c-0.17871,1.13418 -0.76972,0.45611 -0.47026,1.12472c0.06257,0.13971 -0.29389,0.34345 -0.11518,-0.79072c0.17871,-1.13418 -0.33167,-1.25563 0.08427,-1.71835c0.12734,-0.14166 0.67988,0.25017 0.50117,1.38435z" data-paper-data="{&quot;index&quot;:null}" fill="#bf5c00" stroke="none" stroke-width="0" stroke-linecap="butt"/><path d="M240.96891,175.74013c-0.89398,0.93485 -1.1652,2.15371 -0.98197,0.99081c0.18323,-1.16289 0.15111,-0.24585 0.72737,-1.4039c0.12294,-0.24704 1.18447,-0.5593 0.2546,0.41309z" data-paper-data="{&quot;index&quot;:null}" fill="#bf5c00" stroke="none" stroke-width="0" stroke-linecap="butt"/><path d="M241.65221,177.65934c-0.09598,0.60917 -0.77455,0.67024 -1.34626,0.45776c-0.47924,-0.17811 -0.81426,-0.58506 -1.338,-0.66758c-1.14853,-0.18097 -2.17097,1.60477 -1.99453,0.48494c0.17644,-1.11981 0.84315,-0.98605 1.99169,-0.80508c0.42796,0.06743 0.70489,0.44605 1.16299,0.39623c0.77131,-0.08387 1.63481,-0.56883 1.52411,0.13372z" data-paper-data="{&quot;index&quot;:null}" fill="#ff9c40" stroke="none" stroke-width="0" stroke-linecap="butt"/><path d="M240.65326,180.95563c-0.09727,0.61733 -0.42053,1.07928 -0.72202,1.03178c-0.30149,-0.0475 -0.48194,-1.1682 -0.48194,-1.1682l0.83419,-1.06738c0,0 0.46704,0.58647 0.36977,1.2038z" data-paper-data="{&quot;index&quot;:null}" fill="#ffffff" stroke="#000000" stroke-width="0.3" stroke-linecap="butt"/><path d="M239.48064,180.62058c0,0 0.73764,-0.98183 1.09707,-1.14149c0.22849,-0.10149 0.85082,0.27623 0.85082,0.27623" data-paper-data="{&quot;index&quot;:null}" fill="none" stroke="#000000" stroke-width="0.3" stroke-linecap="round"/><path d="M238.82808,180.70424c0,0 -0.46968,1.39122 -0.77117,1.34372c-0.30149,-0.0475 -0.44504,-0.72613 -0.32062,-1.51574c0.12442,-0.78962 0.77117,-1.34372 0.77117,-1.34372z" data-paper-data="{&quot;index&quot;:null}" fill="#ffffff" stroke="#000000" stroke-width="0.3" stroke-linecap="butt"/><path d="M236.60129,177.92911c0,0 1.1336,-0.07841 1.49439,0.38762c0.40209,0.51935 0.8077,2.58588 0.8077,2.58588" data-paper-data="{&quot;index&quot;:null}" fill="none" stroke="#000000" stroke-width="0.3" stroke-linecap="round"/><path d="M237.50848,182.6542c0,0 0.64919,0.50616 1.19691,0.76841c0.69052,0.33061 2.61792,1.05813 2.61792,1.05813c0,0 -0.46518,-0.34629 -1.40086,-0.56569c-0.49859,-0.11691 -1.42656,-0.01547 -1.83357,-0.21035c-1.17082,-0.56058 -0.58041,-1.05051 -0.58041,-1.05051z" data-paper-data="{&quot;index&quot;:null}" fill="#ffffff" stroke="#000000" stroke-width="0.3" stroke-linecap="round"/></g><g stroke="#000000" stroke-width="0.3" stroke-linecap="butt"><g fill="#404040"><path d="M246.43625,184.59174c0,0 1.67524,-0.71843 1.55375,-1.0501c-0.13708,-0.37423 -0.43764,-1.1947 -0.43764,-1.1947l1.11617,-0.44651l0.71937,2.15794l-2.40701,1.1724z"/><path d="M243.98063,183.8477l-1.41393,-3.53453l7.50313,-3.0015l1.41393,3.53453z"/><path d="M245.47065,187.27186l-1.33676,-3.34162l1.26056,-0.50427c0,0 1.58358,1.66625 2.82497,2.38661c0.74144,0.43025 -2.74877,1.45925 -2.74877,1.45925z"/><path d="M244.67512,183.06635l-0.37209,-0.93014l5.58084,-2.23252l0.37209,0.93014z"/><path d="M243.83241,181.16385l-0.19845,-0.49608l5.58084,-2.23252l0.19845,0.49608z"/><path d="M248.88671,177.71302c0.57123,-0.22851 1.22865,0.07208 1.4684,0.67141c0.23975,0.59932 -0.02897,1.27041 -0.6002,1.49892c-0.57122,0.22851 -1.22864,-0.07209 -1.46839,-0.67141c-0.23975,-0.59932 0.02896,-1.2704 0.60019,-1.49891z"/><path d="M251.20103,179.59259l-0.71937,-1.79827l1.3332,-0.53332l0.71937,1.79827z"/><path d="M252.64033,179.07904l-0.74417,-1.86027l1.25877,-1.07901l1.19068,2.97645z"/></g><path d="M245.26207,187.41425c-0.48773,0.15265 -2.42107,-2.85359 -1.57086,-3.31914c0.9744,-0.53356 1.00665,-0.6455 1.35663,-0.79595c0.38705,-0.16639 0.91506,-0.26491 1.75316,-0.56394c0.19356,-0.06905 0.68336,0.49252 0.40774,0.99857c-0.11622,0.21339 -0.70852,0.44238 -0.9675,0.5689c-0.32724,0.15986 0.67155,-0.49711 1.25353,-0.10635c0.25396,0.17051 0.08071,0.75046 -0.95283,1.20014c-0.43577,0.18961 0.58957,-0.11404 1.17664,-0.3651c0.52918,-0.2263 0.65035,1.14352 0.6153,1.16019c-0.83778,0.39852 -0.61586,0.31367 -1.39747,0.64968c-0.7816,0.336 -0.59947,0.2366 -1.67432,0.57301z" data-paper-data="{&quot;index&quot;:null}" fill="#ffc380"/></g><g stroke-linecap="butt"><path d="M241.52459,193.5805l2.62086,-0.78901l1.1212,0.76001c0,0 2.7591,1.68093 2.8369,1.73954c0.22699,0.17101 1.74974,1.65521 1.01809,2.50892c-0.7092,0.8275 -2.02911,0.72793 -3.07072,0.72793c-1.01775,0 -3.89861,0.68292 -5.07322,-0.23686c-1.40855,-1.10297 -1.03204,-3.84209 -1.03204,-3.84209z" fill="#ff0000" stroke="#000000" stroke-width="0.3"/><path d="M245.78776,198.63313c-1.45338,0 -5.94737,-1.50345 -5.94737,-2.57895c0,-1.0755 0.1782,-2.31579 1.63158,-2.31579c0.54263,0 0.92792,0.56938 1.65946,0.94318c1.22782,0.62738 2.76159,1.2776 2.76159,1.95156c0,1.0755 1.34812,2 -0.10526,2z" fill="#bf0000" stroke="none" stroke-width="0"/><path d="M247.93917,195.26473c0.37082,0 -0.96643,-0.08729 -0.96643,0.97368c0,1.06097 0.27834,1.71053 -0.09249,1.71053c-0.37083,0 -1.03986,-1.01798 -1.03986,-2.07895c0,-1.06096 1.72795,-0.60526 2.09878,-0.60526z" fill="#ff7b00" stroke="#000000" stroke-width="0.3"/><path d="M243.70882,194.54894c0,-1.06097 1.72796,-0.60527 2.09878,-0.60527c0.37082,0 -0.96643,-0.08728 -0.96643,0.97369c0,1.06097 0.27833,1.71052 -0.09249,1.71052c-0.37082,0 -1.03986,-1.01798 -1.03986,-2.07895z" fill="#ff7b00" stroke="#000000" stroke-width="0.3"/><path d="M249.5246,197.60684c0,0.39241 -0.16486,2.24292 -4.18421,2.23684c-3.95967,-0.00599 -5.56866,-2.68687 -5.55263,-3.07895c0.05263,-1.28715 1.69705,1.68649 5.39474,1.81579c4.11793,0.144 4.34211,-1.3661 4.34211,-0.97369z" fill="#fffdc0" stroke="#000000" stroke-width="0.3"/><path d="M241.80002,194.40776c0.63513,0 1.15,0.50167 1.15,1.12051c0,0.61884 -0.51487,1.12051 -1.15,1.12051c-0.63513,0 -1.15,-0.50167 -1.15,-1.12051c0,-0.61884 0.51487,-1.12051 1.15,-1.12051z" fill="#ff7b00" stroke="#000000" stroke-width="0.3"/></g><g stroke-linecap="butt"><path d="M240.02568,198.19948c0,0 1.55876,1.41997 1.00195,1.82209c-0.74138,0.53541 -0.2471,2.27308 -4.87032,2.2478c-2.98696,-0.01633 -2.08064,-4.82452 -2.10012,-6.50325c-0.02039,-1.75729 0.00949,-2.26458 0.00949,-2.26458l2.4564,-1.30437l2.50676,1.62017c0,0 0.15634,0.80898 0.01011,1.543c-0.0461,0.23141 0.98573,2.83914 0.98573,2.83914z" fill="#ff0000" stroke="#000000" stroke-width="0.3"/><path d="M240.95618,199.86996c-0.50944,0.79945 -0.5184,1.27724 -1.49874,1.74232c-0.53888,0.25565 -1.25618,0.56993 -2.92231,0.57346c-1.18079,0.00251 -1.13129,-0.09789 -1.45858,-0.28902c-0.57083,-0.33336 -0.89066,-0.94273 -0.85721,-1.76361c-0.02804,-1.60409 1.71398,-1.52632 2.78948,-1.52632c1.0755,0 4.55658,0.30713 3.94736,1.26316z" fill="#bf0000" stroke="none" stroke-width="0"/><path d="M236.80352,197.17024c-1.13363,0 -1.89473,0.4588 -1.89473,-0.07895c0,-0.53775 0.81373,-0.71052 1.94736,-0.71052c1.13363,0 2,0.33067 2,0.86841c0,0.53775 -0.919,-0.07895 -2.05263,-0.07895z" data-paper-data="{&quot;index&quot;:null}" fill="#ff7b00" stroke="#000000" stroke-width="0.3"/><path d="M236.75091,195.32812c-1.13363,0 -1.89473,0.45881 -1.89473,-0.07894c0,-0.53775 0.81373,-0.71053 1.94736,-0.71053c1.13363,0 2,0.33067 2,0.86841c0,0.53775 -0.919,-0.07895 -2.05263,-0.07895z" data-paper-data="{&quot;index&quot;:null}" fill="#ff7c00" stroke="#000000" stroke-width="0.3"/><path d="M241.27197,199.73838c0,0.39241 -0.32275,4.08503 -4.34211,4.07895c-3.95967,-0.00599 -3.14761,-3.31844 -3.13158,-3.71053c0.05263,-1.28715 -0.724,2.10754 2.97369,2.23684c4.11793,0.144 4.5,-2.99768 4.5,-2.60527z" fill="#fffdc0" stroke="#000000" stroke-width="0.3"/><path d="M237.06144,203.50154c0,0.21293 -0.83102,0.26316 -1.76316,-0.15789c-0.54611,-0.24668 -0.76031,-0.33884 -0.93729,-0.5632c-0.14494,-0.18375 -0.40482,-0.38557 -0.40482,-0.64733c0,-0.58135 -0.0604,-2.30041 -0.07895,-1.21053c-0.00791,0.46517 0.24997,1.33086 1.10584,1.83333c0.79035,0.464 2.07837,0.46652 2.07837,0.74562z" fill="#bfbfbf" stroke="none" stroke-width="0"/></g></g></g></svg>