<svg version="1.1" xmlns="http://www.w3.org/2000/svg" xmlns:xlink="http://www.w3.org/1999/xlink" width="11.81154" height="27.61184" viewBox="0,0,11.81154,27.61184"><g transform="translate(-231.87949,-173.91627)"><g data-paper-data="{&quot;isPaintingLayer&quot;:true}" fill-rule="nonzero" stroke-linejoin="miter" stroke-miterlimit="10" stroke-dasharray="" stroke-dashoffset="0" style="mix-blend-mode: normal"><g stroke="#000000" stroke-width="0.3" stroke-linecap="butt"><path d="M237.99647,189.4076c0.65919,0.06862 0.42408,-0.17045 0.70115,0.14675c0.17829,0.20412 0.4933,0.68873 0.4933,1.5477c0,1.45989 -0.39311,3.85509 -0.8605,5.28602c-0.23496,0.71936 2.31789,4.96959 -0.76632,2.01228c-0.82333,2.88053 -0.09521,-1.62121 -0.1502,-2.26141c-0.06296,-0.73299 -0.38965,-1.36587 -0.38965,-2.53689c0,-2.1938 0.43855,-4.25 0.97223,-4.19445z" data-paper-data="{&quot;index&quot;:null}" fill="#ffc380"/><path d="M240.66688,201.09405c0,1.08731 -2.11964,-1.29382 -2.6875,-1.34375c-2.13255,-0.1875 -1.5,2.36856 -1.5,1.28125c0,-1.08731 0.24245,-2.71875 1.3125,-2.71875c1.07005,0 2.875,1.69394 2.875,2.78125z" fill="#ff0000"/></g><g stroke="#000000" stroke-width="0.3" stroke-linecap="butt"><path d="M237.94091,190.9076c0.65919,0.06862 0.42408,-0.17045 0.70115,0.14675c0.17829,0.20412 0.4933,0.68873 0.4933,1.5477c0,1.45989 -0.94867,1.85509 -1.41606,3.28602c-0.23496,0.71936 -5.571,0.96959 -2.37743,-1.93216c-2.54555,-1.06391 1.68257,1.71212 1.62758,1.07192c-0.06296,-0.73299 -0.00076,1.24524 -0.00076,0.07422c0,-2.1938 0.43855,-4.25 0.97223,-4.19445z" data-paper-data="{&quot;index&quot;:null}" fill="#ffc380"/><path d="M232.28349,197.11611c-1.07473,-0.16491 1.60034,-1.89889 1.73581,-2.4526c0.50877,-2.07944 -2.11366,-1.84188 -1.03892,-1.67697c1.07473,0.16491 2.65053,0.65199 2.48823,1.70967c-0.16229,1.05767 -2.11039,2.58482 -3.18512,2.41991z" fill="#ff0000"/></g><g stroke-linecap="butt"><path d="M239.35438,191.0628c-1.56499,0.02085 -0.56241,0 -1.71875,0c-1.15634,0 0.74898,-2.72726 0.84375,-3.8125c0.03023,-0.34609 -0.13763,-1.034 -0.29065,-1.75042c-0.24573,-1.15052 -0.45322,-2.37458 0.2594,-2.37458c0.17718,0 0.82257,-0.22078 1.29628,0.18134c0.58435,0.49604 0.99439,1.67908 0.98793,2.25566c-0.01175,1.04823 -1.25572,0.82713 -1.22816,1.56207c0.05345,1.42538 0.07775,3.9354 -0.14981,3.93843z" fill="#ff0000" stroke="#000000" stroke-width="0.3"/><path d="M240.57414,185.56482c-0.0625,1.10457 -1.02298,0.92135 -1.03226,0.99798c-0.07381,0.60943 -0.08217,-0.05666 0.51412,-0.60081c0.57719,-0.52672 -0.02321,-1.85823 -0.05626,-1.85858c-0.03452,-0.00036 0.63681,0.3586 0.57441,1.4614z" fill="#bf0000" stroke="none" stroke-width="0"/><path d="M238.36667,183.67414c0,1.14139 1.16989,3.47625 0.21667,3.5c-0.06735,0.00168 0.11667,0.00806 -0.11667,-1.1c-0.2352,-1.11689 -0.07386,-0.25621 -0.25,-1.3c-0.20812,-1.23334 0.15,-2.24139 0.15,-1.1z" fill="#bf0000" stroke="none" stroke-width="0"/></g><g data-paper-data="{&quot;index&quot;:null}" stroke="#000000" stroke-width="0.3"><path d="M239.36627,182.97911c0.74369,0 -0.64008,-0.29811 -0.58642,1.9309c0.14452,6.00281 -0.28105,5.21359 -0.19641,6.10159c0.4949,1.67371 -0.49244,1.55938 -0.69116,1.55938c-0.2016,0 -2.2639,0.28792 -2.28442,-0.10033c-0.02115,-0.4001 0.05025,-0.23315 1.70289,-1.45376c0.098,-2.1256 0.08789,0.00302 0.03083,-3.99931c-0.05556,-3.89705 1.28102,-4.03847 2.0247,-4.03847z" fill="#ffc380" stroke-linecap="butt"/><path d="M236.37243,192.44294c0,0 0.16796,-0.48481 0.29668,-0.63999c0.11566,-0.13942 0.44065,-0.2489 0.44065,-0.2489" fill="none" stroke-linecap="round"/></g><g><path d="M238.06106,182.12038c0.01343,0.70102 -0.39005,0.58256 -0.4649,1.21166c-0.10241,0.86059 0.39708,2.66932 0.24107,3.44542c-0.09732,0.48413 -0.16592,-2.06375 -0.44304,-1.93054c-0.1227,0.05898 -0.17709,2.26762 -0.33439,2.76888c-0.27146,0.86501 -0.65426,0.19753 -0.81704,0.22501c-0.12888,0.02176 -0.59506,0.45877 -0.84294,-0.17904c-0.22922,-0.58977 -0.23986,-2.25603 -0.38116,-2.28587c-0.27297,-0.05764 -0.16284,2.28579 -0.28461,1.86835c-0.17464,-0.5987 0.14763,-2.37859 0.01621,-3.1699c-0.10062,-0.60587 -0.5189,-0.5953 -0.5325,-1.30521c-0.00342,-0.17875 -0.0454,-0.97406 0.02893,-1.49361c0.0796,-0.55634 0.27533,-0.83555 0.25355,-0.92877c-0.08763,-0.37501 -0.72457,0.96218 -0.59067,0.34924c0.31994,-1.46456 1.47126,-3.53668 2.1265,-3.64728c0.5176,-0.08737 0.80934,1.44148 1.17276,2.31761c0.03959,0.09545 0.14231,0.34557 0.21566,0.27329c0.15175,-0.14953 0.30075,-0.76099 0.36682,-0.54296c0.05042,0.16639 -0.08566,0.8626 -0.2394,1.21098c-0.12894,0.2922 -0.2772,0.22774 -0.2711,0.48972c0.00738,0.3165 0.25654,-0.04386 0.42105,0.10838c0.2129,0.19702 0.35293,0.88683 0.3592,1.21465z" fill="#800000" stroke="#000000" stroke-width="0.3" stroke-linecap="butt"/><path d="M243.54103,182.35878c-0.05696,0.69936 -1.80397,1.12779 -3.90206,0.95691c-2.09809,-0.17088 -3.75275,-0.87636 -3.69579,-1.57573c0.0328,-0.40275 -0.53212,-3.4455 0.84712,-4.5164c1.0158,-0.78871 4.23466,0.07261 5.12452,0.14509c0.62899,0.05123 -1.10141,4.09579 -0.5863,4.22853c1.20313,0.31007 2.2524,0.27189 2.21252,0.76159z" fill="#ffc380" stroke="#000000" stroke-width="0.3" stroke-linecap="butt"/><path d="M241.81723,177.93226c-0.03767,0.46255 -0.50528,1.95956 -0.50528,1.95956c0,0 -0.92132,-1.40687 -1.09135,-1.42072c-0.28485,-0.0232 -1.61574,1.40607 -1.61574,1.40607l-2.56629,-0.34585c0,0 0.02164,-0.53932 0.0792,-0.80488c0.05639,-0.26021 0.26271,-0.77278 0.26271,-0.77278c0,0 2.387,0.46743 2.39253,0.39954c0.05124,-0.6291 1.18293,-1.05029 1.82514,-0.99798c0.6422,0.05231 1.27032,-0.05205 1.21908,0.57706z" fill="#bf9360" stroke="none" stroke-width="0" stroke-linecap="butt"/><path d="M241.82761,174.3016c-0.00197,0.04028 -0.2117,0.00853 -0.31168,0.51872c-0.11864,0.60537 -0.12642,1.32347 0.04999,1.1709c0.19132,-0.16546 0.86527,-0.80347 1.07682,-0.7698c0.50442,0.08031 0.4611,0.87203 0.57518,1.06748c0.20029,0.34315 -0.11994,1.97591 -0.54487,2.40103c-0.26259,0.26271 -0.12621,-1.48143 -0.1873,-1.40665c-0.09263,0.11338 -0.21144,0.93438 -0.67219,1.26435c-0.11061,0.07921 -0.03729,-0.32996 -0.11279,-0.71576c-0.06703,-0.34251 -0.28202,-0.66063 -0.38571,-0.69195c-0.07716,-0.0233 -0.03565,0.27628 -0.08182,0.59354c-0.04134,0.28411 -0.17037,0.5895 -0.23363,0.57378c-0.17927,-0.04458 -0.14608,-0.52946 -0.40915,-0.86812c-0.28151,-0.36241 -0.92394,-0.10399 -0.97769,-0.11129c-0.22844,-0.031 -0.83738,0.87375 -0.83738,0.87375c0,0 -2.71684,-0.24901 -2.63453,-0.72615c0.18921,-1.0968 3.33714,-2.99101 3.82501,-2.92481c0.32015,0.04344 0.76618,1.07425 1.01551,1.23385c0.13335,0.08535 0.16366,-0.68112 0.32898,-1.20613c0.20152,-0.63996 0.53387,-0.61667 0.51725,-0.27674z" fill="#800000" stroke="#000000" stroke-width="0.3" stroke-linecap="butt"/><path d="M239.27053,176.6062l-2.16595,-0.18747l1.03198,-0.91611l1.17726,0.15434c0,0 0.51449,0.29533 0.8949,0.33664c0.11436,0.01241 0.57564,-0.33207 0.57564,-0.33207l0.40498,0.5005l0.4637,-0.11391c0,0 0.35872,0.14966 0.57763,0.15402c0.28109,0.0056 0.96953,-0.12319 0.96953,-0.12319c0,0 0.0522,0.39749 0.03934,0.57786c-0.01177,0.16503 -0.06038,0.47017 -0.06038,0.47017c0,0 -0.71389,0.03221 -0.98887,-0.03009c-0.20959,-0.04748 -0.57191,-0.31923 -0.57191,-0.31923l-0.43889,0.20286l-0.35135,-0.47877c0,0 -0.47059,0.48924 -0.6113,0.47055c-0.35951,-0.04774 -0.94629,-0.3661 -0.94629,-0.3661z" fill="#bf2e00" stroke="none" stroke-width="0" stroke-linecap="butt"/><path d="M240.84051,179.70729c-0.05017,0.61599 -0.51583,1.08074 -1.04008,1.03804c-0.52424,-0.0427 -0.90857,-0.57667 -0.85839,-1.19267c0.05017,-0.61599 0.53237,-0.69718 1.05662,-0.65449c0.52424,0.0427 0.89203,0.19312 0.84186,0.80911z" fill="#000000" stroke="none" stroke-width="0" stroke-linecap="butt"/><path d="M238.93885,179.00684c0.65369,-0.57961 2.32177,0.23688 2.32177,0.23688" data-paper-data="{&quot;index&quot;:null}" fill="none" stroke="#000000" stroke-width="0.3" stroke-linecap="round"/><path d="M240.10904,178.71607c0,0 -0.94902,-0.2402 -0.45637,-0.84938" data-paper-data="{&quot;index&quot;:null}" fill="none" stroke="#000000" stroke-width="0.2" stroke-linecap="round"/><path d="M240.71831,178.86123c0,0 -0.94902,-0.2402 -0.45637,-0.84938" data-paper-data="{&quot;index&quot;:null}" fill="none" stroke="#000000" stroke-width="0.2" stroke-linecap="round"/><path d="M240.21945,182.42878c-0.45507,-0.03706 -0.82675,-0.85374 -0.82675,-0.85374l1.75609,0.14303c0,0 -0.47426,0.74778 -0.92933,0.71071z" fill="#ff8080" stroke="#000000" stroke-width="0.2" stroke-linecap="butt"/><path d="M235.59292,177.78373l1.58066,-0.63974" fill="none" stroke="#800000" stroke-width="0.7" stroke-linecap="round"/></g></g></g></svg>