<svg version="1.1" xmlns="http://www.w3.org/2000/svg" xmlns:xlink="http://www.w3.org/1999/xlink" width="30.75783" height="30.40423" viewBox="0,0,30.75783,30.40423"><g transform="translate(-228.9419,-173.56311)"><g data-paper-data="{&quot;isPaintingLayer&quot;:true}" fill-rule="nonzero" stroke-linejoin="miter" stroke-miterlimit="10" stroke-dasharray="" stroke-dashoffset="0" style="mix-blend-mode: normal"><path d="M242.42516,188.99092c-0.42094,0 -0.63372,-1.84179 -1.68238,-1.77925c-1.73933,0.10373 -4.90256,2.49093 -4.90256,1.8925c0,-0.44139 1.71494,-2.05424 1.71494,-2.05424c0,0 -0.73813,-3.251 -0.13399,-3.251c1.11911,0 3.02632,-0.32765 3.02632,0.63158c0,0.3803 2.65309,4.56041 1.97767,4.56041z" data-paper-data="{&quot;index&quot;:null}" fill="#61bf60" stroke="#000000" stroke-width="0.3" stroke-linecap="butt"/><path d="M233.90492,186.17333l3.40613,-2.20397l0.13357,1.5361l-1.66967,2.27075l-3.81707,0.20115l-0.22966,-1.63573z" fill="#418040" stroke="#000000" stroke-width="0.3" stroke-linecap="butt"/><g data-paper-data="{&quot;index&quot;:null}"><path d="M232.91588,189.15865c-0.48773,0.15265 -2.42107,-2.85359 -1.57086,-3.31914c0.9744,-0.53356 1.00665,-0.6455 1.35663,-0.79595c0.38705,-0.16639 0.91506,-0.26491 1.75316,-0.56394c0.19356,-0.06905 0.68336,0.49252 0.40774,0.99857c-0.11622,0.21339 -0.70852,0.44238 -0.9675,0.5689c-0.32724,0.15986 0.67155,-0.49711 1.25353,-0.10635c0.25396,0.17051 0.08071,0.75046 -0.95283,1.20014c-0.43577,0.18961 0.58957,-0.11404 1.17664,-0.3651c0.52918,-0.2263 0.65035,1.14352 0.6153,1.16019c-0.83778,0.39852 -0.61586,0.31367 -1.39747,0.64968c-0.7816,0.336 -0.59947,0.2366 -1.67432,0.57301z" data-paper-data="{&quot;index&quot;:null}" fill="#ffc380" stroke="#000000" stroke-width="0.3" stroke-linecap="butt"/><path d="M231.67411,185.71696l-0.33441,-0.72299l2.59859,-1.19369l0.33441,0.72299z" fill="#808080" stroke="#000000" stroke-width="0.3" stroke-linecap="butt"/><path d="M230.95728,185.14608l-0.26799,-0.5211l3.53723,-1.53954l0.26799,0.5211z" fill="#bfbfbf" stroke="#000000" stroke-width="0.3" stroke-linecap="butt"/><path d="M229.09192,181.86576c0,-1.10457 1.824,-1.92857 2.92857,-1.92857c1.10457,0 3.20309,2.5077 2.21429,3c-1.21429,0.60456 -2.24508,1.0416 -3.35715,1.64285c-1.17896,0.63741 -1.78572,-1.60971 -1.78572,-2.71428z" fill="#808080" stroke="#000000" stroke-width="0.3" stroke-linecap="butt"/><path d="M232.66332,182.68717c0,-1.20319 -1.62803,-3.17857 -0.32143,-2.60714c1.06623,0.4663 2.70332,2.19091 1.67857,2.82143c-1.14285,0.70319 -2.36169,1.13913 -3.39285,1.67857c-1.09231,0.57143 2.03572,-0.68967 2.03572,-1.89286z" fill="#404040" stroke="none" stroke-width="0" stroke-linecap="butt"/><path d="M229.44934,183.51777c0,0 1.09983,-0.8985 1.76574,-1.24724c0.73953,-0.3873 2.47378,-0.97301 2.47378,-0.97301" data-paper-data="{&quot;index&quot;:null}" fill="none" stroke="#000000" stroke-width="0.2" stroke-linecap="round"/><path d="M229.98851,184.34455c0,0 1.09983,-0.8985 1.76574,-1.24724c0.73953,-0.3873 2.47378,-0.97301 2.47378,-0.97301" data-paper-data="{&quot;index&quot;:null}" fill="none" stroke="#000000" stroke-width="0.2" stroke-linecap="round"/><path d="M229.09254,182.73508c0,0 1.09983,-0.8985 1.76574,-1.24724c0.73953,-0.3873 2.47378,-0.97301 2.47378,-0.97301" data-paper-data="{&quot;index&quot;:null}" fill="none" stroke="#000000" stroke-width="0.2" stroke-linecap="round"/><path d="M229.0424,181.85079c0,0 0.94282,-0.81628 1.52388,-1.12058c0.64531,-0.33795 2.17549,-0.81678 2.17549,-0.81678" data-paper-data="{&quot;index&quot;:null}" fill="none" stroke="#000000" stroke-width="0.2" stroke-linecap="round"/><path d="M231.84167,179.79622c0,0 0.75802,0.79064 1.03159,1.29089c0.30382,0.55556 0.71015,1.89397 0.71015,1.89397" data-paper-data="{&quot;index&quot;:null}" fill="none" stroke="#000000" stroke-width="0.2" stroke-linecap="round"/><path d="M231.01029,180.32366c0,0 0.75802,0.79064 1.03159,1.29089c0.30382,0.55556 0.71015,1.89397 0.71015,1.89397" data-paper-data="{&quot;index&quot;:null}" fill="none" stroke="#000000" stroke-width="0.2" stroke-linecap="round"/><path d="M230.94871,184.56614c0,0 -0.86872,-1.09625 -1.15233,-1.66239c-0.25539,-0.50978 -0.47355,-1.58314 -0.47355,-1.58314" data-paper-data="{&quot;index&quot;:null}" fill="none" stroke="#000000" stroke-width="0.2" stroke-linecap="round"/><path d="M231.85574,184.18314c0,0 -0.86872,-1.09626 -1.15233,-1.6624c-0.25539,-0.50978 -0.47355,-1.58313 -0.47355,-1.58313" data-paper-data="{&quot;index&quot;:null}" fill="none" stroke="#000000" stroke-width="0.2" stroke-linecap="round"/></g><path d="M234.95005,192.14879l-0.8,-1.5l2,-1.5c0,0 3.56465,-1.7667 4.59758,-1.75004c1.03374,0.01667 1.60242,1.85004 1.60242,1.85004l1.84854,1.77826l-0.99525,0.12706l1.24671,1.49468l-4.60289,1.91523l1.31185,-2.70092l-1.04022,-1.75587l0.83455,1.8517l-1.21243,2.2179l-3.09831,-2.19979c0,0 -2.23653,1.73104 -2.89375,1.69193c-1.30676,-0.07779 1.2012,-1.52017 1.2012,-1.52017z" fill="#e4af72" stroke="#000000" stroke-width="0.3" stroke-linecap="butt"/><g><path d="M243.86715,182.72419c0,0.70168 -1.70646,1.27051 -3.8115,1.27051c-2.10504,0 -3.81151,-0.56883 -3.81151,-1.27051c0,-0.40408 -0.81006,-3.39093 0.47769,-4.57026c0.94842,-0.86857 4.22658,-0.27139 5.11939,-0.27139c0.63107,0 -0.76529,4.17168 -0.2411,4.26217c1.22433,0.21138 2.26704,0.08815 2.26704,0.57947z" data-paper-data="{&quot;index&quot;:null}" fill="#ffc380" stroke="#000000" stroke-width="0.3" stroke-linecap="butt"/><path d="M241.92123,177.53578c0,1.13364 -1.69747,0.15789 -2.94738,0.15789c-1.24991,0 -3,2.5547 -3,1.42105c0,-0.04823 -1.39804,-0.23222 -1.93388,-0.94448c-0.50054,-0.66535 -0.14143,-1.852 -0.13732,-2.16033c0.00765,-0.57354 2.10682,0.60836 2.05611,0.10106c-0.1282,-1.2824 -0.4281,-1.92813 0.02891,-2.34969c0.49839,-0.45972 2.63987,2.53409 2.99915,2.09082c0.79875,-0.98547 0.47333,-1.79001 1.03966,-1.79001c1.24991,0 1.89474,2.34004 1.89474,3.47368z" data-paper-data="{&quot;index&quot;:null}" fill="#ff7c00" stroke="#000000" stroke-width="0.3" stroke-linecap="butt"/><path d="M234.57432,182.359l-0.13334,-4.16666l1.56667,1.33334l-0.1,1.9z" data-paper-data="{&quot;index&quot;:null}" fill="#ffc380" stroke="#000000" stroke-width="0.3" stroke-linecap="butt"/><path d="M235.07129,182.059l-0.02044,-2.32198l0.89013,0.73771l-0.03199,0.74122z" data-paper-data="{&quot;index&quot;:null}" fill="#bf9360" stroke="#000000" stroke-width="0.2" stroke-linecap="butt"/><path d="M234.50015,177.69367c0,1.1627 2.97574,1.42105 1.8421,1.42105c-1.13363,0 -2.36842,-0.62677 -2.36842,-1.78947c0,-1.1627 -0.10174,-1.6927 0.94737,-1.26316c1.02838,0.42105 -0.42105,0.46887 -0.42105,1.63158z" data-paper-data="{&quot;index&quot;:null}" fill="#bf5c00" stroke="none" stroke-width="0" stroke-linecap="butt"/><path d="M236.60544,175.19367c0,1.14817 -0.68935,0.57035 -0.28947,1.18421c0.08355,0.12827 -0.23685,0.38501 -0.23685,-0.76316c0,-1.14817 -0.52306,-1.18871 -0.18421,-1.71052c0.10374,-0.15975 0.71053,0.1413 0.71053,1.28947z" data-paper-data="{&quot;index&quot;:null}" fill="#bf5c00" stroke="none" stroke-width="0" stroke-linecap="butt"/><path d="M240.05279,174.79894c-0.73758,1.0626 -0.81579,2.30882 -0.81579,1.13157c0,-1.17724 0.111,-0.26637 0.5,-1.5c0.08299,-0.26316 1.08298,-0.73684 0.31579,0.36843z" data-paper-data="{&quot;index&quot;:null}" fill="#bf5c00" stroke="none" stroke-width="0" stroke-linecap="butt"/><path d="M241.02647,176.58841c0,0.61669 -0.66079,0.78263 -1.25861,0.66172c-0.50112,-0.10135 -0.8954,-0.45119 -1.4256,-0.45119c-1.1627,0 -1.89474,1.92311 -1.89474,0.78947c0,-1.13363 0.6794,-1.10526 1.84211,-1.10526c0.43324,0 0.76572,0.3309 1.21049,0.21039c0.74886,-0.2029 1.52635,-0.81635 1.52635,-0.10513z" data-paper-data="{&quot;index&quot;:null}" fill="#ff9c40" stroke="none" stroke-width="0" stroke-linecap="butt"/><path d="M240.55276,180.00001c0,0.62495 -0.24742,1.13158 -0.55263,1.13158c-0.30521,0 -0.65789,-1.07895 -0.65789,-1.07895l0.65789,-1.18421c0,0 0.55263,0.50663 0.55263,1.13158z" data-paper-data="{&quot;index&quot;:null}" fill="#ffffff" stroke="#000000" stroke-width="0.3" stroke-linecap="butt"/><path d="M239.34228,179.85156c0,0 0.57583,-1.08467 0.90603,-1.29833c0.20991,-0.13582 0.88344,0.14044 0.88344,0.14044" data-paper-data="{&quot;index&quot;:null}" fill="none" stroke="#000000" stroke-width="0.3" stroke-linecap="round"/><path d="M238.71069,180.03577c0,0 -0.24742,1.44737 -0.55263,1.44737c-0.30521,0 -0.55263,-0.64801 -0.55263,-1.44737c0,-0.79936 0.55263,-1.44737 0.55263,-1.44737z" data-paper-data="{&quot;index&quot;:null}" fill="#ffffff" stroke="#000000" stroke-width="0.3" stroke-linecap="butt"/><path d="M236.07911,177.64104c0,0 1.10758,-0.25389 1.53651,0.1503c0.47802,0.45044 1.20033,2.42865 1.20033,2.42865" data-paper-data="{&quot;index&quot;:null}" fill="none" stroke="#000000" stroke-width="0.3" stroke-linecap="round"/><path d="M237.71067,182.16735c0,0 0.72006,0.39895 1.30192,0.57275c0.73356,0.21911 2.75071,0.63777 2.75071,0.63777c0,0 -0.51341,-0.26967 -1.47183,-0.34076c-0.51071,-0.03788 -1.41158,0.20675 -1.84396,0.0776c-1.2438,-0.37152 -0.73684,-0.94737 -0.73684,-0.94737z" data-paper-data="{&quot;index&quot;:null}" fill="#ffffff" stroke="#000000" stroke-width="0.3" stroke-linecap="round"/></g><g stroke-linecap="butt"><path d="M241.52458,193.58051l2.62086,-0.78901l1.1212,0.76001c0,0 2.7591,1.68093 2.8369,1.73954c0.22699,0.17101 1.74974,1.65521 1.01809,2.50892c-0.7092,0.8275 -2.02911,0.72793 -3.07072,0.72793c-1.01775,0 -3.89861,0.68292 -5.07322,-0.23686c-1.40855,-1.10297 -1.03204,-3.84209 -1.03204,-3.84209z" fill="#ff0000" stroke="#000000" stroke-width="0.3"/><path d="M245.78776,198.63314c-1.45338,0 -5.94737,-1.50345 -5.94737,-2.57895c0,-1.0755 0.1782,-2.31579 1.63158,-2.31579c0.54263,0 0.92792,0.56938 1.65946,0.94318c1.22782,0.62738 2.76159,1.2776 2.76159,1.95156c0,1.0755 1.34812,2 -0.10526,2z" fill="#bf0000" stroke="none" stroke-width="0"/><path d="M247.93916,195.26474c0.37082,0 -0.96643,-0.08729 -0.96643,0.97368c0,1.06097 0.27834,1.71053 -0.09249,1.71053c-0.37083,0 -1.03986,-1.01798 -1.03986,-2.07895c0,-1.06096 1.72795,-0.60526 2.09878,-0.60526z" fill="#ff7b00" stroke="#000000" stroke-width="0.3"/><path d="M243.70881,194.54895c0,-1.06097 1.72796,-0.60527 2.09878,-0.60527c0.37082,0 -0.96643,-0.08728 -0.96643,0.97369c0,1.06097 0.27833,1.71052 -0.09249,1.71052c-0.37082,0 -1.03986,-1.01798 -1.03986,-2.07895z" fill="#ff7b00" stroke="#000000" stroke-width="0.3"/><path d="M249.52459,197.60685c0,0.39241 -0.16486,2.24292 -4.18421,2.23684c-3.95967,-0.00599 -5.56866,-2.68687 -5.55263,-3.07895c0.05263,-1.28715 1.69705,1.68649 5.39474,1.81579c4.11793,0.144 4.34211,-1.3661 4.34211,-0.97369z" fill="#fffdc0" stroke="#000000" stroke-width="0.3"/><path d="M241.80002,194.40777c0.63513,0 1.15,0.50167 1.15,1.12051c0,0.61884 -0.51487,1.12051 -1.15,1.12051c-0.63513,0 -1.15,-0.50167 -1.15,-1.12051c0,-0.61884 0.51487,-1.12051 1.15,-1.12051z" fill="#ff7b00" stroke="#000000" stroke-width="0.3"/></g><g stroke-linecap="butt"><path d="M240.02567,198.19949c0,0 1.55876,1.41997 1.00195,1.82209c-0.74138,0.53541 -0.2471,2.27308 -4.87032,2.2478c-2.98696,-0.01633 -2.08064,-4.82452 -2.10012,-6.50325c-0.02039,-1.75729 0.00949,-2.26458 0.00949,-2.26458l2.4564,-1.30437l2.50676,1.62017c0,0 0.15634,0.80898 0.01011,1.543c-0.0461,0.23141 0.98573,2.83914 0.98573,2.83914z" fill="#ff0000" stroke="#000000" stroke-width="0.3"/><path d="M240.95617,199.86997c-0.50944,0.79945 -0.5184,1.27724 -1.49874,1.74232c-0.53888,0.25565 -1.25618,0.56993 -2.92231,0.57346c-1.18079,0.00251 -1.13129,-0.09789 -1.45858,-0.28902c-0.57083,-0.33336 -0.89066,-0.94273 -0.85721,-1.76361c-0.02804,-1.60409 1.71398,-1.52632 2.78948,-1.52632c1.0755,0 4.55658,0.30713 3.94736,1.26316z" fill="#bf0000" stroke="none" stroke-width="0"/><path d="M236.80352,197.17025c-1.13363,0 -1.89473,0.4588 -1.89473,-0.07895c0,-0.53775 0.81373,-0.71052 1.94736,-0.71052c1.13363,0 2,0.33067 2,0.86841c0,0.53775 -0.919,-0.07895 -2.05263,-0.07895z" data-paper-data="{&quot;index&quot;:null}" fill="#ff7b00" stroke="#000000" stroke-width="0.3"/><path d="M236.75091,195.32813c-1.13363,0 -1.89473,0.45881 -1.89473,-0.07894c0,-0.53775 0.81373,-0.71053 1.94736,-0.71053c1.13363,0 2,0.33067 2,0.86841c0,0.53775 -0.919,-0.07895 -2.05263,-0.07895z" data-paper-data="{&quot;index&quot;:null}" fill="#ff7c00" stroke="#000000" stroke-width="0.3"/><path d="M241.27197,199.73839c0,0.39241 -0.32275,4.08503 -4.34211,4.07895c-3.95967,-0.00599 -3.14761,-3.31844 -3.13158,-3.71053c0.05263,-1.28715 -0.724,2.10754 2.97369,2.23684c4.11793,0.144 4.5,-2.99768 4.5,-2.60527z" fill="#fffdc0" stroke="#000000" stroke-width="0.3"/><path d="M237.06144,203.50155c0,0.21293 -0.83102,0.26316 -1.76316,-0.15789c-0.54611,-0.24668 -0.76031,-0.33884 -0.93729,-0.5632c-0.14494,-0.18375 -0.40482,-0.38557 -0.40482,-0.64733c0,-0.58135 -0.0604,-2.30041 -0.07895,-1.21053c-0.00791,0.46517 0.24997,1.33086 1.10584,1.83333c0.79035,0.464 2.07837,0.46652 2.07837,0.74562z" fill="#bfbfbf" stroke="none" stroke-width="0"/></g><path d="M248.2289,187.94027l-7.16667,-2.25l-0.66667,-1.33333l7,1.91667z" fill="#418040" stroke="#000000" stroke-width="0.3" stroke-linecap="butt"/><g stroke="#000000" stroke-width="0.3" stroke-linecap="butt"><g fill="#404040"><path d="M250.08235,185.73185c0,0 1.82273,-0.01487 1.83892,-0.36772c0.01827,-0.39813 0.05829,-1.271 0.05829,-1.271l1.20201,0.01975l-0.17089,2.26826l-2.67311,0.15062z"/><path d="M248.10534,184.09626l0.06256,-3.80634l8.08012,0.13281l-0.06256,3.80634z"/><path d="M248.15563,187.83023l0.05915,-3.59859l1.3575,0.02231c0,0 0.81622,2.14893 1.68257,3.29323c0.51744,0.68345 -3.0992,0.28303 -3.0992,0.28303z"/><path d="M249.04792,183.64418l0.01646,-1.00167l6.01001,0.09878l-0.01646,1.00167z"/><path d="M249.0063,181.56381l0.00878,-0.53423l6.01001,0.09878l-0.00878,0.53423z"/><path d="M255.00174,180.33545c0.61516,0.01011 1.10524,0.5415 1.09463,1.18692c-0.01061,0.64541 -0.51789,1.16042 -1.13305,1.15031c-0.61515,-0.01011 -1.10523,-0.54151 -1.09462,-1.18692c0.01061,-0.64541 0.51788,-1.16041 1.13303,-1.1503z"/><path d="M256.4094,182.96364l0.03183,-1.93656l1.43572,0.0236l-0.03183,1.93656z"/><path d="M257.93532,183.04649l0.03293,-2.00332l1.57806,-0.50843l-0.05268,3.20534z"/></g><path d="M247.90822,187.88091c-0.50882,-0.04779 -1.12953,-3.56773 -0.16544,-3.66837c1.10492,-0.11534 1.17794,-0.20611 1.55887,-0.20955c0.42128,-0.00381 0.94632,0.10948 1.83486,0.15773c0.2052,0.01115 0.4398,0.71842 -0.01004,1.07856c-0.18968,0.15186 -0.82446,0.13405 -1.11222,0.1506c-0.3636,0.02091 0.81152,-0.19881 1.19717,0.38657c0.16829,0.25544 -0.21571,0.72331 -1.34274,0.73842c-0.47519,0.00639 0.58781,0.12277 1.2263,0.11821c0.57552,-0.00411 0.15766,1.30604 0.11889,1.30786c-0.92671,0.04362 -0.68924,0.05117 -1.53998,0.05886c-0.85073,0.00769 -0.64433,-0.01357 -1.76566,-0.11888z" data-paper-data="{&quot;index&quot;:null}" fill="#ffc380"/></g></g></g></svg>