<svg version="1.1" xmlns="http://www.w3.org/2000/svg" xmlns:xlink="http://www.w3.org/1999/xlink" width="26.08732" height="4.28522" viewBox="0,0,26.08732,4.28522"><g transform="translate(-236.01987,-178.05196)"><g data-paper-data="{&quot;isPaintingLayer&quot;:true}" fill="#ff0000" fill-rule="nonzero" stroke="none" stroke-width="0" stroke-linecap="butt" stroke-linejoin="miter" stroke-miterlimit="10" stroke-dasharray="" stroke-dashoffset="0" style="mix-blend-mode: normal"><path d="M236.01987,180.04762l0.12699,0.19048c0,0 1.05715,-1.96519 1.97607,-1.94079c0.68501,0.01819 2.75023,1.53017 3.95696,1.76899c0.52757,0.10441 2.14062,-1.46406 3.83582,-1.62073c1.307,-0.12079 2.69935,1.26962 3.82297,1.46965c0.51331,0.09138 2.52269,-1.79347 4.38185,-1.86161c1.52061,-0.05573 3.02646,1.31331 4.16977,1.7274c1.06137,0.38442 1.81689,-0.18576 1.81689,-0.18576l-0.04965,-1.36304l2.04966,1.73378l-2.21182,2.37119l0.11659,-1.50385c0,0 -0.65037,0.85248 -1.90962,0.59555c-1.12354,-0.22924 -2.78035,-1.57471 -4.12655,-1.52067c-1.90594,0.0765 -3.69292,1.35375 -4.1939,1.27162c-1.12811,-0.18494 -2.50768,-1.42228 -3.85641,-1.29401c-1.7824,0.16951 -3.48562,1.65008 -4.00097,1.5257c-1.21656,-0.29361 -3.18429,-1.52794 -3.89947,-1.53421c-0.94184,-0.00826 -1.94961,0.22587 -1.94961,0.22587z"/></g></g></svg>