<svg version="1.1" xmlns="http://www.w3.org/2000/svg" xmlns:xlink="http://www.w3.org/1999/xlink" width="16.43237" height="23.66564" viewBox="0,0,16.43237,23.66564"><g transform="translate(-231.6875,-168.27186)"><g data-paper-data="{&quot;isPaintingLayer&quot;:true}" fill="#ff0000" fill-rule="nonzero" stroke="none" stroke-width="none" stroke-linecap="butt" stroke-linejoin="miter" stroke-miterlimit="10" stroke-dasharray="" stroke-dashoffset="0" style="mix-blend-mode: normal"><path d="M231.6875,191.9375c0,0 12.20834,-3.66666 12.25,-7.625c0.02059,-1.95658 -2.30879,-10.33122 -4.29074,-10.84189c-0.93832,-0.24177 -3.4548,-0.34795 -3.33599,0.81656c0.13794,1.35198 3.62673,5.90033 3.62673,5.90033c0,0 -2.92619,1.77753 -4.20184,-0.24788c-0.59216,-0.94021 -1.84802,-4.9457 -2.05981,-5.87447c-1.0492,-4.60097 3.32629,-9.16915 10.26165,-2.25266c4.5694,4.47721 4.18862,7.97388 4.16557,12.37521c-0.01597,3.05124 -0.04057,7.74979 -0.04057,7.74979z"/></g></g></svg>