<svg version="1.1" xmlns="http://www.w3.org/2000/svg" xmlns:xlink="http://www.w3.org/1999/xlink" width="10.21505" height="12.32664" viewBox="0,0,10.21505,12.32664"><g transform="translate(-233.89246,-175.69382)"><g data-paper-data="{&quot;isPaintingLayer&quot;:true}" fill-rule="nonzero" stroke="none" stroke-width="0" stroke-linecap="butt" stroke-linejoin="miter" stroke-miterlimit="10" stroke-dasharray="" stroke-dashoffset="0" style="mix-blend-mode: normal"><g><path d="M243.95964,182.09189c0,3.27426 -1.77487,5.92857 -3.96429,5.92857c-2.18941,0 -3.96429,-2.65431 -3.96429,-5.92857c0,-0.31952 0.23607,-2.49427 -0.36277,-3.98374c-0.50926,-1.26668 -1.87935,-1.87961 -1.7696,-2.12203c0.20079,-0.4435 2.42471,-0.42714 3.44128,0.36159c0.86327,0.66979 0.51725,2.13559 0.89944,1.8247c1.59677,-1.29887 3.75593,-2.2948 3.75593,-2.2948c0,0 -1.42976,1.78161 -0.86288,3.34628c0.18629,0.51419 2.97505,-3.17169 2.97505,-3.17169c0,0 -0.14789,5.38656 -0.14789,6.0397z" fill="#fff700"/><path d="M243.07554,182.44591c0,2.28977 -1.45549,4.36027 -2.9866,4.36027c-1.53111,0 -2.84375,-2.07051 -2.84375,-4.36027c0,-0.22345 -0.26348,-2.95859 -0.68226,-4.00021c-0.35614,-0.88582 -1.02856,-1.60017 -0.95181,-1.7697c0.14041,-0.31015 0.62423,-0.01299 1.33514,0.53858c0.6037,0.4684 1.14744,2.35061 1.41472,2.13319c1.11666,-0.90833 2.41232,-2.31909 2.41232,-2.31909c0,0 -0.71415,2.38878 -0.31771,3.48299c0.13028,0.35959 3.22338,-2.43233 3.22338,-2.43233c0,0 -0.60342,3.90981 -0.60342,4.36656z" fill="#ff7b00"/><path d="M242.54018,182.86595c0,1.73159 -1.02926,3.08309 -2.18714,3.08309c-1.15787,0 -2.29339,-1.56578 -2.29339,-3.29738c0,-0.16898 -0.62782,-2.73737 -0.94452,-3.52508c-0.26932,-0.66989 -0.63497,-1.56724 -0.57693,-1.69545c0.10619,-0.23454 0.11492,0.63303 0.65253,1.05015c0.45654,0.35421 1.08202,1.63475 1.28414,1.47033c0.84445,-0.68691 1.82428,-1.89663 1.82428,-1.89663c0,0 -0.46863,2.44933 -0.16884,3.2768c0.09852,0.27193 2.79476,-2.12511 2.79476,-2.12511c0,0 -0.3849,3.31386 -0.3849,3.65927z" fill="#ff0000"/></g></g></g></svg>