<svg version="1.1" xmlns="http://www.w3.org/2000/svg" xmlns:xlink="http://www.w3.org/1999/xlink" width="21.36727" height="27.3337" viewBox="0,0,21.36727,27.3337"><g transform="translate(-230.11242,-175.13167)"><g data-paper-data="{&quot;isPaintingLayer&quot;:true}" fill-rule="nonzero" stroke-linejoin="miter" stroke-miterlimit="10" stroke-dasharray="" stroke-dashoffset="0" style="mix-blend-mode: normal"><g><path d="M242.68183,182.31253c0.06573,0.69906 -1.13567,0.62494 -1.33451,1.26182c-0.27203,0.87124 1.27667,2.62395 0.84247,3.41663c-0.27085,0.49447 -0.5685,-2.04414 -1.38572,-1.88063c-0.36184,0.0724 -0.44161,2.28549 -0.88979,2.80366c-0.77343,0.89419 -1.93378,0.26916 -2.41569,0.31447c-0.38155,0.03588 -1.74848,0.52372 -2.50745,-0.08647c-0.70183,-0.56423 -0.79496,-2.22819 -1.21526,-2.24251c-0.81197,-0.02767 -0.39868,2.30209 -0.77537,1.89829c-0.54025,-0.57914 0.35011,-2.39315 -0.06902,-3.16951c-0.3209,-0.59442 -1.56148,-0.53799 -1.62804,-1.24592c-0.01676,-0.17825 -0.17068,-0.96841 0.03066,-1.49576c0.21561,-0.56469 0.78599,-0.86517 0.71792,-0.95594c-0.27383,-0.36515 -2.11412,1.04099 -1.7395,0.41378c0.89509,-1.49865 4.2343,-3.69562 6.17418,-3.87801c1.53238,-0.14408 2.45442,1.35173 3.56496,2.18741c0.12098,0.09105 0.43498,0.32972 0.64993,0.24945c0.44468,-0.16608 0.86416,-0.79345 1.06822,-0.58282c0.15572,0.16075 -0.22228,0.8714 -0.66551,1.2364c-0.37175,0.30614 -0.814,0.25799 -0.7862,0.51912c0.03358,0.31547 0.75948,-0.07197 1.25317,0.06213c0.63893,0.17353 1.07984,0.84752 1.11057,1.17443z" fill="#800000" stroke="#000000" stroke-width="0.3" stroke-linecap="butt"/><path d="M242.80767,180.58785c0.34169,0.61286 -0.87179,1.94067 -2.71039,2.96573c-1.83859,1.02506 -3.60607,1.35921 -3.94776,0.74634c-0.19678,-0.35294 -2.35877,-2.56727 -1.80829,-4.22441c0.40543,-1.22047 3.55945,-2.2952 4.33926,-2.72995c0.5512,-0.30731 1.363,4.01632 1.8649,3.8401c1.17229,-0.41157 2.02302,-1.02695 2.26227,-0.59783z" fill="#ffc380" stroke="#000000" stroke-width="0.3" stroke-linecap="butt"/><path d="M238.88642,177.82864c0.22599,0.40534 0.67012,1.90949 0.67012,1.90949c0,0 -1.5482,-0.65664 -1.6972,-0.57358c-0.24962,0.13917 -0.56058,2.06723 -0.56058,2.06723c0,0 -0.53694,-1.05321 -0.70798,-1.35998c-0.30736,-0.5513 0.39881,-1.53081 0.96159,-1.84457c0.56277,-0.31375 1.02671,-0.74987 1.33407,-0.19857z" fill="#bf9360" stroke="none" stroke-width="0" stroke-linecap="butt"/><path d="M236.16457,175.39621c0.01968,0.0353 -0.28837,0.20329 -0.14301,0.71992c0.17248,0.61302 0.56115,1.21698 0.72053,0.9267c0.17285,-0.31481 0.75109,-1.46961 1.06273,-1.63769c0.74308,-0.40075 1.12348,0.29734 1.39016,0.35403c0.4682,0.09954 0.93304,1.75316 0.58117,2.50026c-0.21744,0.46168 -0.99878,-1.11413 -1.04178,-0.99536c-0.06519,0.18007 0.227,0.97244 -0.22739,1.67366c-0.10908,0.16833 -0.23517,-0.23964 -0.55432,-0.49027c-0.28333,-0.22251 -0.75796,-0.28762 -0.91895,-0.21756c-0.11979,0.05214 0.10432,0.26264 0.21688,0.56907c0.1008,0.27442 0.09202,0.64778 -0.00431,0.69334c-0.27301,0.1291 -0.49677,-0.30461 -1.04939,-0.34223c-0.59136,-0.04027 -1.29765,0.68617 -1.37614,0.72991c-0.33354,0.18596 -0.71284,1.58587 -0.71284,1.58587c0,0 -0.91562,-1.62195 -1.29093,-2.29512c-0.55709,-0.99921 -0.1138,-1.27229 0.90839,-1.84219c0.46743,-0.26061 1.65838,0.18264 2.09238,0.08419c0.23211,-0.05266 -0.15228,-0.7177 -0.21541,-1.30721c-0.07695,-0.71858 0.39615,-1.00724 0.56223,-0.70935z" fill="#800000" stroke="#000000" stroke-width="0.3" stroke-linecap="butt"/><path d="M233.41804,179.95057l-0.46377,-0.83184c0,0 0.92788,-0.2657 1.51546,-0.6093c0.17664,-0.1033 0.66965,-0.84783 0.66965,-0.84783l0.87947,0.01359l0.62485,-0.55532c0,0 0.61565,-0.23199 0.94298,-0.44585c0.42031,-0.2746 1.37044,-1.06557 1.37044,-1.06557c0,0 0.29858,0.27846 0.37982,0.44112c0.07433,0.14883 0.17191,0.4507 0.17191,0.4507c0,0 -1.04162,0.73599 -1.4844,0.9574c-0.33748,0.16876 -1.0264,0.30289 -1.0264,0.30289l-0.53856,0.6046l-0.78779,-0.04881c0,0 -0.42629,0.87407 -0.64554,0.99833c-0.56014,0.31749 -1.60811,0.63587 -1.60811,0.63587z" fill="#bf2e00" stroke="none" stroke-width="0" stroke-linecap="butt"/><path d="M236.96512,179.6631c0.22599,0.40533 0.37345,1.47516 0.37345,1.47516c0,0 -1.5114,-0.78621 -1.66039,-0.70314c-0.24962,0.13917 -0.57898,2.132 -0.57898,2.132c0,0 -0.4442,-0.88684 -0.61523,-1.19361c-0.30736,-0.5513 0.39881,-1.53081 0.96159,-1.84457c0.56277,-0.31375 1.21221,-0.41713 1.51957,0.13416z" fill="#bf9360" stroke="none" stroke-width="0" stroke-linecap="butt"/><path d="M237.04298,180.68284c0.30095,0.53981 0.1725,1.18504 -0.28691,1.44117c-0.45941,0.25612 -1.07581,0.02617 -1.37676,-0.51365c-0.30095,-0.53981 0.05461,-0.8755 0.51401,-1.13164c0.45941,-0.25612 0.84871,-0.33571 1.14966,0.2041z" fill="#000000" stroke="none" stroke-width="0" stroke-linecap="butt"/><path d="M238.93539,179.62776c0.30095,0.53981 0.17249,1.18504 -0.28692,1.44117c-0.45941,0.25612 -1.07581,0.02617 -1.37676,-0.51364c-0.30095,-0.53981 0.0362,-0.81071 0.49561,-1.06685c0.45941,-0.25612 0.86711,-0.4005 1.16807,0.1393z" fill="#000000" stroke="none" stroke-width="0" stroke-linecap="butt"/><path d="M237.1002,180.29654c0,0 1.17969,-1.4344 2.01481,-1.17783" fill="none" stroke="#000000" stroke-width="0.3" stroke-linecap="round"/><path d="M237.80984,178.53792c0.70083,0.35021 -0.06331,0.96214 -0.06331,0.96214" fill="none" stroke="#000000" stroke-width="0.2" stroke-linecap="round"/><path d="M237.26913,178.83938c0.70083,0.35021 -0.0633,0.96214 -0.0633,0.96214" fill="none" stroke="#000000" stroke-width="0.2" stroke-linecap="round"/><path d="M235.11262,181.13206c0.22081,-0.84528 2.06119,-1.09463 2.06119,-1.09463" data-paper-data="{&quot;index&quot;:null}" fill="none" stroke="#000000" stroke-width="0.3" stroke-linecap="round"/><path d="M235.88375,180.266c0,0 -0.92226,0.32828 -0.85172,-0.45199" data-paper-data="{&quot;index&quot;:null}" fill="none" stroke="#000000" stroke-width="0.2" stroke-linecap="round"/><path d="M236.47081,180.04772c0,0 -0.92226,0.32828 -0.85172,-0.45199" data-paper-data="{&quot;index&quot;:null}" fill="none" stroke="#000000" stroke-width="0.2" stroke-linecap="round"/><path d="M238.60812,183.0247c-0.39879,0.22233 -1.16193,-0.24959 -1.16193,-0.24959l1.53889,-0.85797c0,0 0.02184,0.88523 -0.37695,1.10755z" fill="#ff8080" stroke="#000000" stroke-width="0.2" stroke-linecap="butt"/><path d="M234.05939,180.45493l-0.34055,0.89465" fill="none" stroke="#800000" stroke-width="0.7" stroke-linecap="round"/><path d="M238.13691,181.64584l-0.39491,-0.86395l-0.83723,-0.42296l0.91726,-0.31488l0.2875,-0.88988l0.2738,0.87619l0.71191,0.32857l-0.65714,0.30119z" fill="#ff0000" stroke="none" stroke-width="0" stroke-linecap="butt"/></g><g data-paper-data="{&quot;index&quot;:null}" stroke="#000000" stroke-width="0.3"><path d="M245.6591,184.14327c4.00103,0.11696 1.87249,0.09521 3.99932,0.02904c1.24521,-1.63418 1.07935,-1.70808 1.47909,-1.68094c0.3879,0.02633 0.06914,2.08409 0.06612,2.28567c-0.00297,0.1987 0.09656,1.18764 -1.56955,0.66774c-0.88663,-0.09792 -2.30387,0.93941 -8.30385,0.70506c-2.22796,-0.08702 -1.48393,-1.29894 -1.47279,-2.04255c0,0 1.90588,-0.0779 5.80166,0.03599z" fill="#ffc380" stroke-linecap="butt"/><path d="M250.33405,184.51893c0,0 0.11433,-0.32331 0.25547,-0.43688c0.15709,-0.12638 0.64436,-0.28707 0.64436,-0.28707" fill="none" stroke-linecap="round"/></g><g stroke="#000000" stroke-width="0.3" stroke-linecap="butt"><path d="M238.44646,190.1076c0.65919,0.06862 0.42408,-0.17045 0.70115,0.14675c0.17829,0.20412 0.4933,0.68873 0.4933,1.5477c0,1.45989 -0.39311,3.85509 -0.8605,5.28602c-0.23496,0.71936 0.38039,2.03209 -0.76632,2.01228c-1.07333,0.06803 -0.09521,-1.62121 -0.1502,-2.26141c-0.06296,-0.73299 -0.38965,-1.36587 -0.38965,-2.53689c0,-2.1938 0.43855,-4.25 0.97223,-4.19445z" data-paper-data="{&quot;index&quot;:null}" fill="#ffc380"/><path d="M237.88408,199.31537c1.05654,0 0.95652,-2.90146 0.95652,-1.76087c0,0.49435 0.39904,1.60656 0.27281,2.4583c-0.16502,1.11345 -0.80168,2.10982 -1.05542,2.08518c-0.16318,-0.01584 -1.04196,-0.88555 -1.22293,-2.00612c-0.1694,-1.04889 0.83163,-2.29026 0.83163,-2.84171c0,-1.14059 -0.83915,2.06522 0.21739,2.06522z" data-paper-data="{&quot;index&quot;:null}" fill="#ff0000"/></g><g stroke="#000000" stroke-width="0.3" stroke-linecap="butt"><path d="M242.11831,194.31432c0,1.03968 0.27545,1.99212 0.36374,2.66074c0.09802,0.74222 0.59348,2.10332 -0.64514,2.05786c-1.18467,-0.04348 -0.38418,-1.39273 -0.68205,-2.11184c-0.57423,-1.38627 -1.20322,-3.66227 -1.20322,-5.10675c0,-0.85897 0.315,-1.34358 0.49329,-1.5477c0.27706,-0.3172 0.04196,-0.07813 0.70115,-0.14675c0.53367,-0.05555 0.97222,2.00064 0.97222,4.19445z" fill="#ffc380"/><path d="M242.66938,197.42407c0,0.55145 0.52276,1.83629 0.35336,2.88518c-0.18097,1.12058 -1.05974,1.99029 -1.22293,2.00612c-0.25375,0.02463 -0.89041,-0.97173 -1.05542,-2.08518c-0.12623,-0.85174 0.35977,-2.09438 0.35977,-2.58873c0,-1.14059 -0.31742,1.58696 0.73913,1.58696c1.05654,0 0.82609,-2.94494 0.82609,-1.80435z" fill="#ff0000"/></g><g><path d="M240.92857,185.44045c0,0 0.6731,0.48075 0.55151,0.9829c-0.03638,0.15025 -0.59632,1.55301 -0.52872,2.30742c0.08252,0.92083 1.19382,3.14583 1.10407,3.22708c-0.1792,0.16224 -1.92168,-0.10371 -2.1834,-0.10371c-0.24097,0 -2.18049,0.00152 -2.29265,-0.16619c-0.07292,-0.10904 0.79014,-2.20706 0.73197,-2.83948c-0.05514,-0.5994 -0.85897,-2.88645 -0.85897,-3.26515c0,-0.53575 0.30342,-1.35622 0.64329,-1.71824c0.36919,-0.39326 0.27474,0.12301 0.85671,0.12301c0.55886,0 0.541,-0.39252 0.90724,-0.02629c0.36623,0.36623 1.06895,1.47867 1.06895,1.47867z" fill="#ff0000" stroke="#000000" stroke-width="0.3" stroke-linecap="butt"/><path d="M239.21428,186.29757c0,0.3055 -0.1501,0.53214 -0.25425,0.71972c-0.08861,0.1596 -0.1045,0.30409 -0.38861,0.30409c-0.61803,0 -0.29527,0.5606 -0.45123,0.01786c-0.16868,-0.58695 -0.39973,-1.26602 -0.39973,-1.26602c0,0 0.35104,-0.20959 0.53928,-0.24098c0.50753,-0.08462 0.95454,0.05288 0.95454,0.46534z" fill="#bf0000" stroke="none" stroke-width="0" stroke-linecap="butt"/><path d="M241.30953,186.30937c0,0.27484 -0.00545,0.46305 -0.15936,0.65784c-0.19217,0.24323 -0.66222,0.31835 -0.9835,0.31835c-0.57858,0 -1.2381,0.49899 -1.2381,-0.11905c0,-0.26896 0.5174,-0.73978 0.66543,-1.02445c0.19212,-0.36947 0.29349,-0.57079 0.62028,-0.57079c0.57858,0 1.09524,0.12006 1.09524,0.7381z" fill="#bf0000" stroke="none" stroke-width="0" stroke-linecap="butt"/><path d="M239.30952,186.22616c0,0 -0.0056,0.3899 -0.12574,0.58213c-0.11791,0.18866 -0.58855,0.56073 -0.58855,0.56073" fill="none" stroke="#000000" stroke-width="0.3" stroke-linecap="round"/></g><g stroke="#000000"><path d="M237.45199,185.99127c-1.52174,2.11658 0.06795,-0.04343 -1.45652,2.15217c-0.98333,1.18876 -0.52464,0.71751 -1.03018,1.17754c-0.07948,0.07232 -0.03956,0.04511 3.13017,0.64553c0.10216,-0.22282 1.36236,-0.27175 1.73854,-0.10629c0.34486,0.15168 -0.32242,0.82257 -0.33572,0.89988c-0.06024,0.35 -1.59965,0.35017 -1.65825,0.3576c-0.16088,0.0204 -1.48227,0.1358 -2.39327,-0.27623c-0.86645,-0.39188 -1.32849,-1.31065 -1.32876,-1.3506c-0.00202,-0.30093 1.85573,-3.04686 1.85573,-3.63005c0,-1.11658 1.23551,-1.97826 1.84783,-1.97826c0.61231,0 0.28224,1.20211 -0.36956,2.1087z" fill="#ffc380" stroke-width="0.3" stroke-linecap="butt"/><path d="M239.45199,190.70668l-0.91304,-0.08696" fill="none" stroke-width="0.1" stroke-linecap="round"/><path d="M239.66938,190.22841l-1,-0.17391" fill="none" stroke-width="0.1" stroke-linecap="round"/></g></g></g></svg>