<svg version="1.1" xmlns="http://www.w3.org/2000/svg" xmlns:xlink="http://www.w3.org/1999/xlink" width="16.07192" height="27.74456" viewBox="0,0,16.07192,27.74456"><g transform="translate(-233.968,-174.72082)"><g data-paper-data="{&quot;isPaintingLayer&quot;:true}" fill-rule="nonzero" stroke-linejoin="miter" stroke-miterlimit="10" stroke-dasharray="" stroke-dashoffset="0" style="mix-blend-mode: normal"><g><path d="M249.02921,180.17084c0.26022,0.65216 -0.91331,0.91988 -0.92445,1.58698c-0.01525,0.91258 1.96492,2.15734 1.77193,3.0403c-0.12038,0.55079 -1.12198,-1.80082 -1.85989,-1.41345c-0.32673,0.17152 0.22092,2.31726 -0.06291,2.9408c-0.48982,1.07603 -1.77935,0.80364 -2.22893,0.98303c-0.35595,0.14204 -1.52979,0.99562 -2.43004,0.62426c-0.83248,-0.34336 -1.39115,-1.9135 -1.79841,-1.8087c-0.78681,0.20247 0.2668,2.32107 -0.2085,2.03991c-0.68166,-0.40325 -0.33908,-2.39474 -0.96017,-3.02137c-0.47552,-0.47978 -1.64982,-0.07574 -1.91335,-0.73615c-0.06635,-0.16629 -0.43689,-0.88096 -0.39245,-1.44369c0.04758,-0.60259 0.51005,-1.05173 0.41914,-1.11962c-0.3657,-0.27309 -1.73468,1.59501 -1.55218,0.8876c0.43606,-1.69026 3.02006,-4.73985 4.82974,-5.46197c1.42953,-0.57044 2.73602,0.6046 4.03718,1.09312c0.14175,0.05323 0.51031,0.19366 0.6939,0.05601c0.3798,-0.28475 0.60528,-1.00498 0.86046,-0.86045c0.19473,0.1103 0.03252,0.89872 -0.28977,1.37392c-0.27031,0.39856 -0.70818,0.47709 -0.60787,0.71979c0.1212,0.29319 0.70835,-0.28326 1.21981,-0.29384c0.66193,-0.01372 1.27502,0.50855 1.39671,0.81351z" fill="#800000" stroke="#000000" stroke-width="0.3" stroke-linecap="butt"/><path d="M243.79588,184.18283c-0.24112,0.65895 -2.03915,0.60672 -4.01599,-0.11666c-1.97684,-0.72339 -3.38391,-1.84399 -3.14279,-2.50294c0.13886,-0.37948 0.40455,-3.4628 2.01914,-4.12778c1.18914,-0.48975 4.06244,1.19757 4.90088,1.50438c0.59264,0.21687 -2.15225,3.65464 -1.69109,3.91975c1.07713,0.61924 2.09868,0.86184 1.92985,1.32323z" fill="#ffc380" stroke="#000000" stroke-width="0.3" stroke-linecap="butt"/><path d="M243.32567,179.41122c-0.15947,0.43582 -1.00882,1.75427 -1.00882,1.75427c0,0 -0.51344,-1.60141 -0.67364,-1.66003c-0.26839,-0.09821 -1.93181,0.92507 -1.93181,0.92507c0,0 0.44718,-1.09433 0.56787,-1.42417c0.21691,-0.59274 1.41989,-0.69738 2.02499,-0.47596c0.60508,0.22142 1.23831,0.28808 1.02141,0.88083z" fill="#bf9360" stroke="none" stroke-width="0" stroke-linecap="butt"/><path d="M243.39102,175.76143c-0.01389,0.03795 -0.34226,-0.0857 -0.63867,0.36172c-0.35172,0.53088 -0.55544,1.21961 -0.2315,1.1508c0.35131,-0.07461 1.60354,-0.39059 1.93431,-0.26428c0.7887,0.3012 0.50831,1.04511 0.63948,1.28412c0.23029,0.41962 -0.71875,1.85136 -1.51439,2.07261c-0.49166,0.13672 0.19179,-1.48393 0.07376,-1.43896c-0.17895,0.06819 -0.58837,0.80684 -1.41617,0.92049c-0.19871,0.02728 0.02797,-0.33459 0.00945,-0.73996c-0.01645,-0.35988 -0.277,-0.7619 -0.43519,-0.83809c-0.1177,-0.05668 -0.13083,0.25049 -0.28944,0.53581c-0.14205,0.25551 -0.43058,0.49263 -0.52798,0.44941c-0.27604,-0.1225 -0.09362,-0.57515 -0.42593,-1.01829c-0.35559,-0.47422 -1.36696,-0.53491 -1.45134,-0.5658c-0.35861,-0.13123 -1.66663,0.49548 -1.66663,0.49548c0,0 0.63074,-1.7525 0.89559,-2.4763c0.39313,-1.07434 0.8894,-0.91686 1.98845,-0.5147c0.50259,0.1839 0.94441,1.37537 1.30233,1.63983c0.19143,0.14143 0.4442,-0.58392 0.8495,-1.01663c0.49404,-0.52745 1.02157,-0.35756 0.90436,-0.03728z" fill="#800000" stroke="#000000" stroke-width="0.3" stroke-linecap="butt"/><path d="M238.14813,176.65461l0.32727,-0.89438c0,0 0.80707,0.52934 1.45095,0.75007c0.19358,0.06635 1.0794,-0.04633 1.0794,-0.04633l0.56391,0.67503l0.82859,0.11072c0,0 0.57768,0.31484 0.95339,0.42317c0.48242,0.13908 1.70186,0.34234 1.70186,0.34234c0,0 -0.01598,0.40796 -0.08615,0.57571c-0.06421,0.15347 -0.22914,0.42449 -0.22914,0.42449c0,0 -1.23755,-0.30845 -1.69434,-0.49928c-0.34816,-0.14544 -0.89955,-0.57969 -0.89955,-0.57969l-0.80958,-0.01318l-0.47737,-0.62857c0,0 -0.94039,0.24779 -1.17765,0.16284c-0.60619,-0.21699 -1.53157,-0.80291 -1.53157,-0.80291z" fill="#bf2e00" stroke="none" stroke-width="0" stroke-linecap="butt"/><path d="M240.68175,179.15365c-0.15947,0.43581 -0.87353,1.246 -0.87353,1.246c0,0 -0.39128,-1.65812 -0.55147,-1.71674c-0.26839,-0.09821 -1.9929,0.95343 -1.9929,0.95343c0,0 0.38172,-0.91547 0.50242,-1.2453c0.21691,-0.59274 1.41989,-0.69738 2.02499,-0.47596c0.60508,0.22142 1.1074,0.64584 0.8905,1.23859z" fill="#bf9360" stroke="none" stroke-width="0" stroke-linecap="butt"/><path d="M239.96019,179.8784c-0.21239,0.58039 -0.78499,0.90437 -1.27894,0.72362c-0.49394,-0.18075 -0.72221,-0.79778 -0.50982,-1.37818c0.21239,-0.58039 0.69879,-0.53025 1.19275,-0.34951c0.49394,0.18075 0.8084,0.42367 0.59602,1.00407z" fill="#000000" stroke="none" stroke-width="0" stroke-linecap="butt"/><path d="M241.9949,180.62295c-0.21239,0.58039 -0.78499,0.90437 -1.27894,0.72362c-0.49394,-0.18075 -0.72221,-0.79778 -0.50982,-1.37818c0.21239,-0.58039 0.63771,-0.5019 1.13166,-0.32114c0.49394,0.18075 0.86949,0.39531 0.65711,0.9757z" fill="#000000" stroke="none" stroke-width="0" stroke-linecap="butt"/><path d="M240.29015,179.66954c0,0 1.85669,-0.04296 2.2076,0.75712" fill="none" stroke="#000000" stroke-width="0.3" stroke-linecap="round"/><path d="M242.08553,179.05885c0.19229,0.75949 -0.77011,0.58022 -0.77011,0.58022" fill="none" stroke="#000000" stroke-width="0.2" stroke-linecap="round"/><path d="M241.50416,178.84612c0.19229,0.75949 -0.77011,0.58022 -0.77011,0.58022" fill="none" stroke="#000000" stroke-width="0.2" stroke-linecap="round"/><path d="M238.3596,178.70956c0.78442,-0.38462 2.17488,0.84656 2.17488,0.84656" data-paper-data="{&quot;index&quot;:null}" fill="none" stroke="#000000" stroke-width="0.3" stroke-linecap="round"/><path d="M239.51907,178.72819c0,0 -0.8508,-0.48423 -0.21372,-0.94023" data-paper-data="{&quot;index&quot;:null}" fill="none" stroke="#000000" stroke-width="0.2" stroke-linecap="round"/><path d="M240.06768,179.03035c0,0 -0.8508,-0.48423 -0.21372,-0.94023" data-paper-data="{&quot;index&quot;:null}" fill="none" stroke="#000000" stroke-width="0.2" stroke-linecap="round"/><path d="M239.20823,182.5929c-0.42878,-0.1569 -0.56957,-1.04306 -0.56957,-1.04306l1.6546,0.60547c0,0 -0.65625,0.5945 -1.08502,0.43759z" fill="#ff8080" stroke="#000000" stroke-width="0.2" stroke-linecap="butt"/></g><g stroke="#000000" stroke-width="0.3" stroke-linecap="butt"><path d="M238.44647,190.10761c0.65919,0.06862 0.42408,-0.17045 0.70115,0.14675c0.17829,0.20412 0.4933,0.68873 0.4933,1.5477c0,1.45989 -0.39311,3.85509 -0.8605,5.28602c-0.23496,0.71936 0.38039,2.03209 -0.76632,2.01228c-1.07333,0.06803 -0.09521,-1.62121 -0.1502,-2.26141c-0.06296,-0.73299 -0.38965,-1.36587 -0.38965,-2.53689c0,-2.1938 0.43855,-4.25 0.97223,-4.19445z" data-paper-data="{&quot;index&quot;:null}" fill="#ffc380"/><path d="M237.88409,199.31538c1.05654,0 0.95652,-2.90146 0.95652,-1.76087c0,0.49435 0.39904,1.60656 0.27281,2.4583c-0.16502,1.11345 -0.80168,2.10982 -1.05542,2.08518c-0.16318,-0.01584 -1.04196,-0.88555 -1.22293,-2.00612c-0.1694,-1.04889 0.83163,-2.29026 0.83163,-2.84171c0,-1.14059 -0.83915,2.06522 0.21739,2.06522z" data-paper-data="{&quot;index&quot;:null}" fill="#ff0000"/></g><g stroke="#000000" stroke-width="0.3"><path d="M242.62063,187.82409c0,4.00274 -0.09785,1.87371 0.04491,3.99931c2.4074,1.22061 2.51141,1.05366 2.4806,1.45376c-0.0299,0.38825 -3.03406,0.10033 -3.32773,0.10033c-0.28948,0 -1.72774,0.11433 -1.00682,-1.55938c0.12329,-0.888 -0.08164,-0.13291 0.12888,-6.13572c0.07817,-2.22901 -2.35256,-1.89677 -1.26923,-1.89677c1.08333,0 2.94939,1.80809 2.94939,4.03847z" fill="#ffc380" stroke-linecap="butt"/><path d="M242.95831,192.36056c0,0 0.47341,0.10948 0.64189,0.2489c0.18751,0.15518 0.43218,0.63999 0.43218,0.63999" fill="none" stroke-linecap="round"/></g><g stroke="#000000" stroke-width="0.3" stroke-linecap="butt"><path d="M242.11832,194.31433c0,1.03968 0.27545,1.99212 0.36374,2.66074c0.09802,0.74222 0.59348,2.10332 -0.64514,2.05786c-1.18467,-0.04348 -0.38418,-1.39273 -0.68205,-2.11184c-0.57423,-1.38627 -1.20322,-3.66227 -1.20322,-5.10675c0,-0.85897 0.315,-1.34358 0.49329,-1.5477c0.27706,-0.3172 0.04196,-0.07813 0.70115,-0.14675c0.53367,-0.05555 0.97222,2.00064 0.97222,4.19445z" fill="#ffc380"/><path d="M242.66939,197.42408c0,0.55145 0.52276,1.83629 0.35336,2.88518c-0.18097,1.12058 -1.05974,1.99029 -1.22293,2.00612c-0.25375,0.02463 -0.89041,-0.97173 -1.05542,-2.08518c-0.12623,-0.85174 0.35977,-2.09438 0.35977,-2.58873c0,-1.14059 -0.31742,1.58696 0.73913,1.58696c1.05654,0 0.82609,-2.94494 0.82609,-1.80435z" fill="#ff0000"/></g><g><path d="M240.92858,185.44046c0,0 0.6731,0.48075 0.55151,0.9829c-0.03638,0.15025 -0.59632,1.55301 -0.52872,2.30742c0.08252,0.92083 1.19382,3.14583 1.10407,3.22708c-0.1792,0.16224 -1.92168,-0.10371 -2.1834,-0.10371c-0.24097,0 -2.18049,0.00152 -2.29265,-0.16619c-0.07292,-0.10904 0.79014,-2.20706 0.73197,-2.83948c-0.05514,-0.5994 -0.85897,-2.88645 -0.85897,-3.26515c0,-0.53575 0.30342,-1.35622 0.64329,-1.71824c0.36919,-0.39326 0.27474,0.12301 0.85671,0.12301c0.55886,0 0.541,-0.39252 0.90724,-0.02629c0.36623,0.36623 1.06895,1.47867 1.06895,1.47867z" fill="#ff0000" stroke="#000000" stroke-width="0.3" stroke-linecap="butt"/><path d="M239.21429,186.29758c0,0.3055 -0.1501,0.53214 -0.25425,0.71972c-0.08861,0.1596 -0.1045,0.30409 -0.38861,0.30409c-0.61803,0 -0.29527,0.5606 -0.45123,0.01786c-0.16868,-0.58695 -0.39973,-1.26602 -0.39973,-1.26602c0,0 0.35104,-0.20959 0.53928,-0.24098c0.50753,-0.08462 0.95454,0.05288 0.95454,0.46534z" fill="#bf0000" stroke="none" stroke-width="0" stroke-linecap="butt"/><path d="M241.30954,186.30938c0,0.27484 -0.00545,0.46305 -0.15936,0.65784c-0.19217,0.24323 -0.66222,0.31835 -0.9835,0.31835c-0.57858,0 -1.2381,0.49899 -1.2381,-0.11905c0,-0.26896 0.5174,-0.73978 0.66543,-1.02445c0.19212,-0.36947 0.29349,-0.57079 0.62028,-0.57079c0.57858,0 1.09524,0.12006 1.09524,0.7381z" fill="#bf0000" stroke="none" stroke-width="0" stroke-linecap="butt"/><path d="M239.30953,186.22617c0,0 -0.0056,0.3899 -0.12574,0.58213c-0.11791,0.18866 -0.58855,0.56073 -0.58855,0.56073" fill="none" stroke="#000000" stroke-width="0.3" stroke-linecap="round"/></g><g stroke="#000000"><path d="M237.452,185.99128c-1.52174,2.11658 0.06795,-0.04343 -1.45652,2.15217c-0.98333,1.18876 -0.52464,0.71751 -1.03018,1.17754c-0.07948,0.07232 -0.03956,0.04511 3.13017,0.64553c0.10216,-0.22282 1.36236,-0.27175 1.73854,-0.10629c0.34486,0.15168 -0.32242,0.82257 -0.33572,0.89988c-0.06024,0.35 -1.59965,0.35017 -1.65825,0.3576c-0.16088,0.0204 -1.48227,0.1358 -2.39327,-0.27623c-0.86645,-0.39188 -1.32849,-1.31065 -1.32876,-1.3506c-0.00202,-0.30093 1.85573,-3.04686 1.85573,-3.63005c0,-1.11658 1.23551,-1.97826 1.84783,-1.97826c0.61231,0 0.28224,1.20211 -0.36956,2.1087z" fill="#ffc380" stroke-width="0.3" stroke-linecap="butt"/><path d="M238.53896,190.61973l0.91304,0.08696" fill="none" stroke-width="0.1" stroke-linecap="round"/><path d="M239.66939,190.22842l-1,-0.17391" fill="none" stroke-width="0.1" stroke-linecap="round"/></g></g></g></svg>