<svg version="1.1" xmlns="http://www.w3.org/2000/svg" xmlns:xlink="http://www.w3.org/1999/xlink" width="28.17386" height="41.82481" viewBox="0,0,28.17386,41.82481"><g transform="translate(-227.46352,-171.00055)"><g data-paper-data="{&quot;isPaintingLayer&quot;:true}" fill-rule="nonzero" stroke-linejoin="miter" stroke-miterlimit="10" stroke-dasharray="" stroke-dashoffset="0" style="mix-blend-mode: normal"><g><path d="M236.58578,186.52951c0.15051,-1.33814 0.24762,-3.38095 0.24762,-3.38095l3.37345,1.04277l2.19798,-0.18563l1.63215,3.95174l-4.28816,-0.04926c0,0 -3.35968,0.36962 -3.16304,-1.37867z" fill="#e480ff" stroke="#000000" stroke-width="0.3" stroke-linecap="butt"/><path d="M240.06071,183.96779l-3.19717,-0.87858l-1.04092,-7.12142l7.34296,-0.06885l1.01181,3.85851l-0.83096,3.30557l0.66666,0.80952z" fill="#e480ff" stroke="#000000" stroke-width="0.3" stroke-linecap="butt"/><path d="M240.20461,183.38647l-2.31818,-1.31818l0.03079,-2.09772l1.46916,1.32138l2.1498,-0.13277l1.44115,-1.1818l-0.72727,3z" fill="#000000" stroke="none" stroke-width="0" stroke-linecap="butt"/><path d="M238.87127,181.96282l-0.38312,-1.34199c0,0 0.44355,0.49756 0.91768,0.58684c0.53097,0.09998 2.11695,-0.01541 2.11695,-0.01541l-0.54545,1.04546z" fill="#ffffff" stroke="#000000" stroke-width="0.2" stroke-linecap="butt"/><path d="M238.96868,182.54941l0.04112,-0.53896l2.37663,0.18182l-0.13637,0.90909c0,0 -0.81232,0.20169 -1.18576,0.10635c-0.33436,-0.08537 -1.09563,-0.65829 -1.09563,-0.65829z" fill="#ffffff" stroke="#000000" stroke-width="0.2" stroke-linecap="butt"/><path d="M239.16674,181.97498l-0.38095,-0.90476l1.14285,0.28572l-0.14285,0.52381l-0.37948,-0.35546z" fill="#ff8080" stroke="#000000" stroke-width="0.2" stroke-linecap="butt"/><path d="M241.54769,178.04641c0,1.17032 -0.99635,2.11905 -2.16667,2.11905c-1.17032,0 -2.07143,-0.94873 -2.07143,-2.11905c0,-1.17032 -0.28937,-1.11904 0.40476,-1.92857c0.35061,-0.4089 0.96886,0.9243 0.96886,0.9243c0,0 2.86447,0.37259 2.86447,1.00428z" fill="#000000" stroke="none" stroke-width="0" stroke-linecap="butt"/><path d="M242.76546,176.87071c0,0 0.2963,-1.33319 0.46434,-0.9243c0.33267,0.80953 0.19398,0.75825 0.19398,1.92857c0,1.17032 -0.43186,2.11905 -0.99275,2.11905c-0.56089,0 -1.0384,-0.94873 -1.0384,-2.11905c0,-0.63169 1.37283,-1.00427 1.37283,-1.00427z" data-paper-data="{&quot;index&quot;:null}" fill="#000000" stroke="none" stroke-width="0" stroke-linecap="butt"/><path d="M239.39888,179.97498l-0.39491,-0.86395l-0.83723,-0.42296l0.91727,-0.31488l0.2875,-0.88988l0.27381,0.87619l0.7119,0.32857l-0.65714,0.30119z" fill="#ff0000" stroke="none" stroke-width="0" stroke-linecap="butt"/><path d="M242.6846,179.64163l-0.39491,-0.86395l-0.83723,-0.42296l0.91726,-0.31488l0.2875,-0.88988l0.2738,0.87619l0.71191,0.32857l-0.65714,0.30119z" fill="#ff0000" stroke="none" stroke-width="0" stroke-linecap="butt"/><path d="M236.16674,178.6438l-0.42857,-2.66666h7.57143l-5.95238,0.57143z" fill="#7f7f7f" stroke="#000000" stroke-width="0.3" stroke-linecap="butt"/><path d="M243.26198,174.11999c0,1.15717 -0.07658,2.80953 -2.28572,2.80953c-1.13946,0 -2.66961,-0.18883 -3.23867,-0.76107c-0.53421,-0.53719 -0.14228,-1.44053 -0.14228,-2.00084c0,-0.85234 0.18845,1.18214 1.12037,1.53543c0.33329,0.12635 0.67863,-1.24971 1.26058,-1.24971c2.20914,0 3.28572,-1.49051 3.28572,-0.33334z" fill="#7f7f7f" stroke="#000000" stroke-width="0.3" stroke-linecap="butt"/><path d="M242.92864,175.37689c0,0.58065 0.25675,1.45738 -1.95239,1.45738c-1.13946,0 -2.33627,-0.23761 -2.90533,-0.52474c-0.53421,-0.26955 -0.38038,-0.57997 -0.38038,-0.86112c0,-0.42768 0.09321,0.59317 1.02513,0.77045c0.33329,0.0634 0.67863,-0.62708 1.26058,-0.62708c2.20914,0 2.95239,-0.79553 2.95239,-0.21489z" fill="#404040" stroke="#000000" stroke-width="0" stroke-linecap="butt"/><path d="M239.83801,185.75702l2.16706,-1.90697l-0.31765,2.06422l2.18898,-0.89799l-2.0242,2.04983z" fill="#7f7f7f" stroke="#000000" stroke-width="0.3" stroke-linecap="butt"/><path d="M243.02505,175.22592l-1.8,2.45l-3.1,-2.45" fill="none" stroke="#000000" stroke-width="0.5" stroke-linecap="round"/><path d="M236.7334,186.87145l0.1,-3.49048l3.16431,0.95749l-2.40241,0.47108l1.32263,3.14881z" fill="#ab60bf" stroke="#000000" stroke-width="0" stroke-linecap="butt"/><path d="M235.11911,182.14288l-0.00001,-4.09524l1.00001,0.80953l0.28571,1.7619z" fill="#e480ff" stroke="#000000" stroke-width="0.3" stroke-linecap="butt"/><path d="M236.88101,182.9524l-0.41721,-2.62517l-1.16947,1.3254l-0.07998,-1.79548l0.67568,0.57587l0.14509,-1.01484l1.22685,1.15326l-0.07905,1.21867l0.93197,0.14796l0.29934,0.71472l1.7525,1.15675z" fill="#ab60bf" stroke="none" stroke-width="0" stroke-linecap="butt"/><path d="M235.50005,179.14287c0,0 0.25137,0.27792 0.31429,0.46667c0.07706,0.23117 0.11429,0.81905 0.11429,0.81905" fill="none" stroke="#000000" stroke-width="0.3" stroke-linecap="round"/><path d="M238.97625,183.09524l0.7619,1.2381l-2.95238,-0.95238l1.38095,-0.7619z" fill="#ab60bf" stroke="none" stroke-width="0" stroke-linecap="butt"/></g><path d="M242.26583,192.35143c0,-2.22887 1.02667,-6.60715 3.26236,-6.60715c2.23569,0 2.47785,10.32086 0.14167,12.60242c-1.4604,2.16637 -0.74134,6.86274 -1.57024,5.82615c-1.95218,-5.49037 -1.83379,-9.59256 -1.83379,-11.82142z" data-paper-data="{&quot;index&quot;:null}" fill="#404040" stroke="#000000" stroke-width="0.3" stroke-linecap="butt"/><path d="M241.20329,192.49429c0,2.22887 0.90411,5.40249 -1.47664,7.75c-0.47175,0.46517 -3.64166,3.67385 -3.64166,3.67385c0,0 -0.40642,-6.66213 -0.40642,-7.63814c0,-2.22887 -3.32956,-9.68679 -1.09477,-9.75c3.53569,-0.1 6.6195,3.73542 6.6195,5.96429z" fill="#404040" stroke="#000000" stroke-width="0.3" stroke-linecap="butt"/><path d="M229.8237,181.7651l1.81236,-6.049l1.3977,1.13712l-0.01632,5.70737l1.93336,6.12484l0.35518,0.98021l-3.80938,-0.41646c0,0 -1.05543,-1.10919 -1.43198,-1.77263c-0.37655,-0.66343 -1.00613,-2.9654 -1.00613,-2.9654z" data-paper-data="{&quot;index&quot;:null}" fill="#404040" stroke="#000000" stroke-width="0.3" stroke-linecap="butt"/><path d="M246.6673,178.54391l1.50207,-0.89292l0.25643,5.01595l-0.31362,2.75607l-0.02958,2.80974c0,0 0.49188,2.30812 -0.01903,3.3881c-0.51092,1.07998 -1.79416,2.05062 -1.79416,2.05062l-0.86318,-8.15013z" data-paper-data="{&quot;index&quot;:null}" fill="#404040" stroke="#000000" stroke-width="0.3" stroke-linecap="butt"/><path d="M244.39286,204.63c0,0.06053 0.67685,3.78369 0.67685,3.78369c0,0 6.42372,-0.92006 6.56451,0.12889c0.227,1.69142 3.942,0.03752 3.942,0.03752c0,0 -7.05188,3.14882 -7.716,4.09527c-0.12558,0.17897 -2.49219,-0.68663 -4.44799,-1.94021c-1.88238,-1.20652 -3.35476,-2.79454 -3.56612,-3.04378c-0.22843,-0.26934 -3.30883,2.83509 -4.96143,4.33635c-0.82869,1.58392 -0.96417,-1.15823 -0.96417,-1.15823l-2.22579,-0.90768l-0.97115,-2.73611l-2.96098,0.76667c0,0 2.93573,-5.33574 6.43028,-1.66235c2.66225,3.02853 1.84286,0.37376 1.84286,-1.91428c0,-2.28804 4.01378,-2 5,-2c0.98622,0 3.35714,-0.07375 3.35714,2.21428z" fill="#404040" stroke="#000000" stroke-width="0.3" stroke-linecap="butt"/><g stroke="#000000" stroke-width="0.3" stroke-linecap="butt"><path d="M237.60715,202.24429l2.07143,-2l3.92857,0.35714v1.78572z" fill="#000000"/><path d="M239.75,202.24429l1,-1.92857l1.78572,0.21428l-0.21429,1.71429z" fill="#fff700"/></g><g data-paper-data="{&quot;index&quot;:null}" stroke="#000000" stroke-width="0.3"><path d="M231.51218,175.74166l2.38135,-1.04745l0.88847,-0.66005l1.67403,1.27018c0,0 -0.03231,2.00907 -1.10232,1.34058c-1.02805,-0.64227 -2.55852,0.07568 -2.55852,0.07568z" fill="#e480ff" stroke-linecap="butt"/><path d="M235.05347,175.94363l0.72768,-0.10919l0.47863,0.47206" fill="none" stroke-linecap="round"/><path d="M235.1377,175.61217l0.48649,-0.55206l0.67015,0.05304" fill="none" stroke-linecap="round"/><path d="M234.60586,175.55214l0.07523,-0.73198l0.57626,-0.34617" fill="none" stroke-linecap="round"/></g><path d="M243.54167,188.45856c-3.43333,6.30457 1.31852,11.82141 -0.80833,11.71667c-3.05097,-0.15026 -3.78494,0.5999 -2.76667,-0.26667c1.71938,-1.46322 1.78051,-7.96666 -0.88333,-11.74166c0.01733,-1.08602 4.44947,-0.81287 4.45833,0.29166z" fill="#e480ff" stroke="#000000" stroke-width="0.3" stroke-linecap="butt"/><path d="M249.04799,179.93802l-1.60793,1.2349l-1.26064,-0.93182l1.28403,-1.38976z" data-paper-data="{&quot;index&quot;:null}" fill="#cccccc" stroke="#000000" stroke-width="0.3" stroke-linecap="butt"/><path d="M246.81221,180.6504c-0.43325,-0.45174 -0.4075,-1.1795 0.05753,-1.6255c0.46503,-0.446 1.19323,-0.44133 1.62649,0.01042c0.43325,0.45174 0.40749,1.1795 -0.05754,1.6255c-0.46503,0.446 -1.19323,0.44132 -1.62647,-0.01042z" data-paper-data="{&quot;index&quot;:null}" fill="#cccccc" stroke="#000000" stroke-width="0.3" stroke-linecap="butt"/><path d="M247.08078,180.20809c-0.29308,-0.30559 -0.26139,-0.81157 0.07076,-1.13014c0.33217,-0.31857 0.83903,-0.32909 1.13211,-0.02351c0.29308,0.30559 0.26139,0.81157 -0.07077,1.13014c-0.33217,0.31857 -0.83902,0.32909 -1.1321,0.0235z" data-paper-data="{&quot;index&quot;:null}" fill="#ffffff" stroke="#000000" stroke-width="0.3" stroke-linecap="butt"/><g data-paper-data="{&quot;index&quot;:null}"><g fill="#808080" stroke="#000000" stroke-width="0.1" stroke-linecap="butt"><path d="M234.58526,178.08775l-0.73263,-1.51141c0,0 0.55173,-0.11538 0.87436,-0.06872c0.31608,0.04571 1.04217,0.34591 1.04217,0.34591l-0.04648,1.05552z"/><path d="M234.62866,177.55608c0.15267,-0.22613 0.49744,-0.26018 0.77012,-0.0761c0.27267,0.1841 0.36996,0.51664 0.2173,0.74275c-0.15266,0.2261 -0.49746,0.26017 -0.77013,0.07608c-0.27267,-0.1841 -0.36995,-0.51662 -0.21729,-0.74273z"/></g><g><path d="M233.11192,175.11038l-0.1479,-0.53624l1.92641,-0.5259l0.1479,0.53625z" fill="#808080" stroke="#000000" stroke-width="0.1" stroke-linecap="butt"/><path d="M232.79202,174.57398l-0.12518,-0.38957l2.61254,-0.65708l0.12518,0.38958z" fill="#bfbfbf" stroke="#000000" stroke-width="0.1" stroke-linecap="butt"/><path d="M231.77235,172.16261c0.12602,-0.76097 1.47663,-1.12056 2.23759,-0.99454c0.76097,0.12602 1.92058,2.09306 1.18321,2.3194c-0.90552,0.27795 -1.6655,0.46145 -2.50024,0.74879c-0.88494,0.30463 -1.04657,-1.3127 -0.92055,-2.07366z" fill="#808080" stroke="#000000" stroke-width="0.1" stroke-linecap="butt"/><path d="M234.13907,173.13597c0.13728,-0.82891 -0.75894,-2.37555 0.07601,-1.8328c0.68135,0.44288 1.61245,1.81778 0.83452,2.13526c-0.86757,0.35406 -1.75698,0.51532 -2.52892,0.76932c-0.81772,0.26905 1.48112,-0.24288 1.6184,-1.07179z" fill="#404040" stroke="none" stroke-width="0" stroke-linecap="butt"/><path d="M231.83012,173.3415c0,0 0.86021,-0.49353 1.35876,-0.6578c0.55366,-0.18246 1.81525,-0.38811 1.81525,-0.38811" data-paper-data="{&quot;index&quot;:null}" fill="none" stroke="#000000" stroke-width="0.1" stroke-linecap="round"/><path d="M232.10726,173.97259c0,0 0.8602,-0.49353 1.35875,-0.6578c0.55367,-0.18245 1.81526,-0.38809 1.81526,-0.38809" data-paper-data="{&quot;index&quot;:null}" fill="none" stroke="#000000" stroke-width="0.1" stroke-linecap="round"/><path d="M231.6736,172.76157c0,0 0.8602,-0.49353 1.35875,-0.65781c0.55367,-0.18245 1.81526,-0.38811 1.81526,-0.38811" data-paper-data="{&quot;index&quot;:null}" fill="none" stroke="#000000" stroke-width="0.1" stroke-linecap="round"/><path d="M231.73995,172.14663c0,0 0.74265,-0.45479 1.17768,-0.59814c0.48313,-0.15919 1.59195,-0.3145 1.59195,-0.3145" data-paper-data="{&quot;index&quot;:null}" fill="none" stroke="#000000" stroke-width="0.1" stroke-linecap="round"/><path d="M233.90285,171.05056c0,0 0.43202,0.63115 0.56341,1.007c0.14594,0.41739 0.27317,1.38584 0.27317,1.38584" data-paper-data="{&quot;index&quot;:null}" fill="none" stroke="#000000" stroke-width="0.1" stroke-linecap="round"/><path d="M233.26991,171.31908c0,0 0.43203,0.63116 0.56342,1.00701c0.14593,0.4174 0.27316,1.38583 0.27316,1.38583" data-paper-data="{&quot;index&quot;:null}" fill="none" stroke="#000000" stroke-width="0.1" stroke-linecap="round"/><path d="M232.74346,174.23479c0,0 -0.47341,-0.85434 -0.60421,-1.27672c-0.11778,-0.38034 -0.14563,-1.14469 -0.14563,-1.14469" data-paper-data="{&quot;index&quot;:null}" fill="none" stroke="#000000" stroke-width="0.1" stroke-linecap="round"/><path d="M233.41204,174.07441c0,0 -0.47342,-0.85434 -0.60422,-1.27672c-0.11778,-0.38035 -0.14562,-1.14468 -0.14562,-1.14468" data-paper-data="{&quot;index&quot;:null}" fill="none" stroke="#000000" stroke-width="0.1" stroke-linecap="round"/></g></g><g data-paper-data="{&quot;index&quot;:null}" stroke="#000000" stroke-width="0.3"><path d="M246.67166,177.99505c0,0 0.35402,-1.65302 -0.5037,-2.5096c-0.89273,-0.89154 1.05721,-1.37642 1.05721,-1.37642l1.61522,1.34417l-0.4425,1.01452l-0.48297,2.5563z" fill="#e480ff" stroke-linecap="butt"/><path d="M246.29314,174.52639l0.5679,0.35974l0.05786,0.73355" fill="none" stroke-linecap="round"/><path d="M247.44791,174.22339l0.20292,0.64088l-0.42802,0.59854" fill="none" stroke-linecap="round"/><path d="M248.30463,175.08937l-0.20719,0.63953l-0.69611,0.23849" fill="none" stroke-linecap="round"/></g></g></g></svg>