<svg version="1.1" xmlns="http://www.w3.org/2000/svg" xmlns:xlink="http://www.w3.org/1999/xlink" width="28.13797" height="15.81406" viewBox="0,0,28.13797,15.81406"><g transform="translate(-225.39276,-184.06152)"><g data-paper-data="{&quot;isPaintingLayer&quot;:true}" fill-rule="nonzero" stroke-linejoin="miter" stroke-miterlimit="10" stroke-dasharray="" stroke-dashoffset="0" style="mix-blend-mode: normal"><g stroke-linecap="butt"><path d="M246.09463,197.79541l0.91485,-1.28373l-1.74441,-1.36164l0.90214,-1.09613l1.40931,1.23589c0,0 0.59387,-3.93945 0.66319,-4.01532c0.20227,-0.22136 1.94519,-1.69542 2.90227,-0.93641c0.9277,0.73572 0.77634,2.05187 0.74689,3.09307c-0.02877,1.01735 0.67193,3.91918 -0.4147,5.06352c-1.30307,1.37226 -4.42956,0.90718 -4.42956,0.90718z" fill="#ff0000" stroke="#000000" stroke-width="0.3"/><path d="M252.00199,193.6976c-0.04109,1.4528 -1.89005,5.8963 -3.12184,5.86146c-1.23177,-0.03483 -2.64726,-0.25314 -2.60617,-1.70594c0.01534,-0.54242 0.67835,-0.90911 1.12714,-1.62825c0.75325,-1.20701 1.54133,-2.7191 2.31322,-2.69727c1.23177,0.03483 2.32873,-1.2828 2.28764,0.17z" fill="#bf0000" stroke="none" stroke-width="0"/><path d="M248.20493,191.43795c0.01048,-0.37067 -0.1273,0.96322 1.08784,0.99758c1.21514,0.03437 1.96695,-0.22282 1.95647,0.14786c-0.01048,0.37068 -1.1953,1.00647 -2.41044,0.9721c-1.21513,-0.03437 -0.64436,-1.74687 -0.63387,-2.11755z" fill="#ffffff" stroke="#000000" stroke-width="0.3"/><path d="M248.5605,194.86393c-1.21514,-0.03437 -0.64437,-1.74688 -0.63389,-2.11755c0.01048,-0.37067 -0.1273,0.96322 1.08784,0.99758c1.21514,0.03437 1.96695,-0.22281 1.95647,0.14786c-0.01048,0.37067 -1.1953,1.00647 -2.41044,0.9721z" fill="#ffffff" stroke="#000000" stroke-width="0.3"/><path d="M248.2822,196.17238c-1.21514,-0.03437 -0.64437,-1.74688 -0.63388,-2.11755c0.01048,-0.37067 -0.12729,0.96322 1.08785,0.99759c1.21514,0.03437 1.96694,-0.22281 1.95646,0.14786c-0.01048,0.37067 -1.19529,1.00647 -2.41043,0.97211z" fill="#ffffff" stroke="#000000" stroke-width="0.3"/><path d="M250.93219,189.92901c0.44943,0.01271 2.56417,0.23745 2.44359,4.255c-0.11881,3.9579 -3.23473,5.4794 -3.68333,5.45068c-1.47269,-0.0943 1.97953,-1.64174 2.23216,-5.33376c0.28134,-4.11162 -1.44185,-4.38462 -0.99242,-4.37192z" fill="#ffffff" stroke="#000000" stroke-width="0.3"/></g><path d="M241.00102,191.51448l-1.71428,-2.02748l1.85715,0.03976l-0.23248,1.15851l2.01819,0.63045z" fill="#bfbfbf" stroke="#000000" stroke-width="0.3" stroke-linecap="butt"/><path d="M241.2178,191.70827l1.85714,-0.27272l0.28572,0.98178l-0.14286,1.25449z" fill="#bf9360" stroke="#000000" stroke-width="0.3" stroke-linecap="butt"/><path d="M233.71331,195.26685l-0.86459,-2.12288l0.93389,0.65626l1.27665,-0.79498l0.80339,0.62897c0,0 2.70275,0.84079 3.78585,0.86614c1.10686,0.02589 2.14272,-0.73568 2.14272,-0.73568l0.19611,1.23118l2.84949,-0.11415l2.11447,1.35564l-0.91615,1.12332l-1.62053,1.09064c0,0 -1.75585,1.01862 -3.05712,1.00603c-1.30126,-0.01259 -2.84047,-0.02994 -3.61093,0.03445c-0.77046,0.06439 -3.40798,-0.40957 -3.40798,-0.40957l-1.26629,-1.11193l-1.1047,-1.00797z" fill="#565fff" stroke="#000000" stroke-width="0.3" stroke-linecap="butt"/><path d="M235.10661,193.28264l-1.36201,0.5266l-0.91674,-0.59735l-0.13455,-1.40713l2.66439,-0.06269z" fill="#ffc380" stroke="#000000" stroke-width="0.3" stroke-linecap="butt"/><g><path d="M239.69641,194.99953c-1.04347,0 -4.33496,-1.09265 -4.67868,-1.60615c-0.12314,-0.18397 0.29642,-1.08505 0.12648,-1.61367c-0.07608,-0.23665 -2.44908,-0.03175 -2.6187,-0.19472c-0.27371,-0.26298 1.5653,-0.63852 1.5653,-0.63852c0,0 -0.51094,-0.60948 -0.51094,-0.71284c0,-0.44898 1.08259,-0.6923 2.51548,0.00887c0.82964,0.40597 2.56554,0.79899 3.38678,0.79899c1.06683,0 0.72974,0.96797 1.17541,1.48764c0.45523,0.53081 1.30078,1.19656 1.30078,1.56296c0,0.72511 -0.10537,0.90745 -2.26191,0.90745z" fill="#ffffff" stroke="#000000" stroke-width="0.3" stroke-linecap="butt"/><path d="M238.63312,194.50583c-1.02015,0.0106 -1.48933,-0.91575 -1.48933,-0.91575c-0.28738,-0.75239 0.55239,-1.45604 1.47619,-1.50599c0.9238,-0.04994 1.4598,0.66954 1.38095,1.35152c0,0 -0.22562,1.05834 -1.36781,1.07021z" fill="none" stroke="#ff0000" stroke-width="0.3" stroke-linecap="round"/><path d="M239.57237,192.47023l-1.83333,1.71836" fill="none" stroke="#ff0000" stroke-width="0.3" stroke-linecap="round"/><path d="M237.09618,190.77117v0l2.57143,0.42477c0,0 0.35279,0.13544 0.43747,0.26652c0.08964,0.13878 0.08634,0.54439 0.08634,0.54439z" fill="#bfbfbf" stroke="none" stroke-width="0" stroke-linecap="butt"/></g><g><path d="M242.90372,192.60902c0,0.64586 -1.70646,1.16945 -3.8115,1.16945c-2.10504,0 -3.81151,-0.52359 -3.81151,-1.16945c0,-0.37195 -0.81006,-3.1212 0.47769,-4.20671c0.94842,-0.79949 4.22658,-0.24979 5.11939,-0.24979c0.63107,0 -0.76529,3.83984 -0.2411,3.92314c1.22433,0.19457 2.26704,0.08113 2.26704,0.53337z" fill="#ffc380" stroke="#000000" stroke-width="0.3" stroke-linecap="butt"/><path d="M236.91768,190.3357l0.28572,-1.05196l0.71428,0.26299l0.57143,1.09578z" fill="#bf9360" stroke="none" stroke-width="0" stroke-linecap="butt"/><path d="M235.05377,189.43701l-1.4945,-1.30991c0,0 -0.37295,-1.44064 -0.03063,-2.23691c0.34232,-0.79625 0.66098,-1.07582 1.53465,-1.26147c0.87367,-0.18565 6.00041,-0.41719 6.00041,-0.41719c0,0 0.6344,-0.06364 0.94721,0.20679c0.3128,0.27043 0.18649,0.37286 0.17637,0.76725c-0.0182,0.70909 -0.07637,2.97593 -0.07637,2.97593z" fill="#ff0000" stroke="#000000" stroke-width="0.3" stroke-linecap="butt"/><path d="M233.63195,186.5224c0,-1.06512 0.36166,-1.84091 1.57143,-1.84091c0.59133,0 1.62477,-0.3484 2.08866,0.13683c0.48515,0.50745 0.38753,1.86091 0.38753,2.40538c0,0.49793 -0.50444,1.18051 -0.91171,1.53287c-0.46394,0.4014 -0.87263,0.43954 -1.51686,0.43954c-0.47298,0 -1.09809,-0.72134 -1.39406,-1.07632c-0.46105,-0.55299 -0.22498,-0.94868 -0.22498,-1.59737z" fill="#bf0000" stroke="#000000" stroke-width="0.2" stroke-linecap="butt"/><path d="M243.14712,188.84694c0,0 -1.03103,-0.69443 -2.13096,-0.69443c-1.09993,0 -5.90612,1.53889 -5.90612,0.4741c0,-0.53083 0.50774,2.75314 1.84203,1.80571c1.34215,-0.953 3.90378,-5.18856 4.13075,-5.43013c0.22697,-0.24157 -0.24573,0.10219 0.31037,0.7031c0.46752,0.50518 1.64948,0.43001 1.76869,1.05739c0.11921,0.62738 -1.76035,-0.57396 -1.58835,-0.10829c0.33011,0.89375 1.57358,2.19253 1.57358,2.19253z" fill="#00f8ff" stroke="#000000" stroke-width="0.3" stroke-linecap="butt"/><path d="M242.46527,188.25844c0,0 -1.09171,-0.19795 -2.04398,-0.19795c-0.95227,0 -5.14659,1.81503 -5.14659,0.75024c0,-0.53085 0.67291,2.44631 1.82808,1.4989c1.16198,-0.953 3.44099,-5.00057 3.91852,-5.00057c0.17208,0 -0.38837,0.01014 0.09308,0.61105c0.40476,0.50518 1.8467,0.84261 1.8467,0.84261c0,0 -2.20614,-0.66599 -2.05723,-0.20034c0.28579,0.89375 1.56142,1.69607 1.56142,1.69607z" fill="#00b9bf" stroke="#000000" stroke-width="0" stroke-linecap="butt"/><path d="M233.55828,192.2729l-0.13334,-3.83522l1.56667,1.22728l-0.1,1.74885z" fill="#ffc380" stroke="#000000" stroke-width="0.3" stroke-linecap="butt"/><path d="M234.10787,191.99677l-0.02044,-2.13727l0.89013,0.67903l-0.03199,0.68226z" fill="#bf9360" stroke="#000000" stroke-width="0.2" stroke-linecap="butt"/><path d="M233.39387,188.0784c0,0 -0.49883,0.55664 -0.73869,0.74c-0.22777,0.17412 -0.66608,0.33385 -0.66608,0.33385l-0.11904,-2.03815c0,0 0.47339,0.17813 0.69301,0.28113c0.19898,0.09329 0.56889,0.31059 0.56889,0.31059z" fill="#565fff" stroke="#000000" stroke-width="0.3" stroke-linecap="butt"/><path d="M233.29864,188.05648c0,0.50835 -0.59625,0.87662 -1.21429,0.87662c-0.61803,0 -0.02381,0.0262 -0.02381,-0.48214c0,-0.50835 -0.11803,-0.30681 0.5,-0.30681c0.61803,0 0.7381,-0.59602 0.7381,-0.08767z" fill="#000dff" stroke="none" stroke-width="0" stroke-linecap="butt"/><path d="M239.06055,189.80974c0,0 -0.24518,1.05195 -0.54762,1.05195c-0.30244,0 -0.54762,-0.47097 -0.54762,-1.05195c0,-0.58097 0.54762,-1.05196 0.54762,-1.05196z" fill="#000000" stroke="none" stroke-width="0" stroke-linecap="butt"/><path d="M238.96531,190.07273l-0.14286,-1.13962l2.14286,-0.48213l-0.66667,2.06008z" fill="#bf9360" stroke="none" stroke-width="0" stroke-linecap="butt"/><path d="M240.82245,189.54675c0,0.58097 -0.23452,1.05195 -0.52381,1.05195c-0.28929,0 -0.52381,-1.05195 -0.52381,-1.05195l0.52381,-1.05194c0,0 0.52381,0.47097 0.52381,1.05194z" fill="#000000" stroke="none" stroke-width="0" stroke-linecap="butt"/><path d="M235.58436,186.69773c0,0 1.05052,-0.36324 1.63162,0.16422c0.56104,0.50923 1.79695,2.9478 1.79695,2.9478" fill="none" stroke="#000000" stroke-width="0.3" stroke-linecap="round"/><path d="M239.72722,189.54675c0,0 0.66634,-1.60119 0.95666,-1.96954c0.29683,-0.3766 0.80524,-0.26585 0.80524,-0.26585" fill="none" stroke="#000000" stroke-width="0.3" stroke-linecap="round"/><path d="M241.15579,193.0094c0,0 -0.96608,-0.39395 -2.04997,-0.55653c-0.58724,-0.08808 -1.44454,0.07756 -1.66432,-0.01327c-0.62545,-0.25848 -0.95238,-1.35877 -0.95238,-1.35877c0,0 0.85675,0.63853 1.58377,0.93897c0.81782,0.33798 3.08289,0.98959 3.08289,0.98959z" fill="none" stroke="#000000" stroke-width="0.3" stroke-linecap="round"/><path d="M237.10815,192.08894c-0.13457,-0.14572 -0.33333,-0.65748 -0.33333,-0.65748l1.71429,0.92046l-0.90476,-0.04382c0,0 -0.34163,-0.07344 -0.47619,-0.21917z" fill="#ffffff" stroke="#000000" stroke-width="0" stroke-linecap="butt"/></g><g data-paper-data="{&quot;index&quot;:null}"><path d="M244.70425,194.97594c-0.98653,-0.54336 -0.82779,-0.40973 -1.52701,-0.89439c-0.69922,-0.48467 -0.49859,-0.3574 -1.24045,-0.91451c-0.03104,-0.0233 0.36,-1.34169 0.83364,-1.01472c0.52545,0.36275 1.46997,0.86415 1.08059,0.5917c-0.92353,-0.64615 -0.97805,-1.24897 -0.69526,-1.36559c0.64804,-0.26728 1.49632,0.57511 1.20738,0.3534c-0.22867,-0.17548 -0.76363,-0.51763 -0.83511,-0.74986c-0.16953,-0.55074 0.42213,-1.00374 0.59809,-0.89759c0.76193,0.45966 1.25982,0.66116 1.60607,0.90117c0.31309,0.21701 0.32245,0.33313 1.17134,1.04973c0.7407,0.62527 -1.75162,3.18721 -2.19929,2.94065z" data-paper-data="{&quot;index&quot;:null}" fill="#ffc380" stroke="#000000" stroke-width="0.3" stroke-linecap="butt"/><path d="M244.29592,190.16334l0.47144,-0.64209l2.30946,1.68641l-0.47145,0.64209z" fill="#808080" stroke="#000000" stroke-width="0.3" stroke-linecap="butt"/><path d="M244.26076,189.22082l0.36623,-0.45743l3.16062,2.21194l-0.36622,0.45744z" fill="#bfbfbf" stroke="#000000" stroke-width="0.3" stroke-linecap="butt"/><path d="M249.90158,188.5887c-0.21957,1.08253 -1.26089,3.1642 -2.28961,2.30515c-0.97036,-0.8103 -1.89371,-1.44352 -2.9636,-2.27739c-0.87122,-0.67902 1.68391,-2.71955 2.76643,-2.49999c1.08253,0.21957 2.70634,1.38969 2.48677,2.47222z" fill="#808080" stroke="#000000" stroke-width="0.3" stroke-linecap="butt"/><path d="M246.23814,188.6838c-0.23917,1.17917 2.57577,3.0369 1.61884,2.25974c-0.90335,-0.73365 -2.01121,-1.40316 -2.99148,-2.3195c-0.87897,-0.82163 1.06826,-2.18641 2.20591,-2.43146c1.39411,-0.30031 -0.59409,1.31204 -0.83326,2.49122z" fill="#404040" stroke="none" stroke-width="0" stroke-linecap="butt"/><path d="M245.50932,187.11802c0,0 1.58321,0.91875 2.231,1.44533c0.5833,0.47414 1.48258,1.57334 1.48258,1.57334" data-paper-data="{&quot;index&quot;:null}" fill="none" stroke="#000000" stroke-width="0.2" stroke-linecap="round"/><path d="M244.81655,187.82114c0,0 1.58322,0.91875 2.23101,1.44532c0.5833,0.47414 1.48258,1.57334 1.48258,1.57334" data-paper-data="{&quot;index&quot;:null}" fill="none" stroke="#000000" stroke-width="0.2" stroke-linecap="round"/><path d="M246.01457,186.42188c0,0 1.58321,0.91875 2.231,1.44532c0.5833,0.47414 1.48258,1.57334 1.48258,1.57334" data-paper-data="{&quot;index&quot;:null}" fill="none" stroke="#000000" stroke-width="0.2" stroke-linecap="round"/><path d="M246.71263,185.94982c0,0 1.40446,0.77344 1.96972,1.23291c0.50897,0.41373 1.27072,1.40113 1.27072,1.40113" data-paper-data="{&quot;index&quot;:null}" fill="none" stroke="#000000" stroke-width="0.2" stroke-linecap="round"/><path d="M245.278,188.78895c0,0 0.66427,-1.23093 1.07246,-1.71502c0.36755,-0.43589 1.26759,-1.06008 1.26759,-1.06008" data-paper-data="{&quot;index&quot;:null}" fill="none" stroke="#000000" stroke-width="0.2" stroke-linecap="round"/><path d="M245.98795,189.47112c0,0 0.66427,-1.23093 1.07246,-1.71502c0.36754,-0.43589 1.26759,-1.06008 1.26759,-1.06008" data-paper-data="{&quot;index&quot;:null}" fill="none" stroke="#000000" stroke-width="0.2" stroke-linecap="round"/><path d="M249.78364,188.00852c0,0 -0.42717,1.00858 -0.77879,1.45741c-0.39048,0.49847 -1.45978,1.40016 -1.45978,1.40016" data-paper-data="{&quot;index&quot;:null}" fill="none" stroke="#000000" stroke-width="0.2" stroke-linecap="round"/><path d="M248.97083,187.45287c0,0 -0.42716,1.00857 -0.77878,1.45741c-0.39049,0.49847 -1.45979,1.40017 -1.45979,1.40017" data-paper-data="{&quot;index&quot;:null}" fill="none" stroke="#000000" stroke-width="0.2" stroke-linecap="round"/></g><g data-paper-data="{&quot;index&quot;:null}" stroke-linecap="butt"><path d="M231.87393,199.49275c0,0 -3.12649,0.46508 -4.42955,-0.90718c-1.08664,-1.14434 -0.38594,-4.04617 -0.41471,-5.06352c-0.02945,-1.04119 -0.1808,-2.35736 0.7469,-3.09307c0.95708,-0.75901 2.69999,0.71505 2.90227,0.93641c0.06932,0.07587 0.6632,4.01532 0.6632,4.01532l1.40931,-1.2359l0.90214,1.09614l-1.74441,1.36164l0.91485,1.28373z" fill="#ff0000" stroke="#000000" stroke-width="0.3"/><path d="M229.2042,193.6185c0.77189,-0.02183 1.55997,1.49027 2.31322,2.69727c0.44879,0.71914 1.1118,1.08583 1.12714,1.62824c0.04109,1.4528 -1.37439,1.67111 -2.60616,1.70594c-1.23179,0.03484 -3.08075,-4.40865 -3.12184,-5.86145c-0.04109,-1.4528 1.05587,-0.13517 2.28764,-0.17001z" fill="#bf0000" stroke="none" stroke-width="0"/><path d="M230.07974,193.6464c-1.21514,0.03437 -2.39995,-0.60143 -2.41043,-0.9721c-0.01048,-0.37068 0.74133,-0.1135 1.95647,-0.14786c1.21514,-0.03437 1.07736,-1.36825 1.08784,-0.99758c0.01048,0.37068 0.58125,2.08318 -0.63388,2.11755z" fill="#ffffff" stroke="#000000" stroke-width="0.3"/><path d="M230.35805,194.95484c-1.21514,0.03437 -2.39995,-0.60144 -2.41043,-0.9721c-0.01048,-0.37067 0.74133,-0.1135 1.95647,-0.14786c1.21514,-0.03437 1.07736,-1.36825 1.08784,-0.99758c0.01048,0.37067 0.58125,2.08318 -0.63389,2.11755z" fill="#ffffff" stroke="#000000" stroke-width="0.3"/><path d="M230.63636,196.26328c-1.21514,0.03437 -2.39995,-0.60144 -2.41044,-0.9721c-0.01048,-0.37067 0.74132,-0.1135 1.95646,-0.14786c1.21514,-0.03437 1.07737,-1.36825 1.08785,-0.99758c0.01048,0.37067 0.58125,2.08318 -0.63389,2.11755z" fill="#ffffff" stroke="#000000" stroke-width="0.3"/><path d="M227.98636,190.01991c0.44943,-0.01271 -1.27376,0.26029 -0.99242,4.37191c0.25262,3.69203 3.70484,5.23947 2.23215,5.33377c-0.4486,0.02873 -3.56452,-1.49278 -3.68332,-5.45068c-0.12059,-4.01755 1.99415,-4.24228 2.44358,-4.25499z" fill="#ffffff" stroke="#000000" stroke-width="0.3"/></g></g></g></svg>