<svg version="1.1" xmlns="http://www.w3.org/2000/svg" xmlns:xlink="http://www.w3.org/1999/xlink" width="12.7019" height="27.90029" viewBox="0,0,12.7019,27.90029"><g transform="translate(-233.19666,-174.56507)"><g data-paper-data="{&quot;isPaintingLayer&quot;:true}" fill-rule="nonzero" stroke-linejoin="miter" stroke-miterlimit="10" stroke-dasharray="" stroke-dashoffset="0" style="mix-blend-mode: normal"><g><path d="M245.72645,181.56368c0.03986,0.70102 -1.15798,0.58256 -1.38022,1.21166c-0.30403,0.86059 1.17888,2.66932 0.71569,3.44542c-0.28893,0.48413 -0.4926,-2.06375 -1.3153,-1.93054c-0.36427,0.05898 -0.52574,2.26762 -0.99276,2.76888c-0.80593,0.86501 -1.9424,0.19753 -2.42566,0.22501c-0.38262,0.02176 -1.76664,0.45877 -2.50255,-0.17904c-0.68051,-0.58977 -0.71211,-2.25603 -1.13159,-2.28587c-0.81039,-0.05764 -0.48345,2.28579 -0.84497,1.86835c-0.51849,-0.5987 0.43828,-2.37859 0.04812,-3.1699c-0.29872,-0.60587 -1.54054,-0.5953 -1.5809,-1.30521c-0.01016,-0.17875 -0.13479,-0.97406 0.0859,-1.49361c0.23632,-0.55634 0.81741,-0.83555 0.75274,-0.92877c-0.26016,-0.37501 -2.15113,0.96218 -1.7536,0.34924c0.94985,-1.46456 4.36793,-3.53668 6.31323,-3.64728c1.53666,-0.08737 2.40281,1.44148 3.48172,2.31761c0.11754,0.09545 0.4225,0.34557 0.64027,0.27329c0.45052,-0.14953 0.89288,-0.76099 1.08902,-0.54296c0.14968,0.16639 -0.25432,0.8626 -0.71073,1.21098c-0.3828,0.2922 -0.82297,0.22774 -0.80484,0.48972c0.02191,0.3165 0.76162,-0.04386 1.25002,0.10838c0.63208,0.19702 1.04778,0.88683 1.06642,1.21465z" fill="#800000" stroke="#000000" stroke-width="0.3" stroke-linecap="butt"/><path d="M243.83864,182.95997c-0.05696,0.69936 -1.80397,1.12779 -3.90206,0.95691c-2.09809,-0.17088 -3.75275,-0.87636 -3.69579,-1.57573c0.0328,-0.40275 -0.53212,-3.4455 0.84712,-4.5164c1.0158,-0.78871 4.23466,0.07261 5.12452,0.14509c0.62899,0.05123 -1.10141,4.09579 -0.5863,4.22853c1.20313,0.31007 2.2524,0.27189 2.21252,0.76159z" fill="#ffc380" stroke="#000000" stroke-width="0.3" stroke-linecap="butt"/><path d="M242.11484,178.48583c-0.03767,0.46255 -0.50528,1.95956 -0.50528,1.95956c0,0 -0.92132,-1.40687 -1.09135,-1.42072c-0.28485,-0.0232 -1.61574,1.40607 -1.61574,1.40607c0,0 0.13964,-1.1739 0.16815,-1.52397c0.05124,-0.6291 1.18293,-1.05029 1.82514,-0.99798c0.6422,0.05231 1.27032,-0.05205 1.21908,0.57706z" fill="#bf9360" stroke="none" stroke-width="0" stroke-linecap="butt"/><path d="M241.20598,174.95041c-0.00328,0.04028 -0.35272,0.00853 -0.5193,0.51872c-0.19766,0.60537 -0.21063,1.32347 0.08329,1.1709c0.31876,-0.16546 1.44164,-0.80347 1.79411,-0.7698c0.84043,0.08031 0.76824,0.87203 0.95832,1.06748c0.33371,0.34315 -0.19983,1.97591 -0.90782,2.40103c-0.43751,0.26271 -0.21027,-1.48143 -0.31206,-1.40665c-0.15433,0.11338 -0.35228,0.93438 -1.11994,1.26435c-0.18428,0.07921 -0.06213,-0.32996 -0.18793,-0.71576c-0.11168,-0.34251 -0.46988,-0.66063 -0.64264,-0.69195c-0.12855,-0.0233 -0.0594,0.27628 -0.13632,0.59354c-0.06888,0.28411 -0.28386,0.5895 -0.38925,0.57378c-0.29869,-0.04458 -0.24339,-0.52946 -0.6817,-0.86812c-0.46903,-0.36241 -1.46005,-0.15161 -1.5496,-0.15891c-0.38061,-0.031 -1.47452,0.92137 -1.47452,0.92137c0,0 0.14132,-1.85718 0.20388,-2.62537c0.09287,-1.14024 0.61315,-1.12059 1.77961,-1.02559c0.53341,0.04344 1.27654,1.07425 1.69196,1.23385c0.22218,0.08535 0.27268,-0.68112 0.54813,-1.20613c0.33576,-0.63996 0.88948,-0.61667 0.86179,-0.27674z" fill="#800000" stroke="#000000" stroke-width="0.3" stroke-linecap="butt"/><path d="M236.39021,177.20739l0.07731,-0.94924c0,0 0.91888,0.29533 1.59829,0.33664c0.20425,0.01241 1.02809,-0.33207 1.02809,-0.33207l0.72329,0.5005l0.82816,-0.11391c0,0 0.64066,0.14966 1.03164,0.15402c0.50203,0.0056 1.73158,-0.12319 1.73158,-0.12319c0,0 0.09323,0.39749 0.07026,0.57786c-0.02102,0.16503 -0.10784,0.47017 -0.10784,0.47017c0,0 -1.275,0.03221 -1.76611,-0.03009c-0.37432,-0.04748 -1.02143,-0.31923 -1.02143,-0.31923l-0.78386,0.20286l-0.62751,-0.47877c0,0 -0.84046,0.48924 -1.09178,0.47055c-0.64208,-0.04774 -1.69007,-0.3661 -1.69007,-0.3661z" fill="#bf2e00" stroke="none" stroke-width="0" stroke-linecap="butt"/><path d="M239.49779,178.94157c-0.03767,0.46254 -0.51021,1.43361 -0.51021,1.43361c0,0 -0.81867,-1.49407 -0.98869,-1.50792c-0.28485,-0.0232 -1.66707,1.44967 -1.66707,1.44967c0,0 0.12417,-0.98406 0.15269,-1.33413c0.05124,-0.6291 1.18293,-1.05029 1.82514,-0.99798c0.6422,0.05231 1.23939,0.32765 1.18815,0.95675z" fill="#bf9360" stroke="none" stroke-width="0" stroke-linecap="butt"/><path d="M238.99526,179.83229c-0.05017,0.61599 -0.51583,1.08074 -1.04008,1.03804c-0.52424,-0.0427 -0.90857,-0.57667 -0.85839,-1.19267c0.05017,-0.61599 0.53237,-0.69718 1.05662,-0.65449c0.52424,0.0427 0.89203,0.19312 0.84186,0.80911z" fill="#000000" stroke="none" stroke-width="0" stroke-linecap="butt"/><path d="M241.15477,180.00816c-0.05017,0.61599 -0.51583,1.08074 -1.04008,1.03804c-0.52424,-0.0427 -0.90857,-0.57667 -0.85839,-1.19267c0.05017,-0.61599 0.48104,-0.65358 1.00529,-0.61088c0.52424,0.0427 0.94336,0.14951 0.89319,0.7655z" fill="#000000" stroke="none" stroke-width="0" stroke-linecap="butt"/><path d="M239.25769,179.5431c0,0 1.77822,-0.5358 2.3295,0.14195" fill="none" stroke="#000000" stroke-width="0.3" stroke-linecap="round"/><path d="M240.82565,178.4764c0.38759,0.68087 -0.5878,0.76434 -0.5878,0.76434" fill="none" stroke="#000000" stroke-width="0.2" stroke-linecap="round"/><path d="M240.20862,178.42615c0.38759,0.68087 -0.5878,0.76434 -0.5878,0.76434" fill="none" stroke="#000000" stroke-width="0.2" stroke-linecap="round"/><path d="M237.14122,179.13184c0.65369,-0.57961 2.32177,0.23688 2.32177,0.23688" data-paper-data="{&quot;index&quot;:null}" fill="none" stroke="#000000" stroke-width="0.3" stroke-linecap="round"/><path d="M238.26379,178.84107c0,0 -0.94902,-0.2402 -0.45637,-0.84938" data-paper-data="{&quot;index&quot;:null}" fill="none" stroke="#000000" stroke-width="0.2" stroke-linecap="round"/><path d="M238.87306,178.98623c0,0 -0.94902,-0.2402 -0.45637,-0.84938" data-paper-data="{&quot;index&quot;:null}" fill="none" stroke="#000000" stroke-width="0.2" stroke-linecap="round"/><path d="M238.99325,182.64902c-0.45507,-0.03706 -0.82675,-0.85374 -0.82675,-0.85374l1.75609,0.14303c0,0 -0.47426,0.74778 -0.92933,0.71071z" fill="#ff8080" stroke="#000000" stroke-width="0.2" stroke-linecap="butt"/><path d="M236.37596,177.98327l-0.58066,0.35403" fill="none" stroke="#800000" stroke-width="0.7" stroke-linecap="round"/></g><g stroke="#000000" stroke-width="0.3" stroke-linecap="butt"><path d="M238.44646,190.1076c0.65919,0.06862 0.42408,-0.17045 0.70115,0.14675c0.17829,0.20412 0.4933,0.68873 0.4933,1.5477c0,1.45989 -0.39311,3.85509 -0.8605,5.28602c-0.23496,0.71936 0.38039,2.03209 -0.76632,2.01228c-1.07333,0.06803 -0.09521,-1.62121 -0.1502,-2.26141c-0.06296,-0.73299 -0.38965,-1.36587 -0.38965,-2.53689c0,-2.1938 0.43855,-4.25 0.97223,-4.19445z" data-paper-data="{&quot;index&quot;:null}" fill="#ffc380"/><path d="M237.88408,199.31537c1.05654,0 0.95652,-2.90146 0.95652,-1.76087c0,0.49435 0.39904,1.60656 0.27281,2.4583c-0.16502,1.11345 -0.80168,2.10982 -1.05542,2.08518c-0.16318,-0.01584 -1.04196,-0.88555 -1.22293,-2.00612c-0.1694,-1.04889 0.83163,-2.29026 0.83163,-2.84171c0,-1.14059 -0.83915,2.06522 0.21739,2.06522z" data-paper-data="{&quot;index&quot;:null}" fill="#ff0000"/></g><g stroke="#000000" stroke-width="0.3"><path d="M242.62062,187.82408c0,4.00274 -0.09785,1.87371 0.04491,3.99931c2.4074,1.22061 2.51141,1.05366 2.4806,1.45376c-0.0299,0.38825 -3.03406,0.10033 -3.32773,0.10033c-0.28948,0 -1.72774,0.11433 -1.00682,-1.55938c0.12329,-0.888 -0.08164,-0.13291 0.12888,-6.13572c0.07817,-2.22901 -2.35256,-1.89677 -1.26923,-1.89677c1.08333,0 2.94939,1.80809 2.94939,4.03847z" fill="#ffc380" stroke-linecap="butt"/><path d="M242.9583,192.36055c0,0 0.47341,0.10948 0.64189,0.2489c0.18751,0.15518 0.43218,0.63999 0.43218,0.63999" fill="none" stroke-linecap="round"/></g><g stroke="#000000" stroke-width="0.3" stroke-linecap="butt"><path d="M242.11831,194.31432c0,1.03968 0.27545,1.99212 0.36374,2.66074c0.09802,0.74222 0.59348,2.10332 -0.64514,2.05786c-1.18467,-0.04348 -0.38418,-1.39273 -0.68205,-2.11184c-0.57423,-1.38627 -1.20322,-3.66227 -1.20322,-5.10675c0,-0.85897 0.315,-1.34358 0.49329,-1.5477c0.27706,-0.3172 0.04196,-0.07813 0.70115,-0.14675c0.53367,-0.05555 0.97222,2.00064 0.97222,4.19445z" fill="#ffc380"/><path d="M242.66938,197.42407c0,0.55145 0.52276,1.83629 0.35336,2.88518c-0.18097,1.12058 -1.05974,1.99029 -1.22293,2.00612c-0.25375,0.02463 -0.89041,-0.97173 -1.05542,-2.08518c-0.12623,-0.85174 0.35977,-2.09438 0.35977,-2.58873c0,-1.14059 -0.31742,1.58696 0.73913,1.58696c1.05654,0 0.82609,-2.94494 0.82609,-1.80435z" fill="#ff0000"/></g><g><path d="M240.92857,185.44045c0,0 0.6731,0.48075 0.55151,0.9829c-0.03638,0.15025 -0.59632,1.55301 -0.52872,2.30742c0.08252,0.92083 1.19382,3.14583 1.10407,3.22708c-0.1792,0.16224 -1.92168,-0.10371 -2.1834,-0.10371c-0.24097,0 -2.18049,0.00152 -2.29265,-0.16619c-0.07292,-0.10904 0.79014,-2.20706 0.73197,-2.83948c-0.05514,-0.5994 -0.85897,-2.88645 -0.85897,-3.26515c0,-0.53575 0.30342,-1.35622 0.64329,-1.71824c0.36919,-0.39326 0.27474,0.12301 0.85671,0.12301c0.55886,0 0.541,-0.39252 0.90724,-0.02629c0.36623,0.36623 1.06895,1.47867 1.06895,1.47867z" fill="#ff0000" stroke="#000000" stroke-width="0.3" stroke-linecap="butt"/><path d="M239.21428,186.29757c0,0.3055 -0.1501,0.53214 -0.25425,0.71972c-0.08861,0.1596 -0.1045,0.30409 -0.38861,0.30409c-0.61803,0 -0.29527,0.5606 -0.45123,0.01786c-0.16868,-0.58695 -0.39973,-1.26602 -0.39973,-1.26602c0,0 0.35104,-0.20959 0.53928,-0.24098c0.50753,-0.08462 0.95454,0.05288 0.95454,0.46534z" fill="#bf0000" stroke="none" stroke-width="0" stroke-linecap="butt"/><path d="M241.30953,186.30937c0,0.27484 -0.00545,0.46305 -0.15936,0.65784c-0.19217,0.24323 -0.66222,0.31835 -0.9835,0.31835c-0.57858,0 -1.2381,0.49899 -1.2381,-0.11905c0,-0.26896 0.5174,-0.73978 0.66543,-1.02445c0.19212,-0.36947 0.29349,-0.57079 0.62028,-0.57079c0.57858,0 1.09524,0.12006 1.09524,0.7381z" fill="#bf0000" stroke="none" stroke-width="0" stroke-linecap="butt"/><path d="M239.30952,186.22616c0,0 -0.0056,0.3899 -0.12574,0.58213c-0.11791,0.18866 -0.58855,0.56073 -0.58855,0.56073" fill="none" stroke="#000000" stroke-width="0.3" stroke-linecap="round"/></g><g stroke="#000000"><path d="M237.45199,185.99127c-1.52174,2.11658 0.06795,-0.04343 -1.45652,2.15217c-0.98333,1.18876 -0.52464,0.71751 -1.03018,1.17754c-0.07948,0.07232 -0.03956,0.04511 3.13017,0.64553c0.10216,-0.22282 1.36236,-0.27175 1.73854,-0.10629c0.34486,0.15168 -0.32242,0.82257 -0.33572,0.89988c-0.06024,0.35 -1.59965,0.35017 -1.65825,0.3576c-0.16088,0.0204 -1.48227,0.1358 -2.39327,-0.27623c-0.86645,-0.39188 -1.32849,-1.31065 -1.32876,-1.3506c-0.00202,-0.30093 1.85573,-3.04686 1.85573,-3.63005c0,-1.11658 1.23551,-1.97826 1.84783,-1.97826c0.61231,0 0.28224,1.20211 -0.36956,2.1087z" fill="#ffc380" stroke-width="0.3" stroke-linecap="butt"/><path d="M238.53895,190.61972l0.91304,0.08696" fill="none" stroke-width="0.1" stroke-linecap="round"/><path d="M238.66938,190.0545l1,0.17391" fill="none" stroke-width="0.1" stroke-linecap="round"/></g></g></g></svg>