<svg version="1.1" xmlns="http://www.w3.org/2000/svg" xmlns:xlink="http://www.w3.org/1999/xlink" width="6.67425" height="19.76165" viewBox="0,0,6.67425,19.76165"><g transform="translate(-236.65943,-170.11917)"><g data-paper-data="{&quot;isPaintingLayer&quot;:true}" fill="none" fill-rule="nonzero" stroke="#ff0000" stroke-width="0.5" stroke-linecap="round" stroke-linejoin="miter" stroke-miterlimit="10" stroke-dasharray="" stroke-dashoffset="0" style="mix-blend-mode: normal"><path d="M236.90943,170.36917c0,0 2.89922,6.98058 3.05119,10.11609c0.14839,3.06172 -2.14986,8.48089 -2.14986,8.48089"/><path d="M238.00552,170.56117c0,0 2.89922,6.98058 3.05119,10.11609c0.14839,3.06172 -2.14986,8.48089 -2.14986,8.48089"/><path d="M238.9364,170.84184c0,0 2.89922,6.98058 3.05119,10.11609c0.14839,3.06172 -2.14986,8.48089 -2.14986,8.48089"/><path d="M240.03249,171.03384c0,0 2.89922,6.98058 3.05119,10.11609c0.14839,3.06172 -2.14986,8.48089 -2.14986,8.48089"/></g></g></svg>