<svg version="1.1" xmlns="http://www.w3.org/2000/svg" xmlns:xlink="http://www.w3.org/1999/xlink" width="22.29102" height="37.9819" viewBox="0,0,22.29102,37.9819"><g transform="translate(-227.38358,-165.98545)"><g data-paper-data="{&quot;isPaintingLayer&quot;:true}" fill-rule="nonzero" stroke-linejoin="miter" stroke-miterlimit="10" stroke-dasharray="" stroke-dashoffset="0" style="mix-blend-mode: normal"><g stroke="#000000" stroke-width="0.3" stroke-linecap="butt"><g fill="#404040"><path d="M242.0431,175.50629c0,0 -0.05089,-1.82208 -0.40399,-1.83129c-0.39841,-0.0104 -1.2719,-0.03316 -1.2719,-0.03316l-0.00401,-1.20217l2.27119,0.12603l0.20342,2.66961z"/><path d="M240.4469,177.51524l-3.80683,0.01268l-0.0269,-8.08117l3.80683,-0.01268z"/><path d="M244.17914,177.39116l-3.59906,0.01198l-0.00452,-1.35768c0,0 2.13238,-0.85853 3.25933,-1.74732c0.67309,-0.53085 0.34422,3.093 0.34422,3.093z"/><path d="M239.97628,176.58177l-1.0018,0.00334l-0.02001,-6.01079l1.0018,-0.00334z"/><path d="M237.89714,176.6645l-0.5343,0.00178l-0.02001,-6.01079l0.5343,-0.00178z"/><path d="M236.55053,170.69451c-0.00205,-0.61524 0.51955,-1.11573 1.16506,-1.11787c0.64549,-0.00215 1.17043,0.49486 1.17248,1.1101c0.00205,0.61523 -0.51956,1.11572 -1.16506,1.11786c-0.64549,0.00215 -1.17042,-0.49485 -1.17247,-1.11008z"/><path d="M239.15039,169.23518l-1.93681,0.00645l-0.00478,-1.43591l1.93681,-0.00645z"/><path d="M239.20307,167.70791l-2.00358,0.00667l-0.53952,-1.5677l3.20576,-0.01068z"/></g><path d="M244.2347,177.63752c-0.03773,0.50967 -3.54471,1.19982 -3.66438,0.2379c-0.13715,-1.10242 -0.22935,-1.17364 -0.24032,-1.55442c-0.01213,-0.42112 0.09076,-0.9483 0.12144,-1.83762c0.00709,-0.20538 0.70959,-0.45391 1.07855,-0.01128c0.15558,0.18664 0.15032,0.82165 0.17255,1.10903c0.02809,0.36312 -0.21481,-0.80743 0.36284,-1.20458c0.25206,-0.17331 0.72743,0.20137 0.76481,1.32788c0.01578,0.47497 0.11113,-0.59012 0.09395,-1.2284c-0.01548,-0.57533 1.30267,-0.18344 1.30526,-0.14471c0.06193,0.92567 0.06478,0.68809 0.08928,1.53852c0.0245,0.85041 -0.00083,0.64447 -0.08396,1.76766z" data-paper-data="{&quot;index&quot;:null}" fill="#ffc380"/></g><path d="M240.30408,184.46917l1.81806,-7.02626l0.82527,1.24143l-1.61174,7.33662z" data-paper-data="{&quot;index&quot;:null}" fill="#418040" stroke="#000000" stroke-width="0.3" stroke-linecap="butt"/><path d="M242.42516,188.99092c-0.42094,0 -0.63372,-1.84179 -1.68238,-1.77925c-1.73933,0.10373 -4.90256,2.49093 -4.90256,1.8925c0,-0.44139 1.71494,-2.05424 1.71494,-2.05424c0,0 -0.73813,-3.251 -0.13399,-3.251c1.11911,0 3.02632,-0.32765 3.02632,0.63158c0,0.3803 2.65309,4.56041 1.97767,4.56041z" data-paper-data="{&quot;index&quot;:null}" fill="#61bf60" stroke="#000000" stroke-width="0.3" stroke-linecap="butt"/><path d="M234.95005,192.14879l-0.8,-1.5l2,-1.5c0,0 3.56465,-1.7667 4.59758,-1.75004c1.03374,0.01667 1.60242,1.85004 1.60242,1.85004l1.84854,1.77826l-0.99525,0.12706l1.24671,1.49468l-4.60289,1.91523l1.31185,-2.70092l-1.04022,-1.75587l0.83455,1.8517l-1.21243,2.2179l-3.09831,-2.19979c0,0 -2.23653,1.73104 -2.89375,1.69193c-1.30676,-0.07779 1.2012,-1.52017 1.2012,-1.52017z" fill="#e4af72" stroke="#000000" stroke-width="0.3" stroke-linecap="butt"/><g><path d="M243.86715,182.72419c0,0.70168 -1.70646,1.27051 -3.8115,1.27051c-2.10504,0 -3.81151,-0.56883 -3.81151,-1.27051c0,-0.40408 -0.81006,-3.39093 0.47769,-4.57026c0.94842,-0.86857 4.22658,-0.27139 5.11939,-0.27139c0.63107,0 -0.76529,4.17168 -0.2411,4.26217c1.22433,0.21138 2.26704,0.08815 2.26704,0.57947z" data-paper-data="{&quot;index&quot;:null}" fill="#ffc380" stroke="#000000" stroke-width="0.3" stroke-linecap="butt"/><path d="M241.92123,177.53578c0,1.13364 -1.69747,0.15789 -2.94738,0.15789c-1.24991,0 -3,2.5547 -3,1.42105c0,-0.04823 -1.39804,-0.23222 -1.93388,-0.94448c-0.50054,-0.66535 -0.14143,-1.852 -0.13732,-2.16033c0.00765,-0.57354 2.10682,0.60836 2.05611,0.10106c-0.1282,-1.2824 -0.4281,-1.92813 0.02891,-2.34969c0.49839,-0.45972 2.63987,2.53409 2.99915,2.09082c0.79875,-0.98547 0.47333,-1.79001 1.03966,-1.79001c1.24991,0 1.89474,2.34004 1.89474,3.47368z" data-paper-data="{&quot;index&quot;:null}" fill="#ff7c00" stroke="#000000" stroke-width="0.3" stroke-linecap="butt"/><path d="M234.57432,182.359l-0.13334,-4.16666l1.56667,1.33334l-0.1,1.9z" data-paper-data="{&quot;index&quot;:null}" fill="#ffc380" stroke="#000000" stroke-width="0.3" stroke-linecap="butt"/><path d="M235.07129,182.059l-0.02044,-2.32198l0.89013,0.73771l-0.03199,0.74122z" data-paper-data="{&quot;index&quot;:null}" fill="#bf9360" stroke="#000000" stroke-width="0.2" stroke-linecap="butt"/><path d="M234.50015,177.69367c0,1.1627 2.97574,1.42105 1.8421,1.42105c-1.13363,0 -2.36842,-0.62677 -2.36842,-1.78947c0,-1.1627 -0.10174,-1.6927 0.94737,-1.26316c1.02838,0.42105 -0.42105,0.46887 -0.42105,1.63158z" data-paper-data="{&quot;index&quot;:null}" fill="#bf5c00" stroke="none" stroke-width="0" stroke-linecap="butt"/><path d="M236.60544,175.19367c0,1.14817 -0.68935,0.57035 -0.28947,1.18421c0.08355,0.12827 -0.23685,0.38501 -0.23685,-0.76316c0,-1.14817 -0.52306,-1.18871 -0.18421,-1.71052c0.10374,-0.15975 0.71053,0.1413 0.71053,1.28947z" data-paper-data="{&quot;index&quot;:null}" fill="#bf5c00" stroke="none" stroke-width="0" stroke-linecap="butt"/><path d="M240.05279,174.79894c-0.73758,1.0626 -0.81579,2.30882 -0.81579,1.13157c0,-1.17724 0.111,-0.26637 0.5,-1.5c0.08299,-0.26316 1.08298,-0.73684 0.31579,0.36843z" data-paper-data="{&quot;index&quot;:null}" fill="#bf5c00" stroke="none" stroke-width="0" stroke-linecap="butt"/><path d="M241.02647,176.58841c0,0.61669 -0.66079,0.78263 -1.25861,0.66172c-0.50112,-0.10135 -0.8954,-0.45119 -1.4256,-0.45119c-1.1627,0 -1.89474,1.92311 -1.89474,0.78947c0,-1.13363 0.6794,-1.10526 1.84211,-1.10526c0.43324,0 0.76572,0.3309 1.21049,0.21039c0.74886,-0.2029 1.52635,-0.81635 1.52635,-0.10513z" data-paper-data="{&quot;index&quot;:null}" fill="#ff9c40" stroke="none" stroke-width="0" stroke-linecap="butt"/><path d="M240.55276,180.00001c0,0.62495 -0.24742,1.13158 -0.55263,1.13158c-0.30521,0 -0.65789,-1.07895 -0.65789,-1.07895l0.65789,-1.18421c0,0 0.55263,0.50663 0.55263,1.13158z" data-paper-data="{&quot;index&quot;:null}" fill="#ffffff" stroke="#000000" stroke-width="0.3" stroke-linecap="butt"/><path d="M239.34228,179.85156c0,0 0.57583,-1.08467 0.90603,-1.29833c0.20991,-0.13582 0.88344,0.14044 0.88344,0.14044" data-paper-data="{&quot;index&quot;:null}" fill="none" stroke="#000000" stroke-width="0.3" stroke-linecap="round"/><path d="M238.71069,180.03577c0,0 -0.24742,1.44737 -0.55263,1.44737c-0.30521,0 -0.55263,-0.64801 -0.55263,-1.44737c0,-0.79936 0.55263,-1.44737 0.55263,-1.44737z" data-paper-data="{&quot;index&quot;:null}" fill="#ffffff" stroke="#000000" stroke-width="0.3" stroke-linecap="butt"/><path d="M236.07911,177.64104c0,0 1.10758,-0.25389 1.53651,0.1503c0.47802,0.45044 1.20033,2.42865 1.20033,2.42865" data-paper-data="{&quot;index&quot;:null}" fill="none" stroke="#000000" stroke-width="0.3" stroke-linecap="round"/><path d="M237.71067,182.16735c0,0 0.72006,0.39895 1.30192,0.57275c0.73356,0.21911 2.75071,0.63777 2.75071,0.63777c0,0 -0.51341,-0.26967 -1.47183,-0.34076c-0.51071,-0.03788 -1.41158,0.20675 -1.84396,0.0776c-1.2438,-0.37152 -0.73684,-0.94737 -0.73684,-0.94737z" data-paper-data="{&quot;index&quot;:null}" fill="#ffffff" stroke="#000000" stroke-width="0.3" stroke-linecap="round"/></g><g stroke-linecap="butt"><path d="M241.52458,193.58051l2.62086,-0.78901l1.1212,0.76001c0,0 2.7591,1.68093 2.8369,1.73954c0.22699,0.17101 1.74974,1.65521 1.01809,2.50892c-0.7092,0.8275 -2.02911,0.72793 -3.07072,0.72793c-1.01775,0 -3.89861,0.68292 -5.07322,-0.23686c-1.40855,-1.10297 -1.03204,-3.84209 -1.03204,-3.84209z" fill="#ff0000" stroke="#000000" stroke-width="0.3"/><path d="M245.78776,198.63314c-1.45338,0 -5.94737,-1.50345 -5.94737,-2.57895c0,-1.0755 0.1782,-2.31579 1.63158,-2.31579c0.54263,0 0.92792,0.56938 1.65946,0.94318c1.22782,0.62738 2.76159,1.2776 2.76159,1.95156c0,1.0755 1.34812,2 -0.10526,2z" fill="#bf0000" stroke="none" stroke-width="0"/><path d="M247.93916,195.26474c0.37082,0 -0.96643,-0.08729 -0.96643,0.97368c0,1.06097 0.27834,1.71053 -0.09249,1.71053c-0.37083,0 -1.03986,-1.01798 -1.03986,-2.07895c0,-1.06096 1.72795,-0.60526 2.09878,-0.60526z" fill="#ff7b00" stroke="#000000" stroke-width="0.3"/><path d="M243.70881,194.54895c0,-1.06097 1.72796,-0.60527 2.09878,-0.60527c0.37082,0 -0.96643,-0.08728 -0.96643,0.97369c0,1.06097 0.27833,1.71052 -0.09249,1.71052c-0.37082,0 -1.03986,-1.01798 -1.03986,-2.07895z" fill="#ff7b00" stroke="#000000" stroke-width="0.3"/><path d="M249.52459,197.60685c0,0.39241 -0.16486,2.24292 -4.18421,2.23684c-3.95967,-0.00599 -5.56866,-2.68687 -5.55263,-3.07895c0.05263,-1.28715 1.69705,1.68649 5.39474,1.81579c4.11793,0.144 4.34211,-1.3661 4.34211,-0.97369z" fill="#fffdc0" stroke="#000000" stroke-width="0.3"/><path d="M241.80002,194.40777c0.63513,0 1.15,0.50167 1.15,1.12051c0,0.61884 -0.51487,1.12051 -1.15,1.12051c-0.63513,0 -1.15,-0.50167 -1.15,-1.12051c0,-0.61884 0.51487,-1.12051 1.15,-1.12051z" fill="#ff7b00" stroke="#000000" stroke-width="0.3"/></g><g stroke-linecap="butt"><path d="M240.02567,198.19949c0,0 1.55876,1.41997 1.00195,1.82209c-0.74138,0.53541 -0.2471,2.27308 -4.87032,2.2478c-2.98696,-0.01633 -2.08064,-4.82452 -2.10012,-6.50325c-0.02039,-1.75729 0.00949,-2.26458 0.00949,-2.26458l2.4564,-1.30437l2.50676,1.62017c0,0 0.15634,0.80898 0.01011,1.543c-0.0461,0.23141 0.98573,2.83914 0.98573,2.83914z" fill="#ff0000" stroke="#000000" stroke-width="0.3"/><path d="M240.95617,199.86997c-0.50944,0.79945 -0.5184,1.27724 -1.49874,1.74232c-0.53888,0.25565 -1.25618,0.56993 -2.92231,0.57346c-1.18079,0.00251 -1.13129,-0.09789 -1.45858,-0.28902c-0.57083,-0.33336 -0.89066,-0.94273 -0.85721,-1.76361c-0.02804,-1.60409 1.71398,-1.52632 2.78948,-1.52632c1.0755,0 4.55658,0.30713 3.94736,1.26316z" fill="#bf0000" stroke="none" stroke-width="0"/><path d="M236.80352,197.17025c-1.13363,0 -1.89473,0.4588 -1.89473,-0.07895c0,-0.53775 0.81373,-0.71052 1.94736,-0.71052c1.13363,0 2,0.33067 2,0.86841c0,0.53775 -0.919,-0.07895 -2.05263,-0.07895z" data-paper-data="{&quot;index&quot;:null}" fill="#ff7b00" stroke="#000000" stroke-width="0.3"/><path d="M236.75091,195.32813c-1.13363,0 -1.89473,0.45881 -1.89473,-0.07894c0,-0.53775 0.81373,-0.71053 1.94736,-0.71053c1.13363,0 2,0.33067 2,0.86841c0,0.53775 -0.919,-0.07895 -2.05263,-0.07895z" data-paper-data="{&quot;index&quot;:null}" fill="#ff7c00" stroke="#000000" stroke-width="0.3"/><path d="M241.27197,199.73839c0,0.39241 -0.32275,4.08503 -4.34211,4.07895c-3.95967,-0.00599 -3.14761,-3.31844 -3.13158,-3.71053c0.05263,-1.28715 -0.724,2.10754 2.97369,2.23684c4.11793,0.144 4.5,-2.99768 4.5,-2.60527z" fill="#fffdc0" stroke="#000000" stroke-width="0.3"/><path d="M237.06144,203.50155c0,0.21293 -0.83102,0.26316 -1.76316,-0.15789c-0.54611,-0.24668 -0.76031,-0.33884 -0.93729,-0.5632c-0.14494,-0.18375 -0.40482,-0.38557 -0.40482,-0.64733c0,-0.58135 -0.0604,-2.30041 -0.07895,-1.21053c-0.00791,0.46517 0.24997,1.33086 1.10584,1.83333c0.79035,0.464 2.07837,0.46652 2.07837,0.74562z" fill="#bfbfbf" stroke="none" stroke-width="0"/></g><path d="M236.69489,184.02659l1.81806,-7.02626l0.82527,1.24143l-1.61174,7.33662z" data-paper-data="{&quot;index&quot;:null}" fill="#418040" stroke="#000000" stroke-width="0.3" stroke-linecap="butt"/><g stroke="#000000" stroke-width="0.3" stroke-linecap="butt"><g fill="#404040"><path d="M237.45369,175.70702c0,0 -1.09787,-1.45507 -1.39091,-1.25786c-0.33064,0.22252 -1.05553,0.71041 -1.05553,0.71041l-0.70026,-0.97717l1.92357,-1.21411l1.71353,2.05718z"/><path d="M237.3179,178.2693l-3.09435,2.21746l-4.70723,-6.56872l3.09435,-2.21746z"/><path d="M240.28689,176.00432l-2.92547,2.09643l-0.79084,-1.10358c0,0 1.23964,-1.93582 1.64255,-3.31337c0.24064,-0.82277 2.07372,2.32052 2.07372,2.32052z"/><path d="M236.39325,177.78159l-0.8143,0.58355l-3.50125,-4.88582l0.8143,-0.58355z"/><path d="M234.74719,179.05444l-0.4343,0.31123l-3.50125,-4.88582l0.4343,-0.31123z"/><path d="M230.18872,174.971c-0.35838,-0.50009 -0.22356,-1.21029 0.30114,-1.58629c0.52468,-0.37599 1.24054,-0.2754 1.59892,0.2247c0.35837,0.50008 0.22355,1.21029 -0.30114,1.58628c-0.52468,0.37599 -1.24053,0.2754 -1.5989,-0.22469z"/><path d="M231.46092,172.27463l-1.57432,1.12818l-0.83641,-1.16717l1.57432,-1.12818z"/><path d="M230.61836,170.99971l-1.62859,1.16707l-1.34851,-0.96451l2.60577,-1.86734z"/></g><path d="M240.47499,176.17283c0.26476,0.43714 -2.1925,3.03274 -2.8477,2.31837c-0.75091,-0.8187 -0.86732,-0.82328 -1.09703,-1.12716c-0.25404,-0.33608 -0.47586,-0.82527 -0.96647,-1.56765c-0.1133,-0.17145 0.31499,-0.78124 0.87223,-0.63451c0.23497,0.06187 0.59885,0.5823 0.78358,0.80357c0.23342,0.27957 -0.64315,-0.53333 -0.40276,-1.19183c0.10489,-0.28735 0.70944,-0.25768 1.39303,0.6385c0.28824,0.37784 -0.2516,-0.54524 -0.63566,-1.05534c-0.34618,-0.45979 0.95502,-0.90473 0.97959,-0.87467c0.58715,0.7183 0.45172,0.52308 0.96475,1.20178c0.51301,0.67869 0.37298,0.52558 0.95645,1.48892z" data-paper-data="{&quot;index&quot;:null}" fill="#ffc380"/></g></g></g></svg>