<svg version="1.1" xmlns="http://www.w3.org/2000/svg" xmlns:xlink="http://www.w3.org/1999/xlink" width="20.4323" height="42.0165" viewBox="0,0,20.4323,42.0165"><g transform="translate(-229.92834,-173.04904)"><g data-paper-data="{&quot;isPaintingLayer&quot;:true}" fill-rule="nonzero" stroke-linejoin="miter" stroke-miterlimit="10" stroke-dasharray="" stroke-dashoffset="0" style="mix-blend-mode: normal"><g><path d="M244.04163,202.17309c0,1.12581 -1.11815,3.5 -2.30769,3.5c-1.18953,0 -1.53846,-2.29727 -1.53846,-3.42308c0,-1.12581 0.42584,0.80769 1.61538,0.80769c1.18954,0 2.23077,-2.01043 2.23077,-0.88462z" fill="#e480ff" stroke="#000000" stroke-width="0.3" stroke-linecap="butt"/><path d="M241.81086,205.59616l0.07692,-2.53846" fill="none" stroke="#000000" stroke-width="1" stroke-linecap="round"/><path d="M244.04658,202.4627c-2.26469,6.76621 0.84341,11.353 0.84341,11.353l-2.10847,0.20542c0,0 -0.23771,-2.2737 -1.07546,-2.27146c-1.12816,0.00302 -1.69795,2.28996 -1.69795,2.28996l-0.15803,-3.29852c0,0 0.05579,-0.03572 0.96048,-0.94141c0.96165,-0.9627 -0.08292,-5.25736 -0.53321,-7.02931c-0.53886,-2.1205 0.65548,2.73077 1.65384,2.73077c0.99836,0 2.70188,-5.14628 2.11539,-3.03846z" fill="#252525" stroke="#000000" stroke-width="0.3" stroke-linecap="butt"/><path d="M242.81581,213.96269l-0.61538,-2.15385l0.15385,-0.07692l1.53846,2.30769z" fill="#000000" stroke="none" stroke-width="0" stroke-linecap="butt"/></g><path d="M250.21065,185.89687c0,1.39884 -1.94861,1.02776 -2.37072,2.25391c-0.57743,1.67732 1.68032,5.44261 0.85036,6.9339c-0.51772,0.93026 -0.61391,-4.16053 -1.97222,-3.98859c-0.60142,0.07611 -1.07103,4.45085 -1.88169,5.39504c-1.39894,1.62937 -3.19609,0.17323 -3.98925,0.17323c-0.62798,0 -2.93285,0.7127 -4.07746,-0.63912c-1.05843,-1.25002 -0.95513,-4.5678 -1.63862,-4.67458c-1.32041,-0.20629 -1.00354,4.49178 -1.55615,3.62058c-0.79255,-1.24946 0.93827,-4.68145 0.37359,-6.29952c-0.43235,-1.23886 -2.46491,-1.35826 -2.46491,-2.77485c0,-0.35669 -0.12991,-1.95266 0.27947,-2.9611c0.43836,-1.07983 1.41498,-1.56946 1.31786,-1.76219c-0.39073,-0.77531 -3.6087,1.67052 -2.90134,0.49633c1.69017,-2.8056 7.4748,-6.5405 10.66755,-6.5405c2.52206,0 3.79686,3.13885 5.48042,5.0035c0.18341,0.20314 0.65905,0.73513 1.02204,0.616c0.75095,-0.24646 1.53152,-1.41264 1.83212,-0.95679c0.22939,0.34787 -0.4963,1.68697 -1.27539,2.32828c-0.65343,0.53789 -1.36754,0.35991 -1.36225,0.88301c0.00641,0.63198 1.25007,-0.0011 2.03492,0.35693c1.01575,0.46336 1.63165,1.88242 1.63165,2.53656z" fill="#800000" stroke="#000000" stroke-width="0.3" stroke-linecap="butt"/><g stroke="#000000" stroke-width="0.3"><path d="M238.64864,195.76874c0,0 0.76838,-2.17233 0.76087,-3.24569c-0.00623,-0.8903 -0.8028,-2.74857 -0.8028,-2.74857l-0.0295,-4.21708h2.45l-0.07143,4.52335c0,0 2.6647,0.17268 2.60476,2.95208c-0.10106,1.0159 -2.37914,2.94682 -2.37914,2.94682l-0.04866,2.8146c0,0 1.41422,0.53776 1.87956,0.91486c0.5737,0.46493 1.30613,1.66687 1.30613,1.66687c0,0 -0.94905,1.91329 -2.13708,1.96655c-0.8123,0.0364 -1.58748,-1.78926 -2.15406,-1.76388c-0.54242,0.02432 2.02777,3.36399 -2.00052,3.37539c-1.86273,0.00527 -1.5869,-3.22495 -1.5869,-3.22495c0,0 2.16289,-1.82817 2.33678,-2.82945c0.14788,-0.85151 -0.12801,-3.13093 -0.12801,-3.13093z" fill="#ff0000" stroke-linecap="butt"/><path d="M240.72104,189.96569l0.14285,-4.33703c0,0 1.25803,0.21835 2.1,1.21152c0.84197,0.99316 0.72857,3.32911 0.72857,3.32911c0,0 0.68238,1.86931 0.70233,2.76157c0.02021,0.90373 -0.58185,2.62685 -0.58185,2.62685l0.54841,5.80696c0,0 -0.26821,-0.57353 -1.53569,-1.47174c-2.02916,-1.43797 -1.95656,-1.15664 -1.95656,-1.15664l0.01242,-2.95189c0,0 2.15729,-0.0301 2.4156,-3.0598c0.11684,-2.57236 -2.5761,-2.75891 -2.5761,-2.75891z" fill="#404040" stroke-linecap="butt"/><path d="M235.86883,189.7055c0,0 -0.32769,-2.03052 0.51429,-3.02369c0.84197,-0.99317 2.1,-1.21152 2.1,-1.21152l0.07143,4.23521c0,0 0.72562,1.96575 0.73176,2.91918c0.00682,1.06078 -0.69266,3.15786 -0.69266,3.15786c0,0 0.22785,2.33456 0.0324,3.2908c-0.19772,0.96735 -1.21199,2.48031 -1.21199,2.48031l-1.04837,0.06337c0,0 -0.18078,-2.37782 0.04813,-3.14753c0.19795,-0.6656 1.246,-1.20396 1.246,-1.20396l-0.39488,-4.38349z" data-paper-data="{&quot;index&quot;:null}" fill="#404040" stroke-linecap="butt"/><path d="M244.31224,193.3386c0,0 0.13097,2.38061 -1.78063,2.09303c-0.55343,-0.08326 -1.7908,-1.99121 -1.7908,-1.99121" fill="none" stroke-linecap="round"/><path d="M240.24081,191.50606c0,0 0.31743,1.05408 -0.8705,2.10413c-1.50333,1.32885 -1.84379,-0.78063 -1.84379,-0.78063" fill="none" stroke-linecap="round"/></g><g stroke="#000000"><path d="M240.19547,203.78848c0,1.04084 -1.22952,2.03846 -2.46154,2.03846c-1.23202,0 -1.46154,-1.61301 -1.46154,-2.65385c0,-1.04085 0.22952,1.03846 1.46154,1.03846c1.23202,0 2.46154,-1.46392 2.46154,-0.42308z" fill="#e480ff" stroke-width="0.3" stroke-linecap="butt"/><path d="M237.73393,204.36539v1.23077" fill="none" stroke-width="1" stroke-linecap="round"/><path d="M237.68519,206.4827c0.99836,0 2.80809,-4.00512 2.26923,-1.88462c-0.45029,1.77194 -2.8035,6.81687 -2.8035,6.81687l-0.85034,2.76005c0,0 -0.33902,-1.51771 -1.46718,-1.52073c-0.83775,-0.00224 -1.30623,1.50223 -1.30623,1.50223l-2.10847,-0.20542c0,0 6.56964,-2.97141 4.30495,-9.73762c-0.58649,-2.10782 0.96318,2.26923 1.96154,2.26923z" data-paper-data="{&quot;index&quot;:null}" fill="#252525" stroke-width="0.3" stroke-linecap="butt"/></g><path d="M238.62501,185.45918l-0.1,-1.32381c0,0 0.70379,0.16122 1.25476,0.17143c0.55097,0.01021 1.63571,-0.3119 1.63571,-0.3119l-0.29047,1.36428z" fill="#e480ff" stroke="#000000" stroke-width="0.3" stroke-linecap="butt"/><path d="M241.11365,185.06722c0.11495,0.77023 -0.62039,1.32361 -1.40909,1.27273c-0.7887,-0.05089 -1.56638,-0.64779 -1.40909,-1.45455" fill="none" stroke="#fff700" stroke-width="0.3" stroke-linecap="round"/><path d="M241.16938,175.64323c0,0 -0.14234,-1.50481 0.03403,-1.99467c0.06475,-0.17986 0.59251,-0.52479 1.078,-0.43482c0.68461,0.12687 1.37804,0.75359 1.37804,0.75359c0,0 1.81074,-0.16667 1.79353,0.03784c-0.00475,0.05645 1.00876,1.09042 1.00876,1.09042l-0.12936,1.40578c0,0 -0.5853,-1.38667 -1.18832,-1.60766c-0.49777,-0.18243 -1.58179,0.22817 -1.58179,0.22817c0,0 -1.27681,-1.48956 -1.52498,-1.23561c-0.23858,0.24412 0.23967,2.03875 0.23967,2.03875z" fill="#800000" stroke="#000000" stroke-width="0.3" stroke-linecap="butt"/><g><path d="M233.55076,186.45166l3.11855,0.81479l1.24061,2.0161l-1.50829,5.77005c0,0 -1.21232,3.64052 -2.39781,3.65764c-1.08312,-0.05745 -0.75828,0.15448 -1.31252,-0.79834c-1.47168,-2.53004 -1.06511,-1.58767 -1.06511,-1.58767l3.54076,-3.08627z" fill="#404040" stroke="#000000" stroke-width="0.3" stroke-linecap="butt"/><path d="M235.34009,197.61218c0,0.52634 -0.2631,2.05266 -1.46215,2.05266c-1.19905,0 -1.28492,-1.453 -1.28492,-1.97934c0,-0.52634 0.08587,0.95302 1.28492,0.95302c1.19905,0 1.46215,-1.55267 1.46215,-1.02633z" fill="#fff700" stroke="#000000" stroke-width="0.3" stroke-linecap="butt"/><path d="M235.28902,198.37633c0,0.52634 -0.2631,2.05266 -1.46215,2.05266c-1.19905,0 -1.28492,-1.45301 -1.28492,-1.97935c0,-0.52634 0.08587,0.95301 1.28492,0.95301c1.19905,0 1.46215,-1.55267 1.46215,-1.02632z" fill="#fff700" stroke="#000000" stroke-width="0.3" stroke-linecap="butt"/><path d="M235.07424,202.89045l-0.9587,-0.78361l1.2031,-1.03516l-1.27596,0.95332l-1.12236,-0.51023l-1.08575,-1.12177l0.75844,-1.02139c0,0 0.51759,0.95302 1.152,0.95302c0.66394,0 1.41784,-1.02632 1.41784,-1.02632l0.62031,0.95302l1.63573,-0.23404l0.08859,1.31904z" fill="#e480ff" stroke="#000000" stroke-width="0.3" stroke-linecap="butt"/><path d="M231.70686,200.178c0,0 -0.83985,-0.69081 -0.17723,-1.39288c0.52802,-0.55946 1.26782,0.3703 1.26782,0.3703z" fill="#808080" stroke="#000000" stroke-width="0.3" stroke-linecap="butt"/><g><path d="M236.97412,201.48047l0.3889,0.32903l-1.42412,1.15805l-0.3889,-0.32903z" fill="#808080" stroke="#000000" stroke-width="0.1" stroke-linecap="butt"/><path d="M237.7353,201.49669l0.27361,0.25172l-1.88283,1.59387l-0.27361,-0.25171z" fill="#bfbfbf" stroke="#000000" stroke-width="0.1" stroke-linecap="butt"/><path d="M237.4228,204.82362c-0.72096,-0.2268 -2.03708,-1.01585 -1.32841,-1.52157c0.66846,-0.47702 1.20957,-0.94388 1.90555,-1.47542c0.56675,-0.43284 1.68269,1.21522 1.40853,1.81165c-0.27416,0.59643 -1.26472,1.41214 -1.98568,1.18534z" fill="#808080" stroke="#000000" stroke-width="0.1" stroke-linecap="butt"/><path d="M237.7731,202.72649c-0.78533,-0.24705 -2.38486,1.18303 -1.74077,0.71055c0.60805,-0.44603 1.1951,-1.01465 1.93774,-1.48736c0.6659,-0.42387 1.38522,0.81423 1.42494,1.48571c0.04868,0.82286 -0.83659,-0.46185 -1.62192,-0.7089z" fill="#404040" stroke="none" stroke-width="0" stroke-linecap="butt"/><path d="M238.93467,202.45809c0,0 -0.81275,0.81617 -1.24911,1.13597c-0.3929,0.28797 -1.25234,0.69734 -1.25234,0.69734" data-paper-data="{&quot;index&quot;:null}" fill="none" stroke="#000000" stroke-width="0.1" stroke-linecap="round"/><path d="M238.52886,201.99717c0,0 -0.81275,0.81619 -1.24909,1.13598c-0.3929,0.28797 -1.25236,0.69734 -1.25236,0.69734" data-paper-data="{&quot;index&quot;:null}" fill="none" stroke="#000000" stroke-width="0.1" stroke-linecap="round"/><path d="M239.35699,202.81146c0,0 -0.81275,0.81618 -1.2491,1.13598c-0.3929,0.28797 -1.25235,0.69733 -1.25235,0.69733" data-paper-data="{&quot;index&quot;:null}" fill="none" stroke="#000000" stroke-width="0.1" stroke-linecap="round"/><path d="M239.60302,203.25368c0,0 -0.69234,0.72794 -1.07308,1.00699c-0.34285,0.25127 -1.10965,0.59275 -1.10965,0.59275" data-paper-data="{&quot;index&quot;:null}" fill="none" stroke="#000000" stroke-width="0.1" stroke-linecap="round"/><path d="M237.80964,202.16933c0,0 0.77275,0.49423 1.05996,0.77236c0.25861,0.25044 0.58652,0.82209 0.58652,0.82209" data-paper-data="{&quot;index&quot;:null}" fill="none" stroke="#000000" stroke-width="0.1" stroke-linecap="round"/><path d="M237.25901,202.50995c0,0 0.77275,0.49424 1.05995,0.77236c0.25861,0.25044 0.58652,0.82208 0.58652,0.82208" data-paper-data="{&quot;index&quot;:null}" fill="none" stroke="#000000" stroke-width="0.1" stroke-linecap="round"/><path d="M237.83593,204.81087c0,0 -0.64645,-0.33819 -0.91579,-0.58077c-0.29913,-0.26938 -0.79903,-0.96357 -0.79903,-0.96357" data-paper-data="{&quot;index&quot;:null}" fill="none" stroke="#000000" stroke-width="0.1" stroke-linecap="round"/><path d="M238.31105,204.39974c0,0 -0.64644,-0.33819 -0.91578,-0.58077c-0.29913,-0.26938 -0.79905,-0.96358 -0.79905,-0.96358" data-paper-data="{&quot;index&quot;:null}" fill="none" stroke="#000000" stroke-width="0.1" stroke-linecap="round"/></g></g><path d="M238.1969,185.87497c0.63623,0 0.17723,0.34911 0.17723,1.10769c0,0.75858 -0.33854,1.90523 -0.97477,1.90523c-0.63623,0 -1.152,-0.70357 -1.152,-1.46215c0,-0.75859 1.31331,-1.55077 1.94954,-1.55077z" fill="#404040" stroke="none" stroke-width="0" stroke-linecap="butt"/><g><path d="M236.03207,181.41075l1.66831,-5.8161c0,0 0.40532,0.1328 0.64228,0.38325c0.1925,0.20346 0.63629,0.73404 0.63629,0.73404c0,0 0.14267,-0.42768 0.40832,-0.53514c0.27394,-0.11083 0.75187,0.02016 0.94499,0.06786c0.20754,0.05126 0.67476,0.24353 0.91716,0.47843c0.27492,0.26641 0.55562,0.67984 0.55562,0.67984c0,0 0.52469,-0.19504 0.77412,-0.24942c0.47767,-0.10413 0.97251,-0.11374 0.97251,-0.11374l-1.12538,3.73544l1.54163,2.70247c0,0 -2.79353,1.28417 -4.53458,0.8307c-1.74104,-0.45346 -3.40127,-2.89763 -3.40127,-2.89763z" fill="#e480ff" stroke="#000000" stroke-width="0.3" stroke-linecap="butt"/><path d="M239.71095,179.04734c0,0 -2.23012,0.76225 -1.92049,-0.36978c0.30963,-1.13203 0.60432,-1.83041 0.60432,-1.83041z" fill="#000000" stroke="none" stroke-width="0" stroke-linecap="butt"/><path d="M242.34952,177.92884c0,0 -0.10178,0.75115 -0.41141,1.88318c-0.30963,1.13203 -1.84134,-0.65915 -1.84134,-0.65915z" data-paper-data="{&quot;index&quot;:null}" fill="#000000" stroke="none" stroke-width="0" stroke-linecap="butt"/><path d="M238.32372,179.85054l-0.15299,-0.93752l-0.69598,-0.62886l0.96785,-0.06172l0.51209,-0.7825l0.03295,0.91738l0.59999,0.50475l-0.71332,0.11715z" fill="#ff0000" stroke="none" stroke-width="0" stroke-linecap="butt"/><path d="M241.00267,180.47961l-0.15299,-0.93752l-0.69598,-0.62886l0.96785,-0.06172l0.51209,-0.7825l0.03294,0.91738l0.59999,0.50475l-0.71332,0.11714z" fill="#ff0000" stroke="none" stroke-width="0" stroke-linecap="butt"/><path d="M242.2271,177.42883l-2.24616,1.19992l-1.15169,-2.23296" fill="none" stroke="#000000" stroke-width="0.2" stroke-linecap="round"/><path d="M240.59221,182.26899c-0.08742,0.31963 -0.29514,-0.70276 -0.8545,-0.85576c-0.55936,-0.153 -1.14433,0.3934 -1.05691,0.07377c0.08742,-0.31963 0.10349,-1.06026 0.66285,-0.90727c0.09835,0.0269 0.27684,0.36833 0.5061,0.41705c0.3051,0.06484 0.67627,-0.15543 0.83666,-0.06067c0.40453,0.239 -0.0426,1.14424 -0.0942,1.33287z" fill="#ff0000" stroke="#000000" stroke-width="0.2" stroke-linecap="butt"/><path d="M240.40136,182.39821c-0.13478,0.49276 -0.67375,0.61918 -1.19315,0.47712c-0.5194,-0.14207 -0.82254,-0.49882 -0.68776,-0.99158c0.13478,-0.49276 0.33985,0.22254 0.85925,0.36461c0.5194,0.14207 1.15644,-0.34291 1.02166,0.14985z" fill="#ff0000" stroke="#000000" stroke-width="0.2" stroke-linecap="butt"/><path d="M239.38196,182.14531c-0.50608,-0.13842 -0.68779,-0.32814 -0.6113,-0.60781c0.07649,-0.27967 0.32494,-0.14438 0.83102,-0.00597c0.50608,0.13842 0.7756,0.19664 0.6991,0.47631c-0.07649,0.27967 -0.41274,0.27588 -0.91882,0.13746z" fill="#ffffff" stroke="#000000" stroke-width="0.2" stroke-linecap="butt"/><path d="M238.08063,180.64897l0.51236,0.96953" fill="none" stroke="#000000" stroke-width="0.2" stroke-linecap="round"/><path d="M240.53079,182.30402l0.90357,-0.27122" fill="none" stroke="#000000" stroke-width="0.2" stroke-linecap="round"/><path d="M238.65885,181.30113c0,0 0.14697,-0.53308 0.43068,-0.6721c0.2837,-0.13902 0.59279,0.3596 0.59279,0.3596c0,0 0.29683,0.37909 0.12915,0.43028c-0.16768,0.0512 -1.15261,-0.11778 -1.15261,-0.11778z" fill="#000000" stroke="none" stroke-width="0" stroke-linecap="butt"/><path d="M239.26464,182.26693c0.13365,0.26582 0.10602,0.45024 -0.19177,0.55574c-0.29779,0.10549 -0.53498,-0.47129 -0.53498,-0.47129c0,0 -0.18848,-0.64033 -0.01604,-0.67193c0.17245,-0.03158 0.60914,0.32166 0.74279,0.58748z" fill="#000000" stroke="none" stroke-width="0" stroke-linecap="butt"/></g><g><path d="M233.79442,179.08636l0.77886,-3.31941l1.13106,1.71841l-0.62759,1.79614z" fill="#e480ff" stroke="#000000" stroke-width="0.3" stroke-linecap="butt"/><path d="M234.4031,179.00086l0.43018,-1.54921l0.64819,0.95729l-0.23809,0.70267z" fill="#ab60bf" stroke="#000000" stroke-width="0.2" stroke-linecap="butt"/><path d="M235.07461,179.46492c-0.10513,0.77163 0.08716,1.21243 -0.6558,0.94293c-0.74296,-0.26952 -0.15924,-0.82035 0.21748,-1.55088" fill="none" stroke="#fff700" stroke-width="0.3" stroke-linecap="round"/></g><g stroke="#000000" stroke-width="0.3" stroke-linecap="butt"><path d="M248.02179,200.71962c-0.34052,0.18265 -1.12929,0.69376 -1.44815,0.73226c-0.39535,0.04773 0.10479,-0.74573 -0.05658,-0.93307c-0.16604,-0.19276 -1.08687,-0.00628 -0.87004,-0.28682c0.16387,-0.21202 0.99073,-0.56186 1.31904,-0.73796c0.76271,-0.40911 1.61734,-0.46641 1.90888,-0.12796c0.29154,0.33844 -0.09043,0.94444 -0.85314,1.35355z" fill="#e480ff"/><path d="M248.07546,195.54121l-7.00305,-9.7749l2.68964,-1.5317l6.3589,11.2687l-1.50255,4.26995c0,0 0.46835,-2.30431 0.19487,-2.67671c-0.2294,-0.31241 -1.72686,0.59053 -1.72686,0.59053z" fill="#404040"/><path d="M248.66138,199.40008c-0.5656,1.02944 0.65266,-1.15987 -0.34384,-1.56762c-1.03848,-0.42493 -2.39324,1.18666 -1.66506,0.26504c0.86459,-1.09426 1.06013,-1.26437 2.04982,-0.84034c0.66737,0.28592 0.85594,0.51061 -0.04091,2.14292z" fill="#fff700"/><path d="M247.98337,198.52927c-1.03848,-0.42493 -2.39324,1.18666 -1.66506,0.26504c0.86459,-1.09426 1.06013,-1.26437 2.04982,-0.84034c0.66736,0.28592 0.85593,0.51062 -0.04092,2.14293c-0.56561,1.02944 0.65266,-1.15988 -0.34385,-1.56763z" fill="#fff700"/><path d="M247.53232,202.55514c-0.38816,0.08901 0.02585,-0.7526 -0.15431,-0.92195c-0.18538,-0.17425 -1.08151,0.10795 -0.89536,-0.19382c0.14069,-0.22806 0.92621,-0.66285 1.2342,-0.87247c0.7155,-0.48698 1.55938,-0.63376 1.88487,-0.32782c0.32549,0.30593 0.0093,0.94871 -0.7062,1.4357c-0.31944,0.21742 -1.05015,0.80857 -1.3632,0.88036z" fill="#e480ff"/><path d="M245.97889,202.64229c-1.02777,0.77329 -1.92238,1.50499 -1.92238,1.50499c0,0 0.244,-1.00126 1.27177,-1.77456c1.02777,-0.77329 1.88153,-1.05126 2.20504,-0.17296c0.13897,0.37727 -0.52666,-0.33075 -1.55443,0.44253z" fill="#ff0000"/><path d="M244.90834,201.57948c-1.02777,0.77329 -1.92238,1.50499 -1.92238,1.50499c0,0 0.244,-1.00127 1.27176,-1.77456c1.02777,-0.77329 1.88153,-1.05127 2.20504,-0.17296c0.13897,0.37727 -0.52666,-0.33075 -1.55444,0.44254z" fill="#ff0000"/><path d="M246.83948,199.49284c-0.31944,0.21742 -1.05015,0.80857 -1.3632,0.88036c-0.38815,0.08901 0.02586,-0.7526 -0.1543,-0.92195c-0.18537,-0.17425 -1.08151,0.10795 -0.89536,-0.19382c0.14069,-0.22806 0.92621,-0.66286 1.2342,-0.87248c0.7155,-0.48698 1.55938,-0.63376 1.88487,-0.32782c0.32549,0.30593 0.0093,0.94872 -0.7062,1.43571z" fill="#e480ff"/><path d="M243.92286,200.46035c-1.02777,0.77329 -1.92238,1.50498 -1.92238,1.50498c0,0 0.244,-1.00126 1.27177,-1.77455c1.02777,-0.77329 1.88153,-1.05127 2.20505,-0.17297c0.13897,0.37727 -0.52666,-0.33075 -1.55444,0.44255z" fill="#ff0000"/><path d="M245.85404,198.3737c-0.31943,0.21742 -1.05014,0.80856 -1.36319,0.88035c-0.38816,0.08901 0.02585,-0.7526 -0.15431,-0.92195c-0.18538,-0.17425 -1.08152,0.10795 -0.89537,-0.19382c0.14069,-0.22806 0.92621,-0.66285 1.2342,-0.87247c0.71549,-0.48698 1.55938,-0.63377 1.88487,-0.32783c0.32548,0.30594 0.00929,0.94872 -0.70621,1.43571z" fill="#e480ff"/><path d="M242.9374,199.34121c-1.02777,0.77329 -1.92238,1.50499 -1.92238,1.50499c0,0 0.244,-1.00126 1.27176,-1.77456c1.02777,-0.77329 1.88153,-1.05126 2.20505,-0.17296c0.13897,0.37727 -0.52666,-0.33075 -1.55443,0.44253z" fill="#ff0000"/></g></g></g></svg>