<svg version="1.1" xmlns="http://www.w3.org/2000/svg" xmlns:xlink="http://www.w3.org/1999/xlink" width="21.22988" height="40.05849" viewBox="0,0,21.22988,40.05849"><g transform="translate(-230.84506,-175.00705)"><g data-paper-data="{&quot;isPaintingLayer&quot;:true}" fill-rule="nonzero" stroke-linejoin="miter" stroke-miterlimit="10" stroke-dasharray="" stroke-dashoffset="0" style="mix-blend-mode: normal"><g><path d="M244.04162,202.17309c0,1.12581 -1.11815,3.5 -2.30769,3.5c-1.18953,0 -1.53846,-2.29727 -1.53846,-3.42308c0,-1.12581 0.42584,0.80769 1.61538,0.80769c1.18954,0 2.23077,-2.01043 2.23077,-0.88462z" fill="#e480ff" stroke="#000000" stroke-width="0.3" stroke-linecap="butt"/><path d="M241.88777,203.0577l-0.07692,2.53846" fill="none" stroke="#000000" stroke-width="1" stroke-linecap="round"/><path d="M244.04657,202.4627c-2.26469,6.76621 0.84341,11.353 0.84341,11.353l-2.10847,0.20542c0,0 -0.23771,-2.2737 -1.07546,-2.27146c-1.12816,0.00302 -1.69795,2.28996 -1.69795,2.28996l-0.15803,-3.29852c0,0 0.05579,-0.03572 0.96048,-0.94141c0.96165,-0.9627 -0.08292,-5.25736 -0.53321,-7.02931c-0.53886,-2.1205 0.65548,2.73077 1.65384,2.73077c0.99836,0 2.70188,-5.14628 2.11539,-3.03846z" fill="#252525" stroke="#000000" stroke-width="0.3" stroke-linecap="butt"/><path d="M242.8158,213.96269l-0.61538,-2.15385l0.15385,-0.07692l1.53846,2.30769z" fill="#000000" stroke="none" stroke-width="0" stroke-linecap="butt"/></g><path d="M251.92493,187.56354c0,1.39884 -1.94861,1.02776 -2.37072,2.25391c-0.57743,1.67732 1.68032,5.44261 0.85036,6.9339c-0.51772,0.93026 -0.61391,-4.16053 -1.97222,-3.98859c-0.60142,0.07611 -1.07103,4.45085 -1.88169,5.39504c-1.39894,1.62937 -3.19609,0.17323 -3.98925,0.17323c-0.62798,0 -2.93285,0.7127 -4.07746,-0.63912c-1.05843,-1.25002 -0.95513,-4.5678 -1.63862,-4.67458c-1.32041,-0.20629 -1.00354,4.49178 -1.55615,3.62058c-0.79255,-1.24946 0.93827,-4.68145 0.37359,-6.29952c-0.43235,-1.23886 -2.46491,-1.35826 -2.46491,-2.77485c0,-0.35669 -0.12991,-1.95266 0.27947,-2.9611c0.43836,-1.07983 1.41498,-1.56946 1.31786,-1.76219c-0.39073,-0.77531 -3.6087,1.67052 -2.90134,0.49633c1.69017,-2.8056 7.4748,-6.5405 10.66755,-6.5405c2.52206,0 3.79686,3.13885 5.48042,5.0035c0.18341,0.20314 0.65905,0.73513 1.02204,0.616c0.75095,-0.24646 1.53152,-1.41264 1.83212,-0.95679c0.22939,0.34787 -0.4963,1.68697 -1.27539,2.32828c-0.65343,0.53789 -1.36754,0.35991 -1.36225,0.88301c0.00641,0.63198 1.25007,-0.0011 2.03492,0.35693c1.01575,0.46336 1.63165,1.88242 1.63165,2.53656z" fill="#800000" stroke="#000000" stroke-width="0.3" stroke-linecap="butt"/><g stroke="#000000" stroke-width="0.3"><path d="M238.64863,196.6742c0,0 0.76838,-1.95819 0.76087,-2.92574c-0.00623,-0.80254 -0.8028,-2.47763 -0.8028,-2.47763l-0.0295,-3.80138h2.45l-0.07143,4.07745c0,0 2.6647,0.15566 2.60476,2.66108c-0.10106,0.91576 -2.37914,2.65634 -2.37914,2.65634l-0.04866,2.53714c0,0 1.41422,0.48475 1.87956,0.82468c0.5737,0.4191 1.30613,1.50256 1.30613,1.50256c0,0 -0.94905,1.72468 -2.13708,1.7727c-0.8123,0.03281 -1.58748,-1.61288 -2.15406,-1.59001c-0.54242,0.02192 2.02777,3.03238 -2.00052,3.04266c-1.86273,0.00475 -1.5869,-2.90704 -1.5869,-2.90704c0,0 2.16289,-1.64796 2.33678,-2.55053c0.14788,-0.76757 -0.12801,-2.8223 -0.12801,-2.8223z" fill="#ff0000" stroke-linecap="butt"/><path d="M240.72103,191.44319l0.14285,-3.9095c0,0 1.25803,0.19682 2.1,1.0921c0.84197,0.89525 0.72857,3.00094 0.72857,3.00094c0,0 0.68238,1.68504 0.70233,2.48934c0.02021,0.81464 -0.58185,2.36791 -0.58185,2.36791l0.54841,5.23453c0,0 -0.26821,-0.517 -1.53569,-1.32666c-2.02916,-1.29622 -1.95656,-1.04262 -1.95656,-1.04262l0.01242,-2.6609c0,0 2.15729,-0.02713 2.4156,-2.75817c0.11684,-2.31878 -2.5761,-2.48695 -2.5761,-2.48695z" fill="#404040" stroke-linecap="butt"/><path d="M235.86882,191.20865c0,0 -0.32769,-1.83036 0.51429,-2.72563c0.84197,-0.89526 2.1,-1.0921 2.1,-1.0921l0.07143,3.81772c0,0 0.72562,1.77198 0.73176,2.63142c0.00682,0.95621 -0.69266,2.84657 -0.69266,2.84657c0,0 0.22785,2.10443 0.0324,2.9664c-0.19772,0.87199 -1.21199,2.23581 -1.21199,2.23581l-1.04837,0.05712c0,0 -0.18078,-2.14342 0.04813,-2.83726c0.19795,-0.59999 1.246,-1.08528 1.246,-1.08528l-0.39488,-3.95138z" data-paper-data="{&quot;index&quot;:null}" fill="#404040" stroke-linecap="butt"/><path d="M244.31223,194.48361c0,0 0.13097,2.14594 -1.78063,1.88671c-0.55343,-0.07506 -1.7908,-1.79492 -1.7908,-1.79492" fill="none" stroke-linecap="round"/><path d="M240.2408,192.83172c0,0 0.31743,0.95017 -0.8705,1.89671c-1.50333,1.19785 -1.84379,-0.70368 -1.84379,-0.70368" fill="none" stroke-linecap="round"/></g><g stroke="#000000"><path d="M240.19546,203.78848c0,1.04084 -1.22952,2.03846 -2.46154,2.03846c-1.23202,0 -1.46154,-1.61301 -1.46154,-2.65385c0,-1.04085 0.22952,1.03846 1.46154,1.03846c1.23202,0 2.46154,-1.46392 2.46154,-0.42308z" fill="#e480ff" stroke-width="0.3" stroke-linecap="butt"/><path d="M237.73392,205.59616v-1.23077" fill="none" stroke-width="1" stroke-linecap="round"/><path d="M237.68518,206.4827c0.99836,0 2.80809,-4.00512 2.26923,-1.88462c-0.45029,1.77194 -2.8035,6.81687 -2.8035,6.81687l-0.85034,2.76005c0,0 -0.33902,-1.51771 -1.46718,-1.52073c-0.83775,-0.00224 -1.30623,1.50223 -1.30623,1.50223l-2.10847,-0.20542c0,0 6.56964,-2.97141 4.30495,-9.73762c-0.58649,-2.10782 0.96318,2.26923 1.96154,2.26923z" data-paper-data="{&quot;index&quot;:null}" fill="#252525" stroke-width="0.3" stroke-linecap="butt"/></g><path d="M238.51388,187.31632l-0.1,-1.32381c0,0 0.70379,0.16122 1.25476,0.17143c0.55097,0.01021 1.63571,-0.3119 1.63571,-0.3119l-0.29047,1.36428z" fill="#e480ff" stroke="#000000" stroke-width="0.3" stroke-linecap="butt"/><path d="M240.97078,186.92436c0.11495,0.77023 -0.62039,1.32361 -1.40909,1.27273c-0.7887,-0.05089 -1.56638,-0.64779 -1.40909,-1.45455" fill="none" stroke="#fff700" stroke-width="0.3" stroke-linecap="round"/><path d="M242.66003,177.17045c0,0 0.40914,-1.4551 0.75009,-1.84857c0.12518,-0.14447 0.74174,-0.27619 1.16226,-0.01742c0.59299,0.36491 1.01419,1.1993 1.01419,1.1993c0,0 1.74927,0.49662 1.65956,0.68121c-0.02477,0.05095 0.54838,1.38054 0.54838,1.38054l-0.62695,1.26487c0,0 -0.04664,-1.50441 -0.52961,-1.92774c-0.39867,-0.34945 -1.55782,-0.35679 -1.55782,-0.35679c0,0 -0.6547,-1.84943 -0.97767,-1.7019c-0.31049,0.14182 -0.51063,1.98826 -0.51063,1.98826z" fill="#800000" stroke="#000000" stroke-width="0.3" stroke-linecap="butt"/><g><path d="M233.55075,188.22944l3.11855,0.81479l1.24061,2.0161l-1.50829,5.77005c0,0 -1.21232,3.64052 -2.39781,3.65764c-1.08312,-0.05745 -0.75828,0.15448 -1.31252,-0.79834c-1.47168,-2.53004 -1.06511,-1.58767 -1.06511,-1.58767l3.54076,-3.08627z" fill="#404040" stroke="#000000" stroke-width="0.3" stroke-linecap="butt"/><path d="M235.34008,199.38996c0,0.52634 -0.2631,2.05266 -1.46215,2.05266c-1.19905,0 -1.28492,-1.453 -1.28492,-1.97934c0,-0.52634 0.08587,0.95302 1.28492,0.95302c1.19905,0 1.46215,-1.55267 1.46215,-1.02633z" fill="#fff700" stroke="#000000" stroke-width="0.3" stroke-linecap="butt"/><path d="M235.28901,200.15411c0,0.52634 -0.2631,2.05266 -1.46215,2.05266c-1.19905,0 -1.28492,-1.45301 -1.28492,-1.97935c0,-0.52634 0.08587,0.95301 1.28492,0.95301c1.19905,0 1.46215,-1.55267 1.46215,-1.02632z" fill="#fff700" stroke="#000000" stroke-width="0.3" stroke-linecap="butt"/><path d="M235.07423,204.66823l-0.9587,-0.78361l1.2031,-1.03516l-1.27596,0.95332l-1.12236,-0.51023l-1.08575,-1.12177l0.75844,-1.02139c0,0 0.51759,0.95302 1.152,0.95302c0.66394,0 1.41784,-1.02632 1.41784,-1.02632l0.62031,0.95302l1.63573,-0.23404l0.08859,1.31904z" fill="#e480ff" stroke="#000000" stroke-width="0.3" stroke-linecap="butt"/><path d="M231.70685,201.95578c0,0 -0.83985,-0.69081 -0.17723,-1.39288c0.52802,-0.55946 1.26782,0.3703 1.26782,0.3703z" fill="#808080" stroke="#000000" stroke-width="0.3" stroke-linecap="butt"/><g><path d="M236.97411,203.25825l0.3889,0.32903l-1.42412,1.15805l-0.3889,-0.32903z" fill="#808080" stroke="#000000" stroke-width="0.1" stroke-linecap="butt"/><path d="M237.73529,203.27447l0.27361,0.25172l-1.88283,1.59387l-0.27361,-0.25171z" fill="#bfbfbf" stroke="#000000" stroke-width="0.1" stroke-linecap="butt"/><path d="M237.42279,206.6014c-0.72096,-0.2268 -2.03708,-1.01585 -1.32841,-1.52157c0.66846,-0.47702 1.20957,-0.94388 1.90555,-1.47542c0.56675,-0.43284 1.68269,1.21522 1.40853,1.81165c-0.27416,0.59643 -1.26472,1.41214 -1.98568,1.18534z" fill="#808080" stroke="#000000" stroke-width="0.1" stroke-linecap="butt"/><path d="M237.77309,204.50427c-0.78533,-0.24705 -2.38486,1.18303 -1.74077,0.71055c0.60805,-0.44603 1.1951,-1.01465 1.93774,-1.48736c0.6659,-0.42387 1.38522,0.81423 1.42494,1.48571c0.04868,0.82286 -0.83659,-0.46185 -1.62192,-0.7089z" fill="#404040" stroke="none" stroke-width="0" stroke-linecap="butt"/><path d="M238.93466,204.23587c0,0 -0.81275,0.81617 -1.24911,1.13597c-0.3929,0.28797 -1.25234,0.69734 -1.25234,0.69734" data-paper-data="{&quot;index&quot;:null}" fill="none" stroke="#000000" stroke-width="0.1" stroke-linecap="round"/><path d="M238.52885,203.77495c0,0 -0.81275,0.81619 -1.24909,1.13598c-0.3929,0.28797 -1.25236,0.69734 -1.25236,0.69734" data-paper-data="{&quot;index&quot;:null}" fill="none" stroke="#000000" stroke-width="0.1" stroke-linecap="round"/><path d="M239.35698,204.58924c0,0 -0.81275,0.81618 -1.2491,1.13598c-0.3929,0.28797 -1.25235,0.69733 -1.25235,0.69733" data-paper-data="{&quot;index&quot;:null}" fill="none" stroke="#000000" stroke-width="0.1" stroke-linecap="round"/><path d="M239.60301,205.03146c0,0 -0.69234,0.72794 -1.07308,1.00699c-0.34285,0.25127 -1.10965,0.59275 -1.10965,0.59275" data-paper-data="{&quot;index&quot;:null}" fill="none" stroke="#000000" stroke-width="0.1" stroke-linecap="round"/><path d="M237.80963,203.94711c0,0 0.77275,0.49423 1.05996,0.77236c0.25861,0.25044 0.58652,0.82209 0.58652,0.82209" data-paper-data="{&quot;index&quot;:null}" fill="none" stroke="#000000" stroke-width="0.1" stroke-linecap="round"/><path d="M237.259,204.28773c0,0 0.77275,0.49424 1.05995,0.77236c0.25861,0.25044 0.58652,0.82208 0.58652,0.82208" data-paper-data="{&quot;index&quot;:null}" fill="none" stroke="#000000" stroke-width="0.1" stroke-linecap="round"/><path d="M237.83592,206.58865c0,0 -0.64645,-0.33819 -0.91579,-0.58077c-0.29913,-0.26938 -0.79903,-0.96357 -0.79903,-0.96357" data-paper-data="{&quot;index&quot;:null}" fill="none" stroke="#000000" stroke-width="0.1" stroke-linecap="round"/><path d="M238.31104,206.17752c0,0 -0.64644,-0.33819 -0.91578,-0.58077c-0.29913,-0.26938 -0.79905,-0.96358 -0.79905,-0.96358" data-paper-data="{&quot;index&quot;:null}" fill="none" stroke="#000000" stroke-width="0.1" stroke-linecap="round"/></g></g><path d="M238.22864,187.76386c0.63623,0 0.17723,0.34911 0.17723,1.10769c0,0.75858 -0.33854,1.90523 -0.97477,1.90523c-0.63623,0 -1.152,-0.70357 -1.152,-1.46215c0,-0.75859 1.31331,-1.55077 1.94954,-1.55077z" fill="#404040" stroke="none" stroke-width="0" stroke-linecap="butt"/><g><path d="M236.42548,182.85649l2.52805,-5.4972c0,0 0.38059,0.19252 0.57698,0.4759c0.15954,0.23022 0.51806,0.82176 0.51806,0.82176c0,0 0.20567,-0.40121 0.4845,-0.46729c0.28754,-0.06815 0.74019,0.13355 0.92388,0.20988c0.19741,0.08203 0.63021,0.3427 0.83433,0.61154c0.23151,0.3049 0.4465,0.756 0.4465,0.756c0,0 0.54814,-0.11352 0.80292,-0.12958c0.48792,-0.03075 0.97854,0.03452 0.97854,0.03452l-1.67694,3.52248l1.11555,2.9044c0,0 -2.95551,0.84728 -4.60804,0.13592c-1.65252,-0.71135 -2.92434,-3.37834 -2.92434,-3.37834z" fill="#e480ff" stroke="#000000" stroke-width="0.3" stroke-linecap="butt"/><path d="M240.41925,181.07615c0,0 -2.31969,0.41649 -1.84255,-0.65574c0.47714,-1.07224 0.87399,-1.71807 0.87399,-1.71807z" fill="#000000" stroke="none" stroke-width="0" stroke-linecap="butt"/><path d="M243.19655,180.36922c0,0 -0.21412,0.72714 -0.69126,1.79938c-0.47714,1.07224 -1.72058,-0.92983 -1.72058,-0.92983z" data-paper-data="{&quot;index&quot;:null}" fill="#000000" stroke="none" stroke-width="0" stroke-linecap="butt"/><path d="M238.92658,181.6605l-0.00955,-0.94988l-0.59296,-0.72681l0.96606,0.08524l0.62446,-0.69613l-0.10606,0.91183l0.51683,0.58962l-0.72283,0.00801z" fill="#ff0000" stroke="none" stroke-width="0" stroke-linecap="butt"/><path d="M241.47971,182.68717l-0.00955,-0.94988l-0.59296,-0.72681l0.96606,0.08524l0.62446,-0.69613l-0.10606,0.91183l0.51683,0.58962l-0.72283,0.00801z" fill="#ff0000" stroke="none" stroke-width="0" stroke-linecap="butt"/><path d="M243.15109,179.85645l-2.40168,0.84671l-0.80103,-2.38135" fill="none" stroke="#000000" stroke-width="0.2" stroke-linecap="round"/><path d="M240.80356,184.39397c-0.13472,0.30275 -0.18556,-0.7393 -0.71537,-0.97506c-0.52981,-0.23576 -1.19064,0.21596 -1.05592,-0.08679c0.13472,-0.30275 0.26252,-1.03245 0.79234,-0.79668c0.09315,0.04145 0.218,0.40593 0.43727,0.48874c0.2918,0.1102 0.69199,-0.05145 0.83622,0.06646c0.36376,0.29739 -0.21502,1.12466 -0.29453,1.30333z" fill="#ff0000" stroke="#000000" stroke-width="0.2" stroke-linecap="butt"/><path d="M240.59537,184.49287c-0.20769,0.46673 -0.75958,0.51026 -1.25155,0.29134c-0.49197,-0.21892 -0.73771,-0.61739 -0.53002,-1.08413c0.20769,-0.46673 0.30231,0.27135 0.79428,0.49027c0.49197,0.21892 1.19498,-0.16422 0.98729,0.30252z" fill="#ff0000" stroke="#000000" stroke-width="0.2" stroke-linecap="butt"/><path d="M239.6259,184.08883c-0.47935,-0.21331 -0.63031,-0.4283 -0.51243,-0.69321c0.11788,-0.26491 0.34302,-0.09363 0.82238,0.11968c0.47935,0.21331 0.73698,0.31159 0.6191,0.57649c-0.11788,0.26491 -0.44969,0.21034 -0.92904,-0.00297z" fill="#ffffff" stroke="#000000" stroke-width="0.2" stroke-linecap="butt"/><path d="M238.56563,182.41302l0.35997,1.03582" fill="none" stroke="#000000" stroke-width="0.2" stroke-linecap="round"/><path d="M240.73755,184.41933l0.93418,-0.13157" fill="none" stroke="#000000" stroke-width="0.2" stroke-linecap="round"/><path d="M239.03866,183.14507c0,0 0.22585,-0.50475 0.52729,-0.5993c0.30145,-0.09455 0.53164,0.44505 0.53164,0.44505c0,0 0.23613,0.41958 0.06264,0.44485c-0.17349,0.02527 -1.12158,-0.29061 -1.12158,-0.29061z" fill="#000000" stroke="none" stroke-width="0" stroke-linecap="butt"/><path d="M239.49155,184.19132c0.09194,0.28296 0.03677,0.46108 -0.27355,0.52037c-0.31031,0.05928 -0.45761,-0.54672 -0.45761,-0.54672c0,0 -0.08955,-0.66146 0.08569,-0.66663c0.17524,-0.00516 0.55353,0.41002 0.64548,0.69298z" fill="#000000" stroke="none" stroke-width="0" stroke-linecap="butt"/></g><g><path d="M234.4268,179.91606l1.8565,-2.85981l0.4826,1.99984l-1.19854,1.47767z" fill="#e480ff" stroke="#000000" stroke-width="0.3" stroke-linecap="butt"/><path d="M235.02848,180.04165l0.9292,-1.31214l0.28587,1.12019l-0.46189,0.58059z" fill="#ab60bf" stroke="#000000" stroke-width="0.2" stroke-linecap="butt"/><path d="M235.50327,180.70562c-0.36013,0.69049 -0.32839,1.17037 -0.93627,0.66527c-0.60787,-0.5051 0.12785,-0.82582 0.72962,-1.38571" fill="none" stroke="#fff700" stroke-width="0.3" stroke-linecap="round"/></g><g stroke="#000000" stroke-width="0.3" stroke-linecap="butt"><path d="M249.81697,201.50046c-0.31959,0.2172 -1.0507,0.80786 -1.3638,0.87943c-0.38821,0.08874 0.02637,-0.75259 -0.15368,-0.92207c-0.18526,-0.17437 -1.08159,0.10721 -0.89523,-0.19443c0.14084,-0.22797 0.92666,-0.66221 1.2348,-0.87163c0.71583,-0.4865 1.55981,-0.6327 1.88509,-0.32653c0.32528,0.30616 0.00866,0.94872 -0.70718,1.43522z" fill="#e480ff"/><path d="M249.34937,196.29075l-8.31083,-8.69031l2.44691,-1.89549l7.88365,10.25999l-0.88574,4.4391c0,0 0.1389,-2.34732 -0.18433,-2.67746c-0.27114,-0.27696 -1.6264,0.82803 -1.6264,0.82803z" fill="#404040"/><path d="M250.47331,200.02852c-0.41486,1.09887 0.48267,-1.24027 -0.56135,-1.50351c-1.088,-0.27432 -2.20211,1.51211 -1.61108,0.49707c0.70173,-1.20519 0.87135,-1.40116 1.91092,-1.12085c0.701,0.18901 0.91936,0.38488 0.26152,2.12729z" fill="#fff700"/><path d="M249.67934,199.26196c-1.088,-0.27432 -2.20211,1.51211 -1.61108,0.49707c0.70173,-1.20519 0.87135,-1.40116 1.91092,-1.12085c0.70099,0.18901 0.91935,0.38489 0.26151,2.1273c-0.41487,1.09887 0.48267,-1.24028 -0.56135,-1.50352z" fill="#fff700"/><path d="M249.8002,203.31122c-0.37174,0.14283 -0.08048,-0.74873 -0.28272,-0.89099c-0.20809,-0.14638 -1.05551,0.2593 -0.91374,-0.06569c0.10714,-0.24562 0.82355,-0.78677 1.09892,-1.03771c0.63973,-0.58297 1.45449,-0.84722 1.81985,-0.5902c0.36536,0.257 0.14292,0.93793 -0.4968,1.5209c-0.28561,0.26027 -0.9257,0.9485 -1.22551,1.0637z" fill="#e480ff"/><path d="M248.27456,203.61644c-0.90852,0.91043 -1.69108,1.76091 -1.69108,1.76091c0,0 0.10044,-1.02565 1.00897,-1.93609c0.90852,-0.91043 1.71458,-1.30595 2.15866,-0.48202c0.19076,0.35391 -0.56802,-0.25323 -1.47654,0.6572z" fill="#ff0000"/><path d="M247.0649,202.71512c-0.90852,0.91043 -1.69108,1.76091 -1.69108,1.76091c0,0 0.10044,-1.02566 1.00896,-1.93609c0.90852,-0.91043 1.71458,-1.30596 2.15866,-0.48202c0.19076,0.35391 -0.56802,-0.25323 -1.47655,0.6572z" fill="#ff0000"/><path d="M248.68267,200.37713c-0.28561,0.26027 -0.9257,0.9485 -1.22551,1.0637c-0.37173,0.14283 -0.08047,-0.74873 -0.28271,-0.891c-0.20808,-0.14638 -1.05551,0.2593 -0.91374,-0.06569c0.10714,-0.24562 0.82355,-0.78678 1.09891,-1.03772c0.63973,-0.58297 1.45449,-0.84722 1.81985,-0.5902c0.36536,0.257 0.14292,0.93794 -0.4968,1.52091z" fill="#e480ff"/><path d="M245.93153,201.74606c-0.90852,0.91043 -1.69108,1.7609 -1.69108,1.7609c0,0 0.10044,-1.02565 1.00896,-1.93608c0.90852,-0.91043 1.71458,-1.30596 2.15866,-0.48203c0.19076,0.35391 -0.56802,-0.25323 -1.47655,0.65721z" fill="#ff0000"/><path d="M247.54933,199.40805c-0.2856,0.26027 -0.92569,0.9485 -1.2255,1.06369c-0.37174,0.14283 -0.08048,-0.74873 -0.28272,-0.89099c-0.20809,-0.14638 -1.05552,0.2593 -0.91375,-0.06569c0.10714,-0.24562 0.82355,-0.78677 1.09892,-1.03771c0.63972,-0.58297 1.45449,-0.84723 1.81985,-0.59021c0.36535,0.25701 0.14291,0.93795 -0.49681,1.52091z" fill="#e480ff"/><path d="M244.79817,200.77698c-0.90852,0.91043 -1.69108,1.76091 -1.69108,1.76091c0,0 0.10044,-1.02565 1.00896,-1.93609c0.90852,-0.91043 1.71458,-1.30595 2.15867,-0.48202c0.19076,0.35391 -0.56802,-0.25323 -1.47654,0.6572z" fill="#ff0000"/></g></g></g></svg>