<svg version="1.1" xmlns="http://www.w3.org/2000/svg" xmlns:xlink="http://www.w3.org/1999/xlink" width="17.8635" height="20.49716" viewBox="0,0,17.8635,20.49716"><g transform="translate(-230.97942,-184.02661)"><g data-paper-data="{&quot;isPaintingLayer&quot;:true}" fill-rule="nonzero" stroke-linejoin="miter" stroke-miterlimit="10" stroke-dasharray="" stroke-dashoffset="0" style="mix-blend-mode: normal"><g data-paper-data="{&quot;index&quot;:null}" stroke="#000000" stroke-width="0.3" stroke-linecap="butt"><path d="M238.56145,201.28252c-0.85978,-2.01831 -1.26216,-4.08189 -0.74941,-4.23993c0.63335,-0.19521 0.32337,-0.32301 0.70258,-0.13977c0.24402,0.11792 0.72375,0.4403 1.06039,1.23056c0.292,0.68547 0.03592,4.43687 0.18716,5.40649c0.14196,0.91019 -1.67602,0.13258 -2.42499,0.26148c-1.06168,0.23056 -2.71382,0.39424 -3.20749,-0.68599c-0.33022,-1.14771 1.79011,-0.77121 2.68901,-0.87393c0.75758,-0.21336 2.15019,-0.0024 1.74273,-0.95891z" fill="#ffc380"/><path d="M234.21331,203.22958c0.03582,1.05595 2.75104,0.64623 1.61111,0.6849c-0.49407,0.01676 -1.71952,0.54461 -2.57505,0.44733c-1.1184,-0.12716 -2.13577,-0.72968 -2.11976,-0.98412c0.01029,-0.16363 0.8497,-1.07138 1.9635,-1.29024c1.04254,-0.20487 2.34437,0.27404 2.89551,0.25534c1.13994,-0.03867 -1.81113,-0.16915 -1.77531,0.88679z" fill="#ff0000"/></g><g stroke="#000000" stroke-width="0.3" stroke-linecap="butt"><path d="M241.2611,201.28251c-0.40746,0.95651 0.98515,0.74554 1.74273,0.9589c0.8989,0.10273 3.01922,-0.27377 2.68901,0.87393c-0.49367,1.08023 -2.14581,0.91654 -3.20748,0.68599c-0.74897,-0.1289 -2.56695,0.64871 -2.42499,-0.26148c0.15124,-0.96962 -0.10484,-4.72101 0.18716,-5.40649c0.33664,-0.79026 0.81636,-1.11265 1.06039,-1.23056c0.37921,-0.18324 0.06922,-0.05544 0.70257,0.13978c0.51275,0.15804 0.11037,2.22162 -0.7494,4.23993z" fill="#ffc380"/><path d="M243.83392,202.34279c0.55113,0.0187 1.85296,-0.4602 2.8955,-0.25534c1.1138,0.21886 1.95322,1.12661 1.9635,1.29024c0.01601,0.25444 -1.00136,0.85695 -2.11976,0.98412c-0.85553,0.09728 -2.08098,-0.43057 -2.57504,-0.44733c-1.13993,-0.03867 1.57529,0.37104 1.61111,-0.6849c0.03582,-1.05593 -2.91524,-0.92546 -1.7753,-0.88679z" fill="#ff0000"/></g><g><path d="M245.80337,191.02521c0.03986,0.70102 -1.15798,0.58256 -1.38022,1.21166c-0.30403,0.86059 1.17888,2.66932 0.71569,3.44542c-0.28893,0.48413 -0.4926,-2.06375 -1.3153,-1.93054c-0.36427,0.05898 -0.52574,2.26762 -0.99276,2.76888c-0.80593,0.86501 -1.9424,0.19753 -2.42566,0.22501c-0.38262,0.02176 -1.76664,0.45877 -2.50255,-0.17904c-0.68051,-0.58977 -0.71211,-2.25603 -1.13159,-2.28587c-0.81039,-0.05764 -0.48345,2.28579 -0.84497,1.86835c-0.51849,-0.5987 0.43828,-2.37859 0.04812,-3.1699c-0.29872,-0.60587 -1.54054,-0.5953 -1.5809,-1.30521c-0.01016,-0.17875 -0.13479,-0.97406 0.0859,-1.49361c0.23632,-0.55634 0.81741,-0.83555 0.75274,-0.92877c-0.26016,-0.37501 -2.15113,0.96218 -1.7536,0.34924c0.94985,-1.46456 4.36793,-3.53668 6.31323,-3.64728c1.53666,-0.08737 2.40281,1.44148 3.48172,2.31761c0.11754,0.09545 0.4225,0.34557 0.64027,0.27329c0.45052,-0.14953 0.89288,-0.76099 1.08902,-0.54296c0.14968,0.16639 -0.25432,0.8626 -0.71073,1.21098c-0.3828,0.2922 -0.82297,0.22774 -0.80484,0.48972c0.02191,0.3165 0.76162,-0.04386 1.25002,0.10838c0.63208,0.19702 1.04778,0.88683 1.06642,1.21465z" fill="#800000" stroke="#000000" stroke-width="0.3" stroke-linecap="butt"/><path d="M243.91556,192.4215c-0.05696,0.69936 -1.80397,1.12779 -3.90206,0.95691c-2.09809,-0.17088 -3.75275,-0.87636 -3.69579,-1.57573c0.0328,-0.40275 -0.53212,-3.4455 0.84712,-4.5164c1.0158,-0.78871 4.23466,0.07261 5.12452,0.14509c0.62899,0.05123 -1.10141,4.09579 -0.5863,4.22853c1.20313,0.31007 2.2524,0.27189 2.21252,0.76159z" fill="#ffc380" stroke="#000000" stroke-width="0.3" stroke-linecap="butt"/><path d="M242.19176,187.94736c-0.03767,0.46255 -0.50528,1.95956 -0.50528,1.95956c0,0 -0.92132,-1.40687 -1.09135,-1.42072c-0.28485,-0.0232 -1.61574,1.40607 -1.61574,1.40607c0,0 0.13964,-1.1739 0.16815,-1.52397c0.05124,-0.6291 1.18293,-1.05029 1.82514,-0.99798c0.6422,0.05231 1.27032,-0.05205 1.21908,0.57706z" fill="#bf9360" stroke="none" stroke-width="0" stroke-linecap="butt"/><path d="M241.2829,184.41194c-0.00328,0.04028 -0.35272,0.00853 -0.5193,0.51872c-0.19766,0.60537 -0.21063,1.32347 0.08329,1.1709c0.31876,-0.16546 1.44164,-0.80347 1.79411,-0.7698c0.84043,0.08031 0.76824,0.87203 0.95832,1.06748c0.33371,0.34315 -0.19983,1.97591 -0.90782,2.40103c-0.43751,0.26271 -0.21027,-1.48143 -0.31206,-1.40665c-0.15433,0.11338 -0.35228,0.93438 -1.11994,1.26435c-0.18428,0.07921 -0.06213,-0.32996 -0.18793,-0.71576c-0.11168,-0.34251 -0.46988,-0.66063 -0.64264,-0.69195c-0.12855,-0.0233 -0.0594,0.27628 -0.13632,0.59354c-0.06888,0.28411 -0.28386,0.5895 -0.38925,0.57378c-0.29869,-0.04458 -0.24339,-0.52946 -0.6817,-0.86812c-0.46903,-0.36241 -1.46005,-0.15161 -1.5496,-0.15891c-0.38061,-0.031 -1.47452,0.92137 -1.47452,0.92137c0,0 0.14132,-1.85718 0.20388,-2.62537c0.09287,-1.14024 0.61315,-1.12059 1.77961,-1.02559c0.53341,0.04344 1.27654,1.07425 1.69196,1.23385c0.22218,0.08535 0.27268,-0.68112 0.54813,-1.20613c0.33576,-0.63996 0.88948,-0.61667 0.86179,-0.27674z" fill="#800000" stroke="#000000" stroke-width="0.3" stroke-linecap="butt"/><path d="M236.46713,186.66892l0.07731,-0.94924c0,0 0.91888,0.29533 1.59829,0.33664c0.20425,0.01241 1.02809,-0.33207 1.02809,-0.33207l0.72329,0.5005l0.82816,-0.11391c0,0 0.64066,0.14966 1.03164,0.15402c0.50203,0.0056 1.73158,-0.12319 1.73158,-0.12319c0,0 0.09323,0.39749 0.07026,0.57786c-0.02102,0.16503 -0.10784,0.47017 -0.10784,0.47017c0,0 -1.275,0.03221 -1.76611,-0.03009c-0.37432,-0.04748 -1.02143,-0.31923 -1.02143,-0.31923l-0.78386,0.20286l-0.62751,-0.47877c0,0 -0.84046,0.48924 -1.09178,0.47055c-0.64208,-0.04774 -1.69007,-0.3661 -1.69007,-0.3661z" fill="#bf2e00" stroke="none" stroke-width="0" stroke-linecap="butt"/><path d="M239.57471,188.4031c-0.03767,0.46254 -0.51021,1.43361 -0.51021,1.43361c0,0 -0.81867,-1.49407 -0.98869,-1.50792c-0.28485,-0.0232 -1.66707,1.44967 -1.66707,1.44967c0,0 0.12417,-0.98406 0.15269,-1.33413c0.05124,-0.6291 1.18293,-1.05029 1.82514,-0.99798c0.6422,0.05231 1.23939,0.32765 1.18815,0.95675z" fill="#bf9360" stroke="none" stroke-width="0" stroke-linecap="butt"/><path d="M239.07218,189.29382c-0.05017,0.61599 -0.51583,1.08074 -1.04008,1.03804c-0.52424,-0.0427 -0.90857,-0.57667 -0.85839,-1.19267c0.05017,-0.61599 0.53237,-0.69718 1.05662,-0.65449c0.52424,0.0427 0.89203,0.19312 0.84186,0.80911z" fill="#000000" stroke="none" stroke-width="0" stroke-linecap="butt"/><path d="M241.23169,189.46969c-0.05017,0.61599 -0.51583,1.08074 -1.04008,1.03804c-0.52424,-0.0427 -0.90857,-0.57667 -0.85839,-1.19267c0.05017,-0.61599 0.48104,-0.65358 1.00529,-0.61088c0.52424,0.0427 0.94336,0.14951 0.89319,0.7655z" fill="#000000" stroke="none" stroke-width="0" stroke-linecap="butt"/><path d="M239.33461,189.00463c0,0 1.77822,-0.5358 2.3295,0.14195" fill="none" stroke="#000000" stroke-width="0.3" stroke-linecap="round"/><path d="M240.90257,187.93793c0.38759,0.68087 -0.5878,0.76434 -0.5878,0.76434" fill="none" stroke="#000000" stroke-width="0.2" stroke-linecap="round"/><path d="M240.28554,187.88768c0.38759,0.68087 -0.5878,0.76434 -0.5878,0.76434" fill="none" stroke="#000000" stroke-width="0.2" stroke-linecap="round"/><path d="M237.21814,188.59337c0.65369,-0.57961 2.32177,0.23688 2.32177,0.23688" data-paper-data="{&quot;index&quot;:null}" fill="none" stroke="#000000" stroke-width="0.3" stroke-linecap="round"/><path d="M238.34071,188.3026c0,0 -0.94902,-0.2402 -0.45637,-0.84938" data-paper-data="{&quot;index&quot;:null}" fill="none" stroke="#000000" stroke-width="0.2" stroke-linecap="round"/><path d="M238.94998,188.44776c0,0 -0.94902,-0.2402 -0.45637,-0.84938" data-paper-data="{&quot;index&quot;:null}" fill="none" stroke="#000000" stroke-width="0.2" stroke-linecap="round"/><path d="M239.07017,192.11055c-0.45507,-0.03706 -0.82675,-0.85374 -0.82675,-0.85374l1.75609,0.14303c0,0 -0.47426,0.74778 -0.92933,0.71071z" fill="#ff8080" stroke="#000000" stroke-width="0.2" stroke-linecap="butt"/><path d="M236.45288,187.4448l-0.58066,0.35403" fill="none" stroke="#800000" stroke-width="0.7" stroke-linecap="round"/></g><g><path d="M241.85164,193.95796c0,0 -0.01921,0.32467 -0.1408,0.6638c-0.03638,0.10147 -0.59632,1.04883 -0.52872,1.55832c0.03908,0.29449 0.61655,0.70957 0.88024,1.15181c0.29315,0.49165 0.27108,0.99871 0.22383,1.0276c-0.1792,0.10957 -1.92168,-0.07004 -2.1834,-0.07004c-0.24097,0 -2.33434,0.00103 -2.4465,-0.11224c-0.03684,-0.0372 -0.25709,-0.49412 -0.01678,-0.91614c0.23539,-0.41338 0.93138,-0.79016 0.9026,-1.0015c-0.05514,-0.4048 -0.85897,-1.94936 -0.85897,-2.20512c0,-0.36182 -0.92735,-0.91592 -0.58748,-1.16041c0.36919,-0.26559 1.50551,0.08307 2.08748,0.08307c0.55886,0 0.541,-0.26509 0.90724,-0.01775c0.13075,0.0883 1.84285,-0.06686 2.01208,0.09279c0.3048,0.28753 0.05687,0.82891 0.05687,0.82891z" fill="#ff0000" stroke="#000000" stroke-width="0.3" stroke-linecap="butt"/><path d="M239.44505,194.53681c0,0.20632 -0.1501,0.35938 -0.25425,0.48606c-0.08861,0.10779 -0.1045,0.20537 -0.38861,0.20537c-0.61803,0 -0.29527,0.3786 -0.45123,0.01206c-0.16868,-0.3964 -0.39973,-0.85501 -0.39973,-0.85501c0,0 0.35104,-0.14155 0.53928,-0.16275c0.50753,-0.05715 0.95454,0.03571 0.95454,0.31427z" fill="#bf0000" stroke="none" stroke-width="0" stroke-linecap="butt"/><path d="M241.5403,194.54478c0,0.18561 -0.00545,0.31272 -0.15936,0.44427c-0.19217,0.16427 -0.66222,0.215 -0.9835,0.215c-0.57858,0 -1.2381,0.33699 -1.2381,-0.0804c0,-0.18164 0.5174,-0.49961 0.66543,-0.69186c0.19212,-0.24952 0.29349,-0.38548 0.62028,-0.38548c0.57858,0 1.09524,0.08108 1.09524,0.49848z" fill="#bf0000" stroke="none" stroke-width="0" stroke-linecap="butt"/><path d="M239.54029,194.48859c0,0 -0.0056,0.26332 -0.12574,0.39314c-0.11791,0.12741 -0.58855,0.37869 -0.58855,0.37869" fill="none" stroke="#000000" stroke-width="0.3" stroke-linecap="round"/></g><g stroke="#000000" stroke-width="0.3"><path d="M237.3663,194.42964c-0.74368,0 -2.08026,-0.14142 -2.0247,-4.03847c0.05706,-4.00233 0.52871,-1.87371 0.43071,-3.99931c-1.65264,-1.22061 2.19904,-1.43828 2.22019,-1.83838c0.02052,-0.38825 -1.22487,1.43813 -1.02327,1.43813c0.19872,0 0.18606,-0.49895 -0.30884,1.17476c-0.08464,0.888 0.26401,-0.67045 0.11949,5.33236c-0.05366,2.22901 1.33011,1.9309 0.58642,1.9309z" fill="#ffc380" stroke-linecap="butt"/><path d="M236.3188,186.33909c0,0 -0.26741,-0.2147 -0.32799,-0.38542c-0.06741,-0.19001 -0.05815,-0.70301 -0.05815,-0.70301" fill="none" stroke-linecap="round"/></g><g stroke="#000000" stroke-width="0.3"><path d="M241.88945,194.42964c-0.74369,0 0.64008,0.29811 0.58642,-1.9309c-0.14452,-6.00281 0.20413,-4.44436 0.11948,-5.33236c-0.80259,-0.67371 -1.19987,-0.40553 -1.00115,-0.40553c0.2016,0 -0.88994,-1.28792 -0.86942,-0.89967c0.02115,0.4001 4.41129,-0.68993 2.75865,0.53068c-0.098,2.1256 0.37365,-0.00302 0.43071,3.99931c0.05556,3.89705 -1.28102,4.03847 -2.0247,4.03847z" fill="#ffc380" stroke-linecap="butt"/><path d="M242.93847,185.63527c0,0 0.00926,0.513 -0.05815,0.70301c-0.06058,0.17072 -0.32798,0.38541 -0.32798,0.38541" fill="none" stroke-linecap="round"/></g></g></g></svg>