<svg version="1.1" xmlns="http://www.w3.org/2000/svg" xmlns:xlink="http://www.w3.org/1999/xlink" width="24.82432" height="29.64286" viewBox="0,0,24.82432,29.64286"><g transform="translate(-229.1967,-174.32448)"><g data-paper-data="{&quot;isPaintingLayer&quot;:true}" fill-rule="nonzero" stroke-linejoin="miter" stroke-miterlimit="10" stroke-dasharray="" stroke-dashoffset="0" style="mix-blend-mode: normal"><g stroke="#000000" stroke-width="0.3" stroke-linecap="butt"><path d="M242.78759,187.90978l-1.5361,-2.07039l-0.60108,-1.60288l3.33934,2.5379l2.27059,-1.39431l-0.11079,1.22976l-2.31374,1.41192z" fill="#418040"/><path d="M242.42517,188.99091c-0.42094,0 -0.63372,-1.84179 -1.68238,-1.77925c-1.73933,0.10373 -4.90256,2.49093 -4.90256,1.8925c0,-0.44139 1.71494,-2.05424 1.71494,-2.05424c0,0 -0.73813,-3.251 -0.13399,-3.251c1.11911,0 3.02632,-0.32765 3.02632,0.63158c0,0.3803 2.65309,4.56041 1.97767,4.56041z" data-paper-data="{&quot;index&quot;:null}" fill="#61bf60"/><path d="M233.90493,186.17332l3.40613,-2.20397l0.13357,1.5361l-1.66967,2.27075l-3.81707,-0.09885l-0.22966,-1.33573z" fill="#418040"/></g><g data-paper-data="{&quot;index&quot;:null}"><path d="M232.41802,188.07448c-0.50116,0.10012 -2.10514,-3.09402 -1.21039,-3.46688c1.02544,-0.42733 1.06937,-0.53522 1.43332,-0.64775c0.4025,-0.12445 0.93798,-0.16648 1.80304,-0.37504c0.19979,-0.04816 0.62734,0.56214 0.29966,1.03615c-0.13817,0.19988 -0.7514,0.36483 -1.02232,0.4632c-0.34233,0.12429 0.72043,-0.42317 1.25774,0.02705c0.23447,0.19645 0.00075,0.75479 -1.07461,1.09244c-0.4534,0.14238 0.59833,-0.05094 1.2087,-0.23839c0.55018,-0.16897 0.52555,1.20598 0.48893,1.21885c-0.87528,0.30752 -0.64562,0.24666 -1.45843,0.49798c-0.8128,0.25131 -0.62116,0.17176 -1.7256,0.39241z" data-paper-data="{&quot;index&quot;:null}" fill="#ffc380" stroke="#000000" stroke-width="0.3" stroke-linecap="butt"/><path d="M231.54785,184.52061l-0.25593,-0.75435l2.71043,-0.91168l0.25593,0.75435z" fill="#808080" stroke="#000000" stroke-width="0.3" stroke-linecap="butt"/><path d="M230.89554,183.877l-0.21128,-0.54656l3.68042,-1.15614l0.21128,0.54656z" fill="#bfbfbf" stroke="#000000" stroke-width="0.3" stroke-linecap="butt"/><path d="M229.38818,180.41752c0.11702,-1.09835 2.01805,-1.72448 3.1164,-1.60746c1.09835,0.11702 2.9194,2.83292 1.88401,3.2177c-1.2715,0.47252 -2.34279,0.7979 -3.5123,1.27795c-1.23985,0.50892 -1.60514,-1.78983 -1.48812,-2.88818z" fill="#808080" stroke="#000000" stroke-width="0.3" stroke-linecap="butt"/><path d="M232.85247,181.61266c0.12747,-1.19642 -1.28213,-3.33316 -0.04342,-2.62652c1.01083,0.57663 2.456,2.46497 1.37022,2.98338c-1.21091,0.57816 -2.46908,0.88252 -3.55158,1.30969c-1.1467,0.4525 2.09733,-0.47013 2.22479,-1.66654z" fill="#404040" stroke="none" stroke-width="0" stroke-linecap="butt"/><path d="M229.56858,182.0981c0,0 1.18883,-0.77693 1.88794,-1.05316c0.7764,-0.30677 2.56294,-0.70546 2.56294,-0.70546" data-paper-data="{&quot;index&quot;:null}" fill="none" stroke="#000000" stroke-width="0.2" stroke-linecap="round"/><path d="M230.01713,182.97735c0,0 1.18883,-0.77693 1.88794,-1.05316c0.7764,-0.30677 2.56294,-0.70546 2.56294,-0.70546" data-paper-data="{&quot;index&quot;:null}" fill="none" stroke="#000000" stroke-width="0.2" stroke-linecap="round"/><path d="M229.2967,181.28202c0,0 1.18883,-0.77693 1.88794,-1.05316c0.7764,-0.30677 2.56294,-0.70546 2.56294,-0.70546" data-paper-data="{&quot;index&quot;:null}" fill="none" stroke="#000000" stroke-width="0.2" stroke-linecap="round"/><path d="M229.34054,180.39739c0,0 1.02399,-0.7118 1.63402,-0.95283c0.67748,-0.26768 2.24978,-0.58171 2.24978,-0.58171" data-paper-data="{&quot;index&quot;:null}" fill="none" stroke="#000000" stroke-width="0.2" stroke-linecap="round"/><path d="M232.34171,178.65094c0,0 0.66999,0.8665 0.88903,1.39291c0.24325,0.58462 0.50551,1.95854 0.50551,1.95854" data-paper-data="{&quot;index&quot;:null}" fill="none" stroke="#000000" stroke-width="0.2" stroke-linecap="round"/><path d="M231.45914,179.08733c0,0 0.66999,0.8665 0.88903,1.39291c0.24325,0.58462 0.50551,1.95854 0.50551,1.95854" data-paper-data="{&quot;index&quot;:null}" fill="none" stroke="#000000" stroke-width="0.2" stroke-linecap="round"/><path d="M230.94845,183.29941c0,0 -0.74769,-1.18211 -0.96973,-1.77511c-0.19995,-0.53397 -0.30317,-1.6244 -0.30317,-1.6244" data-paper-data="{&quot;index&quot;:null}" fill="none" stroke="#000000" stroke-width="0.2" stroke-linecap="round"/><path d="M231.89096,183.01466c0,0 -0.74769,-1.18212 -0.96973,-1.77512c-0.19995,-0.53397 -0.30317,-1.62439 -0.30317,-1.62439" data-paper-data="{&quot;index&quot;:null}" fill="none" stroke="#000000" stroke-width="0.2" stroke-linecap="round"/></g><path d="M234.95006,192.14878l-0.8,-1.5l2,-1.5c0,0 3.56465,-1.7667 4.59758,-1.75004c1.03374,0.01667 1.60242,1.85004 1.60242,1.85004l1.84854,1.77826l-0.99525,0.12706l1.24671,1.49468l-4.60289,1.91523l1.31185,-2.70092l-1.04022,-1.75587l0.83455,1.8517l-1.21243,2.2179l-3.09831,-2.19979c0,0 -2.23653,1.73104 -2.89375,1.69193c-1.30676,-0.07779 1.2012,-1.52017 1.2012,-1.52017z" fill="#e4af72" stroke="#000000" stroke-width="0.3" stroke-linecap="butt"/><g><path d="M243.27325,185.38026c-0.20937,0.66972 -2.00783,0.70344 -4.01697,0.07531c-2.00914,-0.62813 -3.46813,-1.68024 -3.25876,-2.34996c0.12057,-0.38568 0.23867,-3.47817 1.81966,-4.21951c1.16439,-0.546 4.11501,1.00215 4.96715,1.26856c0.60232,0.1883 -1.97522,3.75328 -1.50191,3.99606c1.10548,0.56708 2.13746,0.7606 1.99085,1.22954z" data-paper-data="{&quot;index&quot;:null}" fill="#ffc380" stroke="#000000" stroke-width="0.3" stroke-linecap="butt"/><path d="M242.96416,179.84757c-0.33826,1.08199 -1.66725,-0.35582 -2.86022,-0.72878c-1.19297,-0.37296 -3.62563,1.54314 -3.28736,0.46113c0.01439,-0.04603 -1.26506,-0.63881 -1.56395,-1.47851c-0.2792,-0.7844 0.41764,-1.80983 0.51357,-2.10289c0.17844,-0.54513 1.82931,1.2093 1.93228,0.70998c0.2603,-1.26224 0.16674,-1.96803 0.72872,-2.23402c0.61286,-0.29006 1.76345,3.20636 2.23864,2.89049c1.05642,-0.70223 0.9859,-1.56722 1.52642,-1.39824c1.19297,0.37296 1.11018,2.79881 0.7719,3.8808z" data-paper-data="{&quot;index&quot;:null}" fill="#ff7c00" stroke="#000000" stroke-width="0.3" stroke-linecap="butt"/><path d="M234.51274,182.2588l1.11603,-4.01663l1.09744,1.74008l-0.66239,1.7836z" data-paper-data="{&quot;index&quot;:null}" fill="#ffc380" stroke="#000000" stroke-width="0.3" stroke-linecap="butt"/><path d="M235.07657,182.12075l0.67335,-2.22229l0.62945,0.96971l-0.25171,0.69791z" data-paper-data="{&quot;index&quot;:null}" fill="#bf9360" stroke="#000000" stroke-width="0.2" stroke-linecap="butt"/><path d="M235.83406,177.78388c-0.34694,1.10973 2.41615,2.24425 1.33415,1.90598c-1.08198,-0.33826 -2.0735,-1.30493 -1.72656,-2.41466c0.34694,-1.10973 0.40799,-1.64595 1.28113,-0.92292c0.85589,0.70873 -0.54178,0.32187 -0.88871,1.43161z" data-paper-data="{&quot;index&quot;:null}" fill="#bf5c00" stroke="none" stroke-width="0" stroke-linecap="butt"/><path d="M238.58941,176.02597c-0.34261,1.09587 -0.82813,0.33867 -0.62964,1.04388c0.04147,0.14736 -0.34095,0.29679 0.00166,-0.79906c0.34261,-1.09587 -0.14453,-1.29063 0.33459,-1.68757c0.14668,-0.12152 0.636,0.34688 0.29339,1.44275z" data-paper-data="{&quot;index&quot;:null}" fill="#bf5c00" stroke="none" stroke-width="0" stroke-linecap="butt"/><path d="M241.9975,176.67789c-1.02105,0.7941 -1.46756,1.96021 -1.11628,0.8366c0.35128,-1.12361 0.18543,-0.22112 0.92481,-1.28247c0.15774,-0.22641 1.25351,-0.38012 0.19147,0.44587z" data-paper-data="{&quot;index&quot;:null}" fill="#bf5c00" stroke="none" stroke-width="0" stroke-linecap="butt"/><path d="M242.39286,178.67638c-0.18401,0.58859 -0.86422,0.5498 -1.39872,0.25601c-0.44805,-0.24626 -0.71997,-0.69782 -1.22602,-0.85603c-1.10973,-0.34694 -2.38226,1.27013 -2.044,0.18812c0.33826,-1.08198 0.97825,-0.85218 2.08799,-0.50524c0.4135,0.12927 0.6321,0.54431 1.09256,0.562c0.77528,0.0298 1.70041,-0.3237 1.48818,0.35511z" data-paper-data="{&quot;index&quot;:null}" fill="#ff9c40" stroke="none" stroke-width="0" stroke-linecap="butt"/><path d="M240.92272,181.7912c-0.18648,0.59648 -0.5738,1.0062 -0.86511,0.91513c-0.29131,-0.09107 -0.30597,-1.22611 -0.30597,-1.22611l0.98128,-0.93395c0,0 0.37628,0.64845 0.1898,1.24493z" data-paper-data="{&quot;index&quot;:null}" fill="#ffffff" stroke="#000000" stroke-width="0.3" stroke-linecap="butt"/><path d="M239.81169,181.28831c0,0 0.87326,-0.86344 1.25217,-0.96883c0.24087,-0.06699 0.80129,0.39765 0.80129,0.39765" data-paper-data="{&quot;index&quot;:null}" fill="none" stroke="#000000" stroke-width="0.3" stroke-linecap="round"/><path d="M239.15391,181.27567c0,0 -0.66803,1.3076 -0.95934,1.21653c-0.29131,-0.09107 -0.3341,-0.78339 -0.09557,-1.54633c0.23853,-0.76294 0.95934,-1.21653 0.95934,-1.21653z" data-paper-data="{&quot;index&quot;:null}" fill="#ffffff" stroke="#000000" stroke-width="0.3" stroke-linecap="butt"/><path d="M237.35678,178.20479c0,0 1.13288,0.08817 1.42166,0.60194c0.32184,0.57256 0.42096,2.67618 0.42096,2.67618" data-paper-data="{&quot;index&quot;:null}" fill="none" stroke="#000000" stroke-width="0.3" stroke-linecap="round"/><path d="M237.5634,183.01175c0,0 0.56821,0.59563 1.07171,0.93514c0.63476,0.42801 2.43509,1.42951 2.43509,1.42951c0,0 -0.40955,-0.41058 -1.3031,-0.76442c-0.47614,-0.18855 -1.40897,-0.22387 -1.78311,-0.47616c-1.07628,-0.72573 -0.42059,-1.12408 -0.42059,-1.12408z" data-paper-data="{&quot;index&quot;:null}" fill="#ffffff" stroke="#000000" stroke-width="0.3" stroke-linecap="round"/></g><g stroke="#000000" stroke-width="0.3" stroke-linecap="butt"><g fill="#404040"><path d="M247.15902,184.44761c0,0 1.49125,-1.0482 1.30402,-1.34772c-0.21125,-0.33795 -0.67442,-1.07889 -0.67442,-1.07889l1.00021,-0.66692l1.14859,1.9634l-2.11378,1.64322z"/><path d="M244.60278,184.22554l-2.1119,-3.16733l6.72364,-4.48316l2.1119,3.16733z"/><path d="M246.7664,187.26918l-1.99663,-2.99446l1.1296,-0.7532c0,0 1.89294,1.30418 3.25612,1.75329c0.81419,0.26824 -2.38909,1.99434 -2.38909,1.99434z"/><path d="M245.12137,183.31785l-0.55577,-0.83351l5.00105,-3.33458l0.55576,0.83351z"/><path d="M243.90472,181.62982l-0.29641,-0.44454l5.00105,-3.33458l0.29641,0.44454z"/><path d="M248.13949,177.21157c0.51189,-0.34131 1.21713,-0.18264 1.57523,0.35443c0.3581,0.53706 0.23343,1.24912 -0.27846,1.59043c-0.51188,0.34131 -1.21712,0.18263 -1.57522,-0.35443c-0.3581,-0.53706 -0.23344,-1.24911 0.27845,-1.59042z"/><path d="M250.79144,178.57393l-1.07448,-1.61145l1.19469,-0.79659l1.07448,1.61145z"/><path d="M252.09403,177.77482l-1.11152,-1.66701l1.00942,-1.31523l1.77845,2.66723z"/></g><path d="M246.59164,187.4515c-0.44581,0.24988 -2.95711,-2.29348 -2.22108,-2.92423c0.84355,-0.72289 0.85204,-0.83907 1.16351,-1.05841c0.34446,-0.24257 0.84084,-0.44778 1.59933,-0.91309c0.17518,-0.10745 0.77018,0.34114 0.60475,0.89312c-0.06975,0.23276 -0.60216,0.57888 -0.82951,0.75605c-0.28727,0.22386 0.5547,-0.62482 1.20471,-0.36237c0.28365,0.11452 0.23361,0.71772 -0.68509,1.37072c-0.38735,0.27534 0.55342,-0.23308 1.07616,-0.59972c0.47119,-0.33049 0.87203,0.98497 0.84116,1.0085c-0.73768,0.5626 -0.53801,0.43384 -1.23361,0.9237c-0.69559,0.48985 -0.53785,0.35505 -1.52032,0.90572z" data-paper-data="{&quot;index&quot;:null}" fill="#ffc380"/></g><g stroke-linecap="butt"><path d="M241.5246,193.5805l2.62086,-0.78901l1.1212,0.76001c0,0 2.7591,1.68093 2.8369,1.73954c0.22699,0.17101 1.74974,1.65521 1.01809,2.50892c-0.7092,0.8275 -2.02911,0.72793 -3.07072,0.72793c-1.01775,0 -3.89861,0.68292 -5.07322,-0.23686c-1.40855,-1.10297 -1.03204,-3.84209 -1.03204,-3.84209z" fill="#ff0000" stroke="#000000" stroke-width="0.3"/><path d="M245.78777,198.63313c-1.45338,0 -5.94737,-1.50345 -5.94737,-2.57895c0,-1.0755 0.1782,-2.31579 1.63158,-2.31579c0.54263,0 0.92792,0.56938 1.65946,0.94318c1.22782,0.62738 2.76159,1.2776 2.76159,1.95156c0,1.0755 1.34812,2 -0.10526,2z" fill="#bf0000" stroke="none" stroke-width="0"/><path d="M247.93918,195.26473c0.37082,0 -0.96643,-0.08729 -0.96643,0.97368c0,1.06097 0.27834,1.71053 -0.09249,1.71053c-0.37083,0 -1.03986,-1.01798 -1.03986,-2.07895c0,-1.06096 1.72795,-0.60526 2.09878,-0.60526z" fill="#ff7b00" stroke="#000000" stroke-width="0.3"/><path d="M243.70883,194.54894c0,-1.06097 1.72796,-0.60527 2.09878,-0.60527c0.37082,0 -0.96643,-0.08728 -0.96643,0.97369c0,1.06097 0.27833,1.71052 -0.09249,1.71052c-0.37082,0 -1.03986,-1.01798 -1.03986,-2.07895z" fill="#ff7b00" stroke="#000000" stroke-width="0.3"/><path d="M249.52461,197.60684c0,0.39241 -0.16486,2.24292 -4.18421,2.23684c-3.95967,-0.00599 -5.56866,-2.68687 -5.55263,-3.07895c0.05263,-1.28715 1.69705,1.68649 5.39474,1.81579c4.11793,0.144 4.34211,-1.3661 4.34211,-0.97369z" fill="#fffdc0" stroke="#000000" stroke-width="0.3"/><path d="M241.80003,194.40776c0.63513,0 1.15,0.50167 1.15,1.12051c0,0.61884 -0.51487,1.12051 -1.15,1.12051c-0.63513,0 -1.15,-0.50167 -1.15,-1.12051c0,-0.61884 0.51487,-1.12051 1.15,-1.12051z" fill="#ff7b00" stroke="#000000" stroke-width="0.3"/></g><g stroke-linecap="butt"><path d="M240.02569,198.19948c0,0 1.55876,1.41997 1.00195,1.82209c-0.74138,0.53541 -0.2471,2.27308 -4.87032,2.2478c-2.98696,-0.01633 -2.08064,-4.82452 -2.10012,-6.50325c-0.02039,-1.75729 0.00949,-2.26458 0.00949,-2.26458l2.4564,-1.30437l2.50676,1.62017c0,0 0.15634,0.80898 0.01011,1.543c-0.0461,0.23141 0.98573,2.83914 0.98573,2.83914z" fill="#ff0000" stroke="#000000" stroke-width="0.3"/><path d="M240.95619,199.86996c-0.50944,0.79945 -0.5184,1.27724 -1.49874,1.74232c-0.53888,0.25565 -1.25618,0.56993 -2.92231,0.57346c-1.18079,0.00251 -1.13129,-0.09789 -1.45858,-0.28902c-0.57083,-0.33336 -0.89066,-0.94273 -0.85721,-1.76361c-0.02804,-1.60409 1.71398,-1.52632 2.78948,-1.52632c1.0755,0 4.55658,0.30713 3.94736,1.26316z" fill="#bf0000" stroke="none" stroke-width="0"/><path d="M236.80353,197.17024c-1.13363,0 -1.89473,0.4588 -1.89473,-0.07895c0,-0.53775 0.81373,-0.71052 1.94736,-0.71052c1.13363,0 2,0.33067 2,0.86841c0,0.53775 -0.919,-0.07895 -2.05263,-0.07895z" data-paper-data="{&quot;index&quot;:null}" fill="#ff7b00" stroke="#000000" stroke-width="0.3"/><path d="M236.75092,195.32812c-1.13363,0 -1.89473,0.45881 -1.89473,-0.07894c0,-0.53775 0.81373,-0.71053 1.94736,-0.71053c1.13363,0 2,0.33067 2,0.86841c0,0.53775 -0.919,-0.07895 -2.05263,-0.07895z" data-paper-data="{&quot;index&quot;:null}" fill="#ff7c00" stroke="#000000" stroke-width="0.3"/><path d="M241.27198,199.73838c0,0.39241 -0.32275,4.08503 -4.34211,4.07895c-3.95967,-0.00599 -3.14761,-3.31844 -3.13158,-3.71053c0.05263,-1.28715 -0.724,2.10754 2.97369,2.23684c4.11793,0.144 4.5,-2.99768 4.5,-2.60527z" fill="#fffdc0" stroke="#000000" stroke-width="0.3"/><path d="M237.06145,203.50154c0,0.21293 -0.83102,0.26316 -1.76316,-0.15789c-0.54611,-0.24668 -0.76031,-0.33884 -0.93729,-0.5632c-0.14494,-0.18375 -0.40482,-0.38557 -0.40482,-0.64733c0,-0.58135 -0.0604,-2.30041 -0.07895,-1.21053c-0.00791,0.46517 0.24997,1.33086 1.10584,1.83333c0.79035,0.464 2.07837,0.46652 2.07837,0.74562z" fill="#bfbfbf" stroke="none" stroke-width="0"/></g></g></g></svg>