<svg version="1.1" xmlns="http://www.w3.org/2000/svg" xmlns:xlink="http://www.w3.org/1999/xlink" width="22.77715" height="42.20134" viewBox="0,0,22.77715,42.20134"><g transform="translate(-229.07119,-172.86419)"><g data-paper-data="{&quot;isPaintingLayer&quot;:true}" fill-rule="nonzero" stroke-linejoin="miter" stroke-miterlimit="10" stroke-dasharray="" stroke-dashoffset="0" style="mix-blend-mode: normal"><g><path d="M244.04162,202.17309c0,1.12581 -1.11815,3.5 -2.30769,3.5c-1.18953,0 -1.53846,-2.29727 -1.53846,-3.42308c0,-1.12581 0.42584,0.80769 1.61538,0.80769c1.18954,0 2.23077,-2.01043 2.23077,-0.88462z" fill="#e480ff" stroke="#000000" stroke-width="0.3" stroke-linecap="butt"/><path d="M241.81085,205.59616l0.07692,-2.53846" fill="none" stroke="#000000" stroke-width="1" stroke-linecap="round"/><path d="M244.04657,202.4627c-2.26469,6.76621 0.84341,11.353 0.84341,11.353l-2.10847,0.20542c0,0 -0.23771,-2.2737 -1.07546,-2.27146c-1.12816,0.00302 -1.69795,2.28996 -1.69795,2.28996l-0.15803,-3.29852c0,0 0.05579,-0.03572 0.96048,-0.94141c0.96165,-0.9627 -0.08292,-5.25736 -0.53321,-7.02931c-0.53886,-2.1205 0.65548,2.73077 1.65384,2.73077c0.99836,0 2.70188,-5.14628 2.11539,-3.03846z" fill="#252525" stroke="#000000" stroke-width="0.3" stroke-linecap="butt"/><path d="M242.8158,213.96269l-0.61538,-2.15385l0.15385,-0.07692l1.53846,2.30769z" fill="#000000" stroke="none" stroke-width="0" stroke-linecap="butt"/></g><path d="M249.35349,185.56353c0,1.39884 -1.94861,1.02776 -2.37072,2.25391c-0.57743,1.67732 1.68032,5.44261 0.85036,6.9339c-0.51772,0.93026 -0.61391,-4.16053 -1.97222,-3.98859c-0.60142,0.07611 -1.07103,4.45085 -1.88169,5.39504c-1.39894,1.62937 -3.19609,0.17323 -3.98925,0.17323c-0.62798,0 -2.93285,0.7127 -4.07746,-0.63912c-1.05843,-1.25002 -0.95513,-4.5678 -1.63862,-4.67458c-1.32041,-0.20629 -1.00354,4.49178 -1.55615,3.62058c-0.79255,-1.24946 0.93827,-4.68145 0.37359,-6.29952c-0.43235,-1.23886 -2.46491,-1.35826 -2.46491,-2.77485c0,-0.35669 -0.12991,-1.95266 0.27947,-2.9611c0.43836,-1.07983 1.41498,-1.56946 1.31786,-1.76219c-0.39073,-0.77531 -3.6087,1.67052 -2.90134,0.49633c1.69017,-2.8056 7.4748,-6.5405 10.66755,-6.5405c2.52206,0 3.79686,3.13885 5.48042,5.0035c0.18341,0.20314 0.65905,0.73513 1.02204,0.616c0.75095,-0.24646 1.53152,-1.41264 1.83212,-0.95679c0.22939,0.34787 -0.4963,1.68697 -1.27539,2.32828c-0.65343,0.53789 -1.36754,0.35991 -1.36225,0.88301c0.00641,0.63198 1.25007,-0.0011 2.03492,0.35693c1.01575,0.46336 1.63165,1.88242 1.63165,2.53656z" fill="#800000" stroke="#000000" stroke-width="0.3" stroke-linecap="butt"/><g stroke="#000000" stroke-width="0.3"><path d="M238.64863,195.59663c0,0 0.76838,-2.21303 0.76087,-3.3065c-0.00623,-0.90698 -0.8028,-2.80007 -0.8028,-2.80007l-0.0295,-4.2961h2.45l-0.07143,4.6081c0,0 2.6647,0.17592 2.60476,3.0074c-0.10106,1.03494 -2.37914,3.00205 -2.37914,3.00205l-0.04866,2.86733c0,0 1.41422,0.54784 1.87956,0.932c0.5737,0.47364 1.30613,1.6981 1.30613,1.6981c0,0 -0.94905,1.94914 -2.13708,2.0034c-0.8123,0.03708 -1.58748,-1.82278 -2.15406,-1.79694c-0.54242,0.02478 2.02777,3.42702 -2.00052,3.43864c-1.86273,0.00536 -1.5869,-3.28537 -1.5869,-3.28537c0,0 2.16289,-1.86243 2.33678,-2.88246c0.14788,-0.86747 -0.12801,-3.18961 -0.12801,-3.18961z" fill="#ff0000" stroke-linecap="butt"/><path d="M240.72103,189.68484l0.14285,-4.41829c0,0 1.25803,0.22243 2.1,1.23423c0.84197,1.01176 0.72857,3.39149 0.72857,3.39149c0,0 0.68238,1.90434 0.70233,2.81331c0.02021,0.92066 -0.58185,2.67608 -0.58185,2.67608l0.54841,5.91577c0,0 -0.26821,-0.58429 -1.53569,-1.49931c-2.02916,-1.46492 -1.95656,-1.17831 -1.95656,-1.17831l0.01242,-3.00719c0,0 2.15729,-0.03066 2.4156,-3.11712c0.11684,-2.62055 -2.5761,-2.8106 -2.5761,-2.8106z" fill="#404040" stroke-linecap="butt"/><path d="M235.86882,189.41978c0,0 -0.32769,-2.06857 0.51429,-3.08035c0.84197,-1.01177 2.1,-1.23423 2.1,-1.23423l0.07143,4.31457c0,0 0.72562,2.00259 0.73176,2.97388c0.00682,1.08065 -0.69266,3.21703 -0.69266,3.21703c0,0 0.22785,2.37831 0.0324,3.35246c-0.19772,0.98547 -1.21199,2.52678 -1.21199,2.52678l-1.04837,0.06455c0,0 -0.18078,-2.42237 0.04813,-3.20651c0.19795,-0.67808 1.246,-1.22652 1.246,-1.22652l-0.39488,-4.46563z" data-paper-data="{&quot;index&quot;:null}" fill="#404040" stroke-linecap="butt"/><path d="M244.31223,193.12095c0,0 0.13097,2.42522 -1.78063,2.13226c-0.55343,-0.08482 -1.7908,-2.02851 -1.7908,-2.02851" fill="none" stroke-linecap="round"/><path d="M240.2408,191.25408c0,0 0.31743,1.07382 -0.8705,2.14355c-1.50333,1.35374 -1.84379,-0.79526 -1.84379,-0.79526" fill="none" stroke-linecap="round"/></g><g stroke="#000000"><path d="M240.19546,203.78848c0,1.04084 -1.22952,2.03846 -2.46154,2.03846c-1.23202,0 -1.46154,-1.61301 -1.46154,-2.65385c0,-1.04085 0.22952,1.03846 1.46154,1.03846c1.23202,0 2.46154,-1.46392 2.46154,-0.42308z" fill="#e480ff" stroke-width="0.3" stroke-linecap="butt"/><path d="M237.73392,204.36539v1.23077" fill="none" stroke-width="1" stroke-linecap="round"/><path d="M237.68518,206.4827c0.99836,0 2.80809,-4.00512 2.26923,-1.88462c-0.45029,1.77194 -2.8035,6.81687 -2.8035,6.81687l-0.85034,2.76005c0,0 -0.33902,-1.51771 -1.46718,-1.52073c-0.83775,-0.00224 -1.30623,1.50223 -1.30623,1.50223l-2.10847,-0.20542c0,0 6.56964,-2.97141 4.30495,-9.73762c-0.58649,-2.10782 0.96318,2.26923 1.96154,2.26923z" data-paper-data="{&quot;index&quot;:null}" fill="#252525" stroke-width="0.3" stroke-linecap="butt"/></g><path d="M238.22817,184.88774l-0.1,-1.32381c0,0 0.70379,0.16122 1.25476,0.17143c0.55097,0.01021 1.63571,-0.3119 1.63571,-0.3119l-0.29047,1.36428z" fill="#e480ff" stroke="#000000" stroke-width="0.3" stroke-linecap="butt"/><path d="M240.82792,184.63864c0.11495,0.77023 -0.62039,1.32361 -1.40909,1.27273c-0.7887,-0.05089 -1.56638,-0.64779 -1.40909,-1.45455" fill="none" stroke="#fff700" stroke-width="0.3" stroke-linecap="round"/><path d="M240.23146,175.02759c0,0 0.40914,-1.4551 0.75009,-1.84857c0.12518,-0.14447 0.74174,-0.27619 1.16226,-0.01742c0.59299,0.36491 1.01419,1.1993 1.01419,1.1993c0,0 1.74927,0.49662 1.65956,0.68121c-0.02477,0.05095 0.54838,1.38054 0.54838,1.38054l-0.62695,1.26487c0,0 -0.04664,-1.50441 -0.52961,-1.92774c-0.39867,-0.34945 -1.55782,-0.35679 -1.55782,-0.35679c0,0 -0.6547,-1.84943 -0.97767,-1.7019c-0.31049,0.14182 -0.51063,1.98826 -0.51063,1.98826z" fill="#800000" stroke="#000000" stroke-width="0.3" stroke-linecap="butt"/><g><path d="M233.55075,188.22944l3.11855,0.81479l1.24061,2.0161l-1.50829,5.77005c0,0 -1.21232,3.64052 -2.39781,3.65764c-1.08312,-0.05745 -0.75828,0.15448 -1.31252,-0.79834c-1.47168,-2.53004 -1.06511,-1.58767 -1.06511,-1.58767l3.54076,-3.08627z" fill="#404040" stroke="#000000" stroke-width="0.3" stroke-linecap="butt"/><path d="M235.34008,199.38996c0,0.52634 -0.2631,2.05266 -1.46215,2.05266c-1.19905,0 -1.28492,-1.453 -1.28492,-1.97934c0,-0.52634 0.08587,0.95302 1.28492,0.95302c1.19905,0 1.46215,-1.55267 1.46215,-1.02633z" fill="#fff700" stroke="#000000" stroke-width="0.3" stroke-linecap="butt"/><path d="M235.28901,200.15411c0,0.52634 -0.2631,2.05266 -1.46215,2.05266c-1.19905,0 -1.28492,-1.45301 -1.28492,-1.97935c0,-0.52634 0.08587,0.95301 1.28492,0.95301c1.19905,0 1.46215,-1.55267 1.46215,-1.02632z" fill="#fff700" stroke="#000000" stroke-width="0.3" stroke-linecap="butt"/><path d="M235.07423,204.66823l-0.9587,-0.78361l1.2031,-1.03516l-1.27596,0.95332l-1.12236,-0.51023l-1.08575,-1.12177l0.75844,-1.02139c0,0 0.51759,0.95302 1.152,0.95302c0.66394,0 1.41784,-1.02632 1.41784,-1.02632l0.62031,0.95302l1.63573,-0.23404l0.08859,1.31904z" fill="#e480ff" stroke="#000000" stroke-width="0.3" stroke-linecap="butt"/><path d="M231.70685,201.95578c0,0 -0.83985,-0.69081 -0.17723,-1.39288c0.52802,-0.55946 1.26782,0.3703 1.26782,0.3703z" fill="#808080" stroke="#000000" stroke-width="0.3" stroke-linecap="butt"/><g><path d="M236.97411,203.25825l0.3889,0.32903l-1.42412,1.15805l-0.3889,-0.32903z" fill="#808080" stroke="#000000" stroke-width="0.1" stroke-linecap="butt"/><path d="M237.73529,203.27447l0.27361,0.25172l-1.88283,1.59387l-0.27361,-0.25171z" fill="#bfbfbf" stroke="#000000" stroke-width="0.1" stroke-linecap="butt"/><path d="M237.42279,206.6014c-0.72096,-0.2268 -2.03708,-1.01585 -1.32841,-1.52157c0.66846,-0.47702 1.20957,-0.94388 1.90555,-1.47542c0.56675,-0.43284 1.68269,1.21522 1.40853,1.81165c-0.27416,0.59643 -1.26472,1.41214 -1.98568,1.18534z" fill="#808080" stroke="#000000" stroke-width="0.1" stroke-linecap="butt"/><path d="M237.77309,204.50427c-0.78533,-0.24705 -2.38486,1.18303 -1.74077,0.71055c0.60805,-0.44603 1.1951,-1.01465 1.93774,-1.48736c0.6659,-0.42387 1.38522,0.81423 1.42494,1.48571c0.04868,0.82286 -0.83659,-0.46185 -1.62192,-0.7089z" fill="#404040" stroke="none" stroke-width="0" stroke-linecap="butt"/><path d="M238.93466,204.23587c0,0 -0.81275,0.81617 -1.24911,1.13597c-0.3929,0.28797 -1.25234,0.69734 -1.25234,0.69734" data-paper-data="{&quot;index&quot;:null}" fill="none" stroke="#000000" stroke-width="0.1" stroke-linecap="round"/><path d="M238.52885,203.77495c0,0 -0.81275,0.81619 -1.24909,1.13598c-0.3929,0.28797 -1.25236,0.69734 -1.25236,0.69734" data-paper-data="{&quot;index&quot;:null}" fill="none" stroke="#000000" stroke-width="0.1" stroke-linecap="round"/><path d="M239.35698,204.58924c0,0 -0.81275,0.81618 -1.2491,1.13598c-0.3929,0.28797 -1.25235,0.69733 -1.25235,0.69733" data-paper-data="{&quot;index&quot;:null}" fill="none" stroke="#000000" stroke-width="0.1" stroke-linecap="round"/><path d="M239.60301,205.03146c0,0 -0.69234,0.72794 -1.07308,1.00699c-0.34285,0.25127 -1.10965,0.59275 -1.10965,0.59275" data-paper-data="{&quot;index&quot;:null}" fill="none" stroke="#000000" stroke-width="0.1" stroke-linecap="round"/><path d="M237.80963,203.94711c0,0 0.77275,0.49423 1.05996,0.77236c0.25861,0.25044 0.58652,0.82209 0.58652,0.82209" data-paper-data="{&quot;index&quot;:null}" fill="none" stroke="#000000" stroke-width="0.1" stroke-linecap="round"/><path d="M237.259,204.28773c0,0 0.77275,0.49424 1.05995,0.77236c0.25861,0.25044 0.58652,0.82208 0.58652,0.82208" data-paper-data="{&quot;index&quot;:null}" fill="none" stroke="#000000" stroke-width="0.1" stroke-linecap="round"/><path d="M237.83592,206.58865c0,0 -0.64645,-0.33819 -0.91579,-0.58077c-0.29913,-0.26938 -0.79903,-0.96357 -0.79903,-0.96357" data-paper-data="{&quot;index&quot;:null}" fill="none" stroke="#000000" stroke-width="0.1" stroke-linecap="round"/><path d="M238.31104,206.17752c0,0 -0.64644,-0.33819 -0.91578,-0.58077c-0.29913,-0.26938 -0.79905,-0.96358 -0.79905,-0.96358" data-paper-data="{&quot;index&quot;:null}" fill="none" stroke="#000000" stroke-width="0.1" stroke-linecap="round"/></g></g><path d="M238.22864,187.76386c0.63623,0 0.17723,0.34911 0.17723,1.10769c0,0.75858 -0.33854,1.90523 -0.97477,1.90523c-0.63623,0 -1.152,-0.70357 -1.152,-1.46215c0,-0.75859 1.31331,-1.55077 1.94954,-1.55077z" fill="#404040" stroke="none" stroke-width="0" stroke-linecap="butt"/><g><path d="M235.92198,181.81575l0.7769,-6.00055c0,0 0.42065,0.07049 0.69249,0.28255c0.22084,0.17229 0.73921,0.63027 0.73921,0.63027c0,0 0.07691,-0.44424 0.32342,-0.59034c0.25421,-0.15067 0.74639,-0.09286 0.94447,-0.07468c0.21288,0.01954 0.70366,0.13955 0.97855,0.33543c0.31178,0.22215 0.65132,0.5888 0.65132,0.5888c0,0 0.48949,-0.27156 0.72794,-0.36274c0.45664,-0.17461 0.94444,-0.25835 0.94444,-0.25835l-0.55226,3.86199l1.92961,2.44061c0,0 -2.56927,1.68872 -4.35865,1.50158c-1.78936,-0.18714 -3.79749,-2.35458 -3.79749,-2.35458z" fill="#e480ff" stroke="#000000" stroke-width="0.3" stroke-linecap="butt"/><path d="M239.20467,178.92718c0,0 -2.09053,1.08818 -1.95422,-0.07748c0.13629,-1.16567 0.32289,-1.90036 0.32289,-1.90036z" fill="#000000" stroke="none" stroke-width="0" stroke-linecap="butt"/><path d="M241.64559,177.4255c0,0 0.01206,0.75792 -0.12424,1.92359c-0.13629,1.16567 -1.91938,-0.37545 -1.91938,-0.37545z" data-paper-data="{&quot;index&quot;:null}" fill="#000000" stroke="none" stroke-width="0" stroke-linecap="butt"/><path d="M237.95364,179.9294l-0.2919,-0.90397l-0.78245,-0.51733l0.94763,-0.20622l0.3889,-0.85047l0.1702,0.90206l0.66893,0.40903l-0.68767,0.22283z" fill="#ff0000" stroke="none" stroke-width="0" stroke-linecap="butt"/><path d="M240.69665,180.14945l-0.2919,-0.90397l-0.78245,-0.51733l0.94763,-0.20622l0.3889,-0.85047l0.1702,0.90206l0.66893,0.40903l-0.68767,0.22283z" fill="#ff0000" stroke="none" stroke-width="0" stroke-linecap="butt"/><path d="M241.44953,176.94951l-2.04072,1.52331l-1.47364,-2.03491" fill="none" stroke="#000000" stroke-width="0.2" stroke-linecap="round"/><path d="M240.55927,181.98016c-0.03849,0.32913 -0.39724,-0.65054 -0.97321,-0.71788c-0.57597,-0.06734 -1.07237,0.56063 -1.03388,0.2315c0.03849,-0.32913 -0.05674,-1.06379 0.51924,-0.99644c0.10126,0.01184 0.32896,0.32262 0.56294,0.33641c0.31138,0.01834 0.6453,-0.25512 0.81809,-0.18549c0.4358,0.17562 0.12954,1.13768 0.10683,1.33192z" fill="#ff0000" stroke="#000000" stroke-width="0.2" stroke-linecap="butt"/><path d="M240.38996,182.13655c-0.05932,0.5074 -0.57324,0.71326 -1.10807,0.65072c-0.53484,-0.06253 -0.88806,-0.36978 -0.82873,-0.87719c0.05932,-0.5074 0.36939,0.16905 0.90422,0.23158c0.53484,0.06253 1.09191,-0.51252 1.03258,-0.00512z" fill="#ff0000" stroke="#000000" stroke-width="0.2" stroke-linecap="butt"/><path d="M239.34416,182.03944c-0.52112,-0.06093 -0.72924,-0.22123 -0.69556,-0.50923c0.03368,-0.28799 0.2996,-0.1915 0.82072,-0.13057c0.52112,0.06093 0.79633,0.07806 0.76265,0.36604c-0.03368,0.28799 -0.36668,0.33468 -0.8878,0.27374z" fill="#ffffff" stroke="#000000" stroke-width="0.2" stroke-linecap="butt"/><path d="M237.83307,180.75526l0.65202,0.88169" fill="none" stroke="#000000" stroke-width="0.2" stroke-linecap="round"/><path d="M241.35646,181.62031l-0.85266,0.40371" fill="none" stroke="#000000" stroke-width="0.2" stroke-linecap="round"/><path d="M238.50259,181.3133c0,0 0.06534,-0.5491 0.32497,-0.7291c0.25964,-0.18001 0.64003,0.2666 0.64003,0.2666c0,0 0.35034,0.33025 0.19224,0.40603c-0.1581,0.07577 -1.15724,0.05646 -1.15724,0.05646z" fill="#000000" stroke="none" stroke-width="0" stroke-linecap="butt"/><path d="M239.24642,182.17728c0.17201,0.24276 0.17237,0.42923 -0.10623,0.57821c-0.27859,0.14898 -0.59962,-0.3857 -0.59962,-0.3857c0,0 -0.28241,-0.60481 -0.11665,-0.66191c0.16576,-0.0571 0.65049,0.22664 0.82251,0.4694z" fill="#000000" stroke="none" stroke-width="0" stroke-linecap="butt"/></g><g><path d="M234.00647,180.71274l0.69092,-3.33882l1.17605,1.68795l-0.57994,1.81209z" fill="#e480ff" stroke="#000000" stroke-width="0.3" stroke-linecap="butt"/><path d="M234.61267,180.6112l0.38912,-1.56003l0.67323,0.93984l-0.21945,0.70871z" fill="#ab60bf" stroke="#000000" stroke-width="0.2" stroke-linecap="butt"/><path d="M235.29621,181.05736c-0.08472,0.77414 0.11916,1.20971 -0.63067,0.95992c-0.74982,-0.2498 -0.18085,-0.81585 0.17645,-1.55609" fill="none" stroke="#fff700" stroke-width="0.3" stroke-linecap="round"/></g><g stroke="#000000" stroke-width="0.3" stroke-linecap="butt"><path d="M249.81697,201.50046c-0.31959,0.2172 -1.0507,0.80786 -1.3638,0.87943c-0.38821,0.08874 0.02637,-0.75259 -0.15368,-0.92207c-0.18526,-0.17437 -1.08159,0.10721 -0.89523,-0.19443c0.14084,-0.22797 0.92666,-0.66221 1.2348,-0.87163c0.71583,-0.4865 1.55981,-0.6327 1.88509,-0.32653c0.32528,0.30616 0.00866,0.94872 -0.70718,1.43522z" fill="#e480ff"/><path d="M249.34937,196.29075l-8.31083,-8.69031l2.44691,-1.89549l7.88365,10.25999l-0.88574,4.4391c0,0 0.1389,-2.34732 -0.18433,-2.67746c-0.27114,-0.27696 -1.6264,0.82803 -1.6264,0.82803z" fill="#404040"/><path d="M250.47331,200.02852c-0.41486,1.09887 0.48267,-1.24027 -0.56135,-1.50351c-1.088,-0.27432 -2.20211,1.51211 -1.61108,0.49707c0.70173,-1.20519 0.87135,-1.40116 1.91092,-1.12085c0.701,0.18901 0.91936,0.38488 0.26152,2.12729z" fill="#fff700"/><path d="M249.67934,199.26196c-1.088,-0.27432 -2.20211,1.51211 -1.61108,0.49707c0.70173,-1.20519 0.87135,-1.40116 1.91092,-1.12085c0.70099,0.18901 0.91935,0.38489 0.26151,2.1273c-0.41487,1.09887 0.48267,-1.24028 -0.56135,-1.50352z" fill="#fff700"/><path d="M249.8002,203.31122c-0.37174,0.14283 -0.08048,-0.74873 -0.28272,-0.89099c-0.20809,-0.14638 -1.05551,0.2593 -0.91374,-0.06569c0.10714,-0.24562 0.82355,-0.78677 1.09892,-1.03771c0.63973,-0.58297 1.45449,-0.84722 1.81985,-0.5902c0.36536,0.257 0.14292,0.93793 -0.4968,1.5209c-0.28561,0.26027 -0.9257,0.9485 -1.22551,1.0637z" fill="#e480ff"/><path d="M248.27456,203.61644c-0.90852,0.91043 -1.69108,1.76091 -1.69108,1.76091c0,0 0.10044,-1.02565 1.00897,-1.93609c0.90852,-0.91043 1.71458,-1.30595 2.15866,-0.48202c0.19076,0.35391 -0.56802,-0.25323 -1.47654,0.6572z" fill="#ff0000"/><path d="M247.0649,202.71512c-0.90852,0.91043 -1.69108,1.76091 -1.69108,1.76091c0,0 0.10044,-1.02566 1.00896,-1.93609c0.90852,-0.91043 1.71458,-1.30596 2.15866,-0.48202c0.19076,0.35391 -0.56802,-0.25323 -1.47655,0.6572z" fill="#ff0000"/><path d="M248.68267,200.37713c-0.28561,0.26027 -0.9257,0.9485 -1.22551,1.0637c-0.37173,0.14283 -0.08047,-0.74873 -0.28271,-0.891c-0.20808,-0.14638 -1.05551,0.2593 -0.91374,-0.06569c0.10714,-0.24562 0.82355,-0.78678 1.09891,-1.03772c0.63973,-0.58297 1.45449,-0.84722 1.81985,-0.5902c0.36536,0.257 0.14292,0.93794 -0.4968,1.52091z" fill="#e480ff"/><path d="M245.93153,201.74606c-0.90852,0.91043 -1.69108,1.7609 -1.69108,1.7609c0,0 0.10044,-1.02565 1.00896,-1.93608c0.90852,-0.91043 1.71458,-1.30596 2.15866,-0.48203c0.19076,0.35391 -0.56802,-0.25323 -1.47655,0.65721z" fill="#ff0000"/><path d="M247.54933,199.40805c-0.2856,0.26027 -0.92569,0.9485 -1.2255,1.06369c-0.37174,0.14283 -0.08048,-0.74873 -0.28272,-0.89099c-0.20809,-0.14638 -1.05552,0.2593 -0.91375,-0.06569c0.10714,-0.24562 0.82355,-0.78677 1.09892,-1.03771c0.63972,-0.58297 1.45449,-0.84723 1.81985,-0.59021c0.36535,0.25701 0.14291,0.93795 -0.49681,1.52091z" fill="#e480ff"/><path d="M244.79817,200.77698c-0.90852,0.91043 -1.69108,1.76091 -1.69108,1.76091c0,0 0.10044,-1.02565 1.00896,-1.93609c0.90852,-0.91043 1.71458,-1.30595 2.15867,-0.48202c0.19076,0.35391 -0.56802,-0.25323 -1.47654,0.6572z" fill="#ff0000"/></g></g></g></svg>