<svg version="1.1" xmlns="http://www.w3.org/2000/svg" xmlns:xlink="http://www.w3.org/1999/xlink" width="15.75427" height="27.9658" viewBox="0,0,15.75427,27.9658"><g transform="translate(-231.85343,-174.49959)"><g data-paper-data="{&quot;isPaintingLayer&quot;:true}" fill-rule="nonzero" stroke-linejoin="miter" stroke-miterlimit="10" stroke-dasharray="" stroke-dashoffset="0" style="mix-blend-mode: normal"><g><path d="M241.97773,182.70371c0.01343,0.70102 -0.39005,0.58256 -0.4649,1.21166c-0.10241,0.86059 0.39708,2.66932 0.24107,3.44542c-0.09732,0.48413 -0.16592,-2.06375 -0.44304,-1.93054c-0.1227,0.05898 -0.17709,2.26762 -0.33439,2.76888c-0.27146,0.86501 -0.65426,0.19753 -0.81704,0.22501c-0.12888,0.02176 -0.59506,0.45877 -0.84294,-0.17904c-0.22922,-0.58977 -0.23986,-2.25603 -0.38116,-2.28587c-0.27297,-0.05764 -0.16284,2.28579 -0.28461,1.86835c-0.17464,-0.5987 0.14763,-2.37859 0.01621,-3.1699c-0.10062,-0.60587 -0.5189,-0.5953 -0.5325,-1.30521c-0.00342,-0.17875 -0.0454,-0.97406 0.02893,-1.49361c0.0796,-0.55634 0.27533,-0.83555 0.25355,-0.92877c-0.08763,-0.37501 -0.72457,0.96218 -0.59067,0.34924c0.31994,-1.46456 1.47126,-3.53668 2.1265,-3.64728c0.5176,-0.08737 0.80934,1.44148 1.17276,2.31761c0.03959,0.09545 0.14231,0.34557 0.21566,0.27329c0.15175,-0.14953 0.30075,-0.76099 0.36682,-0.54296c0.05042,0.16639 -0.08566,0.8626 -0.2394,1.21098c-0.12894,0.2922 -0.2772,0.22774 -0.2711,0.48972c0.00738,0.3165 0.25654,-0.04386 0.42105,0.10838c0.2129,0.19702 0.35293,0.88683 0.3592,1.21465z" fill="#800000" stroke="#000000" stroke-width="0.3" stroke-linecap="butt"/><path d="M247.4577,182.94211c-0.05696,0.69936 -1.80397,1.12779 -3.90206,0.95691c-2.09809,-0.17088 -3.75275,-0.87636 -3.69579,-1.57573c0.0328,-0.40275 -0.53212,-3.4455 0.84712,-4.5164c1.0158,-0.78871 4.23466,0.07261 5.12452,0.14509c0.62899,0.05123 -1.10141,4.09579 -0.5863,4.22853c1.20313,0.31007 2.2524,0.27189 2.21252,0.76159z" fill="#ffc380" stroke="#000000" stroke-width="0.3" stroke-linecap="butt"/><path d="M245.7339,178.51559c-0.03767,0.46255 -0.50528,1.95956 -0.50528,1.95956c0,0 -0.92132,-1.40687 -1.09135,-1.42072c-0.28485,-0.0232 -1.61574,1.40607 -1.61574,1.40607l-2.56629,-0.34585c0,0 0.02164,-0.53932 0.0792,-0.80488c0.05639,-0.26021 0.26271,-0.77278 0.26271,-0.77278c0,0 2.387,0.46743 2.39253,0.39954c0.05124,-0.6291 1.18293,-1.05029 1.82514,-0.99798c0.6422,0.05231 1.27032,-0.05205 1.21908,0.57706z" fill="#bf9360" stroke="none" stroke-width="0" stroke-linecap="butt"/><path d="M245.74428,174.88493c-0.00197,0.04028 -0.2117,0.00853 -0.31168,0.51872c-0.11864,0.60537 -0.12642,1.32347 0.04999,1.1709c0.19132,-0.16546 0.86527,-0.80347 1.07682,-0.7698c0.50442,0.08031 0.4611,0.87203 0.57518,1.06748c0.20029,0.34315 -0.11994,1.97591 -0.54487,2.40103c-0.26259,0.26271 -0.12621,-1.48143 -0.1873,-1.40665c-0.09263,0.11338 -0.21144,0.93438 -0.67219,1.26435c-0.11061,0.07921 -0.03729,-0.32996 -0.11279,-0.71576c-0.06703,-0.34251 -0.28202,-0.66063 -0.38571,-0.69195c-0.07716,-0.0233 -0.03565,0.27628 -0.08182,0.59354c-0.04134,0.28411 -0.17037,0.5895 -0.23363,0.57378c-0.17927,-0.04458 -0.14608,-0.52946 -0.40915,-0.86812c-0.28151,-0.36241 -0.92394,-0.10399 -0.97769,-0.11129c-0.22844,-0.031 -0.83738,0.87375 -0.83738,0.87375c0,0 -2.71684,-0.24901 -2.63453,-0.72615c0.18921,-1.0968 3.33714,-2.99101 3.82501,-2.92481c0.32015,0.04344 0.76618,1.07425 1.01551,1.23385c0.13335,0.08535 0.16366,-0.68112 0.32898,-1.20613c0.20152,-0.63996 0.53387,-0.61667 0.51725,-0.27674z" fill="#800000" stroke="#000000" stroke-width="0.3" stroke-linecap="butt"/><path d="M243.1872,177.18953l-2.16595,-0.18747l1.03198,-0.91611l1.17726,0.15434c0,0 0.51449,0.29533 0.8949,0.33664c0.11436,0.01241 0.57564,-0.33207 0.57564,-0.33207l0.40498,0.5005l0.4637,-0.11391c0,0 0.35872,0.14966 0.57763,0.15402c0.28109,0.0056 0.96953,-0.12319 0.96953,-0.12319c0,0 0.0522,0.39749 0.03934,0.57786c-0.01177,0.16503 -0.06038,0.47017 -0.06038,0.47017c0,0 -0.71389,0.03221 -0.98887,-0.03009c-0.20959,-0.04748 -0.57191,-0.31923 -0.57191,-0.31923l-0.43889,0.20286l-0.35135,-0.47877c0,0 -0.47059,0.48924 -0.6113,0.47055c-0.35951,-0.04774 -0.94629,-0.3661 -0.94629,-0.3661z" fill="#bf2e00" stroke="none" stroke-width="0" stroke-linecap="butt"/><path d="M244.75718,180.29062c-0.05017,0.61599 -0.51583,1.08074 -1.04008,1.03804c-0.52424,-0.0427 -0.90857,-0.57667 -0.85839,-1.19267c0.05017,-0.61599 0.53237,-0.69718 1.05662,-0.65449c0.52424,0.0427 0.89203,0.19312 0.84186,0.80911z" fill="#000000" stroke="none" stroke-width="0" stroke-linecap="butt"/><path d="M242.85552,179.59017c0.65369,-0.57961 2.32177,0.23688 2.32177,0.23688" data-paper-data="{&quot;index&quot;:null}" fill="none" stroke="#000000" stroke-width="0.3" stroke-linecap="round"/><path d="M244.02571,179.2994c0,0 -0.94902,-0.2402 -0.45637,-0.84938" data-paper-data="{&quot;index&quot;:null}" fill="none" stroke="#000000" stroke-width="0.2" stroke-linecap="round"/><path d="M244.63498,179.44456c0,0 -0.94902,-0.2402 -0.45637,-0.84938" data-paper-data="{&quot;index&quot;:null}" fill="none" stroke="#000000" stroke-width="0.2" stroke-linecap="round"/><path d="M244.13612,183.01211c-0.45507,-0.03706 -0.82675,-0.85374 -0.82675,-0.85374l1.75609,0.14303c0,0 -0.47426,0.74778 -0.92933,0.71071z" fill="#ff8080" stroke="#000000" stroke-width="0.2" stroke-linecap="butt"/><path d="M239.50959,178.36706l1.58066,-0.63974" fill="none" stroke="#800000" stroke-width="0.7" stroke-linecap="round"/></g><g stroke="#000000" stroke-width="0.3"><g><path d="M242.08667,188.83262c-3.02517,2.62112 -1.55116,1.16986 -3.09002,2.6431c0.60826,2.62973 -0.9852,3.81218 -2.34228,2.29694c-1.69165,-1.88881 -0.19618,-2.83526 1.55018,-3.35609c0.76024,-0.47515 -0.20706,-0.45471 4.5325,-4.14451c1.75993,-1.37013 0.20221,-2.71465 0.89725,-1.88368c0.69504,0.83097 1.3477,1.93562 -1.54764,4.44425z" fill="#ffc380" stroke-linecap="butt"/><path d="" fill="none" stroke-linecap="round"/></g><path d="M238.54841,194.18c0,0 -1.44002,-0.59172 -1.59017,-0.91347c-0.05641,-0.12087 -0.20311,-1.21567 -0.05891,-1.38587c0.10953,-0.12929 1.14978,0.10996 1.28613,0.37736c0.13265,0.26017 -0.63705,0.54698 -0.63705,0.54698" fill="none" stroke-linecap="round"/></g><g stroke="#000000" stroke-width="0.3" stroke-linecap="butt"><path d="M238.44647,190.10763c0.65919,0.06862 0.42408,-0.17045 0.70115,0.14675c0.17829,0.20412 0.4933,0.68873 0.4933,1.5477c0,1.45989 -0.39311,3.85509 -0.8605,5.28602c-0.23496,0.71936 0.38039,2.03209 -0.76632,2.01228c-1.07333,0.06803 -0.09521,-1.62121 -0.1502,-2.26141c-0.06296,-0.73299 -0.38965,-1.36587 -0.38965,-2.53689c0,-2.1938 0.43855,-4.25 0.97223,-4.19445z" data-paper-data="{&quot;index&quot;:null}" fill="#ffc380"/><path d="M237.88409,199.3154c1.05654,0 0.95652,-2.90146 0.95652,-1.76087c0,0.49435 0.39904,1.60656 0.27281,2.4583c-0.16502,1.11345 -0.80168,2.10982 -1.05542,2.08518c-0.16318,-0.01584 -1.04196,-0.88555 -1.22293,-2.00612c-0.1694,-1.04889 0.83163,-2.29026 0.83163,-2.84171c0,-1.14059 -0.83915,2.06522 0.21739,2.06522z" data-paper-data="{&quot;index&quot;:null}" fill="#ff0000"/></g><g stroke="#000000" stroke-width="0.3" stroke-linecap="butt"><path d="M242.11832,194.31435c0,1.03968 0.27545,1.99212 0.36374,2.66074c0.09802,0.74222 0.59348,2.10332 -0.64514,2.05786c-1.18467,-0.04348 -0.38418,-1.39273 -0.68205,-2.11184c-0.57423,-1.38627 -1.20322,-3.66227 -1.20322,-5.10675c0,-0.85897 0.315,-1.34358 0.49329,-1.5477c0.27706,-0.3172 0.04196,-0.07813 0.70115,-0.14675c0.53367,-0.05555 0.97222,2.00064 0.97222,4.19445z" fill="#ffc380"/><path d="M242.66939,197.4241c0,0.55145 0.52276,1.83629 0.35336,2.88518c-0.18097,1.12058 -1.05974,1.99029 -1.22293,2.00612c-0.25375,0.02463 -0.89041,-0.97173 -1.05542,-2.08518c-0.12623,-0.85174 0.35977,-2.09438 0.35977,-2.58873c0,-1.14059 -0.31742,1.58696 0.73913,1.58696c1.05654,0 0.82609,-2.94494 0.82609,-1.80435z" fill="#ff0000"/></g><g><path d="M243.46513,185.80706c0,0 0.37297,0.73829 0.03215,1.1266c-0.10198,0.11619 -1.24915,1.09866 -1.53951,1.79823c-0.35441,0.85389 0.32417,3.34051 0.20696,3.3708c-0.23404,0.0605 -2.38116,0.016 -2.61296,-0.10551c-0.21343,-0.11187 -2.2047,-0.01095 -2.22618,-0.21157c-0.01397,-0.13043 1.9972,-3.58797 2.23928,-4.17511c0.22943,-0.55649 0.57925,-2.95532 0.75507,-3.29073c0.24873,-0.47451 0.89837,-1.06034 1.36746,-1.2232c0.50957,-0.17692 0.18623,0.2365 0.70168,0.50669c0.49499,0.25946 0.66139,-0.0965 0.81575,0.39791c0.15435,0.49439 0.26029,1.80593 0.26029,1.80593z" fill="#ff0000" stroke="#000000" stroke-width="0.3" stroke-linecap="butt"/><path d="M241.54885,185.77035c-0.14183,0.27058 -0.37999,0.40163 -0.55932,0.51942c-0.15258,0.10022 -0.23373,0.22082 -0.48537,0.08892c-0.54739,-0.28692 -0.52178,0.35944 -0.40795,-0.19367c0.1231,-0.59817 0.23371,-1.30689 0.23371,-1.30689c0,0 0.40822,-0.02266 0.58952,0.03692c0.48881,0.16067 0.82089,0.48998 0.6294,0.8553z" fill="#bf0000" stroke="none" stroke-width="0" stroke-linecap="butt"/><path d="M243.39914,186.75353c-0.1276,0.24343 -0.2198,0.40759 -0.44655,0.50867c-0.28313,0.12622 -0.73432,-0.02547 -1.01888,-0.17463c-0.51245,-0.26861 -1.32825,-0.13284 -1.04132,-0.68024c0.12486,-0.23822 0.8017,-0.41502 1.06498,-0.59843c0.34169,-0.23805 0.52493,-0.3693 0.81437,-0.21758c0.51245,0.26861 0.91432,0.6148 0.62739,1.16221z" fill="#bf0000" stroke="none" stroke-width="0" stroke-linecap="butt"/><path d="M241.66636,185.75132c0,0 -0.18597,0.34274 -0.38162,0.45722c-0.19202,0.11236 -0.7816,0.2234 -0.7816,0.2234" fill="none" stroke="#000000" stroke-width="0.3" stroke-linecap="round"/></g><path d="M243.82632,181.32162l-0.39491,-0.86395l-0.83723,-0.42296l0.91726,-0.31488l0.2875,-0.88988l0.2738,0.87619l0.71191,0.32857l-0.65714,0.30119z" fill="#ff0000" stroke="none" stroke-width="0" stroke-linecap="butt"/><g stroke="#000000" stroke-width="0.3"><g><path d="M238.17758,187.74171c-3.02517,2.62112 -1.55116,1.16985 -3.09002,2.64309c0.60826,2.62973 -0.98519,3.81217 -2.34227,2.29693c-1.69165,-1.88881 -0.19618,-2.83525 1.55018,-3.35608c0.76024,-0.47515 -0.20707,-0.45472 4.5325,-4.14452c1.75993,-1.37013 1.34178,-1.31023 2.26089,-1.88368c0.67041,-0.41828 -0.53028,-0.50543 -0.98809,1.72886c-0.54959,2.68221 -1.21531,2.10207 -1.92318,2.71539z" fill="#ffc380" stroke-linecap="butt"/><path d="" fill="none" stroke-linecap="round"/></g><path d="M233.63943,191.50196c0,0 0.21866,-0.79177 0.4894,-0.68229c0.27827,0.11253 0.60723,1.12797 0.48798,1.24836c-0.15699,0.15848 -1.26041,0.10773 -1.38573,0.06207c-0.33361,-0.12154 -1.04855,-1.50454 -1.04855,-1.50454" data-paper-data="{&quot;index&quot;:null}" fill="none" stroke-linecap="round"/></g></g></g></svg>