<svg version="1.1" xmlns="http://www.w3.org/2000/svg" xmlns:xlink="http://www.w3.org/1999/xlink" width="16.24603" height="16.58941" viewBox="0,0,16.24603,16.58941"><g transform="translate(-231.877,-171.70531)"><g data-paper-data="{&quot;isPaintingLayer&quot;:true}" fill-rule="nonzero" stroke-linejoin="miter" stroke-miterlimit="10" stroke-dasharray="" stroke-dashoffset="0" style="mix-blend-mode: normal"><g><path d="M232.37701,187.79472v-15.58941h15.24603v15.58941z" fill="none" stroke="#000000" stroke-width="1" stroke-linecap="butt"/><path d="M243.867,182.72418c0,0.70168 -1.70646,1.27051 -3.8115,1.27051c-2.10504,0 -3.81151,-0.56883 -3.81151,-1.27051c0,-0.40408 -0.81006,-3.39093 0.47769,-4.57026c0.94842,-0.86857 4.22658,-0.27139 5.11939,-0.27139c0.63107,0 -0.76529,4.17168 -0.2411,4.26217c1.22433,0.21138 2.26704,0.08815 2.26704,0.57947z" fill="#ffc380" stroke="#000000" stroke-width="0.3" stroke-linecap="butt"/><path d="M237.88096,180.25439l0.28572,-1.14286l0.71428,0.28571l0.57143,1.19048z" fill="#bf9360" stroke="none" stroke-width="0" stroke-linecap="butt"/><path d="M236.01705,179.27804l-1.4945,-1.42312c0,0 -0.37295,-1.56514 -0.03063,-2.43021c0.34232,-0.86506 0.66098,-1.16879 1.53465,-1.37048c0.87367,-0.20169 6.00041,-0.45323 6.00041,-0.45323c0,0 0.6344,-0.06914 0.94721,0.22466c0.3128,0.2938 0.18649,0.40507 0.17637,0.83356c-0.0182,0.77037 -0.07637,3.2331 -0.07637,3.2331z" fill="#ff0000" stroke="#000000" stroke-width="0.3" stroke-linecap="butt"/><path d="M234.59523,176.11154c0,-1.15717 0.36166,-2 1.57143,-2c0.59133,0 1.62477,-0.3785 2.08866,0.14864c0.48515,0.5513 0.38753,2.02172 0.38753,2.61326c0,0.54095 -0.50444,1.28253 -0.91171,1.66535c-0.46394,0.43608 -0.87263,0.47751 -1.51686,0.47751c-0.47298,0 -1.09809,-0.78367 -1.39406,-1.16934c-0.46105,-0.60077 -0.22498,-1.03067 -0.22498,-1.73542z" fill="#bf0000" stroke="#000000" stroke-width="0.2" stroke-linecap="butt"/><path d="M244.1104,178.63697c0,0 -1.03103,-0.75444 -2.13096,-0.75444c-1.09993,0 -5.90612,1.67189 -5.90612,0.51507c0,-0.57671 0.50774,2.99106 1.84203,1.96178c1.34215,-1.03535 3.90378,-5.63696 4.13075,-5.89941c0.22697,-0.26245 -0.24573,0.11103 0.31037,0.76386c0.46752,0.54884 1.64948,0.46718 1.76869,1.14877c0.11921,0.68159 -1.76035,-0.62355 -1.58835,-0.11765c0.33011,0.97098 1.57358,2.38201 1.57358,2.38201z" fill="#00f8ff" stroke="#000000" stroke-width="0.3" stroke-linecap="butt"/><path d="M243.42855,177.99761c0,0 -1.09171,-0.21507 -2.04398,-0.21507c-0.95227,0 -5.14659,1.97189 -5.14659,0.81507c0,-0.57672 0.67291,2.65772 1.82808,1.62844c1.16198,-1.03535 3.44099,-5.43273 3.91852,-5.43273c0.17208,0 -0.38837,0.01102 0.09308,0.66385c0.40476,0.54884 1.8467,0.91543 1.8467,0.91543c0,0 -2.20614,-0.72354 -2.05723,-0.21765c0.28579,0.97098 1.56142,1.84265 1.56142,1.84265z" fill="#00b9bf" stroke="#000000" stroke-width="0" stroke-linecap="butt"/><path d="M234.57419,182.35899l-0.13334,-4.16666l1.56667,1.33334l-0.1,1.9z" fill="#ffc380" stroke="#000000" stroke-width="0.3" stroke-linecap="butt"/><path d="M235.07115,182.05899l-0.02044,-2.32198l0.89013,0.73771l-0.03199,0.74122z" fill="#bf9360" stroke="#000000" stroke-width="0.2" stroke-linecap="butt"/><path d="M234.35715,177.80202c0,0 -0.49883,0.60475 -0.73869,0.80396c-0.22777,0.18917 -0.66608,0.36271 -0.66608,0.36271l-0.11904,-2.21428c0,0 0.47339,0.19354 0.69301,0.30542c0.19898,0.10136 0.56889,0.33743 0.56889,0.33743z" fill="#565fff" stroke="#000000" stroke-width="0.3" stroke-linecap="butt"/><path d="M234.26192,177.7782c0,0.55228 -0.59625,0.95238 -1.21429,0.95238c-0.61803,0 -0.02381,0.02848 -0.02381,-0.52381c0,-0.55228 -0.11803,-0.33333 0.5,-0.33333c0.61803,0 0.7381,-0.64752 0.7381,-0.09524z" fill="#000dff" stroke="none" stroke-width="0" stroke-linecap="butt"/><path d="M240.02383,179.68297c0,0 -0.24518,1.14286 -0.54762,1.14286c-0.30244,0 -0.54762,-0.51167 -0.54762,-1.14286c0,-0.63118 0.54762,-1.14286 0.54762,-1.14286z" fill="#000000" stroke="none" stroke-width="0" stroke-linecap="butt"/><path d="M239.92859,179.96868l-0.14286,-1.2381l2.14286,-0.52381l-0.66667,2.2381z" fill="#bf9360" stroke="none" stroke-width="0" stroke-linecap="butt"/><path d="M241.78573,179.39725c0,0.63118 -0.23452,1.14286 -0.52381,1.14286c-0.28929,0 -0.52381,-1.14286 -0.52381,-1.14286l0.52381,-1.14285c0,0 0.52381,0.51167 0.52381,1.14285z" fill="#000000" stroke="none" stroke-width="0" stroke-linecap="butt"/><path d="M236.54764,176.30202c0,0 1.05052,-0.39463 1.63162,0.1784c0.56104,0.55325 1.79695,3.20255 1.79695,3.20255" fill="none" stroke="#000000" stroke-width="0.3" stroke-linecap="round"/><path d="M240.6905,179.39725c0,0 0.66634,-1.73957 0.95666,-2.13975c0.29683,-0.40915 0.80524,-0.28882 0.80524,-0.28882" fill="none" stroke="#000000" stroke-width="0.3" stroke-linecap="round"/><path d="M242.11907,183.15915c0,0 -0.96608,-0.428 -2.04997,-0.60462c-0.58724,-0.09569 -1.44454,0.08426 -1.66432,-0.01442c-0.62545,-0.28081 -0.95238,-1.47619 -0.95238,-1.47619c0,0 0.85675,0.6937 1.58377,1.02012c0.81782,0.36719 3.08289,1.07512 3.08289,1.07512z" fill="none" stroke="#000000" stroke-width="0.3" stroke-linecap="round"/><path d="M238.07143,182.15916c-0.13457,-0.15831 -0.33333,-0.71429 -0.33333,-0.71429l1.71429,1l-0.90476,-0.04762c0,0 -0.34163,-0.07978 -0.47619,-0.2381z" fill="#ffffff" stroke="#000000" stroke-width="0" stroke-linecap="butt"/><path d="M239.83334,187.26192c-1.04347,0 -3.45526,0.53229 -3.79898,-0.10096c-0.36665,-0.67548 1.37041,-2.53277 1.37041,-2.99428c0,-0.89418 0.27203,0 2.42857,0c1.06683,0 0.72974,1.19367 1.17541,1.83451c0.45523,0.65458 1.30078,0.76128 1.30078,1.21311c0,0.89418 -0.31965,0.04762 -2.47619,0.04762z" fill="#ffffff" stroke="#000000" stroke-width="0.3" stroke-linecap="butt"/><path d="M237.54764,187.30953c-0.28738,-0.92783 0.55239,-1.79556 1.47619,-1.85714c0.9238,-0.06159 1.4598,0.82565 1.38095,1.66667" fill="none" stroke="#ff0000" stroke-width="0.3" stroke-linecap="round"/><path d="M238.50002,187.26191l1.47619,-1.33333" fill="none" stroke="#ff0000" stroke-width="0.3" stroke-linecap="round"/><path d="M237.50002,183.83334v0l2.57143,0.52381c0,0 0.35279,0.16702 0.43747,0.32867c0.08964,0.17114 0.08634,0.67133 0.08634,0.67133z" fill="#bfbfbf" stroke="none" stroke-width="0" stroke-linecap="butt"/></g></g></g></svg>