<svg version="1.1" xmlns="http://www.w3.org/2000/svg" xmlns:xlink="http://www.w3.org/1999/xlink" width="12.70527" height="28.72151" viewBox="0,0,12.70527,28.72151"><g transform="translate(-232.59462,-173.74387)"><g data-paper-data="{&quot;isPaintingLayer&quot;:true}" fill-rule="nonzero" stroke-linejoin="miter" stroke-miterlimit="10" stroke-dasharray="" stroke-dashoffset="0" style="mix-blend-mode: normal"><g><path d="M245.09938,181.74923c0.0274,0.70162 -1.16815,0.56189 -1.40153,1.18694c-0.31927,0.85505 1.13126,2.68984 0.65436,3.4576c-0.29748,0.47892 -0.45586,-2.07217 -1.28079,-1.9536c-0.36526,0.0525 -0.56594,2.25792 -1.0418,2.7508c-0.82117,0.85055 -1.9456,0.16298 -2.42927,0.18188c-0.38295,0.01495 -1.77451,0.42731 -2.49897,-0.22348c-0.66992,-0.60177 -0.67192,-2.26833 -1.0908,-2.30562c-0.80924,-0.07203 -0.52399,2.27684 -0.87803,1.85304c-0.50777,-0.60782 0.48048,-2.37043 0.10444,-3.16854c-0.2879,-0.61108 -1.52972,-0.62258 -1.55746,-1.3331c-0.00698,-0.1789 -0.11746,-0.9763 0.11242,-1.49185c0.24617,-0.55205 0.83212,-0.8209 0.76912,-0.91525c-0.25346,-0.37957 -2.16789,0.9238 -1.75953,0.31803c0.97573,-1.44745 4.43008,-3.45851 6.37704,-3.53453c1.53797,-0.06006 2.37682,1.48394 3.43999,2.37911c0.11583,0.09752 0.4163,0.35302 0.63531,0.28462c0.4531,-0.1415 0.90626,-0.745 1.0985,-0.52353c0.1467,0.16902 -0.26961,0.85795 -0.73213,1.19816c-0.38793,0.28536 -0.82689,0.21308 -0.81341,0.47535c0.01629,0.31684 0.76228,-0.03032 1.24789,0.13058c0.62848,0.20822 1.03186,0.9053 1.04467,1.2334z" fill="#800000" stroke="#000000" stroke-width="0.3" stroke-linecap="butt"/><path d="M243.42271,182.42907c0.03732,0.70068 -1.63648,1.35947 -3.73853,1.47143c-2.10206,0.11196 -3.83636,-0.3653 -3.87369,-1.06599c-0.02149,-0.40351 -0.98927,-3.34305 0.23394,-4.5892c0.90088,-0.91778 4.20616,-0.4958 5.09771,-0.54328c0.63018,-0.03356 -0.54233,4.20648 -0.01407,4.26896c1.23384,0.14596 2.26852,-0.03255 2.29465,0.45807z" fill="#ffc380" stroke="#000000" stroke-width="0.3" stroke-linecap="butt"/><path d="M241.11461,178.22644c0.02469,0.46342 -0.23799,2.00961 -0.23799,2.00961c0,0 -1.10163,-1.27064 -1.27198,-1.26157c-0.28539,0.0152 -1.41263,1.61 -1.41263,1.61c0,0 -0.01901,-1.18202 -0.03769,-1.53276c-0.03357,-0.63029 1.03143,-1.19941 1.67486,-1.23367c0.64342,-0.03426 1.25187,-0.2219 1.28544,0.4084z" fill="#bf9360" stroke="none" stroke-width="0" stroke-linecap="butt"/><path d="M239.73994,174.84479c0.00215,0.04036 -0.34839,0.05574 -0.44506,0.58366c-0.11471,0.62641 -0.03129,1.33976 0.23952,1.14916c0.2937,-0.2067 1.3209,-0.9895 1.6747,-1.00339c0.84361,-0.03309 0.87822,0.76116 1.09279,0.92936c0.3767,0.29531 0.06689,1.98486 -0.57771,2.50107c-0.39834,0.319 -0.40699,-1.43986 -0.49784,-1.35211c-0.13774,0.13305 -0.22382,0.97318 -0.94031,1.40309c-0.172,0.1032 -0.10581,-0.31865 -0.2822,-0.6841c-0.15659,-0.32444 -0.55421,-0.59167 -0.72961,-0.59954c-0.13051,-0.00585 -0.02182,0.28175 -0.05551,0.60646c-0.03017,0.29078 -0.20226,0.62224 -0.30881,0.62079c-0.30197,-0.00413 -0.31218,-0.49205 -0.79194,-0.76888c-0.51338,-0.29625 -1.46719,0.04551 -1.55691,0.05029c-0.38133,0.02031 -1.33768,1.11075 -1.33768,1.11075c0,0 -0.10896,-1.85936 -0.14995,-2.629c-0.06084,-1.1424 0.45737,-1.19268 1.62604,-1.25493c0.53442,-0.02847 1.40904,0.8934 1.84211,0.99586c0.23162,0.05479 0.1789,-0.71153 0.38147,-1.26873c0.24693,-0.6792 0.79877,-0.73036 0.81691,-0.38978z" fill="#800000" stroke="#000000" stroke-width="0.3" stroke-linecap="butt"/><path d="M235.27026,177.72706l-0.05066,-0.95103c0,0 0.95018,0.16947 1.62899,0.11931c0.20407,-0.01509 0.97429,-0.46691 0.97429,-0.46691l0.78386,0.39901l0.80541,-0.22392c0,0 0.65494,0.06241 1.04298,0.01431c0.49825,-0.06176 1.69943,-0.35424 1.69943,-0.35424c0,0 0.14568,0.3814 0.1471,0.56322c0.0013,0.16636 -0.04383,0.48038 -0.04383,0.48038c0,0 -1.25917,0.20286 -1.7542,0.20697c-0.37731,0.00314 -1.05501,-0.1794 -1.05501,-0.1794l-0.74958,0.30612l-0.68603,-0.39031c0,0 -0.76728,0.59751 -1.01883,0.61268c-0.64268,0.03878 -1.7239,-0.1362 -1.7239,-0.1362z" fill="#bf2e00" stroke="none" stroke-width="0" stroke-linecap="butt"/><path d="M238.58229,179.02894c0.02468,0.46341 -0.31339,1.48907 -0.31339,1.48907c0,0 -1.01159,-1.37082 -1.18194,-1.36175c-0.28539,0.0152 -1.45766,1.66009 -1.45766,1.66009c0,0 -0.00889,-0.99182 -0.02756,-1.34256c-0.03357,-0.63029 1.03143,-1.19941 1.67486,-1.23367c0.64342,-0.03426 1.27213,0.15852 1.3057,0.78881z" fill="#bf9360" stroke="none" stroke-width="0" stroke-linecap="butt"/><path d="M238.20372,179.97899c0.03287,0.61715 -0.36627,1.14014 -0.89152,1.16812c-0.52523,0.02797 -0.97768,-0.44965 -1.01055,-1.06681c-0.03287,-0.61715 0.43409,-0.76226 0.95933,-0.79025c0.52523,-0.02797 0.90987,0.07178 0.94274,0.68893z" fill="#000000" stroke="none" stroke-width="0" stroke-linecap="butt"/><path d="M240.36731,179.86374c0.03287,0.61715 -0.36627,1.14014 -0.89152,1.16812c-0.52523,0.02797 -0.97768,-0.44965 -1.01055,-1.06681c-0.03287,-0.61715 0.38907,-0.71217 0.91431,-0.74015c0.52523,-0.02797 0.95489,0.02168 0.98776,0.63884z" fill="#000000" stroke="none" stroke-width="0" stroke-linecap="butt"/><path d="M238.425,179.65723c0,0 1.69033,-0.76938 2.3275,-0.17166" fill="none" stroke="#000000" stroke-width="0.3" stroke-linecap="round"/><path d="M239.83579,178.38994c0.47538,0.62276 -0.48002,0.83625 -0.48002,0.83625" fill="none" stroke="#000000" stroke-width="0.2" stroke-linecap="round"/><path d="M239.2176,178.42287c0.47538,0.62276 -0.48002,0.83625 -0.48002,0.83625" fill="none" stroke="#000000" stroke-width="0.2" stroke-linecap="round"/><path d="M236.2725,179.53345c0.57008,-0.66202 2.33257,-0.07655 2.33257,-0.07655" data-paper-data="{&quot;index&quot;:null}" fill="none" stroke="#000000" stroke-width="0.3" stroke-linecap="round"/><path d="M237.34595,179.09479c0,0 -0.97266,-0.11079 -0.56613,-0.78052" data-paper-data="{&quot;index&quot;:null}" fill="none" stroke="#000000" stroke-width="0.2" stroke-linecap="round"/><path d="M237.96919,179.15696c0,0 -0.97266,-0.11079 -0.56613,-0.78052" data-paper-data="{&quot;index&quot;:null}" fill="none" stroke="#000000" stroke-width="0.2" stroke-linecap="round"/><path d="M234.83221,178.92653l0.52795,-0.42868" fill="none" stroke="#800000" stroke-width="0.7" stroke-linecap="round"/><path d="M238.57937,182.77056c-0.45593,0.02429 -0.93375,-0.73519 -0.93375,-0.73519l1.75941,-0.09371c0,0 -0.36972,0.80461 -0.82565,0.82889z" fill="#ff8080" stroke="#000000" stroke-width="0.2" stroke-linecap="butt"/></g><g stroke="#000000" stroke-width="0.3" stroke-linecap="butt"><path d="M238.44647,190.10761c0.65919,0.06862 0.42408,-0.17045 0.70115,0.14675c0.17829,0.20412 0.4933,0.68873 0.4933,1.5477c0,1.45989 -0.39311,3.85509 -0.8605,5.28602c-0.23496,0.71936 0.38039,2.03209 -0.76632,2.01228c-1.07333,0.06803 -0.09521,-1.62121 -0.1502,-2.26141c-0.06296,-0.73299 -0.38965,-1.36587 -0.38965,-2.53689c0,-2.1938 0.43855,-4.25 0.97223,-4.19445z" data-paper-data="{&quot;index&quot;:null}" fill="#ffc380"/><path d="M237.88409,199.31538c1.05654,0 0.95652,-2.90146 0.95652,-1.76087c0,0.49435 0.39904,1.60656 0.27281,2.4583c-0.16502,1.11345 -0.80168,2.10982 -1.05542,2.08518c-0.16318,-0.01584 -1.04196,-0.88555 -1.22293,-2.00612c-0.1694,-1.04889 0.83163,-2.29026 0.83163,-2.84171c0,-1.14059 -0.83915,2.06522 0.21739,2.06522z" data-paper-data="{&quot;index&quot;:null}" fill="#ff0000"/></g><g stroke="#000000" stroke-width="0.3"><path d="M242.62063,187.82409c0,4.00274 -0.09785,1.87371 0.04491,3.99931c2.4074,1.22061 2.51141,1.05366 2.4806,1.45376c-0.0299,0.38825 -3.03406,0.10033 -3.32773,0.10033c-0.28948,0 -1.72774,0.11433 -1.00682,-1.55938c0.12329,-0.888 -0.08164,-0.13291 0.12888,-6.13572c0.07817,-2.22901 -2.35256,-1.89677 -1.26923,-1.89677c1.08333,0 2.94939,1.80809 2.94939,4.03847z" fill="#ffc380" stroke-linecap="butt"/><path d="M242.95831,192.36056c0,0 0.47341,0.10948 0.64189,0.2489c0.18751,0.15518 0.43218,0.63999 0.43218,0.63999" fill="none" stroke-linecap="round"/></g><g stroke="#000000" stroke-width="0.3" stroke-linecap="butt"><path d="M242.11832,194.31433c0,1.03968 0.27545,1.99212 0.36374,2.66074c0.09802,0.74222 0.59348,2.10332 -0.64514,2.05786c-1.18467,-0.04348 -0.38418,-1.39273 -0.68205,-2.11184c-0.57423,-1.38627 -1.20322,-3.66227 -1.20322,-5.10675c0,-0.85897 0.315,-1.34358 0.49329,-1.5477c0.27706,-0.3172 0.04196,-0.07813 0.70115,-0.14675c0.53367,-0.05555 0.97222,2.00064 0.97222,4.19445z" fill="#ffc380"/><path d="M242.66939,197.42408c0,0.55145 0.52276,1.83629 0.35336,2.88518c-0.18097,1.12058 -1.05974,1.99029 -1.22293,2.00612c-0.25375,0.02463 -0.89041,-0.97173 -1.05542,-2.08518c-0.12623,-0.85174 0.35977,-2.09438 0.35977,-2.58873c0,-1.14059 -0.31742,1.58696 0.73913,1.58696c1.05654,0 0.82609,-2.94494 0.82609,-1.80435z" fill="#ff0000"/></g><g><path d="M240.92858,185.44046c0,0 0.6731,0.48075 0.55151,0.9829c-0.03638,0.15025 -0.59632,1.55301 -0.52872,2.30742c0.08252,0.92083 1.19382,3.14583 1.10407,3.22708c-0.1792,0.16224 -1.92168,-0.10371 -2.1834,-0.10371c-0.24097,0 -2.18049,0.00152 -2.29265,-0.16619c-0.07292,-0.10904 0.79014,-2.20706 0.73197,-2.83948c-0.05514,-0.5994 -0.85897,-2.88645 -0.85897,-3.26515c0,-0.53575 0.30342,-1.35622 0.64329,-1.71824c0.36919,-0.39326 0.27474,0.12301 0.85671,0.12301c0.55886,0 0.541,-0.39252 0.90724,-0.02629c0.36623,0.36623 1.06895,1.47867 1.06895,1.47867z" fill="#ff0000" stroke="#000000" stroke-width="0.3" stroke-linecap="butt"/><path d="M239.21429,186.29758c0,0.3055 -0.1501,0.53214 -0.25425,0.71972c-0.08861,0.1596 -0.1045,0.30409 -0.38861,0.30409c-0.61803,0 -0.29527,0.5606 -0.45123,0.01786c-0.16868,-0.58695 -0.39973,-1.26602 -0.39973,-1.26602c0,0 0.35104,-0.20959 0.53928,-0.24098c0.50753,-0.08462 0.95454,0.05288 0.95454,0.46534z" fill="#bf0000" stroke="none" stroke-width="0" stroke-linecap="butt"/><path d="M241.30954,186.30938c0,0.27484 -0.00545,0.46305 -0.15936,0.65784c-0.19217,0.24323 -0.66222,0.31835 -0.9835,0.31835c-0.57858,0 -1.2381,0.49899 -1.2381,-0.11905c0,-0.26896 0.5174,-0.73978 0.66543,-1.02445c0.19212,-0.36947 0.29349,-0.57079 0.62028,-0.57079c0.57858,0 1.09524,0.12006 1.09524,0.7381z" fill="#bf0000" stroke="none" stroke-width="0" stroke-linecap="butt"/><path d="M239.30953,186.22617c0,0 -0.0056,0.3899 -0.12574,0.58213c-0.11791,0.18866 -0.58855,0.56073 -0.58855,0.56073" fill="none" stroke="#000000" stroke-width="0.3" stroke-linecap="round"/></g><g stroke="#000000"><path d="M237.452,185.99128c-1.52174,2.11658 0.06795,-0.04343 -1.45652,2.15217c-0.98333,1.18876 -0.52464,0.71751 -1.03018,1.17754c-0.07948,0.07232 -0.03956,0.04511 3.13017,0.64553c0.10216,-0.22282 1.36236,-0.27175 1.73854,-0.10629c0.34486,0.15168 -0.32242,0.82257 -0.33572,0.89988c-0.06024,0.35 -1.59965,0.35017 -1.65825,0.3576c-0.16088,0.0204 -1.48227,0.1358 -2.39327,-0.27623c-0.86645,-0.39188 -1.32849,-1.31065 -1.32876,-1.3506c-0.00202,-0.30093 1.85573,-3.04686 1.85573,-3.63005c0,-1.11658 1.23551,-1.97826 1.84783,-1.97826c0.61231,0 0.28224,1.20211 -0.36956,2.1087z" fill="#ffc380" stroke-width="0.3" stroke-linecap="butt"/><path d="M239.452,190.70669l-0.91304,-0.08696" fill="none" stroke-width="0.1" stroke-linecap="round"/><path d="M239.66939,190.22842l-1,-0.17391" fill="none" stroke-width="0.1" stroke-linecap="round"/></g></g></g></svg>