<svg version="1.1" xmlns="http://www.w3.org/2000/svg" xmlns:xlink="http://www.w3.org/1999/xlink" width="17.07143" height="17.14286" viewBox="0,0,17.07143,17.14286"><g transform="translate(-231.46432,-171.46433)"><g data-paper-data="{&quot;isPaintingLayer&quot;:true}" fill-rule="nonzero" stroke-linejoin="miter" stroke-miterlimit="10" stroke-dasharray="" stroke-dashoffset="0" style="mix-blend-mode: normal"><path d="M231.96432,188.1072v-16.14286h16.07143v16.14286z" fill="none" stroke="#000000" stroke-width="1" stroke-linecap="butt"/><path d="M245.30955,182.09525c0,0.70215 -1.18918,0.51589 -1.44678,1.13136c-0.35239,0.84194 1.02545,2.73194 0.51895,3.48049c-0.31595,0.46695 -0.37465,-2.08839 -1.20359,-2.00209c-0.36703,0.03821 -0.65362,2.23412 -1.14834,2.70806c-0.85373,0.81787 -1.95048,0.08695 -2.43452,0.08695c-0.38324,0 -1.78983,0.35774 -2.48835,-0.32081c-0.64593,-0.62745 -0.58289,-2.29282 -1,-2.34642c-0.80581,-0.10355 -0.61243,2.25466 -0.94967,1.81737c-0.48367,-0.62717 0.5726,-2.34987 0.22799,-3.16206c-0.26385,-0.62185 -1.50426,-0.68179 -1.50426,-1.39285c0,-0.17904 -0.07928,-0.98014 0.17055,-1.48633c0.26752,-0.54203 0.86352,-0.7878 0.80425,-0.88454c-0.23845,-0.38917 -2.20228,0.83852 -1.7706,0.24913c1.03146,-1.40828 4.56165,-3.28302 6.51009,-3.28302c1.53914,0 2.31711,1.57555 3.34454,2.51152c0.11193,0.10197 0.4022,0.369 0.62372,0.3092c0.45828,-0.12371 0.93464,-0.70908 1.11809,-0.48026c0.13999,0.17462 -0.30288,0.84677 -0.77833,1.16868c-0.39877,0.27 -0.83457,0.18066 -0.83134,0.44324c0.00391,0.31723 0.76288,-0.00055 1.24185,0.17916c0.61988,0.23258 0.99575,0.94488 0.99575,1.27323z" fill="#800000" stroke="#000000" stroke-width="0.3" stroke-linecap="butt"/><path d="M243.86705,182.72422c0,0.70168 -1.70646,1.27051 -3.8115,1.27051c-2.10504,0 -3.81151,-0.56883 -3.81151,-1.27051c0,-0.40408 -0.81006,-3.39093 0.47769,-4.57026c0.94842,-0.86857 4.22658,-0.27139 5.11939,-0.27139c0.63107,0 -0.76529,4.17168 -0.2411,4.26217c1.22433,0.21138 2.26704,0.08815 2.26704,0.57947z" fill="#ffc380" stroke="#000000" stroke-width="0.3" stroke-linecap="butt"/><path d="M241.78574,178.40478c0,0.46408 -0.34454,1.99411 -0.34454,1.99411c0,0 -1.03249,-1.32744 -1.20308,-1.32744c-0.28579,0 -1.49627,1.53259 -1.49627,1.53259c0,0 0.04388,-1.18136 0.04388,-1.53259c0,-0.63118 1.09377,-1.14285 1.7381,-1.14285c0.64433,0 1.2619,-0.155 1.2619,0.47619z" fill="#bf9360" stroke="none" stroke-width="0" stroke-linecap="butt"/><path d="M240.59288,174.95481c0,0.04041 -0.35086,0.03713 -0.47548,0.55916c-0.14786,0.61942 -0.1025,1.3362 0.17807,1.16027c0.30428,-0.19079 1.37166,-0.91785 1.7257,-0.9129c0.84418,0.01182 0.83649,0.80679 1.04181,0.98616c0.36047,0.31493 -0.03877,1.98561 -0.70991,2.4668c-0.41474,0.29736 -0.32984,-1.45947 -0.42522,-1.37668c-0.14462,0.12553 -0.27527,0.95989 -1.01361,1.35109c-0.17724,0.09391 -0.08871,-0.32383 -0.24541,-0.69814c-0.13912,-0.33231 -0.52196,-0.62031 -0.69669,-0.6375c-0.13002,-0.01279 -0.03678,0.28019 -0.08769,0.60265c-0.04559,0.28876 -0.23507,0.6106 -0.34139,0.60348c-0.30132,-0.02019 -0.28557,-0.50795 -0.74992,-0.80992c-0.4969,-0.32314 -1.46754,-0.03259 -1.55739,-0.03259c-0.38187,0 -1.39486,1.03803 -1.39486,1.03803c0,0 -0.00991,-1.86252 -0.00991,-2.63326c0,-1.14402 0.52016,-1.16667 1.69048,-1.16667c0.53518,0 1.35953,0.96708 1.78654,1.09243c0.22838,0.06703 0.21649,-0.70101 0.44841,-1.24665c0.2827,-0.6651 0.83648,-0.68684 0.83648,-0.34578z" fill="#800000" stroke="#000000" stroke-width="0.3" stroke-linecap="butt"/><path d="M235.97622,177.59528v-0.95238c0,0 0.93982,0.21976 1.62034,0.20578c0.20458,-0.00421 0.99774,-0.41443 0.99774,-0.41443l0.76153,0.44013l0.81618,-0.18076c0,0 0.65069,0.09716 1.04074,0.06977c0.50083,-0.03517 1.71586,-0.26335 1.71586,-0.26335c0,0 0.12519,0.38861 0.11694,0.57025c-0.00755,0.16619 -0.06932,0.47737 -0.06932,0.47737c0,0 -1.26818,0.13561 -1.76272,0.11338c-0.37694,-0.01694 -1.04397,-0.23526 -1.04397,-0.23526l-0.76481,0.26582l-0.6643,-0.42625c0,0 -0.79797,0.55585 -1.04998,0.55763c-0.64384,0.00454 -1.71421,-0.2277 -1.71421,-0.2277z" fill="#bf2e00" stroke="none" stroke-width="0" stroke-linecap="butt"/><path d="M239.21432,179.07147c0,0.46407 -0.39215,1.4703 -0.39215,1.4703c0,0 -0.93725,-1.42268 -1.10784,-1.42268c-0.28579,0 -1.54389,1.58021 -1.54389,1.58021c0,0 0.04388,-0.99089 0.04388,-1.34212c0,-0.63118 1.09377,-1.14285 1.7381,-1.14285c0.64433,0 1.2619,0.22596 1.2619,0.85714z" fill="#bf9360" stroke="none" stroke-width="0" stroke-linecap="butt"/><path d="M238.78575,180.00004c0,0.61803 -0.4264,1.11905 -0.95238,1.11905c-0.52598,0 -0.95238,-0.50101 -0.95238,-1.11905c0,-0.61803 0.47402,-0.7381 1,-0.7381c0.52598,0 0.90476,0.12007 0.90476,0.7381z" fill="#000000" stroke="none" stroke-width="0" stroke-linecap="butt"/><path d="M240.95241,180.00003c0,0.61803 -0.4264,1.11905 -0.95238,1.11905c-0.52598,0 -0.95238,-0.50101 -0.95238,-1.11905c0,-0.61803 0.4264,-0.69047 0.95238,-0.69047c0.52598,0 0.95238,0.07244 0.95238,0.69047z" fill="#000000" stroke="none" stroke-width="0" stroke-linecap="butt"/><path d="M239.02384,179.6905c0,0 1.72886,-0.67838 2.33334,-0.04762" fill="none" stroke="#000000" stroke-width="0.3" stroke-linecap="round"/><path d="M240.50003,178.50004c0.44158,0.64716 -0.52381,0.80953 -0.52381,0.80953" fill="none" stroke="#000000" stroke-width="0.2" stroke-linecap="round"/><path d="M239.88096,178.50004c0.44158,0.64716 -0.52381,0.80953 -0.52381,0.80953" fill="none" stroke="#000000" stroke-width="0.2" stroke-linecap="round"/><path d="M236.88097,179.45241c0.60448,-0.63076 2.33334,0.04762 2.33334,0.04762" data-paper-data="{&quot;index&quot;:null}" fill="none" stroke="#000000" stroke-width="0.3" stroke-linecap="round"/><path d="M237.97623,179.07147c0,0 -0.96539,-0.16237 -0.52381,-0.80953" data-paper-data="{&quot;index&quot;:null}" fill="none" stroke="#000000" stroke-width="0.2" stroke-linecap="round"/><path d="M238.59528,179.16669c0,0 -0.96539,-0.16237 -0.52381,-0.80953" data-paper-data="{&quot;index&quot;:null}" fill="none" stroke="#000000" stroke-width="0.2" stroke-linecap="round"/><path d="M239.01241,182.80764c-0.45658,0 -0.89333,-0.78381 -0.89333,-0.78381h1.7619c0,0 -0.41199,0.78381 -0.86857,0.78381z" fill="#ff8080" stroke="#000000" stroke-width="0.2" stroke-linecap="butt"/><path d="M240.9286,185.47622c0,0 0.6731,0.48075 0.55151,0.9829c-0.08079,0.33365 -0.91136,0.70335 -1.07465,0.85117c-0.35906,0.32506 -1.0734,0.14212 -1.5959,0.14212c-0.54278,0 -1.21178,0.16458 -1.41348,-0.13703c-0.21365,-0.31948 0.05633,-1.12136 0.05633,-1.6963c0,-0.53575 0.30342,-1.35622 0.64329,-1.71824c0.36919,-0.39326 0.27474,0.12301 0.85671,0.12301c0.55886,0 0.541,-0.39252 0.90724,-0.02629c0.36623,0.36623 1.06895,1.47867 1.06895,1.47867z" fill="#ff0000" stroke="#000000" stroke-width="0.3" stroke-linecap="butt"/><path d="M239.21431,186.33334c0,0.3055 -0.1501,0.53214 -0.25425,0.71972c-0.08861,0.1596 -0.1045,0.30409 -0.38861,0.30409c-0.61803,0 -1.07143,0.20829 -1.07143,-0.35714c0,-0.56543 0.07143,-0.83333 0.07143,-0.83333c0,0 0.50008,-0.26728 0.68832,-0.29867c0.50753,-0.08462 0.95454,0.05288 0.95454,0.46534z" fill="#bf0000" stroke="none" stroke-width="0" stroke-linecap="butt"/><path d="M241.30956,186.34514c0,0.27484 -0.28323,0.24083 -0.43714,0.43562c-0.19217,0.24323 -0.38444,0.54057 -0.70572,0.54057c-0.57858,0 -1.2381,0.49899 -1.2381,-0.11905c0,-0.26896 0.5174,-0.73978 0.66543,-1.02445c0.19212,-0.36947 0.29349,-0.57079 0.62028,-0.57079c0.57858,0 1.09524,0.12006 1.09524,0.7381z" fill="#bf0000" stroke="none" stroke-width="0" stroke-linecap="butt"/><path d="M239.30955,186.26193c0,0 -0.0056,0.3899 -0.12574,0.58213c-0.11791,0.18866 -0.58855,0.56073 -0.58855,0.56073" fill="none" stroke="#000000" stroke-width="0.3" stroke-linecap="round"/><path d="M236.025,178.36975l-0.55,0.4" fill="none" stroke="#800000" stroke-width="0.7" stroke-linecap="round"/></g></g></svg>