<svg version="1.1" xmlns="http://www.w3.org/2000/svg" xmlns:xlink="http://www.w3.org/1999/xlink" width="18.04255" height="25.37821" viewBox="0,0,18.04255,25.37821"><g transform="translate(-232.56917,-174.58913)"><g data-paper-data="{&quot;isPaintingLayer&quot;:true}" fill-rule="nonzero" stroke-linejoin="miter" stroke-miterlimit="10" stroke-dasharray="" stroke-dashoffset="0" style="mix-blend-mode: normal"><g stroke-linecap="butt"><path d="M241.32454,191.08046l1.30908,0.76646l1.31178,-1.55547l1.1212,0.76001l-1.19556,1.26002c0,0 3.95466,0.42091 4.03246,0.47952c0.22699,0.17101 1.74974,1.65521 1.01809,2.50892c-0.7092,0.8275 -2.02911,0.72793 -3.07072,0.72793c-1.01775,0 -3.89861,0.68292 -5.07322,-0.23686c-1.40855,-1.10297 -1.03204,-3.84209 -1.03204,-3.84209z" fill="#ff0000" stroke="#000000" stroke-width="0.3"/><path d="M245.58772,196.13311c-1.45338,0 -5.94737,-1.50345 -5.94737,-2.57895c0,-1.0755 0.1782,-2.31579 1.63158,-2.31579c0.54263,0 0.92792,0.56938 1.65946,0.94318c1.22782,0.62738 2.76159,1.2776 2.76159,1.95156c0,1.0755 1.34812,2 -0.10526,2z" fill="#bf0000" stroke="none" stroke-width="0"/><path d="M247.73912,192.76471c0.37082,0 -0.96643,-0.08729 -0.96643,0.97368c0,1.06097 0.27834,1.71053 -0.09249,1.71053c-0.37083,0 -1.03986,-1.01798 -1.03986,-2.07895c0,-1.06096 1.72795,-0.60526 2.09878,-0.60526z" fill="#ffffff" stroke="#000000" stroke-width="0.3"/><path d="M244.32456,193.15943c0,-1.06097 1.72796,-0.60527 2.09878,-0.60527c0.37082,0 -0.96643,-0.08729 -0.96643,0.97368c0,1.06097 0.27833,1.71053 -0.09249,1.71053c-0.37082,0 -1.03986,-1.01798 -1.03986,-2.07895z" fill="#ffffff" stroke="#000000" stroke-width="0.3"/><path d="M243.00877,192.94892c0,-1.06097 1.72796,-0.60527 2.09878,-0.60527c0.37082,0 -0.96643,-0.08728 -0.96643,0.97369c0,1.06097 0.27833,1.71052 -0.09249,1.71052c-0.37082,0 -1.03986,-1.01798 -1.03986,-2.07895z" fill="#ffffff" stroke="#000000" stroke-width="0.3"/><path d="M249.32456,195.10678c0,0.39241 -0.16486,2.24292 -4.18421,2.23684c-3.95967,-0.00599 -5.56866,-2.68687 -5.55263,-3.07895c0.05263,-1.28715 1.69705,1.68649 5.39474,1.81579c4.11793,0.144 4.34211,-1.3661 4.34211,-0.97369z" fill="#ffffff" stroke="#000000" stroke-width="0.3"/></g><path d="M241.9643,187.77755l-1.71428,-3.64286l1.85715,0.07143l-0.23248,2.08154l2.01819,1.13275z" fill="#bfbfbf" stroke="#000000" stroke-width="0.3" stroke-linecap="butt"/><path d="M241.9643,187.70615l1.85714,-0.35715l0.28572,1.28572l-0.14286,1.64286z" fill="#bf9360" stroke="#000000" stroke-width="0.3" stroke-linecap="butt"/><path d="M233.25001,189.34899l-0.22822,-2.22528l0.93389,0.87533l1.27665,-1.06037l0.80339,0.83891c0,0 2.70275,1.12147 3.78585,1.15528c1.10686,0.03455 2.14272,-0.98129 2.14272,-0.98129l0.19611,1.64218l2.84949,-0.15226l-0.06735,1.56568l-0.91615,-0.80558l-1.34781,1.57599l-1.51166,-0.84076l-1.70184,1.13725c0,0 -2.01026,0.07321 -1.5898,-0.18252c0.67703,-0.4118 -0.26629,-2.21067 -0.26629,-2.21067l-2.34904,1.55814z" fill="#565fff" stroke="#000000" stroke-width="0.3" stroke-linecap="butt"/><path d="M235.32861,186.96343l-1.36201,0.75858l-0.82583,-0.79045l-0.04364,-2.08134l2.30075,0.30451z" fill="#ffc380" stroke="#000000" stroke-width="0.3" stroke-linecap="butt"/><g><path d="M245.4153,190.41507c-1.00123,-0.51576 -0.83885,-0.3866 -1.55124,-0.85166c-0.71241,-0.46508 -0.50832,-0.34342 -1.26535,-0.87972c-0.03167,-0.02243 0.32262,-1.35118 0.80515,-1.03748c0.53532,0.34802 1.49339,0.82302 1.09659,0.56148c-0.94111,-0.62027 -1.01233,-1.22134 -0.73289,-1.34577c0.64037,-0.28516 1.5117,0.53336 1.21672,0.31975c-0.23345,-0.16906 -0.7777,-0.49624 -0.8556,-0.7264c-0.18475,-0.54582 0.3941,-1.01507 0.57295,-0.91385c0.7744,0.43833 1.27769,0.62594 1.63047,0.85625c0.31899,0.20824 0.33157,0.32405 1.20003,1.01682c0.75777,0.60446 -1.66249,3.2346 -2.11681,3.00057z" data-paper-data="{&quot;index&quot;:null}" fill="#ffc380" stroke="#000000" stroke-width="0.3" stroke-linecap="butt"/><path d="M244.87356,185.61565l0.45345,-0.65493l2.35538,1.62166l-0.45345,0.65493z" fill="#808080" stroke="#000000" stroke-width="0.3" stroke-linecap="butt"/><path d="M244.81225,184.67448l0.35339,-0.46742l3.2208,2.12336l-0.35339,0.46742z" fill="#bfbfbf" stroke="#000000" stroke-width="0.3" stroke-linecap="butt"/><path d="M250.43335,183.88604c-0.18943,1.08821 -1.17258,3.19798 -2.22476,2.36782c-0.99248,-0.78306 -1.93305,-1.3904 -3.02567,-2.19425c-0.88972,-0.65458 1.60777,-2.76524 2.69598,-2.57581c1.08821,0.18943 2.74387,1.31404 2.55444,2.40224z" fill="#808080" stroke="#000000" stroke-width="0.3" stroke-linecap="butt"/><path d="M246.77397,184.08279c-0.20634,1.18536 2.65907,2.96423 1.68094,2.21394c-0.92337,-0.70829 -2.04939,-1.3468 -3.05471,-2.23557c-0.90144,-0.79692 1.00717,-2.21522 2.13757,-2.49176c1.38524,-0.33889 -0.55744,1.32803 -0.76379,2.51339z" fill="#404040" stroke="none" stroke-width="0" stroke-linecap="butt"/><path d="M246.00196,182.53784c0,0 1.60811,0.87445 2.27026,1.38284c0.59624,0.45778 1.52568,1.53158 1.52568,1.53158" data-paper-data="{&quot;index&quot;:null}" fill="none" stroke="#000000" stroke-width="0.2" stroke-linecap="round"/><path d="M245.32897,183.2599c0,0 1.60811,0.87445 2.27026,1.38284c0.59624,0.45778 1.52568,1.53158 1.52568,1.53158" data-paper-data="{&quot;index&quot;:null}" fill="none" stroke="#000000" stroke-width="0.2" stroke-linecap="round"/><path d="M246.48771,181.82794c0,0 1.60811,0.87445 2.27026,1.38284c0.59624,0.45778 1.52568,1.53158 1.52568,1.53158" data-paper-data="{&quot;index&quot;:null}" fill="none" stroke="#000000" stroke-width="0.2" stroke-linecap="round"/><path d="M247.17238,181.33669c0,0 1.42539,0.73416 2.00318,1.17777c0.52026,0.39944 1.30913,1.36532 1.30913,1.36532" data-paper-data="{&quot;index&quot;:null}" fill="none" stroke="#000000" stroke-width="0.2" stroke-linecap="round"/><path d="M245.81711,184.21451c0,0 0.62984,-1.2489 1.02444,-1.74412c0.35531,-0.44592 1.23769,-1.09485 1.23769,-1.09485" data-paper-data="{&quot;index&quot;:null}" fill="none" stroke="#000000" stroke-width="0.2" stroke-linecap="round"/><path d="M246.54572,184.87675c0,0 0.62984,-1.2489 1.02444,-1.74412c0.35531,-0.44592 1.23769,-1.09485 1.23769,-1.09485" data-paper-data="{&quot;index&quot;:null}" fill="none" stroke="#000000" stroke-width="0.2" stroke-linecap="round"/><path d="M250.29935,183.30933c0,0 -0.39901,1.02004 -0.73804,1.47847c-0.3765,0.50911 -1.42035,1.44014 -1.42035,1.44014" data-paper-data="{&quot;index&quot;:null}" fill="none" stroke="#000000" stroke-width="0.2" stroke-linecap="round"/><path d="M249.47143,182.77646c0,0 -0.399,1.02003 -0.73804,1.47846c-0.3765,0.50911 -1.42036,1.44015 -1.42036,1.44015" data-paper-data="{&quot;index&quot;:null}" fill="none" stroke="#000000" stroke-width="0.2" stroke-linecap="round"/></g><g><path d="M240.10024,189.04769c-1.04347,0 -4.33496,-1.34742 -4.67868,-1.98067c-0.12314,-0.22687 0.29642,-1.33805 0.12648,-1.98994c-0.07608,-0.29184 -2.44908,-0.03915 -2.6187,-0.24013c-0.27371,-0.32429 1.5653,-0.78742 1.5653,-0.78742c0,0 -0.51094,-0.75159 -0.51094,-0.87905c0,-0.55366 1.08259,-0.85373 2.51548,0.01094c0.82964,0.50064 2.56554,0.9853 3.38678,0.9853c1.06683,0 0.72974,1.19367 1.17541,1.83451c0.45523,0.65458 1.30078,1.47557 1.30078,1.9274c0,0.89418 -0.10537,1.11905 -2.26191,1.11905z" fill="#ffffff" stroke="#000000" stroke-width="0.3" stroke-linecap="butt"/><path d="M239.03696,188.43889c-1.02015,0.01307 -1.48933,-1.12928 -1.48933,-1.12928c-0.28738,-0.92783 0.55239,-1.79556 1.47619,-1.85714c0.9238,-0.06159 1.4598,0.82565 1.38095,1.66667c0,0 -0.22562,1.30512 -1.36781,1.31975z" fill="none" stroke="#ff0000" stroke-width="0.3" stroke-linecap="round"/><path d="M239.9762,185.92867l-1.83333,2.11904" fill="none" stroke="#ff0000" stroke-width="0.3" stroke-linecap="round"/><path d="M237.50001,183.83341v0l2.57143,0.52381c0,0 0.35279,0.16702 0.43747,0.32867c0.08964,0.17114 0.08634,0.67133 0.08634,0.67133z" fill="#bfbfbf" stroke="none" stroke-width="0" stroke-linecap="butt"/></g><g><path d="M243.57266,184.0493c-0.06015,0.6991 -1.80909,1.11955 -3.90638,0.93909c-2.09729,-0.18045 -3.74872,-0.89348 -3.68857,-1.59257c0.03464,-0.40259 -0.51639,-3.44789 0.86771,-4.51249c1.01939,-0.78407 4.23429,0.09193 5.12381,0.16847c0.62875,0.0541 -1.12009,4.09072 -0.60558,4.22581c1.2017,0.31556 2.25114,0.28217 2.20902,0.77168z" fill="#ffc380" stroke="#000000" stroke-width="0.3" stroke-linecap="butt"/><path d="M237.82037,181.07544l0.38264,-1.11416l0.68716,0.34589l0.46727,1.23508z" fill="#bf9360" stroke="none" stroke-width="0" stroke-linecap="butt"/><path d="M236.04702,179.94291l-1.367,-1.546c0,0 -0.23741,-1.59135 0.17781,-2.42389c0.41522,-0.83253 0.75874,-1.10783 1.64648,-1.23388c0.88774,-0.12605 6.01717,0.06282 6.01717,0.06282c0,0 0.63799,-0.0145 0.92446,0.30503c0.28646,0.31953 0.15108,0.41957 0.10426,0.84561c-0.08417,0.76597 -0.35324,3.21465 -0.35324,3.21465z" fill="#ff0000" stroke="#000000" stroke-width="0.3" stroke-linecap="butt"/><path d="M234.90188,176.66615c0.0992,-1.15291 0.53178,-1.96163 1.73709,-1.85793c0.58915,0.05069 1.65124,-0.23782 2.06823,0.32714c0.4361,0.59086 0.21279,2.0475 0.16208,2.63686c-0.04637,0.53896 -0.61253,1.23457 -1.05111,1.58106c-0.49961,0.3947 -0.91035,0.40095 -1.55221,0.34572c-0.47124,-0.04055 -1.02687,-0.87492 -1.28869,-1.28454c-0.40785,-0.63808 -0.1358,-1.04616 -0.07538,-1.74832z" fill="#bf0000" stroke="#000000" stroke-width="0.2" stroke-linecap="butt"/><path d="M244.16553,179.99799c0,0 -0.96256,-0.84005 -2.05844,-0.93434c-1.09588,-0.09429 -6.0277,1.15944 -5.92853,0.00688c0.04944,-0.57459 0.24946,3.02358 1.66708,2.11247c1.42596,-0.91648 4.37263,-5.28156 4.62127,-5.52359c0.24863,-0.24203 -0.25434,0.08956 0.24375,0.78765c0.41875,0.5869 1.60336,0.60686 1.6637,1.29616c0.06034,0.6893 -1.70042,-0.77216 -1.57242,-0.25338c0.24566,0.9957 1.36359,2.50814 1.36359,2.50814z" fill="#00f8ff" stroke="#000000" stroke-width="0.3" stroke-linecap="butt"/><path d="M243.541,179.30252c0,0 -1.06925,-0.30786 -2.01802,-0.3895c-0.94876,-0.08163 -5.29668,1.52344 -5.19752,0.37088c0.04944,-0.5746 0.4426,2.70562 1.68175,1.77916c1.24646,-0.93193 3.89404,-5.11775 4.36981,-5.07682c0.17145,0.01475 -0.38789,-0.02231 0.03583,0.66939c0.35622,0.58152 1.76143,1.07037 1.76143,1.07037c0,0 -2.13599,-0.91 -2.031,-0.3932c0.2015,0.9919 1.39771,1.96972 1.39771,1.96972z" fill="#00b9bf" stroke="#000000" stroke-width="0" stroke-linecap="butt"/><path d="M234.29292,182.88427l0.22434,-4.16275l1.4466,1.46273l-0.26251,1.88443z" fill="#ffc380" stroke="#000000" stroke-width="0.3" stroke-linecap="butt"/><path d="M234.86621,182.6325l0.17869,-2.31518l0.82361,0.8113l-0.09541,0.73575z" fill="#bf9360" stroke="#000000" stroke-width="0.2" stroke-linecap="butt"/><path d="M234.51976,178.33001c0,0 -0.54884,0.55976 -0.80489,0.73768c-0.24315,0.16895 -0.69472,0.30428 -0.69472,0.30428l0.07122,-2.21633c0,0 0.45506,0.23341 0.66428,0.3637c0.18956,0.11804 0.53787,0.38496 0.53787,0.38496z" fill="#565fff" stroke="#000000" stroke-width="0.3" stroke-linecap="butt"/><path d="M234.42692,178.29813c-0.04734,0.55025 -0.6757,0.89776 -1.29146,0.84478c-0.61575,-0.05298 -0.02616,0.02633 0.02118,-0.52392c0.04734,-0.55025 -0.08902,-0.34222 0.52673,-0.28924c0.61575,0.05298 0.79089,-0.58186 0.74355,-0.03162z" fill="#000dff" stroke="none" stroke-width="0" stroke-linecap="butt"/><path d="M240.00434,180.68979c0,0 -0.34225,1.11764 -0.64358,1.09171c-0.30133,-0.02593 -0.50174,-0.55673 -0.44763,-1.1856c0.05411,-0.62886 0.64358,-1.09171 0.64358,-1.09171z" fill="#000000" stroke="none" stroke-width="0" stroke-linecap="butt"/><path d="M239.88496,180.96629l-0.0362,-1.24579l2.17988,-0.33819l-0.85608,2.17271z" fill="#bf9360" stroke="none" stroke-width="0" stroke-linecap="butt"/><path d="M241.78425,180.55619c-0.05411,0.62886 -0.33163,1.11855 -0.61985,1.09375c-0.28823,-0.0248 -0.42391,-1.18356 -0.42391,-1.18356l0.61985,-1.09374c0,0 0.47802,0.55469 0.42391,1.18355z" fill="#000000" stroke="none" stroke-width="0" stroke-linecap="butt"/><path d="M236.83077,177.02333c0,0 1.08048,-0.30312 1.61032,0.31761c0.51155,0.59931 1.5158,3.3448 1.5158,3.3448" fill="none" stroke="#000000" stroke-width="0.3" stroke-linecap="round"/><path d="M240.69305,180.46227c0,0 0.81301,-1.67604 1.13657,-2.04986c0.33081,-0.3822 0.82703,-0.21873 0.82703,-0.21873" fill="none" stroke="#000000" stroke-width="0.3" stroke-linecap="round"/><path d="M241.79387,184.33279c0,0 -0.92583,-0.50924 -1.99059,-0.77813c-0.57688,-0.14568 -1.44645,-0.03988 -1.65696,-0.15704c-0.59908,-0.33339 -0.82233,-1.5524 -0.82233,-1.5524c0,0 0.79413,0.76459 1.49049,1.15213c0.78333,0.43595 2.97938,1.33544 2.97938,1.33544z" fill="none" stroke="#000000" stroke-width="0.3" stroke-linecap="round"/><path d="M237.84686,182.98949c-0.1205,-0.16926 -0.27087,-0.74024 -0.27087,-0.74024l1.62226,1.14328l-0.89735,-0.125c0,0 -0.33353,-0.10877 -0.45403,-0.27804z" fill="#ffffff" stroke="#000000" stroke-width="0" stroke-linecap="butt"/></g><g stroke-linecap="butt"><path d="M237.58772,191.86995c0,1.01737 3.86652,0.10526 3.05263,0.10526c-0.24305,0 0.81393,0.65005 -0.10536,1.84204c-0.29665,0.38465 0.02128,0.14116 -1.30933,0.28222c-0.4655,0.04935 1.35876,1.51997 0.80195,1.92209c-0.74138,0.53541 -0.2471,2.27308 -4.87032,2.2478c-2.98696,-0.01633 -2.08064,-4.82452 -2.10012,-6.50325c-0.02039,-1.75729 0.10949,-1.9908 0.10949,-2.26458c0,-0.60277 1.00027,1.51431 2.1564,1.79563c0.79521,0.1935 1.77508,-1.47983 2.10676,-1.47983c0.61881,0 0.75634,0.80898 0.61011,1.543c-0.0461,0.23141 -0.45221,0.26577 -0.45221,0.50962z" fill="#ff0000" stroke="#000000" stroke-width="0.3"/><path d="M239.95614,195.80745c-0.50944,0.79945 -0.5184,1.27724 -1.49874,1.74232c-0.53888,0.25565 -1.25618,0.56993 -2.92231,0.57346c-1.18079,0.00251 -1.13129,-0.09789 -1.45858,-0.28902c-0.57083,-0.33336 -0.89066,-0.94273 -0.85721,-1.76361c-0.02804,-1.60409 1.71398,-1.52632 2.78948,-1.52632c1.0755,0 4.55658,0.30713 3.94736,1.26316z" fill="#bf0000" stroke="none" stroke-width="0"/><path d="M235.9035,194.47023c-1.13363,0 -1.89473,0.4588 -1.89473,-0.07895c0,-0.53775 0.81373,-0.71052 1.94736,-0.71052c1.13363,0 2,0.33067 2,0.86841c0,0.53775 -0.919,-0.07895 -2.05263,-0.07895z" data-paper-data="{&quot;index&quot;:null}" fill="#ffffff" stroke="#000000" stroke-width="0.3"/><path d="M235.9035,193.52288c-1.13363,0 -1.89473,0.45881 -1.89473,-0.07894c0,-0.53775 0.81373,-0.71053 1.94736,-0.71053c1.13363,0 2,0.33067 2,0.86841c0,0.53775 -0.919,-0.07895 -2.05263,-0.07895z" data-paper-data="{&quot;index&quot;:null}" fill="#ffffff" stroke="#000000" stroke-width="0.3"/><path d="M235.85087,192.62811c-1.13363,0 -1.89473,0.45881 -1.89473,-0.07894c0,-0.53775 0.81373,-0.71053 1.94736,-0.71053c1.13363,0 2,0.33067 2,0.86841c0,0.53775 -0.919,-0.07895 -2.05263,-0.07895z" data-paper-data="{&quot;index&quot;:null}" fill="#ffffff" stroke="#000000" stroke-width="0.3"/><path d="M240.27193,195.73839c0,0.39241 -0.32275,4.08503 -4.34211,4.07895c-3.95967,-0.00599 -3.14761,-3.31844 -3.13158,-3.71053c0.05263,-1.28715 -0.724,2.10754 2.97369,2.23684c4.11793,0.144 4.5,-2.99768 4.5,-2.60527z" fill="#ffffff" stroke="#000000" stroke-width="0.3"/><path d="M236.0614,199.50155c0,0.21293 -0.83102,0.26316 -1.76316,-0.15789c-0.54611,-0.24668 -0.76031,-0.33884 -0.93729,-0.5632c-0.14494,-0.18375 -0.40482,-0.38557 -0.40482,-0.64733c0,-0.58135 -0.0604,-2.30041 -0.07895,-1.21053c-0.00791,0.46517 0.24997,1.33086 1.10584,1.83333c0.79035,0.464 2.07837,0.46652 2.07837,0.74562z" fill="#bfbfbf" stroke="none" stroke-width="0"/></g></g></g></svg>