<svg version="1.1" xmlns="http://www.w3.org/2000/svg" xmlns:xlink="http://www.w3.org/1999/xlink" width="16.9" height="16.95" viewBox="0,0,16.9,16.95"><g transform="translate(-231.55,-171.525)"><g data-paper-data="{&quot;isPaintingLayer&quot;:true}" fill-rule="nonzero" stroke-linejoin="miter" stroke-miterlimit="10" stroke-dasharray="" stroke-dashoffset="0" style="mix-blend-mode: normal"><path d="M245.30955,180.69118c0,0.83803 -1.18918,0.61572 -1.44678,1.3503c-0.35239,1.00487 1.02545,3.26062 0.51895,4.15403c-0.31595,0.55731 -0.37465,-2.49253 -1.20359,-2.38953c-0.36703,0.0456 -0.65362,2.66646 -1.14834,3.23212c-0.85373,0.97614 -1.95048,0.10378 -2.43452,0.10378c-0.38324,0 -1.78983,0.42697 -2.48835,-0.38289c-0.64593,-0.74887 -0.58289,-2.73652 -1,-2.80049c-0.80581,-0.12359 -0.61243,2.69098 -0.94967,2.16906c-0.48367,-0.74854 0.5726,-2.80461 0.22799,-3.77398c-0.26385,-0.74219 -1.50426,-0.81373 -1.50426,-1.66239c0,-0.21369 -0.07928,-1.16981 0.17055,-1.77396c0.26752,-0.64692 0.86352,-0.94025 0.80425,-1.05571c-0.23845,-0.46448 -2.20228,1.00079 -1.7706,0.29734c1.03146,-1.68081 4.56165,-3.91834 6.51009,-3.91834c1.53914,0 2.31711,1.88045 3.34454,2.99754c0.11193,0.1217 0.4022,0.44041 0.62372,0.36904c0.45828,-0.14765 0.93464,-0.8463 1.11809,-0.5732c0.13999,0.20841 -0.30288,1.01064 -0.77833,1.39484c-0.39877,0.32225 -0.83457,0.21562 -0.83134,0.52901c0.00391,0.37862 0.76288,-0.00066 1.24185,0.21383c0.61988,0.27759 0.99575,1.12773 0.99575,1.51962z" fill="#800000" stroke="#000000" stroke-width="0.3" stroke-linecap="butt"/><path d="M232.05,187.975v-15.95h15.9v15.95z" fill="none" stroke="#000000" stroke-width="1" stroke-linecap="butt"/><path d="M235.875,182.12584l0.07476,-6.05018c0,0 0.42599,0.02116 0.72063,0.20022c0.23936,0.14547 0.80741,0.54016 0.80741,0.54016c0,0 0.02479,-0.45017 0.25267,-0.62391c0.235,-0.17917 0.73055,-0.17892 0.92941,-0.18386c0.21371,-0.00531 0.7151,0.05688 1.01089,0.21951c0.33547,0.18444 0.71529,0.50917 0.71529,0.50917c0,0 0.45464,-0.32656 0.68089,-0.44482c0.43327,-0.22646 0.90805,-0.36629 0.90805,-0.36629l-0.1,3.9l2.2,2.2c0,0 -2.35576,1.97568 -4.15476,1.99762c-1.79899,0.02194 -4.04524,-1.89762 -4.04524,-1.89762z" fill="#e480ff" stroke="#000000" stroke-width="0.3" stroke-linecap="butt"/><path d="M238.825,178.90084c0,0 -1.95,1.32361 -1.95,0.15c0,-1.17361 0.1,-1.925 0.1,-1.925z" fill="#000000" stroke="none" stroke-width="0" stroke-linecap="butt"/><path d="M241.075,177.12584c0,0 0.1,0.75139 0.1,1.925c0,1.17361 -1.95,-0.15 -1.95,-0.15z" data-paper-data="{&quot;index&quot;:null}" fill="#000000" stroke="none" stroke-width="0" stroke-linecap="butt"/><path d="M237.69883,180.04157l-0.39491,-0.86395l-0.83723,-0.42296l0.91727,-0.31488l0.2875,-0.88988l0.27381,0.87619l0.7119,0.32857l-0.65714,0.30119z" fill="#ff0000" stroke="none" stroke-width="0" stroke-linecap="butt"/><path d="M240.44883,179.94157l-0.39491,-0.86395l-0.83723,-0.42296l0.91727,-0.31488l0.2875,-0.88988l0.27381,0.87619l0.7119,0.32857l-0.65714,0.30119z" fill="#ff0000" stroke="none" stroke-width="0" stroke-linecap="butt"/><path d="M240.825,176.67584l-1.85,1.75l-1.7,-1.85" fill="none" stroke="#000000" stroke-width="0.2" stroke-linecap="round"/><path d="M240.525,181.77584c0,0.33137 -0.4701,-0.6 -1.05,-0.6c-0.5799,0 -1,0.68137 -1,0.35c0,-0.33137 -0.1799,-1.05 0.4,-1.05c0.10196,0 0.36421,0.28224 0.5982,0.26875c0.3114,-0.01795 0.6113,-0.32834 0.79101,-0.27925c0.45325,0.12381 0.26079,1.11494 0.26079,1.3105z" fill="#ff0000" stroke="#000000" stroke-width="0.2" stroke-linecap="butt"/><path d="M240.375,181.95084c0,0.51086 -0.48652,0.775 -1.025,0.775c-0.53848,0 -0.925,-0.26414 -0.925,-0.775c0,-0.51086 0.38652,0.125 0.925,0.125c0.53848,0 1.025,-0.63586 1.025,-0.125z" fill="#ff0000" stroke="#000000" stroke-width="0.2" stroke-linecap="butt"/><path d="M239.325,181.97584c-0.52467,0 -0.75,-0.13505 -0.75,-0.425c0,-0.28995 0.27533,-0.225 0.8,-0.225c0.52467,0 0.8,-0.01495 0.8,0.275c0,0.28995 -0.32533,0.375 -0.85,0.375z" fill="#ffffff" stroke="#000000" stroke-width="0.2" stroke-linecap="butt"/><path d="M238.425,181.67584l-0.75,-0.8" fill="none" stroke="#000000" stroke-width="0.2" stroke-linecap="round"/><path d="M240.475,181.82584l0.8,-0.5" fill="none" stroke="#000000" stroke-width="0.2" stroke-linecap="round"/><path d="M238.625,185.12584l-0.1,-1.32381c0,0 0.70379,0.16122 1.25476,0.17143c0.55097,0.01021 1.63571,-0.3119 1.63571,-0.3119l-0.29047,1.36428z" fill="#e480ff" stroke="#000000" stroke-width="0.3" stroke-linecap="butt"/><path d="M238.525,187.42584v-2.45h2.45v2.45z" fill="#ff0000" stroke="#000000" stroke-width="0.3" stroke-linecap="butt"/><path d="M240.975,187.42584v-2.4c0,0 1.25803,0.1532 2.1,0.85c0.84197,0.6968 0.8,1.55 0.8,1.55z" fill="#404040" stroke="#000000" stroke-width="0.3" stroke-linecap="butt"/><path d="M235.5309,187.31473c0,0 -0.04197,-0.85319 0.8,-1.55c0.84197,-0.69681 2.1,-0.85 2.1,-0.85v2.4z" data-paper-data="{&quot;index&quot;:null}" fill="#404040" stroke="#000000" stroke-width="0.3" stroke-linecap="butt"/><path d="M241.11364,185.06721c0.11495,0.77023 -0.62039,1.32361 -1.40909,1.27273c-0.7887,-0.05089 -1.56638,-0.64779 -1.40909,-1.45455" fill="none" stroke="#fff700" stroke-width="0.3" stroke-linecap="round"/><path d="M234.44006,181.50618l-0.18096,-3.40476l1.56667,1.33334l-0.1,1.9z" fill="#e480ff" stroke="#000000" stroke-width="0.3" stroke-linecap="butt"/><path d="M234.8894,181.2538l-0.02044,-1.6077l0.89013,0.73771l-0.03199,0.74122z" fill="#ab60bf" stroke="#000000" stroke-width="0.2" stroke-linecap="butt"/><path d="M235.66393,181.51145c0.11495,0.77023 0.4229,1.13963 -0.3658,1.08875c-0.7887,-0.05089 -0.3824,-0.74303 -0.22511,-1.54979" fill="none" stroke="#fff700" stroke-width="0.3" stroke-linecap="round"/><path d="M238.40479,181.35235c0,0 0.00113,-0.55297 0.2381,-0.76191c0.23697,-0.20894 0.66666,0.19047 0.66666,0.19047c0,0 0.38632,0.28734 0.23809,0.38096c-0.14823,0.09362 -1.14285,0.19048 -1.14285,0.19048z" fill="#000000" stroke="none" stroke-width="0" stroke-linecap="butt"/><path d="M239.24392,182.1241c0.19904,0.22114 0.22105,0.40631 -0.03836,0.58664c-0.25941,0.18032 -0.64036,-0.31345 -0.64036,-0.31345c0,0 -0.35074,-0.56792 -0.19274,-0.64389c0.15801,-0.07596 0.67242,0.14956 0.87146,0.3707z" fill="#000000" stroke="none" stroke-width="0" stroke-linecap="butt"/><path d="M239.4905,174.96901c0,0 -0.50896,-1.42326 -0.45881,-1.94148c0.01841,-0.19027 0.44483,-0.65467 0.93751,-0.68718c0.69476,-0.04584 1.5213,0.39056 1.5213,0.39056c0,0 1.71375,-0.60797 1.74749,-0.40553c0.00931,0.05588 1.24647,0.80804 1.24647,0.80804l0.22123,1.39428c0,0 -0.90912,-1.19955 -1.54801,-1.26505c-0.52738,-0.05407 -1.4767,0.61112 -1.4767,0.61112c0,0 -1.60465,-1.12877 -1.78255,-0.82148c-0.17103,0.29541 0.73493,1.91672 0.73493,1.91672z" fill="#800000" stroke="#000000" stroke-width="0.3" stroke-linecap="butt"/></g></g></svg>