<svg version="1.1" xmlns="http://www.w3.org/2000/svg" xmlns:xlink="http://www.w3.org/1999/xlink" width="18.178" height="25.22104" viewBox="0,0,18.178,25.22104"><g transform="translate(-232.56917,-174.74625)"><g data-paper-data="{&quot;isPaintingLayer&quot;:true}" fill-rule="nonzero" stroke-linejoin="miter" stroke-miterlimit="10" stroke-dasharray="" stroke-dashoffset="0" style="mix-blend-mode: normal"><g stroke-linecap="butt"><path d="M241.32454,191.08042l1.30908,0.76646l1.31178,-1.55547l1.1212,0.76001l-1.19556,1.26002c0,0 3.95466,0.42091 4.03246,0.47952c0.22699,0.17101 1.74974,1.65521 1.01809,2.50892c-0.7092,0.8275 -2.02911,0.72793 -3.07072,0.72793c-1.01775,0 -3.89861,0.68292 -5.07322,-0.23686c-1.40855,-1.10297 -1.03204,-3.84209 -1.03204,-3.84209z" fill="#ff0000" stroke="#000000" stroke-width="0.3"/><path d="M245.58772,196.13306c-1.45338,0 -5.94737,-1.50345 -5.94737,-2.57895c0,-1.0755 0.1782,-2.31579 1.63158,-2.31579c0.54263,0 0.92792,0.56938 1.65946,0.94318c1.22782,0.62738 2.76159,1.2776 2.76159,1.95156c0,1.0755 1.34812,2 -0.10526,2z" fill="#bf0000" stroke="none" stroke-width="0"/><path d="M247.73912,192.76465c0.37082,0 -0.96643,-0.08729 -0.96643,0.97368c0,1.06097 0.27834,1.71053 -0.09249,1.71053c-0.37083,0 -1.03986,-1.01798 -1.03986,-2.07895c0,-1.06096 1.72795,-0.60526 2.09878,-0.60526z" fill="#ffffff" stroke="#000000" stroke-width="0.3"/><path d="M244.32456,193.15939c0,-1.06097 1.72796,-0.60527 2.09878,-0.60527c0.37082,0 -0.96643,-0.08729 -0.96643,0.97368c0,1.06097 0.27833,1.71053 -0.09249,1.71053c-0.37082,0 -1.03986,-1.01798 -1.03986,-2.07895z" fill="#ffffff" stroke="#000000" stroke-width="0.3"/><path d="M243.00877,192.94887c0,-1.06097 1.72796,-0.60527 2.09878,-0.60527c0.37082,0 -0.96643,-0.08728 -0.96643,0.97369c0,1.06097 0.27833,1.71052 -0.09249,1.71052c-0.37082,0 -1.03986,-1.01798 -1.03986,-2.07895z" fill="#ffffff" stroke="#000000" stroke-width="0.3"/><path d="M249.32456,195.10676c0,0.39241 -0.16486,2.24292 -4.18421,2.23684c-3.95967,-0.00599 -5.56866,-2.68687 -5.55263,-3.07895c0.05263,-1.28715 1.69705,1.68649 5.39474,1.81579c4.11793,0.144 4.34211,-1.3661 4.34211,-0.97369z" fill="#ffffff" stroke="#000000" stroke-width="0.3"/></g><path d="M241.9643,187.77753l-1.71428,-3.64286l1.85715,0.07143l-0.23248,2.08154l2.01819,1.13275z" fill="#bfbfbf" stroke="#000000" stroke-width="0.3" stroke-linecap="butt"/><path d="M241.9643,187.70609l1.85714,-0.35715l0.28572,1.28572l-0.14286,1.64286z" fill="#bf9360" stroke="#000000" stroke-width="0.3" stroke-linecap="butt"/><path d="M233.25001,189.34895l-0.22822,-2.22528l0.93389,0.87533l1.27665,-1.06037l0.80339,0.83891c0,0 2.70275,1.12147 3.78585,1.15528c1.10686,0.03455 2.14272,-0.98129 2.14272,-0.98129l0.19611,1.64218l2.84949,-0.15226l-0.06735,1.56568l-0.91615,-0.80558l-1.34781,1.57599l-1.51166,-0.84076l-1.70184,1.13725c0,0 -2.01026,0.07321 -1.5898,-0.18252c0.67703,-0.4118 -0.26629,-2.21067 -0.26629,-2.21067l-2.34904,1.55814z" fill="#565fff" stroke="#000000" stroke-width="0.3" stroke-linecap="butt"/><path d="M235.32861,186.96341l-1.36201,0.75858l-0.82583,-0.79045l-0.04364,-2.08134l2.30075,0.30451z" fill="#ffc380" stroke="#000000" stroke-width="0.3" stroke-linecap="butt"/><g><path d="M244.45598,191.1383c-0.89624,-0.68208 -0.7588,-0.52664 -1.37942,-1.10855c-0.62063,-0.58192 -0.44083,-0.42662 -1.09301,-1.08644c-0.02729,-0.0276 0.55277,-1.27445 0.97337,-0.88158c0.46661,0.43584 1.32744,1.07027 0.98219,0.7437c-0.81885,-0.77453 -0.78442,-1.37883 -0.48759,-1.45275c0.68022,-0.16941 1.39585,0.78822 1.14254,0.52655c-0.20047,-0.20709 -0.67951,-0.62397 -0.71618,-0.86417c-0.08698,-0.56964 0.56468,-0.93103 0.7232,-0.80024c0.68633,0.56637 1.14931,0.83868 1.45665,1.12685c0.2779,0.26056 0.27014,0.3768 1.00483,1.21008c0.64106,0.72707 -2.19986,2.89605 -2.60654,2.58655z" data-paper-data="{&quot;index&quot;:null}" fill="#ffc380" stroke="#000000" stroke-width="0.3" stroke-linecap="butt"/><path d="M244.75746,186.31784l0.56047,-0.56605l2.03734,2.0067l-0.56047,0.56605z" fill="#808080" stroke="#000000" stroke-width="0.3" stroke-linecap="butt"/><path d="M244.86082,185.38033l0.42932,-0.39881l2.80228,2.6513l-0.42932,0.39881z" fill="#bfbfbf" stroke="#000000" stroke-width="0.3" stroke-linecap="butt"/><path d="M250.53337,185.58181c-0.37586,1.03866 -1.71105,2.94521 -2.60276,1.94467c-0.84112,-0.94378 -1.66168,-1.70549 -2.59779,-2.68717c-0.76228,-0.79939 2.06433,-2.44337 3.10298,-2.06751c1.03866,0.37586 2.47342,1.77135 2.09756,2.81001z" fill="#808080" stroke="#000000" stroke-width="0.3" stroke-linecap="butt"/><path d="M246.89556,185.13893c-0.40942,1.13139 2.10283,3.38163 1.27014,2.47261c-0.78607,-0.85813 -1.78383,-1.6828 -2.61921,-2.73291c-0.74905,-0.94159 1.37719,-2.00622 2.53847,-2.08189c1.42307,-0.09273 -0.77998,1.2108 -1.1894,2.34219z" fill="#404040" stroke="none" stroke-width="0" stroke-linecap="butt"/><path d="M246.40411,183.48324c0,0 1.43146,1.14088 1.99507,1.75671c0.5075,0.55452 1.23596,1.77365 1.23596,1.77365" data-paper-data="{&quot;index&quot;:null}" fill="none" stroke="#000000" stroke-width="0.2" stroke-linecap="round"/><path d="M245.61575,184.07723c0,0 1.43146,1.14088 1.99507,1.75671c0.5075,0.55452 1.23596,1.77365 1.23596,1.77365" data-paper-data="{&quot;index&quot;:null}" fill="none" stroke="#000000" stroke-width="0.2" stroke-linecap="round"/><path d="M247.00595,182.86867c0,0 1.43146,1.14088 1.99507,1.75671c0.5075,0.55452 1.23596,1.77365 1.23596,1.77365" data-paper-data="{&quot;index&quot;:null}" fill="none" stroke="#000000" stroke-width="0.2" stroke-linecap="round"/><path d="M247.76564,182.50402c0,0 1.27593,0.97094 1.76774,1.50831c0.44284,0.48386 1.05164,1.57225 1.05164,1.57225" data-paper-data="{&quot;index&quot;:null}" fill="none" stroke="#000000" stroke-width="0.2" stroke-linecap="round"/><path d="M245.93037,185.10221c0,0 0.83751,-1.12028 1.31224,-1.5393c0.42747,-0.37731 1.40929,-0.86283 1.40929,-0.86283" data-paper-data="{&quot;index&quot;:null}" fill="none" stroke="#000000" stroke-width="0.2" stroke-linecap="round"/><path d="M246.53267,185.88109c0,0 0.83751,-1.12028 1.31224,-1.5393c0.42747,-0.37731 1.40929,-0.86283 1.40929,-0.86283" data-paper-data="{&quot;index&quot;:null}" fill="none" stroke="#000000" stroke-width="0.2" stroke-linecap="round"/><path d="M250.50174,184.99061c0,0 -0.57038,0.93507 -0.984,1.32753c-0.45933,0.43585 -1.64924,1.17108 -1.64924,1.17108" data-paper-data="{&quot;index&quot;:null}" fill="none" stroke="#000000" stroke-width="0.2" stroke-linecap="round"/><path d="M249.77915,184.32184c0,0 -0.57038,0.93506 -0.98399,1.32752c-0.45933,0.43585 -1.64924,1.17109 -1.64924,1.17109" data-paper-data="{&quot;index&quot;:null}" fill="none" stroke="#000000" stroke-width="0.2" stroke-linecap="round"/></g><g><path d="M240.10024,189.04767c-1.04347,0 -4.33496,-1.34742 -4.67868,-1.98067c-0.12314,-0.22687 0.29642,-1.33805 0.12648,-1.98994c-0.07608,-0.29184 -2.44908,-0.03915 -2.6187,-0.24013c-0.27371,-0.32429 1.5653,-0.78742 1.5653,-0.78742c0,0 -0.51094,-0.75159 -0.51094,-0.87905c0,-0.55366 1.08259,-0.85373 2.51548,0.01094c0.82964,0.50064 2.56554,0.9853 3.38678,0.9853c1.06683,0 0.72974,1.19367 1.17541,1.83451c0.45523,0.65458 1.30078,1.47557 1.30078,1.9274c0,0.89418 -0.10537,1.11905 -2.26191,1.11905z" fill="#ffffff" stroke="#000000" stroke-width="0.3" stroke-linecap="butt"/><path d="M239.03696,188.43885c-1.02015,0.01307 -1.48933,-1.12928 -1.48933,-1.12928c-0.28738,-0.92783 0.55239,-1.79556 1.47619,-1.85714c0.9238,-0.06159 1.4598,0.82565 1.38095,1.66667c0,0 -0.22562,1.30512 -1.36781,1.31975z" fill="none" stroke="#ff0000" stroke-width="0.3" stroke-linecap="round"/><path d="M239.9762,185.92861l-1.83333,2.11904" fill="none" stroke="#ff0000" stroke-width="0.3" stroke-linecap="round"/><path d="M237.50001,183.83338v0l2.57143,0.52381c0,0 0.35279,0.16702 0.43747,0.32867c0.08964,0.17114 0.08634,0.67133 0.08634,0.67133z" fill="#bfbfbf" stroke="none" stroke-width="0" stroke-linecap="butt"/></g><g><path d="M243.09246,184.99297c-0.14426,0.68669 -1.93122,0.89253 -3.99128,0.45973c-2.06007,-0.43279 -3.61314,-1.34032 -3.46888,-2.027c0.08308,-0.39544 -0.09559,-3.48503 1.40711,-4.37442c1.10674,-0.65502 4.19209,0.60338 5.06582,0.78694c0.61759,0.12975 -1.60663,3.92522 -1.11223,4.12155c1.15471,0.45859 2.20049,0.55237 2.09947,1.03319z" fill="#ffc380" stroke="#000000" stroke-width="0.3" stroke-linecap="butt"/><path d="M237.74207,181.34523l0.51459,-1.0597l0.64028,0.42646l0.31446,1.28253z" fill="#bf9360" stroke="none" stroke-width="0" stroke-linecap="butt"/><path d="M236.11872,180.00652l-1.16998,-1.69999c0,0 -0.0432,-1.60838 0.46967,-2.38459c0.51286,-0.7762 0.88716,-1.00793 1.78363,-1.02569c0.89647,-0.01776 5.9654,0.79012 5.9654,0.79012c0,0 0.63506,0.06277 0.88078,0.4146c0.24571,0.35183 0.09923,0.43476 0.00122,0.85201c-0.17619,0.75017 -0.73945,3.14833 -0.73945,3.14833z" fill="#ff0000" stroke="#000000" stroke-width="0.3" stroke-linecap="butt"/><path d="M235.3783,176.61535c0.23791,-1.13245 0.76513,-1.88291 1.94905,-1.6342c0.57869,0.12157 1.66788,-0.03636 2.01348,0.57488c0.36144,0.63927 -0.03641,2.05821 -0.15803,2.63711c-0.11122,0.5294 -0.75735,1.15142 -1.23462,1.44232c-0.54368,0.33138 -0.95216,0.2879 -1.58263,0.15545c-0.46288,-0.09725 -0.91351,-0.99269 -1.12387,-1.43097c-0.32768,-0.68272 -0.00827,-1.0549 0.13663,-1.7446z" fill="#bf0000" stroke="#000000" stroke-width="0.2" stroke-linecap="butt"/><path d="M244.17097,181.04312c0,0 -0.85389,-0.9503 -1.93032,-1.17644c-1.07643,-0.22614 -6.12368,0.4219 -5.88584,-0.71021c0.11857,-0.56439 -0.11806,3.03156 1.39935,2.29859c1.52634,-0.73729 4.97932,-4.71393 5.25541,-4.92411c0.27608,-0.21018 -0.2633,0.05814 0.1467,0.81135c0.34469,0.63324 1.51819,0.79633 1.49472,1.48786c-0.02347,0.69154 -1.59455,-0.97215 -1.53023,-0.4417c0.12343,1.0181 1.05023,2.65465 1.05023,2.65465z" fill="#00f8ff" stroke="#000000" stroke-width="0.3" stroke-linecap="butt"/><path d="M243.63514,180.27722c0,0 -1.02417,-0.43492 -1.9561,-0.63071c-0.93192,-0.19578 -5.44205,0.87164 -5.20422,-0.26047c0.11857,-0.5644 0.11211,2.73929 1.45422,1.9695c1.35002,-0.77433 4.48443,-4.60921 4.95176,-4.51104c0.16841,0.03538 -0.38234,-0.06906 -0.04539,0.66881c0.28327,0.62033 1.61904,1.27555 1.61904,1.27555c0,0 -2.01025,-1.16166 -1.96853,-0.63596c0.08005,1.00899 1.14922,2.12431 1.14922,2.12431z" fill="#00b9bf" stroke="#000000" stroke-width="0" stroke-linecap="butt"/><path d="M234.02174,182.71418l0.72616,-4.10506l1.25907,1.62695l-0.4885,1.83885z" fill="#ffc380" stroke="#000000" stroke-width="0.3" stroke-linecap="butt"/><path d="M234.62127,182.53359l0.45739,-2.27657l0.71944,0.90496l-0.1837,0.71881z" fill="#bf9360" stroke="#000000" stroke-width="0.2" stroke-linecap="butt"/><path d="M234.79774,178.22077c0,0 -0.61251,0.48927 -0.8882,0.63492c-0.2618,0.1383 -0.72642,0.21802 -0.72642,0.21802l0.33876,-2.19145c0,0 0.42349,0.28673 0.61542,0.44137c0.17389,0.1401 0.48736,0.44719 0.48736,0.44719z" fill="#565fff" stroke="#000000" stroke-width="0.3" stroke-linecap="butt"/><path d="M234.70944,178.17787c-0.11354,0.54048 -0.77932,0.80945 -1.38415,0.68238c-0.60482,-0.12706 -0.02915,0.02297 0.08439,-0.51751c0.11354,-0.54048 -0.04698,-0.35047 0.55785,-0.22341c0.60482,0.12706 0.85546,-0.48193 0.74192,0.05854z" fill="#000dff" stroke="none" stroke-width="0" stroke-linecap="butt"/><path d="M239.95665,181.22657c0,0 -0.47491,1.06804 -0.77089,1.00586c-0.29598,-0.06218 -0.43072,-0.61333 -0.30095,-1.23104c0.12977,-0.6177 0.77089,-1.00586 0.77089,-1.00586z" fill="#000000" stroke="none" stroke-width="0" stroke-linecap="butt"/><path d="M239.80471,181.4866l0.11474,-1.24102l2.20478,-0.07206l-1.11258,2.05322z" fill="#bf9360" stroke="none" stroke-width="0" stroke-linecap="butt"/><path d="M241.73966,181.30921c-0.12977,0.6177 -0.46448,1.07023 -0.74759,1.01075c-0.28311,-0.05948 -0.27765,-1.22614 -0.27765,-1.22614l0.74758,-1.01074c0,0 0.40742,0.60843 0.27765,1.22613z" fill="#000000" stroke="none" stroke-width="0" stroke-linecap="butt"/><path d="M237.24983,177.20317c0,0 1.10921,-0.17021 1.56008,0.51004c0.43531,0.65678 1.10013,3.50358 1.10013,3.50358" fill="none" stroke="#000000" stroke-width="0.3" stroke-linecap="round"/><path d="M240.66782,181.08403c0,0 1.00975,-1.56541 1.37615,-1.89735c0.37461,-0.33938 0.84741,-0.1171 0.84741,-0.1171" fill="none" stroke="#000000" stroke-width="0.3" stroke-linecap="round"/><path d="M241.29244,185.05926c0,0 -0.85744,-0.61748 -1.88186,-1.01317c-0.55503,-0.21438 -1.43101,-0.21453 -1.6258,-0.35629c-0.55436,-0.4034 -0.62854,-1.64046 -0.62854,-1.64046c0,0 0.69583,0.85502 1.3402,1.32394c0.72485,0.52749 2.79599,1.68598 2.79599,1.68598z" fill="none" stroke="#000000" stroke-width="0.3" stroke-linecap="round"/><path d="M237.53687,183.24846c-0.09914,-0.18259 -0.17935,-0.76757 -0.17935,-0.76757l1.47207,1.33109l-0.87564,-0.23261c0,0 -0.31793,-0.14831 -0.41707,-0.33091z" fill="#ffffff" stroke="#000000" stroke-width="0" stroke-linecap="butt"/></g><g stroke-linecap="butt"><path d="M237.58772,191.86992c0,1.01737 3.86652,0.10526 3.05263,0.10526c-0.24305,0 0.81393,0.65005 -0.10536,1.84204c-0.29665,0.38465 0.02128,0.14116 -1.30933,0.28222c-0.4655,0.04935 1.35876,1.51997 0.80195,1.92209c-0.74138,0.53541 -0.2471,2.27308 -4.87032,2.2478c-2.98696,-0.01633 -2.08064,-4.82452 -2.10012,-6.50325c-0.02039,-1.75729 0.10949,-1.9908 0.10949,-2.26458c0,-0.60277 1.00027,1.51431 2.1564,1.79563c0.79521,0.1935 1.77508,-1.47983 2.10676,-1.47983c0.61881,0 0.75634,0.80898 0.61011,1.543c-0.0461,0.23141 -0.45221,0.26577 -0.45221,0.50962z" fill="#ff0000" stroke="#000000" stroke-width="0.3"/><path d="M239.95614,195.86992c-0.50944,0.79945 -0.5184,1.27724 -1.49874,1.74232c-0.53888,0.25565 -1.25618,0.56993 -2.92231,0.57346c-1.18079,0.00251 -1.13129,-0.09789 -1.45858,-0.28902c-0.57083,-0.33336 -0.89066,-0.94273 -0.85721,-1.76361c-0.02804,-1.60409 1.71398,-1.52632 2.78948,-1.52632c1.0755,0 4.55658,0.30713 3.94736,1.26316z" fill="#bf0000" stroke="none" stroke-width="0"/><path d="M235.9035,194.4702c-1.13363,0 -1.89473,0.4588 -1.89473,-0.07895c0,-0.53775 0.81373,-0.71052 1.94736,-0.71052c1.13363,0 2,0.33067 2,0.86841c0,0.53775 -0.919,-0.07895 -2.05263,-0.07895z" data-paper-data="{&quot;index&quot;:null}" fill="#ffffff" stroke="#000000" stroke-width="0.3"/><path d="M235.9035,193.52283c-1.13363,0 -1.89473,0.45881 -1.89473,-0.07894c0,-0.53775 0.81373,-0.71053 1.94736,-0.71053c1.13363,0 2,0.33067 2,0.86841c0,0.53775 -0.919,-0.07895 -2.05263,-0.07895z" data-paper-data="{&quot;index&quot;:null}" fill="#ffffff" stroke="#000000" stroke-width="0.3"/><path d="M235.85087,192.62809c-1.13363,0 -1.89473,0.45881 -1.89473,-0.07894c0,-0.53775 0.81373,-0.71053 1.94736,-0.71053c1.13363,0 2,0.33067 2,0.86841c0,0.53775 -0.919,-0.07895 -2.05263,-0.07895z" data-paper-data="{&quot;index&quot;:null}" fill="#ffffff" stroke="#000000" stroke-width="0.3"/><path d="M240.27193,195.73833c0,0.39241 -0.32275,4.08503 -4.34211,4.07895c-3.95967,-0.00599 -3.14761,-3.31844 -3.13158,-3.71053c0.05263,-1.28715 -0.724,2.10754 2.97369,2.23684c4.11793,0.144 4.5,-2.99768 4.5,-2.60527z" fill="#ffffff" stroke="#000000" stroke-width="0.3"/><path d="M236.0614,199.50149c0,0.21293 -0.83102,0.26316 -1.76316,-0.15789c-0.54611,-0.24668 -0.76031,-0.33884 -0.93729,-0.5632c-0.14494,-0.18375 -0.40482,-0.38557 -0.40482,-0.64733c0,-0.58135 -0.0604,-2.30041 -0.07895,-1.21053c-0.00791,0.46517 0.24997,1.33086 1.10584,1.83333c0.79035,0.464 2.07837,0.46652 2.07837,0.74562z" fill="#bfbfbf" stroke="none" stroke-width="0"/></g></g></g></svg>