<svg version="1.1" xmlns="http://www.w3.org/2000/svg" xmlns:xlink="http://www.w3.org/1999/xlink" width="25.17239" height="41.97028" viewBox="0,0,25.17239,41.97028"><g transform="translate(-223.93416,-172.04184)"><g data-paper-data="{&quot;isPaintingLayer&quot;:true}" fill-rule="nonzero" stroke-linejoin="miter" stroke-miterlimit="10" stroke-dasharray="" stroke-dashoffset="0" style="mix-blend-mode: normal"><g stroke="#000000"><path d="M244.04162,202.17308c0,1.12581 -1.11815,3.5 -2.30769,3.5c-1.18953,0 -1.53846,-2.29727 -1.53846,-3.42308c0,-1.12581 0.42584,0.80769 1.61538,0.80769c1.18954,0 2.23077,-2.01043 2.23077,-0.88462z" fill="#e480ff" stroke-width="0.3" stroke-linecap="butt"/><path d="M241.81085,205.59615l0.07692,-2.53846" fill="none" stroke-width="1" stroke-linecap="round"/><path d="M244.04657,202.46269c-0.99132,2.96178 -2.91053,3.23877 -3.40461,5.21891c-0.63465,2.54351 -4.84638,5.9625 -4.84638,5.9625l0.46542,-2.71165c0,0 1.56401,-0.81516 1.41263,-1.84248c-0.01281,-1.36972 -1.78375,-1.99985 -1.78375,-1.99985l3.61701,-0.20985c0,0 -1.57434,1.33702 -0.66965,0.43133c0.96165,-0.9627 1.89039,-2.76927 1.4401,-4.54122c-0.53886,-2.1205 0.65548,2.73077 1.65384,2.73077c0.99836,0 2.70188,-5.14628 2.11539,-3.03846z" fill="#252525" stroke-width="0.3" stroke-linecap="butt"/></g><path d="M242.66227,189.98813c-0.90014,1.07075 -2.15293,-0.4672 -3.26505,0.19974c-1.52133,0.91235 -2.21604,5.24735 -3.81096,5.8548c-0.9949,0.37893 2.20733,-3.57975 1.05696,-4.32219c-0.50934,-0.32875 -3.68389,2.71774 -4.91199,2.91883c-2.11931,0.34701 -2.55794,-1.92404 -3.16507,-2.43443c-0.48069,-0.4041 -2.70358,-1.34171 -2.70985,-3.11301c-0.00581,-1.63792 2.20821,-4.11107 1.75374,-4.63262c-0.87797,-1.00757 -3.65857,2.7925 -3.52096,1.77004c0.19735,-1.4664 3.73066,-2.97968 4.33963,-4.58161c0.46625,-1.22651 -1.01276,-2.62583 -0.1012,-3.71017c0.22953,-0.27303 1.15707,-1.57827 2.11935,-2.08676c1.0304,-0.54448 2.09303,-0.29083 2.14271,-0.50085c0.19981,-0.8449 -3.83726,-1.04344 -2.54023,-1.48706c3.09912,-1.05996 9.93037,-0.19653 12.37428,1.85796c1.93053,1.62291 0.88652,4.84589 0.97534,7.35654c0.00967,0.27352 0.03143,0.9868 0.38594,1.12919c0.73341,0.29457 2.08133,-0.0958 2.01809,0.44656c-0.04826,0.41389 -1.46544,0.97194 -2.47447,0.9615c-0.8463,-0.00874 -1.27839,-0.6045 -1.61095,-0.20068c-0.40176,0.48788 0.95758,0.80356 1.32796,1.58266c0.47935,1.0083 0.03764,2.49086 -0.38329,2.99157z" fill="#800000" stroke="#000000" stroke-width="0.3" stroke-linecap="butt"/><g stroke="#000000" stroke-width="0.3"><path d="M238.75975,195.50682c0,0 0.76838,-2.23427 0.76087,-3.33824c-0.00623,-0.91569 -0.8028,-2.82694 -0.8028,-2.82694l-0.0295,-4.33733h2.45l-0.07143,4.65233c0,0 2.6647,0.1776 2.60476,3.03626c-0.10106,1.04487 -2.37914,3.03084 -2.37914,3.03084l-0.04866,2.89486c0,0 1.41422,0.55309 1.87956,0.94095c0.5737,0.47819 1.30613,1.7144 1.30613,1.7144c0,0 -0.94905,1.96785 -2.13708,2.02262c-0.8123,0.03744 -1.58748,-1.84028 -2.15406,-1.81417c-0.54242,0.02501 2.02777,3.45991 -2.00052,3.47164c-1.86273,0.00542 -1.5869,-3.31691 -1.5869,-3.31691c0,0 2.16289,-1.8803 2.33678,-2.91013c0.14788,-0.87579 -0.12801,-3.2202 -0.12801,-3.2202z" fill="#ff0000" stroke-linecap="butt"/><path d="M240.83215,189.5383l0.14285,-4.46069c0,0 1.25803,0.22458 2.1,1.24606c0.84197,1.02148 0.72857,3.42404 0.72857,3.42404c0,0 0.68238,1.92261 0.70233,2.84031c0.02021,0.9295 -0.58185,2.70175 -0.58185,2.70175l0.54841,5.97254c0,0 -0.26821,-0.58988 -1.53569,-1.5137c-2.02916,-1.47897 -1.95656,-1.18962 -1.95656,-1.18962l0.01242,-3.03606c0,0 2.15729,-0.03096 2.4156,-3.14705c0.11684,-2.64571 -2.5761,-2.83758 -2.5761,-2.83758z" fill="#404040" stroke-linecap="butt"/><path d="M235.97994,189.2707c0,0 -0.32769,-2.08842 0.51429,-3.10991c0.84197,-1.02149 2.1,-1.24606 2.1,-1.24606l0.07143,4.35597c0,0 0.72562,2.0218 0.73176,3.00242c0.00682,1.09103 -0.69266,3.2479 -0.69266,3.2479c0,0 0.22785,2.40113 0.0324,3.38463c-0.19772,0.99493 -1.21199,2.55103 -1.21199,2.55103l-1.04837,0.06518c0,0 -0.18078,-2.44562 0.04813,-3.23728c0.19795,-0.68458 1.246,-1.23829 1.246,-1.23829l-0.39488,-4.50848z" data-paper-data="{&quot;index&quot;:null}" fill="#404040" stroke-linecap="butt"/><path d="M244.42335,193.00739c0,0 0.13097,2.44849 -1.78063,2.15271c-0.55343,-0.08563 -1.7908,-2.04799 -1.7908,-2.04799" fill="none" stroke-linecap="round"/><path d="M240.35192,191.1226c0,0 0.31743,1.08414 -0.8705,2.16413c-1.50333,1.36674 -1.84379,-0.80289 -1.84379,-0.80289" fill="none" stroke-linecap="round"/></g><path d="M238.625,185.12584l-0.1,-1.32381c0,0 0.70379,0.16122 1.25476,0.17143c0.55097,0.01021 1.63571,-0.3119 1.63571,-0.3119l-0.29047,1.36428z" fill="#e480ff" stroke="#000000" stroke-width="0.3" stroke-linecap="butt"/><path d="M241.11364,185.06721c0.11495,0.77023 -0.62039,1.32361 -1.40909,1.27273c-0.7887,-0.05089 -1.56638,-0.64779 -1.40909,-1.45455" fill="none" stroke="#fff700" stroke-width="0.3" stroke-linecap="round"/><path d="M238.36496,174.89463c0,0 -0.0556,-1.85643 -0.35409,-2.02202c-0.31049,-0.17226 -1.10737,1.62051 -1.10737,1.62051c0,0 -1.1562,-0.08304 -1.58089,0.23427c-0.5145,0.3844 -0.67827,1.88059 -0.67827,1.88059l-0.52644,-1.30989c0,0 0.67505,-1.28087 0.65433,-1.33359c-0.07505,-0.19102 1.70761,-0.54977 1.70761,-0.54977c0,0 0.48496,-0.79902 1.10459,-1.11659c0.4394,-0.2252 1.04382,-0.04582 1.15736,0.10797c0.30924,0.41885 0.60371,1.90142 0.60371,1.90142z" data-paper-data="{&quot;index&quot;:null}" fill="#800000" stroke="#000000" stroke-width="0.3" stroke-linecap="butt"/><g><path d="M233.43964,185.56276l3.11855,0.81479l1.24061,2.0161l-1.50829,5.77005c0,0 -1.21232,3.64052 -2.39781,3.65764c-1.08312,-0.05745 -0.75828,0.15448 -1.31252,-0.79834c-1.47168,-2.53004 -1.06511,-1.58767 -1.06511,-1.58767l3.54076,-3.08627z" fill="#404040" stroke="#000000" stroke-width="0.3" stroke-linecap="butt"/><path d="M235.22897,196.72328c0,0.52634 -0.2631,2.05266 -1.46215,2.05266c-1.19905,0 -1.28492,-1.453 -1.28492,-1.97934c0,-0.52634 0.08587,0.95302 1.28492,0.95302c1.19905,0 1.46215,-1.55267 1.46215,-1.02633z" fill="#fff700" stroke="#000000" stroke-width="0.3" stroke-linecap="butt"/><path d="M235.1779,197.48743c0,0.52634 -0.2631,2.05266 -1.46215,2.05266c-1.19905,0 -1.28492,-1.45301 -1.28492,-1.97935c0,-0.52634 0.08587,0.95301 1.28492,0.95301c1.19905,0 1.46215,-1.55267 1.46215,-1.02632z" fill="#fff700" stroke="#000000" stroke-width="0.3" stroke-linecap="butt"/><path d="M234.96312,202.00155l-0.9587,-0.78361l1.2031,-1.03516l-1.27596,0.95332l-1.12236,-0.51023l-1.08575,-1.12177l0.75844,-1.02139c0,0 0.51759,0.95302 1.152,0.95302c0.66394,0 1.41784,-1.02632 1.41784,-1.02632l0.62031,0.95302l1.63573,-0.23404l0.08859,1.31904z" fill="#e480ff" stroke="#000000" stroke-width="0.3" stroke-linecap="butt"/><path d="M231.59574,199.2891c0,0 -0.83985,-0.69081 -0.17723,-1.39288c0.52802,-0.55946 1.26782,0.3703 1.26782,0.3703z" fill="#808080" stroke="#000000" stroke-width="0.3" stroke-linecap="butt"/><g><path d="M236.863,200.59157l0.3889,0.32903l-1.42412,1.15805l-0.3889,-0.32903z" fill="#808080" stroke="#000000" stroke-width="0.1" stroke-linecap="butt"/><path d="M237.62418,200.60779l0.27361,0.25172l-1.88283,1.59387l-0.27361,-0.25171z" fill="#bfbfbf" stroke="#000000" stroke-width="0.1" stroke-linecap="butt"/><path d="M237.31168,203.93472c-0.72096,-0.2268 -2.03708,-1.01585 -1.32841,-1.52157c0.66846,-0.47702 1.20957,-0.94388 1.90555,-1.47542c0.56675,-0.43284 1.68269,1.21522 1.40853,1.81165c-0.27416,0.59643 -1.26472,1.41214 -1.98568,1.18534z" fill="#808080" stroke="#000000" stroke-width="0.1" stroke-linecap="butt"/><path d="M237.66198,201.83759c-0.78533,-0.24705 -2.38486,1.18303 -1.74077,0.71055c0.60805,-0.44603 1.1951,-1.01465 1.93774,-1.48736c0.6659,-0.42387 1.38522,0.81423 1.42494,1.48571c0.04868,0.82286 -0.83659,-0.46185 -1.62192,-0.7089z" fill="#404040" stroke="none" stroke-width="0" stroke-linecap="butt"/><path d="M238.82355,201.56919c0,0 -0.81275,0.81617 -1.24911,1.13597c-0.3929,0.28797 -1.25234,0.69734 -1.25234,0.69734" data-paper-data="{&quot;index&quot;:null}" fill="none" stroke="#000000" stroke-width="0.1" stroke-linecap="round"/><path d="M238.41774,201.10827c0,0 -0.81275,0.81619 -1.24909,1.13598c-0.3929,0.28797 -1.25236,0.69734 -1.25236,0.69734" data-paper-data="{&quot;index&quot;:null}" fill="none" stroke="#000000" stroke-width="0.1" stroke-linecap="round"/><path d="M239.24587,201.92256c0,0 -0.81275,0.81618 -1.2491,1.13598c-0.3929,0.28797 -1.25235,0.69733 -1.25235,0.69733" data-paper-data="{&quot;index&quot;:null}" fill="none" stroke="#000000" stroke-width="0.1" stroke-linecap="round"/><path d="M239.4919,202.36478c0,0 -0.69234,0.72794 -1.07308,1.00699c-0.34285,0.25127 -1.10965,0.59275 -1.10965,0.59275" data-paper-data="{&quot;index&quot;:null}" fill="none" stroke="#000000" stroke-width="0.1" stroke-linecap="round"/><path d="M237.69852,201.28043c0,0 0.77275,0.49423 1.05996,0.77236c0.25861,0.25044 0.58652,0.82209 0.58652,0.82209" data-paper-data="{&quot;index&quot;:null}" fill="none" stroke="#000000" stroke-width="0.1" stroke-linecap="round"/><path d="M237.14789,201.62105c0,0 0.77275,0.49424 1.05995,0.77236c0.25861,0.25044 0.58652,0.82208 0.58652,0.82208" data-paper-data="{&quot;index&quot;:null}" fill="none" stroke="#000000" stroke-width="0.1" stroke-linecap="round"/><path d="M237.72481,203.92197c0,0 -0.64645,-0.33819 -0.91579,-0.58077c-0.29913,-0.26938 -0.79903,-0.96357 -0.79903,-0.96357" data-paper-data="{&quot;index&quot;:null}" fill="none" stroke="#000000" stroke-width="0.1" stroke-linecap="round"/><path d="M238.19993,203.51084c0,0 -0.64644,-0.33819 -0.91578,-0.58077c-0.29913,-0.26938 -0.79905,-0.96358 -0.79905,-0.96358" data-paper-data="{&quot;index&quot;:null}" fill="none" stroke="#000000" stroke-width="0.1" stroke-linecap="round"/></g></g><path d="M238.30801,185.3194c0.63623,0 0.17723,0.34911 0.17723,1.10769c0,0.75858 -0.33854,1.90523 -0.97477,1.90523c-0.63623,0 -1.152,-0.70357 -1.152,-1.46215c0,-0.75859 1.31331,-1.55077 1.94954,-1.55077z" fill="#404040" stroke="none" stroke-width="0" stroke-linecap="butt"/><path d="M245.25936,199.75313c-0.34052,0.18265 -1.12929,0.69375 -1.44815,0.73225c-0.39535,0.04773 0.10479,-0.74572 -0.05658,-0.93306c-0.16604,-0.19276 -1.08687,-0.00628 -0.87004,-0.28682c0.16387,-0.21202 0.99073,-0.56187 1.31904,-0.73797c0.76271,-0.40911 1.61734,-0.46641 1.90888,-0.12796c0.29154,0.33844 -0.09043,0.94445 -0.85314,1.35356z" fill="#e480ff" stroke="#000000" stroke-width="0.3" stroke-linecap="butt"/><g><path d="M235.9,182.1511l0.07476,-6.05018c0,0 0.42599,0.02116 0.72063,0.20022c0.23936,0.14547 0.80741,0.54016 0.80741,0.54016c0,0 0.02479,-0.45017 0.25267,-0.62391c0.235,-0.17917 0.73055,-0.17892 0.92941,-0.18386c0.21371,-0.00531 0.7151,0.05688 1.01089,0.21951c0.33547,0.18444 0.71529,0.50917 0.71529,0.50917c0,0 0.45464,-0.32656 0.68089,-0.44482c0.43327,-0.22646 0.90805,-0.36629 0.90805,-0.36629l-0.1,3.9l2.2,2.2c0,0 -2.35576,1.97568 -4.15476,1.99762c-1.79899,0.02194 -4.04524,-1.89762 -4.04524,-1.89762z" fill="#e480ff" stroke="#000000" stroke-width="0.3" stroke-linecap="butt"/><path d="M238.825,178.83834c0,0 -1.95,1.32361 -1.95,0.15c0,-1.17361 0.1,-1.925 0.1,-1.925z" fill="#000000" stroke="none" stroke-width="0" stroke-linecap="butt"/><path d="M241.075,177.06334c0,0 0.1,0.75139 0.1,1.925c0,1.17361 -1.95,-0.15 -1.95,-0.15z" data-paper-data="{&quot;index&quot;:null}" fill="#000000" stroke="none" stroke-width="0" stroke-linecap="butt"/><path d="M237.69883,179.97907l-0.39491,-0.86395l-0.83723,-0.42296l0.91727,-0.31488l0.2875,-0.88988l0.27381,0.87619l0.7119,0.32857l-0.65714,0.30119z" fill="#ff0000" stroke="none" stroke-width="0" stroke-linecap="butt"/><path d="M240.44883,179.94157l-0.39491,-0.86395l-0.83723,-0.42296l0.91727,-0.31488l0.2875,-0.88988l0.27381,0.87619l0.7119,0.32857l-0.65714,0.30119z" fill="#ff0000" stroke="none" stroke-width="0" stroke-linecap="butt"/><path d="M240.825,176.67584l-1.85,1.75l-1.7,-1.85" fill="none" stroke="#000000" stroke-width="0.2" stroke-linecap="round"/><path d="M240.4,181.71334c0,0.33137 -0.4701,-0.6 -1.05,-0.6c-0.5799,0 -1,0.68137 -1,0.35c0,-0.33137 -0.1799,-1.05 0.4,-1.05c0.10196,0 0.36421,0.28224 0.5982,0.26875c0.3114,-0.01795 0.6113,-0.32834 0.79101,-0.27925c0.45325,0.12381 0.26079,1.11494 0.26079,1.3105z" fill="#ff0000" stroke="#000000" stroke-width="0.2" stroke-linecap="butt"/><path d="M240.3125,181.88834c0,0.51086 -0.48652,0.775 -1.025,0.775c-0.53848,0 -0.925,-0.26414 -0.925,-0.775c0,-0.51086 0.38652,0.125 0.925,0.125c0.53848,0 1.025,-0.63586 1.025,-0.125z" fill="#ff0000" stroke="#000000" stroke-width="0.2" stroke-linecap="butt"/><path d="M239.2625,181.91334c-0.52467,0 -0.75,-0.13505 -0.75,-0.425c0,-0.28995 0.27533,-0.225 0.8,-0.225c0.52467,0 0.8,-0.01495 0.8,0.275c0,0.28995 -0.32533,0.375 -0.85,0.375z" fill="#ffffff" stroke="#000000" stroke-width="0.2" stroke-linecap="butt"/><path d="M237.675,180.81334l0.75,0.8" fill="none" stroke="#000000" stroke-width="0.2" stroke-linecap="round"/><path d="M240.35,181.76334l0.8,-0.5" fill="none" stroke="#000000" stroke-width="0.2" stroke-linecap="round"/><path d="M238.34229,181.28985c0,0 0.00113,-0.55297 0.2381,-0.76191c0.23697,-0.20894 0.66666,0.19047 0.66666,0.19047c0,0 0.38632,0.28734 0.23809,0.38096c-0.14823,0.09362 -1.14285,0.19048 -1.14285,0.19048z" fill="#000000" stroke="none" stroke-width="0" stroke-linecap="butt"/><path d="M239.18142,182.0616c0.19904,0.22114 0.22105,0.40631 -0.03836,0.58664c-0.25941,0.18032 -0.64036,-0.31345 -0.64036,-0.31345c0,0 -0.35074,-0.56792 -0.19274,-0.64389c0.15801,-0.07596 0.67242,0.14956 0.87146,0.3707z" fill="#000000" stroke="none" stroke-width="0" stroke-linecap="butt"/></g><g><path d="M232.55117,181.28396l-0.18096,-3.40476l1.56667,1.33334l-0.1,1.9z" fill="#e480ff" stroke="#000000" stroke-width="0.3" stroke-linecap="butt"/><path d="M233.11162,181.03158l-0.02044,-1.6077l0.89013,0.73771l-0.03199,0.74122z" fill="#ab60bf" stroke="#000000" stroke-width="0.2" stroke-linecap="butt"/><path d="M233.88615,181.28923c0.11495,0.77023 0.4229,1.13963 -0.3658,1.08875c-0.7887,-0.05089 -0.3824,-0.74303 -0.22511,-1.54979" fill="none" stroke="#fff700" stroke-width="0.3" stroke-linecap="round"/></g><g stroke="#000000" stroke-width="0.3" stroke-linecap="butt"><path d="M246.12178,200.96961c-0.34052,0.18265 -1.12929,0.69376 -1.44815,0.73226c-0.39535,0.04773 0.10479,-0.74573 -0.05658,-0.93307c-0.16604,-0.19276 -1.08687,-0.00628 -0.87004,-0.28682c0.16387,-0.21202 0.99073,-0.56186 1.31904,-0.73796c0.76271,-0.40911 1.61734,-0.46641 1.90888,-0.12796c0.29154,0.33844 -0.09043,0.94444 -0.85314,1.35355z" fill="#e480ff"/><path d="M246.9037,195.95324l-5.93723,-10.45661l2.83569,-1.24062l5.13969,11.87446l-1.94288,4.08844c0,0 0.70787,-2.24235 0.47504,-2.64142c-0.19531,-0.33478 -1.77935,0.40582 -1.77935,0.40582z" fill="#404040"/><path d="M247.08092,199.85231c-0.67063,0.96431 0.77092,-1.08487 -0.17723,-1.59507c-0.98808,-0.53169 -2.50468,0.92863 -1.68369,0.08862c0.97478,-0.99736 1.18711,-1.14598 2.12677,-0.62031c0.63363,0.35446 0.79755,0.59772 -0.26584,2.12676z" fill="#fff700"/><path d="M246.49816,198.91508c-0.98808,-0.53169 -2.50468,0.92863 -1.68369,0.08862c0.97478,-0.99736 1.18711,-1.14598 2.12677,-0.62031c0.63362,0.35446 0.79754,0.59773 -0.26585,2.12677c-0.67064,0.96431 0.77092,-1.08488 -0.17723,-1.59508z" fill="#fff700"/><path d="M245.62661,202.87128c-0.39536,0.04773 0.10478,-0.74572 -0.05659,-0.93306c-0.16605,-0.19276 -1.08687,-0.00628 -0.87004,-0.28682c0.16387,-0.21202 0.99073,-0.56186 1.31904,-0.73796c0.76271,-0.40911 1.61734,-0.46641 1.90888,-0.12796c0.29154,0.33844 -0.09043,0.94444 -0.85314,1.35355c-0.34052,0.18265 -1.12929,0.69375 -1.44815,0.73225z" fill="#e480ff"/><path d="M244.07262,202.79473c-1.10333,0.66102 -2.06987,1.29467 -2.06987,1.29467c0,0 0.34785,-0.97008 1.45119,-1.63111c1.10333,-0.66102 1.98157,-0.84775 2.21101,0.05968c0.09856,0.38978 -0.48899,-0.38426 -1.59232,0.27676z" fill="#ff0000"/><path d="M243.11966,201.62531c-1.10333,0.66102 -2.06987,1.29467 -2.06987,1.29467c0,0 0.34785,-0.97009 1.45118,-1.63111c1.10333,-0.66102 1.98157,-0.84776 2.21101,0.05968c0.09856,0.38978 -0.48899,-0.38426 -1.59233,0.27676z" fill="#ff0000"/><path d="M242.25723,200.40883c-1.10333,0.66102 -2.06987,1.29466 -2.06987,1.29466c0,0 0.34785,-0.97008 1.45118,-1.6311c1.10333,-0.66102 1.98157,-0.84776 2.21102,0.05967c0.09856,0.38978 -0.48899,-0.38426 -1.59233,0.27677z" fill="#ff0000"/><path d="M244.39696,198.53664c-0.34051,0.18265 -1.12928,0.69375 -1.44814,0.73225c-0.39536,0.04773 0.10478,-0.74572 -0.05659,-0.93306c-0.16605,-0.19276 -1.08688,-0.00628 -0.87005,-0.28682c0.16387,-0.21202 0.99073,-0.56186 1.31904,-0.73796c0.7627,-0.40911 1.61734,-0.46642 1.90888,-0.12797c0.29153,0.33844 -0.09044,0.94445 -0.85315,1.35356z" fill="#e480ff"/><path d="M241.39481,199.19234c-1.10333,0.66102 -2.06987,1.29467 -2.06987,1.29467c0,0 0.34785,-0.97008 1.45118,-1.63111c1.10333,-0.66102 1.98157,-0.84775 2.21102,0.05968c0.09856,0.38978 -0.48899,-0.38426 -1.59232,0.27676z" fill="#ff0000"/></g><g stroke="#000000"><path d="M240.19546,203.78847c0,1.04084 -1.22952,2.03846 -2.46154,2.03846c-1.23202,0 -1.46154,-1.61301 -1.46154,-2.65385c0,-1.04085 0.22952,1.03846 1.46154,1.03846c1.23202,0 2.46154,-1.46392 2.46154,-0.42308z" fill="#e480ff" stroke-width="0.3" stroke-linecap="butt"/><path d="M237.73392,204.36538v1.23077" fill="none" stroke-width="1" stroke-linecap="round"/><path d="M238.20654,205.77541c0.99836,0 2.54803,-4.37705 1.96154,-2.26923c-0.33512,1.00123 0.88176,3.72347 -0.27777,4.74318c-3.86867,3.40216 -3.82532,3.70749 -3.82532,3.70749l-0.04936,-1.85369c0,0 1.84802,-0.8181 1.69664,-2.01701c-0.1844,-1.02654 -1.89616,-1.56794 -1.89616,-1.56794l1.80934,-0.10037c0,0 -1.46114,-1.63377 -1.68815,-2.52706c-0.53886,-2.1205 1.27087,1.88462 2.26923,1.88462z" data-paper-data="{&quot;index&quot;:null}" fill="#252525" stroke-width="0.3" stroke-linecap="butt"/></g></g></g></svg>