<svg version="1.1" xmlns="http://www.w3.org/2000/svg" xmlns:xlink="http://www.w3.org/1999/xlink" width="20.26477" height="41.24182" viewBox="0,0,20.26477,41.24182"><g transform="translate(-229.88494,-175.16894)"><g data-paper-data="{&quot;isPaintingLayer&quot;:true}" fill-rule="nonzero" stroke-linejoin="miter" stroke-miterlimit="10" stroke-dasharray="" stroke-dashoffset="0" style="mix-blend-mode: normal"><path d="M242.26583,192.35141c0,-2.22887 1.02667,-6.60715 3.26236,-6.60715c2.23569,0 2.47785,10.32086 0.14167,12.60242c-1.4604,2.16637 -0.74134,6.86274 -1.57024,5.82615c-1.95218,-5.49037 -1.83379,-9.59256 -1.83379,-11.82142z" data-paper-data="{&quot;index&quot;:null}" fill="#404040" stroke="#000000" stroke-width="0.3" stroke-linecap="butt"/><path d="M241.20329,192.49427c0,2.22887 0.90411,5.40249 -1.47664,7.75c-0.47175,0.46517 -3.64166,3.67385 -3.64166,3.67385c0,0 -0.40642,-6.66213 -0.40642,-7.63814c0,-2.22887 -3.33046,-9.75 -1.09477,-9.75c2.23569,0 6.6195,3.73542 6.6195,5.96429z" fill="#404040" stroke="#000000" stroke-width="0.3" stroke-linecap="butt"/><path d="M231.76916,187.92471c0,0 1.96734,-1.35092 2.68329,-1.61426c0.71595,-0.26334 2.2381,-0.42857 2.2381,-0.42857l3.17737,2.14222l2.75135,0.18961l-4.65557,3.57938l4.81986,-3.75432l1.2235,2.26551l-7.92713,5.9112z" fill="#404040" stroke="#000000" stroke-width="0.3" stroke-linecap="butt"/><path d="M245.67202,190.08293l-2.74338,-4.62962c0,0 1.59801,-0.1877 2.71429,0.2381c1.11628,0.4258 2.35891,2.4321 2.35891,2.4321l1.9662,2.00738l-1.99095,4.02204l-8.08812,-4.07737l0.12286,-1.80474z" fill="#404040" stroke="#000000" stroke-width="0.3" stroke-linecap="butt"/><path d="M244.39286,204.52998c0,0.06053 -0.69508,2.0414 -0.254,3.27437c0.4281,1.19667 0.23085,1.90932 0.23085,1.90932c0,0 -0.67628,2.97994 -0.53549,4.02889c0.227,1.69142 2.042,2.03752 2.042,2.03752c0,0 -5.05188,-0.75118 -5.716,0.19527c-0.24645,0.35122 0.11687,-7.87581 -0.31412,-8.38399c-0.22843,-0.26934 -1.40883,7.33509 -0.26143,8.33635c1.47131,1.28392 -1.76417,-1.55823 -1.76417,-1.55823l-2.92579,1.69232l-0.57115,-1.23611c0,0 -1.64418,1.34878 -2.56098,1.36667c-4.01627,0.07834 -0.06427,0.16426 2.13028,-4.16235c1.86225,-3.67147 2.14286,-5.42624 2.14286,-7.71428c0,-2.28804 4.01378,-2 5,-2c0.98622,0 3.35714,-0.07375 3.35714,2.21428z" fill="#404040" stroke="#000000" stroke-width="0.3" stroke-linecap="butt"/><g stroke="#000000" stroke-width="0.3" stroke-linecap="butt"><path d="M237.60715,202.24427l2.07143,-2l3.92857,0.35714v1.78572z" fill="#000000"/><path d="M239.75,202.24427l1,-1.92857l1.78572,0.21428l-0.21429,1.71429z" fill="#fff700"/></g><g stroke="#000000" stroke-width="0.3"><path d="M242.95914,188.25362l1.08855,-0.24919c0,0 -0.09332,-0.50726 0.16474,-0.56215c0.4392,-0.09342 0.95165,-0.00357 1.46551,0.52509c0.98462,1.01298 1.61708,0.9744 1.61708,0.9744l-1.05957,0.22014l-0.48658,0.77853l-2.1734,-0.64878l-0.61634,-1.03804z" fill="#e480ff" stroke-linecap="butt"/><path d="M244.32757,188.47494l0.31175,-0.59558l0.72629,-0.11807" fill="none" stroke-linecap="round"/><path d="M245.12464,189.31871l0.31175,-0.59558l0.72629,-0.11807" fill="none" stroke-linecap="round"/><path d="M244.66083,188.7148l0.31175,-0.59558l0.72629,-0.11807" fill="none" stroke-linecap="round"/></g><g stroke="#000000" stroke-width="0.3"><path d="M240.93855,190.72368c0,0 -0.84887,1.46191 -0.29886,2.54213c0.57247,1.12432 -1.43173,0.98102 -1.43173,0.98102l-1.11912,-1.77858l0.73514,-0.82743l1.25143,-2.28076z" fill="#e480ff" stroke-linecap="butt"/><path d="M240.22345,194.13888l-0.42844,-0.51803l0.17232,-0.71537" fill="none" stroke-linecap="round"/><path d="M239.03164,194.06909l0.0057,-0.67222l0.59244,-0.43641" fill="none" stroke-linecap="round"/><path d="M238.48549,192.98022l0.39518,-0.54382l0.73576,-0.01101" fill="none" stroke-linecap="round"/></g><path d="M242.16667,191.70854c0.06667,8.30457 2.69352,8.57141 0.56667,8.46667c-3.05097,-0.15026 -3.78494,0.5999 -2.76667,-0.26667c1.71938,-1.46322 1.28051,-2.46666 1.36667,-7.86666c0.01733,-1.08602 0.82447,-1.43787 0.83333,-0.33334z" fill="#e480ff" stroke="#000000" stroke-width="0.3" stroke-linecap="butt"/><path d="M242.63334,191.50854l-0.53333,-2.6l1.73334,0.6l0.86666,2.73333z" fill="#cccccc" stroke="#000000" stroke-width="0.3" stroke-linecap="butt"/><path d="M243.4,189.24188c0.64433,0 1.16666,0.50741 1.16666,1.13333c0,0.62593 -0.52233,1.13334 -1.16666,1.13334c-0.64433,0 -1.16666,-0.50742 -1.16666,-1.13334c0,-0.62592 0.52233,-1.13333 1.16666,-1.13333z" fill="#cccccc" stroke="#000000" stroke-width="0.3" stroke-linecap="butt"/><path d="M243.46667,189.44188c0.46024,0 0.83334,0.34324 0.83334,0.76666c0,0.42342 -0.3731,0.76666 -0.83334,0.76666c-0.46023,0 -0.83333,-0.34324 -0.83333,-0.76666c0,-0.42342 0.37309,-0.76666 0.83333,-0.76666z" fill="#ffffff" stroke="#000000" stroke-width="0.3" stroke-linecap="butt"/><g><g fill="#808080" stroke="#000000" stroke-width="0.1" stroke-linecap="butt"><path d="M241.86678,193.74378l-1.05554,-0.0459c0,0 -0.23563,-0.74953 -0.25357,-1.06839c-0.01831,-0.32548 0.14484,-0.86502 0.14484,-0.86502l1.44164,0.86184z"/><path d="M242.33165,192.90445c0.15957,0.28769 0.09553,0.62821 -0.14305,0.76053c-0.23859,0.13233 -0.56135,0.00637 -0.72094,-0.28134c-0.15957,-0.28769 -0.09554,-0.6282 0.14306,-0.76053c0.23859,-0.13233 0.56135,-0.00638 0.72092,0.28133z"/></g><g><path d="M238.6147,192.7717l-0.52129,-0.19417l0.69214,-1.87313l0.52126,0.19416z" fill="#808080" stroke="#000000" stroke-width="0.1" stroke-linecap="butt"/><path d="M237.91768,193.0782l-0.37715,-0.15873l0.88274,-2.54516l0.37715,0.15873z" fill="#bfbfbf" stroke="#000000" stroke-width="0.1" stroke-linecap="butt"/><path d="M236.48732,189.30666c0.76905,-0.05908 2.3661,0.24322 1.98534,1.09814c-0.35915,0.80644 -0.60832,1.54751 -0.9643,2.42529c-0.28989,0.71478 -2.14812,-0.61221 -2.20719,-1.38126c-0.05908,-0.76905 0.4171,-2.0831 1.18615,-2.14218z" fill="#808080" stroke="#000000" stroke-width="0.1" stroke-linecap="butt"/><path d="M237.25023,191.74937c0.83773,-0.06434 1.5485,-2.30971 1.20905,-1.5186c-0.32045,0.7468 -0.55879,1.61874 -0.98726,2.45205c-0.3842,0.74721 -1.67252,-0.3004 -2.05421,-1.01783c-0.46774,-0.87917 0.99471,0.14872 1.83243,0.08438z" fill="#404040" stroke="none" stroke-width="0" stroke-linecap="butt"/><path d="M236.33752,192.5377c0,0 0.31506,-1.2388 0.54516,-1.77441c0.20719,-0.4823 0.77396,-1.29611 0.77396,-1.29611" data-paper-data="{&quot;index&quot;:null}" fill="none" stroke="#000000" stroke-width="0.1" stroke-linecap="round"/><path d="M236.94202,192.86892c0,0 0.31506,-1.23881 0.54515,-1.77442c0.20719,-0.4823 0.77397,-1.29611 0.77397,-1.29611" data-paper-data="{&quot;index&quot;:null}" fill="none" stroke="#000000" stroke-width="0.1" stroke-linecap="round"/><path d="M235.77349,192.33116c0,0 0.31506,-1.23881 0.54516,-1.77442c0.20719,-0.4823 0.77397,-1.2961 0.77397,-1.2961" data-paper-data="{&quot;index&quot;:null}" fill="none" stroke="#000000" stroke-width="0.1" stroke-linecap="round"/><path d="M235.32319,191.95233c0,0 0.25156,-1.09102 0.45233,-1.55838c0.18079,-0.42085 0.69871,-1.12093 0.69871,-1.12093" data-paper-data="{&quot;index&quot;:null}" fill="none" stroke="#000000" stroke-width="0.1" stroke-linecap="round"/><path d="M237.50407,192.37426c0,0 -0.95362,-0.21133 -1.35667,-0.39316c-0.36293,-0.16373 -0.95396,-0.64921 -0.95396,-0.64921" data-paper-data="{&quot;index&quot;:null}" fill="none" stroke="#000000" stroke-width="0.1" stroke-linecap="round"/><path d="M237.82684,191.7672c0,0 -0.95362,-0.21133 -1.35667,-0.39316c-0.36293,-0.16373 -0.95395,-0.64921 -0.95395,-0.64921" data-paper-data="{&quot;index&quot;:null}" fill="none" stroke="#000000" stroke-width="0.1" stroke-linecap="round"/><path d="M236.12011,189.4966c0,0 0.75901,0.0945 1.1276,0.24505c0.40935,0.16717 1.21908,0.71341 1.21908,0.71341" data-paper-data="{&quot;index&quot;:null}" fill="none" stroke="#000000" stroke-width="0.1" stroke-linecap="round"/><path d="M235.90195,190.14861c0,0 0.75899,0.09449 1.12759,0.24504c0.40935,0.16717 1.2191,0.71341 1.2191,0.71341" data-paper-data="{&quot;index&quot;:null}" fill="none" stroke="#000000" stroke-width="0.1" stroke-linecap="round"/></g></g><g><path d="M237.06604,186.71052l0.32671,-2.35891l3.22776,1.43146l2.20458,0.07359c0,0 0.80749,0.26591 0.99035,0.91635c0.20111,0.71535 -0.39574,0.44962 -0.39574,0.44962l-3.50275,0.88534z" fill="#e480ff" stroke="#000000" stroke-width="0.3" stroke-linecap="butt"/><path d="M240.50161,185.54392l-3.07197,-1.24772l-0.19799,-7.19437l7.3003,0.79337l0.552,3.95059l-1.21314,3.18522l0.56705,0.88216z" fill="#e480ff" stroke="#000000" stroke-width="0.3" stroke-linecap="butt"/><path d="M240.71273,184.98351l-2.14747,-1.58112l0.27675,-2.07962l1.30394,1.48467l2.15053,0.12044l1.56988,-1.0045l-1.07431,2.89392z" fill="#000000" stroke="none" stroke-width="0" stroke-linecap="butt"/><path d="M239.55569,183.41321l-0.22298,-1.37767c0,0 0.38209,0.54618 0.84247,0.69048c0.51557,0.1616 2.10413,0.23313 2.10413,0.23313l-0.66436,0.97422z" fill="#ffffff" stroke="#000000" stroke-width="0.2" stroke-linecap="butt"/><path d="M239.58359,184.00718l0.10409,-0.53042l2.33888,0.45947l-0.24211,0.8868c0,0 -0.83037,0.10496 -1.19004,-0.03355c-0.32203,-0.12402 -1.0108,-0.78232 -1.0108,-0.78232z" fill="#ffffff" stroke="#000000" stroke-width="0.2" stroke-linecap="butt"/><path d="M239.84769,183.45997l-0.27214,-0.94321l1.10142,0.41787l-0.20333,0.50342l-0.33515,-0.39754z" fill="#ff8080" stroke="#000000" stroke-width="0.2" stroke-linecap="butt"/><path d="M242.67323,179.83797c-0.13734,1.16223 -1.23815,1.98748 -2.40037,1.85014c-1.16223,-0.13734 -1.94577,-1.18527 -1.80843,-2.3475c0.13734,-1.16223 -0.15604,-1.14527 0.62829,-1.86774c0.39618,-0.36493 0.85369,1.03162 0.85369,1.03162c0,0 2.80096,0.70618 2.72681,1.3335z" fill="#000000" stroke="none" stroke-width="0" stroke-linecap="butt"/><path d="M244.02055,178.8133c0,0 0.45072,-1.2892 0.5696,-0.86342c0.23537,0.84298 0.10365,0.77577 -0.03369,1.93801c-0.13734,1.16223 -0.67756,2.05372 -1.23457,1.9879c-0.55702,-0.06582 -0.91989,-1.06403 -0.78254,-2.22627c0.07413,-0.62733 1.4812,-0.83622 1.4812,-0.83622z" data-paper-data="{&quot;index&quot;:null}" fill="#000000" stroke="none" stroke-width="0" stroke-linecap="butt"/><path d="M240.31293,181.50103l-0.2908,-0.90433l-0.78181,-0.51829l0.94788,-0.20506l0.38995,-0.85l0.1691,0.90226l0.66842,0.40985l-0.68795,0.22199z" fill="#ff0000" stroke="none" stroke-width="0" stroke-linecap="butt"/><path d="M243.61507,181.55558l-0.2908,-0.90433l-0.78181,-0.51829l0.94787,-0.20506l0.38995,-0.85l0.16909,0.90226l0.66843,0.40985l-0.68795,0.22199z" fill="#ff0000" stroke="none" stroke-width="0" stroke-linecap="butt"/><path d="M237.25935,179.79974l-0.11266,-2.69853l7.5191,0.88855l-5.97832,-0.13106z" fill="#7f7f7f" stroke="#000000" stroke-width="0.3" stroke-linecap="butt"/><path d="M244.83646,176.13986c-0.1358,1.14917 -0.40577,2.78113 -2.59964,2.52188c-1.13158,-0.13373 -2.62901,-0.50081 -3.12697,-1.13589c-0.46747,-0.59617 0.02776,-1.44728 0.09351,-2.00371c0.10003,-0.84645 0.04842,1.19609 0.93244,1.6563c0.31615,0.16459 0.82061,-1.16142 1.39853,-1.09314c2.19387,0.25926 3.43793,-1.09461 3.30214,0.05455z" fill="#7f7f7f" stroke="#000000" stroke-width="0.3" stroke-linecap="butt"/><path d="M244.35791,177.34895c-0.06814,0.57664 0.08394,1.47744 -2.10994,1.21819c-1.13158,-0.13373 -2.29224,-0.51014 -2.82367,-0.86207c-0.49889,-0.33038 -0.30969,-0.6206 -0.2767,-0.89982c0.05019,-0.42472 0.02295,0.60001 0.92763,0.88543c0.32355,0.10208 0.74754,-0.54311 1.32546,-0.47481c2.19387,0.25926 3.02535,-0.44356 2.95721,0.13308z" fill="#404040" stroke="#000000" stroke-width="0" stroke-linecap="butt"/><path d="M240.07048,187.29465l2.37588,-1.63947l-0.55771,2.01268l2.27924,-0.6349l-2.25077,1.79811z" fill="#7f7f7f" stroke="#000000" stroke-width="0.3" stroke-linecap="butt"/><path d="M244.47137,177.21034l-2.07509,2.22183l-2.79106,-2.79687" fill="none" stroke="#000000" stroke-width="0.5" stroke-linecap="round"/><path d="M237.17091,186.57026l0.19456,-1.98785l3.03007,1.32222l-2.4411,0.18589l0.79921,1.20826z" fill="#ab60bf" stroke="#000000" stroke-width="0" stroke-linecap="butt"/><path d="M235.80833,183.1517l0.48059,-4.06694l0.8981,0.92129l0.07697,1.78326z" fill="#e480ff" stroke="#000000" stroke-width="0.3" stroke-linecap="butt"/><path d="M237.46305,184.1624l-0.10624,-2.656l-1.31693,1.17899l0.13128,-1.79246l0.60343,0.65119l0.26319,-0.99081l1.08303,1.28927l-0.22153,1.20098l0.90817,0.25631l0.2134,0.74491l1.60465,1.35442z" fill="#ab60bf" stroke="none" stroke-width="0" stroke-linecap="butt"/><path d="M236.5387,180.21713c0,0 0.21702,0.3055 0.25735,0.50033c0.0494,0.23861 0.01739,0.82681 0.01739,0.82681" fill="none" stroke="#000000" stroke-width="0.3" stroke-linecap="round"/><path d="M239.52705,184.55013l0.61134,1.31896l-2.82021,-1.29228l1.46082,-0.59457z" fill="#ab60bf" stroke="none" stroke-width="0" stroke-linecap="butt"/></g></g></g></svg>