<svg version="1.1" xmlns="http://www.w3.org/2000/svg" xmlns:xlink="http://www.w3.org/1999/xlink" width="18.43248" height="25.25551" viewBox="0,0,18.43248,25.25551"><g transform="translate(-232.56917,-174.71178)"><g data-paper-data="{&quot;isPaintingLayer&quot;:true}" fill-rule="nonzero" stroke-linejoin="miter" stroke-miterlimit="10" stroke-dasharray="" stroke-dashoffset="0" style="mix-blend-mode: normal"><g stroke-linecap="butt"><path d="M241.26203,191.08042l1.30908,0.76646l1.31178,-1.55547l1.1212,0.76001l-1.19556,1.26002c0,0 3.95466,0.42091 4.03246,0.47952c0.22699,0.17101 1.74974,1.65521 1.01809,2.50892c-0.7092,0.8275 -2.02911,0.72793 -3.07072,0.72793c-1.01775,0 -3.89861,0.68292 -5.07322,-0.23686c-1.40855,-1.10297 -1.03204,-3.84209 -1.03204,-3.84209z" fill="#ff0000" stroke="#000000" stroke-width="0.3"/><path d="M245.52521,196.13306c-1.45338,0 -5.94737,-1.50345 -5.94737,-2.57895c0,-1.0755 0.1782,-2.31579 1.63158,-2.31579c0.54263,0 0.92792,0.56938 1.65946,0.94318c1.22782,0.62738 2.76159,1.2776 2.76159,1.95156c0,1.0755 1.34812,2 -0.10526,2z" fill="#bf0000" stroke="none" stroke-width="0"/><path d="M247.67661,192.76465c0.37082,0 -0.96643,-0.08729 -0.96643,0.97368c0,1.06097 0.27834,1.71053 -0.09249,1.71053c-0.37083,0 -1.03986,-1.01798 -1.03986,-2.07895c0,-1.06096 1.72795,-0.60526 2.09878,-0.60526z" fill="#ffffff" stroke="#000000" stroke-width="0.3"/><path d="M244.26205,193.15939c0,-1.06097 1.72796,-0.60527 2.09878,-0.60527c0.37082,0 -0.96643,-0.08729 -0.96643,0.97368c0,1.06097 0.27833,1.71053 -0.09249,1.71053c-0.37082,0 -1.03986,-1.01798 -1.03986,-2.07895z" fill="#ffffff" stroke="#000000" stroke-width="0.3"/><path d="M242.94626,192.94887c0,-1.06097 1.72796,-0.60527 2.09878,-0.60527c0.37082,0 -0.96643,-0.08728 -0.96643,0.97369c0,1.06097 0.27833,1.71052 -0.09249,1.71052c-0.37082,0 -1.03986,-1.01798 -1.03986,-2.07895z" fill="#ffffff" stroke="#000000" stroke-width="0.3"/><path d="M249.26205,195.10676c0,0.39241 -0.16486,2.24292 -4.18421,2.23684c-3.95967,-0.00599 -5.56866,-2.68687 -5.55263,-3.07895c0.05263,-1.28715 1.69705,1.68649 5.39474,1.81579c4.11793,0.144 4.34211,-1.3661 4.34211,-0.97369z" fill="#ffffff" stroke="#000000" stroke-width="0.3"/></g><path d="M241.9643,187.77753l-1.71428,-3.64286l1.85715,0.07143l-0.23248,2.08154l2.01819,1.13275z" fill="#bfbfbf" stroke="#000000" stroke-width="0.3" stroke-linecap="butt"/><path d="M241.9643,187.70609l1.85714,-0.35715l0.28572,1.28572l-0.14286,1.64286z" fill="#bf9360" stroke="#000000" stroke-width="0.3" stroke-linecap="butt"/><path d="M233.25001,189.34895l-0.22822,-2.22528l0.93389,0.87533l1.27665,-1.06037l0.80339,0.83891c0,0 2.70275,1.12147 3.78585,1.15528c1.10686,0.03455 2.14272,-0.98129 2.14272,-0.98129l0.19611,1.64218l2.84949,-0.15226l-0.06735,1.56568l-0.91615,-0.80558l-1.34781,1.57599l-1.51166,-0.84076l-1.70184,1.13725c0,0 -2.01026,0.07321 -1.5898,-0.18252c0.67703,-0.4118 -0.26629,-2.21067 -0.26629,-2.21067l-2.34904,1.55814z" fill="#565fff" stroke="#000000" stroke-width="0.3" stroke-linecap="butt"/><path d="M235.32861,186.96341l-1.36201,0.75858l-0.82583,-0.79045l-0.04364,-2.08134l2.30075,0.30451z" fill="#ffc380" stroke="#000000" stroke-width="0.3" stroke-linecap="butt"/><g><path d="M240.10024,189.04767c-1.04347,0 -4.33496,-1.34742 -4.67868,-1.98067c-0.12314,-0.22687 0.29642,-1.33805 0.12648,-1.98994c-0.07608,-0.29184 -2.44908,-0.03915 -2.6187,-0.24013c-0.27371,-0.32429 1.5653,-0.78742 1.5653,-0.78742c0,0 -0.51094,-0.75159 -0.51094,-0.87905c0,-0.55366 1.08259,-0.85373 2.51548,0.01094c0.82964,0.50064 2.56554,0.9853 3.38678,0.9853c1.06683,0 0.72974,1.19367 1.17541,1.83451c0.45523,0.65458 1.30078,1.47557 1.30078,1.9274c0,0.89418 -0.10537,1.11905 -2.26191,1.11905z" fill="#ffffff" stroke="#000000" stroke-width="0.3" stroke-linecap="butt"/><path d="M239.03696,188.43885c-1.02015,0.01307 -1.48933,-1.12928 -1.48933,-1.12928c-0.28738,-0.92783 0.55239,-1.79556 1.47619,-1.85714c0.9238,-0.06159 1.4598,0.82565 1.38095,1.66667c0,0 -0.22562,1.30512 -1.36781,1.31975z" fill="none" stroke="#ff0000" stroke-width="0.3" stroke-linecap="round"/><path d="M239.9762,185.92861l-1.83333,2.11904" fill="none" stroke="#ff0000" stroke-width="0.3" stroke-linecap="round"/><path d="M237.50001,183.83338v0l2.57143,0.52381c0,0 0.35279,0.16702 0.43747,0.32867c0.08964,0.17114 0.08634,0.67133 0.08634,0.67133z" fill="#bfbfbf" stroke="none" stroke-width="0" stroke-linecap="butt"/></g><g><path d="M242.44867,185.53813c-0.21573,0.66769 -2.01443,0.68433 -4.0175,0.03713c-2.00308,-0.64719 -3.45202,-1.71313 -3.23629,-2.38082c0.12424,-0.3845 0.27171,-3.47574 1.85967,-4.20204c1.16953,-0.53491 4.10531,1.04121 4.95487,1.31571c0.60051,0.19403 -2.01081,3.73434 -1.53981,3.98161c1.10003,0.57757 2.13014,0.78089 1.97908,1.2484z" fill="#ffc380" stroke="#000000" stroke-width="0.3" stroke-linecap="butt"/><path d="M237.51188,181.34756l0.62326,-0.99966l0.59184,0.49148l0.17774,1.3085z" fill="#bf9360" stroke="none" stroke-width="0" stroke-linecap="butt"/><path d="M236.03844,179.84544l-0.98457,-1.81368c0,0 0.12631,-1.60399 0.71802,-2.32192c0.5917,-0.71792 0.98831,-0.90897 1.88167,-0.83228c0.89336,0.07668 5.84912,1.41354 5.84912,1.41354c0,0 0.62493,0.12926 0.83226,0.50499c0.20732,0.37574 0.05292,0.44279 -0.08845,0.84741c-0.25416,0.72746 -1.06668,3.05302 -1.06668,3.05302z" fill="#ff0000" stroke="#000000" stroke-width="0.3" stroke-linecap="butt"/><path d="M235.65902,176.39518c0.35577,-1.10112 0.95904,-1.79193 2.11021,-1.42c0.56268,0.1818 1.66244,0.13937 1.9418,0.78359c0.29215,0.67376 -0.25282,2.04295 -0.43469,2.60583c-0.16632,0.51476 -0.87432,1.06532 -1.37956,1.30438c-0.57554,0.27232 -0.97717,0.18609 -1.5902,-0.01197c-0.45007,-0.14542 -0.80396,-1.08332 -0.96703,-1.5413c-0.25401,-0.71341 0.1028,-1.04991 0.31948,-1.72053z" fill="#bf0000" stroke="#000000" stroke-width="0.2" stroke-linecap="butt"/><path d="M243.93688,181.72372c0,0 -0.74914,-1.03489 -1.79579,-1.37306c-1.04665,-0.33817 -6.13407,-0.22491 -5.77841,-1.3257c0.17731,-0.54878 -0.43645,3.0023 1.14967,2.4331c1.59546,-0.57256 5.44777,-4.16372 5.74445,-4.34367c0.29667,-0.17996 -0.26796,0.03011 0.0605,0.82228c0.27613,0.666 1.42595,0.95169 1.32983,1.6369c-0.09612,0.68523 -1.48338,-1.13457 -1.47525,-0.60029c0.0156,1.02544 0.76502,2.75044 0.76502,2.75044z" fill="#00f8ff" stroke="#000000" stroke-width="0.3" stroke-linecap="butt"/><path d="M243.48463,180.90568c0,0 -0.97271,-0.54029 -1.87886,-0.83307c-0.90614,-0.29277 -5.50356,0.29407 -5.14791,-0.80673c0.17731,-0.54879 -0.1768,2.73588 1.23887,2.11161c1.42401,-0.62795 4.94461,-4.11166 5.39901,-3.96486c0.16375,0.05291 -0.37295,-0.10891 -0.11552,0.66032c0.21641,0.6467 1.47581,1.43886 1.47581,1.43886c0,0 -1.87683,-1.36677 -1.89067,-0.8396c-0.02658,1.01181 0.91927,2.23346 0.91927,2.23346z" fill="#00b9bf" stroke="#000000" stroke-width="0" stroke-linecap="butt"/><path d="M233.66814,182.31737l1.15415,-4.00584l1.08085,1.75042l-0.67931,1.77723z" fill="#ffc380" stroke="#000000" stroke-width="0.3" stroke-linecap="butt"/><path d="M234.28335,182.20088l0.69444,-2.21579l0.6202,0.97565l-0.25833,0.69549z" fill="#bf9360" stroke="#000000" stroke-width="0.2" stroke-linecap="butt"/><path d="M234.91273,177.93059c0,0 -0.6606,0.42209 -0.95009,0.53792c-0.2749,0.10998 -0.74533,0.14036 -0.74533,0.14036l0.56751,-2.14363c0,0 0.39096,0.32971 0.56555,0.50369c0.15818,0.15762 0.43759,0.496 0.43759,0.496z" fill="#565fff" stroke="#000000" stroke-width="0.3" stroke-linecap="butt"/><path d="M234.82944,177.87863c-0.16979,0.52553 -0.86018,0.72294 -1.44828,0.53292c-0.58809,-0.19001 -0.03141,0.01977 0.13839,-0.50575c0.16979,-0.52553 -0.00983,-0.35347 0.57826,-0.16346c0.58809,0.19001 0.90143,-0.38922 0.73164,0.1363z" fill="#000dff" stroke="none" stroke-width="0" stroke-linecap="butt"/><path d="M239.72665,181.46263c0,0 -0.58468,1.01213 -0.87247,0.91914c-0.28779,-0.09298 -0.36378,-0.65525 -0.16972,-1.25588c0.19406,-0.60061 0.87247,-0.91914 0.87247,-0.91914z" fill="#000000" stroke="none" stroke-width="0" stroke-linecap="butt"/><path d="M239.54819,181.70522l0.24471,-1.22205l2.20012,0.16038l-1.32249,1.92473z" fill="#bf9360" stroke="none" stroke-width="0" stroke-linecap="butt"/><path d="M241.49107,181.73246c-0.19406,0.60061 -0.57453,1.0154 -0.84981,0.92646c-0.27528,-0.08894 -0.14707,-1.24855 -0.14707,-1.24855l0.8498,-0.92645c0,0 0.34113,0.64793 0.14707,1.24854z" fill="#000000" stroke="none" stroke-width="0" stroke-linecap="butt"/><path d="M237.4583,177.1767c0,0 1.12096,-0.05253 1.49774,0.67139c0.36377,0.69895 0.7253,3.5999 0.7253,3.5999" fill="none" stroke="#000000" stroke-width="0.3" stroke-linecap="round"/><path d="M240.44888,181.39572c0,0 1.16889,-1.45045 1.56819,-1.74198c0.40825,-0.29807 0.85503,-0.02727 0.85503,-0.02727" fill="none" stroke="#000000" stroke-width="0.3" stroke-linecap="round"/><path d="M240.65167,185.41461c0,0 -0.78769,-0.70429 -1.76478,-1.20559c-0.52939,-0.2716 -1.40049,-0.36394 -1.57927,-0.52541c-0.50883,-0.4595 -0.4524,-1.6975 -0.4524,-1.6975c0,0 0.60198,0.9235 1.19342,1.45763c0.66531,0.60085 2.60303,1.97087 2.60303,1.97087z" fill="none" stroke="#000000" stroke-width="0.3" stroke-linecap="round"/><path d="M237.10752,183.21863c-0.07937,-0.19201 -0.09757,-0.78218 -0.09757,-0.78218l1.32381,1.47862l-0.8463,-0.32347c0,0 -0.30056,-0.18095 -0.37993,-0.37297z" fill="#ffffff" stroke="#000000" stroke-width="0" stroke-linecap="butt"/></g><g><path d="M243.64704,191.19495c-0.74489,-0.84476 -0.64064,-0.66536 -1.13494,-1.35779c-0.49431,-0.69244 -0.3485,-0.50486 -0.85845,-1.27988c-0.02134,-0.03242 0.79222,-1.14113 1.1275,-0.67333c0.37196,0.51896 1.09149,1.31005 0.81707,0.92205c-0.65086,-0.92022 -0.49846,-1.506 -0.19289,-1.5202c0.70024,-0.03257 1.21394,1.04692 1.01693,0.74061c-0.15591,-0.24242 -0.54379,-0.74523 -0.53259,-0.98795c0.02655,-0.57563 0.73647,-0.80205 0.86623,-0.64269c0.56178,0.69009 0.96229,1.04799 1.20708,1.39089c0.22134,0.31005 0.19091,0.4225 0.74771,1.3838c0.48584,0.83878 -2.72561,2.40781 -3.06361,2.02449z" data-paper-data="{&quot;index&quot;:null}" fill="#ffc380" stroke="#000000" stroke-width="0.3" stroke-linecap="butt"/><path d="M244.88901,186.52749l0.66069,-0.445l1.60373,2.36762l-0.66069,0.445z" fill="#808080" stroke="#000000" stroke-width="0.3" stroke-linecap="butt"/><path d="M245.17442,185.62851l0.49926,-0.30676l2.22724,3.14985l-0.49926,0.30676z" fill="#bfbfbf" stroke="#000000" stroke-width="0.3" stroke-linecap="butt"/><path d="M250.69702,186.93972c-0.57246,0.94466 -2.25596,2.55198 -2.93389,1.39585c-0.63947,-1.09054 -1.29452,-1.99853 -2.01968,-3.14488c-0.59051,-0.93349 2.50385,-1.99055 3.44849,-1.41809c0.94466,0.57246 2.07753,2.22247 1.50507,3.16712z" fill="#808080" stroke="#000000" stroke-width="0.3" stroke-linecap="butt"/><path d="M247.21695,185.79128c-0.62357,1.02899 1.39802,3.72865 0.75999,2.67385c-0.6023,-0.99575 -1.41874,-2.00026 -2.03171,-3.19394c-0.54962,-1.07032 1.74426,-1.6968 2.89779,-1.54302c1.41358,0.18846 -1.00251,1.03411 -1.62608,2.0631z" fill="#404040" stroke="none" stroke-width="0" stroke-linecap="butt"/><path d="M247.06011,184.07132c0,0 1.17962,1.39971 1.61136,2.1142c0.38876,0.64336 0.8637,1.98178 0.8637,1.98178" data-paper-data="{&quot;index&quot;:null}" fill="none" stroke="#000000" stroke-width="0.2" stroke-linecap="round"/><path d="M246.17048,184.49898c0,0 1.17962,1.39971 1.61136,2.1142c0.38876,0.64336 0.8637,1.98178 0.8637,1.98178" data-paper-data="{&quot;index&quot;:null}" fill="none" stroke="#000000" stroke-width="0.2" stroke-linecap="round"/><path d="M247.7709,183.58687c0,0 1.17962,1.39971 1.61136,2.1142c0.38876,0.64336 0.8637,1.98178 0.8637,1.98178" data-paper-data="{&quot;index&quot;:null}" fill="none" stroke="#000000" stroke-width="0.2" stroke-linecap="round"/><path d="M248.58739,183.37846c0,0 1.06048,1.20254 1.43722,1.826c0.33923,0.56138 0.72251,1.74811 0.72251,1.74811" data-paper-data="{&quot;index&quot;:null}" fill="none" stroke="#000000" stroke-width="0.2" stroke-linecap="round"/><path d="M246.27775,185.56578c0,0 1.04115,-0.93406 1.5889,-1.25172c0.49323,-0.28605 1.55126,-0.56936 1.55126,-0.56936" data-paper-data="{&quot;index&quot;:null}" fill="none" stroke="#000000" stroke-width="0.2" stroke-linecap="round"/><path d="M246.71542,186.44775c0,0 1.04115,-0.93406 1.5889,-1.25172c0.49323,-0.28605 1.55126,-0.56936 1.55126,-0.56936" data-paper-data="{&quot;index&quot;:null}" fill="none" stroke="#000000" stroke-width="0.2" stroke-linecap="round"/><path d="M250.78207,186.35382c0,0 -0.74286,0.80489 -1.22547,1.10851c-0.53596,0.33719 -1.84705,0.82451 -1.84705,0.82451" data-paper-data="{&quot;index&quot;:null}" fill="none" stroke="#000000" stroke-width="0.2" stroke-linecap="round"/><path d="M250.20484,185.5562c0,0 -0.74285,0.80488 -1.22546,1.10851c-0.53596,0.33719 -1.84706,0.82452 -1.84706,0.82452" data-paper-data="{&quot;index&quot;:null}" fill="none" stroke="#000000" stroke-width="0.2" stroke-linecap="round"/></g><g stroke-linecap="butt"><path d="M237.58772,191.86992c0,1.01737 3.86652,0.10526 3.05263,0.10526c-0.24305,0 0.81393,0.65005 -0.10536,1.84204c-0.29665,0.38465 0.02128,0.14116 -1.30933,0.28222c-0.4655,0.04935 1.35876,1.51997 0.80195,1.92209c-0.74138,0.53541 -0.2471,2.27308 -4.87032,2.2478c-2.98696,-0.01633 -2.08064,-4.82452 -2.10012,-6.50325c-0.02039,-1.75729 0.10949,-1.9908 0.10949,-2.26458c0,-0.60277 1.00027,1.51431 2.1564,1.79563c0.79521,0.1935 1.77508,-1.47983 2.10676,-1.47983c0.61881,0 0.75634,0.80898 0.61011,1.543c-0.0461,0.23141 -0.45221,0.26577 -0.45221,0.50962z" fill="#ff0000" stroke="#000000" stroke-width="0.3"/><path d="M239.95614,195.86992c-0.50944,0.79945 -0.5184,1.27724 -1.49874,1.74232c-0.53888,0.25565 -1.25618,0.56993 -2.92231,0.57346c-1.18079,0.00251 -1.13129,-0.09789 -1.45858,-0.28902c-0.57083,-0.33336 -0.89066,-0.94273 -0.85721,-1.76361c-0.02804,-1.60409 1.71398,-1.52632 2.78948,-1.52632c1.0755,0 4.55658,0.30713 3.94736,1.26316z" fill="#bf0000" stroke="none" stroke-width="0"/><path d="M235.9035,194.4702c-1.13363,0 -1.89473,0.4588 -1.89473,-0.07895c0,-0.53775 0.81373,-0.71052 1.94736,-0.71052c1.13363,0 2,0.33067 2,0.86841c0,0.53775 -0.919,-0.07895 -2.05263,-0.07895z" data-paper-data="{&quot;index&quot;:null}" fill="#ffffff" stroke="#000000" stroke-width="0.3"/><path d="M235.9035,193.52283c-1.13363,0 -1.89473,0.45881 -1.89473,-0.07894c0,-0.53775 0.81373,-0.71053 1.94736,-0.71053c1.13363,0 2,0.33067 2,0.86841c0,0.53775 -0.919,-0.07895 -2.05263,-0.07895z" data-paper-data="{&quot;index&quot;:null}" fill="#ffffff" stroke="#000000" stroke-width="0.3"/><path d="M235.85087,192.62809c-1.13363,0 -1.89473,0.45881 -1.89473,-0.07894c0,-0.53775 0.81373,-0.71053 1.94736,-0.71053c1.13363,0 2,0.33067 2,0.86841c0,0.53775 -0.919,-0.07895 -2.05263,-0.07895z" data-paper-data="{&quot;index&quot;:null}" fill="#ffffff" stroke="#000000" stroke-width="0.3"/><path d="M240.27193,195.73833c0,0.39241 -0.32275,4.08503 -4.34211,4.07895c-3.95967,-0.00599 -3.14761,-3.31844 -3.13158,-3.71053c0.05263,-1.28715 -0.724,2.10754 2.97369,2.23684c4.11793,0.144 4.5,-2.99768 4.5,-2.60527z" fill="#ffffff" stroke="#000000" stroke-width="0.3"/><path d="M236.0614,199.50149c0,0.21293 -0.83102,0.26316 -1.76316,-0.15789c-0.54611,-0.24668 -0.76031,-0.33884 -0.93729,-0.5632c-0.14494,-0.18375 -0.40482,-0.38557 -0.40482,-0.64733c0,-0.58135 -0.0604,-2.30041 -0.07895,-1.21053c-0.00791,0.46517 0.24997,1.33086 1.10584,1.83333c0.79035,0.464 2.07837,0.46652 2.07837,0.74562z" fill="#bfbfbf" stroke="none" stroke-width="0"/></g></g></g></svg>