<svg version="1.1" xmlns="http://www.w3.org/2000/svg" xmlns:xlink="http://www.w3.org/1999/xlink" width="16.93333" height="16.73333" viewBox="0,0,16.93333,16.73333"><g transform="translate(-231.53338,-171.63338)"><g data-paper-data="{&quot;isPaintingLayer&quot;:true}" fill-rule="nonzero" stroke-linejoin="miter" stroke-miterlimit="10" stroke-dasharray="" stroke-dashoffset="0" style="mix-blend-mode: normal"><path d="M232.03339,187.86672v-15.73333h15.93333v15.73333z" fill="none" stroke="#000000" stroke-width="1" stroke-linecap="butt"/><path d="M240.07147,184.01285l-3.19717,-0.87858l-1.04092,-7.12142l7.34296,-0.06885l1.01181,3.85851l-0.83096,3.30557l0.66666,0.80952z" fill="#e480ff" stroke="#000000" stroke-width="0.3" stroke-linecap="butt"/><path d="M240.20459,183.38642l-2.31818,-1.31818l0.03079,-2.09772l1.46916,1.32138l2.1498,-0.13277l1.44115,-1.1818l-0.72727,3z" fill="#000000" stroke="none" stroke-width="0" stroke-linecap="butt"/><path d="M238.87125,182.02944l-0.38312,-1.34199c0,0 0.44355,0.49756 0.91768,0.58684c0.53097,0.09998 2.11695,-0.01541 2.11695,-0.01541l-0.54545,1.04546z" fill="#ffffff" stroke="#000000" stroke-width="0.2" stroke-linecap="butt"/><path d="M238.96866,182.61603l0.04112,-0.53896l2.37663,0.18182l-0.13637,0.90909c0,0 -0.81232,0.20169 -1.18576,0.10635c-0.33436,-0.08537 -1.09563,-0.65829 -1.09563,-0.65829z" fill="#ffffff" stroke="#000000" stroke-width="0.2" stroke-linecap="butt"/><path d="M239.16672,182.0416l-0.38095,-0.90476l1.14285,0.28572l-0.14285,0.52381l-0.37948,-0.35546z" fill="#ff8080" stroke="#000000" stroke-width="0.2" stroke-linecap="butt"/><path d="M241.54767,178.11303c0,1.17032 -0.99635,2.11905 -2.16667,2.11905c-1.17032,0 -2.07143,-0.94873 -2.07143,-2.11905c0,-1.17032 -0.28937,-1.11904 0.40476,-1.92857c0.35061,-0.4089 0.96886,0.9243 0.96886,0.9243c0,0 2.86447,0.37259 2.86447,1.00428z" fill="#000000" stroke="none" stroke-width="0" stroke-linecap="butt"/><path d="M242.76544,176.87066c0,0 0.2963,-1.33319 0.46434,-0.9243c0.33267,0.80953 0.19398,0.75825 0.19398,1.92857c0,1.17032 -0.43186,2.11905 -0.99275,2.11905c-0.56089,0 -1.0384,-0.94873 -1.0384,-2.11905c0,-0.63169 1.37283,-1.00427 1.37283,-1.00427z" data-paper-data="{&quot;index&quot;:null}" fill="#000000" stroke="none" stroke-width="0" stroke-linecap="butt"/><path d="M239.39886,180.0416l-0.39491,-0.86395l-0.83723,-0.42296l0.91727,-0.31488l0.2875,-0.88988l0.27381,0.87619l0.7119,0.32857l-0.65714,0.30119z" fill="#ff0000" stroke="none" stroke-width="0" stroke-linecap="butt"/><path d="M242.68458,179.70825l-0.39491,-0.86395l-0.83723,-0.42296l0.91726,-0.31488l0.2875,-0.88988l0.2738,0.87619l0.71191,0.32857l-0.65714,0.30119z" fill="#ff0000" stroke="none" stroke-width="0" stroke-linecap="butt"/><path d="M236.16672,178.64375l-0.42857,-2.66666h7.57143l-5.95238,0.57143z" fill="#7f7f7f" stroke="#000000" stroke-width="0.3" stroke-linecap="butt"/><path d="M243.26196,174.11994c0,1.15717 -0.07658,2.80953 -2.28572,2.80953c-1.13946,0 -2.66961,-0.18883 -3.23867,-0.76107c-0.53421,-0.53719 -0.14228,-1.44053 -0.14228,-2.00084c0,-0.85234 0.18845,1.18214 1.12037,1.53543c0.33329,0.12635 0.67863,-1.24971 1.26058,-1.24971c2.20914,0 3.28572,-1.49051 3.28572,-0.33334z" fill="#7f7f7f" stroke="#000000" stroke-width="0.3" stroke-linecap="butt"/><path d="M236.78576,185.59613l0.04762,-2.38095l3.37345,1.04277l2.19798,-0.18563l1.76191,3.23809l-4.35304,-0.04926z" fill="#e480ff" stroke="#000000" stroke-width="0.3" stroke-linecap="butt"/><path d="M232.54767,187.40566c0,0 1.18881,-0.8319 1.90476,-1.09524c0.71595,-0.26334 2.2381,-0.42857 2.2381,-0.42857l3.04762,1.42857z" fill="#404040" stroke="#000000" stroke-width="0.3" stroke-linecap="butt"/><path d="M244.30957,187.35804l-1.38095,-1.90476c0,0 1.59801,-0.1877 2.71429,0.2381c1.11628,0.4258 1.90476,1.52381 1.90476,1.52381z" fill="#404040" stroke="#000000" stroke-width="0.3" stroke-linecap="butt"/><path d="M242.92862,175.37684c0,0.58065 0.25675,1.45738 -1.95239,1.45738c-1.13946,0 -2.33627,-0.23761 -2.90533,-0.52474c-0.53421,-0.26955 -0.38038,-0.57997 -0.38038,-0.86112c0,-0.42768 0.09321,0.59317 1.02513,0.77045c0.33329,0.0634 0.67863,-0.62708 1.26058,-0.62708c2.20914,0 2.95239,-0.79553 2.95239,-0.21489z" fill="#404040" stroke="#000000" stroke-width="0" stroke-linecap="butt"/><path d="M239.83799,185.82364l2.16706,-1.90697l-0.31765,2.06422l2.18898,-0.89799l-2.0242,2.04983z" fill="#7f7f7f" stroke="#000000" stroke-width="0.3" stroke-linecap="butt"/><path d="M243.02503,175.22587l-1.8,2.45l-3.1,-2.45" fill="none" stroke="#000000" stroke-width="0.5" stroke-linecap="round"/><path d="M236.83338,185.63807v-2.19048l3.16431,0.95749l-2.40241,0.47108l0.95238,1.61905z" fill="#ab60bf" stroke="#000000" stroke-width="0" stroke-linecap="butt"/><path d="M235.11909,182.2095l-0.00001,-4.09524l1.00001,0.80953l0.28571,1.7619z" fill="#e480ff" stroke="#000000" stroke-width="0.3" stroke-linecap="butt"/><path d="M236.88099,183.01902l-0.41721,-2.62517l-1.16947,1.3254l-0.07998,-1.79548l0.67568,0.57587l0.14509,-1.01484l1.22685,1.15326l-0.07905,1.21867l0.93197,0.14796l0.29934,0.71472l1.7525,1.15675z" fill="#ab60bf" stroke="none" stroke-width="0" stroke-linecap="butt"/><path d="M235.50003,179.20949c0,0 0.25137,0.27792 0.31429,0.46667c0.07706,0.23117 0.11429,0.81905 0.11429,0.81905" fill="none" stroke="#000000" stroke-width="0.3" stroke-linecap="round"/><path d="M238.1667,182.68568l-1.38095,0.7619l2.95238,0.95238l-0.7619,-1.2381z" fill="#ab60bf" stroke="none" stroke-width="0" stroke-linecap="butt"/></g></g></svg>