<svg version="1.1" xmlns="http://www.w3.org/2000/svg" xmlns:xlink="http://www.w3.org/1999/xlink" width="18.37302" height="4.77164" viewBox="0,0,18.37302,4.77164"><g transform="translate(-236.01987,-177.7084)"><g data-paper-data="{&quot;isPaintingLayer&quot;:true}" fill="#ff0000" fill-rule="nonzero" stroke="none" stroke-width="0" stroke-linecap="butt" stroke-linejoin="miter" stroke-miterlimit="10" stroke-dasharray="" stroke-dashoffset="0" style="mix-blend-mode: normal"><path d="M236.07542,180.10318l0.01587,0.02382c0,0 1.1127,-1.85408 2.03162,-1.82968c0.68501,0.01819 2.75023,1.53017 3.95696,1.76899c0.52757,0.10441 2.14062,-1.46406 3.83582,-1.62073c1.307,-0.12079 2.69935,1.26962 3.82297,1.46965c1.32289,0.23551 2.27327,-0.70092 2.27327,-0.70092l-0.04965,-1.5059l2.43061,2.35283l-2.35468,2.41881l-0.07389,-1.93242c0,0 -0.93101,0.83736 -2.18244,0.63221c-1.12811,-0.18494 -2.50768,-1.42228 -3.85641,-1.29401c-1.7824,0.16951 -3.48562,1.65008 -4.00097,1.5257c-1.21656,-0.29361 -3.18429,-1.52794 -3.89947,-1.53421c-0.94184,-0.00826 -2.00516,0.17031 -2.00516,0.17031z"/></g></g></svg>