<svg version="1.1" xmlns="http://www.w3.org/2000/svg" xmlns:xlink="http://www.w3.org/1999/xlink" width="23.95645" height="30.33163" viewBox="0,0,23.95645,30.33163"><g transform="translate(-229.40816,-173.6357)"><g data-paper-data="{&quot;isPaintingLayer&quot;:true}" fill-rule="nonzero" stroke-linejoin="miter" stroke-miterlimit="10" stroke-dasharray="" stroke-dashoffset="0" style="mix-blend-mode: normal"><g stroke="#000000" stroke-width="0.3" stroke-linecap="butt"><path d="M242.7876,187.90978l-1.5361,-2.07039l-0.60108,-1.60288l3.33934,2.5379l2.27059,-1.39431l-0.11079,1.22976l-2.31374,1.41192z" fill="#418040"/><path d="M242.42518,188.99091c-0.42094,0 -0.63372,-1.84179 -1.68238,-1.77925c-1.73933,0.10373 -4.90256,2.49093 -4.90256,1.8925c0,-0.44139 1.71494,-2.05424 1.71494,-2.05424c0,0 -0.73813,-3.251 -0.13399,-3.251c1.11911,0 3.02632,-0.32765 3.02632,0.63158c0,0.3803 2.65309,4.56041 1.97767,4.56041z" data-paper-data="{&quot;index&quot;:null}" fill="#61bf60"/><path d="M233.90494,186.17332l3.40613,-2.20397l0.13357,1.5361l-1.66967,2.27075l-3.61707,-0.29885l-0.42966,-1.13573z" fill="#418040"/></g><g data-paper-data="{&quot;index&quot;:null}"><path d="M231.9719,187.44953c-0.50839,0.05219 -1.80253,-3.27955 -0.87648,-3.56596c1.06131,-0.32825 1.11527,-0.4315 1.48824,-0.50904c0.41248,-0.08576 0.94953,-0.07686 1.83046,-0.20253c0.20345,-0.02901 0.57126,0.61905 0.20014,1.05988c-0.15649,0.18589 -0.78259,0.292 -1.06161,0.36426c-0.35257,0.0913 0.75728,-0.35301 1.24952,0.14609c0.2148,0.21778 -0.07076,0.75147 -1.17328,0.98571c-0.46485,0.09878 0.60046,0.00598 1.22585,-0.1228c0.56371,-0.11608 0.40893,1.25035 0.37125,1.25969c-0.90048,0.22321 -0.66609,0.18438 -1.49905,0.35756c-0.83295,0.17317 -0.63464,0.11214 -1.75502,0.22716z" data-paper-data="{&quot;index&quot;:null}" fill="#ffc380" stroke="#000000" stroke-width="0.3" stroke-linecap="butt"/><path d="M231.44235,183.82921l-0.18331,-0.7752l2.78461,-0.65078l0.18331,0.7752z" fill="#808080" stroke="#000000" stroke-width="0.3" stroke-linecap="butt"/><path d="M230.85396,183.12669l-0.15855,-0.56412l3.7734,-0.80224l0.15855,0.56412z" fill="#bfbfbf" stroke="#000000" stroke-width="0.3" stroke-linecap="butt"/><path d="M229.68114,179.53996c0.22056,-1.08232 2.17236,-1.52553 3.25468,-1.30497c1.08232,0.22056 2.63787,3.09677 1.57068,3.38172c-1.31055,0.34993 -2.40785,0.57235 -3.61758,0.93943c-1.28249,0.38916 -1.42834,-1.93386 -1.20779,-3.01618z" fill="#808080" stroke="#000000" stroke-width="0.3" stroke-linecap="butt"/><path d="M233.01661,181.05794c0.24025,-1.17896 -0.96057,-3.43964 0.20562,-2.61882c0.95165,0.66981 2.21141,2.68657 1.0814,3.09978c-1.26024,0.46083 -2.54159,0.64462 -3.65969,0.96731c-1.18441,0.34182 2.13244,-0.26931 2.37268,-1.44826z" fill="#404040" stroke="none" stroke-width="0" stroke-linecap="butt"/><path d="M229.7015,181.23007c0,0 1.25709,-0.6608 1.97923,-0.86955c0.80197,-0.23183 2.61825,-0.45946 2.61825,-0.45946" data-paper-data="{&quot;index&quot;:null}" fill="none" stroke="#000000" stroke-width="0.2" stroke-linecap="round"/><path d="M230.06473,182.14786c0,0 1.25709,-0.6608 1.97923,-0.86955c0.80197,-0.23183 2.61825,-0.45946 2.61825,-0.45946" data-paper-data="{&quot;index&quot;:null}" fill="none" stroke="#000000" stroke-width="0.2" stroke-linecap="round"/><path d="M229.50817,180.3919c0,0 1.25709,-0.6608 1.97923,-0.86955c0.80197,-0.23183 2.61825,-0.45946 2.61825,-0.45946" data-paper-data="{&quot;index&quot;:null}" fill="none" stroke="#000000" stroke-width="0.2" stroke-linecap="round"/><path d="M229.63562,179.51541c0,0 1.08682,-0.61158 1.71694,-0.79373c0.69979,-0.20229 2.29477,-0.36594 2.29477,-0.36594" data-paper-data="{&quot;index&quot;:null}" fill="none" stroke="#000000" stroke-width="0.2" stroke-linecap="round"/><path d="M232.78876,178.06115c0,0 0.58488,0.92608 0.75306,1.47087c0.18677,0.60504 0.31768,1.99762 0.31768,1.99762" data-paper-data="{&quot;index&quot;:null}" fill="none" stroke="#000000" stroke-width="0.2" stroke-linecap="round"/><path d="M231.86881,178.41196c0,0 0.58488,0.92608 0.75306,1.47087c0.18677,0.60504 0.31768,1.99762 0.31768,1.99762" data-paper-data="{&quot;index&quot;:null}" fill="none" stroke="#000000" stroke-width="0.2" stroke-linecap="round"/><path d="M230.96135,182.55671c0,0 -0.63233,-1.24763 -0.79719,-1.859c-0.14846,-0.55051 -0.1479,-1.64582 -0.1479,-1.64582" data-paper-data="{&quot;index&quot;:null}" fill="none" stroke="#000000" stroke-width="0.2" stroke-linecap="round"/><path d="M231.9266,182.36254c0,0 -0.63233,-1.24764 -0.79719,-1.85901c-0.14846,-0.55051 -0.14791,-1.64581 -0.14791,-1.64581" data-paper-data="{&quot;index&quot;:null}" fill="none" stroke="#000000" stroke-width="0.2" stroke-linecap="round"/></g><path d="M234.95007,192.14878l-0.8,-1.5l2,-1.5c0,0 3.56465,-1.7667 4.59758,-1.75004c1.03374,0.01667 1.60242,1.85004 1.60242,1.85004l1.84854,1.77826l-0.99525,0.12706l1.24671,1.49468l-4.60289,1.91523l1.31185,-2.70092l-1.04022,-1.75587l0.83455,1.8517l-1.21243,2.2179l-3.09831,-2.19979c0,0 -2.23653,1.73104 -2.89375,1.69193c-1.30676,-0.07779 1.2012,-1.52017 1.2012,-1.52017z" fill="#e4af72" stroke="#000000" stroke-width="0.3" stroke-linecap="butt"/><g><path d="M243.03081,186.52342c-0.29793,0.6353 -2.08445,0.42574 -3.99031,-0.46806c-1.90586,-0.8938 -3.20934,-2.13337 -2.91141,-2.76867c0.17157,-0.36586 0.70638,-3.41404 2.37303,-3.935c1.22748,-0.38369 3.94189,1.5489 4.75023,1.92799c0.57136,0.26794 -2.46417,3.45202 -2.028,3.75652c1.01873,0.71123 2.01511,1.04239 1.80649,1.48722z" data-paper-data="{&quot;index&quot;:null}" fill="#ffc380" stroke="#000000" stroke-width="0.3" stroke-linecap="butt"/><path d="M243.47201,180.9997c-0.48134,1.02637 -1.60389,-0.5778 -2.73554,-1.10851c-1.13164,-0.53071 -3.80087,1.03917 -3.31952,0.01278c0.02048,-0.04367 -1.16716,-0.80386 -1.34987,-1.67624c-0.17067,-0.81493 0.65832,-1.73682 0.79296,-2.01423c0.25045,-0.51603 1.64916,1.44535 1.81865,0.96452c0.42844,-1.2155 0.43109,-1.92746 1.02385,-2.11509c0.64643,-0.2046 1.31411,3.4152 1.82761,3.16643c1.1416,-0.55307 1.18859,-1.41966 1.70132,-1.1792c1.13164,0.53071 0.72189,2.92313 0.24054,3.9495z" data-paper-data="{&quot;index&quot;:null}" fill="#ff7c00" stroke="#000000" stroke-width="0.3" stroke-linecap="butt"/><path d="M234.77232,182.24705l1.64844,-3.82903l0.8523,1.87239l-0.89728,1.67776z" data-paper-data="{&quot;index&quot;:null}" fill="#ffc380" stroke="#000000" stroke-width="0.3" stroke-linecap="butt"/><path d="M235.34963,182.18644l0.9674,-2.11095l0.49267,1.04586l-0.34368,0.65751z" data-paper-data="{&quot;index&quot;:null}" fill="#bf9360" stroke="#000000" stroke-width="0.2" stroke-linecap="butt"/><path d="M236.68608,177.99166c-0.49368,1.05268 2.0908,2.55009 1.06442,2.06875c-1.02636,-0.48133 -1.8782,-1.57309 -1.38451,-2.62578c0.49368,-1.05268 0.62661,-1.57574 1.39407,-0.74138c0.7523,0.81786 -0.5803,0.24572 -1.07397,1.29842z" data-paper-data="{&quot;index&quot;:null}" fill="#bf5c00" stroke="none" stroke-width="0" stroke-linecap="butt"/><path d="M239.65365,176.62211c-0.48752,1.03954 -0.86629,0.22369 -0.76489,0.94925c0.02118,0.15161 -0.37792,0.24801 0.1096,-0.79151c0.48752,-1.03954 0.03115,-1.29832 0.55951,-1.62689c0.16175,-0.10059 0.5833,0.42962 0.09579,1.46916z" data-paper-data="{&quot;index&quot;:null}" fill="#bf5c00" stroke="none" stroke-width="0" stroke-linecap="butt"/><path d="M242.94243,177.72848c-1.11897,0.64888 -1.71892,1.74397 -1.21907,0.67812c0.49985,-1.06585 0.2136,-0.19404 1.08959,-1.14577c0.18688,-0.20302 1.29337,-0.20729 0.12948,0.46765z" data-paper-data="{&quot;index&quot;:null}" fill="#bf5c00" stroke="none" stroke-width="0" stroke-linecap="butt"/><path d="M243.06417,179.76206c-0.26184,0.55833 -0.93057,0.428 -1.42048,0.0647c-0.41067,-0.30453 -0.6191,-0.78869 -1.09913,-1.01381c-1.05268,-0.49368 -2.53202,0.93664 -2.05068,-0.08974c0.48133,-1.02636 1.08441,-0.71221 2.1371,-0.21852c0.39225,0.18395 0.55277,0.62472 1.00662,0.70445c0.76415,0.13426 1.72855,-0.09101 1.42656,0.5529z" data-paper-data="{&quot;index&quot;:null}" fill="#ff9c40" stroke="none" stroke-width="0" stroke-linecap="butt"/><path d="M241.1867,182.64971c-0.26535,0.56582 -0.70448,0.91945 -0.98081,0.78986c-0.27633,-0.12959 -0.13752,-1.2562 -0.13752,-1.2562l1.09846,-0.79282c0,0 0.28522,0.69334 0.01987,1.25916z" data-paper-data="{&quot;index&quot;:null}" fill="#ffffff" stroke="#000000" stroke-width="0.3" stroke-linecap="butt"/><path d="M240.1538,182.00133c0,0 0.9819,-0.73754 1.37158,-0.79078c0.24771,-0.03384 0.74022,0.50225 0.74022,0.50225" data-paper-data="{&quot;index&quot;:null}" fill="none" stroke="#000000" stroke-width="0.3" stroke-linecap="round"/><path d="M239.50376,181.89995c0,0 -0.83857,1.20536 -1.1149,1.07577c-0.27633,-0.12959 -0.2252,-0.82135 0.11422,-1.54506c0.33942,-0.72372 1.11489,-1.07577 1.11489,-1.07577z" data-paper-data="{&quot;index&quot;:null}" fill="#ffffff" stroke="#000000" stroke-width="0.3" stroke-linecap="butt"/><path d="M238.13797,178.61443c0,0 1.11058,0.24041 1.3273,0.78849c0.24154,0.61079 0.05555,2.70852 0.05555,2.70852" data-paper-data="{&quot;index&quot;:null}" fill="none" stroke="#000000" stroke-width="0.3" stroke-linecap="round"/><path d="M237.69329,183.40523c0,0 0.48254,0.66694 0.93555,1.07136c0.57111,0.50984 2.21964,1.74538 2.21964,1.74538c0,0 -0.35032,-0.46215 -1.18788,-0.93346c-0.4463,-0.25115 -1.36581,-0.41216 -1.70244,-0.71268c-0.96837,-0.86448 -0.26487,-1.17059 -0.26487,-1.17059z" data-paper-data="{&quot;index&quot;:null}" fill="#ffffff" stroke="#000000" stroke-width="0.3" stroke-linecap="round"/></g><g stroke="#000000" stroke-width="0.3" stroke-linecap="butt"><g fill="#404040"><path d="M247.88581,184.26974c0,0 1.27297,-1.30465 1.03383,-1.56461c-0.26981,-0.29332 -0.86139,-0.93641 -0.86139,-0.93641l0.86045,-0.83954l1.49018,1.71859l-1.77541,2.00403z"/><path d="M245.33234,184.52171l-2.65853,-2.72476l5.78415,-5.64355l2.65853,2.72476z"/><path d="M248.01895,187.11538l-2.51342,-2.57605l0.97176,-0.94815c0,0 2.10055,0.93369 3.52309,1.12436c0.84964,0.11388 -1.98143,2.39981 -1.98143,2.39981z"/><path d="M245.6751,183.53411l-0.69962,-0.71704l4.30226,-4.19768l0.69961,0.71705z"/><path d="M244.16868,182.09871l-0.37313,-0.38242l4.30226,-4.19768l0.37313,0.38242z"/><path d="M247.51838,176.97683c0.44037,-0.42965 1.16276,-0.40343 1.61355,0.0586c0.45079,0.46202 0.45924,1.18486 0.01887,1.61451c-0.44036,0.42965 -1.16275,0.40342 -1.61354,-0.0586c-0.45079,-0.46202 -0.45925,-1.18485 -0.01888,-1.6145z"/><path d="M250.37569,177.82807l-1.35259,-1.38628l1.02776,-1.00277l1.35259,1.38628z"/><path d="M251.50905,176.80298l-1.39922,-1.43408l0.75024,-1.47848l2.23877,2.29454z"/></g><path d="M247.88071,187.32674c-0.39223,0.32763 -3.32856,-1.71034 -2.72112,-2.46573c0.69617,-0.86573 0.68314,-0.98149 0.94894,-1.25439c0.29396,-0.3018 0.74411,-0.59482 1.40406,-1.19172c0.15242,-0.13784 0.81979,0.19363 0.75873,0.76663c-0.02574,0.24162 -0.48539,0.67978 -0.67627,0.89575c-0.24119,0.27289 0.43029,-0.7162 1.11749,-0.57781c0.29988,0.06038 0.36166,0.6625 -0.42124,1.47336c-0.33009,0.3419 0.5011,-0.33091 0.94747,-0.78746c0.40235,-0.41153 1.03835,0.80774 1.01233,0.83655c-0.62159,0.6887 -0.44902,0.52541 -1.04263,1.13487c-0.5936,0.60945 -0.46335,0.44793 -1.32775,1.16994z" data-paper-data="{&quot;index&quot;:null}" fill="#ffc380"/></g><g stroke-linecap="butt"><path d="M241.52461,193.5805l2.62086,-0.78901l1.1212,0.76001c0,0 2.7591,1.68093 2.8369,1.73954c0.22699,0.17101 1.74974,1.65521 1.01809,2.50892c-0.7092,0.8275 -2.02911,0.72793 -3.07072,0.72793c-1.01775,0 -3.89861,0.68292 -5.07322,-0.23686c-1.40855,-1.10297 -1.03204,-3.84209 -1.03204,-3.84209z" fill="#ff0000" stroke="#000000" stroke-width="0.3"/><path d="M245.78778,198.63313c-1.45338,0 -5.94737,-1.50345 -5.94737,-2.57895c0,-1.0755 0.1782,-2.31579 1.63158,-2.31579c0.54263,0 0.92792,0.56938 1.65946,0.94318c1.22782,0.62738 2.76159,1.2776 2.76159,1.95156c0,1.0755 1.34812,2 -0.10526,2z" fill="#bf0000" stroke="none" stroke-width="0"/><path d="M247.93919,195.26473c0.37082,0 -0.96643,-0.08729 -0.96643,0.97368c0,1.06097 0.27834,1.71053 -0.09249,1.71053c-0.37083,0 -1.03986,-1.01798 -1.03986,-2.07895c0,-1.06096 1.72795,-0.60526 2.09878,-0.60526z" fill="#ff7b00" stroke="#000000" stroke-width="0.3"/><path d="M243.70884,194.54894c0,-1.06097 1.72796,-0.60527 2.09878,-0.60527c0.37082,0 -0.96643,-0.08728 -0.96643,0.97369c0,1.06097 0.27833,1.71052 -0.09249,1.71052c-0.37082,0 -1.03986,-1.01798 -1.03986,-2.07895z" fill="#ff7b00" stroke="#000000" stroke-width="0.3"/><path d="M249.52462,197.60684c0,0.39241 -0.16486,2.24292 -4.18421,2.23684c-3.95967,-0.00599 -5.56866,-2.68687 -5.55263,-3.07895c0.05263,-1.28715 1.69705,1.68649 5.39474,1.81579c4.11793,0.144 4.34211,-1.3661 4.34211,-0.97369z" fill="#fffdc0" stroke="#000000" stroke-width="0.3"/><path d="M241.80004,194.40776c0.63513,0 1.15,0.50167 1.15,1.12051c0,0.61884 -0.51487,1.12051 -1.15,1.12051c-0.63513,0 -1.15,-0.50167 -1.15,-1.12051c0,-0.61884 0.51487,-1.12051 1.15,-1.12051z" fill="#ff7b00" stroke="#000000" stroke-width="0.3"/></g><g stroke-linecap="butt"><path d="M240.0257,198.19948c0,0 1.55876,1.41997 1.00195,1.82209c-0.74138,0.53541 -0.2471,2.27308 -4.87032,2.2478c-2.98696,-0.01633 -2.08064,-4.82452 -2.10012,-6.50325c-0.02039,-1.75729 0.00949,-2.26458 0.00949,-2.26458l2.4564,-1.30437l2.50676,1.62017c0,0 0.15634,0.80898 0.01011,1.543c-0.0461,0.23141 0.98573,2.83914 0.98573,2.83914z" fill="#ff0000" stroke="#000000" stroke-width="0.3"/><path d="M240.9562,199.86996c-0.50944,0.79945 -0.5184,1.27724 -1.49874,1.74232c-0.53888,0.25565 -1.25618,0.56993 -2.92231,0.57346c-1.18079,0.00251 -1.13129,-0.09789 -1.45858,-0.28902c-0.57083,-0.33336 -0.89066,-0.94273 -0.85721,-1.76361c-0.02804,-1.60409 1.71398,-1.52632 2.78948,-1.52632c1.0755,0 4.55658,0.30713 3.94736,1.26316z" fill="#bf0000" stroke="none" stroke-width="0"/><path d="M236.80354,197.17024c-1.13363,0 -1.89473,0.4588 -1.89473,-0.07895c0,-0.53775 0.81373,-0.71052 1.94736,-0.71052c1.13363,0 2,0.33067 2,0.86841c0,0.53775 -0.919,-0.07895 -2.05263,-0.07895z" data-paper-data="{&quot;index&quot;:null}" fill="#ff7b00" stroke="#000000" stroke-width="0.3"/><path d="M236.75093,195.32812c-1.13363,0 -1.89473,0.45881 -1.89473,-0.07894c0,-0.53775 0.81373,-0.71053 1.94736,-0.71053c1.13363,0 2,0.33067 2,0.86841c0,0.53775 -0.919,-0.07895 -2.05263,-0.07895z" data-paper-data="{&quot;index&quot;:null}" fill="#ff7c00" stroke="#000000" stroke-width="0.3"/><path d="M241.27199,199.73838c0,0.39241 -0.32275,4.08503 -4.34211,4.07895c-3.95967,-0.00599 -3.14761,-3.31844 -3.13158,-3.71053c0.05263,-1.28715 -0.724,2.10754 2.97369,2.23684c4.11793,0.144 4.5,-2.99768 4.5,-2.60527z" fill="#fffdc0" stroke="#000000" stroke-width="0.3"/><path d="M237.06146,203.50154c0,0.21293 -0.83102,0.26316 -1.76316,-0.15789c-0.54611,-0.24668 -0.76031,-0.33884 -0.93729,-0.5632c-0.14494,-0.18375 -0.40482,-0.38557 -0.40482,-0.64733c0,-0.58135 -0.0604,-2.30041 -0.07895,-1.21053c-0.00791,0.46517 0.24997,1.33086 1.10584,1.83333c0.79035,0.464 2.07837,0.46652 2.07837,0.74562z" fill="#bfbfbf" stroke="none" stroke-width="0"/></g></g></g></svg>