<svg version="1.1" xmlns="http://www.w3.org/2000/svg" xmlns:xlink="http://www.w3.org/1999/xlink" width="18.5546" height="25.42617" viewBox="0,0,18.5546,25.42617"><g transform="translate(-232.56917,-174.54112)"><g data-paper-data="{&quot;isPaintingLayer&quot;:true}" fill-rule="nonzero" stroke-linejoin="miter" stroke-miterlimit="10" stroke-dasharray="" stroke-dashoffset="0" style="mix-blend-mode: normal"><g stroke-linecap="butt"><path d="M241.32454,191.08042l1.30908,0.76646l1.31178,-1.55547l1.1212,0.76001l-1.19556,1.26002c0,0 3.95466,0.42091 4.03246,0.47952c0.22699,0.17101 1.74974,1.65521 1.01809,2.50892c-0.7092,0.8275 -2.02911,0.72793 -3.07072,0.72793c-1.01775,0 -3.89861,0.68292 -5.07322,-0.23686c-1.40855,-1.10297 -1.03204,-3.84209 -1.03204,-3.84209z" fill="#ff0000" stroke="#000000" stroke-width="0.3"/><path d="M245.58772,196.13306c-1.45338,0 -5.94737,-1.50345 -5.94737,-2.57895c0,-1.0755 0.1782,-2.31579 1.63158,-2.31579c0.54263,0 0.92792,0.56938 1.65946,0.94318c1.22782,0.62738 2.76159,1.2776 2.76159,1.95156c0,1.0755 1.34812,2 -0.10526,2z" fill="#bf0000" stroke="none" stroke-width="0"/><path d="M247.73912,192.76465c0.37082,0 -0.96643,-0.08729 -0.96643,0.97368c0,1.06097 0.27834,1.71053 -0.09249,1.71053c-0.37083,0 -1.03986,-1.01798 -1.03986,-2.07895c0,-1.06096 1.72795,-0.60526 2.09878,-0.60526z" fill="#ffffff" stroke="#000000" stroke-width="0.3"/><path d="M244.32456,193.15939c0,-1.06097 1.72796,-0.60527 2.09878,-0.60527c0.37082,0 -0.96643,-0.08729 -0.96643,0.97368c0,1.06097 0.27833,1.71053 -0.09249,1.71053c-0.37082,0 -1.03986,-1.01798 -1.03986,-2.07895z" fill="#ffffff" stroke="#000000" stroke-width="0.3"/><path d="M243.00877,192.94887c0,-1.06097 1.72796,-0.60527 2.09878,-0.60527c0.37082,0 -0.96643,-0.08728 -0.96643,0.97369c0,1.06097 0.27833,1.71052 -0.09249,1.71052c-0.37082,0 -1.03986,-1.01798 -1.03986,-2.07895z" fill="#ffffff" stroke="#000000" stroke-width="0.3"/><path d="M249.32456,195.10676c0,0.39241 -0.16486,2.24292 -4.18421,2.23684c-3.95967,-0.00599 -5.56866,-2.68687 -5.55263,-3.07895c0.05263,-1.28715 1.69705,1.68649 5.39474,1.81579c4.11793,0.144 4.34211,-1.3661 4.34211,-0.97369z" fill="#ffffff" stroke="#000000" stroke-width="0.3"/></g><path d="M241.9643,187.77753l-1.71428,-3.64286l1.85715,0.07143l-0.23248,2.08154l2.01819,1.13275z" fill="#bfbfbf" stroke="#000000" stroke-width="0.3" stroke-linecap="butt"/><path d="M241.9643,187.70609l1.85714,-0.35715l0.28572,1.28572l-0.14286,1.64286z" fill="#bf9360" stroke="#000000" stroke-width="0.3" stroke-linecap="butt"/><path d="M233.25001,189.34895l-0.22822,-2.22528l0.93389,0.87533l1.27665,-1.06037l0.80339,0.83891c0,0 2.70275,1.12147 3.78585,1.15528c1.10686,0.03455 2.14272,-0.98129 2.14272,-0.98129l0.19611,1.64218l2.84949,-0.15226l-0.06735,1.56568l-0.91615,-0.80558l-1.34781,1.57599l-1.51166,-0.84076l-1.70184,1.13725c0,0 -2.01026,0.07321 -1.5898,-0.18252c0.67703,-0.4118 -0.26629,-2.21067 -0.26629,-2.21067l-2.34904,1.55814z" fill="#565fff" stroke="#000000" stroke-width="0.3" stroke-linecap="butt"/><path d="M235.32861,186.96341l-1.36201,0.75858l-0.82583,-0.79045l-0.04364,-2.08134l2.30075,0.30451z" fill="#ffc380" stroke="#000000" stroke-width="0.3" stroke-linecap="butt"/><g><path d="M240.10024,189.04767c-1.04347,0 -4.33496,-1.34742 -4.67868,-1.98067c-0.12314,-0.22687 0.29642,-1.33805 0.12648,-1.98994c-0.07608,-0.29184 -2.44908,-0.03915 -2.6187,-0.24013c-0.27371,-0.32429 1.5653,-0.78742 1.5653,-0.78742c0,0 -0.51094,-0.75159 -0.51094,-0.87905c0,-0.55366 1.08259,-0.85373 2.51548,0.01094c0.82964,0.50064 2.56554,0.9853 3.38678,0.9853c1.06683,0 0.72974,1.19367 1.17541,1.83451c0.45523,0.65458 1.30078,1.47557 1.30078,1.9274c0,0.89418 -0.10537,1.11905 -2.26191,1.11905z" fill="#ffffff" stroke="#000000" stroke-width="0.3" stroke-linecap="butt"/><path d="M239.03696,188.43885c-1.02015,0.01307 -1.48933,-1.12928 -1.48933,-1.12928c-0.28738,-0.92783 0.55239,-1.79556 1.47619,-1.85714c0.9238,-0.06159 1.4598,0.82565 1.38095,1.66667c0,0 -0.22562,1.30512 -1.36781,1.31975z" fill="none" stroke="#ff0000" stroke-width="0.3" stroke-linecap="round"/><path d="M239.9762,185.92861l-1.83333,2.11904" fill="none" stroke="#ff0000" stroke-width="0.3" stroke-linecap="round"/><path d="M237.50001,183.83338v0l2.57143,0.52381c0,0 0.35279,0.16702 0.43747,0.32867c0.08964,0.17114 0.08634,0.67133 0.08634,0.67133z" fill="#bfbfbf" stroke="none" stroke-width="0" stroke-linecap="butt"/></g><g><path d="M241.78949,185.94153c-0.29703,0.63571 -2.08386,0.4287 -3.99097,-0.4624c-1.90713,-0.89109 -3.21238,-2.12882 -2.91535,-2.76453c0.17106,-0.36608 0.70152,-3.41503 2.36743,-3.93837c1.22694,-0.38543 3.9441,1.54329 4.75296,1.92124c0.57174,0.26715 -2.45928,3.45552 -2.02266,3.7594c1.01973,0.70979 2.01659,1.03954 1.8086,1.48466z" fill="#ffc380" stroke="#000000" stroke-width="0.3" stroke-linecap="butt"/><path d="M237.41172,181.16997l0.74265,-0.91446l0.52618,0.56122l0.01376,1.32044z" fill="#bf9360" stroke="none" stroke-width="0" stroke-linecap="butt"/><path d="M236.13636,179.49639l-0.75156,-1.92197c0,0 0.32465,-1.57586 1.00099,-2.2147c0.67633,-0.63883 1.0936,-0.77911 1.97051,-0.592c0.87691,0.1871 5.62813,2.12944 5.62813,2.12944c0,0 0.60402,0.20592 0.76306,0.6045c0.15902,0.39859 -0.00251,0.44593 -0.19307,0.82985c-0.34259,0.69024 -1.4378,2.8968 -1.4378,2.8968z" fill="#ff0000" stroke="#000000" stroke-width="0.3" stroke-linecap="butt"/><path d="M236.18864,176.02572c0.48985,-1.04837 1.17428,-1.65886 2.27031,-1.14676c0.53573,0.25031 1.63223,0.34488 1.82937,1.01882c0.20616,0.70484 -0.50473,1.9957 -0.75514,2.53161c-0.229,0.4901 -0.99993,0.94841 -1.53096,1.12284c-0.60492,0.19869 -0.99272,0.06322 -1.57639,-0.20949c-0.42851,-0.20022 -0.66311,-1.17483 -0.768,-1.64952c-0.16339,-0.73945 0.23247,-1.029 0.53081,-1.66749z" fill="#bf0000" stroke="#000000" stroke-width="0.2" stroke-linecap="butt"/><path d="M243.74017,182.34163c0,0 -0.61473,-1.11996 -1.61124,-1.58557c-0.99651,-0.46561 -6.05857,-0.98543 -5.56888,-2.03349c0.24413,-0.52249 -0.80615,2.92479 0.8384,2.55711c1.65424,-0.36986 5.92296,-3.45447 6.2397,-3.59616c0.31673,-0.1417 -0.26962,-0.00342 -0.04215,0.82342c0.19123,0.69515 1.29663,1.12151 1.11611,1.78947c-0.18053,0.66797 -1.33089,-1.31011 -1.38922,-0.77896c-0.11195,1.01943 0.4173,2.82419 0.4173,2.82419z" fill="#00f8ff" stroke="#000000" stroke-width="0.3" stroke-linecap="butt"/><path d="M243.39308,181.47373c0,0 -0.89803,-0.65698 -1.76077,-1.06009c-0.86273,-0.4031 -5.49744,-0.39212 -5.00776,-1.44019c0.24413,-0.5225 -0.51541,2.6927 0.96686,2.24919c1.49101,-0.44613 5.41723,-3.46534 5.84986,-3.26321c0.15591,0.07285 -0.35653,-0.15441 -0.19668,0.64085c0.13437,0.66858 1.28557,1.6111 1.28557,1.6111c0,0 -1.69244,-1.5894 -1.77168,-1.06804c-0.15211,1.00066 0.6346,2.33038 0.6346,2.33038z" fill="#00b9bf" stroke="#000000" stroke-width="0" stroke-linecap="butt"/><path d="M233.47726,181.65461l1.643,-3.83137l0.85495,1.87117l-0.8949,1.67904z" fill="#ffc380" stroke="#000000" stroke-width="0.3" stroke-linecap="butt"/><path d="M234.10217,181.61547l0.96441,-2.11232l0.49415,1.04516l-0.34275,0.658z" fill="#bf9360" stroke="#000000" stroke-width="0.2" stroke-linecap="butt"/><path d="M235.25733,177.45649c0,0 -0.70793,0.33673 -1.00957,0.41569c-0.28644,0.07497 -0.75699,0.04665 -0.75699,0.04665l0.82949,-2.05649c0,0 0.34696,0.37574 0.49857,0.57007c0.13737,0.17605 0.37256,0.54653 0.37256,0.54653z" fill="#565fff" stroke="#000000" stroke-width="0.3" stroke-linecap="butt"/><path d="M235.18114,177.39458c-0.23378,0.50036 -0.94335,0.61044 -1.50328,0.34882c-0.55992,-0.26162 -0.03362,0.01571 0.20017,-0.48463c0.23378,-0.50036 0.03417,-0.35195 0.59409,-0.09033c0.55992,0.26162 0.94281,-0.27418 0.70903,0.22616z" fill="#000dff" stroke="none" stroke-width="0" stroke-linecap="butt"/><path d="M239.59502,181.55937c0,0 -0.70592,0.93163 -0.97993,0.8036c-0.274,-0.12802 -0.27953,-0.69538 -0.01234,-1.26724c0.26719,-0.57184 0.97993,-0.8036 0.97993,-0.8036z" fill="#000000" stroke="none" stroke-width="0" stroke-linecap="butt"/><path d="M239.3878,181.7779l0.39467,-1.18217l2.16314,0.43254l-1.55142,1.74547z" fill="#bf9360" stroke="none" stroke-width="0" stroke-linecap="butt"/><path d="M241.31223,182.04636c-0.26719,0.57184 -0.69626,0.93613 -0.95835,0.81368c-0.26209,-0.12246 0.00922,-1.25715 0.00922,-1.25715l0.95834,-0.81367c0,0 0.25797,0.6853 -0.00922,1.25714z" fill="#000000" stroke="none" stroke-width="0" stroke-linecap="butt"/><path d="M237.87685,177.02478c0,0 1.1188,0.08718 1.4027,0.85231c0.27409,0.73874 0.27233,3.66213 0.27233,3.66213" fill="none" stroke="#000000" stroke-width="0.3" stroke-linecap="round"/><path d="M240.31997,181.58272c0,0 1.34007,-1.29395 1.77251,-1.5336c0.44213,-0.24503 0.85179,0.07919 0.85179,0.07919" fill="none" stroke="#000000" stroke-width="0.3" stroke-linecap="round"/><path d="M240.02177,185.59566c0,0 -0.69406,-0.79671 -1.60129,-1.41555c-0.49154,-0.33528 -1.34441,-0.53515 -1.50174,-0.71759c-0.44779,-0.51917 -0.23795,-1.74056 -0.23795,-1.74056c0,0 0.48255,0.99115 1.00303,1.59463c0.58549,0.67887 2.33794,2.27906 2.33794,2.27906z" fill="none" stroke="#000000" stroke-width="0.3" stroke-linecap="round"/><path d="M236.77798,182.97628c-0.05489,-0.20038 0.00039,-0.78824 0.00039,-0.78824l1.12981,1.63166l-0.79954,-0.42613c0,0 -0.27574,-0.2169 -0.33064,-0.41729z" fill="#ffffff" stroke="#000000" stroke-width="0" stroke-linecap="butt"/></g><g><path d="M243.01874,190.93908c-0.58849,-0.96029 -0.51665,-0.76564 -0.88448,-1.53277c-0.36784,-0.76714 -0.25647,-0.55728 -0.62551,-1.40846c-0.01545,-0.03561 0.97669,-0.98786 1.22651,-0.46936c0.27715,0.5752 0.84989,1.47827 0.6463,1.04885c-0.48288,-1.01846 -0.23199,-1.56929 0.07146,-1.53072c0.69541,0.08836 1.01577,1.24012 0.87439,0.90449c-0.11189,-0.26562 -0.4075,-0.82766 -0.35472,-1.06483c0.12516,-0.56248 0.86345,-0.66342 0.96386,-0.48412c0.43471,0.77643 0.76769,1.19789 0.94985,1.57778c0.16471,0.3435 0.11539,0.44904 0.49855,1.49178c0.33433,0.90985 -3.09914,1.90311 -3.36617,1.46737z" data-paper-data="{&quot;index&quot;:null}" fill="#ffc380" stroke="#000000" stroke-width="0.3" stroke-linecap="butt"/><path d="M245.04501,186.55481l0.72738,-0.32473l1.17259,2.60818l-0.72738,0.32473z" fill="#808080" stroke="#000000" stroke-width="0.3" stroke-linecap="butt"/><path d="M245.4808,185.71832l0.54458,-0.21631l1.65226,3.486l-0.54458,0.21631z" fill="#bfbfbf" stroke="#000000" stroke-width="0.3" stroke-linecap="butt"/><path d="M250.69556,187.95989c-0.72641,0.83212 -2.66129,2.12591 -3.13025,0.87041c-0.44236,-1.18428 -0.93147,-2.19141 -1.44865,-3.4454c-0.42115,-1.02115 2.80891,-1.53021 3.64101,-0.8038c0.83212,0.72641 1.6643,2.54669 0.93788,3.3788z" fill="#808080" stroke="#000000" stroke-width="0.3" stroke-linecap="butt"/><path d="M247.46489,186.22998c-0.79127,0.9064 0.73585,3.91354 0.28875,2.76472c-0.42205,-1.08451 -1.05354,-2.21448 -1.45206,-3.4958c-0.35733,-1.1489 2.01012,-1.37149 3.12001,-1.02159c1.3601,0.42879 -1.16544,0.84626 -1.9567,1.75266z" fill="#404040" stroke="none" stroke-width="0" stroke-linecap="butt"/><path d="M247.60623,184.50868c0,0 0.92129,1.58175 1.2237,2.35985c0.27231,0.70064 0.50996,2.1008 0.50996,2.1008" data-paper-data="{&quot;index&quot;:null}" fill="none" stroke="#000000" stroke-width="0.2" stroke-linecap="round"/><path d="M246.6563,184.77695c0,0 0.92129,1.58175 1.2237,2.35985c0.27231,0.70064 0.50996,2.1008 0.50996,2.1008" data-paper-data="{&quot;index&quot;:null}" fill="none" stroke="#000000" stroke-width="0.2" stroke-linecap="round"/><path d="M248.38975,184.15371c0,0 0.92129,1.58175 1.2237,2.35985c0.27231,0.70064 0.50996,2.1008 0.50996,2.1008" data-paper-data="{&quot;index&quot;:null}" fill="none" stroke="#000000" stroke-width="0.2" stroke-linecap="round"/><path d="M249.22992,184.08884c0,0 0.83783,1.36702 1.10172,2.04599c0.23762,0.61136 0.41106,1.84633 0.41106,1.84633" data-paper-data="{&quot;index&quot;:null}" fill="none" stroke="#000000" stroke-width="0.2" stroke-linecap="round"/><path d="M246.57847,185.8463c0,0 1.18629,-0.74106 1.78052,-0.95977c0.53508,-0.19695 1.62607,-0.29405 1.62607,-0.29405" data-paper-data="{&quot;index&quot;:null}" fill="none" stroke="#000000" stroke-width="0.2" stroke-linecap="round"/><path d="M246.85792,186.7904c0,0 1.18629,-0.74106 1.78052,-0.95977c0.53508,-0.19695 1.62607,-0.29405 1.62607,-0.29405" data-paper-data="{&quot;index&quot;:null}" fill="none" stroke="#000000" stroke-width="0.2" stroke-linecap="round"/><path d="M250.88012,187.39735c0,0 -0.87023,0.66512 -1.39787,0.8812c-0.58597,0.23998 -1.96134,0.49452 -1.96134,0.49452" data-paper-data="{&quot;index&quot;:null}" fill="none" stroke="#000000" stroke-width="0.2" stroke-linecap="round"/><path d="M250.44868,186.51233c0,0 -0.87022,0.66511 -1.39786,0.88121c-0.58597,0.23998 -1.96135,0.49453 -1.96135,0.49453" data-paper-data="{&quot;index&quot;:null}" fill="none" stroke="#000000" stroke-width="0.2" stroke-linecap="round"/></g><g stroke-linecap="butt"><path d="M237.58772,191.86992c0,1.01737 3.86652,0.10526 3.05263,0.10526c-0.24305,0 0.81393,0.65005 -0.10536,1.84204c-0.29665,0.38465 0.02128,0.14116 -1.30933,0.28222c-0.4655,0.04935 1.35876,1.51997 0.80195,1.92209c-0.74138,0.53541 -0.2471,2.27308 -4.87032,2.2478c-2.98696,-0.01633 -2.08064,-4.82452 -2.10012,-6.50325c-0.02039,-1.75729 0.10949,-1.9908 0.10949,-2.26458c0,-0.60277 1.00027,1.51431 2.1564,1.79563c0.79521,0.1935 1.77508,-1.47983 2.10676,-1.47983c0.61881,0 0.75634,0.80898 0.61011,1.543c-0.0461,0.23141 -0.45221,0.26577 -0.45221,0.50962z" fill="#ff0000" stroke="#000000" stroke-width="0.3"/><path d="M239.95614,195.86992c-0.50944,0.79945 -0.5184,1.27724 -1.49874,1.74232c-0.53888,0.25565 -1.25618,0.56993 -2.92231,0.57346c-1.18079,0.00251 -1.13129,-0.09789 -1.45858,-0.28902c-0.57083,-0.33336 -0.89066,-0.94273 -0.85721,-1.76361c-0.02804,-1.60409 1.71398,-1.52632 2.78948,-1.52632c1.0755,0 4.55658,0.30713 3.94736,1.26316z" fill="#bf0000" stroke="none" stroke-width="0"/><path d="M235.9035,194.4702c-1.13363,0 -1.89473,0.4588 -1.89473,-0.07895c0,-0.53775 0.81373,-0.71052 1.94736,-0.71052c1.13363,0 2,0.33067 2,0.86841c0,0.53775 -0.919,-0.07895 -2.05263,-0.07895z" data-paper-data="{&quot;index&quot;:null}" fill="#ffffff" stroke="#000000" stroke-width="0.3"/><path d="M235.9035,193.52283c-1.13363,0 -1.89473,0.45881 -1.89473,-0.07894c0,-0.53775 0.81373,-0.71053 1.94736,-0.71053c1.13363,0 2,0.33067 2,0.86841c0,0.53775 -0.919,-0.07895 -2.05263,-0.07895z" data-paper-data="{&quot;index&quot;:null}" fill="#ffffff" stroke="#000000" stroke-width="0.3"/><path d="M235.85087,192.62809c-1.13363,0 -1.89473,0.45881 -1.89473,-0.07894c0,-0.53775 0.81373,-0.71053 1.94736,-0.71053c1.13363,0 2,0.33067 2,0.86841c0,0.53775 -0.919,-0.07895 -2.05263,-0.07895z" data-paper-data="{&quot;index&quot;:null}" fill="#ffffff" stroke="#000000" stroke-width="0.3"/><path d="M240.27193,195.73833c0,0.39241 -0.32275,4.08503 -4.34211,4.07895c-3.95967,-0.00599 -3.14761,-3.31844 -3.13158,-3.71053c0.05263,-1.28715 -0.724,2.10754 2.97369,2.23684c4.11793,0.144 4.5,-2.99768 4.5,-2.60527z" fill="#ffffff" stroke="#000000" stroke-width="0.3"/><path d="M236.0614,199.50149c0,0.21293 -0.83102,0.26316 -1.76316,-0.15789c-0.54611,-0.24668 -0.76031,-0.33884 -0.93729,-0.5632c-0.14494,-0.18375 -0.40482,-0.38557 -0.40482,-0.64733c0,-0.58135 -0.0604,-2.30041 -0.07895,-1.21053c-0.00791,0.46517 0.24997,1.33086 1.10584,1.83333c0.79035,0.464 2.07837,0.46652 2.07837,0.74562z" fill="#bfbfbf" stroke="none" stroke-width="0"/></g></g></g></svg>