<svg version="1.1" xmlns="http://www.w3.org/2000/svg" xmlns:xlink="http://www.w3.org/1999/xlink" width="20.26477" height="42.88093" viewBox="0,0,20.26477,42.88093"><g transform="translate(-229.88494,-173.52986)"><g data-paper-data="{&quot;isPaintingLayer&quot;:true}" fill-rule="nonzero" stroke-linejoin="miter" stroke-miterlimit="10" stroke-dasharray="" stroke-dashoffset="0" style="mix-blend-mode: normal"><g><path d="M236.78578,185.52952l0.04762,-2.38095l3.37345,1.04277l2.19798,-0.18563l1.63215,3.95174l-4.28816,-0.04926z" fill="#e480ff" stroke="#000000" stroke-width="0.3" stroke-linecap="butt"/><path d="M240.06071,183.9678l-3.19717,-0.87858l-1.04092,-7.12142l7.34296,-0.06885l1.01181,3.85851l-0.83096,3.30557l0.66666,0.80952z" fill="#e480ff" stroke="#000000" stroke-width="0.3" stroke-linecap="butt"/><path d="M240.20461,183.38648l-2.31818,-1.31818l0.03079,-2.09772l1.41207,1.77811l2.1498,-0.13277l1.49824,-0.78216l-0.72727,2.14363z" fill="#000000" stroke="none" stroke-width="0" stroke-linecap="butt"/><path d="M238.87127,181.96283l-0.44021,-1.22781c0,0 0.50064,0.8972 0.97477,0.98648c0.53097,0.09998 2.23113,-0.01541 2.23113,-0.01541l-0.65963,0.53164z" fill="#ffffff" stroke="#000000" stroke-width="0.2" stroke-linecap="butt"/><path d="M238.96868,182.54942l0.09821,-0.25351l2.26245,0.35309l-0.07928,0.45236c0,0 -0.81232,0.20169 -1.18576,0.10635c-0.33436,-0.08537 -1.09563,-0.65829 -1.09563,-0.65829z" fill="#ffffff" stroke="#000000" stroke-width="0.2" stroke-linecap="butt"/><path d="M241.54769,178.04642c0,1.17032 -0.99635,2.11905 -2.16667,2.11905c-1.17032,0 -2.07143,-0.94873 -2.07143,-2.11905c0,-1.17032 -0.28937,-1.11904 0.40476,-1.92857c0.35061,-0.4089 0.96886,0.9243 0.96886,0.9243c0,0 2.86447,0.37259 2.86447,1.00428z" fill="#000000" stroke="none" stroke-width="0" stroke-linecap="butt"/><path d="M242.76546,176.87072c0,0 0.2963,-1.33319 0.46434,-0.9243c0.33267,0.80953 0.19398,0.75825 0.19398,1.92857c0,1.17032 -0.43186,2.11905 -0.99275,2.11905c-0.56089,0 -1.0384,-0.94873 -1.0384,-2.11905c0,-0.63169 1.37283,-1.00427 1.37283,-1.00427z" data-paper-data="{&quot;index&quot;:null}" fill="#000000" stroke="none" stroke-width="0" stroke-linecap="butt"/><path d="M239.39888,179.97499l-0.39491,-0.86395l-0.83723,-0.42296l0.91727,-0.31488l0.2875,-0.88988l0.27381,0.87619l0.7119,0.32857l-0.65714,0.30119z" fill="#ff0000" stroke="none" stroke-width="0" stroke-linecap="butt"/><path d="M242.6846,179.64164l-0.39491,-0.86395l-0.83723,-0.42296l0.91726,-0.31488l0.2875,-0.88988l0.2738,0.87619l0.71191,0.32857l-0.65714,0.30119z" fill="#ff0000" stroke="none" stroke-width="0" stroke-linecap="butt"/><path d="M236.16674,178.64381l-0.42857,-2.66666h7.57143l-5.95238,0.57143z" fill="#7f7f7f" stroke="#000000" stroke-width="0.3" stroke-linecap="butt"/><path d="M243.26198,174.12c0,1.15717 -0.07658,2.80953 -2.28572,2.80953c-1.13946,0 -2.66961,-0.18883 -3.23867,-0.76107c-0.53421,-0.53719 -0.14228,-1.44053 -0.14228,-2.00084c0,-0.85234 0.18845,1.18214 1.12037,1.53543c0.33329,0.12635 0.67863,-1.24971 1.26058,-1.24971c2.20914,0 3.28572,-1.49051 3.28572,-0.33334z" fill="#7f7f7f" stroke="#000000" stroke-width="0.3" stroke-linecap="butt"/><path d="M242.92864,175.3769c0,0.58065 0.25675,1.45738 -1.95239,1.45738c-1.13946,0 -2.33627,-0.23761 -2.90533,-0.52474c-0.53421,-0.26955 -0.38038,-0.57997 -0.38038,-0.86112c0,-0.42768 0.09321,0.59317 1.02513,0.77045c0.33329,0.0634 0.67863,-0.62708 1.26058,-0.62708c2.20914,0 2.95239,-0.79553 2.95239,-0.21489z" fill="#404040" stroke="#000000" stroke-width="0" stroke-linecap="butt"/><path d="M239.83801,185.75703l2.16706,-1.90697l-0.31765,2.06422l2.18898,-0.89799l-2.0242,2.04983z" fill="#7f7f7f" stroke="#000000" stroke-width="0.3" stroke-linecap="butt"/><path d="M243.02505,175.22593l-1.8,2.45l-3.1,-2.45" fill="none" stroke="#000000" stroke-width="0.5" stroke-linecap="round"/><path d="M236.8334,185.57146v-2.19048l3.16431,0.95749l-2.40241,0.47108l0.82263,1.74881z" fill="#ab60bf" stroke="#000000" stroke-width="0" stroke-linecap="butt"/><path d="M235.11911,182.14289l-0.00001,-4.09524l1.00001,0.80953l0.28571,1.7619z" fill="#e480ff" stroke="#000000" stroke-width="0.3" stroke-linecap="butt"/><path d="M236.88101,182.95241l-0.41721,-2.62517l-1.16947,1.3254l-0.07998,-1.79548l0.67568,0.57587l0.14509,-1.01484l1.22685,1.15326l-0.07905,1.21867l0.93197,0.14796l0.29934,0.71472l1.7525,1.15675z" fill="#ab60bf" stroke="none" stroke-width="0" stroke-linecap="butt"/><path d="M235.50005,179.14288c0,0 0.25137,0.27792 0.31429,0.46667c0.07706,0.23117 0.11429,0.81905 0.11429,0.81905" fill="none" stroke="#000000" stroke-width="0.3" stroke-linecap="round"/><path d="M238.97625,183.09525l0.7619,1.2381l-2.95238,-0.95238l1.38095,-0.7619z" fill="#ab60bf" stroke="none" stroke-width="0" stroke-linecap="butt"/></g><path d="M242.26583,192.35144c0,-2.22887 1.02667,-6.60715 3.26236,-6.60715c2.23569,0 2.47785,10.32086 0.14167,12.60242c-1.4604,2.16637 -0.74134,6.86274 -1.57024,5.82615c-1.95218,-5.49037 -1.83379,-9.59256 -1.83379,-11.82142z" data-paper-data="{&quot;index&quot;:null}" fill="#404040" stroke="#000000" stroke-width="0.3" stroke-linecap="butt"/><path d="M241.20329,192.4943c0,2.22887 0.90411,5.40249 -1.47664,7.75c-0.47175,0.46517 -3.64166,3.67385 -3.64166,3.67385c0,0 -0.40642,-6.66213 -0.40642,-7.63814c0,-2.22887 -3.33046,-9.75 -1.09477,-9.75c2.23569,0 6.6195,3.73542 6.6195,5.96429z" fill="#404040" stroke="#000000" stroke-width="0.3" stroke-linecap="butt"/><path d="M231.76916,187.92474c0,0 1.96734,-1.35092 2.68329,-1.61426c0.71595,-0.26334 2.2381,-0.42857 2.2381,-0.42857l3.17737,2.14222l2.75135,0.18961l-4.65557,3.57938l4.81986,-3.75432l1.2235,2.26551l-7.92713,5.9112z" fill="#404040" stroke="#000000" stroke-width="0.3" stroke-linecap="butt"/><path d="M245.67202,190.08296l-2.74338,-4.62962c0,0 1.59801,-0.1877 2.71429,0.2381c1.11628,0.4258 2.35891,2.4321 2.35891,2.4321l1.9662,2.00738l-1.99095,4.02204l-8.08812,-4.07737l0.12286,-1.80474z" fill="#404040" stroke="#000000" stroke-width="0.3" stroke-linecap="butt"/><path d="M244.39286,204.53001c0,0.06053 -0.69508,2.0414 -0.254,3.27437c0.4281,1.19667 0.23085,1.90932 0.23085,1.90932c0,0 -0.67628,2.97994 -0.53549,4.02889c0.227,1.69142 2.042,2.03752 2.042,2.03752c0,0 -5.05188,-0.75118 -5.716,0.19527c-0.24645,0.35122 0.11687,-7.87581 -0.31412,-8.38399c-0.22843,-0.26934 -1.40883,7.33509 -0.26143,8.33635c1.47131,1.28392 -1.76417,-1.55823 -1.76417,-1.55823l-2.92579,1.69232l-0.57115,-1.23611c0,0 -1.64418,1.34878 -2.56098,1.36667c-4.01627,0.07834 -0.06427,0.16426 2.13028,-4.16235c1.86225,-3.67147 2.14286,-5.42624 2.14286,-7.71428c0,-2.28804 4.01378,-2 5,-2c0.98622,0 3.35714,-0.07375 3.35714,2.21428z" fill="#404040" stroke="#000000" stroke-width="0.3" stroke-linecap="butt"/><g stroke="#000000" stroke-width="0.3" stroke-linecap="butt"><path d="M237.60715,202.2443l2.07143,-2l3.92857,0.35714v1.78572z" fill="#000000"/><path d="M239.75,202.2443l1,-1.92857l1.78572,0.21428l-0.21429,1.71429z" fill="#fff700"/></g><g stroke="#000000" stroke-width="0.3"><path d="M242.95914,188.25365l1.08855,-0.24919c0,0 -0.09332,-0.50726 0.16474,-0.56215c0.4392,-0.09342 0.95165,-0.00357 1.46551,0.52509c0.98462,1.01298 1.61708,0.9744 1.61708,0.9744l-1.05957,0.22014l-0.48658,0.77853l-2.1734,-0.64878l-0.61634,-1.03804z" fill="#e480ff" stroke-linecap="butt"/><path d="M244.32757,188.47497l0.31175,-0.59558l0.72629,-0.11807" fill="none" stroke-linecap="round"/><path d="M245.12464,189.31874l0.31175,-0.59558l0.72629,-0.11807" fill="none" stroke-linecap="round"/><path d="M244.66083,188.71483l0.31175,-0.59558l0.72629,-0.11807" fill="none" stroke-linecap="round"/></g><g stroke="#000000" stroke-width="0.3"><path d="M239.9827,190.153c0,0 -2.44678,-0.89262 -3.31615,-0.04787c-0.90485,0.87924 -1.36039,-1.07776 -1.36039,-1.07776l1.36827,-1.59485l1.00776,0.4577l2.54877,0.52132z" fill="#e480ff" stroke-linecap="butt"/><path d="M235.70947,189.96555l0.36822,-0.56242l0.73433,-0.04685" fill="none" stroke-linecap="round"/><path d="M235.42385,188.80638l0.64386,-0.19327l0.59204,0.43695" fill="none" stroke-linecap="round"/><path d="M236.30261,187.96276l0.63634,0.21677l0.22801,0.69961" fill="none" stroke-linecap="round"/></g><path d="M242.16667,191.70857c0.06667,8.30457 2.69352,8.57141 0.56667,8.46667c-3.05097,-0.15026 -3.78494,0.5999 -2.76667,-0.26667c1.71938,-1.46322 1.28051,-2.46666 1.36667,-7.86666c0.01733,-1.08602 0.82447,-1.43787 0.83333,-0.33334z" fill="#e480ff" stroke="#000000" stroke-width="0.3" stroke-linecap="butt"/><path d="M242.63334,191.50857l-0.53333,-2.6l1.73334,0.6l0.86666,2.73333z" fill="#cccccc" stroke="#000000" stroke-width="0.3" stroke-linecap="butt"/><path d="M243.4,189.24191c0.64433,0 1.16666,0.50741 1.16666,1.13333c0,0.62593 -0.52233,1.13334 -1.16666,1.13334c-0.64433,0 -1.16666,-0.50742 -1.16666,-1.13334c0,-0.62592 0.52233,-1.13333 1.16666,-1.13333z" fill="#cccccc" stroke="#000000" stroke-width="0.3" stroke-linecap="butt"/><path d="M243.46667,189.44191c0.46024,0 0.83334,0.34324 0.83334,0.76666c0,0.42342 -0.3731,0.76666 -0.83334,0.76666c-0.46023,0 -0.83333,-0.34324 -0.83333,-0.76666c0,-0.42342 0.37309,-0.76666 0.83333,-0.76666z" fill="#ffffff" stroke="#000000" stroke-width="0.3" stroke-linecap="butt"/><g><g fill="#808080" stroke="#000000" stroke-width="0.1" stroke-linecap="butt"><path d="M236.57267,191.41866l-0.26818,-1.02193c0,0 0.64638,-0.44666 0.9457,-0.55805c0.30552,-0.1137 0.86917,-0.11733 0.86917,-0.11733l-0.39718,1.63197z"/><path d="M237.51191,191.61464c-0.22768,0.23748 -0.5719,0.27695 -0.76884,0.08816c-0.19694,-0.18881 -0.17203,-0.53437 0.05565,-0.77187c0.22768,-0.23748 0.57189,-0.27696 0.76883,-0.08815c0.19694,0.18881 0.17203,0.53437 -0.05564,0.77186z"/></g><g><path d="M236.54,188.02456l0.03141,-0.55537l1.99402,0.10752l-0.0314,0.55537z" fill="#808080" stroke="#000000" stroke-width="0.1" stroke-linecap="butt"/><path d="M236.04116,187.4493l0.04014,-0.40722l2.69236,0.09095l-0.04014,0.40722z" fill="#bfbfbf" stroke="#000000" stroke-width="0.1" stroke-linecap="butt"/><path d="M239.22134,184.96798c0.28377,0.71723 0.46708,2.33225 -0.46221,2.22123c-0.87657,-0.10471 -1.65818,-0.12368 -2.60196,-0.20428c-0.76854,-0.06564 -0.05013,-2.23309 0.6671,-2.51686c0.71723,-0.28377 2.1133,-0.21731 2.39708,0.49991z" fill="#808080" stroke="#000000" stroke-width="0.1" stroke-linecap="butt"/><path d="M237.11332,186.41887c0.3091,0.78127 2.66422,0.79655 1.80814,0.70612c-0.80816,-0.08537 -1.71157,-0.05532 -2.63431,-0.21831c-0.82739,-0.14615 -0.20743,-1.68658 0.36512,-2.26328c0.70162,-0.70673 0.15196,0.99421 0.46107,1.77549z" fill="#404040" stroke="none" stroke-width="0" stroke-linecap="butt"/><path d="M236.09041,185.77998c0,0 1.27657,-0.06521 1.85628,-0.00371c0.52199,0.05536 1.46698,0.35625 1.46698,0.35625" data-paper-data="{&quot;index&quot;:null}" fill="none" stroke="#000000" stroke-width="0.1" stroke-linecap="round"/><path d="M235.95269,186.45536c0,0 1.27658,-0.06522 1.85628,-0.00373c0.52199,0.05536 1.46698,0.35626 1.46698,0.35626" data-paper-data="{&quot;index&quot;:null}" fill="none" stroke="#000000" stroke-width="0.1" stroke-linecap="round"/><path d="M236.12101,185.18009c0,0 1.27658,-0.06522 1.85628,-0.00371c0.52199,0.05536 1.46697,0.35625 1.46697,0.35625" data-paper-data="{&quot;index&quot;:null}" fill="none" stroke="#000000" stroke-width="0.1" stroke-linecap="round"/><path d="M236.34979,184.63794c0,0 1.11662,-0.08219 1.62245,-0.02854c0.45548,0.04832 1.27739,0.33614 1.27739,0.33614" data-paper-data="{&quot;index&quot;:null}" fill="none" stroke="#000000" stroke-width="0.1" stroke-linecap="round"/><path d="M236.59138,186.84608c0,0 -0.08,-0.97347 -0.02544,-1.41226c0.04913,-0.39511 0.33821,-1.10323 0.33821,-1.10323" data-paper-data="{&quot;index&quot;:null}" fill="none" stroke="#000000" stroke-width="0.1" stroke-linecap="round"/><path d="M237.26674,186.97499c0,0 -0.08,-0.97347 -0.02545,-1.41226c0.04913,-0.39511 0.33821,-1.10323 0.33821,-1.10323" data-paper-data="{&quot;index&quot;:null}" fill="none" stroke="#000000" stroke-width="0.1" stroke-linecap="round"/><path d="M238.93135,184.67332c0,0 0.13409,0.75302 0.09922,1.14965c-0.03871,0.44047 -0.32117,1.37548 -0.32117,1.37548" data-paper-data="{&quot;index&quot;:null}" fill="none" stroke="#000000" stroke-width="0.1" stroke-linecap="round"/><path d="M238.24398,184.65765c0,0 0.1341,0.75301 0.09923,1.14963c-0.03871,0.44047 -0.32118,1.3755 -0.32118,1.3755" data-paper-data="{&quot;index&quot;:null}" fill="none" stroke="#000000" stroke-width="0.1" stroke-linecap="round"/></g></g></g></g></svg>