<svg version="1.1" xmlns="http://www.w3.org/2000/svg" xmlns:xlink="http://www.w3.org/1999/xlink" width="29.95411" height="46.72974" viewBox="0,0,29.95411,46.72974"><g transform="translate(-225.71102,-173.52985)"><g data-paper-data="{&quot;isPaintingLayer&quot;:true}" fill-rule="nonzero" stroke-linejoin="miter" stroke-miterlimit="10" stroke-dasharray="" stroke-dashoffset="0" style="mix-blend-mode: normal"><g><path d="M236.78578,185.52951l0.04762,-2.38095l3.37345,1.04277l2.19798,-0.18563l1.63215,3.95174l-4.28816,-0.04926z" fill="#e480ff" stroke="#000000" stroke-width="0.3" stroke-linecap="butt"/><path d="M240.06071,183.96779l-3.19717,-0.87858l-1.04092,-7.12142l7.34296,-0.06885l1.01181,3.85851l-0.83096,3.30557l0.66666,0.80952z" fill="#e480ff" stroke="#000000" stroke-width="0.3" stroke-linecap="butt"/><path d="M240.20461,183.38647l-2.31818,-1.31818l0.03079,-2.09772l1.46916,1.32138l2.1498,-0.13277l1.44115,-1.1818l-0.72727,3z" fill="#000000" stroke="none" stroke-width="0" stroke-linecap="butt"/><path d="M238.87127,181.96282l-0.38312,-1.34199c0,0 0.44355,0.49756 0.91768,0.58684c0.53097,0.09998 2.11695,-0.01541 2.11695,-0.01541l-0.54545,1.04546z" fill="#ffffff" stroke="#000000" stroke-width="0.2" stroke-linecap="butt"/><path d="M238.96868,182.54941l0.04112,-0.53896l2.37663,0.18182l-0.13637,0.90909c0,0 -0.81232,0.20169 -1.18576,0.10635c-0.33436,-0.08537 -1.09563,-0.65829 -1.09563,-0.65829z" fill="#ffffff" stroke="#000000" stroke-width="0.2" stroke-linecap="butt"/><path d="M239.16674,181.97498l-0.38095,-0.90476l1.14285,0.28572l-0.14285,0.52381l-0.37948,-0.35546z" fill="#ff8080" stroke="#000000" stroke-width="0.2" stroke-linecap="butt"/><path d="M241.54769,178.04641c0,1.17032 -0.99635,2.11905 -2.16667,2.11905c-1.17032,0 -2.07143,-0.94873 -2.07143,-2.11905c0,-1.17032 -0.28937,-1.11904 0.40476,-1.92857c0.35061,-0.4089 0.96886,0.9243 0.96886,0.9243c0,0 2.86447,0.37259 2.86447,1.00428z" fill="#000000" stroke="none" stroke-width="0" stroke-linecap="butt"/><path d="M242.76546,176.87071c0,0 0.2963,-1.33319 0.46434,-0.9243c0.33267,0.80953 0.19398,0.75825 0.19398,1.92857c0,1.17032 -0.43186,2.11905 -0.99275,2.11905c-0.56089,0 -1.0384,-0.94873 -1.0384,-2.11905c0,-0.63169 1.37283,-1.00427 1.37283,-1.00427z" data-paper-data="{&quot;index&quot;:null}" fill="#000000" stroke="none" stroke-width="0" stroke-linecap="butt"/><path d="M239.39888,179.97498l-0.39491,-0.86395l-0.83723,-0.42296l0.91727,-0.31488l0.2875,-0.88988l0.27381,0.87619l0.7119,0.32857l-0.65714,0.30119z" fill="#ff0000" stroke="none" stroke-width="0" stroke-linecap="butt"/><path d="M242.6846,179.64163l-0.39491,-0.86395l-0.83723,-0.42296l0.91726,-0.31488l0.2875,-0.88988l0.2738,0.87619l0.71191,0.32857l-0.65714,0.30119z" fill="#ff0000" stroke="none" stroke-width="0" stroke-linecap="butt"/><path d="M236.16674,178.6438l-0.42857,-2.66666h7.57143l-5.95238,0.57143z" fill="#7f7f7f" stroke="#000000" stroke-width="0.3" stroke-linecap="butt"/><path d="M243.26198,174.11999c0,1.15717 -0.07658,2.80953 -2.28572,2.80953c-1.13946,0 -2.66961,-0.18883 -3.23867,-0.76107c-0.53421,-0.53719 -0.14228,-1.44053 -0.14228,-2.00084c0,-0.85234 0.18845,1.18214 1.12037,1.53543c0.33329,0.12635 0.67863,-1.24971 1.26058,-1.24971c2.20914,0 3.28572,-1.49051 3.28572,-0.33334z" fill="#7f7f7f" stroke="#000000" stroke-width="0.3" stroke-linecap="butt"/><path d="M242.92864,175.37689c0,0.58065 0.25675,1.45738 -1.95239,1.45738c-1.13946,0 -2.33627,-0.23761 -2.90533,-0.52474c-0.53421,-0.26955 -0.38038,-0.57997 -0.38038,-0.86112c0,-0.42768 0.09321,0.59317 1.02513,0.77045c0.33329,0.0634 0.67863,-0.62708 1.26058,-0.62708c2.20914,0 2.95239,-0.79553 2.95239,-0.21489z" fill="#404040" stroke="#000000" stroke-width="0" stroke-linecap="butt"/><path d="M239.83801,185.75702l2.16706,-1.90697l-0.31765,2.06422l2.18898,-0.89799l-2.0242,2.04983z" fill="#7f7f7f" stroke="#000000" stroke-width="0.3" stroke-linecap="butt"/><path d="M243.02505,175.22592l-1.8,2.45l-3.1,-2.45" fill="none" stroke="#000000" stroke-width="0.5" stroke-linecap="round"/><path d="M236.8334,185.57145v-2.19048l3.16431,0.95749l-2.40241,0.47108l0.82263,1.74881z" fill="#ab60bf" stroke="#000000" stroke-width="0" stroke-linecap="butt"/><path d="M235.11911,182.14288l-0.00001,-4.09524l1.00001,0.80953l0.28571,1.7619z" fill="#e480ff" stroke="#000000" stroke-width="0.3" stroke-linecap="butt"/><path d="M236.88101,182.9524l-0.41721,-2.62517l-1.16947,1.3254l-0.07998,-1.79548l0.67568,0.57587l0.14509,-1.01484l1.22685,1.15326l-0.07905,1.21867l0.93197,0.14796l0.29934,0.71472l1.7525,1.15675z" fill="#ab60bf" stroke="none" stroke-width="0" stroke-linecap="butt"/><path d="M235.50005,179.14287c0,0 0.25137,0.27792 0.31429,0.46667c0.07706,0.23117 0.11429,0.81905 0.11429,0.81905" fill="none" stroke="#000000" stroke-width="0.3" stroke-linecap="round"/><path d="M238.97625,183.09524l0.7619,1.2381l-2.95238,-0.95238l1.38095,-0.7619z" fill="#ab60bf" stroke="none" stroke-width="0" stroke-linecap="butt"/></g><path d="M242.26583,192.35143c0,-2.22887 1.02667,-6.60715 3.26236,-6.60715c2.23569,0 2.47785,10.32086 0.14167,12.60242c-1.4604,2.16637 -0.74134,6.86274 -1.57024,5.82615c-1.95218,-5.49037 -1.83379,-9.59256 -1.83379,-11.82142z" data-paper-data="{&quot;index&quot;:null}" fill="#404040" stroke="#000000" stroke-width="0.3" stroke-linecap="butt"/><path d="M241.20329,192.49429c0,2.22887 0.90411,5.40249 -1.47664,7.75c-0.47175,0.46517 -3.64166,3.67385 -3.64166,3.67385c0,0 -0.40642,-6.66213 -0.40642,-7.63814c0,-2.22887 -3.32956,-9.68679 -1.09477,-9.75c3.53569,-0.1 6.6195,3.73542 6.6195,5.96429z" fill="#404040" stroke="#000000" stroke-width="0.3" stroke-linecap="butt"/><path d="M231.76916,187.92473c0,0 1.96734,-1.35092 2.68329,-1.61426c0.71595,-0.26334 2.2381,-0.42857 2.2381,-0.42857l3.17737,2.14222l3.12635,0.06461l-4.03057,0.45438l-5.43165,3.42763l-3.67349,4.36805l-1.8015,-0.03449l2.52287,-5.7888z" fill="#404040" stroke="#000000" stroke-width="0.3" stroke-linecap="butt"/><path d="M247.94702,191.93295l-5.01838,-6.47962c0,0 1.59801,-0.1877 2.71429,0.2381c1.11628,0.4258 2.35891,2.4321 2.35891,2.4321l1.9662,2.00738l2.13405,1.77204l3.28688,3.79763l-1.70214,0.39526z" fill="#404040" stroke="#000000" stroke-width="0.3" stroke-linecap="butt"/><path d="M244.39286,204.53c0,0.06053 -0.69508,2.0414 -0.254,3.27437c0.4281,1.19667 0.23085,1.90932 0.23085,1.90932c0,0 -0.67628,2.97994 -0.53549,4.02889c0.227,1.69142 0.042,6.03752 0.042,6.03752c0,0 -3.05188,-4.75118 -3.716,-3.80473c-0.24645,0.35122 0.11687,-7.87581 -0.31412,-8.38399c-0.22843,-0.26934 -1.10883,3.43509 0.03857,4.43635c1.47131,1.28392 -1.86417,0.04177 -1.86417,0.04177l1.27421,1.59232l-3.17115,0.96389l-2.26098,3.76667c0,0 -2.16427,-2.03574 0.03028,-6.36235c1.86225,-3.67147 2.14286,-5.42624 2.14286,-7.71428c0,-2.28804 4.01378,-2 5,-2c0.98622,0 3.35714,-0.07375 3.35714,2.21428z" fill="#404040" stroke="#000000" stroke-width="0.3" stroke-linecap="butt"/><g stroke="#000000" stroke-width="0.3" stroke-linecap="butt"><path d="M237.60715,202.24429l2.07143,-2l3.92857,0.35714v1.78572z" fill="#000000"/><path d="M239.75,202.24429l1,-1.92857l1.78572,0.21428l-0.21429,1.71429z" fill="#fff700"/></g><g stroke="#000000" stroke-width="0.3"><path d="M229.59077,196.28596c0,0 0.70482,1.53656 1.90452,1.71014c1.24867,0.18066 -0.02417,1.73542 -0.02417,1.73542l-2.09841,-0.11136l-0.25206,-1.07774l-1.14166,-2.33764z" fill="#e480ff" stroke-linecap="butt"/><path d="M231.96851,198.83963l-0.67029,0.0513l-0.48506,-0.55331" fill="none" stroke-linecap="round"/><path d="M231.22421,199.77306l-0.54591,-0.3923l-0.0149,-0.73568" fill="none" stroke-linecap="round"/><path d="M230.01968,199.59134l-0.2164,-0.63646l0.41529,-0.60744" fill="none" stroke-linecap="round"/></g><path d="M243.54167,188.45856c-3.43333,6.30457 1.31852,11.82141 -0.80833,11.71667c-3.05097,-0.15026 -3.78494,0.5999 -2.76667,-0.26667c1.71938,-1.46322 1.78051,-7.96666 -0.88333,-11.74166c0.01733,-1.08602 4.44947,-0.81287 4.45833,0.29166z" fill="#e480ff" stroke="#000000" stroke-width="0.3" stroke-linecap="butt"/><path d="M254.04864,195.32288l-1.88869,-0.11424l0.26485,-1.54511l2.01526,-0.22172z" fill="#cccccc" stroke="#000000" stroke-width="0.3" stroke-linecap="butt"/><path d="M253.5,193.3419c0.64433,0 1.16666,0.50741 1.16666,1.13333c0,0.62593 -0.52233,1.13334 -1.16666,1.13334c-0.64433,0 -1.16666,-0.50742 -1.16666,-1.13334c0,-0.62592 0.52233,-1.13333 1.16666,-1.13333z" fill="#cccccc" stroke="#000000" stroke-width="0.3" stroke-linecap="butt"/><path d="M253.66667,193.8419c0.46024,0 0.83334,0.34324 0.83334,0.76666c0,0.42342 -0.3731,0.76666 -0.83334,0.76666c-0.46023,0 -0.83333,-0.34324 -0.83333,-0.76666c0,-0.42342 0.37309,-0.76666 0.83333,-0.76666z" fill="#ffffff" stroke="#000000" stroke-width="0.3" stroke-linecap="butt"/><g><g fill="#808080" stroke="#000000" stroke-width="0.1" stroke-linecap="butt"><path d="M232.59339,197.26924l-0.64619,0.83589c0,0 -0.74824,-0.23973 -1.01908,-0.40896c-0.27646,-0.17274 -0.62318,-0.61715 -0.62318,-0.61715l1.53546,-0.68079z"/><path d="M232.17575,196.40544c0.32707,0.03555 0.56832,0.28423 0.53885,0.55545c-0.02947,0.27123 -0.31851,0.46229 -0.64559,0.42675c-0.32707,-0.03555 -0.56831,-0.28422 -0.53883,-0.55546c0.02947,-0.27123 0.31849,-0.46228 0.64557,-0.42674z"/></g><g><path d="M229.92384,199.36553l-0.45924,0.3139l-1.13116,-1.64564l0.45923,-0.31389z" fill="#808080" stroke="#000000" stroke-width="0.1" stroke-linecap="butt"/><path d="M229.7723,200.11173l-0.34717,0.2166l-1.57028,-2.18891l0.34717,-0.21659z" fill="#bfbfbf" stroke="#000000" stroke-width="0.1" stroke-linecap="butt"/><path d="M225.86619,199.10537c0.39523,-0.66237 1.56315,-1.79279 2.04205,-0.9887c0.45174,0.75847 0.91348,1.38938 1.42532,2.1864c0.4168,0.64902 -1.73891,1.40192 -2.40129,1.00669c-0.66237,-0.39523 -1.46131,-1.54202 -1.06608,-2.2044z" fill="#808080" stroke="#000000" stroke-width="0.1" stroke-linecap="butt"/><path d="M228.30177,199.89071c0.43052,-0.72152 -0.994,-2.59702 -0.54344,-1.8635c0.42533,0.69246 1.00023,1.38998 1.43395,2.2206c0.3889,0.74479 -1.20991,1.19319 -2.01614,1.09129c-0.988,-0.12485 0.69511,-0.72689 1.12563,-1.44841z" fill="#404040" stroke="none" stroke-width="0" stroke-linecap="butt"/><path d="M228.41949,201.09099c0,0 -0.83039,-0.97178 -1.13527,-1.46865c-0.27454,-0.4474 -0.61257,-1.37974 -0.61257,-1.37974" data-paper-data="{&quot;index&quot;:null}" fill="none" stroke="#000000" stroke-width="0.1" stroke-linecap="round"/><path d="M229.03867,200.78813c0,0 -0.8304,-0.97177 -1.13529,-1.46864c-0.27454,-0.4474 -0.61256,-1.37974 -0.61256,-1.37974" data-paper-data="{&quot;index&quot;:null}" fill="none" stroke="#000000" stroke-width="0.1" stroke-linecap="round"/><path d="M227.92546,201.43268c0,0 -0.83039,-0.97178 -1.13528,-1.46865c-0.27454,-0.4474 -0.61256,-1.37974 -0.61256,-1.37974" data-paper-data="{&quot;index&quot;:null}" fill="none" stroke="#000000" stroke-width="0.1" stroke-linecap="round"/><path d="M227.35631,201.58211c0,0 -0.74627,-0.83468 -1.01232,-1.26823c-0.23956,-0.3904 -0.51285,-1.21725 -0.51285,-1.21725" data-paper-data="{&quot;index&quot;:null}" fill="none" stroke="#000000" stroke-width="0.1" stroke-linecap="round"/><path d="M228.95868,200.0437c0,0 -0.72258,0.65722 -1.10356,0.88165c-0.34305,0.2021 -1.08051,0.40497 -1.08051,0.40497" data-paper-data="{&quot;index&quot;:null}" fill="none" stroke="#000000" stroke-width="0.1" stroke-linecap="round"/><path d="M228.64885,199.42992c0,0 -0.72257,0.65721 -1.10355,0.88165c-0.34305,0.2021 -1.08051,0.40497 -1.08051,0.40497" data-paper-data="{&quot;index&quot;:null}" fill="none" stroke="#000000" stroke-width="0.1" stroke-linecap="round"/><path d="M225.80959,199.5149c0,0 0.51489,-0.5656 0.85045,-0.77991c0.37265,-0.23801 1.28584,-0.58455 1.28584,-0.58455" data-paper-data="{&quot;index&quot;:null}" fill="none" stroke="#000000" stroke-width="0.1" stroke-linecap="round"/><path d="M226.21647,200.06912c0,0 0.51488,-0.56558 0.85044,-0.7799c0.37265,-0.23801 1.28585,-0.58455 1.28585,-0.58455" data-paper-data="{&quot;index&quot;:null}" fill="none" stroke="#000000" stroke-width="0.1" stroke-linecap="round"/></g></g><g data-paper-data="{&quot;index&quot;:null}" stroke="#000000" stroke-width="0.3"><path d="M255.24406,196.10477l-1.14166,2.33764l-0.25206,1.07774l-2.09841,0.11136c0,0 -1.27285,-1.55475 -0.02418,-1.73541c1.1997,-0.17358 1.90452,-1.71014 1.90452,-1.71014z" fill="#e480ff" stroke-linecap="butt"/><path d="M252.40988,198.23762l-0.48506,0.55331l-0.67029,-0.0513" fill="none" stroke-linecap="round"/><path d="M252.55964,198.54508l-0.0149,0.73568l-0.5459,0.3923" fill="none" stroke-linecap="round"/><path d="M253.00447,198.24744l0.41529,0.60744l-0.2164,0.63647" fill="none" stroke-linecap="round"/></g></g></g></svg>