<svg version="1.1" xmlns="http://www.w3.org/2000/svg" xmlns:xlink="http://www.w3.org/1999/xlink" width="17.4693" height="23.19956" viewBox="0,0,17.4693,23.19956"><g transform="translate(-230.87858,-174.56508)"><g data-paper-data="{&quot;isPaintingLayer&quot;:true}" fill-rule="nonzero" stroke-linejoin="miter" stroke-miterlimit="10" stroke-dasharray="" stroke-dashoffset="0" style="mix-blend-mode: normal"><g data-paper-data="{&quot;index&quot;:null}" stroke="#000000" stroke-width="0.3" stroke-linecap="butt"><path d="M237.19469,194.77587c0,-2.19381 0.43855,-4.25 0.97222,-4.19445c0.65919,0.06862 0.42409,-0.17045 0.70115,0.14675c0.17829,0.20412 0.49329,0.68873 0.49329,1.5477c0,0.74508 -1.70581,4.096 -1.94667,5.04733c-0.22609,0.89301 -1.5939,-0.53488 -2.33347,-0.70981c-1.0671,-0.20397 -2.65123,-0.70087 -2.68205,-1.88816c0.14599,-1.18531 1.94915,-0.00795 2.8164,0.24983c0.7806,0.10061 1.97913,0.84048 1.97913,-0.1992z" fill="#ffc380"/><path d="M232.44587,194.51083c-0.56128,0.89514 3.61049,2.84442 2.64416,2.2385c-0.41882,-0.26262 -2.65288,-0.66486 -3.30743,-1.22428c-0.85568,-0.7313 -0.82314,-2.26154 -0.66747,-2.46344c0.10011,-0.12985 1.30378,-0.41234 2.3493,0.02964c0.97863,0.41369 1.78947,1.53914 2.25667,1.83209c0.96633,0.60593 -2.71395,-1.30763 -3.27522,-0.4125z" fill="#ff0000"/></g><g stroke="#000000" stroke-width="0.3" stroke-linecap="butt"><path d="M242.11833,194.31432c0,1.03968 1.19853,0.29981 1.97912,0.1992c0.86725,-0.25778 2.6704,-1.43514 2.8164,-0.24983c-0.03082,1.18729 -1.61495,1.68419 -2.68205,1.88816c-0.73957,0.17494 -2.10737,1.60283 -2.33347,0.70982c-0.24086,-0.95133 -1.94667,-4.30226 -1.94667,-5.04734c0,-0.85897 0.315,-1.34358 0.49329,-1.5477c0.27706,-0.3172 0.04196,-0.07813 0.70115,-0.14675c0.53367,-0.05555 0.97222,2.00064 0.97222,4.19445z" fill="#ffc380"/><path d="M243.59191,194.4618c0.4672,-0.29295 1.27804,-1.4184 2.25667,-1.83209c1.04552,-0.44197 2.24919,-0.15948 2.3493,-0.02963c0.15567,0.2019 0.18821,1.73213 -0.66747,2.46344c-0.65456,0.55942 -2.88861,0.96166 -3.30743,1.22427c-0.96633,0.60593 3.20544,-1.34336 2.64416,-2.23849c-0.56127,-0.89512 -4.24156,1.01843 -3.27523,0.4125z" fill="#ff0000"/></g><g><path d="M245.72647,181.56368c0.03986,0.70102 -1.15798,0.58256 -1.38022,1.21166c-0.30403,0.86059 1.17888,2.66932 0.71569,3.44542c-0.28893,0.48413 -0.4926,-2.06375 -1.3153,-1.93054c-0.36427,0.05898 -0.52574,2.26762 -0.99276,2.76888c-0.80593,0.86501 -1.9424,0.19753 -2.42566,0.22501c-0.38262,0.02176 -1.76664,0.45877 -2.50255,-0.17904c-0.68051,-0.58977 -0.71211,-2.25603 -1.13159,-2.28587c-0.81039,-0.05764 -0.48345,2.28579 -0.84497,1.86835c-0.51849,-0.5987 0.43828,-2.37859 0.04812,-3.1699c-0.29872,-0.60587 -1.54054,-0.5953 -1.5809,-1.30521c-0.01016,-0.17875 -0.13479,-0.97406 0.0859,-1.49361c0.23632,-0.55634 0.81741,-0.83555 0.75274,-0.92877c-0.26016,-0.37501 -2.15113,0.96218 -1.7536,0.34924c0.94985,-1.46456 4.36793,-3.53668 6.31323,-3.64728c1.53666,-0.08737 2.40281,1.44148 3.48172,2.31761c0.11754,0.09545 0.4225,0.34557 0.64027,0.27329c0.45052,-0.14953 0.89288,-0.76099 1.08902,-0.54296c0.14968,0.16639 -0.25432,0.8626 -0.71073,1.21098c-0.3828,0.2922 -0.82297,0.22774 -0.80484,0.48972c0.02191,0.3165 0.76162,-0.04386 1.25002,0.10838c0.63208,0.19702 1.04778,0.88683 1.06642,1.21465z" fill="#800000" stroke="#000000" stroke-width="0.3" stroke-linecap="butt"/><path d="M243.83866,182.95997c-0.05696,0.69936 -1.80397,1.12779 -3.90206,0.95691c-2.09809,-0.17088 -3.75275,-0.87636 -3.69579,-1.57573c0.0328,-0.40275 -0.53212,-3.4455 0.84712,-4.5164c1.0158,-0.78871 4.23466,0.07261 5.12452,0.14509c0.62899,0.05123 -1.10141,4.09579 -0.5863,4.22853c1.20313,0.31007 2.2524,0.27189 2.21252,0.76159z" fill="#ffc380" stroke="#000000" stroke-width="0.3" stroke-linecap="butt"/><path d="M242.11486,178.48583c-0.03767,0.46255 -0.50528,1.95956 -0.50528,1.95956c0,0 -0.92132,-1.40687 -1.09135,-1.42072c-0.28485,-0.0232 -1.61574,1.40607 -1.61574,1.40607c0,0 0.13964,-1.1739 0.16815,-1.52397c0.05124,-0.6291 1.18293,-1.05029 1.82514,-0.99798c0.6422,0.05231 1.27032,-0.05205 1.21908,0.57706z" fill="#bf9360" stroke="none" stroke-width="0" stroke-linecap="butt"/><path d="M241.206,174.95041c-0.00328,0.04028 -0.35272,0.00853 -0.5193,0.51872c-0.19766,0.60537 -0.21063,1.32347 0.08329,1.1709c0.31876,-0.16546 1.44164,-0.80347 1.79411,-0.7698c0.84043,0.08031 0.76824,0.87203 0.95832,1.06748c0.33371,0.34315 -0.19983,1.97591 -0.90782,2.40103c-0.43751,0.26271 -0.21027,-1.48143 -0.31206,-1.40665c-0.15433,0.11338 -0.35228,0.93438 -1.11994,1.26435c-0.18428,0.07921 -0.06213,-0.32996 -0.18793,-0.71576c-0.11168,-0.34251 -0.46988,-0.66063 -0.64264,-0.69195c-0.12855,-0.0233 -0.0594,0.27628 -0.13632,0.59354c-0.06888,0.28411 -0.28386,0.5895 -0.38925,0.57378c-0.29869,-0.04458 -0.24339,-0.52946 -0.6817,-0.86812c-0.46903,-0.36241 -1.46005,-0.15161 -1.5496,-0.15891c-0.38061,-0.031 -1.47452,0.92137 -1.47452,0.92137c0,0 0.14132,-1.85718 0.20388,-2.62537c0.09287,-1.14024 0.61315,-1.12059 1.77961,-1.02559c0.53341,0.04344 1.27654,1.07425 1.69196,1.23385c0.22218,0.08535 0.27268,-0.68112 0.54813,-1.20613c0.33576,-0.63996 0.88948,-0.61667 0.86179,-0.27674z" fill="#800000" stroke="#000000" stroke-width="0.3" stroke-linecap="butt"/><path d="M236.39023,177.20739l0.07731,-0.94924c0,0 0.91888,0.29533 1.59829,0.33664c0.20425,0.01241 1.02809,-0.33207 1.02809,-0.33207l0.72329,0.5005l0.82816,-0.11391c0,0 0.64066,0.14966 1.03164,0.15402c0.50203,0.0056 1.73158,-0.12319 1.73158,-0.12319c0,0 0.09323,0.39749 0.07026,0.57786c-0.02102,0.16503 -0.10784,0.47017 -0.10784,0.47017c0,0 -1.275,0.03221 -1.76611,-0.03009c-0.37432,-0.04748 -1.02143,-0.31923 -1.02143,-0.31923l-0.78386,0.20286l-0.62751,-0.47877c0,0 -0.84046,0.48924 -1.09178,0.47055c-0.64208,-0.04774 -1.69007,-0.3661 -1.69007,-0.3661z" fill="#bf2e00" stroke="none" stroke-width="0" stroke-linecap="butt"/><path d="M239.49781,178.94157c-0.03767,0.46254 -0.51021,1.43361 -0.51021,1.43361c0,0 -0.81867,-1.49407 -0.98869,-1.50792c-0.28485,-0.0232 -1.66707,1.44967 -1.66707,1.44967c0,0 0.12417,-0.98406 0.15269,-1.33413c0.05124,-0.6291 1.18293,-1.05029 1.82514,-0.99798c0.6422,0.05231 1.23939,0.32765 1.18815,0.95675z" fill="#bf9360" stroke="none" stroke-width="0" stroke-linecap="butt"/><path d="M238.99528,179.83229c-0.05017,0.61599 -0.51583,1.08074 -1.04008,1.03804c-0.52424,-0.0427 -0.90857,-0.57667 -0.85839,-1.19267c0.05017,-0.61599 0.53237,-0.69718 1.05662,-0.65449c0.52424,0.0427 0.89203,0.19312 0.84186,0.80911z" fill="#000000" stroke="none" stroke-width="0" stroke-linecap="butt"/><path d="M241.15479,180.00816c-0.05017,0.61599 -0.51583,1.08074 -1.04008,1.03804c-0.52424,-0.0427 -0.90857,-0.57667 -0.85839,-1.19267c0.05017,-0.61599 0.48104,-0.65358 1.00529,-0.61088c0.52424,0.0427 0.94336,0.14951 0.89319,0.7655z" fill="#000000" stroke="none" stroke-width="0" stroke-linecap="butt"/><path d="M239.25771,179.5431c0,0 1.77822,-0.5358 2.3295,0.14195" fill="none" stroke="#000000" stroke-width="0.3" stroke-linecap="round"/><path d="M240.82567,178.4764c0.38759,0.68087 -0.5878,0.76434 -0.5878,0.76434" fill="none" stroke="#000000" stroke-width="0.2" stroke-linecap="round"/><path d="M240.20864,178.42615c0.38759,0.68087 -0.5878,0.76434 -0.5878,0.76434" fill="none" stroke="#000000" stroke-width="0.2" stroke-linecap="round"/><path d="M237.14124,179.13184c0.65369,-0.57961 2.32177,0.23688 2.32177,0.23688" data-paper-data="{&quot;index&quot;:null}" fill="none" stroke="#000000" stroke-width="0.3" stroke-linecap="round"/><path d="M238.26381,178.84107c0,0 -0.94902,-0.2402 -0.45637,-0.84938" data-paper-data="{&quot;index&quot;:null}" fill="none" stroke="#000000" stroke-width="0.2" stroke-linecap="round"/><path d="M238.87308,178.98623c0,0 -0.94902,-0.2402 -0.45637,-0.84938" data-paper-data="{&quot;index&quot;:null}" fill="none" stroke="#000000" stroke-width="0.2" stroke-linecap="round"/><path d="M238.99327,182.64902c-0.45507,-0.03706 -0.82675,-0.85374 -0.82675,-0.85374l1.75609,0.14303c0,0 -0.47426,0.74778 -0.92933,0.71071z" fill="#ff8080" stroke="#000000" stroke-width="0.2" stroke-linecap="butt"/><path d="M235.79532,178.3373l0.58066,-0.35403" fill="none" stroke="#800000" stroke-width="0.7" stroke-linecap="round"/></g><g><path d="M240.92859,185.44045c0,0 0.6731,0.48075 0.55151,0.9829c-0.03638,0.15025 -0.59632,1.55301 -0.52872,2.30742c0.08252,0.92083 1.19382,3.14583 1.10407,3.22708c-0.1792,0.16224 -1.92168,-0.10371 -2.1834,-0.10371c-0.24097,0 -2.18049,0.00152 -2.29265,-0.16619c-0.07292,-0.10904 0.79014,-2.20706 0.73197,-2.83948c-0.05514,-0.5994 -0.85897,-2.88645 -0.85897,-3.26515c0,-0.26284 -0.92697,-1.9019 -0.81244,-2.21404c0.11892,-0.3241 1.2826,0.68021 1.45573,0.4958c0.36919,-0.39326 0.27474,0.12301 0.85671,0.12301c0.55886,0 2.69484,-0.16175 3.06108,0.20448c0.36623,0.36623 -1.08489,1.2479 -1.08489,1.2479z" fill="#ff0000" stroke="#000000" stroke-width="0.3" stroke-linecap="butt"/><path d="M239.2143,186.29757c0,0.3055 -0.1501,0.53214 -0.25425,0.71972c-0.08861,0.1596 -0.1045,0.30409 -0.38861,0.30409c-0.61803,0 -0.29527,0.5606 -0.45123,0.01786c-0.16868,-0.58695 -0.39973,-1.26602 -0.39973,-1.26602c0,0 0.35104,-0.20959 0.53928,-0.24098c0.50753,-0.08462 0.95454,0.05288 0.95454,0.46534z" fill="#bf0000" stroke="none" stroke-width="0" stroke-linecap="butt"/><path d="M241.30955,186.30937c0,0.27484 -0.00545,0.46305 -0.15936,0.65784c-0.19217,0.24323 -0.66222,0.31835 -0.9835,0.31835c-0.57858,0 -1.2381,0.49899 -1.2381,-0.11905c0,-0.26896 0.5174,-0.73978 0.66543,-1.02445c0.19212,-0.36947 0.29349,-0.57079 0.62028,-0.57079c0.57858,0 1.09524,0.12006 1.09524,0.7381z" fill="#bf0000" stroke="none" stroke-width="0" stroke-linecap="butt"/><path d="M239.30954,186.22616c0,0 -0.0056,0.3899 -0.12574,0.58213c-0.11791,0.18866 -0.58855,0.56073 -0.58855,0.56073" fill="none" stroke="#000000" stroke-width="0.3" stroke-linecap="round"/></g><g stroke="#000000" stroke-width="0.3"><path d="M241.28695,185.58349c-0.74369,0 0.64008,0.29811 0.58642,-1.9309c-0.14452,-6.00281 0.28105,-5.21359 0.19641,-6.10159c-0.4949,-1.67371 0.49244,-1.55938 0.69116,-1.55938c0.2016,0 2.2639,-0.28792 2.28442,0.10033c0.02115,0.4001 -0.05025,0.23315 -1.70289,1.45376c-0.098,2.1256 -0.08789,-0.00302 -0.03083,3.99931c0.05556,3.89705 -1.28102,4.03847 -2.0247,4.03847z" fill="#ffc380" stroke-linecap="butt"/><path d="M243.74233,176.04274c0,0 -0.16796,0.48481 -0.29668,0.63999c-0.11566,0.13942 -0.44065,0.2489 -0.44065,0.2489" fill="none" stroke-linecap="round"/></g><g stroke="#000000" stroke-width="0.3"><path d="M237.21245,185.42964c-0.74368,0 -2.08026,-0.14142 -2.0247,-4.03847c0.05706,-4.00233 0.06717,-1.87371 -0.03083,-3.99931c-1.65264,-1.22061 -1.72404,-1.05366 -1.70289,-1.45376c0.02052,-0.38825 2.08282,-0.10033 2.28442,-0.10033c0.19872,0 1.18606,-0.11433 0.69116,1.55938c-0.08464,0.888 0.34093,0.09878 0.19641,6.10159c-0.05366,2.22901 1.33011,1.9309 0.58642,1.9309z" fill="#ffc380" stroke-linecap="butt"/><path d="M235.72516,176.62393c0,0 -0.32499,-0.10948 -0.44065,-0.2489c-0.12872,-0.15518 -0.29668,-0.63999 -0.29668,-0.63999" fill="none" stroke-linecap="round"/></g></g></g></svg>