<svg version="1.1" xmlns="http://www.w3.org/2000/svg" xmlns:xlink="http://www.w3.org/1999/xlink" width="25.42723" height="30.40423" viewBox="0,0,25.42723,30.40423"><g transform="translate(-228.94191,-173.56312)"><g data-paper-data="{&quot;isPaintingLayer&quot;:true}" fill-rule="nonzero" stroke-linejoin="miter" stroke-miterlimit="10" stroke-dasharray="" stroke-dashoffset="0" style="mix-blend-mode: normal"><g stroke="#000000" stroke-width="0.3" stroke-linecap="butt"><path d="M242.78757,187.90979l-1.5361,-2.07039l-0.60108,-1.60288l3.33934,2.5379l2.27059,-1.39431l-0.11079,1.22976l-2.31374,1.41192z" fill="#418040"/><path d="M242.42516,188.99092c-0.42094,0 -0.63372,-1.84179 -1.68238,-1.77925c-1.73933,0.10373 -4.90256,2.49093 -4.90256,1.8925c0,-0.44139 1.71494,-2.05424 1.71494,-2.05424c0,0 -0.73813,-3.251 -0.13399,-3.251c1.11911,0 3.02632,-0.32765 3.02632,0.63158c0,0.3803 2.65309,4.56041 1.97767,4.56041z" data-paper-data="{&quot;index&quot;:null}" fill="#61bf60"/><path d="M233.90492,186.17333l3.40613,-2.20397l0.13357,1.5361l-1.66967,2.27075l-3.81707,0.20115l-0.22966,-1.63573z" fill="#418040"/></g><g data-paper-data="{&quot;index&quot;:null}"><path d="M232.91588,189.15865c-0.48773,0.15265 -2.42107,-2.85359 -1.57086,-3.31914c0.9744,-0.53356 1.00665,-0.6455 1.35663,-0.79595c0.38705,-0.16639 0.91506,-0.26491 1.75316,-0.56394c0.19356,-0.06905 0.68336,0.49252 0.40774,0.99857c-0.11622,0.21339 -0.70852,0.44238 -0.9675,0.5689c-0.32724,0.15986 0.67155,-0.49711 1.25353,-0.10635c0.25396,0.17051 0.08071,0.75046 -0.95283,1.20014c-0.43577,0.18961 0.58957,-0.11404 1.17664,-0.3651c0.52918,-0.2263 0.65035,1.14352 0.6153,1.16019c-0.83778,0.39852 -0.61586,0.31367 -1.39747,0.64968c-0.7816,0.336 -0.59947,0.2366 -1.67432,0.57301z" data-paper-data="{&quot;index&quot;:null}" fill="#ffc380" stroke="#000000" stroke-width="0.3" stroke-linecap="butt"/><path d="M231.67411,185.71696l-0.33441,-0.72299l2.59859,-1.19369l0.33441,0.72299z" fill="#808080" stroke="#000000" stroke-width="0.3" stroke-linecap="butt"/><path d="M230.95728,185.14608l-0.26799,-0.5211l3.53723,-1.53954l0.26799,0.5211z" fill="#bfbfbf" stroke="#000000" stroke-width="0.3" stroke-linecap="butt"/><path d="M229.09192,181.86576c0,-1.10457 1.824,-1.92857 2.92857,-1.92857c1.10457,0 3.20309,2.5077 2.21429,3c-1.21429,0.60456 -2.24508,1.0416 -3.35715,1.64285c-1.17896,0.63741 -1.78572,-1.60971 -1.78572,-2.71428z" fill="#808080" stroke="#000000" stroke-width="0.3" stroke-linecap="butt"/><path d="M232.66332,182.68717c0,-1.20319 -1.62803,-3.17857 -0.32143,-2.60714c1.06623,0.4663 2.70332,2.19091 1.67857,2.82143c-1.14285,0.70319 -2.36169,1.13913 -3.39285,1.67857c-1.09231,0.57143 2.03572,-0.68967 2.03572,-1.89286z" fill="#404040" stroke="none" stroke-width="0" stroke-linecap="butt"/><path d="M229.44934,183.51777c0,0 1.09983,-0.8985 1.76574,-1.24724c0.73953,-0.3873 2.47378,-0.97301 2.47378,-0.97301" data-paper-data="{&quot;index&quot;:null}" fill="none" stroke="#000000" stroke-width="0.2" stroke-linecap="round"/><path d="M229.98851,184.34455c0,0 1.09983,-0.8985 1.76574,-1.24724c0.73953,-0.3873 2.47378,-0.97301 2.47378,-0.97301" data-paper-data="{&quot;index&quot;:null}" fill="none" stroke="#000000" stroke-width="0.2" stroke-linecap="round"/><path d="M229.09254,182.73508c0,0 1.09983,-0.8985 1.76574,-1.24724c0.73953,-0.3873 2.47378,-0.97301 2.47378,-0.97301" data-paper-data="{&quot;index&quot;:null}" fill="none" stroke="#000000" stroke-width="0.2" stroke-linecap="round"/><path d="M229.0424,181.85079c0,0 0.94282,-0.81628 1.52388,-1.12058c0.64531,-0.33795 2.17549,-0.81678 2.17549,-0.81678" data-paper-data="{&quot;index&quot;:null}" fill="none" stroke="#000000" stroke-width="0.2" stroke-linecap="round"/><path d="M231.84167,179.79622c0,0 0.75802,0.79064 1.03159,1.29089c0.30382,0.55556 0.71015,1.89397 0.71015,1.89397" data-paper-data="{&quot;index&quot;:null}" fill="none" stroke="#000000" stroke-width="0.2" stroke-linecap="round"/><path d="M231.01029,180.32366c0,0 0.75802,0.79064 1.03159,1.29089c0.30382,0.55556 0.71015,1.89397 0.71015,1.89397" data-paper-data="{&quot;index&quot;:null}" fill="none" stroke="#000000" stroke-width="0.2" stroke-linecap="round"/><path d="M230.94871,184.56614c0,0 -0.86872,-1.09625 -1.15233,-1.66239c-0.25539,-0.50978 -0.47355,-1.58314 -0.47355,-1.58314" data-paper-data="{&quot;index&quot;:null}" fill="none" stroke="#000000" stroke-width="0.2" stroke-linecap="round"/><path d="M231.85574,184.18314c0,0 -0.86872,-1.09626 -1.15233,-1.6624c-0.25539,-0.50978 -0.47355,-1.58313 -0.47355,-1.58313" data-paper-data="{&quot;index&quot;:null}" fill="none" stroke="#000000" stroke-width="0.2" stroke-linecap="round"/></g><path d="M234.95005,192.14879l-0.8,-1.5l2,-1.5c0,0 3.56465,-1.7667 4.59758,-1.75004c1.03374,0.01667 1.60242,1.85004 1.60242,1.85004l1.84854,1.77826l-0.99525,0.12706l-0.93511,0.58559l-2.23925,2.91523l1.13003,-2.79183l-1.04022,-1.75587l0.83455,1.8517l-1.21243,2.2179l-3.09831,-2.19979c0,0 -2.23653,1.73104 -2.89375,1.69193c-1.30676,-0.07779 1.2012,-1.52017 1.2012,-1.52017z" fill="#e4af72" stroke="#000000" stroke-width="0.3" stroke-linecap="butt"/><g><path d="M243.86715,182.72419c0,0.70168 -1.70646,1.27051 -3.8115,1.27051c-2.10504,0 -3.81151,-0.56883 -3.81151,-1.27051c0,-0.40408 -0.81006,-3.39093 0.47769,-4.57026c0.94842,-0.86857 4.22658,-0.27139 5.11939,-0.27139c0.63107,0 -0.76529,4.17168 -0.2411,4.26217c1.22433,0.21138 2.26704,0.08815 2.26704,0.57947z" data-paper-data="{&quot;index&quot;:null}" fill="#ffc380" stroke="#000000" stroke-width="0.3" stroke-linecap="butt"/><path d="M241.92123,177.53578c0,1.13364 -1.69747,0.15789 -2.94738,0.15789c-1.24991,0 -3,2.5547 -3,1.42105c0,-0.04823 -1.39804,-0.23222 -1.93388,-0.94448c-0.50054,-0.66535 -0.14143,-1.852 -0.13732,-2.16033c0.00765,-0.57354 2.10682,0.60836 2.05611,0.10106c-0.1282,-1.2824 -0.4281,-1.92813 0.02891,-2.34969c0.49839,-0.45972 2.63987,2.53409 2.99915,2.09082c0.79875,-0.98547 0.47333,-1.79001 1.03966,-1.79001c1.24991,0 1.89474,2.34004 1.89474,3.47368z" data-paper-data="{&quot;index&quot;:null}" fill="#ff7c00" stroke="#000000" stroke-width="0.3" stroke-linecap="butt"/><path d="M234.57432,182.359l-0.13334,-4.16666l1.56667,1.33334l-0.1,1.9z" data-paper-data="{&quot;index&quot;:null}" fill="#ffc380" stroke="#000000" stroke-width="0.3" stroke-linecap="butt"/><path d="M235.07129,182.059l-0.02044,-2.32198l0.89013,0.73771l-0.03199,0.74122z" data-paper-data="{&quot;index&quot;:null}" fill="#bf9360" stroke="#000000" stroke-width="0.2" stroke-linecap="butt"/><path d="M234.50015,177.69367c0,1.1627 2.97574,1.42105 1.8421,1.42105c-1.13363,0 -2.36842,-0.62677 -2.36842,-1.78947c0,-1.1627 -0.10174,-1.6927 0.94737,-1.26316c1.02838,0.42105 -0.42105,0.46887 -0.42105,1.63158z" data-paper-data="{&quot;index&quot;:null}" fill="#bf5c00" stroke="none" stroke-width="0" stroke-linecap="butt"/><path d="M236.60544,175.19367c0,1.14817 -0.68935,0.57035 -0.28947,1.18421c0.08355,0.12827 -0.23685,0.38501 -0.23685,-0.76316c0,-1.14817 -0.52306,-1.18871 -0.18421,-1.71052c0.10374,-0.15975 0.71053,0.1413 0.71053,1.28947z" data-paper-data="{&quot;index&quot;:null}" fill="#bf5c00" stroke="none" stroke-width="0" stroke-linecap="butt"/><path d="M240.05279,174.79894c-0.73758,1.0626 -0.81579,2.30882 -0.81579,1.13157c0,-1.17724 0.111,-0.26637 0.5,-1.5c0.08299,-0.26316 1.08298,-0.73684 0.31579,0.36843z" data-paper-data="{&quot;index&quot;:null}" fill="#bf5c00" stroke="none" stroke-width="0" stroke-linecap="butt"/><path d="M241.02647,176.58841c0,0.61669 -0.66079,0.78263 -1.25861,0.66172c-0.50112,-0.10135 -0.8954,-0.45119 -1.4256,-0.45119c-1.1627,0 -1.89474,1.92311 -1.89474,0.78947c0,-1.13363 0.6794,-1.10526 1.84211,-1.10526c0.43324,0 0.76572,0.3309 1.21049,0.21039c0.74886,-0.2029 1.52635,-0.81635 1.52635,-0.10513z" data-paper-data="{&quot;index&quot;:null}" fill="#ff9c40" stroke="none" stroke-width="0" stroke-linecap="butt"/><path d="M240.55276,180.00001c0,0.62495 -0.24742,1.13158 -0.55263,1.13158c-0.30521,0 -0.65789,-1.07895 -0.65789,-1.07895l0.65789,-1.18421c0,0 0.55263,0.50663 0.55263,1.13158z" data-paper-data="{&quot;index&quot;:null}" fill="#ffffff" stroke="#000000" stroke-width="0.3" stroke-linecap="butt"/><path d="M239.34228,179.85156c0,0 0.57583,-1.08467 0.90603,-1.29833c0.20991,-0.13582 0.88344,0.14044 0.88344,0.14044" data-paper-data="{&quot;index&quot;:null}" fill="none" stroke="#000000" stroke-width="0.3" stroke-linecap="round"/><path d="M238.71069,180.03577c0,0 -0.24742,1.44737 -0.55263,1.44737c-0.30521,0 -0.55263,-0.64801 -0.55263,-1.44737c0,-0.79936 0.55263,-1.44737 0.55263,-1.44737z" data-paper-data="{&quot;index&quot;:null}" fill="#ffffff" stroke="#000000" stroke-width="0.3" stroke-linecap="butt"/><path d="M236.07911,177.64104c0,0 1.10758,-0.25389 1.53651,0.1503c0.47802,0.45044 1.20033,2.42865 1.20033,2.42865" data-paper-data="{&quot;index&quot;:null}" fill="none" stroke="#000000" stroke-width="0.3" stroke-linecap="round"/><path d="M237.71067,182.16735c0,0 0.72006,0.39895 1.30192,0.57275c0.73356,0.21911 2.75071,0.63777 2.75071,0.63777c0,0 -0.51341,-0.26967 -1.47183,-0.34076c-0.51071,-0.03788 -1.41158,0.20675 -1.84396,0.0776c-1.2438,-0.37152 -0.73684,-0.94737 -0.73684,-0.94737z" data-paper-data="{&quot;index&quot;:null}" fill="#ffffff" stroke="#000000" stroke-width="0.3" stroke-linecap="round"/></g><g stroke="#000000" stroke-width="0.3" stroke-linecap="butt"><g fill="#404040"><path d="M246.23625,185.19175c0,0 1.67524,-0.71843 1.55375,-1.0501c-0.13708,-0.37423 -0.43764,-1.1947 -0.43764,-1.1947l1.11617,-0.44651l0.71937,2.15794l-2.40701,1.1724z"/><path d="M243.78062,184.44771l-1.41393,-3.53453l7.50313,-3.0015l1.41393,3.53453z"/><path d="M245.27064,187.87187l-1.33676,-3.34162l1.26056,-0.50427c0,0 1.58358,1.66625 2.82497,2.38661c0.74144,0.43025 -2.74877,1.45925 -2.74877,1.45925z"/><path d="M244.47512,183.66636l-0.37209,-0.93014l5.58084,-2.23252l0.37209,0.93014z"/><path d="M243.6324,181.76386l-0.19845,-0.49608l5.58084,-2.23252l0.19845,0.49608z"/><path d="M248.68671,178.31303c0.57123,-0.22851 1.22865,0.07208 1.4684,0.67141c0.23975,0.59932 -0.02897,1.27041 -0.6002,1.49892c-0.57122,0.22851 -1.22864,-0.07209 -1.46839,-0.67141c-0.23975,-0.59932 0.02896,-1.2704 0.60019,-1.49891z"/><path d="M251.00103,180.1926l-0.71937,-1.79827l1.3332,-0.53332l0.71937,1.79827z"/><path d="M252.44033,179.67905l-0.74417,-1.86027l1.25877,-1.07901l1.19068,2.97645z"/></g><path d="M245.06207,188.01426c-0.48773,0.15265 -2.42107,-2.85359 -1.57086,-3.31914c0.9744,-0.53356 1.00665,-0.6455 1.35663,-0.79595c0.38705,-0.16639 0.91506,-0.26491 1.75316,-0.56394c0.19356,-0.06905 0.68336,0.49252 0.40774,0.99857c-0.11622,0.21339 -0.70852,0.44238 -0.9675,0.5689c-0.32724,0.15986 0.67155,-0.49711 1.25353,-0.10635c0.25396,0.17051 0.08071,0.75046 -0.95283,1.20014c-0.43577,0.18961 0.58957,-0.11404 1.17664,-0.3651c0.52918,-0.2263 0.65035,1.14352 0.6153,1.16019c-0.83778,0.39852 -0.61586,0.31367 -1.39747,0.64968c-0.7816,0.336 -0.59947,0.2366 -1.67432,0.57301z" data-paper-data="{&quot;index&quot;:null}" fill="#ffc380"/></g><g stroke-linecap="butt"><path d="M240.68018,193.848l1.5127,-2.28105l1.34813,-0.13131c0,0 3.19662,-0.46883 3.29391,-0.47343c0.28388,-0.01339 2.40353,0.15605 2.38582,1.28025c-0.01717,1.08969 -1.09638,1.8561 -1.89786,2.52138c-0.78311,0.65004 -2.56363,3.01552 -4.0549,3.05801c-1.78828,0.05095 -3.24805,-2.29716 -3.24805,-2.29716z" fill="#ff0000" stroke="#000000" stroke-width="0.3"/><path d="M247.18762,195.01289c-1.11831,0.92827 -5.53649,2.64174 -6.22342,1.81419c-0.68692,-0.82755 -1.34198,-1.89572 -0.22366,-2.82399c0.41753,-0.34658 1.07766,-0.15455 1.87929,-0.33416c1.34546,-0.30147 2.94093,-0.78077 3.37138,-0.26218c0.68692,0.82755 2.31472,0.67787 1.19641,1.60614z" fill="#bf0000" stroke="none" stroke-width="0"/><path d="M246.69164,191.04696c0.28533,-0.23684 -0.79938,0.55009 -0.12174,1.36646c0.67764,0.81637 1.30668,1.1384 1.02135,1.37525c-0.28534,0.23685 -1.45031,-0.11913 -2.12795,-0.9355c-0.67763,-0.81636 0.943,-1.56936 1.22834,-1.80621z" fill="#ff7b00" stroke="#000000" stroke-width="0.3"/><path d="M242.97938,193.19812c-0.67764,-0.81637 0.943,-1.56938 1.22833,-1.80622c0.28533,-0.23684 -0.79937,0.5501 -0.12173,1.36647c0.67764,0.81637 1.30667,1.1384 1.02134,1.37524c-0.28533,0.23684 -1.45031,-0.11913 -2.12795,-0.9355z" fill="#ff7b00" stroke="#000000" stroke-width="0.3"/><path d="M249.40746,191.8365c0.25063,0.30194 1.3057,1.83113 -1.7909,4.3936c-3.05062,2.52443 -6.00094,1.48927 -6.23903,1.17734c-0.78161,-1.02402 2.38297,0.21378 5.31076,-2.04844c3.26054,-2.51932 2.46854,-3.82446 2.71917,-3.52251z" fill="#fffdc0" stroke="#000000" stroke-width="0.3"/><path d="M241.42049,194.30862c0.4887,-0.40566 1.20529,-0.34849 1.60054,0.12768c0.39525,0.47617 0.3195,1.19103 -0.16921,1.59669c-0.4887,0.40566 -1.20529,0.34849 -1.60054,-0.12768c-0.39525,-0.47617 -0.3195,-1.19103 0.16921,-1.59669z" fill="#ff7b00" stroke="#000000" stroke-width="0.3"/></g><g stroke-linecap="butt"><path d="M240.02567,198.19949c0,0 1.55876,1.41997 1.00195,1.82209c-0.74138,0.53541 -0.2471,2.27308 -4.87032,2.2478c-2.98696,-0.01633 -2.08064,-4.82452 -2.10012,-6.50325c-0.02039,-1.75729 0.00949,-2.26458 0.00949,-2.26458l2.4564,-1.30437l2.50676,1.62017c0,0 0.15634,0.80898 0.01011,1.543c-0.0461,0.23141 0.98573,2.83914 0.98573,2.83914z" fill="#ff0000" stroke="#000000" stroke-width="0.3"/><path d="M240.95617,199.86997c-0.50944,0.79945 -0.5184,1.27724 -1.49874,1.74232c-0.53888,0.25565 -1.25618,0.56993 -2.92231,0.57346c-1.18079,0.00251 -1.13129,-0.09789 -1.45858,-0.28902c-0.57083,-0.33336 -0.89066,-0.94273 -0.85721,-1.76361c-0.02804,-1.60409 1.71398,-1.52632 2.78948,-1.52632c1.0755,0 4.55658,0.30713 3.94736,1.26316z" fill="#bf0000" stroke="none" stroke-width="0"/><path d="M236.80352,197.17025c-1.13363,0 -1.89473,0.4588 -1.89473,-0.07895c0,-0.53775 0.81373,-0.71052 1.94736,-0.71052c1.13363,0 2,0.33067 2,0.86841c0,0.53775 -0.919,-0.07895 -2.05263,-0.07895z" data-paper-data="{&quot;index&quot;:null}" fill="#ff7b00" stroke="#000000" stroke-width="0.3"/><path d="M236.75091,195.32813c-1.13363,0 -1.89473,0.45881 -1.89473,-0.07894c0,-0.53775 0.81373,-0.71053 1.94736,-0.71053c1.13363,0 2,0.33067 2,0.86841c0,0.53775 -0.919,-0.07895 -2.05263,-0.07895z" data-paper-data="{&quot;index&quot;:null}" fill="#ff7c00" stroke="#000000" stroke-width="0.3"/><path d="M241.27197,199.73839c0,0.39241 -0.32275,4.08503 -4.34211,4.07895c-3.95967,-0.00599 -3.14761,-3.31844 -3.13158,-3.71053c0.05263,-1.28715 -0.724,2.10754 2.97369,2.23684c4.11793,0.144 4.5,-2.99768 4.5,-2.60527z" fill="#fffdc0" stroke="#000000" stroke-width="0.3"/><path d="M237.06144,203.50155c0,0.21293 -0.83102,0.26316 -1.76316,-0.15789c-0.54611,-0.24668 -0.76031,-0.33884 -0.93729,-0.5632c-0.14494,-0.18375 -0.40482,-0.38557 -0.40482,-0.64733c0,-0.58135 -0.0604,-2.30041 -0.07895,-1.21053c-0.00791,0.46517 0.24997,1.33086 1.10584,1.83333c0.79035,0.464 2.07837,0.46652 2.07837,0.74562z" fill="#bfbfbf" stroke="none" stroke-width="0"/></g></g></g></svg>