<svg version="1.1" xmlns="http://www.w3.org/2000/svg" xmlns:xlink="http://www.w3.org/1999/xlink" width="24.31791" height="8.28191" viewBox="0,0,24.31791,8.28191"><g transform="translate(-241.23813,-184.89592)"><g data-paper-data="{&quot;isPaintingLayer&quot;:true}" fill-rule="nonzero" stroke="#000000" stroke-width="0.3" stroke-linecap="butt" stroke-linejoin="miter" stroke-miterlimit="10" stroke-dasharray="" stroke-dashoffset="0" style="mix-blend-mode: normal"><path d="M256.33639,191.49738l-8.32672,-2.35388c0,0 -4.06277,-0.12605 -5.73172,-1.13726c-1.15249,-0.6983 -0.85545,-2.91818 -0.85545,-2.91818l15.40481,4.42325z" fill="#404040"/><g><path d="M257.97872,191.83111c-1.85873,-0.11788 -1.94732,-0.39751 -1.83096,-1.11416c0.17256,-1.06279 0.42098,-1.13667 1.8082,-1.27998c1.16836,-0.1207 -0.91834,0.15911 -1.11629,1.26356c-0.18995,1.05982 2.31128,1.20493 1.13905,1.13059z" fill="#fff700"/><path d="M258.61731,192.08476c-1.85873,-0.11788 -1.94733,-0.39752 -1.83097,-1.11416c0.17256,-1.06279 0.42098,-1.13667 1.8082,-1.27998c1.16836,-0.1207 -0.91834,0.1591 -1.11629,1.26355c-0.18995,1.05982 2.31129,1.20493 1.13906,1.13059z" fill="#fff700"/><g><g><path d="M259.71286,190.49466c-0.86406,-0.05006 -1.46562,-0.43899 -1.34364,-0.8687c0.12199,-0.42972 0.92136,-0.73748 1.7854,-0.68741c0.37193,0.02155 1.26923,-0.00916 1.50712,0.11418c0.31477,0.16321 -0.599,0.38165 -0.66849,0.6264c-0.06752,0.23786 0.72014,0.74707 0.34142,0.87019c-0.30544,0.09929 -1.23607,-0.03231 -1.62182,-0.05466z" fill="#e480ff"/><path d="M262.71208,189.82577c-1.27907,-0.13519 -1.48622,0.81425 -1.56088,0.4192c-0.17383,-0.91971 0.70142,-1.12 1.98049,-0.98481c1.27907,0.1352 2.00293,0.86873 2.00293,0.86873c0,0 -1.14346,-0.16794 -2.42253,-0.30313z" fill="#ff0000"/></g><g><path d="M259.36894,191.31029c-0.86406,-0.05006 -1.46562,-0.43899 -1.34363,-0.8687c0.12199,-0.42972 0.92134,-0.73748 1.7854,-0.68742c0.37193,0.02155 1.26923,-0.00915 1.50713,0.11419c0.31477,0.16321 -0.599,0.38165 -0.66848,0.62639c-0.06752,0.23786 0.72014,0.74707 0.34142,0.87019c-0.30544,0.09929 -1.23607,-0.03231 -1.62183,-0.05466z" fill="#e480ff"/><path d="M260.80726,191.06059c-0.17383,-0.91971 0.70142,-1.11999 1.98049,-0.9848c1.27907,0.13519 2.00293,0.86873 2.00293,0.86873c0,0 -1.14346,-0.16793 -2.42252,-0.30312c-1.27908,-0.13519 -1.48623,0.81425 -1.56089,0.41919z" fill="#ff0000"/></g><g><path d="M258.93107,192.16949c-0.86406,-0.05006 -1.46562,-0.43898 -1.34362,-0.86869c0.12199,-0.42972 0.92134,-0.73748 1.7854,-0.68742c0.37193,0.02155 1.26923,-0.00916 1.50712,0.11418c0.31477,0.16321 -0.599,0.38165 -0.66848,0.62639c-0.06752,0.23786 0.72014,0.74708 0.34143,0.8702c-0.30544,0.09929 -1.23607,-0.03232 -1.62184,-0.05467z" fill="#e480ff"/><path d="M261.9303,191.5006c-1.27907,-0.13519 -1.48623,0.81426 -1.56089,0.4192c-0.17384,-0.91971 0.70141,-1.11999 1.98048,-0.9848c1.27907,0.13519 2.00293,0.86873 2.00293,0.86873c0,0 -1.14346,-0.16794 -2.42253,-0.30313z" fill="#ff0000"/></g><g><path d="M258.48519,192.98053c-0.86406,-0.05006 -1.46562,-0.43898 -1.34362,-0.86869c0.12199,-0.42972 0.92134,-0.73748 1.7854,-0.68742c0.37193,0.02155 1.26923,-0.00916 1.50712,0.11418c0.31477,0.16321 -0.59899,0.38165 -0.66848,0.62639c-0.06752,0.23786 0.72014,0.74707 0.34142,0.87019c-0.30544,0.09929 -1.23607,-0.03231 -1.62183,-0.05466z" fill="#e480ff"/><path d="M261.48442,192.31165c-1.27907,-0.13519 -1.48622,0.81425 -1.56088,0.4192c-0.17384,-0.9197 0.70141,-1.11999 1.98048,-0.9848c1.27908,0.13519 2.00294,0.86873 2.00294,0.86873c0,0 -1.14346,-0.16794 -2.42253,-0.30313z" fill="#ff0000"/></g></g></g></g></g></svg>