<svg version="1.1" xmlns="http://www.w3.org/2000/svg" xmlns:xlink="http://www.w3.org/1999/xlink" width="13.87517" height="28.03763" viewBox="0,0,13.87517,28.03763"><g transform="translate(-231.42472,-174.42775)"><g data-paper-data="{&quot;isPaintingLayer&quot;:true}" fill-rule="nonzero" stroke-linejoin="miter" stroke-miterlimit="10" stroke-dasharray="" stroke-dashoffset="0" style="mix-blend-mode: normal"><g><path d="M243.53441,182.55155c-0.08393,0.69711 -1.24232,0.37004 -1.57163,0.95031c-0.45051,0.79379 0.69156,2.83492 0.09922,3.51757c-0.36948,0.42583 -0.12236,-2.1182 -0.95565,-2.1316c-0.36896,-0.00593 -0.91596,2.13998 -1.46379,2.55138c-0.94536,0.70995 -1.94689,-0.14681 -2.42746,-0.20465c-0.38049,-0.04582 -1.81976,0.14125 -2.43216,-0.61595c-0.56631,-0.70015 -0.30467,-2.34606 -0.71238,-2.44913c-0.78766,-0.19913 -0.87753,2.16529 -1.16009,1.69083c-0.40524,-0.68049 0.84938,-2.26459 0.60431,-3.11213c-0.18763,-0.64893 -1.41199,-0.8567 -1.32699,-1.56267c0.02141,-0.17775 0.03844,-0.98258 0.34698,-1.45529c0.33039,-0.50617 0.95149,-0.67894 0.9042,-0.78207c-0.19024,-0.41488 -2.28673,0.56926 -1.78769,0.03571c1.1924,-1.2749 4.92136,-2.71425 6.85583,-2.48137c1.5281,0.18396 2.11217,1.84121 3.02037,2.89328c0.09895,0.11461 0.35523,0.41442 0.5823,0.38152c0.46978,-0.06806 1.01269,-0.59227 1.16747,-0.34318c0.11812,0.1901 -0.40192,0.8045 -0.91244,1.06727c-0.42818,0.2204 -0.85018,0.0796 -0.87835,0.34071c-0.03404,0.31543 0.75748,0.09064 1.21152,0.32632c0.58763,0.30501 0.87567,1.05712 0.83643,1.38312z" fill="#800000" stroke="#000000" stroke-width="0.3" stroke-linecap="butt"/><path d="M243.34135,182.04213c0.10613,0.6936 -1.49467,1.514 -3.57548,1.83239c-2.08082,0.31839 -3.85369,0.01421 -3.95983,-0.6794c-0.06112,-0.39943 -1.31363,-3.2294 -0.21906,-4.58993c0.80614,-1.00202 4.1369,-0.90754 5.01945,-1.04257c0.62381,-0.09545 -0.12551,4.23944 0.40633,4.2496c1.24222,0.02376 2.25429,-0.25576 2.3286,0.22991z" fill="#ffc380" stroke="#000000" stroke-width="0.3" stroke-linecap="butt"/><path d="M240.63067,178.08719c0.0702,0.45874 -0.03896,2.02328 -0.03896,2.02328c0,0 -1.22139,-1.156 -1.39002,-1.1302c-0.28251,0.04323 -1.24724,1.74127 -1.24724,1.74127c0,0 -0.1353,-1.1744 -0.18843,-1.5216c-0.09547,-0.62392 0.90832,-1.29514 1.54525,-1.39259c0.63692,-0.09745 1.22394,-0.34408 1.31941,0.27985z" fill="#bf9360" stroke="none" stroke-width="0" stroke-linecap="butt"/><path d="M238.92971,174.85732c0.00611,0.03995 -0.34121,0.08977 -0.38543,0.62465c-0.05247,0.63466 0.10078,1.33633 0.35151,1.11999c0.27192,-0.23461 1.21705,-1.11475 1.56777,-1.16341c0.83625,-0.11599 0.9489,0.67099 1.17899,0.81724c0.40395,0.25678 0.262,1.96863 -0.32864,2.5458c-0.36499,0.35667 -0.54678,-1.39279 -0.62855,-1.29652c-0.12397,0.14597 -0.12691,0.99049 -0.79759,1.48886c-0.161,0.11963 -0.13667,-0.30668 -0.34819,-0.65299c-0.18777,-0.30745 -0.60977,-0.53423 -0.7851,-0.52479c-0.13045,0.00703 0.00603,0.28253 0.00447,0.60898c-0.00139,0.29234 -0.14001,0.63913 -0.24618,0.64818c-0.30091,0.02562 -0.35911,-0.45892 -0.8638,-0.68717c-0.54005,-0.24426 -1.45558,0.18975 -1.54439,0.20334c-0.37748,0.05776 -1.22181,1.23706 -1.22181,1.23706c0,0 -0.29151,-1.8396 -0.40808,-2.60146c-0.17303,-1.13086 0.33771,-1.23192 1.49457,-1.40894c0.52902,-0.08095 1.49016,0.75032 1.93121,0.80964c0.23589,0.03172 0.10797,-0.72569 0.25469,-1.30013c0.17885,-0.70021 0.72298,-0.80546 0.77456,-0.46832z" fill="#800000" stroke="#000000" stroke-width="0.3" stroke-linecap="butt"/><path d="M234.76554,178.16568l-0.14405,-0.94142c0,0 0.96225,0.07509 1.63282,-0.04166c0.20159,-0.03511 0.92358,-0.56057 0.92358,-0.56057l0.81934,0.31989l0.77945,-0.30213c0,0 0.6579,-0.00238 1.03932,-0.08845c0.48975,-0.11052 1.65629,-0.51985 1.65629,-0.51985c0,0 0.18253,0.3652 0.20184,0.546c0.01767,0.16542 0.00368,0.48236 0.00368,0.48236c0,0 -1.23308,0.32586 -1.7253,0.37869c-0.37517,0.04028 -1.06755,-0.07465 -1.06755,-0.07465l-0.7158,0.37844l-0.72113,-0.32087c0,0 -0.70472,0.67015 -0.95355,0.71002c-0.63574,0.10187 -1.72893,0.0342 -1.72893,0.0342z" fill="#bf2e00" stroke="none" stroke-width="0" stroke-linecap="butt"/><path d="M238.18967,179.13513c0.07019,0.45873 -0.16525,1.51269 -0.16525,1.51269c0,0 -1.14165,-1.26455 -1.31028,-1.23876c-0.28251,0.04323 -1.28712,1.79555 -1.28712,1.79555c0,0 -0.1065,-0.98613 -0.15962,-1.33332c-0.09547,-0.62392 0.90832,-1.29514 1.54525,-1.39259c0.63692,-0.09745 1.28156,0.03249 1.37702,0.65641z" fill="#bf9360" stroke="none" stroke-width="0" stroke-linecap="butt"/><path d="M237.90648,180.11784c0.09348,0.61091 -0.25223,1.17066 -0.77217,1.25023c-0.51992,0.07955 -1.0172,-0.3512 -1.11068,-0.96212c-0.09348,-0.61091 0.35693,-0.8013 0.87686,-0.88087c0.51992,-0.07955 0.91252,-0.01816 1.00599,0.59276z" fill="#000000" stroke="none" stroke-width="0" stroke-linecap="butt"/><path d="M240.04821,179.79011c0.09348,0.61091 -0.25223,1.17066 -0.77217,1.25023c-0.51992,0.07955 -1.0172,-0.3512 -1.11068,-0.96212c-0.09348,-0.61091 0.31706,-0.74702 0.83699,-0.82658c0.51992,-0.07955 0.95238,-0.07245 1.04586,0.53848z" fill="#000000" stroke="none" stroke-width="0" stroke-linecap="butt"/><path d="M238.095,179.77585c0,0 1.60636,-0.93208 2.29929,-0.4" fill="none" stroke="#000000" stroke-width="0.3" stroke-linecap="round"/><path d="M239.37416,178.37581c0.53439,0.57293 -0.39535,0.87945 -0.39535,0.87945" fill="none" stroke="#000000" stroke-width="0.2" stroke-linecap="round"/><path d="M238.76221,178.46945c0.53439,0.57293 -0.39535,0.87945 -0.39535,0.87945" fill="none" stroke="#000000" stroke-width="0.2" stroke-linecap="round"/><path d="M235.94078,179.86461c0.50213,-0.71493 2.3137,-0.30585 2.3137,-0.30585" data-paper-data="{&quot;index&quot;:null}" fill="none" stroke="#000000" stroke-width="0.3" stroke-linecap="round"/><path d="M236.96582,179.32239c0,0 -0.97884,-0.01448 -0.64023,-0.72098" data-paper-data="{&quot;index&quot;:null}" fill="none" stroke="#000000" stroke-width="0.2" stroke-linecap="round"/><path d="M237.59215,179.32289c0,0 -0.97884,-0.01448 -0.64023,-0.72098" data-paper-data="{&quot;index&quot;:null}" fill="none" stroke="#000000" stroke-width="0.2" stroke-linecap="round"/><path d="M238.55517,182.85885c-0.45132,0.06906 -1.0016,-0.63968 -1.0016,-0.63968l1.74163,-0.26649c0,0 -0.2887,0.8371 -0.74002,0.90616z" fill="#ff8080" stroke="#000000" stroke-width="0.2" stroke-linecap="butt"/><path d="M234.44773,179.40246l0.48318,-0.47858" fill="none" stroke="#800000" stroke-width="0.7" stroke-linecap="round"/></g><g stroke="#000000" stroke-width="0.3" stroke-linecap="butt"><path d="M238.44646,190.1076c0.65919,0.06862 0.42408,-0.17045 0.70115,0.14675c0.17829,0.20412 0.4933,0.68873 0.4933,1.5477c0,1.45989 -0.39311,3.85509 -0.8605,5.28602c-0.23496,0.71936 0.38039,2.03209 -0.76632,2.01228c-1.07333,0.06803 -0.09521,-1.62121 -0.1502,-2.26141c-0.06296,-0.73299 -0.38965,-1.36587 -0.38965,-2.53689c0,-2.1938 0.43855,-4.25 0.97223,-4.19445z" data-paper-data="{&quot;index&quot;:null}" fill="#ffc380"/><path d="M237.88408,199.31537c1.05654,0 0.95652,-2.90146 0.95652,-1.76087c0,0.49435 0.39904,1.60656 0.27281,2.4583c-0.16502,1.11345 -0.80168,2.10982 -1.05542,2.08518c-0.16318,-0.01584 -1.04196,-0.88555 -1.22293,-2.00612c-0.1694,-1.04889 0.83163,-2.29026 0.83163,-2.84171c0,-1.14059 -0.83915,2.06522 0.21739,2.06522z" data-paper-data="{&quot;index&quot;:null}" fill="#ff0000"/></g><g stroke="#000000" stroke-width="0.3"><path d="M242.62062,187.82408c0,4.00274 -0.09785,1.87371 0.04491,3.99931c2.4074,1.22061 2.51141,1.05366 2.4806,1.45376c-0.0299,0.38825 -3.03406,0.10033 -3.32773,0.10033c-0.28948,0 -1.72774,0.11433 -1.00682,-1.55938c0.12329,-0.888 -0.08164,-0.13291 0.12888,-6.13572c0.07817,-2.22901 -2.35256,-1.89677 -1.26923,-1.89677c1.08333,0 2.94939,1.80809 2.94939,4.03847z" fill="#ffc380" stroke-linecap="butt"/><path d="M242.9583,192.36055c0,0 0.47341,0.10948 0.64189,0.2489c0.18751,0.15518 0.43218,0.63999 0.43218,0.63999" fill="none" stroke-linecap="round"/></g><g stroke="#000000" stroke-width="0.3" stroke-linecap="butt"><path d="M242.11831,194.31432c0,1.03968 0.27545,1.99212 0.36374,2.66074c0.09802,0.74222 0.59348,2.10332 -0.64514,2.05786c-1.18467,-0.04348 -0.38418,-1.39273 -0.68205,-2.11184c-0.57423,-1.38627 -1.20322,-3.66227 -1.20322,-5.10675c0,-0.85897 0.315,-1.34358 0.49329,-1.5477c0.27706,-0.3172 0.04196,-0.07813 0.70115,-0.14675c0.53367,-0.05555 0.97222,2.00064 0.97222,4.19445z" fill="#ffc380"/><path d="M242.66938,197.42407c0,0.55145 0.52276,1.83629 0.35336,2.88518c-0.18097,1.12058 -1.05974,1.99029 -1.22293,2.00612c-0.25375,0.02463 -0.89041,-0.97173 -1.05542,-2.08518c-0.12623,-0.85174 0.35977,-2.09438 0.35977,-2.58873c0,-1.14059 -0.31742,1.58696 0.73913,1.58696c1.05654,0 0.82609,-2.94494 0.82609,-1.80435z" fill="#ff0000"/></g><g><path d="M240.92857,185.44045c0,0 0.6731,0.48075 0.55151,0.9829c-0.03638,0.15025 -0.59632,1.55301 -0.52872,2.30742c0.08252,0.92083 1.19382,3.14583 1.10407,3.22708c-0.1792,0.16224 -1.92168,-0.10371 -2.1834,-0.10371c-0.24097,0 -2.18049,0.00152 -2.29265,-0.16619c-0.07292,-0.10904 0.79014,-2.20706 0.73197,-2.83948c-0.05514,-0.5994 -0.85897,-2.88645 -0.85897,-3.26515c0,-0.53575 0.30342,-1.35622 0.64329,-1.71824c0.36919,-0.39326 0.27474,0.12301 0.85671,0.12301c0.55886,0 0.541,-0.39252 0.90724,-0.02629c0.36623,0.36623 1.06895,1.47867 1.06895,1.47867z" fill="#ff0000" stroke="#000000" stroke-width="0.3" stroke-linecap="butt"/><path d="M239.21428,186.29757c0,0.3055 -0.1501,0.53214 -0.25425,0.71972c-0.08861,0.1596 -0.1045,0.30409 -0.38861,0.30409c-0.61803,0 -0.29527,0.5606 -0.45123,0.01786c-0.16868,-0.58695 -0.39973,-1.26602 -0.39973,-1.26602c0,0 0.35104,-0.20959 0.53928,-0.24098c0.50753,-0.08462 0.95454,0.05288 0.95454,0.46534z" fill="#bf0000" stroke="none" stroke-width="0" stroke-linecap="butt"/><path d="M241.30953,186.30937c0,0.27484 -0.00545,0.46305 -0.15936,0.65784c-0.19217,0.24323 -0.66222,0.31835 -0.9835,0.31835c-0.57858,0 -1.2381,0.49899 -1.2381,-0.11905c0,-0.26896 0.5174,-0.73978 0.66543,-1.02445c0.19212,-0.36947 0.29349,-0.57079 0.62028,-0.57079c0.57858,0 1.09524,0.12006 1.09524,0.7381z" fill="#bf0000" stroke="none" stroke-width="0" stroke-linecap="butt"/><path d="M239.30952,186.22616c0,0 -0.0056,0.3899 -0.12574,0.58213c-0.11791,0.18866 -0.58855,0.56073 -0.58855,0.56073" fill="none" stroke="#000000" stroke-width="0.3" stroke-linecap="round"/></g><g stroke="#000000"><path d="M237.45199,185.99127c-1.52174,2.11658 0.06795,-0.04343 -1.45652,2.15217c-0.98333,1.18876 -0.52464,0.71751 -1.03018,1.17754c-0.07948,0.07232 -0.03956,0.04511 3.13017,0.64553c0.10216,-0.22282 1.36236,-0.27175 1.73854,-0.10629c0.34486,0.15168 -0.32242,0.82257 -0.33572,0.89988c-0.06024,0.35 -1.59965,0.35017 -1.65825,0.3576c-0.16088,0.0204 -1.48227,0.1358 -2.39327,-0.27623c-0.86645,-0.39188 -1.32849,-1.31065 -1.32876,-1.3506c-0.00202,-0.30093 1.85573,-3.04686 1.85573,-3.63005c0,-1.11658 1.23551,-1.97826 1.84783,-1.97826c0.61231,0 0.28224,1.20211 -0.36956,2.1087z" fill="#ffc380" stroke-width="0.3" stroke-linecap="butt"/><path d="M238.53895,190.61972l0.91304,0.08696" fill="none" stroke-width="0.1" stroke-linecap="round"/><path d="M239.66938,190.22841l-1,-0.17391" fill="none" stroke-width="0.1" stroke-linecap="round"/></g></g></g></svg>