<svg version="1.1" xmlns="http://www.w3.org/2000/svg" xmlns:xlink="http://www.w3.org/1999/xlink" width="21.51687" height="40.42358" viewBox="0,0,21.51687,40.42358"><g transform="translate(-229.92833,-174.64196)"><g data-paper-data="{&quot;isPaintingLayer&quot;:true}" fill-rule="nonzero" stroke-linejoin="miter" stroke-miterlimit="10" stroke-dasharray="" stroke-dashoffset="0" style="mix-blend-mode: normal"><g><path d="M244.04162,202.17309c0,1.12581 -1.11815,3.5 -2.30769,3.5c-1.18953,0 -1.53846,-2.29727 -1.53846,-3.42308c0,-1.12581 0.42584,0.80769 1.61538,0.80769c1.18954,0 2.23077,-2.01043 2.23077,-0.88462z" fill="#e480ff" stroke="#000000" stroke-width="0.3" stroke-linecap="butt"/><path d="M241.88777,203.0577l-0.07692,2.53846" fill="none" stroke="#000000" stroke-width="1" stroke-linecap="round"/><path d="M244.04657,202.4627c-2.26469,6.76621 0.84341,11.353 0.84341,11.353l-2.10847,0.20542c0,0 -0.23771,-2.2737 -1.07546,-2.27146c-1.12816,0.00302 -1.69795,2.28996 -1.69795,2.28996l-0.15803,-3.29852c0,0 0.05579,-0.03572 0.96048,-0.94141c0.96165,-0.9627 -0.08292,-5.25736 -0.53321,-7.02931c-0.53886,-2.1205 0.65548,2.73077 1.65384,2.73077c0.99836,0 2.70188,-5.14628 2.11539,-3.03846z" fill="#252525" stroke="#000000" stroke-width="0.3" stroke-linecap="butt"/><path d="M242.8158,213.96269l-0.61538,-2.15385l0.15385,-0.07692l1.53846,2.30769z" fill="#000000" stroke="none" stroke-width="0" stroke-linecap="butt"/></g><path d="M250.21064,186.9921c0,1.39884 -1.94861,1.02776 -2.37072,2.25391c-0.57743,1.67732 1.68032,5.44261 0.85036,6.9339c-0.51772,0.93026 -0.61391,-4.16053 -1.97222,-3.98859c-0.60142,0.07611 -1.07103,4.45085 -1.88169,5.39504c-1.39894,1.62937 -3.19609,0.17323 -3.98925,0.17323c-0.62798,0 -2.93285,0.7127 -4.07746,-0.63912c-1.05843,-1.25002 -0.95513,-4.5678 -1.63862,-4.67458c-1.32041,-0.20629 -1.00354,4.49178 -1.55615,3.62058c-0.79255,-1.24946 0.93827,-4.68145 0.37359,-6.29952c-0.43235,-1.23886 -2.46491,-1.35826 -2.46491,-2.77485c0,-0.35669 -0.12991,-1.95266 0.27947,-2.9611c0.43836,-1.07983 1.41498,-1.56946 1.31786,-1.76219c-0.39073,-0.77531 -3.6087,1.67052 -2.90134,0.49633c1.69017,-2.8056 7.4748,-6.5405 10.66755,-6.5405c2.52206,0 3.79686,3.13885 5.48042,5.0035c0.18341,0.20314 0.65905,0.73513 1.02204,0.616c0.75095,-0.24646 1.53152,-1.41264 1.83212,-0.95679c0.22939,0.34787 -0.4963,1.68697 -1.27539,2.32828c-0.65343,0.53789 -1.36754,0.35991 -1.36225,0.88301c0.00641,0.63198 1.25007,-0.0011 2.03492,0.35693c1.01575,0.46336 1.63165,1.88242 1.63165,2.53656z" fill="#800000" stroke="#000000" stroke-width="0.3" stroke-linecap="butt"/><g stroke="#000000" stroke-width="0.3"><path d="M238.64863,196.13542c0,0 0.76838,-2.08561 0.76087,-3.11612c-0.00623,-0.85476 -0.8028,-2.63885 -0.8028,-2.63885l-0.0295,-4.04874h2.45l-0.07143,4.34278c0,0 2.6647,0.16579 2.60476,2.83424c-0.10106,0.97535 -2.37914,2.82919 -2.37914,2.82919l-0.04866,2.70224c0,0 1.41422,0.51629 1.87956,0.87834c0.5737,0.44637 1.30613,1.60033 1.30613,1.60033c0,0 -0.94905,1.83691 -2.13708,1.88805c-0.8123,0.03495 -1.58748,-1.71783 -2.15406,-1.69347c-0.54242,0.02335 2.02777,3.2297 -2.00052,3.24065c-1.86273,0.00506 -1.5869,-3.09621 -1.5869,-3.09621c0,0 2.16289,-1.75519 2.33678,-2.7165c0.14788,-0.81752 -0.12801,-3.00595 -0.12801,-3.00595z" fill="#ff0000" stroke-linecap="butt"/><path d="M240.72103,190.56402l0.14285,-4.1639c0,0 1.25803,0.20963 2.1,1.16316c0.84197,0.95351 0.72857,3.19621 0.72857,3.19621c0,0 0.68238,1.79469 0.70233,2.65133c0.02021,0.86765 -0.58185,2.52199 -0.58185,2.52199l0.54841,5.57515c0,0 -0.26821,-0.55064 -1.53569,-1.41299c-2.02916,-1.38057 -1.95656,-1.11047 -1.95656,-1.11047l0.01242,-2.83405c0,0 2.15729,-0.0289 2.4156,-2.93765c0.11684,-2.46967 -2.5761,-2.64878 -2.5761,-2.64878z" fill="#404040" stroke-linecap="butt"/><path d="M235.86882,190.31422c0,0 -0.32769,-1.94946 0.51429,-2.90299c0.84197,-0.95352 2.1,-1.16316 2.1,-1.16316l0.07143,4.06614c0,0 0.72562,1.88728 0.73176,2.80265c0.00682,1.01843 -0.69266,3.0318 -0.69266,3.0318c0,0 0.22785,2.24137 0.0324,3.15943c-0.19772,0.92873 -1.21199,2.3813 -1.21199,2.3813l-1.04837,0.06084c0,0 -0.18078,-2.2829 0.04813,-3.02188c0.19795,-0.63903 1.246,-1.1559 1.246,-1.1559l-0.39488,-4.2085z" data-paper-data="{&quot;index&quot;:null}" fill="#404040" stroke-linecap="butt"/><path d="M244.31223,193.80228c0,0 0.13097,2.28558 -1.78063,2.00948c-0.55343,-0.07994 -1.7908,-1.91172 -1.7908,-1.91172" fill="none" stroke-linecap="round"/><path d="M240.2408,192.0429c0,0 0.31743,1.012 -0.8705,2.02013c-1.50333,1.2758 -1.84379,-0.74947 -1.84379,-0.74947" fill="none" stroke-linecap="round"/></g><g stroke="#000000"><path d="M240.19546,203.78848c0,1.04084 -1.22952,2.03846 -2.46154,2.03846c-1.23202,0 -1.46154,-1.61301 -1.46154,-2.65385c0,-1.04085 0.22952,1.03846 1.46154,1.03846c1.23202,0 2.46154,-1.46392 2.46154,-0.42308z" fill="#e480ff" stroke-width="0.3" stroke-linecap="butt"/><path d="M237.73392,204.36539v1.23077" fill="none" stroke-width="1" stroke-linecap="round"/><path d="M237.68518,206.4827c0.99836,0 2.80809,-4.00512 2.26923,-1.88462c-0.45029,1.77194 -2.8035,6.81687 -2.8035,6.81687l-0.85034,2.76005c0,0 -0.33902,-1.51771 -1.46718,-1.52073c-0.83775,-0.00224 -1.30623,1.50223 -1.30623,1.50223l-2.10847,-0.20542c0,0 6.56964,-2.97141 4.30495,-9.73762c-0.58649,-2.10782 0.96318,2.26923 1.96154,2.26923z" data-paper-data="{&quot;index&quot;:null}" fill="#252525" stroke-width="0.3" stroke-linecap="butt"/></g><path d="M238.51388,186.45918l-0.1,-1.32381c0,0 0.70379,0.16122 1.25476,0.17143c0.55097,0.01021 1.63571,-0.3119 1.63571,-0.3119l-0.29047,1.36428z" fill="#e480ff" stroke="#000000" stroke-width="0.3" stroke-linecap="butt"/><path d="M241.11364,186.06722c0.11495,0.77023 -0.62039,1.32361 -1.40909,1.27273c-0.7887,-0.05089 -1.56638,-0.64779 -1.40909,-1.45455" fill="none" stroke="#fff700" stroke-width="0.3" stroke-linecap="round"/><path d="M240.68125,176.72572c0,0 0.49392,-1.42855 0.8574,-1.80131c0.13345,-0.13687 0.75669,-0.23214 1.16127,0.05089c0.57052,0.39912 0.94198,1.25681 0.94198,1.25681c0,0 1.71707,0.59853 1.61667,0.77753c-0.02772,0.04941 0.46633,1.41037 0.46633,1.41037l-0.70018,1.22585c0,0 0.04182,-1.50455 -0.41544,-1.95553c-0.37745,-0.37227 -1.53417,-0.4477 -1.53417,-0.4477c0,0 -0.54492,-1.8847 -0.876,-1.7564c-0.31829,0.12333 -0.62656,1.95483 -0.62656,1.95483z" fill="#800000" stroke="#000000" stroke-width="0.3" stroke-linecap="butt"/><g><path d="M233.55075,187.22944l3.11855,0.81479l1.24061,2.0161l-1.50829,5.77005c0,0 -1.21232,3.64052 -2.39781,3.65764c-1.08312,-0.05745 -0.75828,0.15448 -1.31252,-0.79834c-1.47168,-2.53004 -1.06511,-1.58767 -1.06511,-1.58767l3.54076,-3.08627z" fill="#404040" stroke="#000000" stroke-width="0.3" stroke-linecap="butt"/><path d="M235.34008,198.38996c0,0.52634 -0.2631,2.05266 -1.46215,2.05266c-1.19905,0 -1.28492,-1.453 -1.28492,-1.97934c0,-0.52634 0.08587,0.95302 1.28492,0.95302c1.19905,0 1.46215,-1.55267 1.46215,-1.02633z" fill="#fff700" stroke="#000000" stroke-width="0.3" stroke-linecap="butt"/><path d="M235.28901,199.15411c0,0.52634 -0.2631,2.05266 -1.46215,2.05266c-1.19905,0 -1.28492,-1.45301 -1.28492,-1.97935c0,-0.52634 0.08587,0.95301 1.28492,0.95301c1.19905,0 1.46215,-1.55267 1.46215,-1.02632z" fill="#fff700" stroke="#000000" stroke-width="0.3" stroke-linecap="butt"/><path d="M235.07423,203.66823l-0.9587,-0.78361l1.2031,-1.03516l-1.27596,0.95332l-1.12236,-0.51023l-1.08575,-1.12177l0.75844,-1.02139c0,0 0.51759,0.95302 1.152,0.95302c0.66394,0 1.41784,-1.02632 1.41784,-1.02632l0.62031,0.95302l1.63573,-0.23404l0.08859,1.31904z" fill="#e480ff" stroke="#000000" stroke-width="0.3" stroke-linecap="butt"/><path d="M231.70685,200.95578c0,0 -0.83985,-0.69081 -0.17723,-1.39288c0.52802,-0.55946 1.26782,0.3703 1.26782,0.3703z" fill="#808080" stroke="#000000" stroke-width="0.3" stroke-linecap="butt"/><g><path d="M236.97411,202.25825l0.3889,0.32903l-1.42412,1.15805l-0.3889,-0.32903z" fill="#808080" stroke="#000000" stroke-width="0.1" stroke-linecap="butt"/><path d="M237.73529,202.27447l0.27361,0.25172l-1.88283,1.59387l-0.27361,-0.25171z" fill="#bfbfbf" stroke="#000000" stroke-width="0.1" stroke-linecap="butt"/><path d="M237.42279,205.6014c-0.72096,-0.2268 -2.03708,-1.01585 -1.32841,-1.52157c0.66846,-0.47702 1.20957,-0.94388 1.90555,-1.47542c0.56675,-0.43284 1.68269,1.21522 1.40853,1.81165c-0.27416,0.59643 -1.26472,1.41214 -1.98568,1.18534z" fill="#808080" stroke="#000000" stroke-width="0.1" stroke-linecap="butt"/><path d="M237.77309,203.50427c-0.78533,-0.24705 -2.38486,1.18303 -1.74077,0.71055c0.60805,-0.44603 1.1951,-1.01465 1.93774,-1.48736c0.6659,-0.42387 1.38522,0.81423 1.42494,1.48571c0.04868,0.82286 -0.83659,-0.46185 -1.62192,-0.7089z" fill="#404040" stroke="none" stroke-width="0" stroke-linecap="butt"/><path d="M238.93466,203.23587c0,0 -0.81275,0.81617 -1.24911,1.13597c-0.3929,0.28797 -1.25234,0.69734 -1.25234,0.69734" data-paper-data="{&quot;index&quot;:null}" fill="none" stroke="#000000" stroke-width="0.1" stroke-linecap="round"/><path d="M238.52885,202.77495c0,0 -0.81275,0.81619 -1.24909,1.13598c-0.3929,0.28797 -1.25236,0.69734 -1.25236,0.69734" data-paper-data="{&quot;index&quot;:null}" fill="none" stroke="#000000" stroke-width="0.1" stroke-linecap="round"/><path d="M239.35698,203.58924c0,0 -0.81275,0.81618 -1.2491,1.13598c-0.3929,0.28797 -1.25235,0.69733 -1.25235,0.69733" data-paper-data="{&quot;index&quot;:null}" fill="none" stroke="#000000" stroke-width="0.1" stroke-linecap="round"/><path d="M239.60301,204.03146c0,0 -0.69234,0.72794 -1.07308,1.00699c-0.34285,0.25127 -1.10965,0.59275 -1.10965,0.59275" data-paper-data="{&quot;index&quot;:null}" fill="none" stroke="#000000" stroke-width="0.1" stroke-linecap="round"/><path d="M237.80963,202.94711c0,0 0.77275,0.49423 1.05996,0.77236c0.25861,0.25044 0.58652,0.82209 0.58652,0.82209" data-paper-data="{&quot;index&quot;:null}" fill="none" stroke="#000000" stroke-width="0.1" stroke-linecap="round"/><path d="M237.259,203.28773c0,0 0.77275,0.49424 1.05995,0.77236c0.25861,0.25044 0.58652,0.82208 0.58652,0.82208" data-paper-data="{&quot;index&quot;:null}" fill="none" stroke="#000000" stroke-width="0.1" stroke-linecap="round"/><path d="M237.83592,205.58865c0,0 -0.64645,-0.33819 -0.91579,-0.58077c-0.29913,-0.26938 -0.79903,-0.96357 -0.79903,-0.96357" data-paper-data="{&quot;index&quot;:null}" fill="none" stroke="#000000" stroke-width="0.1" stroke-linecap="round"/><path d="M238.31104,205.17752c0,0 -0.64644,-0.33819 -0.91578,-0.58077c-0.29913,-0.26938 -0.79905,-0.96358 -0.79905,-0.96358" data-paper-data="{&quot;index&quot;:null}" fill="none" stroke="#000000" stroke-width="0.1" stroke-linecap="round"/></g></g><path d="M238.08578,186.76386c0.63623,0 0.17723,0.34911 0.17723,1.10769c0,0.75858 -0.33854,1.90523 -0.97477,1.90523c-0.63623,0 -1.152,-0.70357 -1.152,-1.46215c0,-0.75859 1.31331,-1.55077 1.94954,-1.55077z" fill="#404040" stroke="none" stroke-width="0" stroke-linecap="butt"/><g><path d="M236.15365,182.2888l1.72297,-5.80014c0,0 0.40405,0.13661 0.63864,0.38928c0.19058,0.20527 0.62936,0.73999 0.62936,0.73999c0,0 0.1467,-0.42632 0.41334,-0.53128c0.27497,-0.10824 0.75165,0.02723 0.94431,0.07675c0.20705,0.05321 0.67244,0.24987 0.91262,0.48704c0.2724,0.26899 0.54919,0.68504 0.54919,0.68504c0,0 0.5265,-0.1901 0.77643,-0.24213c0.47862,-0.09963 0.97354,-0.10459 0.97354,-0.10459l-1.16048,3.72468l1.51613,2.71686c0,0 -2.80549,1.25782 -4.5422,0.788c-1.7367,-0.46982 -3.37386,-2.92951 -3.37386,-2.92951z" fill="#e480ff" stroke="#000000" stroke-width="0.3" stroke-linecap="butt"/><path d="M239.8546,179.96011c0,0 -2.23719,0.74123 -1.91692,-0.38783c0.32027,-1.12907 0.62152,-1.82465 0.62152,-1.82465z" fill="#000000" stroke="none" stroke-width="0" stroke-linecap="butt"/><path d="M242.50359,178.86649c0,0 -0.10884,0.75016 -0.42911,1.87923c-0.32027,1.12907 -1.83505,-0.67645 -1.83505,-0.67645z" data-paper-data="{&quot;index&quot;:null}" fill="#000000" stroke="none" stroke-width="0" stroke-linecap="butt"/><path d="M238.45988,180.75022l-0.14416,-0.93893l-0.69003,-0.63538l0.96838,-0.05261l0.51943,-0.77765l0.02431,0.91765l0.59522,0.51037l-0.71439,0.11043z" fill="#ff0000" stroke="none" stroke-width="0" stroke-linecap="butt"/><path d="M241.13279,181.40447l-0.14416,-0.93893l-0.69003,-0.63538l0.96838,-0.05261l0.51943,-0.77765l0.02431,0.91765l0.59522,0.51037l-0.71439,0.11043z" fill="#ff0000" stroke="none" stroke-width="0" stroke-linecap="butt"/><path d="M242.38588,178.36535l-2.25734,1.17873l-1.13062,-2.2437" fill="none" stroke="#000000" stroke-width="0.2" stroke-linecap="round"/><path d="M240.70551,183.18991c-0.09043,0.31879 -0.28852,-0.70551 -0.84641,-0.86376c-0.55789,-0.15825 -1.14799,0.38262 -1.05756,0.06382c0.09043,-0.31879 0.11347,-1.05924 0.67135,-0.90099c0.09809,0.02782 0.27337,0.37092 0.50216,0.42179c0.30448,0.06771 0.6777,-0.14906 0.83719,-0.05279c0.40226,0.2428 -0.05337,1.14379 -0.10673,1.33193z" fill="#ff0000" stroke="#000000" stroke-width="0.2" stroke-linecap="butt"/><path d="M240.51345,183.31733c-0.13941,0.49147 -0.67955,0.61282 -1.19759,0.46587c-0.51804,-0.14695 -0.81781,-0.50654 -0.6784,-0.99801c0.13941,-0.49147 0.33774,0.22573 0.85578,0.37268c0.51804,0.14695 1.15962,-0.33201 1.02021,0.15946z" fill="#ff0000" stroke="#000000" stroke-width="0.2" stroke-linecap="butt"/><path d="M239.49648,183.05484c-0.50476,-0.14318 -0.68468,-0.33459 -0.60555,-0.61354c0.07913,-0.27894 0.32628,-0.14132 0.83104,0.00185c0.50476,0.14318 0.77372,0.20393 0.69459,0.48288c-0.07913,0.27894 -0.41532,0.27199 -0.92007,0.12881z" fill="#ffffff" stroke="#000000" stroke-width="0.2" stroke-linecap="butt"/><path d="M238.71251,182.52062l-0.50322,-0.9743" fill="none" stroke="#000000" stroke-width="0.2" stroke-linecap="round"/><path d="M241.54985,182.96166l-0.90608,0.26271" fill="none" stroke="#000000" stroke-width="0.2" stroke-linecap="round"/><path d="M238.78135,182.2039c0,0 0.15199,-0.53167 0.43698,-0.66802c0.28499,-0.13634 0.58938,0.36517 0.58938,0.36517c0,0 0.29324,0.38186 0.12509,0.43147c-0.16815,0.04962 -1.15145,-0.12862 -1.15145,-0.12862z" fill="#000000" stroke="none" stroke-width="0" stroke-linecap="butt"/><path d="M239.37802,183.17535c0.13114,0.26706 0.10178,0.45121 -0.19699,0.55391c-0.29877,0.10268 -0.53052,-0.4763 -0.53052,-0.4763c0,0 -0.18245,-0.64208 -0.00971,-0.67205c0.17274,-0.02996 0.60608,0.32738 0.73722,0.59444z" fill="#000000" stroke="none" stroke-width="0" stroke-linecap="butt"/></g><g><path d="M234.55143,179.56235l1.11283,-3.15826l0.73676,1.87317l-0.77856,1.67694z" fill="#e480ff" stroke="#000000" stroke-width="0.3" stroke-linecap="butt"/><path d="M235.08377,179.57238l0.57643,-1.46365l0.42592,1.04631l-0.29822,0.65719z" fill="#ab60bf" stroke="#000000" stroke-width="0.2" stroke-linecap="butt"/><path d="M235.59597,180.13506c-0.19373,0.74595 -0.08845,1.21127 -0.68796,0.82968c-0.59951,-0.38159 -0.02595,-0.83512 0.39465,-1.49831" fill="none" stroke="#fff700" stroke-width="0.3" stroke-linecap="round"/></g><g stroke="#000000" stroke-width="0.3" stroke-linecap="butt"><path d="M249.16024,201.66193c-0.34052,0.18265 -1.12929,0.69376 -1.44815,0.73226c-0.39535,0.04773 0.10479,-0.74573 -0.05658,-0.93307c-0.16604,-0.19276 -1.08687,-0.00628 -0.87004,-0.28682c0.16387,-0.21202 0.99073,-0.56186 1.31904,-0.73796c0.76271,-0.40911 1.61734,-0.46641 1.90888,-0.12796c0.29154,0.33844 -0.09043,0.94444 -0.85314,1.35355z" fill="#e480ff"/><path d="M249.23904,196.43187l-7.35822,-9.51041l2.63142,-1.6297l6.76951,11.02692l-1.34431,4.32238c0,0 0.38318,-2.32 0.09618,-2.68207c-0.24075,-0.30375 -1.70395,0.65372 -1.70395,0.65372z" fill="#404040"/><path d="M249.96665,200.26655c-0.52731,1.04956 0.60951,-1.18311 -0.40133,-1.5539c-1.05342,-0.3864 -2.34793,1.27397 -1.65417,0.32617c0.82371,-1.12535 1.01286,-1.30254 2.01749,-0.91524c0.67744,0.26116 0.87416,0.47875 0.03802,2.14297z" fill="#fff700"/><path d="M249.25704,199.4213c-1.05342,-0.3864 -2.34793,1.27397 -1.65417,0.32617c0.82371,-1.12535 1.01286,-1.30254 2.01749,-0.91524c0.67743,0.26116 0.87415,0.47876 0.03801,2.14298c-0.52732,1.04956 0.60951,-1.18312 -0.40133,-1.55391z" fill="#fff700"/><path d="M248.95453,203.46105c-0.38462,0.10324 -0.00188,-0.75304 -0.18816,-0.91564c-0.19167,-0.1673 -1.07681,0.1477 -0.90189,-0.16072c0.13219,-0.23309 0.90118,-0.6965 1.20124,-0.91732c0.69709,-0.513 1.53499,-0.69075 1.87152,-0.397c0.33653,0.29374 0.04423,0.94773 -0.65286,1.46073c-0.31122,0.22903 -1.01966,0.84668 -1.32986,0.92995z" fill="#e480ff"/><path d="M247.40536,203.60534c-0.9986,0.81061 -1.86566,1.57475 -1.86566,1.57475c0,0 0.20696,-1.00956 1.20557,-1.82018c0.9986,-0.81061 1.84154,-1.11983 2.19718,-0.25404c0.15277,0.37189 -0.53848,-0.31114 -1.53708,0.49947z" fill="#ff0000"/><path d="M246.2964,202.58266c-0.9986,0.81061 -1.86566,1.57475 -1.86566,1.57475c0,0 0.20696,-1.00957 1.20556,-1.82018c0.9986,-0.81061 1.84154,-1.11984 2.19718,-0.25404c0.15277,0.37189 -0.53848,-0.31114 -1.53709,0.49947z" fill="#ff0000"/><path d="M248.1494,200.42633c-0.31122,0.22903 -1.01966,0.84668 -1.32986,0.92995c-0.38461,0.10324 -0.00187,-0.75304 -0.18815,-0.91564c-0.19166,-0.1673 -1.07681,0.1477 -0.90189,-0.16072c0.13219,-0.23309 0.90118,-0.69651 1.20124,-0.91733c0.69709,-0.513 1.53499,-0.69075 1.87152,-0.397c0.33653,0.29374 0.04423,0.94774 -0.65286,1.46074z" fill="#e480ff"/><path d="M245.27039,201.50058c-0.9986,0.81061 -1.86566,1.57474 -1.86566,1.57474c0,0 0.20696,-1.00956 1.20556,-1.82017c0.9986,-0.81061 1.84154,-1.11984 2.19719,-0.25405c0.15277,0.37189 -0.53848,-0.31114 -1.53709,0.49948z" fill="#ff0000"/><path d="M247.12342,199.34423c-0.31121,0.22903 -1.01965,0.84668 -1.32985,0.92995c-0.38462,0.10324 -0.00188,-0.75304 -0.18816,-0.91564c-0.19167,-0.1673 -1.07682,0.1477 -0.9019,-0.16072c0.13219,-0.23309 0.90118,-0.6965 1.20124,-0.91732c0.69708,-0.513 1.53499,-0.69076 1.87152,-0.39701c0.33652,0.29374 0.04422,0.94774 -0.65287,1.46074z" fill="#e480ff"/><path d="M244.24438,200.41848c-0.9986,0.81061 -1.86566,1.57475 -1.86566,1.57475c0,0 0.20696,-1.00956 1.20556,-1.82018c0.9986,-0.81061 1.84154,-1.11983 2.19719,-0.25404c0.15277,0.37189 -0.53848,-0.31114 -1.53708,0.49947z" fill="#ff0000"/></g></g></g></svg>