<svg version="1.1" xmlns="http://www.w3.org/2000/svg" xmlns:xlink="http://www.w3.org/1999/xlink" width="20.37562" height="30.3952" viewBox="0,0,20.37562,30.3952"><g transform="translate(-229.81011,-173.32697)"><g data-paper-data="{&quot;isPaintingLayer&quot;:true}" fill-rule="nonzero" stroke-linejoin="miter" stroke-miterlimit="10" stroke-dasharray="" stroke-dashoffset="0" style="mix-blend-mode: normal"><path d="M241.9643,187.77761l-1.71428,-3.64286l1.85715,0.07143l-0.23248,2.08154l2.01819,1.13275z" fill="#bfbfbf" stroke="#000000" stroke-width="0.3" stroke-linecap="butt"/><path d="M241.9643,187.70618l1.85714,-0.35715l0.28572,1.28572l-0.14286,1.64286z" fill="#bf9360" stroke="#000000" stroke-width="0.3" stroke-linecap="butt"/><path d="M233.25001,189.34902l-0.22822,-2.22528l0.93389,0.87533l1.27665,-1.06037l0.80339,0.83891c0,0 2.70275,1.12147 3.78585,1.15528c1.10686,0.03455 2.14272,-0.98129 2.14272,-0.98129l0.19611,1.64218l2.84949,-0.15226l0.24034,3.33491l-1.91615,0.1175l-0.6555,-1.11632l-1.51166,-0.84076l-1.51413,1.24836c0,0 -2.19797,-0.0379 -1.77751,-0.29363c0.67703,-0.4118 -0.26629,-2.21067 -0.26629,-2.21067l-2.17588,2.23604z" fill="#565fff" stroke="#000000" stroke-width="0.3" stroke-linecap="butt"/><path d="M235.32861,186.96349l-1.36201,0.75858l-0.82583,-0.79045l-0.04364,-2.08134l2.30075,0.30451z" fill="#ffc380" stroke="#000000" stroke-width="0.3" stroke-linecap="butt"/><g><path d="M246.21174,190.42764c-1.07485,-0.33641 -0.89272,-0.23701 -1.67432,-0.57301c-0.78161,-0.33601 -0.55969,-0.25116 -1.39747,-0.64968c-0.03505,-0.01667 0.08612,-1.38649 0.6153,-1.16019c0.58707,0.25106 1.61241,0.55471 1.17664,0.3651c-1.03354,-0.44968 -1.20679,-1.02963 -0.95283,-1.20014c0.58198,-0.39076 1.58077,0.26621 1.25353,0.10635c-0.25898,-0.12652 -0.85128,-0.35551 -0.9675,-0.5689c-0.27562,-0.50605 0.21418,-1.06762 0.40774,-0.99857c0.8381,0.29903 1.36611,0.39755 1.75316,0.56394c0.34998,0.15045 0.38223,0.26239 1.35663,0.79595c0.85021,0.46555 -1.08313,3.47179 -1.57086,3.31914z" data-paper-data="{&quot;index&quot;:null}" fill="#ffc380" stroke="#000000" stroke-width="0.3" stroke-linecap="butt"/><path d="M244.85494,185.79225l0.33441,-0.72299l2.59859,1.19369l-0.33441,0.72299z" fill="#808080" stroke="#000000" stroke-width="0.3" stroke-linecap="butt"/><path d="M244.63312,184.87552l0.26799,-0.5211l3.53723,1.53954l-0.26799,0.5211z" fill="#bfbfbf" stroke="#000000" stroke-width="0.3" stroke-linecap="butt"/><path d="M250.03573,183.13474c0,1.10457 -0.60676,3.35169 -1.78572,2.71428c-1.11207,-0.60125 -2.14286,-1.03829 -3.35715,-1.64285c-0.9888,-0.4923 1.10972,-3 2.21429,-3c1.10457,0 2.92857,0.824 2.92857,1.92857z" fill="#808080" stroke="#000000" stroke-width="0.3" stroke-linecap="butt"/><path d="M246.4643,183.95617c0,1.20319 3.12803,2.46429 2.03572,1.89286c-1.03116,-0.53944 -2.25,-0.97538 -3.39285,-1.67857c-1.02475,-0.63052 0.61234,-2.35513 1.67857,-2.82143c1.3066,-0.57143 -0.32143,1.40395 -0.32143,2.60714z" fill="#404040" stroke="none" stroke-width="0" stroke-linecap="butt"/><path d="M245.43878,182.5665c0,0 1.73425,0.58571 2.47378,0.97301c0.66591,0.34874 1.76574,1.24724 1.76574,1.24724" data-paper-data="{&quot;index&quot;:null}" fill="none" stroke="#000000" stroke-width="0.2" stroke-linecap="round"/><path d="M244.89959,183.3933c0,0 1.73425,0.58571 2.47378,0.97301c0.66591,0.34874 1.76574,1.24724 1.76574,1.24724" data-paper-data="{&quot;index&quot;:null}" fill="none" stroke="#000000" stroke-width="0.2" stroke-linecap="round"/><path d="M245.79558,181.78382c0,0 1.73425,0.58571 2.47378,0.97301c0.66591,0.34874 1.76574,1.24724 1.76574,1.24724" data-paper-data="{&quot;index&quot;:null}" fill="none" stroke="#000000" stroke-width="0.2" stroke-linecap="round"/><path d="M246.38586,181.18242c0,0 1.53018,0.47883 2.17549,0.81678c0.58106,0.3043 1.52388,1.12058 1.52388,1.12058" data-paper-data="{&quot;index&quot;:null}" fill="none" stroke="#000000" stroke-width="0.2" stroke-linecap="round"/><path d="M245.54421,184.25006c0,0 0.40633,-1.33841 0.71015,-1.89397c0.27357,-0.50025 1.03159,-1.29089 1.03159,-1.29089" data-paper-data="{&quot;index&quot;:null}" fill="none" stroke="#000000" stroke-width="0.2" stroke-linecap="round"/><path d="M246.3756,184.77751c0,0 0.40633,-1.33841 0.71015,-1.89397c0.27357,-0.50025 1.03159,-1.29089 1.03159,-1.29089" data-paper-data="{&quot;index&quot;:null}" fill="none" stroke="#000000" stroke-width="0.2" stroke-linecap="round"/><path d="M249.80481,182.5896c0,0 -0.21816,1.07336 -0.47355,1.58314c-0.28361,0.56614 -1.15233,1.66239 -1.15233,1.66239" data-paper-data="{&quot;index&quot;:null}" fill="none" stroke="#000000" stroke-width="0.2" stroke-linecap="round"/><path d="M248.89777,182.20661c0,0 -0.21816,1.07335 -0.47355,1.58313c-0.28361,0.56614 -1.15233,1.6624 -1.15233,1.6624" data-paper-data="{&quot;index&quot;:null}" fill="none" stroke="#000000" stroke-width="0.2" stroke-linecap="round"/></g><g><path d="M240.10024,189.04775c-1.04347,0 -4.33496,-1.34742 -4.67868,-1.98067c-0.12314,-0.22687 0.29642,-1.33805 0.12648,-1.98994c-0.07608,-0.29184 -2.44908,-0.03915 -2.6187,-0.24013c-0.27371,-0.32429 1.5653,-0.78742 1.5653,-0.78742c0,0 -0.51094,-0.75159 -0.51094,-0.87905c0,-0.55366 1.08259,-0.85373 2.51548,0.01094c0.82964,0.50064 2.56554,0.9853 3.38678,0.9853c1.06683,0 0.72974,1.19367 1.17541,1.83451c0.45523,0.65458 1.30078,1.47557 1.30078,1.9274c0,0.89418 -0.10537,1.11905 -2.26191,1.11905z" fill="#ffffff" stroke="#000000" stroke-width="0.3" stroke-linecap="butt"/><path d="M239.03696,188.43892c-1.02015,0.01307 -1.48933,-1.12928 -1.48933,-1.12928c-0.28738,-0.92783 0.55239,-1.79556 1.47619,-1.85714c0.9238,-0.06159 1.4598,0.82565 1.38095,1.66667c0,0 -0.22562,1.30512 -1.36781,1.31975z" fill="none" stroke="#ff0000" stroke-width="0.3" stroke-linecap="round"/><path d="M239.9762,185.9287l-1.83333,2.11904" fill="none" stroke="#ff0000" stroke-width="0.3" stroke-linecap="round"/><path d="M237.50001,183.83346v0l2.57143,0.52381c0,0 0.35279,0.16702 0.43747,0.32867c0.08964,0.17114 0.08634,0.67133 0.08634,0.67133z" fill="#bfbfbf" stroke="none" stroke-width="0" stroke-linecap="butt"/></g><g stroke-linecap="butt"><path d="M242.74618,191.54681l0.43468,1.70388l2.0202,-0.28486l0.30167,1.54813l-1.73371,0.12445c0,0 2.6052,3.5229 2.62213,3.63536c0.04938,0.32812 0.15083,2.81825 -0.96649,2.96525c-1.08303,0.14247 -1.98045,-0.99825 -2.74223,-1.83109c-0.74434,-0.81376 -3.31702,-2.53163 -3.54879,-4.25945c-0.27793,-2.07194 1.86551,-4.11951 1.86551,-4.11951z" fill="#ff0000" stroke="#000000" stroke-width="0.3"/><path d="M242.4182,199.28778c-1.06294,-1.16207 -3.32429,-6.0444 -2.5908,-6.96657c0.73349,-0.92217 1.70969,-1.84315 2.77263,-0.68108c0.39686,0.43387 0.29032,1.23013 0.57041,2.13555c0.4701,1.51965 1.14838,3.30352 0.68875,3.88139c-0.73349,0.92217 -0.37804,2.79277 -1.44098,1.6307z" fill="#bf0000" stroke="none" stroke-width="0"/><path d="M246.28888,198.11978c0.2712,0.29649 -0.64727,-0.84757 -1.37085,0.06214c-0.72358,0.90971 -0.96301,1.68921 -1.23422,1.39271c-0.27121,-0.2965 -0.06625,-1.70428 0.65733,-2.61399c0.72357,-0.9097 1.67653,0.86264 1.94774,1.15914z" fill="#ffffff" stroke="#000000" stroke-width="0.3"/><path d="M243.52241,195.72809c0.72358,-0.90971 1.67654,0.86264 1.94775,1.15913c0.2712,0.29649 -0.64727,-0.84757 -1.37085,0.06214c-0.72358,0.90971 -0.96302,1.6892 -1.23422,1.39271c-0.2712,-0.29649 -0.06625,-1.70428 0.65733,-2.61399z" fill="#ffffff" stroke="#000000" stroke-width="0.3"/><path d="M242.70368,194.49552c0.72358,-0.90971 1.67654,0.86264 1.94775,1.15913c0.2712,0.29649 -0.64728,-0.84756 -1.37086,0.06215c-0.72358,0.90971 -0.96301,1.68919 -1.23421,1.3927c-0.2712,-0.29649 -0.06625,-1.70428 0.65733,-2.61399z" fill="#ffffff" stroke="#000000" stroke-width="0.3"/><path d="M245.85109,201.39564c-0.26762,0.33646 -1.65024,1.79133 -4.58566,-1.42761c-2.89184,-3.17114 -2.24023,-6.7563 -1.96111,-7.07966c0.91632,-1.06156 0.09097,2.80295 2.70711,5.87035c2.91346,3.41602 4.1073,2.30046 3.83968,2.63692z" fill="#ffffff" stroke="#000000" stroke-width="0.3"/></g><g stroke-linecap="butt"><path d="M237.58772,192.76189c0,1.38385 3.86652,0.14316 3.05263,0.14316c-0.24305,0 0.81393,0.8842 -0.10536,2.50561c-0.29665,0.52322 0.02128,0.19201 -1.30933,0.38389c-0.4655,0.06712 1.35876,2.06753 0.80195,2.61447c-0.74138,0.72828 -0.2471,3.09193 -4.87032,3.05754c-2.98696,-0.02222 -2.08064,-6.56249 -2.10012,-8.84596c-0.02039,-2.39032 0.10949,-2.70794 0.10949,-3.08036c0,-0.8199 1.00027,2.05981 2.1564,2.44249c0.79521,0.26321 1.77508,-2.01291 2.10676,-2.01291c0.61881,0 0.75634,1.10041 0.61011,2.09884c-0.0461,0.31479 -0.45221,0.3615 -0.45221,0.69322z" fill="#ff0000" stroke="#000000" stroke-width="0.3"/><path d="M239.95614,198.20281c-0.50944,1.08743 -0.5184,1.73733 -1.49874,2.36997c-0.53888,0.34775 -1.25618,0.77524 -2.92231,0.78005c-1.18079,0.0034 -1.13129,-0.13316 -1.45858,-0.39314c-0.57083,-0.45345 -0.89066,-1.28232 -0.85721,-2.39891c-0.02804,-2.18193 1.71398,-2.07615 2.78948,-2.07615c1.0755,0 4.55658,0.41776 3.94736,1.7182z" fill="#bf0000" stroke="none" stroke-width="0"/><path d="M235.9035,196.29888c-1.13363,0 -1.89473,0.62407 -1.89473,-0.1074c0,-0.73145 0.81373,-0.96647 1.94736,-0.96647c1.13363,0 2,0.4498 2,1.18126c0,0.73145 -0.919,-0.1074 -2.05263,-0.1074z" data-paper-data="{&quot;index&quot;:null}" fill="#ffffff" stroke="#000000" stroke-width="0.3"/><path d="M235.9035,195.01024c-1.13363,0 -1.89473,0.62407 -1.89473,-0.10738c0,-0.73145 0.81373,-0.96647 1.94736,-0.96647c1.13363,0 2,0.4498 2,1.18126c0,0.73145 -0.919,-0.1074 -2.05263,-0.1074z" data-paper-data="{&quot;index&quot;:null}" fill="#ffffff" stroke="#000000" stroke-width="0.3"/><path d="M235.85087,193.79318c-1.13363,0 -1.89473,0.62407 -1.89473,-0.10738c0,-0.73145 0.81373,-0.96647 1.94736,-0.96647c1.13363,0 2,0.4498 2,1.18126c0,0.73145 -0.919,-0.1074 -2.05263,-0.1074z" data-paper-data="{&quot;index&quot;:null}" fill="#ffffff" stroke="#000000" stroke-width="0.3"/><path d="M240.27193,198.02384c0,0.53375 -0.32275,5.55659 -4.34211,5.54833c-3.95967,-0.00815 -3.14761,-4.51384 -3.13158,-5.04722c0.05263,-1.75083 -0.724,2.86675 2.97369,3.04261c4.11793,0.19589 4.5,-4.07754 4.5,-3.54378z" fill="#ffffff" stroke="#000000" stroke-width="0.3"/><path d="M236.0614,203.14262c0,0.28965 -0.83102,0.35794 -1.76316,-0.21476c-0.54611,-0.33553 -0.76031,-0.4609 -0.93729,-0.76608c-0.14494,-0.24995 -0.40482,-0.52446 -0.40482,-0.88053c0,-0.79078 -0.0604,-3.12911 -0.07895,-1.64659c-0.00791,0.63273 0.24997,1.81028 1.10584,2.49377c0.79035,0.63116 2.07837,0.63457 2.07837,1.01423z" fill="#bfbfbf" stroke="none" stroke-width="0"/></g><g><path d="M242.58845,180.5527c0.3728,0.59446 -0.77068,1.98299 -2.55405,3.10138c-1.78337,1.11839 -3.53128,1.54312 -3.90408,0.94866c-0.21468,-0.34233 -2.48785,-2.44238 -2.02345,-4.12566c0.34203,-1.23973 3.43652,-2.47547 4.1929,-2.94981c0.53464,-0.33528 1.56804,3.94079 2.0602,3.73896c1.14954,-0.4714 1.96744,-1.12978 2.22848,-0.71354z" fill="#ffc380" stroke="#000000" stroke-width="0.3" stroke-linecap="butt"/><path d="M236.20497,181.64067l-0.36513,-1.12002l0.75693,-0.13744l1.1166,0.70496z" fill="#bf9360" stroke="none" stroke-width="0" stroke-linecap="butt"/><path d="M234.10716,181.8038l-2.02222,-0.41163c0,0 -1.14751,-1.12782 -1.3171,-2.04257c-0.16959,-0.91474 -0.06099,-1.34136 0.57201,-1.9764c0.63301,-0.63504 4.84268,-3.57194 4.84268,-3.57194c0,0 0.50072,-0.39563 0.92183,-0.31292c0.42109,0.08272 0.3732,0.24409 0.59228,0.61248c0.39387,0.66232 1.65302,2.77962 1.65302,2.77962z" fill="#ff0000" stroke="#000000" stroke-width="0.3" stroke-linecap="butt"/><path d="M231.22027,179.87658c-0.6148,-0.98034 -0.75619,-1.88652 0.26871,-2.52927c0.50097,-0.31417 1.17539,-1.18389 1.84846,-0.98376c0.70392,0.2093 1.40244,1.50689 1.71672,2.00803c0.2874,0.45829 0.25404,1.35455 0.1124,1.89525c-0.16136,0.61593 -0.48558,0.86816 -1.03137,1.21044c-0.4007,0.25129 -1.34665,-0.08051 -1.80229,-0.25c-0.70978,-0.26401 -0.73819,-0.75364 -1.11262,-1.3507z" fill="#bf0000" stroke="#000000" stroke-width="0.2" stroke-linecap="butt"/><path d="M240.62316,176.96076c0,0 -1.27431,-0.09137 -2.20615,0.49301c-0.93185,0.58438 -4.11533,4.55428 -4.72994,3.57424c-0.3064,-0.48858 2.01928,2.26423 2.60283,0.68334c0.58698,-1.59021 0.31236,-6.84962 0.36521,-7.19255c0.05285,-0.34293 -0.14919,0.22462 0.66877,0.48224c0.68767,0.21658 1.64563,-0.48057 2.10875,0.03353c0.46312,0.5141 -1.82264,0.407 -1.40814,0.74421c0.79554,0.64722 2.59866,1.18198 2.59866,1.18198z" fill="#00f8ff" stroke="#000000" stroke-width="0.3" stroke-linecap="butt"/><path d="M239.70581,176.78136c0,0 -1.03915,0.39781 -1.8459,0.90375c-0.80675,0.50593 -3.31248,4.40491 -3.92709,3.42486c-0.30641,-0.48859 1.98211,1.89408 2.41391,0.40835c0.43434,-1.49449 0.0288,-6.43072 0.43336,-6.68443c0.14578,-0.09142 -0.32317,0.21567 0.43155,0.51295c0.6345,0.24993 2.05086,-0.2056 2.05086,-0.2056c0,0 -2.25343,0.55913 -1.8585,0.9086c0.75799,0.67077 2.3018,0.7315 2.3018,0.7315z" fill="#00b9bf" stroke="#000000" stroke-width="0" stroke-linecap="butt"/><path d="M234.47708,185.20849l-2.32668,-3.4591l2.03566,0.29723l0.92474,1.66279z" fill="#ffc380" stroke="#000000" stroke-width="0.3" stroke-linecap="butt"/><path d="M234.7833,184.66234l-1.25097,-1.9563l1.14605,0.15206l0.3667,0.64495z" fill="#bf9360" stroke="#000000" stroke-width="0.2" stroke-linecap="butt"/><path d="M231.91671,181.43523c0,0 -0.1013,0.77736 -0.19867,1.07357c-0.09246,0.28128 -0.37159,0.66117 -0.37159,0.66117l-1.27728,-1.81267c0,0 0.50388,-0.08754 0.74938,-0.10944c0.22243,-0.01985 0.66123,-0.01638 0.66123,-0.01638z" fill="#565fff" stroke="#000000" stroke-width="0.3" stroke-linecap="butt"/><path d="M231.82338,181.46564c0.29342,0.46789 0.00086,1.12363 -0.52274,1.45199c-0.52359,0.32835 -0.00504,0.03678 -0.29847,-0.43112c-0.29342,-0.46789 -0.27709,-0.21968 0.2465,-0.54804c0.52359,-0.32835 0.28129,-0.94072 0.57471,-0.47283z" fill="#000dff" stroke="none" stroke-width="0" stroke-linecap="butt"/><path d="M237.71679,180.01807c0,0 0.39948,1.09848 0.14326,1.25916c-0.25622,0.16068 -0.73578,-0.14253 -1.07113,-0.67727c-0.33534,-0.53473 -0.14326,-1.25916 -0.14326,-1.25916z" fill="#000000" stroke="none" stroke-width="0" stroke-linecap="butt"/><path d="M237.7879,180.31073l-0.77882,-0.973l1.53711,-1.58225l0.62429,2.25029z" fill="#bf9360" stroke="none" stroke-width="0" stroke-linecap="butt"/><path d="M239.05765,178.83993c0.33534,0.53473 0.40851,1.09282 0.16343,1.24651c-0.24508,0.1537 -1.05096,-0.68992 -1.05096,-0.68992l-0.16342,-1.24651c0,0 0.71561,0.15518 1.05095,0.68991z" fill="#000000" stroke="none" stroke-width="0" stroke-linecap="butt"/><path d="M232.97553,179.00065c0,0 0.68032,-0.89246 1.47707,-0.71573c0.76924,0.17063 3.22385,1.75846 3.22385,1.75846" fill="none" stroke="#000000" stroke-width="0.3" stroke-linecap="round"/><path d="M238.12978,179.42182c0,0 -0.3597,-1.82777 -0.32636,-2.32104c0.03409,-0.50433 0.52874,-0.6725 0.52874,-0.6725" fill="none" stroke="#000000" stroke-width="0.3" stroke-linecap="round"/><path d="M241.33872,181.84987c0,0 -1.04585,0.15067 -2.05794,0.57691c-0.54834,0.23093 -1.17903,0.83886 -1.41765,0.87202c-0.67907,0.0944 -1.59113,-0.74462 -1.59113,-0.74462c0,0 1.09439,0.13251 1.88373,0.02279c0.88793,-0.12342 3.18299,-0.72709 3.18299,-0.72709z" fill="none" stroke="#000000" stroke-width="0.3" stroke-linecap="round"/><path d="M237.37832,183.15317c-0.19812,-0.06262 -0.66189,-0.42804 -0.66189,-0.42804l1.98362,-0.0636l-0.7918,0.44035c0,0 -0.33181,0.11392 -0.52992,0.05128z" fill="#ffffff" stroke="#000000" stroke-width="0" stroke-linecap="butt"/></g></g></g></svg>