<svg version="1.1" xmlns="http://www.w3.org/2000/svg" xmlns:xlink="http://www.w3.org/1999/xlink" width="26.12144" height="42.47874" viewBox="0,0,26.12144,42.47874"><g transform="translate(-228.60529,-172.58679)"><g data-paper-data="{&quot;isPaintingLayer&quot;:true}" fill-rule="nonzero" stroke-linejoin="miter" stroke-miterlimit="10" stroke-dasharray="" stroke-dashoffset="0" style="mix-blend-mode: normal"><g><path d="M244.04163,202.17308c0,1.12581 -1.11815,3.5 -2.30769,3.5c-1.18953,0 -1.53846,-2.29727 -1.53846,-3.42308c0,-1.12581 0.42584,0.80769 1.61538,0.80769c1.18954,0 2.23077,-2.01043 2.23077,-0.88462z" fill="#e480ff" stroke="#000000" stroke-width="0.3" stroke-linecap="butt"/><path d="M241.88778,203.05769l-0.07692,2.53846" fill="none" stroke="#000000" stroke-width="1" stroke-linecap="round"/><path d="M244.04658,202.46269c-2.26469,6.76621 0.84341,11.353 0.84341,11.353l-2.10847,0.20542c0,0 -0.23771,-2.2737 -1.07546,-2.27146c-1.12816,0.00302 -1.69795,2.28996 -1.69795,2.28996l-0.15803,-3.29852c0,0 0.05579,-0.03572 0.96048,-0.94141c0.96165,-0.9627 -0.08292,-5.25736 -0.53321,-7.02931c-0.53886,-2.1205 0.65548,2.73077 1.65384,2.73077c0.99836,0 2.70188,-5.14628 2.11539,-3.03846z" fill="#252525" stroke="#000000" stroke-width="0.3" stroke-linecap="butt"/><path d="M242.81581,213.96268l-0.61538,-2.15385l0.15385,-0.07692l1.53846,2.30769z" fill="#000000" stroke="none" stroke-width="0" stroke-linecap="butt"/></g><path d="M247.57835,189.72212c-0.80756,1.14219 -2.18443,-0.28575 -3.23695,0.47176c-1.43981,1.03623 -1.77002,5.4141 -3.30863,6.15264c-0.95978,0.4607 1.90062,-3.7516 0.69226,-4.39537c-0.53502,-0.28506 -3.44402,3.01593 -4.65104,3.31889c-2.08292,0.52281 -2.70971,-1.70367 -3.35735,-2.16156c-0.51276,-0.36254 -2.8062,-1.11121 -2.9604,-2.8758c-0.1426,-1.63172 1.85712,-4.28114 1.36068,-4.76291c-0.95906,-0.93072 -3.41255,3.08831 -3.36082,2.05793c0.07418,-1.47777 3.46875,-3.28086 3.94179,-4.92806c0.36217,-1.26117 -1.22854,-2.53207 -0.41073,-3.68875c0.20592,-0.29125 1.02121,-1.66941 1.93766,-2.25649c0.98133,-0.62865 2.06143,-0.46463 2.09339,-0.67807c0.12855,-0.85863 -3.911,-0.7193 -2.65555,-1.26969c2.99976,-1.31511 9.87925,-1.02526 12.48622,0.81793c2.05934,1.456 1.28817,4.75491 1.58637,7.24938c0.03249,0.27175 0.11374,0.98072 0.4789,1.09301c0.75545,0.23228 2.06606,-0.26931 2.04834,0.27644c-0.01352,0.41647 -1.37913,1.09095 -2.38551,1.16482c-0.84407,0.06198 -1.32441,-0.4956 -1.62208,-0.06543c-0.35961,0.51973 1.02135,0.72077 1.45551,1.46621c0.56188,0.96474 0.24555,2.47901 -0.13209,3.01314z" fill="#800000" stroke="#000000" stroke-width="0.3" stroke-linecap="butt"/><g stroke="#000000" stroke-width="0.3"><path d="M240.25138,194.6441c0,0 1.41216,-1.89425 1.74113,-2.94809c0.27286,-0.87411 0.09602,-2.93715 0.09602,-2.93715l1.29247,-4.14039l2.33369,0.74595l-1.48452,4.4097c0,0 2.48411,0.98049 1.55665,3.68518c-0.41439,0.96449 -3.18897,2.16257 -3.18897,2.16257l-0.92774,2.7426c0,0 1.17868,0.95742 1.50384,1.46855c0.40087,0.63016 0.72214,2.03068 0.72214,2.03068c0,0 -1.50314,1.58547 -2.65144,1.27593c-0.78513,-0.21166 -0.9518,-2.23624 -1.49943,-2.38388c-0.52428,-0.14132 0.87806,3.91303 -2.96255,2.69772c-1.77595,-0.56198 -0.50167,-3.64259 -0.50167,-3.64259c0,0 2.63269,-1.13249 3.11187,-2.06049c0.40751,-0.78919 0.85851,-3.10629 0.85851,-3.10629z" fill="#ff0000" stroke-linecap="butt"/><path d="M244.04261,189.58993l1.4942,-4.20541c0,0 1.12992,0.59695 1.62091,1.82628c0.49099,1.22933 -0.34853,3.48331 -0.34853,3.48331c0,0 0.06461,2.03909 -0.1958,2.9193c-0.26375,0.89153 -1.37682,2.39632 -1.37682,2.39632l-1.29607,5.85595c0,0 -0.07588,-0.64354 -1.00191,-1.9094c-1.48253,-2.02657 -1.50146,-1.72885 -1.50146,-1.72885l0.93621,-2.88814c0,0 2.0643,0.62733 3.25909,-2.26217c0.91682,-2.48452 -1.58985,-3.48719 -1.58985,-3.48719z" fill="#404040" stroke-linecap="butt"/><path d="M239.50225,187.85769c0,0 0.32372,-2.08904 1.43673,-2.80567c1.113,-0.71664 2.37968,-0.54752 2.37968,-0.54752l-1.25822,4.17091c0,0 0.0756,2.14674 -0.21712,3.08267c-0.32568,1.0413 -1.64865,2.88281 -1.64865,2.88281c0,0 -0.51404,2.3565 -0.99965,3.2338c-0.49125,0.8875 -1.93115,2.0609 -1.93115,2.0609l-1.01844,-0.2571c0,0 0.57241,-2.38455 1.03149,-3.06893c0.39699,-0.59181 1.56386,-0.80014 1.56386,-0.80014l0.99655,-4.41466z" data-paper-data="{&quot;index&quot;:null}" fill="#404040" stroke-linecap="butt"/><path d="M246.40709,193.98772c0,0 -0.62073,2.37211 -2.35152,1.50836c-0.50108,-0.25007 -1.08223,-2.49599 -1.08223,-2.49599" fill="none" stroke-linecap="round"/><path d="M243.10281,190.9528c0,0 -0.02773,1.12931 -1.48808,1.79634c-1.84808,0.84413 -1.5118,-1.32614 -1.5118,-1.32614" fill="none" stroke-linecap="round"/></g><g stroke="#000000"><path d="M240.19547,203.78847c0,1.04084 -1.22952,2.03846 -2.46154,2.03846c-1.23202,0 -1.46154,-1.61301 -1.46154,-2.65385c0,-1.04085 0.22952,1.03846 1.46154,1.03846c1.23202,0 2.46154,-1.46392 2.46154,-0.42308z" fill="#e480ff" stroke-width="0.3" stroke-linecap="butt"/><path d="M237.73393,204.36538v1.23077" fill="none" stroke-width="1" stroke-linecap="round"/><path d="M237.68519,206.48269c0.99836,0 2.80809,-4.00512 2.26923,-1.88462c-0.45029,1.77194 -2.8035,6.81687 -2.8035,6.81687l-0.85034,2.76005c0,0 -0.33902,-1.51771 -1.46718,-1.52073c-0.83775,-0.00224 -1.30623,1.50223 -1.30623,1.50223l-2.10847,-0.20542c0,0 6.56964,-2.97141 4.30495,-9.73762c-0.58649,-2.10782 0.96318,2.26923 1.96154,2.26923z" data-paper-data="{&quot;index&quot;:null}" fill="#252525" stroke-width="0.3" stroke-linecap="butt"/></g><path d="M242.88701,185.44549l-0.1,-1.32381c0,0 0.70379,0.16122 1.25476,0.17143c0.55097,0.01021 1.63571,-0.3119 1.63571,-0.3119l-0.29047,1.36428z" fill="#e480ff" stroke="#000000" stroke-width="0.3" stroke-linecap="butt"/><path d="M245.67204,185.41682c-0.12501,0.76866 -0.99393,1.07188 -1.72969,0.78328c-0.73576,-0.2886 -1.29478,-1.09394 -0.89933,-1.81451" fill="none" stroke="#fff700" stroke-width="0.3" stroke-linecap="round"/><path d="M245.12165,175.4389c0,0 0.62045,-1.75056 0.40218,-2.013c-0.22704,-0.273 -1.61904,1.10951 -1.61904,1.10951c0,0 -1.04765,-0.4961 -1.55843,-0.35412c-0.61878,0.17199 -1.31326,1.50733 -1.31326,1.50733l-0.01636,-1.41163c0,0 1.09307,-0.94947 1.09286,-1.00612c-0.00078,-0.20523 1.7908,0.10592 1.7908,0.10592c0,0 0.74139,-0.56917 1.43397,-0.6408c0.49113,-0.05079 0.98957,0.33529 1.03971,0.51976c0.13657,0.50241 -0.12583,1.99098 -0.12583,1.99098z" data-paper-data="{&quot;index&quot;:null}" fill="#800000" stroke="#000000" stroke-width="0.3" stroke-linecap="butt"/><path d="M242.92283,184.80281c0.60602,0.19371 0.06252,0.38649 -0.16844,1.10906c-0.23096,0.72257 -0.90255,1.7117 -1.50857,1.51799c-0.60602,-0.19371 -0.88309,-1.02091 -0.65213,-1.74348c0.23096,-0.72258 1.72312,-1.07728 2.32914,-0.88357z" fill="#404040" stroke="none" stroke-width="0" stroke-linecap="butt"/><path d="M240.16201,182.47075l0.07476,-6.05018c0,0 0.42599,0.02116 0.72063,0.20022c0.23936,0.14547 0.80741,0.54016 0.80741,0.54016c0,0 0.02479,-0.45017 0.25267,-0.62391c0.235,-0.17917 0.73055,-0.17892 0.92941,-0.18386c0.21371,-0.00531 0.7151,0.05688 1.01089,0.21951c0.33547,0.18444 0.71529,0.50917 0.71529,0.50917c0,0 0.45464,-0.32656 0.68089,-0.44482c0.43327,-0.22646 0.90805,-0.36629 0.90805,-0.36629l-0.1,3.9l2.2,2.2c0,0 -2.35576,1.97568 -4.15476,1.99762c-1.79899,0.02194 -4.04524,-1.89762 -4.04524,-1.89762z" fill="#e480ff" stroke="#000000" stroke-width="0.3" stroke-linecap="butt"/><path d="M245.91434,181.30524c0.24528,0.46899 0.29642,0.79267 -0.41697,1.20185c-0.63694,0.36533 -0.95657,0.34635 -1.2509,-0.02453c-0.26104,-0.32893 -0.22782,-0.55316 0.36791,-1.15279c0.73236,-0.73717 1.10535,-0.39664 1.29996,-0.02453z" fill="#000000" stroke="none" stroke-width="0" stroke-linecap="butt"/><path d="M243.08701,179.15799c0,0 -1.95,1.32361 -1.95,0.15c0,-1.17361 0.1,-1.925 0.1,-1.925z" fill="#000000" stroke="none" stroke-width="0" stroke-linecap="butt"/><path d="M245.33701,177.38299c0,0 0.1,0.75139 0.1,1.925c0,1.17361 -1.95,-0.15 -1.95,-0.15z" data-paper-data="{&quot;index&quot;:null}" fill="#000000" stroke="none" stroke-width="0" stroke-linecap="butt"/><path d="M241.96084,180.29872l-0.39491,-0.86395l-0.83723,-0.42296l0.91727,-0.31488l0.2875,-0.88988l0.27381,0.87619l0.7119,0.32857l-0.65714,0.30119z" fill="#ff0000" stroke="none" stroke-width="0" stroke-linecap="butt"/><path d="M244.71084,180.26122l-0.39491,-0.86395l-0.83723,-0.42296l0.91727,-0.31488l0.2875,-0.88988l0.27381,0.87619l0.7119,0.32857l-0.65714,0.30119z" fill="#ff0000" stroke="none" stroke-width="0" stroke-linecap="butt"/><path d="M245.08701,176.99549l-1.85,1.75l-1.7,-1.85" fill="none" stroke="#000000" stroke-width="0.2" stroke-linecap="round"/><path d="M246.3027,182.082c0.22519,0.45855 -0.09508,0.9101 -0.57842,1.14747c-0.48334,0.23737 -0.94671,0.17065 -1.1719,-0.2879c-0.22519,-0.45855 0.40204,-0.05818 0.88538,-0.29555c0.48334,-0.23737 0.63975,-1.02257 0.86494,-0.56402z" fill="#ff0000" stroke="#000000" stroke-width="0.2" stroke-linecap="butt"/><path d="M245.29076,182.59233c-0.49343,0.17833 -0.73056,0.18479 -0.78468,0.03422c-0.05412,-0.15057 0.21694,-0.21042 0.71037,-0.38875c0.49343,-0.17833 0.74958,-0.27968 0.8037,-0.12911c0.05412,0.15057 -0.23596,0.30531 -0.7294,0.48364z" fill="#ffffff" stroke="#000000" stroke-width="0.2" stroke-linecap="butt"/><path d="M245.71198,180.99039c0.18971,0.27169 -0.72894,-0.22281 -1.2044,0.10918c-0.47547,0.33199 -0.42982,1.13116 -0.61953,0.85947c-0.18971,-0.27169 -0.74863,-0.75791 -0.27316,-1.0899c0.0836,-0.05837 0.46021,0.0229 0.64433,-0.12212c0.24505,-0.19299 0.31323,-0.61917 0.48869,-0.6818c0.44251,-0.15797 0.85213,0.76485 0.96408,0.92518z" fill="#ff0000" stroke="#000000" stroke-width="0.2" stroke-linecap="butt"/><path d="M244.12277,181.97808l-1.07292,-0.22656" fill="none" stroke="#000000" stroke-width="0.2" stroke-linecap="round"/><path d="M245.78697,180.99901l0.36968,-0.86795" fill="none" stroke="#000000" stroke-width="0.2" stroke-linecap="round"/><path d="M243.87703,181.86553c0,0 -0.39236,-0.38966 -0.37428,-0.70507c0.01808,-0.31541 0.60422,-0.34005 0.60422,-0.34005c0,0 0.47595,-0.07261 0.43828,0.09861c-0.03767,0.17122 -0.66822,0.94651 -0.66822,0.94651z" fill="#000000" stroke="none" stroke-width="0" stroke-linecap="butt"/><path d="M245.36382,182.7361c0.27614,0.11076 0.37751,0.26727 0.22416,0.54348c-0.15336,0.27621 -0.71296,0.00092 -0.71296,0.00092c0,0 -0.56517,-0.35516 -0.45683,-0.493c0.10835,-0.13783 0.6695,-0.16216 0.94564,-0.0514z" fill="#000000" stroke="none" stroke-width="0" stroke-linecap="butt"/><g><path d="M236.81318,181.60361l-0.18096,-3.40476l1.56667,1.33334l-0.1,1.9z" fill="#e480ff" stroke="#000000" stroke-width="0.3" stroke-linecap="butt"/><path d="M237.37363,181.35123l-0.02044,-1.6077l0.89013,0.73771l-0.03199,0.74122z" fill="#ab60bf" stroke="#000000" stroke-width="0.2" stroke-linecap="butt"/><path d="M238.14816,181.60888c0.11495,0.77023 0.4229,1.13963 -0.3658,1.08875c-0.7887,-0.05089 -0.3824,-0.74303 -0.22511,-1.54979" fill="none" stroke="#fff700" stroke-width="0.3" stroke-linecap="round"/></g><g><path d="M247.87276,197.54889l-2.47165,-11.76785l3.07879,-0.31834l1.28029,12.87556l-0.00548,-2.23781c0,0 -1.09367,2.12852 -1.19394,1.67751c-0.08411,-0.37835 -0.75293,-1.4338 -0.75293,-1.4338z" fill="#404040" stroke="#000000" stroke-width="0.3" stroke-linecap="butt"/><path d="M247.81374,195.66621c0.11405,-1.16903 -0.14266,1.32322 0.9339,1.30517c1.12189,-0.0188 1.73175,-2.03391 1.42579,-0.89988c-0.36328,1.34646 -0.47594,1.57987 -1.55265,1.58027c-0.72603,0.00027 -0.9879,-0.1319 -0.80705,-1.98556z" fill="#fff700" stroke="#000000" stroke-width="0.3" stroke-linecap="butt"/><path d="M248.7801,196.19928c1.12189,-0.0188 1.73175,-2.03391 1.42579,-0.89988c-0.36328,1.34646 -0.47594,1.57987 -1.55264,1.58026c-0.72603,0.00027 -0.9879,-0.13191 -0.80705,-1.98557c0.11406,-1.16904 -0.14265,1.32323 0.93391,1.30518z" fill="#fff700" stroke="#000000" stroke-width="0.3" stroke-linecap="butt"/><path d="M249.01024,194.41743c-0.37996,0.0703 -1.2869,0.31699 -1.60235,0.25659c-0.39111,-0.07491 0.32687,-0.67843 0.2302,-0.906c-0.09947,-0.23416 -1.03336,-0.33689 -0.74141,-0.5381c0.22064,-0.15206 1.11476,-0.23354 1.4811,-0.30132c0.85106,-0.15747 1.68256,0.04816 1.85721,0.45931c0.17466,0.41114 -0.37369,0.87207 -1.22475,1.02954z" fill="#e480ff" stroke="#000000" stroke-width="0.3" stroke-linecap="butt"/><path d="M248.91022,196.03459c-0.85106,-0.15747 -1.39941,-0.6184 -1.22475,-1.02953c0.17465,-0.41115 1.00615,-0.61678 1.85721,-0.45931c0.36634,0.06778 1.26046,0.14926 1.4811,0.30132c0.29195,0.2012 -0.64193,0.30394 -0.74141,0.53811c-0.09667,0.22758 0.62131,0.83108 0.23019,0.90599c-0.31545,0.06041 -1.22237,-0.18627 -1.60234,-0.25657z" data-paper-data="{&quot;index&quot;:null}" fill="#e480ff" stroke="#000000" stroke-width="0.3" stroke-linecap="butt"/><path d="M251.96946,195.7451c-1.25221,-0.29371 -1.57619,0.62247 -1.60099,0.22119c-0.05774,-0.9342 0.83566,-1.02373 2.08786,-0.73002c1.25222,0.29371 1.87891,1.11183 1.87891,1.11183c0,0 -1.11357,-0.30928 -2.36578,-0.60299z" data-paper-data="{&quot;index&quot;:null}" fill="#ff0000" stroke="#000000" stroke-width="0.3" stroke-linecap="butt"/><path d="M245.95102,194.12796c-1.25221,0.29371 -2.36579,0.603 -2.36579,0.603c0,0 0.6267,-0.81813 1.87891,-1.11184c1.25221,-0.29371 2.1456,-0.20418 2.08786,0.73003c-0.0248,0.40129 -0.34878,-0.5149 -1.60099,-0.22119z" fill="#ff0000" stroke="#000000" stroke-width="0.3" stroke-linecap="butt"/><path d="M248.55915,192.99613c-0.37996,0.0703 -1.28689,0.31698 -1.60234,0.25657c-0.39111,-0.07491 0.32686,-0.67842 0.23019,-0.90599c-0.09947,-0.23416 -1.03336,-0.3369 -0.7414,-0.5381c0.22064,-0.15206 1.11476,-0.23355 1.4811,-0.30133c0.85106,-0.15747 1.68256,0.04816 1.85721,0.45931c0.17466,0.41114 -0.37369,0.87207 -1.22475,1.02954z" fill="#e480ff" stroke="#000000" stroke-width="0.3" stroke-linecap="butt"/><path d="M245.49991,192.70665c-1.25221,0.29371 -2.36578,0.60298 -2.36578,0.60298c0,0 0.6267,-0.81811 1.8789,-1.11182c1.25221,-0.29371 2.1456,-0.20419 2.08787,0.73002c-0.0248,0.40129 -0.34878,-0.51489 -1.601,-0.22118z" fill="#ff0000" stroke="#000000" stroke-width="0.3" stroke-linecap="butt"/><path d="M248.10807,191.57482c-0.37995,0.0703 -1.28688,0.31698 -1.60233,0.25657c-0.39112,-0.07491 0.32685,-0.67841 0.23018,-0.90599c-0.09948,-0.23416 -1.03337,-0.3369 -0.74141,-0.53811c0.22064,-0.15206 1.11476,-0.23354 1.4811,-0.30132c0.85105,-0.15747 1.68256,0.04815 1.85721,0.4593c0.17464,0.41114 -0.3737,0.87207 -1.22476,1.02954z" fill="#e480ff" stroke="#000000" stroke-width="0.3" stroke-linecap="butt"/><path d="M245.04882,191.28534c-1.25221,0.29371 -2.36578,0.60299 -2.36578,0.60299c0,0 0.62669,-0.81811 1.8789,-1.11183c1.25221,-0.29371 2.1456,-0.20418 2.08787,0.73003c-0.0248,0.40129 -0.34878,-0.5149 -1.60099,-0.22119z" fill="#ff0000" stroke="#000000" stroke-width="0.3" stroke-linecap="butt"/><path d="M249.46999,195.60151c0,0 0.34476,1.03136 -0.58954,1.27435c-0.74452,0.19364 -0.8776,-0.98706 -0.8776,-0.98706z" fill="#808080" stroke="#000000" stroke-width="0.3" stroke-linecap="butt"/><g><path d="M246.55319,190.07738l-0.15479,-0.48533l1.8217,-0.22495l0.15479,0.48533z" fill="#808080" stroke="#000000" stroke-width="0.1" stroke-linecap="butt"/><path d="M245.91684,189.65939l-0.09816,-0.3586l2.44183,-0.35062l0.09816,0.35859z" fill="#bfbfbf" stroke="#000000" stroke-width="0.1" stroke-linecap="butt"/><path d="M247.94845,187.00635c0.49045,0.57505 1.1866,1.94257 0.31755,1.99474c-0.81974,0.0492 -1.52617,0.15742 -2.39818,0.2382c-0.71009,0.06578 -0.78043,-1.92332 -0.23139,-2.28309c0.54905,-0.35978 1.82157,-0.52489 2.31202,0.05016z" fill="#808080" stroke="#000000" stroke-width="0.1" stroke-linecap="butt"/><path d="M246.53791,188.59727c0.53423,0.6264 2.64903,0.2641 1.85236,0.3224c-0.75209,0.05501 -1.55149,0.22506 -2.43179,0.23121c-0.78934,0.00552 -0.74133,-1.42557 -0.41839,-2.01562c0.39575,-0.72308 0.4636,0.83562 0.99783,1.46202z" fill="#404040" stroke="none" stroke-width="0" stroke-linecap="butt"/><path d="M245.41114,188.20782c0,0 1.12211,-0.25994 1.66169,-0.29918c0.48585,-0.03535 1.43148,0.0742 1.43148,0.0742" data-paper-data="{&quot;index&quot;:null}" fill="none" stroke="#000000" stroke-width="0.1" stroke-linecap="round"/><path d="M245.51022,188.81389c0,0 1.12211,-0.25996 1.66167,-0.2992c0.48585,-0.03535 1.4315,0.07421 1.4315,0.07421" data-paper-data="{&quot;index&quot;:null}" fill="none" stroke="#000000" stroke-width="0.1" stroke-linecap="round"/><path d="M245.24096,187.68412c0,0 1.12211,-0.25994 1.66168,-0.29919c0.48585,-0.03535 1.43148,0.07421 1.43148,0.07421" data-paper-data="{&quot;index&quot;:null}" fill="none" stroke="#000000" stroke-width="0.1" stroke-linecap="round"/><path d="M245.26734,187.17876c0,0 0.97322,-0.24913 1.44403,-0.28338c0.42395,-0.03083 1.25503,0.08705 1.25503,0.08705" data-paper-data="{&quot;index&quot;:null}" fill="none" stroke="#000000" stroke-width="0.1" stroke-linecap="round"/><path d="M246.21106,189.04997c0,0 -0.3923,-0.82916 -0.48797,-1.21735c-0.08613,-0.34955 -0.06039,-1.00806 -0.06039,-1.00806" data-paper-data="{&quot;index&quot;:null}" fill="none" stroke="#000000" stroke-width="0.1" stroke-linecap="round"/><path d="M246.85852,189.05377c0,0 -0.3923,-0.82916 -0.48795,-1.21734c-0.08613,-0.34955 -0.06039,-1.00806 -0.06039,-1.00806" data-paper-data="{&quot;index&quot;:null}" fill="none" stroke="#000000" stroke-width="0.1" stroke-linecap="round"/><path d="M247.59162,186.79775c0,0 0.36816,0.62986 0.46755,0.97845c0.1104,0.38711 0.16532,1.2408 0.16532,1.2408" data-paper-data="{&quot;index&quot;:null}" fill="none" stroke="#000000" stroke-width="0.1" stroke-linecap="round"/><path d="M246.97069,186.89379c0,0 0.36815,0.62986 0.46755,0.97845c0.1104,0.38711 0.16533,1.24081 0.16533,1.24081" data-paper-data="{&quot;index&quot;:null}" fill="none" stroke="#000000" stroke-width="0.1" stroke-linecap="round"/></g></g><g stroke="#000000" stroke-width="0.3" stroke-linecap="butt"><path d="M238.2115,183.55236l2.72241,1.72561l0.56787,2.2981l-3.19347,5.03688c0,0 -2.26318,3.09857 -3.3976,2.75393c-1.01421,-0.38449 -0.76931,-0.08372 -1.00714,-1.16005c-0.6315,-2.858 -0.53115,-1.83658 -0.53115,-1.83658l4.31232,-1.86169z" fill="#404040"/><path d="M236.51786,194.7278c-0.16026,0.50135 -0.87558,1.87509 -2.0177,1.51002c-1.14212,-0.36507 -0.78152,-1.77523 -0.62127,-2.27658c0.16026,-0.50135 -0.20837,0.93392 0.93375,1.29899c1.14212,0.36507 1.86547,-1.03378 1.70521,-0.53243z" fill="#fff700"/><path d="M236.23656,195.44012c-0.16026,0.50135 -0.87557,1.8751 -2.0177,1.51003c-1.14212,-0.36507 -0.78153,-1.77525 -0.62127,-2.2766c0.16026,-0.50135 -0.20836,0.93391 0.93376,1.29898c1.14212,0.36507 1.86547,-1.03377 1.70521,-0.53241z" fill="#fff700"/><path d="M234.65757,199.67453l-0.6746,-1.0383l1.46116,-0.61971l-1.50564,0.51957l-0.91372,-0.82773l-0.69266,-1.39909l1.03341,-0.74198c0,0 0.20285,1.06537 0.80714,1.25852c0.63242,0.20215 1.663,-0.54591 1.663,-0.54591l0.30069,1.09664l1.62933,0.27509l-0.31723,1.28339z" fill="#e480ff"/></g><path d="M244.67251,181.17381c0.43963,-0.28595 0.67215,-0.34756 0.76601,-0.21617c0.09386,0.13139 -0.15787,0.25202 -0.5975,0.53797c-0.43963,0.28595 -0.66549,0.44279 -0.75935,0.31139c-0.09386,-0.13139 0.15121,-0.34724 0.59084,-0.6332z" fill="#ffffff" stroke="#000000" stroke-width="0.2" stroke-linecap="butt"/></g></g></svg>