<svg version="1.1" xmlns="http://www.w3.org/2000/svg" xmlns:xlink="http://www.w3.org/1999/xlink" width="28.5633" height="27.49163" viewBox="0,0,28.5633,27.49163"><g transform="translate(-222.98472,-173.39748)"><g data-paper-data="{&quot;isPaintingLayer&quot;:true}" fill-rule="nonzero" stroke-linejoin="miter" stroke-miterlimit="10" stroke-dasharray="" stroke-dashoffset="0" style="mix-blend-mode: normal"><path d="M241.9643,187.77761l-1.71428,-3.64286l1.85715,0.07143l-0.23248,2.08154l2.01819,1.13275z" fill="#bfbfbf" stroke="#000000" stroke-width="0.3" stroke-linecap="butt"/><path d="M241.9643,187.70618l1.85714,-0.35715l0.28572,1.28572l-0.14286,1.64286z" fill="#bf9360" stroke="#000000" stroke-width="0.3" stroke-linecap="butt"/><path d="M233.25001,189.34902l-0.22822,-2.22528l0.93389,0.87533l1.27665,-1.06037l0.80339,0.83891c0,0 2.70275,1.12147 3.78585,1.15528c1.10686,0.03455 2.14272,-0.98129 2.14272,-0.98129l0.19611,1.64218l2.84949,-0.15226l0.24034,3.33491l-1.91615,0.1175l-0.6555,-1.11632l-1.51166,-0.84076l-1.51413,1.24836c0,0 -2.19797,-0.0379 -1.77751,-0.29363c0.67703,-0.4118 -1.18937,0.32779 -1.18937,0.32779c0,0 -1.65552,0.31007 -2.26303,0.31103c-0.46214,0.00073 -1.06669,-0.30576 -1.06669,-0.30576z" fill="#565fff" stroke="#000000" stroke-width="0.3" stroke-linecap="butt"/><path d="M235.32861,186.96349l-1.36201,0.75858l-0.82583,-0.79045l-0.04364,-2.08134l2.30075,0.30451z" fill="#ffc380" stroke="#000000" stroke-width="0.3" stroke-linecap="butt"/><g><path d="M246.21174,190.42764c-1.07485,-0.33641 -0.89272,-0.23701 -1.67432,-0.57301c-0.78161,-0.33601 -0.55969,-0.25116 -1.39747,-0.64968c-0.03505,-0.01667 0.08612,-1.38649 0.6153,-1.16019c0.58707,0.25106 1.61241,0.55471 1.17664,0.3651c-1.03354,-0.44968 -1.20679,-1.02963 -0.95283,-1.20014c0.58198,-0.39076 1.58077,0.26621 1.25353,0.10635c-0.25898,-0.12652 -0.85128,-0.35551 -0.9675,-0.5689c-0.27562,-0.50605 0.21418,-1.06762 0.40774,-0.99857c0.8381,0.29903 1.36611,0.39755 1.75316,0.56394c0.34998,0.15045 0.38223,0.26239 1.35663,0.79595c0.85021,0.46555 -1.08313,3.47179 -1.57086,3.31914z" data-paper-data="{&quot;index&quot;:null}" fill="#ffc380" stroke="#000000" stroke-width="0.3" stroke-linecap="butt"/><path d="M244.85494,185.79225l0.33441,-0.72299l2.59859,1.19369l-0.33441,0.72299z" fill="#808080" stroke="#000000" stroke-width="0.3" stroke-linecap="butt"/><path d="M244.63312,184.87552l0.26799,-0.5211l3.53723,1.53954l-0.26799,0.5211z" fill="#bfbfbf" stroke="#000000" stroke-width="0.3" stroke-linecap="butt"/><path d="M250.03573,183.13474c0,1.10457 -0.60676,3.35169 -1.78572,2.71428c-1.11207,-0.60125 -2.14286,-1.03829 -3.35715,-1.64285c-0.9888,-0.4923 1.10972,-3 2.21429,-3c1.10457,0 2.92857,0.824 2.92857,1.92857z" fill="#808080" stroke="#000000" stroke-width="0.3" stroke-linecap="butt"/><path d="M246.4643,183.95617c0,1.20319 3.12803,2.46429 2.03572,1.89286c-1.03116,-0.53944 -2.25,-0.97538 -3.39285,-1.67857c-1.02475,-0.63052 0.61234,-2.35513 1.67857,-2.82143c1.3066,-0.57143 -0.32143,1.40395 -0.32143,2.60714z" fill="#404040" stroke="none" stroke-width="0" stroke-linecap="butt"/><path d="M245.43878,182.5665c0,0 1.73425,0.58571 2.47378,0.97301c0.66591,0.34874 1.76574,1.24724 1.76574,1.24724" data-paper-data="{&quot;index&quot;:null}" fill="none" stroke="#000000" stroke-width="0.2" stroke-linecap="round"/><path d="M244.89959,183.3933c0,0 1.73425,0.58571 2.47378,0.97301c0.66591,0.34874 1.76574,1.24724 1.76574,1.24724" data-paper-data="{&quot;index&quot;:null}" fill="none" stroke="#000000" stroke-width="0.2" stroke-linecap="round"/><path d="M245.79558,181.78382c0,0 1.73425,0.58571 2.47378,0.97301c0.66591,0.34874 1.76574,1.24724 1.76574,1.24724" data-paper-data="{&quot;index&quot;:null}" fill="none" stroke="#000000" stroke-width="0.2" stroke-linecap="round"/><path d="M246.38586,181.18242c0,0 1.53018,0.47883 2.17549,0.81678c0.58106,0.3043 1.52388,1.12058 1.52388,1.12058" data-paper-data="{&quot;index&quot;:null}" fill="none" stroke="#000000" stroke-width="0.2" stroke-linecap="round"/><path d="M245.54421,184.25006c0,0 0.40633,-1.33841 0.71015,-1.89397c0.27357,-0.50025 1.03159,-1.29089 1.03159,-1.29089" data-paper-data="{&quot;index&quot;:null}" fill="none" stroke="#000000" stroke-width="0.2" stroke-linecap="round"/><path d="M246.3756,184.77751c0,0 0.40633,-1.33841 0.71015,-1.89397c0.27357,-0.50025 1.03159,-1.29089 1.03159,-1.29089" data-paper-data="{&quot;index&quot;:null}" fill="none" stroke="#000000" stroke-width="0.2" stroke-linecap="round"/><path d="M249.80481,182.5896c0,0 -0.21816,1.07336 -0.47355,1.58314c-0.28361,0.56614 -1.15233,1.66239 -1.15233,1.66239" data-paper-data="{&quot;index&quot;:null}" fill="none" stroke="#000000" stroke-width="0.2" stroke-linecap="round"/><path d="M248.89777,182.20661c0,0 -0.21816,1.07335 -0.47355,1.58313c-0.28361,0.56614 -1.15233,1.6624 -1.15233,1.6624" data-paper-data="{&quot;index&quot;:null}" fill="none" stroke="#000000" stroke-width="0.2" stroke-linecap="round"/></g><g><path d="M240.10024,189.04775c-1.04347,0 -4.33496,-1.34742 -4.67868,-1.98067c-0.12314,-0.22687 0.29642,-1.33805 0.12648,-1.98994c-0.07608,-0.29184 -2.44908,-0.03915 -2.6187,-0.24013c-0.27371,-0.32429 1.5653,-0.78742 1.5653,-0.78742c0,0 -0.51094,-0.75159 -0.51094,-0.87905c0,-0.55366 1.08259,-0.85373 2.51548,0.01094c0.82964,0.50064 2.56554,0.9853 3.38678,0.9853c1.06683,0 0.72974,1.19367 1.17541,1.83451c0.45523,0.65458 1.30078,1.47557 1.30078,1.9274c0,0.89418 -0.10537,1.11905 -2.26191,1.11905z" fill="#ffffff" stroke="#000000" stroke-width="0.3" stroke-linecap="butt"/><path d="M239.03696,188.43892c-1.02015,0.01307 -1.48933,-1.12928 -1.48933,-1.12928c-0.28738,-0.92783 0.55239,-1.79556 1.47619,-1.85714c0.9238,-0.06159 1.4598,0.82565 1.38095,1.66667c0,0 -0.22562,1.30512 -1.36781,1.31975z" fill="none" stroke="#ff0000" stroke-width="0.3" stroke-linecap="round"/><path d="M239.9762,185.9287l-1.83333,2.11904" fill="none" stroke="#ff0000" stroke-width="0.3" stroke-linecap="round"/><path d="M237.50001,183.83346v0l2.57143,0.52381c0,0 0.35279,0.16702 0.43747,0.32867c0.08964,0.17114 0.08634,0.67133 0.08634,0.67133z" fill="#bfbfbf" stroke="none" stroke-width="0" stroke-linecap="butt"/></g><g stroke-linecap="butt"><path d="M240.7515,191.22581l1.75842,-0.00996l0.21187,-2.02916l1.57515,0.08147l-0.29828,1.71239c0,0 4.04813,-1.67646 4.16135,-1.6657c0.33032,0.03139 2.77114,0.53483 2.64372,1.65455c-0.12353,1.08535 -1.44734,1.68045 -2.43961,2.21834c-0.96954,0.52558 -3.25831,2.60676 -4.99092,2.41403c-2.07769,-0.23111 -3.54646,-2.8059 -3.54646,-2.8059z" fill="#ff0000" stroke="#000000" stroke-width="0.3"/><path d="M248.18367,193.41509c-1.38453,0.75054 -6.66868,1.76476 -7.38622,0.83013c-0.71754,-0.93463 -1.37526,-2.1045 0.00927,-2.85504c0.51693,-0.28023 1.26383,0.01561 2.2101,-0.03733c1.58822,-0.08885 3.48314,-0.31585 3.93278,0.26982c0.71754,0.93463 2.61859,1.04186 1.23406,1.7924z" fill="#bf0000" stroke="none" stroke-width="0"/><path d="M247.98586,189.37687c0.35325,-0.1915 -0.97888,0.42321 -0.27104,1.34522c0.70784,0.92201 1.40636,1.34275 1.0531,1.53425c-0.35326,0.19151 -1.66976,-0.34764 -2.37761,-1.26965c-0.70783,-0.922 1.24229,-1.41831 1.59555,-1.60982z" fill="#ffffff" stroke="#000000" stroke-width="0.3"/><path d="M244.99642,191.48323c-0.70784,-0.92201 1.24229,-1.41833 1.59554,-1.60984c0.35325,-0.1915 -0.97889,0.42322 -0.27104,1.34522c0.70784,0.92201 1.40635,1.34276 1.0531,1.53425c-0.35325,0.1915 -1.66976,-0.34765 -2.37761,-1.26966z" fill="#ffffff" stroke="#000000" stroke-width="0.3"/><path d="M243.6025,191.97976c-0.70784,-0.92201 1.2423,-1.41832 1.59555,-1.60983c0.35325,-0.1915 -0.97888,0.42323 -0.27104,1.34524c0.70784,0.92201 1.40634,1.34274 1.05309,1.53423c-0.35325,0.1915 -1.66976,-0.34764 -2.3776,-1.26965z" fill="#ffffff" stroke="#000000" stroke-width="0.3"/><path d="M251.05878,190.59347c0.2618,0.34101 1.33935,2.03429 -2.49365,4.10464c-3.77608,2.03961 -7.09745,0.54077 -7.34376,0.19177c-0.8086,-1.14574 2.74183,0.58921 6.35062,-1.20795c4.01893,-2.00141 3.225,-3.42948 3.4868,-3.08847z" fill="#ffffff" stroke="#000000" stroke-width="0.3"/></g><g data-paper-data="{&quot;index&quot;:null}" stroke-linecap="butt"><path d="M231.34003,191.2181c0.25627,-0.21623 0.03048,-0.55708 0.24395,-0.79751c0.67708,-0.7626 1.61593,-1.37481 2.01497,-0.90185c0.21389,0.2535 -0.91272,2.48612 -0.19657,2.92233c1.04121,0.63416 3.91108,-0.47852 3.27763,0.05595c-0.28772,0.24276 -0.44936,0.54908 -2.30924,2.09166c-1.77674,1.47362 -6.24522,6.4297 -8.18857,4.16126c-3.00794,-3.51108 -0.86308,-4.67408 -0.7785,-5.71546c0.06348,-0.78209 2.78539,-0.69182 2.53706,-1.09135c-0.70982,-1.14205 -0.76068,-0.68317 -0.54775,-1.25096c0.65986,-1.75956 2.02459,-1.52809 1.86786,-1.71385c-0.52485,-0.62205 1.01001,3.14186 2.07915,2.23978z" fill="#ff0000" stroke="#000000" stroke-width="0.3"/><path d="M225.60912,192.95467c0.61184,-1.31333 3.17943,1.07491 3.87299,1.89691c0.69356,0.822 1.89865,2.08446 0.19484,3.48535c-0.84109,0.75343 -1.68771,1.0493 -2.40615,0.9086c-0.41192,-0.08067 -0.48551,0.04618 -1.24433,-0.85851c-1.07071,-1.27656 -1.20301,-2.10344 -1.28184,-2.742c-0.14343,-1.16166 0.3529,-1.59216 0.86452,-2.69038z" fill="#bf0000" stroke="none" stroke-width="0"/><path d="M229.69349,194.81098c-0.73104,-0.86642 -1.97176,-1.022 -1.40665,-1.49881c0.56512,-0.47681 1.47133,-0.10786 2.20237,0.75857c0.73104,0.86642 1.07422,1.64155 0.50911,2.11836c-0.56512,0.47681 -0.57378,-0.5117 -1.30482,-1.37813z" data-paper-data="{&quot;index&quot;:null}" fill="#ffffff" stroke="#000000" stroke-width="0.3"/><path d="M230.68907,193.97096c-0.73104,-0.86642 -1.97176,-1.02199 -1.40664,-1.4988c0.56512,-0.47681 1.47133,-0.10786 2.20237,0.75856c0.73104,0.86642 1.07422,1.64155 0.50911,2.11836c-0.5651,0.4768 -0.57376,-0.51172 -1.3048,-1.37814z" data-paper-data="{&quot;index&quot;:null}" fill="#ffffff" stroke="#000000" stroke-width="0.3"/><path d="M231.66329,193.21783c-0.73104,-0.86642 -1.97176,-1.02199 -1.40664,-1.4988c0.56512,-0.47681 1.47133,-0.10786 2.20237,0.75856c0.73104,0.86642 1.07422,1.64155 0.50911,2.11836c-0.5651,0.4768 -0.57377,-0.51172 -1.30481,-1.37814z" data-paper-data="{&quot;index&quot;:null}" fill="#ffffff" stroke="#000000" stroke-width="0.3"/><path d="M225.54381,192.59659c0.41236,-0.34793 -2.64284,2.72977 0.16402,5.74939c2.5204,2.71148 5.58705,-0.89213 4.26833,0.2894c-0.40174,0.35994 -3.35911,3.9177 -5.91887,0.89666c-2.59833,-3.06659 1.07412,-6.58748 1.48648,-6.93541z" fill="#ffffff" stroke="#000000" stroke-width="0.3"/><path d="M224.30428,199.1515c0.29332,-0.24748 1.12655,0.73472 2.12385,0.92735c1.07997,0.2086 2.15604,-0.36191 2.63978,-0.78042c1.13342,-0.98058 -0.7121,0.49752 -1.32304,1.013c-0.2751,0.23211 -0.65478,0.21243 -0.94135,0.26459c-0.34992,0.06367 -0.5849,-0.01831 -1.19629,-0.21698c-1.04357,-0.3391 -1.5267,-1.01877 -1.30292,-1.20758z" fill="#bfbfbf" stroke="none" stroke-width="0"/></g><g><path d="M240.99733,185.75987c-0.50518,0.487 -2.09904,-0.34678 -3.56,-1.86229c-1.46096,-1.51551 -2.23579,-3.13885 -1.73062,-3.62585c0.29092,-0.28044 1.87907,-2.93661 3.62186,-2.828c1.28356,0.07999 3.12878,2.85454 3.74841,3.49731c0.43798,0.45434 -3.53451,2.34432 -3.23586,2.78451c0.69754,1.02815 1.50994,1.69331 1.15622,2.03431z" fill="#ffc380" stroke="#000000" stroke-width="0.3" stroke-linecap="butt"/><path d="M238.62091,179.73615l1.0211,-0.58748l0.29004,0.71254l-0.46048,1.23763z" fill="#bf9360" stroke="none" stroke-width="0" stroke-linecap="butt"/><path d="M238.03021,177.71662l-0.01267,-2.06365c0,0 0.86796,-1.35477 1.72835,-1.7087c0.86038,-0.35393 1.30021,-0.33531 2.05176,0.1537c0.75156,0.48901 4.49078,4.0054 4.49078,4.0054c0,0 0.49007,0.40874 0.49565,0.83786c0.00557,0.4291 -0.16219,0.4154 -0.47771,0.7055c-0.56725,0.52156 -2.38065,2.1889 -2.38065,2.1889z" fill="#ff0000" stroke="#000000" stroke-width="0.3" stroke-linecap="butt"/><path d="M239.32312,174.49533c0.83309,-0.80312 1.69089,-1.12769 2.53052,-0.25673c0.4104,0.42572 1.40014,0.90705 1.34258,1.60688c-0.06019,0.73191 -1.18657,1.68214 -1.61244,2.09269c-0.38945,0.37544 -1.27345,0.52695 -1.83172,0.49943c-0.63594,-0.03136 -0.9494,-0.29683 -1.39653,-0.76064c-0.32826,-0.34052 -0.19791,-1.33446 -0.12566,-1.81521c0.11254,-0.74889 0.58587,-0.87729 1.09326,-1.36641z" fill="#bf0000" stroke="#000000" stroke-width="0.2" stroke-linecap="butt"/><path d="M244.1088,183.09845c0,0 -0.17242,-1.2659 -0.9358,-2.05778c-0.76338,-0.79189 -5.30271,-3.09172 -4.46986,-3.89459c0.4152,-0.40025 -1.80101,2.44144 -0.13394,2.6877c1.67689,0.2477 6.76765,-1.10174 7.11412,-1.12049c0.34647,-0.01874 -0.25049,-0.09985 -0.33454,0.75359c-0.07066,0.7175 0.80846,1.51177 0.40049,2.07064c-0.40797,0.55888 -0.77282,-1.70012 -1.01767,-1.22517c-0.46994,0.91155 -0.6228,2.78608 -0.6228,2.78608z" fill="#00f8ff" stroke="#000000" stroke-width="0.3" stroke-linecap="butt"/><path d="M244.09588,182.16381c0,0 -0.60284,-0.93524 -1.26376,-1.62081c-0.66091,-0.68558 -4.99156,-2.33669 -4.1587,-3.13957c0.4152,-0.40026 -1.44639,2.32901 0.09636,2.44631c1.55184,0.11799 6.29942,-1.29318 6.63084,-0.94939c0.11943,0.12389 -0.27747,-0.27196 -0.41333,0.52774c-0.11422,0.67231 0.62262,1.96486 0.62262,1.96486c0,0 -1.01023,-2.09046 -1.2711,-1.63215c-0.50071,0.87965 -0.24292,2.40299 -0.24292,2.40299z" fill="#00b9bf" stroke="#000000" stroke-width="0" stroke-linecap="butt"/><path d="M234.77418,178.77823l2.90721,-2.9878l0.1274,2.05329l-1.4373,1.24668z" fill="#ffc380" stroke="#000000" stroke-width="0.3" stroke-linecap="butt"/><path d="M235.3716,178.9657l1.65751,-1.62625l0.08667,1.15284l-0.55584,0.4914z" fill="#bf9360" stroke="#000000" stroke-width="0.2" stroke-linecap="butt"/><path d="M237.94083,175.49718c0,0 -0.78159,0.06059 -1.09149,0.02616c-0.29427,-0.03269 -0.72341,-0.2278 -0.72341,-0.2278l1.51154,-1.62249c0,0 0.18921,0.47514 0.26108,0.7109c0.06513,0.21361 0.1519,0.64375 0.1519,0.64375z" fill="#565fff" stroke="#000000" stroke-width="0.3" stroke-linecap="butt"/><path d="M237.89189,175.41209c-0.39762,0.3833 -1.09947,0.23171 -1.52841,-0.21324c-0.42893,-0.44495 -0.03704,0.00262 0.36059,-0.38068c0.39762,-0.3833 0.15805,-0.31631 0.587,0.12863c0.42893,0.44495 0.97844,0.082 0.58083,0.46529z" fill="#000dff" stroke="none" stroke-width="0" stroke-linecap="butt"/><path d="M240.51954,180.8823c0,0 -0.99296,0.61667 -1.20286,0.39894c-0.2099,-0.21774 -0.0117,-0.74937 0.44273,-1.18744c0.45442,-0.43806 1.20285,-0.39893 1.20285,-0.39893z" fill="#000000" stroke="none" stroke-width="0" stroke-linecap="butt"/><path d="M240.24773,181.01203l0.79221,-0.96213l1.86433,1.17919l-2.07399,1.07335z" fill="#bf9360" stroke="none" stroke-width="0" stroke-linecap="butt"/><path d="M241.94805,181.95247c-0.45442,0.43806 -0.98556,0.62434 -1.18633,0.41607c-0.20078,-0.20827 0.45925,-1.1703 0.45925,-1.1703l1.18633,-0.41606c0,0 -0.00482,0.73222 -0.45924,1.17029z" fill="#000000" stroke="none" stroke-width="0" stroke-linecap="butt"/><path d="M240.54103,176.03316c0,0 1.0132,0.48242 1.00396,1.29848c-0.00893,0.78788 -1.05851,3.51639 -1.05851,3.51639" fill="none" stroke="#000000" stroke-width="0.3" stroke-linecap="round"/><path d="M241.18792,181.16397c0,0 1.71486,-0.72759 2.20445,-0.79631c0.50057,-0.07027 0.7668,0.37927 0.7668,0.37927" fill="none" stroke="#000000" stroke-width="0.3" stroke-linecap="round"/><path d="M239.47104,184.80334c0,0 -0.36235,-0.99257 -0.98745,-1.89548c-0.33867,-0.48919 -1.06323,-0.9815 -1.14471,-1.20822c-0.23192,-0.64518 0.40179,-1.71018 0.40179,-1.71018c0,0 0.09519,1.09826 0.36476,1.84822c0.30324,0.84363 1.36561,2.96567 1.36561,2.96567z" fill="none" stroke="#000000" stroke-width="0.3" stroke-linecap="round"/><path d="M237.38178,181.19525c0.02058,-0.20676 0.2829,-0.73572 0.2829,-0.73572l0.46983,1.92822l-0.59365,-0.68442c0,0 -0.17966,-0.30133 -0.15907,-0.50808z" fill="#ffffff" stroke="#000000" stroke-width="0" stroke-linecap="butt"/></g></g></g></svg>