<svg version="1.1" xmlns="http://www.w3.org/2000/svg" xmlns:xlink="http://www.w3.org/1999/xlink" width="18.81163" height="27.95701" viewBox="0,0,18.81163,27.95701"><g transform="translate(-232.66806,-174.50836)"><g data-paper-data="{&quot;isPaintingLayer&quot;:true}" fill-rule="nonzero" stroke-linejoin="miter" stroke-miterlimit="10" stroke-dasharray="" stroke-dashoffset="0" style="mix-blend-mode: normal"><g><path d="M245.18607,181.89845c0.03375,0.70133 -1.16302,0.57244 -1.39073,1.19958c-0.31152,0.85791 1.15555,2.6795 0.68561,3.45153c-0.29314,0.48159 -0.47458,-2.06796 -1.29842,-1.94193c-0.36477,0.05581 -0.54549,2.26295 -1.01686,2.76011c-0.81345,0.85795 -1.94405,0.18059 -2.42753,0.20386c-0.38279,0.01842 -1.77057,0.44335 -2.50089,-0.20085c-0.67534,-0.59568 -0.69241,-2.26216 -1.11161,-2.29565c-0.80986,-0.06471 -0.50336,2.28149 -0.86123,1.86091c-0.51325,-0.6032 0.459,-2.37467 0.07575,-3.16936c-0.29343,-0.60845 -1.53529,-0.60872 -1.56946,-1.31895c-0.0086,-0.17883 -0.12629,-0.97519 0.09892,-1.4928c0.24117,-0.55426 0.82467,-0.82838 0.76081,-0.92217c-0.25687,-0.37727 -2.15944,0.94339 -1.75658,0.33393c0.96258,-1.45622 4.3986,-3.49845 6.34479,-3.59209c1.53736,-0.07397 2.39015,1.46237 3.46138,2.34788c0.1167,0.09648 0.41947,0.34923 0.63786,0.27886c0.4518,-0.14561 0.89948,-0.75317 1.09371,-0.53344c0.14822,0.16769 -0.26183,0.86034 -0.72126,1.20473c-0.38534,0.28885 -0.82493,0.22056 -0.80908,0.48269c0.01914,0.31667 0.76197,-0.03722 1.24903,0.11928c0.63034,0.20252 1.04002,0.89594 1.05579,1.22391z" fill="#800000" stroke="#000000" stroke-width="0.3" stroke-linecap="butt"/><path d="M243.69594,182.5318c0.02199,0.70133 -1.66581,1.32336 -3.76982,1.38932c-2.104,0.06597 -3.82747,-0.44911 -3.84945,-1.15045c-0.01267,-0.40389 -0.91593,-3.36389 0.33424,-4.58299c0.92074,-0.89786 4.216,-0.40371 5.10837,-0.43167c0.63077,-0.01978 -0.63419,4.19361 -0.10743,4.26763c1.23035,0.17291 2.26869,0.01707 2.28409,0.50814z" fill="#ffc380" stroke="#000000" stroke-width="0.3" stroke-linecap="butt"/><path d="M241.4803,178.2797c0.01455,0.46385 -0.28188,2.00394 -0.28188,2.00394c0,0 -1.07357,-1.29443 -1.24408,-1.28909c-0.28565,0.00896 -1.44751,1.57873 -1.44751,1.57873c0,0 0.00685,-1.18216 -0.00417,-1.53322c-0.01978,-0.63088 1.05742,-1.17656 1.70144,-1.19675c0.644,-0.02018 1.25643,-0.19446 1.27621,0.43642z" fill="#bf9360" stroke="none" stroke-width="0" stroke-linecap="butt"/><path d="M240.17992,174.86881c0.00127,0.0404 -0.34953,0.04811 -0.45772,0.57378c-0.12838,0.62375 -0.06057,1.33875 0.21434,1.15412c0.29814,-0.20023 1.34222,-0.96038 1.69624,-0.96653c0.84413,-0.01464 0.86136,0.78018 1.0722,0.95304c0.37016,0.30348 0.02347,1.98585 -0.63226,2.48783c-0.40521,0.31021 -0.3754,-1.44842 -0.46815,-1.36267c-0.14062,0.13 -0.24505,0.96805 -0.97077,1.38219c-0.17421,0.09941 -0.09881,-0.32089 -0.26717,-0.69011c-0.14946,-0.32779 -0.54115,-0.60365 -0.71633,-0.61537c-0.13035,-0.00871 -0.02798,0.28121 -0.06876,0.6051c-0.03652,0.29006 -0.21582,0.61766 -0.32231,0.61388c-0.3018,-0.01073 -0.30134,-0.49876 -0.77493,-0.78602c-0.50678,-0.30741 -1.46784,0.01342 -1.55765,0.01622c-0.38169,0.01197 -1.36165,1.08122 -1.36165,1.08122c0,0 -0.06827,-1.8613 -0.09242,-2.63164c-0.03586,-1.14345 0.48334,-1.18239 1.65309,-1.21907c0.53491,-0.01678 1.38917,0.924 1.8199,1.03591c0.23036,0.05984 0.19441,-0.70745 0.40912,-1.26009c0.26173,-0.67363 0.81456,-0.71272 0.82524,-0.37183z" fill="#800000" stroke="#000000" stroke-width="0.3" stroke-linecap="butt"/><path d="M235.64827,177.65264l-0.02984,-0.95192c0,0 0.94624,0.19021 1.626,0.15491c0.20435,-0.01062 0.98427,-0.44549 0.98427,-0.44549l0.77495,0.41605l0.81011,-0.20624c0,0 0.65342,0.07673 1.04241,0.03713c0.49948,-0.05085 1.70677,-0.31699 1.70677,-0.31699c0,0 0.13731,0.3845 0.13475,0.5663c-0.00234,0.16634 -0.05433,0.4793 -0.05433,0.4793c0,0 -1.2633,0.17528 -1.75831,0.16856c-0.37729,-0.00512 -1.05084,-0.20243 -1.05084,-0.20243l-0.7561,0.28965l-0.67734,-0.40522c0,0 -0.78016,0.58058 -1.03199,0.59025c-0.64339,0.02471 -1.7205,-0.17386 -1.7205,-0.17386z" fill="#bf2e00" stroke="none" stroke-width="0" stroke-linecap="butt"/><path d="M238.93103,179.02663c0.01455,0.46384 -0.34589,1.48186 -0.34589,1.48186c0,0 -0.98137,-1.39261 -1.15187,-1.38726c-0.28565,0.00896 -1.49361,1.62781 -1.49361,1.62781c0,0 0.0128,-0.99178 0.0018,-1.34284c-0.01978,-0.63088 1.05742,-1.17656 1.70144,-1.19675c0.644,-0.02018 1.26836,0.18631 1.28814,0.81718z" fill="#bf9360" stroke="none" stroke-width="0" stroke-linecap="butt"/><path d="M238.53178,179.96819c0.01936,0.61773 -0.39112,1.13186 -0.91685,1.14834c-0.52572,0.01647 -0.96762,-0.47092 -0.98697,-1.08866c-0.01936,-0.61773 0.45067,-0.75258 0.97639,-0.76908c0.52572,-0.01647 0.90808,0.09166 0.92744,0.70939z" fill="#000000" stroke="none" stroke-width="0" stroke-linecap="butt"/><path d="M240.69737,179.90028c0.01936,0.61773 -0.39113,1.13185 -0.91686,1.14833c-0.52572,0.01647 -0.96762,-0.47092 -0.98698,-1.08865c-0.01936,-0.61773 0.40455,-0.70349 0.93028,-0.71998c0.52572,-0.01647 0.95418,0.04256 0.97356,0.66028z" fill="#000000" stroke="none" stroke-width="0" stroke-linecap="butt"/><path d="M238.76005,179.65134c0,0 1.70675,-0.73223 2.3307,-0.12072" fill="none" stroke="#000000" stroke-width="0.3" stroke-linecap="round"/><path d="M240.19821,178.4152c0.46165,0.633 -0.49819,0.82555 -0.49819,0.82555" fill="none" stroke="#000000" stroke-width="0.2" stroke-linecap="round"/><path d="M239.57945,178.4346c0.46165,0.633 -0.49818,0.82555 -0.49818,0.82555" fill="none" stroke="#000000" stroke-width="0.2" stroke-linecap="round"/><path d="M236.61078,179.48051c0.58441,-0.6494 2.33368,-0.02551 2.33368,-0.02551" data-paper-data="{&quot;index&quot;:null}" fill="none" stroke="#000000" stroke-width="0.3" stroke-linecap="round"/><path d="M237.69356,179.06544c0,0 -0.97,-0.13204 -0.54893,-0.79272" data-paper-data="{&quot;index&quot;:null}" fill="none" stroke="#000000" stroke-width="0.2" stroke-linecap="round"/><path d="M238.31529,179.14121c0,0 -0.97,-0.13204 -0.54893,-0.79272" data-paper-data="{&quot;index&quot;:null}" fill="none" stroke="#000000" stroke-width="0.2" stroke-linecap="round"/><path d="M238.8463,182.7673c-0.45635,0.0143 -0.91744,-0.75543 -0.91744,-0.75543l1.76104,-0.05521c0,0 -0.38723,0.79634 -0.84358,0.81064z" fill="#ff8080" stroke="#000000" stroke-width="0.2" stroke-linecap="butt"/><path d="M235.27282,179.03349l0.71345,-0.63825" fill="none" stroke="#800000" stroke-width="0.7" stroke-linecap="round"/><path d="M239.96852,181.23705l-0.2793,-0.90794l-0.77517,-0.52817l0.9504,-0.19302l0.4007,-0.84498l0.15762,0.90434l0.66318,0.41829l-0.69071,0.21325z" fill="#ff0000" stroke="none" stroke-width="0" stroke-linecap="butt"/></g><g data-paper-data="{&quot;index&quot;:null}" stroke="#000000" stroke-width="0.3"><path d="M245.6591,184.14327c4.00103,0.11696 1.87249,0.09521 3.99932,0.02904c1.24521,-1.63418 1.07935,-1.70808 1.47909,-1.68094c0.3879,0.02633 0.06914,2.08409 0.06612,2.28567c-0.00297,0.1987 0.09656,1.18764 -1.56955,0.66774c-0.88663,-0.09792 -2.30387,0.93941 -8.30385,0.70506c-2.22796,-0.08702 -1.48393,-1.29894 -1.47279,-2.04255c0,0 1.90588,-0.0779 5.80166,0.03599z" fill="#ffc380" stroke-linecap="butt"/><path d="M250.33405,184.51893c0,0 0.11433,-0.32331 0.25547,-0.43688c0.15709,-0.12638 0.64436,-0.28707 0.64436,-0.28707" fill="none" stroke-linecap="round"/></g><g stroke="#000000" stroke-width="0.3" stroke-linecap="butt"><path d="M238.44646,190.1076c0.65919,0.06862 0.42408,-0.17045 0.70115,0.14675c0.17829,0.20412 0.4933,0.68873 0.4933,1.5477c0,1.45989 -0.39311,3.85509 -0.8605,5.28602c-0.23496,0.71936 0.38039,2.03209 -0.76632,2.01228c-1.07333,0.06803 -0.09521,-1.62121 -0.1502,-2.26141c-0.06296,-0.73299 -0.38965,-1.36587 -0.38965,-2.53689c0,-2.1938 0.43855,-4.25 0.97223,-4.19445z" data-paper-data="{&quot;index&quot;:null}" fill="#ffc380"/><path d="M237.88408,199.31537c1.05654,0 0.95652,-2.90146 0.95652,-1.76087c0,0.49435 0.39904,1.60656 0.27281,2.4583c-0.16502,1.11345 -0.80168,2.10982 -1.05542,2.08518c-0.16318,-0.01584 -1.04196,-0.88555 -1.22293,-2.00612c-0.1694,-1.04889 0.83163,-2.29026 0.83163,-2.84171c0,-1.14059 -0.83915,2.06522 0.21739,2.06522z" data-paper-data="{&quot;index&quot;:null}" fill="#ff0000"/></g><g stroke="#000000" stroke-width="0.3" stroke-linecap="butt"><path d="M242.11831,194.31432c0,1.03968 0.27545,1.99212 0.36374,2.66074c0.09802,0.74222 0.59348,2.10332 -0.64514,2.05786c-1.18467,-0.04348 -0.38418,-1.39273 -0.68205,-2.11184c-0.57423,-1.38627 -1.20322,-3.66227 -1.20322,-5.10675c0,-0.85897 0.315,-1.34358 0.49329,-1.5477c0.27706,-0.3172 0.04196,-0.07813 0.70115,-0.14675c0.53367,-0.05555 0.97222,2.00064 0.97222,4.19445z" fill="#ffc380"/><path d="M242.66938,197.42407c0,0.55145 0.52276,1.83629 0.35336,2.88518c-0.18097,1.12058 -1.05974,1.99029 -1.22293,2.00612c-0.25375,0.02463 -0.89041,-0.97173 -1.05542,-2.08518c-0.12623,-0.85174 0.35977,-2.09438 0.35977,-2.58873c0,-1.14059 -0.31742,1.58696 0.73913,1.58696c1.05654,0 0.82609,-2.94494 0.82609,-1.80435z" fill="#ff0000"/></g><g><path d="M240.92857,185.44045c0,0 0.6731,0.48075 0.55151,0.9829c-0.03638,0.15025 -0.59632,1.55301 -0.52872,2.30742c0.08252,0.92083 1.19382,3.14583 1.10407,3.22708c-0.1792,0.16224 -1.92168,-0.10371 -2.1834,-0.10371c-0.24097,0 -2.18049,0.00152 -2.29265,-0.16619c-0.07292,-0.10904 0.79014,-2.20706 0.73197,-2.83948c-0.05514,-0.5994 -0.85897,-2.88645 -0.85897,-3.26515c0,-0.53575 0.30342,-1.35622 0.64329,-1.71824c0.36919,-0.39326 0.27474,0.12301 0.85671,0.12301c0.55886,0 0.541,-0.39252 0.90724,-0.02629c0.36623,0.36623 1.06895,1.47867 1.06895,1.47867z" fill="#ff0000" stroke="#000000" stroke-width="0.3" stroke-linecap="butt"/><path d="M239.21428,186.29757c0,0.3055 -0.1501,0.53214 -0.25425,0.71972c-0.08861,0.1596 -0.1045,0.30409 -0.38861,0.30409c-0.61803,0 -0.29527,0.5606 -0.45123,0.01786c-0.16868,-0.58695 -0.39973,-1.26602 -0.39973,-1.26602c0,0 0.35104,-0.20959 0.53928,-0.24098c0.50753,-0.08462 0.95454,0.05288 0.95454,0.46534z" fill="#bf0000" stroke="none" stroke-width="0" stroke-linecap="butt"/><path d="M241.30953,186.30937c0,0.27484 -0.00545,0.46305 -0.15936,0.65784c-0.19217,0.24323 -0.66222,0.31835 -0.9835,0.31835c-0.57858,0 -1.2381,0.49899 -1.2381,-0.11905c0,-0.26896 0.5174,-0.73978 0.66543,-1.02445c0.19212,-0.36947 0.29349,-0.57079 0.62028,-0.57079c0.57858,0 1.09524,0.12006 1.09524,0.7381z" fill="#bf0000" stroke="none" stroke-width="0" stroke-linecap="butt"/><path d="M239.30952,186.22616c0,0 -0.0056,0.3899 -0.12574,0.58213c-0.11791,0.18866 -0.58855,0.56073 -0.58855,0.56073" fill="none" stroke="#000000" stroke-width="0.3" stroke-linecap="round"/></g><g stroke="#000000"><path d="M237.45199,185.99127c-1.52174,2.11658 0.06795,-0.04343 -1.45652,2.15217c-0.98333,1.18876 -0.52464,0.71751 -1.03018,1.17754c-0.07948,0.07232 -0.03956,0.04511 3.13017,0.64553c0.10216,-0.22282 1.36236,-0.27175 1.73854,-0.10629c0.34486,0.15168 -0.32242,0.82257 -0.33572,0.89988c-0.06024,0.35 -1.59965,0.35017 -1.65825,0.3576c-0.16088,0.0204 -1.48227,0.1358 -2.39327,-0.27623c-0.86645,-0.39188 -1.32849,-1.31065 -1.32876,-1.3506c-0.00202,-0.30093 1.85573,-3.04686 1.85573,-3.63005c0,-1.11658 1.23551,-1.97826 1.84783,-1.97826c0.61231,0 0.28224,1.20211 -0.36956,2.1087z" fill="#ffc380" stroke-width="0.3" stroke-linecap="butt"/><path d="M238.53895,190.61972l0.91304,0.08696" fill="none" stroke-width="0.1" stroke-linecap="round"/><path d="M239.66938,190.22841l-1,-0.17391" fill="none" stroke-width="0.1" stroke-linecap="round"/></g></g></g></svg>