<svg version="1.1" xmlns="http://www.w3.org/2000/svg" xmlns:xlink="http://www.w3.org/1999/xlink" width="17.61656" height="26.57875" viewBox="0,0,17.61656,26.57875"><g transform="translate(-232.56917,-173.45109)"><g data-paper-data="{&quot;isPaintingLayer&quot;:true}" fill-rule="nonzero" stroke-linejoin="miter" stroke-miterlimit="10" stroke-dasharray="" stroke-dashoffset="0" style="mix-blend-mode: normal"><path d="M241.9643,187.77759l-1.71428,-3.64286l1.85715,0.07143l-0.23248,2.08154l2.01819,1.13275z" fill="#bfbfbf" stroke="#000000" stroke-width="0.3" stroke-linecap="butt"/><path d="M241.9643,187.70616l1.85714,-0.35715l0.28572,1.28572l-0.14286,1.64286z" fill="#bf9360" stroke="#000000" stroke-width="0.3" stroke-linecap="butt"/><path d="M233.25001,189.34901l-0.22822,-2.22528l0.93389,0.87533l1.27665,-1.06037l0.80339,0.83891c0,0 2.70275,1.12147 3.78585,1.15528c1.10686,0.03455 2.14272,-0.98129 2.14272,-0.98129l0.19611,1.64218l2.84949,-0.15226l-0.06735,1.56568l-0.91615,-0.80558l-1.34781,1.57599l-1.51166,-0.84076l-1.01413,1.13725c0,0 -2.69797,0.07321 -2.27751,-0.18252c0.67703,-0.4118 -0.26629,-2.21067 -0.26629,-2.21067l-2.09896,1.62066z" fill="#565fff" stroke="#000000" stroke-width="0.3" stroke-linecap="butt"/><path d="M235.32861,186.96347l-1.36201,0.75858l-0.82583,-0.79045l-0.04364,-2.08134l2.30075,0.30451z" fill="#ffc380" stroke="#000000" stroke-width="0.3" stroke-linecap="butt"/><g><path d="M243.86699,182.72428c0,0.70168 -1.70646,1.27051 -3.8115,1.27051c-2.10504,0 -3.81151,-0.56883 -3.81151,-1.27051c0,-0.40408 -0.81006,-3.39093 0.47769,-4.57026c0.94842,-0.86857 4.22658,-0.27139 5.11939,-0.27139c0.63107,0 -0.76529,4.17168 -0.2411,4.26217c1.22433,0.21138 2.26704,0.08815 2.26704,0.57947z" fill="#ffc380" stroke="#000000" stroke-width="0.3" stroke-linecap="butt"/><path d="M237.88095,180.25449l0.28572,-1.14286l0.71428,0.28571l0.57143,1.19048z" fill="#bf9360" stroke="none" stroke-width="0" stroke-linecap="butt"/><path d="M236.01704,179.27814l-1.4945,-1.42312c0,0 -0.37295,-1.56514 -0.03063,-2.43021c0.34232,-0.86506 0.66098,-1.16879 1.53465,-1.37048c0.87367,-0.20169 6.00041,-0.45323 6.00041,-0.45323c0,0 0.6344,-0.06914 0.94721,0.22466c0.3128,0.2938 0.18649,0.40507 0.17637,0.83356c-0.0182,0.77037 -0.07637,3.2331 -0.07637,3.2331z" fill="#ff0000" stroke="#000000" stroke-width="0.3" stroke-linecap="butt"/><path d="M234.59522,176.11164c0,-1.15717 0.36166,-2 1.57143,-2c0.59133,0 1.62477,-0.3785 2.08866,0.14864c0.48515,0.5513 0.38753,2.02172 0.38753,2.61326c0,0.54095 -0.50444,1.28253 -0.91171,1.66535c-0.46394,0.43608 -0.87263,0.47751 -1.51686,0.47751c-0.47298,0 -1.09809,-0.78367 -1.39406,-1.16934c-0.46105,-0.60077 -0.22498,-1.03067 -0.22498,-1.73542z" fill="#bf0000" stroke="#000000" stroke-width="0.2" stroke-linecap="butt"/><path d="M244.11039,178.63707c0,0 -1.03103,-0.75444 -2.13096,-0.75444c-1.09993,0 -5.90612,1.67189 -5.90612,0.51507c0,-0.57671 0.50774,2.99106 1.84203,1.96178c1.34215,-1.03535 3.90378,-5.63696 4.13075,-5.89941c0.22697,-0.26245 -0.24573,0.11103 0.31037,0.76386c0.46752,0.54884 1.64948,0.46718 1.76869,1.14877c0.11921,0.68159 -1.76035,-0.62355 -1.58835,-0.11765c0.33011,0.97098 1.57358,2.38201 1.57358,2.38201z" fill="#00f8ff" stroke="#000000" stroke-width="0.3" stroke-linecap="butt"/><path d="M243.42854,177.99771c0,0 -1.09171,-0.21507 -2.04398,-0.21507c-0.95227,0 -5.14659,1.97189 -5.14659,0.81507c0,-0.57672 0.67291,2.65772 1.82808,1.62844c1.16198,-1.03535 3.44099,-5.43273 3.91852,-5.43273c0.17208,0 -0.38837,0.01102 0.09308,0.66385c0.40476,0.54884 1.8467,0.91543 1.8467,0.91543c0,0 -2.20614,-0.72354 -2.05723,-0.21765c0.28579,0.97098 1.56142,1.84265 1.56142,1.84265z" fill="#00b9bf" stroke="#000000" stroke-width="0" stroke-linecap="butt"/><path d="M234.52155,182.35909l-0.13334,-4.16666l1.56667,1.33334l-0.1,1.9z" fill="#ffc380" stroke="#000000" stroke-width="0.3" stroke-linecap="butt"/><path d="M235.07114,182.05909l-0.02044,-2.32198l0.89013,0.73771l-0.03199,0.74122z" fill="#bf9360" stroke="#000000" stroke-width="0.2" stroke-linecap="butt"/><path d="M234.35714,177.80212c0,0 -0.49883,0.60475 -0.73869,0.80396c-0.22777,0.18917 -0.66608,0.36271 -0.66608,0.36271l-0.11904,-2.21428c0,0 0.47339,0.19354 0.69301,0.30542c0.19898,0.10136 0.56889,0.33743 0.56889,0.33743z" fill="#565fff" stroke="#000000" stroke-width="0.3" stroke-linecap="butt"/><path d="M234.26191,177.7783c0,0.55228 -0.59625,0.95238 -1.21429,0.95238c-0.61803,0 -0.02381,0.02848 -0.02381,-0.52381c0,-0.55228 -0.11803,-0.33333 0.5,-0.33333c0.61803,0 0.7381,-0.64752 0.7381,-0.09524z" fill="#000dff" stroke="none" stroke-width="0" stroke-linecap="butt"/><path d="M240.02382,179.68307c0,0 -0.24518,1.14286 -0.54762,1.14286c-0.30244,0 -0.54762,-0.51167 -0.54762,-1.14286c0,-0.63118 0.54762,-1.14286 0.54762,-1.14286z" fill="#000000" stroke="none" stroke-width="0" stroke-linecap="butt"/><path d="M239.92858,179.96878l-0.14286,-1.2381l2.14286,-0.52381l-0.66667,2.2381z" fill="#bf9360" stroke="none" stroke-width="0" stroke-linecap="butt"/><path d="M241.78572,179.39735c0,0.63118 -0.23452,1.14286 -0.52381,1.14286c-0.28929,0 -0.52381,-1.14286 -0.52381,-1.14286l0.52381,-1.14285c0,0 0.52381,0.51167 0.52381,1.14285z" fill="#000000" stroke="none" stroke-width="0" stroke-linecap="butt"/><path d="M236.54763,176.30212c0,0 1.05052,-0.39463 1.63162,0.1784c0.56104,0.55325 1.79695,3.20255 1.79695,3.20255" fill="none" stroke="#000000" stroke-width="0.3" stroke-linecap="round"/><path d="M240.69049,179.39735c0,0 0.66634,-1.73957 0.95666,-2.13975c0.29683,-0.40915 0.80524,-0.28882 0.80524,-0.28882" fill="none" stroke="#000000" stroke-width="0.3" stroke-linecap="round"/><path d="M242.11906,183.15925c0,0 -0.96608,-0.428 -2.04997,-0.60462c-0.58724,-0.09569 -1.44454,0.08426 -1.66432,-0.01442c-0.62545,-0.28081 -0.95238,-1.47619 -0.95238,-1.47619c0,0 0.85675,0.6937 1.58377,1.02012c0.81782,0.36719 3.08289,1.07512 3.08289,1.07512z" fill="none" stroke="#000000" stroke-width="0.3" stroke-linecap="round"/><path d="M238.07142,182.15926c-0.13457,-0.15831 -0.33333,-0.71429 -0.33333,-0.71429l1.71429,1l-0.90476,-0.04762c0,0 -0.34163,-0.07978 -0.47619,-0.2381z" fill="#ffffff" stroke="#000000" stroke-width="0" stroke-linecap="butt"/></g><g><path d="M246.21174,190.42763c-1.07485,-0.33641 -0.89272,-0.23701 -1.67432,-0.57301c-0.78161,-0.33601 -0.55969,-0.25116 -1.39747,-0.64968c-0.03505,-0.01667 0.08612,-1.38649 0.6153,-1.16019c0.58707,0.25106 1.61241,0.55471 1.17664,0.3651c-1.03354,-0.44968 -1.20679,-1.02963 -0.95283,-1.20014c0.58198,-0.39076 1.58077,0.26621 1.25353,0.10635c-0.25898,-0.12652 -0.85128,-0.35551 -0.9675,-0.5689c-0.27562,-0.50605 0.21418,-1.06762 0.40774,-0.99857c0.8381,0.29903 1.36611,0.39755 1.75316,0.56394c0.34998,0.15045 0.38223,0.26239 1.35663,0.79595c0.85021,0.46555 -1.08313,3.47179 -1.57086,3.31914z" data-paper-data="{&quot;index&quot;:null}" fill="#ffc380" stroke="#000000" stroke-width="0.3" stroke-linecap="butt"/><path d="M244.85494,185.79224l0.33441,-0.72299l2.59859,1.19369l-0.33441,0.72299z" fill="#808080" stroke="#000000" stroke-width="0.3" stroke-linecap="butt"/><path d="M244.63312,184.87551l0.26799,-0.5211l3.53723,1.53954l-0.26799,0.5211z" fill="#bfbfbf" stroke="#000000" stroke-width="0.3" stroke-linecap="butt"/><path d="M250.03573,183.13473c0,1.10457 -0.60676,3.35169 -1.78572,2.71428c-1.11207,-0.60125 -2.14286,-1.03829 -3.35715,-1.64285c-0.9888,-0.4923 1.10972,-3 2.21429,-3c1.10457,0 2.92857,0.824 2.92857,1.92857z" fill="#808080" stroke="#000000" stroke-width="0.3" stroke-linecap="butt"/><path d="M246.4643,183.95615c0,1.20319 3.12803,2.46429 2.03572,1.89286c-1.03116,-0.53944 -2.25,-0.97538 -3.39285,-1.67857c-1.02475,-0.63052 0.61234,-2.35513 1.67857,-2.82143c1.3066,-0.57143 -0.32143,1.40395 -0.32143,2.60714z" fill="#404040" stroke="none" stroke-width="0" stroke-linecap="butt"/><path d="M245.43878,182.56649c0,0 1.73425,0.58571 2.47378,0.97301c0.66591,0.34874 1.76574,1.24724 1.76574,1.24724" data-paper-data="{&quot;index&quot;:null}" fill="none" stroke="#000000" stroke-width="0.2" stroke-linecap="round"/><path d="M244.89959,183.39328c0,0 1.73425,0.58571 2.47378,0.97301c0.66591,0.34874 1.76574,1.24724 1.76574,1.24724" data-paper-data="{&quot;index&quot;:null}" fill="none" stroke="#000000" stroke-width="0.2" stroke-linecap="round"/><path d="M245.79558,181.7838c0,0 1.73425,0.58571 2.47378,0.97301c0.66591,0.34874 1.76574,1.24724 1.76574,1.24724" data-paper-data="{&quot;index&quot;:null}" fill="none" stroke="#000000" stroke-width="0.2" stroke-linecap="round"/><path d="M246.38586,181.1824c0,0 1.53018,0.47883 2.17549,0.81678c0.58106,0.3043 1.52388,1.12058 1.52388,1.12058" data-paper-data="{&quot;index&quot;:null}" fill="none" stroke="#000000" stroke-width="0.2" stroke-linecap="round"/><path d="M245.54421,184.25005c0,0 0.40633,-1.33841 0.71015,-1.89397c0.27357,-0.50025 1.03159,-1.29089 1.03159,-1.29089" data-paper-data="{&quot;index&quot;:null}" fill="none" stroke="#000000" stroke-width="0.2" stroke-linecap="round"/><path d="M246.3756,184.77749c0,0 0.40633,-1.33841 0.71015,-1.89397c0.27357,-0.50025 1.03159,-1.29089 1.03159,-1.29089" data-paper-data="{&quot;index&quot;:null}" fill="none" stroke="#000000" stroke-width="0.2" stroke-linecap="round"/><path d="M249.80481,182.58958c0,0 -0.21816,1.07336 -0.47355,1.58314c-0.28361,0.56614 -1.15233,1.66239 -1.15233,1.66239" data-paper-data="{&quot;index&quot;:null}" fill="none" stroke="#000000" stroke-width="0.2" stroke-linecap="round"/><path d="M248.89777,182.20659c0,0 -0.21816,1.07335 -0.47355,1.58313c-0.28361,0.56614 -1.15233,1.6624 -1.15233,1.6624" data-paper-data="{&quot;index&quot;:null}" fill="none" stroke="#000000" stroke-width="0.2" stroke-linecap="round"/></g><g><path d="M240.10024,189.04773c-1.04347,0 -4.33496,-1.34742 -4.67868,-1.98067c-0.12314,-0.22687 0.29642,-1.33805 0.12648,-1.98994c-0.07608,-0.29184 -2.44908,-0.03915 -2.6187,-0.24013c-0.27371,-0.32429 1.5653,-0.78742 1.5653,-0.78742c0,0 -0.51094,-0.75159 -0.51094,-0.87905c0,-0.55366 1.08259,-0.85373 2.51548,0.01094c0.82964,0.50064 2.56554,0.9853 3.38678,0.9853c1.06683,0 0.72974,1.19367 1.17541,1.83451c0.45523,0.65458 1.30078,1.47557 1.30078,1.9274c0,0.89418 -0.10537,1.11905 -2.26191,1.11905z" fill="#ffffff" stroke="#000000" stroke-width="0.3" stroke-linecap="butt"/><path d="M239.03696,188.43891c-1.02015,0.01307 -1.48933,-1.12928 -1.48933,-1.12928c-0.28738,-0.92783 0.55239,-1.79556 1.47619,-1.85714c0.9238,-0.06159 1.4598,0.82565 1.38095,1.66667c0,0 -0.22562,1.30512 -1.36781,1.31975z" fill="none" stroke="#ff0000" stroke-width="0.3" stroke-linecap="round"/><path d="M239.9762,185.92868l-1.83333,2.11904" fill="none" stroke="#ff0000" stroke-width="0.3" stroke-linecap="round"/><path d="M237.50001,183.83344v0l2.57143,0.52381c0,0 0.35279,0.16702 0.43747,0.32867c0.08964,0.17114 0.08634,0.67133 0.08634,0.67133z" fill="#bfbfbf" stroke="none" stroke-width="0" stroke-linecap="butt"/></g><g stroke-linecap="butt"><path d="M237.58772,191.88483c0,1.02346 3.86652,0.10588 3.05263,0.10588c-0.24305,0 0.81393,0.65393 -0.10536,1.85309c-0.29665,0.38696 0.02128,0.14201 -1.30933,0.28392c-0.4655,0.04964 1.35876,1.5291 0.80195,1.9336c-0.74138,0.53862 -0.2471,2.28672 -4.87032,2.26128c-2.98696,-0.01643 -2.08064,-4.85346 -2.10012,-6.54226c-0.02039,-1.76782 0.10949,-2.00273 0.10949,-2.27816c0,-0.60638 1.00027,1.52339 2.1564,1.80641c0.79521,0.19466 1.77508,-1.4887 2.10676,-1.4887c0.61881,0 0.75634,0.81384 0.61011,1.55225c-0.0461,0.23281 -0.45221,0.26736 -0.45221,0.51269z" fill="#ff0000" stroke="#000000" stroke-width="0.3"/><path d="M239.95614,195.90879c-0.50944,0.80424 -0.5184,1.28489 -1.49874,1.75277c-0.53888,0.25719 -1.25618,0.57334 -2.92231,0.57691c-1.18079,0.00252 -1.13129,-0.09848 -1.45858,-0.29076c-0.57083,-0.33536 -0.89066,-0.94838 -0.85721,-1.77418c-0.02804,-1.6137 1.71398,-1.53547 2.78948,-1.53547c1.0755,0 4.55658,0.30897 3.94736,1.27074z" fill="#bf0000" stroke="none" stroke-width="0"/><path d="M235.9035,194.5007c-1.13363,0 -1.89473,0.46155 -1.89473,-0.07943c0,-0.54097 0.81373,-0.71478 1.94736,-0.71478c1.13363,0 2,0.33266 2,0.87363c0,0.54097 -0.919,-0.07943 -2.05263,-0.07943z" data-paper-data="{&quot;index&quot;:null}" fill="#ffffff" stroke="#000000" stroke-width="0.3"/><path d="M235.9035,193.54764c-1.13363,0 -1.89473,0.46155 -1.89473,-0.07941c0,-0.54097 0.81373,-0.71478 1.94736,-0.71478c1.13363,0 2,0.33266 2,0.87363c0,0.54097 -0.919,-0.07943 -2.05263,-0.07943z" data-paper-data="{&quot;index&quot;:null}" fill="#ffffff" stroke="#000000" stroke-width="0.3"/><path d="M235.85087,192.64754c-1.13363,0 -1.89473,0.46155 -1.89473,-0.07941c0,-0.54097 0.81373,-0.71478 1.94736,-0.71478c1.13363,0 2,0.33266 2,0.87363c0,0.54097 -0.919,-0.07943 -2.05263,-0.07943z" data-paper-data="{&quot;index&quot;:null}" fill="#ffffff" stroke="#000000" stroke-width="0.3"/><path d="M240.27193,195.77643c0,0.39475 -0.32275,4.10952 -4.34211,4.10341c-3.95967,-0.00603 -3.14761,-3.33833 -3.13158,-3.7328c0.05263,-1.29487 -0.724,2.12018 2.97369,2.25025c4.11793,0.14487 4.5,-3.01565 4.5,-2.6209z" fill="#ffffff" stroke="#000000" stroke-width="0.3"/><path d="M236.0614,199.56216c0,0.21421 -0.83102,0.26473 -1.76316,-0.15883c-0.54611,-0.24815 -0.76031,-0.34087 -0.93729,-0.56658c-0.14494,-0.18486 -0.40482,-0.38788 -0.40482,-0.65122c0,-0.58484 -0.0604,-2.31421 -0.07895,-1.21778c-0.00791,0.46796 0.24997,1.33884 1.10584,1.84433c0.79035,0.46679 2.07837,0.46932 2.07837,0.7501z" fill="#bfbfbf" stroke="none" stroke-width="0"/></g><g stroke-linecap="butt"><path d="M240.86075,190.97118l1.49619,-0.25011l0.01077,-2.03473l1.3478,-0.1347l-0.11081,1.73342c0,0 3.30624,-2.21027 3.40352,-2.21511c0.28385,-0.01411 2.40391,0.15002 2.38903,1.27426c-0.01444,1.08973 -1.09172,1.85885 -1.89152,2.52613c-0.78148,0.652 -2.55606,3.02194 -4.04722,3.06817c-1.78815,0.05544 -3.2538,-2.289 -3.2538,-2.289z" fill="#ff0000" stroke="#000000" stroke-width="0.3"/><path d="M247.3711,192.11974c-0.54969,0.45861 -1.75774,1.09693 -3.03259,1.43631c-1.31336,0.34963 -2.87366,0.39349 -2.87366,0.39349l-1.15809,-1.16289l0.73978,-1.53549c0,0 0.95223,-0.28229 1.75341,-0.46391c1.3447,-0.30484 2.93896,-0.78815 3.37071,-0.27064c0.689,0.82582 2.31641,0.67206 1.20043,1.60314z" fill="#bf0000" stroke="none" stroke-width="0"/><path d="M246.86516,188.15505c0.28473,-0.23756 -0.798,0.5521 -0.11831,1.36676c0.67969,0.81467 1.30954,1.13512 1.02479,1.37268c-0.28474,0.23756 -1.4506,-0.11549 -2.13029,-0.93016c-0.67968,-0.81466 0.93906,-1.57172 1.2238,-1.80929z" fill="#ffffff" stroke="#000000" stroke-width="0.3"/><path d="M244.49616,190.64562c-0.67969,-0.81467 0.93906,-1.57174 1.2238,-1.80929c0.28473,-0.23756 -0.798,0.5521 -0.11831,1.36676c0.67969,0.81467 1.30953,1.13513 1.02479,1.37268c-0.28473,0.23756 -1.4506,-0.11549 -2.13029,-0.93016z" fill="#ffffff" stroke="#000000" stroke-width="0.3"/><path d="M243.35097,191.3269c-0.67969,-0.81467 0.93906,-1.57174 1.2238,-1.80929c0.28473,-0.23756 -0.79799,0.5521 -0.1183,1.36677c0.67969,0.81467 1.30952,1.13512 1.02479,1.37268c-0.28473,0.23756 -1.4506,-0.11549 -2.13029,-0.93016z" fill="#ffffff" stroke="#000000" stroke-width="0.3"/><path d="M249.58296,188.93777c0.25139,0.30131 1.31029,1.82784 -1.77987,4.39808c-3.04428,2.53208 -5.99719,1.50432 -6.23606,1.19299c-0.78417,-1.02206 2.38349,0.2078 5.3056,-2.06177c3.25421,-2.52749 2.45893,-3.83064 2.71032,-3.52933z" fill="#ffffff" stroke="#000000" stroke-width="0.3"/></g></g></g></svg>