<svg version="1.1" xmlns="http://www.w3.org/2000/svg" xmlns:xlink="http://www.w3.org/1999/xlink" width="20.26477" height="42.88093" viewBox="0,0,20.26477,42.88093"><g transform="translate(-229.88495,-173.52985)"><g data-paper-data="{&quot;isPaintingLayer&quot;:true}" fill-rule="nonzero" stroke-linejoin="miter" stroke-miterlimit="10" stroke-dasharray="" stroke-dashoffset="0" style="mix-blend-mode: normal"><g><path d="M236.78578,185.52951l0.04762,-2.38095l3.37345,1.04277l2.19798,-0.18563l1.63215,3.95174l-4.28816,-0.04926z" fill="#e480ff" stroke="#000000" stroke-width="0.3" stroke-linecap="butt"/><path d="M240.06071,183.96779l-3.19717,-0.87858l-1.04092,-7.12142l7.34296,-0.06885l1.01181,3.85851l-0.83096,3.30557l0.66666,0.80952z" fill="#e480ff" stroke="#000000" stroke-width="0.3" stroke-linecap="butt"/><path d="M240.20461,183.38647l-2.31818,-1.31818l0.03079,-2.09772l1.41207,0.69338l2.26398,-0.07568l1.38406,-0.61089l-0.72727,3z" fill="#000000" stroke="none" stroke-width="0" stroke-linecap="butt"/><path d="M238.87127,181.33482l-0.38312,-0.94235c0,0 0.55773,0.21211 1.03186,0.30139c0.53097,0.09998 2.11695,-0.01541 2.11695,-0.01541l-0.65963,0.76001z" fill="#ffffff" stroke="#000000" stroke-width="0.2" stroke-linecap="butt"/><path d="M238.96868,182.54941l0.04112,-0.53896l2.37663,0.18182l-0.13637,0.90909c0,0 -0.81232,0.20169 -1.18576,0.10635c-0.33436,-0.08537 -1.09563,-0.65829 -1.09563,-0.65829z" fill="#ffffff" stroke="#000000" stroke-width="0.2" stroke-linecap="butt"/><path d="M239.10965,181.46116l-0.26677,-0.96185l1.08576,0.34281l-0.14285,0.5809l-0.37948,-0.41255z" fill="#ff8080" stroke="#000000" stroke-width="0.2" stroke-linecap="butt"/><path d="M241.54769,178.04641c0,1.17032 -0.99635,2.11905 -2.16667,2.11905c-1.17032,0 -2.07143,-0.94873 -2.07143,-2.11905c0,-1.17032 -0.28937,-1.11904 0.40476,-1.92857c0.35061,-0.4089 0.96886,0.9243 0.96886,0.9243c0,0 2.86447,0.37259 2.86447,1.00428z" fill="#000000" stroke="none" stroke-width="0" stroke-linecap="butt"/><path d="M242.76546,176.87071c0,0 0.2963,-1.33319 0.46434,-0.9243c0.33267,0.80953 0.19398,0.75825 0.19398,1.92857c0,1.17032 -0.43186,2.11905 -0.99275,2.11905c-0.56089,0 -1.0384,-0.94873 -1.0384,-2.11905c0,-0.63169 1.37283,-1.00427 1.37283,-1.00427z" data-paper-data="{&quot;index&quot;:null}" fill="#000000" stroke="none" stroke-width="0" stroke-linecap="butt"/><path d="M239.39888,179.97498l-0.39491,-0.86395l-0.83723,-0.42296l0.91727,-0.31488l0.2875,-0.88988l0.27381,0.87619l0.7119,0.32857l-0.65714,0.30119z" fill="#ff0000" stroke="none" stroke-width="0" stroke-linecap="butt"/><path d="M242.6846,179.64163l-0.39491,-0.86395l-0.83723,-0.42296l0.91726,-0.31488l0.2875,-0.88988l0.2738,0.87619l0.71191,0.32857l-0.65714,0.30119z" fill="#ff0000" stroke="none" stroke-width="0" stroke-linecap="butt"/><path d="M236.16674,178.6438l-0.42857,-2.66666h7.57143l-5.95238,0.57143z" fill="#7f7f7f" stroke="#000000" stroke-width="0.3" stroke-linecap="butt"/><path d="M243.26198,174.11999c0,1.15717 -0.07658,2.80953 -2.28572,2.80953c-1.13946,0 -2.66961,-0.18883 -3.23867,-0.76107c-0.53421,-0.53719 -0.14228,-1.44053 -0.14228,-2.00084c0,-0.85234 0.18845,1.18214 1.12037,1.53543c0.33329,0.12635 0.67863,-1.24971 1.26058,-1.24971c2.20914,0 3.28572,-1.49051 3.28572,-0.33334z" fill="#7f7f7f" stroke="#000000" stroke-width="0.3" stroke-linecap="butt"/><path d="M242.92864,175.37689c0,0.58065 0.25675,1.45738 -1.95239,1.45738c-1.13946,0 -2.33627,-0.23761 -2.90533,-0.52474c-0.53421,-0.26955 -0.38038,-0.57997 -0.38038,-0.86112c0,-0.42768 0.09321,0.59317 1.02513,0.77045c0.33329,0.0634 0.67863,-0.62708 1.26058,-0.62708c2.20914,0 2.95239,-0.79553 2.95239,-0.21489z" fill="#404040" stroke="#000000" stroke-width="0" stroke-linecap="butt"/><path d="M239.83801,185.75702l2.16706,-1.90697l-0.31765,2.06422l2.18898,-0.89799l-2.0242,2.04983z" fill="#7f7f7f" stroke="#000000" stroke-width="0.3" stroke-linecap="butt"/><path d="M243.02505,175.22592l-1.8,2.45l-3.1,-2.45" fill="none" stroke="#000000" stroke-width="0.5" stroke-linecap="round"/><path d="M236.8334,185.57145v-2.19048l3.16431,0.95749l-2.40241,0.47108l0.82263,1.74881z" fill="#ab60bf" stroke="#000000" stroke-width="0" stroke-linecap="butt"/><path d="M235.11911,182.14288l-0.00001,-4.09524l1.00001,0.80953l0.28571,1.7619z" fill="#e480ff" stroke="#000000" stroke-width="0.3" stroke-linecap="butt"/><path d="M236.88101,182.9524l-0.41721,-2.62517l-1.16947,1.3254l-0.07998,-1.79548l0.67568,0.57587l0.14509,-1.01484l1.22685,1.15326l-0.07905,1.21867l0.93197,0.14796l0.29934,0.71472l1.7525,1.15675z" fill="#ab60bf" stroke="none" stroke-width="0" stroke-linecap="butt"/><path d="M235.50005,179.14287c0,0 0.25137,0.27792 0.31429,0.46667c0.07706,0.23117 0.11429,0.81905 0.11429,0.81905" fill="none" stroke="#000000" stroke-width="0.3" stroke-linecap="round"/><path d="M238.97625,183.09524l0.7619,1.2381l-2.95238,-0.95238l1.38095,-0.7619z" fill="#ab60bf" stroke="none" stroke-width="0" stroke-linecap="butt"/></g><path d="M242.26583,192.35143c0,-2.22887 1.02667,-6.60715 3.26236,-6.60715c2.23569,0 2.47785,10.32086 0.14167,12.60242c-1.4604,2.16637 -0.74134,6.86274 -1.57024,5.82615c-1.95218,-5.49037 -1.83379,-9.59256 -1.83379,-11.82142z" data-paper-data="{&quot;index&quot;:null}" fill="#404040" stroke="#000000" stroke-width="0.3" stroke-linecap="butt"/><path d="M241.20329,192.49429c0,2.22887 0.90411,5.40249 -1.47664,7.75c-0.47175,0.46517 -3.64166,3.67385 -3.64166,3.67385c0,0 -0.40642,-6.66213 -0.40642,-7.63814c0,-2.22887 -3.33046,-9.75 -1.09477,-9.75c2.23569,0 6.6195,3.73542 6.6195,5.96429z" fill="#404040" stroke="#000000" stroke-width="0.3" stroke-linecap="butt"/><path d="M231.76916,187.92473c0,0 1.96734,-1.35092 2.68329,-1.61426c0.71595,-0.26334 2.2381,-0.42857 2.2381,-0.42857l3.17737,2.14222l2.75135,0.18961l-4.65557,3.57938l4.81986,-3.75432l1.2235,2.26551l-7.92713,5.9112z" fill="#404040" stroke="#000000" stroke-width="0.3" stroke-linecap="butt"/><path d="M245.67202,190.08295l-2.74338,-4.62962c0,0 1.59801,-0.1877 2.71429,0.2381c1.11628,0.4258 2.35891,2.4321 2.35891,2.4321l1.9662,2.00738l-1.99095,4.02204l-8.08812,-4.07737l0.12286,-1.80474z" fill="#404040" stroke="#000000" stroke-width="0.3" stroke-linecap="butt"/><path d="M244.39286,204.53c0,0.06053 -0.69508,2.0414 -0.254,3.27437c0.4281,1.19667 0.23085,1.90932 0.23085,1.90932c0,0 -0.67628,2.97994 -0.53549,4.02889c0.227,1.69142 2.042,2.03752 2.042,2.03752c0,0 -5.05188,-0.75118 -5.716,0.19527c-0.24645,0.35122 0.11687,-7.87581 -0.31412,-8.38399c-0.22843,-0.26934 -1.40883,7.33509 -0.26143,8.33635c1.47131,1.28392 -1.76417,-1.55823 -1.76417,-1.55823l-2.92579,1.69232l-0.57115,-1.23611c0,0 -1.64418,1.34878 -2.56098,1.36667c-4.01627,0.07834 -0.06427,0.16426 2.13028,-4.16235c1.86225,-3.67147 2.14286,-5.42624 2.14286,-7.71428c0,-2.28804 4.01378,-2 5,-2c0.98622,0 3.35714,-0.07375 3.35714,2.21428z" fill="#404040" stroke="#000000" stroke-width="0.3" stroke-linecap="butt"/><g stroke="#000000" stroke-width="0.3" stroke-linecap="butt"><path d="M237.60715,202.24429l2.07143,-2l3.92857,0.35714v1.78572z" fill="#000000"/><path d="M239.75,202.24429l1,-1.92857l1.78572,0.21428l-0.21429,1.71429z" fill="#fff700"/></g><g stroke="#000000" stroke-width="0.3"><path d="M242.95914,188.25364l1.08855,-0.24919c0,0 -0.09332,-0.50726 0.16474,-0.56215c0.4392,-0.09342 0.95165,-0.00357 1.46551,0.52509c0.98462,1.01298 1.61708,0.9744 1.61708,0.9744l-1.05957,0.22014l-0.48658,0.77853l-2.1734,-0.64878l-0.61634,-1.03804z" fill="#e480ff" stroke-linecap="butt"/><path d="M244.32757,188.47496l0.31175,-0.59558l0.72629,-0.11807" fill="none" stroke-linecap="round"/><path d="M245.12464,189.31873l0.31175,-0.59558l0.72629,-0.11807" fill="none" stroke-linecap="round"/><path d="M244.66083,188.71482l0.31175,-0.59558l0.72629,-0.11807" fill="none" stroke-linecap="round"/></g><g stroke="#000000" stroke-width="0.3"><path d="M239.89641,190.23054c0,0 -2.13539,-0.88477 -2.909,0.04847c-0.80518,0.97134 -1.46828,-0.92541 -1.46828,-0.92541l1.18908,-1.73259l1.05109,0.34682l2.59001,0.24456z" fill="#e480ff" stroke-linecap="butt"/><path d="M236.02087,190.24303l0.30569,-0.59872l0.72505,-0.12544" fill="none" stroke-linecap="round"/><path d="M235.61241,189.12124l0.61938,-0.2613l0.63554,0.37085" fill="none" stroke-linecap="round"/><path d="M236.39548,188.18812l0.65594,0.14718l0.30183,0.67108" fill="none" stroke-linecap="round"/></g><path d="M242.16667,191.70856c0.06667,8.30457 2.69352,8.57141 0.56667,8.46667c-3.05097,-0.15026 -3.78494,0.5999 -2.76667,-0.26667c1.71938,-1.46322 1.28051,-2.46666 1.36667,-7.86666c0.01733,-1.08602 0.82447,-1.43787 0.83333,-0.33334z" fill="#e480ff" stroke="#000000" stroke-width="0.3" stroke-linecap="butt"/><path d="M242.63334,191.50856l-0.53333,-2.6l1.73334,0.6l0.86666,2.73333z" fill="#cccccc" stroke="#000000" stroke-width="0.3" stroke-linecap="butt"/><path d="M243.4,189.2419c0.64433,0 1.16666,0.50741 1.16666,1.13333c0,0.62593 -0.52233,1.13334 -1.16666,1.13334c-0.64433,0 -1.16666,-0.50742 -1.16666,-1.13334c0,-0.62592 0.52233,-1.13333 1.16666,-1.13333z" fill="#cccccc" stroke="#000000" stroke-width="0.3" stroke-linecap="butt"/><path d="M243.46667,189.4419c0.46024,0 0.83334,0.34324 0.83334,0.76666c0,0.42342 -0.3731,0.76666 -0.83334,0.76666c-0.46023,0 -0.83333,-0.34324 -0.83333,-0.76666c0,-0.42342 0.37309,-0.76666 0.83333,-0.76666z" fill="#ffffff" stroke="#000000" stroke-width="0.3" stroke-linecap="butt"/><g><g fill="#808080" stroke="#000000" stroke-width="0.1" stroke-linecap="butt"><path d="M237.03514,191.59502l-0.37638,-0.98722c0,0 0.59467,-0.5135 0.88029,-0.65639c0.29154,-0.14585 0.85154,-0.21001 0.85154,-0.21001l-0.21961,1.6652z"/><path d="M237.99,191.689c-0.20085,0.26057 -0.53885,0.33677 -0.75492,0.17021c-0.21608,-0.16656 -0.22842,-0.51281 -0.02757,-0.77338c0.20085,-0.26057 0.53883,-0.33677 0.75492,-0.17021c0.21608,0.16656 0.22843,0.51281 0.02757,0.77338z"/></g><g><path d="M236.63814,188.22406l-0.02842,-0.55554l1.99403,-0.10726l0.02843,0.55553z" fill="#808080" stroke="#000000" stroke-width="0.1" stroke-linecap="butt"/><path d="M236.08039,187.70571l-0.00382,-0.40918l2.68655,-0.19875l0.00382,0.40918z" fill="#bfbfbf" stroke="#000000" stroke-width="0.1" stroke-linecap="butt"/><path d="M238.97568,184.89719c0.35916,0.6826 0.71487,2.2686 -0.22098,2.25803c-0.88274,-0.00996 -1.66187,0.05511 -2.60885,0.07634c-0.77113,0.01728 -0.28968,-2.21479 0.39292,-2.57395c0.6826,-0.35916 2.07774,-0.44302 2.4369,0.23958z" fill="#808080" stroke="#000000" stroke-width="0.1" stroke-linecap="butt"/><path d="M237.03568,186.56609c0.39122,0.74355 2.73436,0.5058 1.87352,0.50784c-0.81266,0.00192 -1.70761,0.12883 -2.64252,0.06588c-0.8383,-0.05645 -0.38737,-1.65455 0.11992,-2.2894c0.62166,-0.77799 0.25787,0.97214 0.64909,1.7157z" fill="#404040" stroke="none" stroke-width="0" stroke-linecap="butt"/><path d="M235.95008,186.04076c0,0 1.26219,-0.20193 1.84514,-0.20305c0.52491,-0.00101 1.49675,0.19663 1.49675,0.19663" data-paper-data="{&quot;index&quot;:null}" fill="none" stroke="#000000" stroke-width="0.1" stroke-linecap="round"/><path d="M235.88569,186.72702c0,0 1.26219,-0.20195 1.84514,-0.20307c0.52491,-0.00101 1.49676,0.19663 1.49676,0.19663" data-paper-data="{&quot;index&quot;:null}" fill="none" stroke="#000000" stroke-width="0.1" stroke-linecap="round"/><path d="M235.91607,185.44105c0,0 1.2622,-0.20194 1.84515,-0.20306c0.52491,-0.00101 1.49675,0.19663 1.49675,0.19663" data-paper-data="{&quot;index&quot;:null}" fill="none" stroke="#000000" stroke-width="0.1" stroke-linecap="round"/><path d="M236.0853,184.87746c0,0 1.10134,-0.20164 1.61001,-0.20263c0.45803,-0.00088 1.3061,0.197 1.3061,0.197" data-paper-data="{&quot;index&quot;:null}" fill="none" stroke="#000000" stroke-width="0.1" stroke-linecap="round"/><path d="M236.56265,187.04689c0,0 -0.18409,-0.95925 -0.17698,-1.40136c0.00641,-0.3981 0.21778,-1.13317 0.21778,-1.13317" data-paper-data="{&quot;index&quot;:null}" fill="none" stroke="#000000" stroke-width="0.1" stroke-linecap="round"/><path d="M237.24794,187.10251c0,0 -0.18409,-0.95924 -0.17698,-1.40136c0.00641,-0.3981 0.21776,-1.13317 0.21776,-1.13317" data-paper-data="{&quot;index&quot;:null}" fill="none" stroke="#000000" stroke-width="0.1" stroke-linecap="round"/><path d="M238.65573,184.63538c0,0 0.21419,0.73426 0.22212,1.13234c0.00882,0.44208 -0.17159,1.40202 -0.17159,1.40202" data-paper-data="{&quot;index&quot;:null}" fill="none" stroke="#000000" stroke-width="0.1" stroke-linecap="round"/><path d="M237.97066,184.69363c0,0 0.21419,0.73424 0.22212,1.13232c0.00882,0.44208 -0.17158,1.40204 -0.17158,1.40204" data-paper-data="{&quot;index&quot;:null}" fill="none" stroke="#000000" stroke-width="0.1" stroke-linecap="round"/></g></g></g></g></svg>