<svg version="1.1" xmlns="http://www.w3.org/2000/svg" xmlns:xlink="http://www.w3.org/1999/xlink" width="20.98248" height="31.44275" viewBox="0,0,20.98248,31.44275"><g transform="translate(-229.91533,-172.52459)"><g data-paper-data="{&quot;isPaintingLayer&quot;:true}" fill-rule="nonzero" stroke-linejoin="miter" stroke-miterlimit="10" stroke-dasharray="" stroke-dashoffset="0" style="mix-blend-mode: normal"><g stroke="#000000" stroke-width="0.3" stroke-linecap="butt"><path d="M242.7876,187.90978l-1.5361,-2.07039l-0.60108,-1.60288l3.33934,2.5379l2.27059,-1.39431l0.98921,0.92976l-3.41374,1.71192z" fill="#418040"/><path d="M242.42518,188.99091c-0.42094,0 -0.63372,-1.84179 -1.68238,-1.77925c-1.73933,0.10373 -4.90256,2.49093 -4.90256,1.8925c0,-0.44139 1.71494,-2.05424 1.71494,-2.05424c0,0 -0.73813,-3.251 -0.13399,-3.251c1.11911,0 3.02632,-0.32765 3.02632,0.63158c0,0.3803 2.65309,4.56041 1.97767,4.56041z" data-paper-data="{&quot;index&quot;:null}" fill="#61bf60"/><path d="M233.90494,186.17332l3.40613,-2.20397l0.13357,1.5361l-1.66967,2.27075l-3.61707,-0.29885l-0.42966,-1.13573z" fill="#418040"/></g><g data-paper-data="{&quot;index&quot;:null}"><path d="M230.88614,187.22146c-0.5065,-0.06811 -0.98586,-3.61008 -0.01851,-3.67205c1.10864,-0.07103 1.18524,-0.15881 1.566,-0.147c0.4211,0.01305 0.94119,0.14726 1.82708,0.23102c0.20459,0.01936 0.4107,0.73545 -0.05319,1.0773c-0.19561,0.14415 -0.82917,0.10095 -1.11735,0.10597c-0.36414,0.00634 0.81882,-0.16618 1.18074,0.43416c0.15793,0.26196 -0.24448,0.7141 -1.37121,0.68409c-0.47506,-0.01263 0.58242,0.14619 1.22059,0.16719c0.57523,0.01893 0.10528,1.3113 0.06646,1.31157c-0.92771,0.0065 -0.69074,0.02355 -1.5411,-0.00281c-0.85035,-0.02636 -0.64327,-0.03934 -1.75949,-0.18944z" data-paper-data="{&quot;index&quot;:null}" fill="#ffc380" stroke="#000000" stroke-width="0.3" stroke-linecap="butt"/><path d="M231.21765,183.57767l0.003,-0.79657l2.85959,0.01826l-0.003,0.79657z" fill="#808080" stroke="#000000" stroke-width="0.3" stroke-linecap="butt"/><path d="M230.80981,182.75706l-0.02227,-0.58555l3.85638,0.10217l0.02227,0.58555z" fill="#bfbfbf" stroke="#000000" stroke-width="0.3" stroke-linecap="butt"/><path d="M230.50802,178.99553c0.46748,-1.00076 2.46881,-0.97538 3.46957,-0.5079c1.00076,0.46748 1.84078,3.62765 0.73655,3.65521c-1.35604,0.03384 -2.47493,-0.00644 -3.73696,0.06765c-1.33793,0.07854 -0.93664,-2.2142 -0.46917,-3.21496z" fill="#808080" stroke="#000000" stroke-width="0.3" stroke-linecap="butt"/><path d="M233.39617,181.25124c0.50922,-1.09012 -0.1298,-3.56889 0.81217,-2.49817c0.76868,0.87373 1.52204,3.12912 0.32674,3.2667c-1.33305,0.15343 -2.62186,0.03256 -3.78442,0.08491c-1.2315,0.05545 2.13631,0.23669 2.64551,-0.85342z" fill="#404040" stroke="none" stroke-width="0" stroke-linecap="butt"/><path d="M230.13269,180.64356c0,0 1.37674,-0.34859 2.12767,-0.38273c0.83394,-0.03791 2.65311,0.16539 2.65311,0.16539" data-paper-data="{&quot;index&quot;:null}" fill="none" stroke="#000000" stroke-width="0.2" stroke-linecap="round"/><path d="M230.27129,181.62084c0,0 1.37674,-0.34859 2.12767,-0.38273c0.83394,-0.03791 2.65311,0.16539 2.65311,0.16539" data-paper-data="{&quot;index&quot;:null}" fill="none" stroke="#000000" stroke-width="0.2" stroke-linecap="round"/><path d="M230.14067,179.78342c0,0 1.37674,-0.34859 2.12767,-0.38273c0.83394,-0.03791 2.65311,0.16539 2.65311,0.16539" data-paper-data="{&quot;index&quot;:null}" fill="none" stroke="#000000" stroke-width="0.2" stroke-linecap="round"/><path d="M230.4695,178.96102c0,0 1.19968,-0.34055 1.85492,-0.37033c0.72769,-0.03308 2.31673,0.18069 2.31673,0.18069" data-paper-data="{&quot;index&quot;:null}" fill="none" stroke="#000000" stroke-width="0.2" stroke-linecap="round"/><path d="M233.87525,178.28423c0,0 0.35217,1.03715 0.38832,1.60617c0.04014,0.63194 -0.15814,2.01653 -0.15814,2.01653" data-paper-data="{&quot;index&quot;:null}" fill="none" stroke="#000000" stroke-width="0.2" stroke-linecap="round"/><path d="M232.89878,178.41024c0,0 0.35217,1.03715 0.38832,1.60617c0.04014,0.63194 -0.15814,2.01653 -0.15814,2.01653" data-paper-data="{&quot;index&quot;:null}" fill="none" stroke="#000000" stroke-width="0.2" stroke-linecap="round"/><path d="M231.04747,182.22798c0,0 -0.32313,-1.36089 -0.34049,-1.99386c-0.01564,-0.56996 0.24097,-1.63479 0.24097,-1.63479" data-paper-data="{&quot;index&quot;:null}" fill="none" stroke="#000000" stroke-width="0.2" stroke-linecap="round"/><path d="M232.03137,182.26485c0,0 -0.32312,-1.3609 -0.34048,-1.99387c-0.01564,-0.56996 0.24096,-1.63478 0.24096,-1.63478" data-paper-data="{&quot;index&quot;:null}" fill="none" stroke="#000000" stroke-width="0.2" stroke-linecap="round"/></g><path d="M234.95007,192.14878l-0.8,-1.5l2,-1.5c0,0 3.56465,-1.7667 4.59758,-1.75004c1.03374,0.01667 1.60242,1.85004 1.60242,1.85004l1.84854,1.77826l-0.99525,0.12706l1.24671,1.49468l-4.60289,1.91523l1.31185,-2.70092l-1.04022,-1.75587l0.83455,1.8517l-1.21243,2.2179l-3.09831,-2.19979c0,0 -2.23653,1.73104 -2.89375,1.69193c-1.30676,-0.07779 1.2012,-1.52017 1.2012,-1.52017z" fill="#e4af72" stroke="#000000" stroke-width="0.3" stroke-linecap="butt"/><g><path d="M242.36609,186.85152c-0.39854,0.57753 -2.12611,0.07646 -3.85865,-1.11915c-1.73254,-1.19561 -2.81396,-2.63302 -2.41542,-3.21054c0.22951,-0.33259 1.25926,-3.25098 2.98897,-3.49021c1.27392,-0.17619 3.6328,2.17724 4.36762,2.68434c0.5194,0.35842 -2.99928,2.99881 -2.61925,3.37102c0.88762,0.86937 1.81581,1.36018 1.53675,1.76455z" data-paper-data="{&quot;index&quot;:null}" fill="#ffc380" stroke="#000000" stroke-width="0.3" stroke-linecap="butt"/><path d="M243.71142,181.476c-0.64388,0.93303 -1.48676,-0.83418 -2.5155,-1.5441c-1.02873,-0.70992 -3.92014,0.39869 -3.27625,-0.53436c0.0274,-0.0397 -1.01875,-0.98519 -1.05522,-1.87575c-0.03406,-0.83191 0.9355,-1.60461 1.11401,-1.85604c0.33205,-0.46771 1.38847,1.69733 1.63487,1.251c0.62286,-1.12829 0.74279,-1.83008 1.35836,-1.91748c0.67131,-0.09529 0.73342,3.58505 1.28089,3.42429c1.21713,-0.35741 1.40626,-1.20441 1.87236,-0.88275c1.02873,0.70992 0.23037,3.00212 -0.41351,3.93515z" data-paper-data="{&quot;index&quot;:null}" fill="#ff7c00" stroke="#000000" stroke-width="0.3" stroke-linecap="butt"/><path d="M234.92511,181.27284l2.25682,-3.50508l0.53213,1.98723l-1.16146,1.50698z" data-paper-data="{&quot;index&quot;:null}" fill="#ffc380" stroke="#000000" stroke-width="0.3" stroke-linecap="butt"/><path d="M235.50451,181.30818l1.302,-1.9227l0.31361,1.11274l-0.44732,0.59189z" data-paper-data="{&quot;index&quot;:null}" fill="#bf9360" stroke="#000000" stroke-width="0.2" stroke-linecap="butt"/><path d="M237.51388,177.39095c-0.66038,0.95695 1.64204,2.85974 0.709,2.21586c-0.93302,-0.64387 -1.59333,-1.86106 -0.93293,-2.81802c0.66038,-0.95695 0.87768,-1.45095 1.49717,-0.50154c0.60726,0.93064 -0.61286,0.14674 -1.27323,1.10371z" data-paper-data="{&quot;index&quot;:null}" fill="#bf5c00" stroke="none" stroke-width="0" stroke-linecap="butt"/><path d="M240.66655,176.52909c-0.65214,0.945 -0.89131,0.07789 -0.91084,0.81024c-0.00409,0.15303 -0.41362,0.18235 0.23852,-0.76263c0.65214,-0.945 0.24465,-1.27544 0.81993,-1.51246c0.17611,-0.07256 0.50454,0.51986 -0.1476,1.46486z" data-paper-data="{&quot;index&quot;:null}" fill="#bf5c00" stroke="none" stroke-width="0" stroke-linecap="butt"/><path d="M243.72808,178.16223c-1.21059,0.45564 -1.98278,1.4369 -1.31414,0.46798c0.66864,-0.96892 0.24265,-0.15619 1.26349,-0.95058c0.21778,-0.16945 1.30985,0.00865 0.05065,0.48259z" data-paper-data="{&quot;index&quot;:null}" fill="#bf5c00" stroke="none" stroke-width="0" stroke-linecap="butt"/><path d="M243.51308,180.18808c-0.35026,0.50755 -0.98837,0.26882 -1.41173,-0.17024c-0.35488,-0.36803 -0.48068,-0.87992 -0.91706,-1.18106c-0.95695,-0.66038 -2.65174,0.50663 -2.00786,-0.42641c0.64387,-0.93302 1.18694,-0.5238 2.1439,0.1366c0.35658,0.24607 0.44228,0.70726 0.87679,0.86068c0.73158,0.25834 1.71992,0.19505 1.31596,0.7804z" data-paper-data="{&quot;index&quot;:null}" fill="#ff9c40" stroke="none" stroke-width="0" stroke-linecap="butt"/><path d="M241.18547,182.7269c-0.35495,0.51436 -0.84635,0.7908 -1.09755,0.61745c-0.2512,-0.17335 0.07135,-1.26169 0.07135,-1.26169l1.21408,-0.60099c0,0 0.16708,0.73086 -0.18788,1.24522z" data-paper-data="{&quot;index&quot;:null}" fill="#ffffff" stroke="#000000" stroke-width="0.3" stroke-linecap="butt"/><path d="M240.27352,181.91719c0,0 1.09,-0.56567 1.48313,-0.55397c0.2499,0.00744 0.64735,0.61735 0.64735,0.61735" data-paper-data="{&quot;index&quot;:null}" fill="none" stroke="#000000" stroke-width="0.3" stroke-linecap="round"/><path d="M239.64907,181.71009c0,0 -1.02572,1.05071 -1.27692,0.87736c-0.2512,-0.17335 -0.08679,-0.84723 0.36724,-1.50512c0.45403,-0.6579 1.27691,-0.87736 1.27691,-0.87736z" data-paper-data="{&quot;index&quot;:null}" fill="#ffffff" stroke="#000000" stroke-width="0.3" stroke-linecap="butt"/><path d="M238.84331,178.24444c0,0 1.05579,0.42012 1.17924,0.99641c0.1376,0.64224 -0.3915,2.68065 -0.3915,2.68065" data-paper-data="{&quot;index&quot;:null}" fill="none" stroke="#000000" stroke-width="0.3" stroke-linecap="round"/><path d="M237.61532,182.89648c0,0 0.36605,0.73733 0.74623,1.21087c0.4793,0.59697 1.90171,2.08726 1.90171,2.08726c0,0 -0.26938,-0.51356 -1.01784,-1.11643c-0.39882,-0.32125 -1.27923,-0.63157 -1.56174,-0.98345c-0.81269,-1.01222 -0.06837,-1.19823 -0.06837,-1.19823z" data-paper-data="{&quot;index&quot;:null}" fill="#ffffff" stroke="#000000" stroke-width="0.3" stroke-linecap="round"/></g><g stroke="#000000" stroke-width="0.3" stroke-linecap="butt"><g fill="#404040"><path d="M247.59476,183.55467c0,0 0.90725,-1.58097 0.61082,-1.77305c-0.33445,-0.21674 -1.06776,-0.69191 -1.06776,-0.69191l0.6238,-1.02765l1.8718,1.2925l-1.21933,2.38358z"/><path d="M245.18489,184.43569l-3.25422,-1.97538l4.19337,-6.90809l3.25422,1.97538z"/><path d="M248.4336,186.27713l-3.0766,-1.86758l0.7045,-1.1606c0,0 2.26706,0.38014 3.69219,0.2099c0.85119,-0.10168 -1.3201,2.81824 -1.3201,2.81824z"/><path d="M245.27043,183.39381l-0.85638,-0.51983l3.11904,-5.13825l0.85637,0.51985z"/><path d="M243.45355,182.3796l-0.45674,-0.27724l3.11904,-5.13825l0.45674,0.27724z"/><path d="M245.41958,176.58401c0.31926,-0.52592 1.02535,-0.68075 1.57715,-0.34579c0.5518,0.33495 0.74031,1.03283 0.42105,1.55876c-0.31925,0.52592 -1.02535,0.68074 -1.57714,0.34578c-0.5518,-0.33495 -0.74031,-1.03282 -0.42105,-1.55874z"/><path d="M248.39891,176.69552l-1.65566,-1.00502l0.7451,-1.22746l1.65566,1.00502z"/><path d="M249.24071,175.4201l-1.71274,-1.03967l0.35768,-1.6189l2.74041,1.66349z"/></g><path d="M248.35246,186.51629c-0.29809,0.41512 -3.65,-0.82589 -3.25021,-1.70893c0.45818,-1.01203 0.41669,-1.12088 0.606,-1.45146c0.20938,-0.36559 0.57219,-0.76165 1.06237,-1.50431c0.11321,-0.17151 0.84218,-0.01701 0.92599,0.55311c0.03535,0.2404 -0.30046,0.77938 -0.43142,1.03614c-0.16549,0.32443 0.23801,-0.8009 0.93801,-0.83832c0.30546,-0.01634 0.5155,0.55133 -0.04036,1.53186c-0.23436,0.41344 0.4027,-0.44546 0.72107,-0.99893c0.28696,-0.49889 1.20703,0.52316 1.18902,0.55755c-0.43013,0.82199 -0.30375,0.62082 -0.72655,1.35909c-0.42279,0.73827 -0.33695,0.54936 -0.9939,1.46418z" data-paper-data="{&quot;index&quot;:null}" fill="#ffc380"/></g><g stroke-linecap="butt"><path d="M241.52461,193.5805l2.62086,-0.78901l1.1212,0.76001c0,0 2.7591,1.68093 2.8369,1.73954c0.22699,0.17101 1.74974,1.65521 1.01809,2.50892c-0.7092,0.8275 -2.02911,0.72793 -3.07072,0.72793c-1.01775,0 -3.89861,0.68292 -5.07322,-0.23686c-1.40855,-1.10297 -1.03204,-3.84209 -1.03204,-3.84209z" fill="#ff0000" stroke="#000000" stroke-width="0.3"/><path d="M245.78778,198.63313c-1.45338,0 -5.94737,-1.50345 -5.94737,-2.57895c0,-1.0755 0.1782,-2.31579 1.63158,-2.31579c0.54263,0 0.92792,0.56938 1.65946,0.94318c1.22782,0.62738 2.76159,1.2776 2.76159,1.95156c0,1.0755 1.34812,2 -0.10526,2z" fill="#bf0000" stroke="none" stroke-width="0"/><path d="M247.93919,195.26473c0.37082,0 -0.96643,-0.08729 -0.96643,0.97368c0,1.06097 0.27834,1.71053 -0.09249,1.71053c-0.37083,0 -1.03986,-1.01798 -1.03986,-2.07895c0,-1.06096 1.72795,-0.60526 2.09878,-0.60526z" fill="#ff7b00" stroke="#000000" stroke-width="0.3"/><path d="M243.70884,194.54894c0,-1.06097 1.72796,-0.60527 2.09878,-0.60527c0.37082,0 -0.96643,-0.08728 -0.96643,0.97369c0,1.06097 0.27833,1.71052 -0.09249,1.71052c-0.37082,0 -1.03986,-1.01798 -1.03986,-2.07895z" fill="#ff7b00" stroke="#000000" stroke-width="0.3"/><path d="M249.52462,197.60684c0,0.39241 -0.16486,2.24292 -4.18421,2.23684c-3.95967,-0.00599 -5.56866,-2.68687 -5.55263,-3.07895c0.05263,-1.28715 1.69705,1.68649 5.39474,1.81579c4.11793,0.144 4.34211,-1.3661 4.34211,-0.97369z" fill="#fffdc0" stroke="#000000" stroke-width="0.3"/><path d="M241.80004,194.40776c0.63513,0 1.15,0.50167 1.15,1.12051c0,0.61884 -0.51487,1.12051 -1.15,1.12051c-0.63513,0 -1.15,-0.50167 -1.15,-1.12051c0,-0.61884 0.51487,-1.12051 1.15,-1.12051z" fill="#ff7b00" stroke="#000000" stroke-width="0.3"/></g><g stroke-linecap="butt"><path d="M240.0257,198.19948c0,0 1.55876,1.41997 1.00195,1.82209c-0.74138,0.53541 -0.2471,2.27308 -4.87032,2.2478c-2.98696,-0.01633 -2.08064,-4.82452 -2.10012,-6.50325c-0.02039,-1.75729 0.00949,-2.26458 0.00949,-2.26458l2.4564,-1.30437l2.50676,1.62017c0,0 0.15634,0.80898 0.01011,1.543c-0.0461,0.23141 0.98573,2.83914 0.98573,2.83914z" fill="#ff0000" stroke="#000000" stroke-width="0.3"/><path d="M240.9562,199.86996c-0.50944,0.79945 -0.5184,1.27724 -1.49874,1.74232c-0.53888,0.25565 -1.25618,0.56993 -2.92231,0.57346c-1.18079,0.00251 -1.13129,-0.09789 -1.45858,-0.28902c-0.57083,-0.33336 -0.89066,-0.94273 -0.85721,-1.76361c-0.02804,-1.60409 1.71398,-1.52632 2.78948,-1.52632c1.0755,0 4.55658,0.30713 3.94736,1.26316z" fill="#bf0000" stroke="none" stroke-width="0"/><path d="M236.80354,197.17024c-1.13363,0 -1.89473,0.4588 -1.89473,-0.07895c0,-0.53775 0.81373,-0.71052 1.94736,-0.71052c1.13363,0 2,0.33067 2,0.86841c0,0.53775 -0.919,-0.07895 -2.05263,-0.07895z" data-paper-data="{&quot;index&quot;:null}" fill="#ff7b00" stroke="#000000" stroke-width="0.3"/><path d="M236.75093,195.32812c-1.13363,0 -1.89473,0.45881 -1.89473,-0.07894c0,-0.53775 0.81373,-0.71053 1.94736,-0.71053c1.13363,0 2,0.33067 2,0.86841c0,0.53775 -0.919,-0.07895 -2.05263,-0.07895z" data-paper-data="{&quot;index&quot;:null}" fill="#ff7c00" stroke="#000000" stroke-width="0.3"/><path d="M241.27199,199.73838c0,0.39241 -0.32275,4.08503 -4.34211,4.07895c-3.95967,-0.00599 -3.14761,-3.31844 -3.13158,-3.71053c0.05263,-1.28715 -0.724,2.10754 2.97369,2.23684c4.11793,0.144 4.5,-2.99768 4.5,-2.60527z" fill="#fffdc0" stroke="#000000" stroke-width="0.3"/><path d="M237.06146,203.50154c0,0.21293 -0.83102,0.26316 -1.76316,-0.15789c-0.54611,-0.24668 -0.76031,-0.33884 -0.93729,-0.5632c-0.14494,-0.18375 -0.40482,-0.38557 -0.40482,-0.64733c0,-0.58135 -0.0604,-2.30041 -0.07895,-1.21053c-0.00791,0.46517 0.24997,1.33086 1.10584,1.83333c0.79035,0.464 2.07837,0.46652 2.07837,0.74562z" fill="#bfbfbf" stroke="none" stroke-width="0"/></g></g></g></svg>