<svg version="1.1" xmlns="http://www.w3.org/2000/svg" xmlns:xlink="http://www.w3.org/1999/xlink" width="21.34857" height="40.05849" viewBox="0,0,21.34857,40.05849"><g transform="translate(-230.49977,-175.00705)"><g data-paper-data="{&quot;isPaintingLayer&quot;:true}" fill-rule="nonzero" stroke-linejoin="miter" stroke-miterlimit="10" stroke-dasharray="" stroke-dashoffset="0" style="mix-blend-mode: normal"><g><path d="M244.04162,202.17309c0,1.12581 -1.11815,3.5 -2.30769,3.5c-1.18953,0 -1.53846,-2.29727 -1.53846,-3.42308c0,-1.12581 0.42584,0.80769 1.61538,0.80769c1.18954,0 2.23077,-2.01043 2.23077,-0.88462z" fill="#e480ff" stroke="#000000" stroke-width="0.3" stroke-linecap="butt"/><path d="M241.88777,203.0577l-0.07692,2.53846" fill="none" stroke="#000000" stroke-width="1" stroke-linecap="round"/><path d="M244.04657,202.4627c-2.26469,6.76621 0.84341,11.353 0.84341,11.353l-2.10847,0.20542c0,0 -0.23771,-2.2737 -1.07546,-2.27146c-1.12816,0.00302 -1.69795,2.28996 -1.69795,2.28996l-0.15803,-3.29852c0,0 0.05579,-0.03572 0.96048,-0.94141c0.96165,-0.9627 -0.08292,-5.25736 -0.53321,-7.02931c-0.53886,-2.1205 0.65548,2.73077 1.65384,2.73077c0.99836,0 2.70188,-5.14628 2.11539,-3.03846z" fill="#252525" stroke="#000000" stroke-width="0.3" stroke-linecap="butt"/><path d="M242.8158,213.96269l-0.61538,-2.15385l0.15385,-0.07692l1.53846,2.30769z" fill="#000000" stroke="none" stroke-width="0" stroke-linecap="butt"/></g><path d="M250.78207,187.42068c0,1.39884 -1.94861,1.02776 -2.37072,2.25391c-0.57743,1.67732 1.68032,5.44261 0.85036,6.9339c-0.51772,0.93026 -0.61391,-4.16053 -1.97222,-3.98859c-0.60142,0.07611 -1.07103,4.45085 -1.88169,5.39504c-1.39894,1.62937 -3.19609,0.17323 -3.98925,0.17323c-0.62798,0 -2.93285,0.7127 -4.07746,-0.63912c-1.05843,-1.25002 -0.95513,-4.5678 -1.63862,-4.67458c-1.32041,-0.20629 -1.00354,4.49178 -1.55615,3.62058c-0.79255,-1.24946 0.93827,-4.68145 0.37359,-6.29952c-0.43235,-1.23886 -2.46491,-1.35826 -2.46491,-2.77485c0,-0.35669 -0.12991,-1.95266 0.27947,-2.9611c0.43836,-1.07983 1.41498,-1.56946 1.31786,-1.76219c-0.39073,-0.77531 -3.6087,1.67052 -2.90134,0.49633c1.69017,-2.8056 7.4748,-6.5405 10.66755,-6.5405c2.52206,0 3.79686,3.13885 5.48042,5.0035c0.18341,0.20314 0.65905,0.73513 1.02204,0.616c0.75095,-0.24646 1.53152,-1.41264 1.83212,-0.95679c0.22939,0.34787 -0.4963,1.68697 -1.27539,2.32828c-0.65343,0.53789 -1.36754,0.35991 -1.36225,0.88301c0.00641,0.63198 1.25007,-0.0011 2.03492,0.35693c1.01575,0.46336 1.63165,1.88242 1.63165,2.53656z" fill="#800000" stroke="#000000" stroke-width="0.3" stroke-linecap="butt"/><g stroke="#000000" stroke-width="0.3"><path d="M238.64863,196.4048c0,0 0.76838,-2.02191 0.76087,-3.02094c-0.00623,-0.82866 -0.8028,-2.55824 -0.8028,-2.55824l-0.0295,-3.92506h2.45l-0.07143,4.21011c0,0 2.6647,0.16073 2.60476,2.74766c-0.10106,0.94556 -2.37914,2.74276 -2.37914,2.74276l-0.04866,2.61969c0,0 1.41422,0.50052 1.87956,0.85151c0.5737,0.43274 1.30613,1.55145 1.30613,1.55145c0,0 -0.94905,1.78079 -2.13708,1.83038c-0.8123,0.03388 -1.58748,-1.66536 -2.15406,-1.64174c-0.54242,0.02263 2.02777,3.13104 -2.00052,3.14166c-1.86273,0.0049 -1.5869,-3.00162 -1.5869,-3.00162c0,0 2.16289,-1.70158 2.33678,-2.63351c0.14788,-0.79255 -0.12801,-2.91413 -0.12801,-2.91413z" fill="#ff0000" stroke-linecap="butt"/><path d="M240.72103,191.0036l0.14285,-4.0367c0,0 1.25803,0.20322 2.1,1.12763c0.84197,0.92438 0.72857,3.09857 0.72857,3.09857c0,0 0.68238,1.73987 0.70233,2.57033c0.02021,0.84115 -0.58185,2.44495 -0.58185,2.44495l0.54841,5.40484c0,0 -0.26821,-0.53382 -1.53569,-1.36982c-2.02916,-1.3384 -1.95656,-1.07655 -1.95656,-1.07655l0.01242,-2.74748c0,0 2.15729,-0.02802 2.4156,-2.84791c0.11684,-2.39422 -2.5761,-2.56787 -2.5761,-2.56787z" fill="#404040" stroke-linecap="butt"/><path d="M235.86882,190.76143c0,0 -0.32769,-1.88991 0.51429,-2.81431c0.84197,-0.92439 2.1,-1.12763 2.1,-1.12763l0.07143,3.94193c0,0 0.72562,1.82963 0.73176,2.71703c0.00682,0.98733 -0.69266,2.93918 -0.69266,2.93918c0,0 0.22785,2.1729 0.0324,3.06291c-0.19772,0.90036 -1.21199,2.30855 -1.21199,2.30855l-1.04837,0.05898c0,0 -0.18078,-2.21316 0.04813,-2.92957c0.19795,-0.61951 1.246,-1.12059 1.246,-1.12059l-0.39488,-4.07994z" data-paper-data="{&quot;index&quot;:null}" fill="#404040" stroke-linecap="butt"/><path d="M244.31223,194.14294c0,0 0.13097,2.21576 -1.78063,1.9481c-0.55343,-0.07751 -1.7908,-1.85332 -1.7908,-1.85332" fill="none" stroke-linecap="round"/><path d="M240.2408,192.43731c0,0 0.31743,0.98108 -0.8705,1.95842c-1.50333,1.23683 -1.84379,-0.72657 -1.84379,-0.72657" fill="none" stroke-linecap="round"/></g><g stroke="#000000"><path d="M240.19546,203.78848c0,1.04084 -1.22952,2.03846 -2.46154,2.03846c-1.23202,0 -1.46154,-1.61301 -1.46154,-2.65385c0,-1.04085 0.22952,1.03846 1.46154,1.03846c1.23202,0 2.46154,-1.46392 2.46154,-0.42308z" fill="#e480ff" stroke-width="0.3" stroke-linecap="butt"/><path d="M237.73392,205.59616v-1.23077" fill="none" stroke-width="1" stroke-linecap="round"/><path d="M237.68518,206.4827c0.99836,0 2.80809,-4.00512 2.26923,-1.88462c-0.45029,1.77194 -2.8035,6.81687 -2.8035,6.81687l-0.85034,2.76005c0,0 -0.33902,-1.51771 -1.46718,-1.52073c-0.83775,-0.00224 -1.30623,1.50223 -1.30623,1.50223l-2.10847,-0.20542c0,0 6.56964,-2.97141 4.30495,-9.73762c-0.58649,-2.10782 0.96318,2.26923 1.96154,2.26923z" data-paper-data="{&quot;index&quot;:null}" fill="#252525" stroke-width="0.3" stroke-linecap="butt"/></g><path d="M238.51388,187.31632l-0.1,-1.32381c0,0 0.70379,0.16122 1.25476,0.17143c0.55097,0.01021 1.63571,-0.3119 1.63571,-0.3119l-0.29047,1.36428z" fill="#e480ff" stroke="#000000" stroke-width="0.3" stroke-linecap="butt"/><path d="M240.97078,186.92436c0.11495,0.77023 -0.62039,1.32361 -1.40909,1.27273c-0.7887,-0.05089 -1.56638,-0.64779 -1.40909,-1.45455" fill="none" stroke="#fff700" stroke-width="0.3" stroke-linecap="round"/><path d="M241.23146,177.17045c0,0 0.40914,-1.4551 0.75009,-1.84857c0.12518,-0.14447 0.74174,-0.27619 1.16226,-0.01742c0.59299,0.36491 1.01419,1.1993 1.01419,1.1993c0,0 1.74927,0.49662 1.65956,0.68121c-0.02477,0.05095 0.54838,1.38054 0.54838,1.38054l-0.62695,1.26487c0,0 -0.04664,-1.50441 -0.52961,-1.92774c-0.39867,-0.34945 -1.55782,-0.35679 -1.55782,-0.35679c0,0 -0.6547,-1.84943 -0.97767,-1.7019c-0.31049,0.14182 -0.51063,1.98826 -0.51063,1.98826z" fill="#800000" stroke="#000000" stroke-width="0.3" stroke-linecap="butt"/><g><path d="M233.55075,188.22944l3.11855,0.81479l1.24061,2.0161l-1.50829,5.77005c0,0 -1.21232,3.64052 -2.39781,3.65764c-1.08312,-0.05745 -0.75828,0.15448 -1.31252,-0.79834c-1.47168,-2.53004 -1.06511,-1.58767 -1.06511,-1.58767l3.54076,-3.08627z" fill="#404040" stroke="#000000" stroke-width="0.3" stroke-linecap="butt"/><path d="M235.34008,199.38996c0,0.52634 -0.2631,2.05266 -1.46215,2.05266c-1.19905,0 -1.28492,-1.453 -1.28492,-1.97934c0,-0.52634 0.08587,0.95302 1.28492,0.95302c1.19905,0 1.46215,-1.55267 1.46215,-1.02633z" fill="#fff700" stroke="#000000" stroke-width="0.3" stroke-linecap="butt"/><path d="M235.28901,200.15411c0,0.52634 -0.2631,2.05266 -1.46215,2.05266c-1.19905,0 -1.28492,-1.45301 -1.28492,-1.97935c0,-0.52634 0.08587,0.95301 1.28492,0.95301c1.19905,0 1.46215,-1.55267 1.46215,-1.02632z" fill="#fff700" stroke="#000000" stroke-width="0.3" stroke-linecap="butt"/><path d="M235.07423,204.66823l-0.9587,-0.78361l1.2031,-1.03516l-1.27596,0.95332l-1.12236,-0.51023l-1.08575,-1.12177l0.75844,-1.02139c0,0 0.51759,0.95302 1.152,0.95302c0.66394,0 1.41784,-1.02632 1.41784,-1.02632l0.62031,0.95302l1.63573,-0.23404l0.08859,1.31904z" fill="#e480ff" stroke="#000000" stroke-width="0.3" stroke-linecap="butt"/><path d="M231.70685,201.95578c0,0 -0.83985,-0.69081 -0.17723,-1.39288c0.52802,-0.55946 1.26782,0.3703 1.26782,0.3703z" fill="#808080" stroke="#000000" stroke-width="0.3" stroke-linecap="butt"/><g><path d="M236.97411,203.25825l0.3889,0.32903l-1.42412,1.15805l-0.3889,-0.32903z" fill="#808080" stroke="#000000" stroke-width="0.1" stroke-linecap="butt"/><path d="M237.73529,203.27447l0.27361,0.25172l-1.88283,1.59387l-0.27361,-0.25171z" fill="#bfbfbf" stroke="#000000" stroke-width="0.1" stroke-linecap="butt"/><path d="M237.42279,206.6014c-0.72096,-0.2268 -2.03708,-1.01585 -1.32841,-1.52157c0.66846,-0.47702 1.20957,-0.94388 1.90555,-1.47542c0.56675,-0.43284 1.68269,1.21522 1.40853,1.81165c-0.27416,0.59643 -1.26472,1.41214 -1.98568,1.18534z" fill="#808080" stroke="#000000" stroke-width="0.1" stroke-linecap="butt"/><path d="M237.77309,204.50427c-0.78533,-0.24705 -2.38486,1.18303 -1.74077,0.71055c0.60805,-0.44603 1.1951,-1.01465 1.93774,-1.48736c0.6659,-0.42387 1.38522,0.81423 1.42494,1.48571c0.04868,0.82286 -0.83659,-0.46185 -1.62192,-0.7089z" fill="#404040" stroke="none" stroke-width="0" stroke-linecap="butt"/><path d="M238.93466,204.23587c0,0 -0.81275,0.81617 -1.24911,1.13597c-0.3929,0.28797 -1.25234,0.69734 -1.25234,0.69734" data-paper-data="{&quot;index&quot;:null}" fill="none" stroke="#000000" stroke-width="0.1" stroke-linecap="round"/><path d="M238.52885,203.77495c0,0 -0.81275,0.81619 -1.24909,1.13598c-0.3929,0.28797 -1.25236,0.69734 -1.25236,0.69734" data-paper-data="{&quot;index&quot;:null}" fill="none" stroke="#000000" stroke-width="0.1" stroke-linecap="round"/><path d="M239.35698,204.58924c0,0 -0.81275,0.81618 -1.2491,1.13598c-0.3929,0.28797 -1.25235,0.69733 -1.25235,0.69733" data-paper-data="{&quot;index&quot;:null}" fill="none" stroke="#000000" stroke-width="0.1" stroke-linecap="round"/><path d="M239.60301,205.03146c0,0 -0.69234,0.72794 -1.07308,1.00699c-0.34285,0.25127 -1.10965,0.59275 -1.10965,0.59275" data-paper-data="{&quot;index&quot;:null}" fill="none" stroke="#000000" stroke-width="0.1" stroke-linecap="round"/><path d="M237.80963,203.94711c0,0 0.77275,0.49423 1.05996,0.77236c0.25861,0.25044 0.58652,0.82209 0.58652,0.82209" data-paper-data="{&quot;index&quot;:null}" fill="none" stroke="#000000" stroke-width="0.1" stroke-linecap="round"/><path d="M237.259,204.28773c0,0 0.77275,0.49424 1.05995,0.77236c0.25861,0.25044 0.58652,0.82208 0.58652,0.82208" data-paper-data="{&quot;index&quot;:null}" fill="none" stroke="#000000" stroke-width="0.1" stroke-linecap="round"/><path d="M237.83592,206.58865c0,0 -0.64645,-0.33819 -0.91579,-0.58077c-0.29913,-0.26938 -0.79903,-0.96357 -0.79903,-0.96357" data-paper-data="{&quot;index&quot;:null}" fill="none" stroke="#000000" stroke-width="0.1" stroke-linecap="round"/><path d="M238.31104,206.17752c0,0 -0.64644,-0.33819 -0.91578,-0.58077c-0.29913,-0.26938 -0.79905,-0.96358 -0.79905,-0.96358" data-paper-data="{&quot;index&quot;:null}" fill="none" stroke="#000000" stroke-width="0.1" stroke-linecap="round"/></g></g><path d="M238.22864,187.76386c0.63623,0 0.17723,0.34911 0.17723,1.10769c0,0.75858 -0.33854,1.90523 -0.97477,1.90523c-0.63623,0 -1.152,-0.70357 -1.152,-1.46215c0,-0.75859 1.31331,-1.55077 1.94954,-1.55077z" fill="#404040" stroke="none" stroke-width="0" stroke-linecap="butt"/><g><path d="M235.90188,183.47169l1.64691,-5.82219c0,0 0.4058,0.13131 0.64367,0.38088c0.19324,0.20276 0.63899,0.73169 0.63899,0.73169c0,0 0.14111,-0.4282 0.40635,-0.53664c0.27353,-0.11183 0.75194,0.0174 0.94523,0.06438c0.20773,0.05049 0.67565,0.24105 0.91891,0.47506c0.2759,0.2654 0.55811,0.6778 0.55811,0.6778c0,0 0.52397,-0.19698 0.7732,-0.25227c0.47728,-0.10588 0.97209,-0.11732 0.97209,-0.11732l-1.11164,3.73955l1.55156,2.69678c0,0 -2.78879,1.29443 -4.5315,0.84737c-1.74269,-0.44706 -3.41191,-2.88511 -3.41191,-2.88511z" fill="#e480ff" stroke="#000000" stroke-width="0.3" stroke-linecap="butt"/><path d="M239.57204,181.09476c0,0 -2.2273,0.77044 -1.92183,-0.36271c0.30546,-1.13316 0.59759,-1.83262 0.59759,-1.83262z" fill="#000000" stroke="none" stroke-width="0" stroke-linecap="butt"/><path d="M242.20649,179.96657c0,0 -0.09902,0.75152 -0.40448,1.88468c-0.30546,1.13316 -1.84374,-0.65237 -1.84374,-0.65237z" data-paper-data="{&quot;index&quot;:null}" fill="#000000" stroke="none" stroke-width="0" stroke-linecap="butt"/><path d="M238.18778,181.90306l-0.15643,-0.93696l-0.69829,-0.62629l0.96761,-0.06528l0.50921,-0.78438l0.03632,0.91726l0.60185,0.50254l-0.71288,0.11977z" fill="#ff0000" stroke="none" stroke-width="0" stroke-linecap="butt"/><path d="M240.86903,182.52227l-0.15643,-0.93696l-0.69829,-0.62629l0.96761,-0.06528l0.50921,-0.78438l0.03632,0.91726l0.60185,0.50254l-0.71288,0.11977z" fill="#ff0000" stroke="none" stroke-width="0" stroke-linecap="butt"/><path d="M242.08222,179.46701l-2.24172,1.20817l-1.15989,-2.22871" fill="none" stroke="#000000" stroke-width="0.2" stroke-linecap="round"/><path d="M240.46515,184.31315c-0.08625,0.31995 -0.29773,-0.70168 -0.85764,-0.85261c-0.55991,-0.15093 -1.14288,0.39761 -1.05663,0.07766c0.08625,-0.31995 0.09959,-1.06064 0.65951,-0.9097c0.09844,0.02654 0.27819,0.3673 0.50763,0.41519c0.30534,0.06372 0.67569,-0.15791 0.83643,-0.06374c0.4054,0.23752 -0.03839,1.14439 -0.08929,1.33321z" fill="#ff0000" stroke="#000000" stroke-width="0.2" stroke-linecap="butt"/><path d="M240.27477,184.44307c-0.13296,0.49325 -0.67147,0.62166 -1.19139,0.48151c-0.51992,-0.14015 -0.82436,-0.49579 -0.6914,-0.98905c0.13296,-0.49325 0.34066,0.2213 0.86058,0.36145c0.51992,0.14015 1.15517,-0.34716 1.02221,0.14609z" fill="#ff0000" stroke="#000000" stroke-width="0.2" stroke-linecap="butt"/><path d="M239.25445,184.19392c-0.50659,-0.13656 -0.689,-0.3256 -0.61353,-0.60556c0.07547,-0.27996 0.3244,-0.14558 0.83099,-0.00902c0.50659,0.13656 0.77632,0.19379 0.70085,0.47374c-0.07547,0.27996 -0.41172,0.2774 -0.91831,0.14083z" fill="#ffffff" stroke="#000000" stroke-width="0.2" stroke-linecap="butt"/><path d="M237.94762,182.70237l0.51593,0.96764" fill="none" stroke="#000000" stroke-width="0.2" stroke-linecap="round"/><path d="M241.30642,184.07387l-0.90257,0.27455" fill="none" stroke="#000000" stroke-width="0.2" stroke-linecap="round"/><path d="M238.52824,183.35241c0,0 0.14502,-0.53362 0.4282,-0.67368c0.28319,-0.14006 0.59411,0.35742 0.59411,0.35742c0,0 0.29822,0.37798 0.13073,0.4298c-0.16749,0.05181 -1.15304,-0.11355 -1.15304,-0.11355z" fill="#000000" stroke="none" stroke-width="0" stroke-linecap="butt"/><path d="M239.13758,184.31597c0.13462,0.26532 0.10768,0.44984 -0.18973,0.55643c-0.2974,0.10659 -0.5367,-0.46932 -0.5367,-0.46932c0,0 -0.19083,-0.63963 -0.0185,-0.67186c0.17233,-0.03222 0.61031,0.31942 0.74494,0.58475z" fill="#000000" stroke="none" stroke-width="0" stroke-linecap="butt"/></g><g><path d="M234.14933,181.8556l0.69092,-3.33882l1.17605,1.68795l-0.57994,1.81209z" fill="#e480ff" stroke="#000000" stroke-width="0.3" stroke-linecap="butt"/><path d="M234.75553,181.75406l0.38912,-1.56003l0.67323,0.93984l-0.21945,0.70871z" fill="#ab60bf" stroke="#000000" stroke-width="0.2" stroke-linecap="butt"/><path d="M235.43907,182.20022c-0.08472,0.77414 0.11916,1.20971 -0.63067,0.95992c-0.74982,-0.2498 -0.18085,-0.81585 0.17645,-1.55609" fill="none" stroke="#fff700" stroke-width="0.3" stroke-linecap="round"/></g><g stroke="#000000" stroke-width="0.3" stroke-linecap="butt"><path d="M249.81697,201.50046c-0.31959,0.2172 -1.0507,0.80786 -1.3638,0.87943c-0.38821,0.08874 0.02637,-0.75259 -0.15368,-0.92207c-0.18526,-0.17437 -1.08159,0.10721 -0.89523,-0.19443c0.14084,-0.22797 0.92666,-0.66221 1.2348,-0.87163c0.71583,-0.4865 1.55981,-0.6327 1.88509,-0.32653c0.32528,0.30616 0.00866,0.94872 -0.70718,1.43522z" fill="#e480ff"/><path d="M249.34937,196.29075l-8.31083,-8.69031l2.44691,-1.89549l7.88365,10.25999l-0.88574,4.4391c0,0 0.1389,-2.34732 -0.18433,-2.67746c-0.27114,-0.27696 -1.6264,0.82803 -1.6264,0.82803z" fill="#404040"/><path d="M250.47331,200.02852c-0.41486,1.09887 0.48267,-1.24027 -0.56135,-1.50351c-1.088,-0.27432 -2.20211,1.51211 -1.61108,0.49707c0.70173,-1.20519 0.87135,-1.40116 1.91092,-1.12085c0.701,0.18901 0.91936,0.38488 0.26152,2.12729z" fill="#fff700"/><path d="M249.67934,199.26196c-1.088,-0.27432 -2.20211,1.51211 -1.61108,0.49707c0.70173,-1.20519 0.87135,-1.40116 1.91092,-1.12085c0.70099,0.18901 0.91935,0.38489 0.26151,2.1273c-0.41487,1.09887 0.48267,-1.24028 -0.56135,-1.50352z" fill="#fff700"/><path d="M249.8002,203.31122c-0.37174,0.14283 -0.08048,-0.74873 -0.28272,-0.89099c-0.20809,-0.14638 -1.05551,0.2593 -0.91374,-0.06569c0.10714,-0.24562 0.82355,-0.78677 1.09892,-1.03771c0.63973,-0.58297 1.45449,-0.84722 1.81985,-0.5902c0.36536,0.257 0.14292,0.93793 -0.4968,1.5209c-0.28561,0.26027 -0.9257,0.9485 -1.22551,1.0637z" fill="#e480ff"/><path d="M248.27456,203.61644c-0.90852,0.91043 -1.69108,1.76091 -1.69108,1.76091c0,0 0.10044,-1.02565 1.00897,-1.93609c0.90852,-0.91043 1.71458,-1.30595 2.15866,-0.48202c0.19076,0.35391 -0.56802,-0.25323 -1.47654,0.6572z" fill="#ff0000"/><path d="M247.0649,202.71512c-0.90852,0.91043 -1.69108,1.76091 -1.69108,1.76091c0,0 0.10044,-1.02566 1.00896,-1.93609c0.90852,-0.91043 1.71458,-1.30596 2.15866,-0.48202c0.19076,0.35391 -0.56802,-0.25323 -1.47655,0.6572z" fill="#ff0000"/><path d="M248.68267,200.37713c-0.28561,0.26027 -0.9257,0.9485 -1.22551,1.0637c-0.37173,0.14283 -0.08047,-0.74873 -0.28271,-0.891c-0.20808,-0.14638 -1.05551,0.2593 -0.91374,-0.06569c0.10714,-0.24562 0.82355,-0.78678 1.09891,-1.03772c0.63973,-0.58297 1.45449,-0.84722 1.81985,-0.5902c0.36536,0.257 0.14292,0.93794 -0.4968,1.52091z" fill="#e480ff"/><path d="M245.93153,201.74606c-0.90852,0.91043 -1.69108,1.7609 -1.69108,1.7609c0,0 0.10044,-1.02565 1.00896,-1.93608c0.90852,-0.91043 1.71458,-1.30596 2.15866,-0.48203c0.19076,0.35391 -0.56802,-0.25323 -1.47655,0.65721z" fill="#ff0000"/><path d="M247.54933,199.40805c-0.2856,0.26027 -0.92569,0.9485 -1.2255,1.06369c-0.37174,0.14283 -0.08048,-0.74873 -0.28272,-0.89099c-0.20809,-0.14638 -1.05552,0.2593 -0.91375,-0.06569c0.10714,-0.24562 0.82355,-0.78677 1.09892,-1.03771c0.63972,-0.58297 1.45449,-0.84723 1.81985,-0.59021c0.36535,0.25701 0.14291,0.93795 -0.49681,1.52091z" fill="#e480ff"/><path d="M244.79817,200.77698c-0.90852,0.91043 -1.69108,1.76091 -1.69108,1.76091c0,0 0.10044,-1.02565 1.00896,-1.93609c0.90852,-0.91043 1.71458,-1.30595 2.15867,-0.48202c0.19076,0.35391 -0.56802,-0.25323 -1.47654,0.6572z" fill="#ff0000"/></g></g></g></svg>