<svg version="1.1" xmlns="http://www.w3.org/2000/svg" xmlns:xlink="http://www.w3.org/1999/xlink" width="26.17136" height="10.37575" viewBox="0,0,26.17136,10.37575"><g transform="translate(-226.89498,-173.81183)"><g data-paper-data="{&quot;isPaintingLayer&quot;:true}" fill="#bf0000" fill-rule="nonzero" stroke="none" stroke-width="0" stroke-linecap="butt" stroke-linejoin="miter" stroke-miterlimit="10" stroke-dasharray="" stroke-dashoffset="0" style="mix-blend-mode: normal"><path d="M231.81066,184.18752c0,0 -3.00794,-0.03518 -3.8898,-1.61955c-1.85216,-3.32764 -1.61849,-8.4085 4.2648,-8.63045c0.55878,-0.04147 3.92031,2.10962 3.92031,2.10962c0,0 -3.12686,1.40376 -4.29531,4.01538c-1.56379,3.49524 5.40633,3.125 8.125,3.125c2.73951,0 9.49451,0.8344 8,-3.25c-1.27886,-3.49505 -4.05397,-3.65458 -4.05397,-3.65458c0,0 2.75107,-2.51898 4.17897,-2.47042c5.33668,0.18148 5.78229,5.44431 4.21091,8.47977c-1.00063,1.93293 -4.08591,1.89523 -4.08591,1.89523z"/></g></g></svg>