<svg version="1.1" xmlns="http://www.w3.org/2000/svg" xmlns:xlink="http://www.w3.org/1999/xlink" width="14.50052" height="27.97358" viewBox="0,0,14.50052,27.97358"><g transform="translate(-230.79936,-174.49179)"><g data-paper-data="{&quot;isPaintingLayer&quot;:true}" fill-rule="nonzero" stroke-linejoin="miter" stroke-miterlimit="10" stroke-dasharray="" stroke-dashoffset="0" style="mix-blend-mode: normal"><g><path d="M242.32673,183.51308c-0.17835,0.67912 -1.28122,0.1969 -1.68669,0.72675c-0.5547,0.72482 0.29789,2.90281 -0.38214,3.49816c-0.42418,0.37138 0.16809,-2.11506 -0.65556,-2.24214c-0.3647,-0.05627 -1.19966,1.99482 -1.79854,2.32755c-1.03347,0.57419 -1.9086,-0.41134 -2.37676,-0.53427c-0.37067,-0.09736 -1.82199,-0.10861 -2.32524,-0.94235c-0.46538,-0.77094 0.01861,-2.36568 -0.3712,-2.52347c-0.75308,-0.30484 -1.16504,2.02515 -1.38015,1.51654c-0.3085,-0.72946 1.15072,-2.12735 1.0237,-3.00044c-0.09724,-0.66847 -1.28175,-1.04152 -1.10113,-1.72926c0.04548,-0.17316 0.17228,-0.96813 0.54248,-1.39426c0.39642,-0.4563 1.0353,-0.54262 1.00254,-0.65125c-0.13179,-0.43698 -2.34304,0.2516 -1.77582,-0.20879c1.35534,-1.10009 5.24595,-2.01666 7.13049,-1.52176c1.48866,0.39095 1.8409,2.11244 2.59691,3.2787c0.08237,0.12705 0.2953,0.45905 0.52474,0.45747c0.47467,-0.00326 1.08409,-0.44841 1.20341,-0.18052c0.09105,0.20445 -0.50803,0.74207 -1.04965,0.93265c-0.45427,0.15986 -0.85308,-0.03726 -0.91666,0.21755c-0.0768,0.30783 0.738,0.19325 1.1556,0.48873c0.54046,0.38241 0.72308,1.16681 0.63969,1.4844z" fill="#800000" stroke="#000000" stroke-width="0.3" stroke-linecap="butt"/><path d="M243.15069,181.48312c0.17891,0.67848 -1.32611,1.66363 -3.36156,2.20037c-2.03546,0.53674 -3.83056,0.42182 -4.00948,-0.25667c-0.10303,-0.39072 -1.6479,-3.07231 -0.70341,-4.541c0.69561,-1.08168 4.01767,-1.3401 4.88099,-1.56774c0.61021,-0.16091 0.3237,4.22893 0.85363,4.18277c1.23776,-0.10779 2.21458,-0.49281 2.33986,-0.01773z" fill="#ffc380" stroke="#000000" stroke-width="0.3" stroke-linecap="butt"/><path d="M240.03682,177.83714c0.11834,0.44874 0.17531,2.01605 0.17531,2.01605c0,0 -1.33683,-1.0203 -1.50179,-0.9768c-0.27635,0.07287 -1.05603,1.86345 -1.05603,1.86345c0,0 -0.25878,-1.1535 -0.34835,-1.49313c-0.16094,-0.61032 0.76621,-1.38397 1.38925,-1.54825c0.62304,-0.16428 1.18067,-0.47163 1.34161,0.1387z" fill="#bf9360" stroke="none" stroke-width="0" stroke-linecap="butt"/><path d="M238.0037,174.80535c0.0103,0.03908 -0.3298,0.12536 -0.31718,0.66192c0.01497,0.63665 0.24159,1.31817 0.46802,1.07652c0.24557,-0.26206 1.09229,-1.23725 1.43589,-1.32274c0.81929,-0.20381 1.01456,0.56684 1.25883,0.68793c0.42885,0.2126 0.4688,1.92986 -0.05747,2.56628c-0.32521,0.39328 -0.69106,-1.32713 -0.76218,-1.22275c-0.10783,0.15827 -0.02141,0.99836 -0.6356,1.56488c-0.14744,0.13599 -0.16835,-0.2905 -0.41532,-0.61249c-0.21924,-0.28586 -0.66287,-0.46672 -0.83621,-0.43879c-0.12897,0.02079 0.03589,0.28031 0.06887,0.60509c0.02955,0.29085 -0.07161,0.65036 -0.17623,0.67059c-0.29651,0.05731 -0.40565,-0.41835 -0.93165,-0.59193c-0.56286,-0.18576 -1.42734,0.34267 -1.51421,0.36558c-0.36925,0.09737 -1.08408,1.35938 -1.08408,1.35938c0,0 -0.48449,-1.79844 -0.68101,-2.54369c-0.2917,-1.10621 0.20549,-1.26073 1.33713,-1.55915c0.51749,-0.13646 1.56118,0.58846 2.00603,0.60079c0.23792,0.00659 0.03059,-0.73304 0.11572,-1.31978c0.10377,-0.7152 0.63371,-0.87743 0.72067,-0.54763z" fill="#800000" stroke="#000000" stroke-width="0.3" stroke-linecap="butt"/><path d="M234.2129,178.53568l-0.24284,-0.9209c0,0 0.96479,-0.02713 1.61925,-0.21417c0.19674,-0.05624 0.85909,-0.65513 0.85909,-0.65513l0.84858,0.23141l0.74311,-0.38289c0,0 0.65396,-0.07197 1.02413,-0.19791c0.47531,-0.16171 1.592,-0.69216 1.592,-0.69216c0,0 0.22014,0.34384 0.25847,0.52158c0.03507,0.16262 0.05469,0.47926 0.05469,0.47926c0,0 -1.19169,0.45448 -1.67556,0.55909c-0.3688,0.07974 -1.06946,0.03871 -1.06946,0.03871l-0.67175,0.45204l-0.75103,-0.24278c0,0 -0.62987,0.74094 -0.87308,0.80691c-0.6214,0.16855 -1.71561,0.21692 -1.71561,0.21692z" fill="#bf2e00" stroke="none" stroke-width="0" stroke-linecap="butt"/><path d="M237.72038,179.13744c0.11833,0.44873 -0.00429,1.52168 -0.00429,1.52168c0,0 -1.26902,-1.13668 -1.43398,-1.09319c-0.27635,0.07287 -1.08994,1.92164 -1.08994,1.92164c0,0 -0.21023,-0.96933 -0.29978,-1.30895c-0.16094,-0.61032 0.76621,-1.38397 1.38925,-1.54825c0.62304,-0.16428 1.27781,-0.10327 1.43874,0.50705z" fill="#bf9360" stroke="none" stroke-width="0" stroke-linecap="butt"/><path d="M237.54274,180.1446c0.15759,0.59759 -0.12697,1.19077 -0.63557,1.3249c-0.50859,0.13411 -1.04865,-0.24162 -1.20623,-0.83922c-0.15759,-0.59759 0.27016,-0.83456 0.77875,-0.96869c0.50859,-0.13411 0.90548,-0.1146 1.06305,0.48301z" fill="#000000" stroke="none" stroke-width="0" stroke-linecap="butt"/><path d="M239.63778,179.59213c0.15759,0.59759 -0.12697,1.19077 -0.63557,1.3249c-0.50859,0.13411 -1.04865,-0.24162 -1.20623,-0.83922c-0.15759,-0.59759 0.23625,-0.77637 0.74485,-0.91049c0.50859,-0.13411 0.93937,-0.1728 1.09696,0.42481z" fill="#000000" stroke="none" stroke-width="0" stroke-linecap="butt"/><path d="M237.69402,179.78458c0,0 1.49874,-1.09679 2.24407,-0.641" fill="none" stroke="#000000" stroke-width="0.3" stroke-linecap="round"/><path d="M238.81789,178.25707c0.592,0.51318 -0.30009,0.91634 -0.30009,0.91634" fill="none" stroke="#000000" stroke-width="0.2" stroke-linecap="round"/><path d="M238.21928,178.41493c0.592,0.51318 -0.30009,0.91634 -0.30009,0.91634" fill="none" stroke="#000000" stroke-width="0.2" stroke-linecap="round"/><path d="M235.56128,180.10074c0.42368,-0.76404 2.26836,-0.54891 2.26836,-0.54891" data-paper-data="{&quot;index&quot;:null}" fill="none" stroke="#000000" stroke-width="0.3" stroke-linecap="round"/><path d="M236.52321,179.45312c0,0 -0.97488,0.08916 -0.71291,-0.6492" data-paper-data="{&quot;index&quot;:null}" fill="none" stroke="#000000" stroke-width="0.2" stroke-linecap="round"/><path d="M237.14607,179.38736c0,0 -0.97488,0.08916 -0.71291,-0.6492" data-paper-data="{&quot;index&quot;:null}" fill="none" stroke="#000000" stroke-width="0.2" stroke-linecap="round"/><path d="M238.47777,182.8016c-0.44148,0.11642 -1.06365,-0.53013 -1.06365,-0.53013l1.70366,-0.44925c0,0 -0.19852,0.86294 -0.64,0.97936z" fill="#ff8080" stroke="#000000" stroke-width="0.2" stroke-linecap="butt"/><path d="M234.45756,179.27213l-0.42984,0.52701" fill="none" stroke="#800000" stroke-width="0.7" stroke-linecap="round"/></g><g stroke="#000000" stroke-width="0.3" stroke-linecap="butt"><path d="M238.44646,190.1076c0.65919,0.06862 0.42408,-0.17045 0.70115,0.14675c0.17829,0.20412 0.4933,0.68873 0.4933,1.5477c0,1.45989 -0.39311,3.85509 -0.8605,5.28602c-0.23496,0.71936 0.38039,2.03209 -0.76632,2.01228c-1.07333,0.06803 -0.09521,-1.62121 -0.1502,-2.26141c-0.06296,-0.73299 -0.38965,-1.36587 -0.38965,-2.53689c0,-2.1938 0.43855,-4.25 0.97223,-4.19445z" data-paper-data="{&quot;index&quot;:null}" fill="#ffc380"/><path d="M237.88408,199.31537c1.05654,0 0.95652,-2.90146 0.95652,-1.76087c0,0.49435 0.39904,1.60656 0.27281,2.4583c-0.16502,1.11345 -0.80168,2.10982 -1.05542,2.08518c-0.16318,-0.01584 -1.04196,-0.88555 -1.22293,-2.00612c-0.1694,-1.04889 0.83163,-2.29026 0.83163,-2.84171c0,-1.14059 -0.83915,2.06522 0.21739,2.06522z" data-paper-data="{&quot;index&quot;:null}" fill="#ff0000"/></g><g stroke="#000000" stroke-width="0.3"><path d="M242.62062,187.82408c0,4.00274 -0.09785,1.87371 0.04491,3.99931c2.4074,1.22061 2.51141,1.05366 2.4806,1.45376c-0.0299,0.38825 -3.03406,0.10033 -3.32773,0.10033c-0.28948,0 -1.72774,0.11433 -1.00682,-1.55938c0.12329,-0.888 -0.08164,-0.13291 0.12888,-6.13572c0.07817,-2.22901 -2.35256,-1.89677 -1.26923,-1.89677c1.08333,0 2.94939,1.80809 2.94939,4.03847z" fill="#ffc380" stroke-linecap="butt"/><path d="M242.9583,192.36055c0,0 0.47341,0.10948 0.64189,0.2489c0.18751,0.15518 0.43218,0.63999 0.43218,0.63999" fill="none" stroke-linecap="round"/></g><g stroke="#000000" stroke-width="0.3" stroke-linecap="butt"><path d="M242.11831,194.31432c0,1.03968 0.27545,1.99212 0.36374,2.66074c0.09802,0.74222 0.59348,2.10332 -0.64514,2.05786c-1.18467,-0.04348 -0.38418,-1.39273 -0.68205,-2.11184c-0.57423,-1.38627 -1.20322,-3.66227 -1.20322,-5.10675c0,-0.85897 0.315,-1.34358 0.49329,-1.5477c0.27706,-0.3172 0.04196,-0.07813 0.70115,-0.14675c0.53367,-0.05555 0.97222,2.00064 0.97222,4.19445z" fill="#ffc380"/><path d="M242.66938,197.42407c0,0.55145 0.52276,1.83629 0.35336,2.88518c-0.18097,1.12058 -1.05974,1.99029 -1.22293,2.00612c-0.25375,0.02463 -0.89041,-0.97173 -1.05542,-2.08518c-0.12623,-0.85174 0.35977,-2.09438 0.35977,-2.58873c0,-1.14059 -0.31742,1.58696 0.73913,1.58696c1.05654,0 0.82609,-2.94494 0.82609,-1.80435z" fill="#ff0000"/></g><g><path d="M240.92857,185.44045c0,0 0.6731,0.48075 0.55151,0.9829c-0.03638,0.15025 -0.59632,1.55301 -0.52872,2.30742c0.08252,0.92083 1.19382,3.14583 1.10407,3.22708c-0.1792,0.16224 -1.92168,-0.10371 -2.1834,-0.10371c-0.24097,0 -2.18049,0.00152 -2.29265,-0.16619c-0.07292,-0.10904 0.79014,-2.20706 0.73197,-2.83948c-0.05514,-0.5994 -0.85897,-2.88645 -0.85897,-3.26515c0,-0.53575 0.30342,-1.35622 0.64329,-1.71824c0.36919,-0.39326 0.27474,0.12301 0.85671,0.12301c0.55886,0 0.541,-0.39252 0.90724,-0.02629c0.36623,0.36623 1.06895,1.47867 1.06895,1.47867z" fill="#ff0000" stroke="#000000" stroke-width="0.3" stroke-linecap="butt"/><path d="M239.21428,186.29757c0,0.3055 -0.1501,0.53214 -0.25425,0.71972c-0.08861,0.1596 -0.1045,0.30409 -0.38861,0.30409c-0.61803,0 -0.29527,0.5606 -0.45123,0.01786c-0.16868,-0.58695 -0.39973,-1.26602 -0.39973,-1.26602c0,0 0.35104,-0.20959 0.53928,-0.24098c0.50753,-0.08462 0.95454,0.05288 0.95454,0.46534z" fill="#bf0000" stroke="none" stroke-width="0" stroke-linecap="butt"/><path d="M241.30953,186.30937c0,0.27484 -0.00545,0.46305 -0.15936,0.65784c-0.19217,0.24323 -0.66222,0.31835 -0.9835,0.31835c-0.57858,0 -1.2381,0.49899 -1.2381,-0.11905c0,-0.26896 0.5174,-0.73978 0.66543,-1.02445c0.19212,-0.36947 0.29349,-0.57079 0.62028,-0.57079c0.57858,0 1.09524,0.12006 1.09524,0.7381z" fill="#bf0000" stroke="none" stroke-width="0" stroke-linecap="butt"/><path d="M239.30952,186.22616c0,0 -0.0056,0.3899 -0.12574,0.58213c-0.11791,0.18866 -0.58855,0.56073 -0.58855,0.56073" fill="none" stroke="#000000" stroke-width="0.3" stroke-linecap="round"/></g><g stroke="#000000"><path d="M237.45199,185.99127c-1.52174,2.11658 0.06795,-0.04343 -1.45652,2.15217c-0.98333,1.18876 -0.52464,0.71751 -1.03018,1.17754c-0.07948,0.07232 -0.03956,0.04511 3.13017,0.64553c0.10216,-0.22282 1.36236,-0.27175 1.73854,-0.10629c0.34486,0.15168 -0.32242,0.82257 -0.33572,0.89988c-0.06024,0.35 -1.59965,0.35017 -1.65825,0.3576c-0.16088,0.0204 -1.48227,0.1358 -2.39327,-0.27623c-0.86645,-0.39188 -1.32849,-1.31065 -1.32876,-1.3506c-0.00202,-0.30093 1.85573,-3.04686 1.85573,-3.63005c0,-1.11658 1.23551,-1.97826 1.84783,-1.97826c0.61231,0 0.28224,1.20211 -0.36956,2.1087z" fill="#ffc380" stroke-width="0.3" stroke-linecap="butt"/><path d="M239.45199,190.70668l-0.91304,-0.08696" fill="none" stroke-width="0.1" stroke-linecap="round"/><path d="M238.66938,190.0545l1,0.17391" fill="none" stroke-width="0.1" stroke-linecap="round"/></g></g></g></svg>