<svg version="1.1" xmlns="http://www.w3.org/2000/svg" xmlns:xlink="http://www.w3.org/1999/xlink" width="16.69218" height="39.13146" viewBox="0,0,16.69218,39.13146"><g transform="translate(-232.98242,-164.83589)"><g data-paper-data="{&quot;isPaintingLayer&quot;:true}" fill-rule="nonzero" stroke-linejoin="miter" stroke-miterlimit="10" stroke-dasharray="" stroke-dashoffset="0" style="mix-blend-mode: normal"><g stroke="#000000" stroke-width="0.3" stroke-linecap="butt"><g fill="#404040"><path d="M243.1021,175.84454c0,0 0.98129,-1.53611 0.69432,-1.74205c-0.32379,-0.23238 -1.0337,-0.74181 -1.0337,-0.74181l0.6719,-0.99689l1.80832,1.37992l-1.33112,2.323z"/><path d="M240.6531,176.61015l-3.15676,-2.12767l4.51664,-6.70119l3.15676,2.12767z"/><path d="M243.81072,178.60376l-2.98447,-2.01155l0.75882,-1.12584c0,0 2.24646,0.48736 3.67806,0.38497c0.85505,-0.06116 -1.45243,2.75238 -1.45243,2.75238z"/><path d="M240.78802,175.5735l-0.83073,-0.55991l3.35948,-4.98436l0.83073,0.55991z"/><path d="M239.02135,174.47417l-0.44306,-0.29862l3.35948,-4.98436l0.44306,0.29862z"/><path d="M241.26033,168.77847c0.34386,-0.51018 1.05652,-0.6313 1.5918,-0.27052c0.53526,0.36077 0.69043,1.06682 0.34657,1.577c-0.34386,0.51017 -1.05653,0.63129 -1.59179,0.27051c-0.53526,-0.36077 -0.69043,-1.0668 -0.34657,-1.57698z"/><path d="M244.23102,169.03131l-1.60607,-1.0825l0.80254,-1.19071l1.60607,1.0825z"/><path d="M245.13241,167.79729l-1.66144,-1.11982l0.43414,-1.60009l2.65834,1.79172z"/></g><path d="M243.71832,178.83879c-0.31748,0.40049 -3.60667,-0.99824 -3.1654,-1.86132c0.50572,-0.98914 0.46943,-1.09985 0.67423,-1.42105c0.22649,-0.35523 0.60772,-0.73361 1.1326,-1.45218c0.12122,-0.16594 0.84204,0.023 0.89869,0.59645c0.02389,0.2418 -0.33712,0.76423 -0.48014,1.01449c-0.18071,0.31621 0.27578,-0.78869 0.97677,-0.79283c0.30589,-0.00182 0.48875,0.57518 -0.11304,1.52821c-0.25372,0.40184 0.42339,-0.42583 0.76768,-0.96357c0.31033,-0.4847 1.18082,0.57989 1.16121,0.61339c-0.46868,0.80065 -0.33288,0.60569 -0.79026,1.32306c-0.45737,0.71736 -0.36266,0.53275 -1.0623,1.41534z" data-paper-data="{&quot;index&quot;:null}" fill="#ffc380"/></g><path d="M240.30409,184.46918l1.81806,-7.02626l0.82527,1.24143l-1.61174,7.33662z" data-paper-data="{&quot;index&quot;:null}" fill="#418040" stroke="#000000" stroke-width="0.3" stroke-linecap="butt"/><path d="M242.42517,188.99093c-0.42094,0 -0.63372,-1.84179 -1.68238,-1.77925c-1.73933,0.10373 -4.90256,2.49093 -4.90256,1.8925c0,-0.44139 1.71494,-2.05424 1.71494,-2.05424c0,0 -0.73813,-3.251 -0.13399,-3.251c1.11911,0 3.02632,-0.32765 3.02632,0.63158c0,0.3803 2.65309,4.56041 1.97767,4.56041z" data-paper-data="{&quot;index&quot;:null}" fill="#61bf60" stroke="#000000" stroke-width="0.3" stroke-linecap="butt"/><path d="M234.95006,192.1488l-0.8,-1.5l2,-1.5c0,0 3.56465,-1.7667 4.59758,-1.75004c1.03374,0.01667 1.60242,1.85004 1.60242,1.85004l1.84854,1.77826l-0.99525,0.12706l1.24671,1.49468l-4.60289,1.91523l1.31185,-2.70092l-1.04022,-1.75587l0.83455,1.8517l-1.21243,2.2179l-3.09831,-2.19979c0,0 -2.23653,1.73104 -2.89375,1.69193c-1.30676,-0.07779 1.2012,-1.52017 1.2012,-1.52017z" fill="#e4af72" stroke="#000000" stroke-width="0.3" stroke-linecap="butt"/><g><path d="M243.86716,182.7242c0,0.70168 -1.70646,1.27051 -3.8115,1.27051c-2.10504,0 -3.81151,-0.56883 -3.81151,-1.27051c0,-0.40408 -0.81006,-3.39093 0.47769,-4.57026c0.94842,-0.86857 4.22658,-0.27139 5.11939,-0.27139c0.63107,0 -0.76529,4.17168 -0.2411,4.26217c1.22433,0.21138 2.26704,0.08815 2.26704,0.57947z" data-paper-data="{&quot;index&quot;:null}" fill="#ffc380" stroke="#000000" stroke-width="0.3" stroke-linecap="butt"/><path d="M241.92124,177.53579c0,1.13364 -1.69747,0.15789 -2.94738,0.15789c-1.24991,0 -3,2.5547 -3,1.42105c0,-0.04823 -1.39804,-0.23222 -1.93388,-0.94448c-0.50054,-0.66535 -0.14143,-1.852 -0.13732,-2.16033c0.00765,-0.57354 2.10682,0.60836 2.05611,0.10106c-0.1282,-1.2824 -0.4281,-1.92813 0.02891,-2.34969c0.49839,-0.45972 2.63987,2.53409 2.99915,2.09082c0.79875,-0.98547 0.47333,-1.79001 1.03966,-1.79001c1.24991,0 1.89474,2.34004 1.89474,3.47368z" data-paper-data="{&quot;index&quot;:null}" fill="#ff7c00" stroke="#000000" stroke-width="0.3" stroke-linecap="butt"/><path d="M234.57433,182.35901l-0.13334,-4.16666l1.56667,1.33334l-0.1,1.9z" data-paper-data="{&quot;index&quot;:null}" fill="#ffc380" stroke="#000000" stroke-width="0.3" stroke-linecap="butt"/><path d="M235.0713,182.05901l-0.02044,-2.32198l0.89013,0.73771l-0.03199,0.74122z" data-paper-data="{&quot;index&quot;:null}" fill="#bf9360" stroke="#000000" stroke-width="0.2" stroke-linecap="butt"/><path d="M234.50016,177.69368c0,1.1627 2.97574,1.42105 1.8421,1.42105c-1.13363,0 -2.36842,-0.62677 -2.36842,-1.78947c0,-1.1627 -0.10174,-1.6927 0.94737,-1.26316c1.02838,0.42105 -0.42105,0.46887 -0.42105,1.63158z" data-paper-data="{&quot;index&quot;:null}" fill="#bf5c00" stroke="none" stroke-width="0" stroke-linecap="butt"/><path d="M236.60545,175.19368c0,1.14817 -0.68935,0.57035 -0.28947,1.18421c0.08355,0.12827 -0.23685,0.38501 -0.23685,-0.76316c0,-1.14817 -0.52306,-1.18871 -0.18421,-1.71052c0.10374,-0.15975 0.71053,0.1413 0.71053,1.28947z" data-paper-data="{&quot;index&quot;:null}" fill="#bf5c00" stroke="none" stroke-width="0" stroke-linecap="butt"/><path d="M240.0528,174.79895c-0.73758,1.0626 -0.81579,2.30882 -0.81579,1.13157c0,-1.17724 0.111,-0.26637 0.5,-1.5c0.08299,-0.26316 1.08298,-0.73684 0.31579,0.36843z" data-paper-data="{&quot;index&quot;:null}" fill="#bf5c00" stroke="none" stroke-width="0" stroke-linecap="butt"/><path d="M241.02648,176.58842c0,0.61669 -0.66079,0.78263 -1.25861,0.66172c-0.50112,-0.10135 -0.8954,-0.45119 -1.4256,-0.45119c-1.1627,0 -1.89474,1.92311 -1.89474,0.78947c0,-1.13363 0.6794,-1.10526 1.84211,-1.10526c0.43324,0 0.76572,0.3309 1.21049,0.21039c0.74886,-0.2029 1.52635,-0.81635 1.52635,-0.10513z" data-paper-data="{&quot;index&quot;:null}" fill="#ff9c40" stroke="none" stroke-width="0" stroke-linecap="butt"/><path d="M240.55277,180.00002c0,0.62495 -0.24742,1.13158 -0.55263,1.13158c-0.30521,0 -0.65789,-1.07895 -0.65789,-1.07895l0.65789,-1.18421c0,0 0.55263,0.50663 0.55263,1.13158z" data-paper-data="{&quot;index&quot;:null}" fill="#ffffff" stroke="#000000" stroke-width="0.3" stroke-linecap="butt"/><path d="M239.34229,179.85157c0,0 0.57583,-1.08467 0.90603,-1.29833c0.20991,-0.13582 0.88344,0.14044 0.88344,0.14044" data-paper-data="{&quot;index&quot;:null}" fill="none" stroke="#000000" stroke-width="0.3" stroke-linecap="round"/><path d="M238.7107,180.03578c0,0 -0.24742,1.44737 -0.55263,1.44737c-0.30521,0 -0.55263,-0.64801 -0.55263,-1.44737c0,-0.79936 0.55263,-1.44737 0.55263,-1.44737z" data-paper-data="{&quot;index&quot;:null}" fill="#ffffff" stroke="#000000" stroke-width="0.3" stroke-linecap="butt"/><path d="M236.07912,177.64105c0,0 1.10758,-0.25389 1.53651,0.1503c0.47802,0.45044 1.20033,2.42865 1.20033,2.42865" data-paper-data="{&quot;index&quot;:null}" fill="none" stroke="#000000" stroke-width="0.3" stroke-linecap="round"/><path d="M237.71068,182.16736c0,0 0.72006,0.39895 1.30192,0.57275c0.73356,0.21911 2.75071,0.63777 2.75071,0.63777c0,0 -0.51341,-0.26967 -1.47183,-0.34076c-0.51071,-0.03788 -1.41158,0.20675 -1.84396,0.0776c-1.2438,-0.37152 -0.73684,-0.94737 -0.73684,-0.94737z" data-paper-data="{&quot;index&quot;:null}" fill="#ffffff" stroke="#000000" stroke-width="0.3" stroke-linecap="round"/></g><g stroke-linecap="butt"><path d="M241.52459,193.58052l2.62086,-0.78901l1.1212,0.76001c0,0 2.7591,1.68093 2.8369,1.73954c0.22699,0.17101 1.74974,1.65521 1.01809,2.50892c-0.7092,0.8275 -2.02911,0.72793 -3.07072,0.72793c-1.01775,0 -3.89861,0.68292 -5.07322,-0.23686c-1.40855,-1.10297 -1.03204,-3.84209 -1.03204,-3.84209z" fill="#ff0000" stroke="#000000" stroke-width="0.3"/><path d="M245.78777,198.63315c-1.45338,0 -5.94737,-1.50345 -5.94737,-2.57895c0,-1.0755 0.1782,-2.31579 1.63158,-2.31579c0.54263,0 0.92792,0.56938 1.65946,0.94318c1.22782,0.62738 2.76159,1.2776 2.76159,1.95156c0,1.0755 1.34812,2 -0.10526,2z" fill="#bf0000" stroke="none" stroke-width="0"/><path d="M247.93917,195.26475c0.37082,0 -0.96643,-0.08729 -0.96643,0.97368c0,1.06097 0.27834,1.71053 -0.09249,1.71053c-0.37083,0 -1.03986,-1.01798 -1.03986,-2.07895c0,-1.06096 1.72795,-0.60526 2.09878,-0.60526z" fill="#ff7b00" stroke="#000000" stroke-width="0.3"/><path d="M243.70882,194.54896c0,-1.06097 1.72796,-0.60527 2.09878,-0.60527c0.37082,0 -0.96643,-0.08728 -0.96643,0.97369c0,1.06097 0.27833,1.71052 -0.09249,1.71052c-0.37082,0 -1.03986,-1.01798 -1.03986,-2.07895z" fill="#ff7b00" stroke="#000000" stroke-width="0.3"/><path d="M249.5246,197.60686c0,0.39241 -0.16486,2.24292 -4.18421,2.23684c-3.95967,-0.00599 -5.56866,-2.68687 -5.55263,-3.07895c0.05263,-1.28715 1.69705,1.68649 5.39474,1.81579c4.11793,0.144 4.34211,-1.3661 4.34211,-0.97369z" fill="#fffdc0" stroke="#000000" stroke-width="0.3"/><path d="M241.80003,194.40778c0.63513,0 1.15,0.50167 1.15,1.12051c0,0.61884 -0.51487,1.12051 -1.15,1.12051c-0.63513,0 -1.15,-0.50167 -1.15,-1.12051c0,-0.61884 0.51487,-1.12051 1.15,-1.12051z" fill="#ff7b00" stroke="#000000" stroke-width="0.3"/></g><g stroke-linecap="butt"><path d="M240.02568,198.1995c0,0 1.55876,1.41997 1.00195,1.82209c-0.74138,0.53541 -0.2471,2.27308 -4.87032,2.2478c-2.98696,-0.01633 -2.08064,-4.82452 -2.10012,-6.50325c-0.02039,-1.75729 0.00949,-2.26458 0.00949,-2.26458l2.4564,-1.30437l2.50676,1.62017c0,0 0.15634,0.80898 0.01011,1.543c-0.0461,0.23141 0.98573,2.83914 0.98573,2.83914z" fill="#ff0000" stroke="#000000" stroke-width="0.3"/><path d="M240.95618,199.86998c-0.50944,0.79945 -0.5184,1.27724 -1.49874,1.74232c-0.53888,0.25565 -1.25618,0.56993 -2.92231,0.57346c-1.18079,0.00251 -1.13129,-0.09789 -1.45858,-0.28902c-0.57083,-0.33336 -0.89066,-0.94273 -0.85721,-1.76361c-0.02804,-1.60409 1.71398,-1.52632 2.78948,-1.52632c1.0755,0 4.55658,0.30713 3.94736,1.26316z" fill="#bf0000" stroke="none" stroke-width="0"/><path d="M236.80353,197.17026c-1.13363,0 -1.89473,0.4588 -1.89473,-0.07895c0,-0.53775 0.81373,-0.71052 1.94736,-0.71052c1.13363,0 2,0.33067 2,0.86841c0,0.53775 -0.919,-0.07895 -2.05263,-0.07895z" data-paper-data="{&quot;index&quot;:null}" fill="#ff7b00" stroke="#000000" stroke-width="0.3"/><path d="M236.75092,195.32814c-1.13363,0 -1.89473,0.45881 -1.89473,-0.07894c0,-0.53775 0.81373,-0.71053 1.94736,-0.71053c1.13363,0 2,0.33067 2,0.86841c0,0.53775 -0.919,-0.07895 -2.05263,-0.07895z" data-paper-data="{&quot;index&quot;:null}" fill="#ff7c00" stroke="#000000" stroke-width="0.3"/><path d="M241.27198,199.7384c0,0.39241 -0.32275,4.08503 -4.34211,4.07895c-3.95967,-0.00599 -3.14761,-3.31844 -3.13158,-3.71053c0.05263,-1.28715 -0.724,2.10754 2.97369,2.23684c4.11793,0.144 4.5,-2.99768 4.5,-2.60527z" fill="#fffdc0" stroke="#000000" stroke-width="0.3"/><path d="M237.06145,203.50156c0,0.21293 -0.83102,0.26316 -1.76316,-0.15789c-0.54611,-0.24668 -0.76031,-0.33884 -0.93729,-0.5632c-0.14494,-0.18375 -0.40482,-0.38557 -0.40482,-0.64733c0,-0.58135 -0.0604,-2.30041 -0.07895,-1.21053c-0.00791,0.46517 0.24997,1.33086 1.10584,1.83333c0.79035,0.464 2.07837,0.46652 2.07837,0.74562z" fill="#bfbfbf" stroke="none" stroke-width="0"/></g><path d="M236.6949,184.0266l1.81806,-7.02626l0.82527,1.24143l-1.61174,7.33662z" data-paper-data="{&quot;index&quot;:null}" fill="#418040" stroke="#000000" stroke-width="0.3" stroke-linecap="butt"/><g stroke="#000000" stroke-width="0.3" stroke-linecap="butt"><g fill="#404040"><path d="M238.65989,175.42764c0,0 -0.06413,-1.82166 -0.41729,-1.82831c-0.39847,-0.0075 -1.27211,-0.02391 -1.27211,-0.02391l-0.01275,-1.20211l2.27205,0.10952l0.22282,2.66806z"/><path d="M237.07833,177.44813l-3.80664,0.04035l-0.08564,-8.08077l3.80664,-0.04035z"/><path d="M240.80958,177.29693l-3.59888,0.03814l-0.01439,-1.35761c0,0 2.12608,-0.87401 3.24655,-1.77097c0.66922,-0.53573 0.36669,3.09042 0.36669,3.09042z"/><path d="M236.60095,176.51811l-1.00175,0.01063l-0.0637,-6.01049l1.00175,-0.01063z"/><path d="M234.52246,176.61595l-0.53427,0.00567l-0.0637,-6.01049l0.53427,-0.00567z"/><path d="M233.13249,170.65591c-0.00653,-0.61521 0.51143,-1.11947 1.15691,-1.12631c0.64545,-0.00684 1.174,0.48633 1.18052,1.10155c0.00652,0.6152 -0.51144,1.11947 -1.1569,1.1263c-0.64545,0.00684 -1.17399,-0.48633 -1.18051,-1.10153z"/><path d="M235.72168,169.17772l-1.93671,0.02053l-0.01522,-1.43584l1.93671,-0.02053z"/><path d="M235.76325,167.65011l-2.00347,0.02123l-0.5509,-1.56373l3.2056,-0.03398z"/></g><path d="M240.86693,177.54287c-0.03402,0.50993 -3.5359,1.22555 -3.66255,0.26453c-0.14516,-1.10139 -0.23787,-1.17194 -0.25162,-1.55263c-0.01519,-0.42102 0.08386,-0.94894 0.10808,-1.83845c0.0056,-0.20543 0.70628,-0.45905 1.07844,-0.01912c0.15693,0.18551 0.15629,0.82053 0.1806,1.10775c0.03073,0.3629 -0.22067,-0.80585 0.35408,-1.20719c0.2508,-0.17514 0.72887,0.19608 0.77444,1.32229c0.01924,0.47484 0.10683,-0.59091 0.08502,-1.22906c-0.01966,-0.57521 1.3013,-0.19291 1.30417,-0.15419c0.06866,0.92519 0.06978,0.6876 0.10046,1.53783c0.03068,0.85021 0.00386,0.64446 -0.07111,1.76823z" data-paper-data="{&quot;index&quot;:null}" fill="#ffc380"/></g></g></g></svg>