<svg version="1.1" xmlns="http://www.w3.org/2000/svg" xmlns:xlink="http://www.w3.org/1999/xlink" width="13.73217" height="27.69108" viewBox="0,0,13.73217,27.69108"><g transform="translate(-233.968,-174.77431)"><g data-paper-data="{&quot;isPaintingLayer&quot;:true}" fill-rule="nonzero" stroke-linejoin="miter" stroke-miterlimit="10" stroke-dasharray="" stroke-dashoffset="0" style="mix-blend-mode: normal"><g><path d="M247.47076,180.78463c0.14352,0.68732 -1.05863,0.74807 -1.18498,1.40319c-0.17285,0.89619 1.56221,2.46465 1.21942,3.30093c-0.21383,0.52166 -0.79362,-1.96772 -1.5874,-1.7138c-0.35147,0.11242 -0.18316,2.32055 -0.57056,2.88561c-0.66853,0.9751 -1.89152,0.4838 -2.36535,0.58273c-0.37515,0.07834 -1.67892,0.71604 -2.50139,0.19459c-0.76054,-0.48217 -1.03924,-2.12526 -1.45851,-2.09248c-0.80997,0.06335 -0.13864,2.33224 -0.55814,1.97311c-0.60165,-0.51506 0.08019,-2.4173 -0.42316,-3.1419c-0.38538,-0.55479 -1.61186,-0.35992 -1.7572,-1.05597c-0.03659,-0.17526 -0.27795,-0.94324 -0.13686,-1.48981c0.15108,-0.58527 0.68426,-0.94767 0.60646,-1.03026c-0.31297,-0.33222 -1.98439,1.27096 -1.6823,0.60578c0.72182,-1.58938 3.79428,-4.14612 5.70159,-4.54438c1.50664,-0.3146 2.59023,1.06867 3.78729,1.77486c0.13041,0.07694 0.46913,0.27899 0.67376,0.17518c0.42332,-0.21478 0.76997,-0.88515 0.99631,-0.69867c0.17273,0.14232 -0.1234,0.8908 -0.52301,1.3031c-0.33517,0.34581 -0.78003,0.34743 -0.72319,0.60381c0.06867,0.30974 0.74667,-0.15648 1.25225,-0.07845c0.65433,0.10097 1.16786,0.7214 1.23497,1.04281z" fill="#800000" stroke="#000000" stroke-width="0.3" stroke-linecap="butt"/><path d="M243.58426,183.46493c-0.14083,0.6874 -1.92675,0.90215 -3.98895,0.47964c-2.0622,-0.42251 -3.61977,-1.32227 -3.47894,-2.00968c0.0811,-0.39586 -0.11297,-3.48452 1.38528,-4.38138c1.10345,-0.66053 4.19504,0.58246 5.06968,0.76166c0.61823,0.12667 -1.58702,3.93319 -1.09167,4.12704c1.15699,0.45282 2.20321,0.54138 2.1046,1.0227z" fill="#ffc380" stroke="#000000" stroke-width="0.3" stroke-linecap="butt"/><path d="M242.41227,178.81565c-0.09314,0.45464 -0.73777,1.88438 -0.73777,1.88438c0,0 -0.74504,-1.50766 -0.91216,-1.5419c-0.27998,-0.05736 -1.77343,1.20108 -1.77343,1.20108c0,0 0.28011,-1.14851 0.3506,-1.49259c0.12669,-0.61834 1.30089,-0.90006 1.93212,-0.77073c0.63121,0.12933 1.26733,0.10143 1.14064,0.71978z" fill="#bf9360" stroke="none" stroke-width="0" stroke-linecap="butt"/><path d="M241.93614,175.19646c-0.00811,0.03959 -0.35118,-0.03404 -0.57803,0.45235c-0.26918,0.57713 -0.36861,1.28844 -0.05844,1.1724c0.33638,-0.12584 1.52797,-0.62386 1.87381,-0.54795c0.82462,0.18102 0.65754,0.95826 0.82268,1.1752c0.28992,0.38087 -0.43652,1.93742 -1.19059,2.27411c-0.46598,0.20806 -0.03019,-1.49597 -0.14025,-1.43401c-0.16687,0.09395 -0.46233,0.88511 -1.26416,1.12015c-0.19248,0.05642 -0.02191,-0.33504 -0.10029,-0.73319c-0.06959,-0.35347 -0.38683,-0.71245 -0.55456,-0.76436c-0.1248,-0.03862 -0.09227,0.26711 -0.20686,0.57278c-0.10262,0.27374 -0.35284,0.55099 -0.45557,0.52268c-0.29114,-0.08025 -0.1778,-0.55493 -0.5721,-0.94395c-0.42193,-0.4163 -1.43113,-0.32648 -1.51915,-0.34452c-0.3741,-0.07665 -1.57482,0.73694 -1.57482,0.73694c0,0 0.36413,-1.82661 0.51881,-2.58166c0.22962,-1.12073 0.74374,-1.03852 1.89025,-0.80363c0.52429,0.10741 1.13776,1.22027 1.53092,1.42878c0.21027,0.11151 0.35278,-0.64329 0.6895,-1.13127c0.41044,-0.59483 0.95732,-0.50497 0.88886,-0.17086z" fill="#800000" stroke="#000000" stroke-width="0.3" stroke-linecap="butt"/><path d="M236.88345,176.85657l0.19115,-0.933c0,0 0.87659,0.40392 1.54607,0.52682c0.20127,0.03694 1.06062,-0.20574 1.06062,-0.20574l0.6577,0.58403l0.83585,-0.01327c0,0 0.61795,0.22578 1.00556,0.27724c0.4977,0.06607 1.7338,0.08641 1.7338,0.08641c0,0 0.04464,0.40583 0.0001,0.58212c-0.04076,0.16129 -0.16372,0.45375 -0.16372,0.45375c0,0 -1.26959,-0.12169 -1.74961,-0.24273c-0.36587,-0.09225 -0.97551,-0.44001 -0.97551,-0.44001l-0.8026,0.10691l-0.56523,-0.55091c0,0 -0.8933,0.38438 -1.14053,0.33553c-0.63165,-0.12478 -1.63363,-0.56713 -1.63363,-0.56713z" fill="#bf2e00" stroke="none" stroke-width="0" stroke-linecap="butt"/><path d="M239.75937,178.95265c-0.09314,0.45463 -0.67928,1.36167 -0.67928,1.36167c0,0 -0.63263,-1.58185 -0.79974,-1.61609c-0.27998,-0.05736 -1.82964,1.23818 -1.82964,1.23818c0,0 0.24187,-0.96192 0.31237,-1.306c0.12669,-0.61834 1.30089,-0.90006 1.93212,-0.77073c0.63121,0.12933 1.19087,0.47464 1.06418,1.09298z" fill="#bf9360" stroke="none" stroke-width="0" stroke-linecap="butt"/><path d="M239.15315,179.77631c-0.12405,0.60545 -0.64233,1.01069 -1.15761,0.90512c-0.51527,-0.10557 -0.83244,-0.68197 -0.70839,-1.28743c0.12405,-0.60545 0.61252,-0.62793 1.1278,-0.52237c0.51527,0.10557 0.86225,0.29922 0.73821,0.90468z" fill="#000000" stroke="none" stroke-width="0" stroke-linecap="butt"/><path d="M241.27572,180.21117c-0.12405,0.60545 -0.64233,1.01069 -1.15761,0.90512c-0.51527,-0.10557 -0.83244,-0.68197 -0.70839,-1.28743c0.12405,-0.60545 0.55631,-0.59084 1.07159,-0.48526c0.51527,0.10557 0.91846,0.26212 0.79442,0.86757z" fill="#000000" stroke="none" stroke-width="0" stroke-linecap="butt"/><path d="M239.44852,179.52086c0,0 1.82983,-0.31758 2.29541,0.42168" fill="none" stroke="#000000" stroke-width="0.3" stroke-linecap="round"/><path d="M241.13361,178.65091c0.3027,0.72262 -0.67564,0.68792 -0.67564,0.68792" fill="none" stroke="#000000" stroke-width="0.2" stroke-linecap="round"/><path d="M240.52714,178.52666c0.3027,0.72262 -0.67564,0.68792 -0.67564,0.68792" fill="none" stroke="#000000" stroke-width="0.2" stroke-linecap="round"/><path d="M237.39705,178.85751c0.71878,-0.4966 2.2763,0.51498 2.2763,0.51498" data-paper-data="{&quot;index&quot;:null}" fill="none" stroke="#000000" stroke-width="0.3" stroke-linecap="round"/><path d="M238.54648,178.70415c0,0 -0.91315,-0.35283 -0.35067,-0.89819" data-paper-data="{&quot;index&quot;:null}" fill="none" stroke="#000000" stroke-width="0.2" stroke-linecap="round"/><path d="M239.13381,178.92169c0,0 -0.91315,-0.35283 -0.35067,-0.89819" data-paper-data="{&quot;index&quot;:null}" fill="none" stroke="#000000" stroke-width="0.2" stroke-linecap="round"/><path d="M238.81167,182.57226c-0.44729,-0.09164 -0.71783,-0.94716 -0.71783,-0.94716l1.72605,0.35364c0,0 -0.56093,0.68517 -1.00821,0.59352z" fill="#ff8080" stroke="#000000" stroke-width="0.2" stroke-linecap="butt"/></g><g stroke="#000000" stroke-width="0.3" stroke-linecap="butt"><path d="M238.44646,190.10761c0.65919,0.06862 0.42408,-0.17045 0.70115,0.14675c0.17829,0.20412 0.4933,0.68873 0.4933,1.5477c0,1.45989 -0.39311,3.85509 -0.8605,5.28602c-0.23496,0.71936 0.38039,2.03209 -0.76632,2.01228c-1.07333,0.06803 -0.09521,-1.62121 -0.1502,-2.26141c-0.06296,-0.73299 -0.38965,-1.36587 -0.38965,-2.53689c0,-2.1938 0.43855,-4.25 0.97223,-4.19445z" data-paper-data="{&quot;index&quot;:null}" fill="#ffc380"/><path d="M237.88408,199.31538c1.05654,0 0.95652,-2.90146 0.95652,-1.76087c0,0.49435 0.39904,1.60656 0.27281,2.4583c-0.16502,1.11345 -0.80168,2.10982 -1.05542,2.08518c-0.16318,-0.01584 -1.04196,-0.88555 -1.22293,-2.00612c-0.1694,-1.04889 0.83163,-2.29026 0.83163,-2.84171c0,-1.14059 -0.83915,2.06522 0.21739,2.06522z" data-paper-data="{&quot;index&quot;:null}" fill="#ff0000"/></g><g stroke="#000000" stroke-width="0.3"><path d="M242.62062,187.82409c0,4.00274 -0.09785,1.87371 0.04491,3.99931c2.4074,1.22061 2.51141,1.05366 2.4806,1.45376c-0.0299,0.38825 -3.03406,0.10033 -3.32773,0.10033c-0.28948,0 -1.72774,0.11433 -1.00682,-1.55938c0.12329,-0.888 -0.08164,-0.13291 0.12888,-6.13572c0.07817,-2.22901 -2.35256,-1.89677 -1.26923,-1.89677c1.08333,0 2.94939,1.80809 2.94939,4.03847z" fill="#ffc380" stroke-linecap="butt"/><path d="M242.9583,192.36056c0,0 0.47341,0.10948 0.64189,0.2489c0.18751,0.15518 0.43218,0.63999 0.43218,0.63999" fill="none" stroke-linecap="round"/></g><g stroke="#000000" stroke-width="0.3" stroke-linecap="butt"><path d="M242.11831,194.31433c0,1.03968 0.27545,1.99212 0.36374,2.66074c0.09802,0.74222 0.59348,2.10332 -0.64514,2.05786c-1.18467,-0.04348 -0.38418,-1.39273 -0.68205,-2.11184c-0.57423,-1.38627 -1.20322,-3.66227 -1.20322,-5.10675c0,-0.85897 0.315,-1.34358 0.49329,-1.5477c0.27706,-0.3172 0.04196,-0.07813 0.70115,-0.14675c0.53367,-0.05555 0.97222,2.00064 0.97222,4.19445z" fill="#ffc380"/><path d="M242.66938,197.42408c0,0.55145 0.52276,1.83629 0.35336,2.88518c-0.18097,1.12058 -1.05974,1.99029 -1.22293,2.00612c-0.25375,0.02463 -0.89041,-0.97173 -1.05542,-2.08518c-0.12623,-0.85174 0.35977,-2.09438 0.35977,-2.58873c0,-1.14059 -0.31742,1.58696 0.73913,1.58696c1.05654,0 0.82609,-2.94494 0.82609,-1.80435z" fill="#ff0000"/></g><g><path d="M240.92857,185.44046c0,0 0.6731,0.48075 0.55151,0.9829c-0.03638,0.15025 -0.59632,1.55301 -0.52872,2.30742c0.08252,0.92083 1.19382,3.14583 1.10407,3.22708c-0.1792,0.16224 -1.92168,-0.10371 -2.1834,-0.10371c-0.24097,0 -2.18049,0.00152 -2.29265,-0.16619c-0.07292,-0.10904 0.79014,-2.20706 0.73197,-2.83948c-0.05514,-0.5994 -0.85897,-2.88645 -0.85897,-3.26515c0,-0.53575 0.30342,-1.35622 0.64329,-1.71824c0.36919,-0.39326 0.27474,0.12301 0.85671,0.12301c0.55886,0 0.541,-0.39252 0.90724,-0.02629c0.36623,0.36623 1.06895,1.47867 1.06895,1.47867z" fill="#ff0000" stroke="#000000" stroke-width="0.3" stroke-linecap="butt"/><path d="M239.21428,186.29758c0,0.3055 -0.1501,0.53214 -0.25425,0.71972c-0.08861,0.1596 -0.1045,0.30409 -0.38861,0.30409c-0.61803,0 -0.29527,0.5606 -0.45123,0.01786c-0.16868,-0.58695 -0.39973,-1.26602 -0.39973,-1.26602c0,0 0.35104,-0.20959 0.53928,-0.24098c0.50753,-0.08462 0.95454,0.05288 0.95454,0.46534z" fill="#bf0000" stroke="none" stroke-width="0" stroke-linecap="butt"/><path d="M241.30953,186.30938c0,0.27484 -0.00545,0.46305 -0.15936,0.65784c-0.19217,0.24323 -0.66222,0.31835 -0.9835,0.31835c-0.57858,0 -1.2381,0.49899 -1.2381,-0.11905c0,-0.26896 0.5174,-0.73978 0.66543,-1.02445c0.19212,-0.36947 0.29349,-0.57079 0.62028,-0.57079c0.57858,0 1.09524,0.12006 1.09524,0.7381z" fill="#bf0000" stroke="none" stroke-width="0" stroke-linecap="butt"/><path d="M239.30952,186.22617c0,0 -0.0056,0.3899 -0.12574,0.58213c-0.11791,0.18866 -0.58855,0.56073 -0.58855,0.56073" fill="none" stroke="#000000" stroke-width="0.3" stroke-linecap="round"/></g><g stroke="#000000"><path d="M237.45199,185.99128c-1.52174,2.11658 0.06795,-0.04343 -1.45652,2.15217c-0.98333,1.18876 -0.52464,0.71751 -1.03018,1.17754c-0.07948,0.07232 -0.03956,0.04511 3.13017,0.64553c0.10216,-0.22282 1.36236,-0.27175 1.73854,-0.10629c0.34486,0.15168 -0.32242,0.82257 -0.33572,0.89988c-0.06024,0.35 -1.59965,0.35017 -1.65825,0.3576c-0.16088,0.0204 -1.48227,0.1358 -2.39327,-0.27623c-0.86645,-0.39188 -1.32849,-1.31065 -1.32876,-1.3506c-0.00202,-0.30093 1.85573,-3.04686 1.85573,-3.63005c0,-1.11658 1.23551,-1.97826 1.84783,-1.97826c0.61231,0 0.28224,1.20211 -0.36956,2.1087z" fill="#ffc380" stroke-width="0.3" stroke-linecap="butt"/><path d="M238.53895,190.61973l0.91304,0.08696" fill="none" stroke-width="0.1" stroke-linecap="round"/><path d="M238.66938,190.05451l1,0.17391" fill="none" stroke-width="0.1" stroke-linecap="round"/></g></g></g></svg>