<svg version="1.1" xmlns="http://www.w3.org/2000/svg" xmlns:xlink="http://www.w3.org/1999/xlink" width="20.26477" height="42.88093" viewBox="0,0,20.26477,42.88093"><g transform="translate(-229.88495,-173.52986)"><g data-paper-data="{&quot;isPaintingLayer&quot;:true}" fill-rule="nonzero" stroke-linejoin="miter" stroke-miterlimit="10" stroke-dasharray="" stroke-dashoffset="0" style="mix-blend-mode: normal"><g><path d="M236.78578,185.52952l0.04762,-2.38095l3.37345,1.04277l2.19798,-0.18563l1.63215,3.95174l-4.28816,-0.04926z" fill="#e480ff" stroke="#000000" stroke-width="0.3" stroke-linecap="butt"/><path d="M240.06071,183.9678l-3.19717,-0.87858l-1.04092,-7.12142l7.34296,-0.06885l1.01181,3.85851l-0.83096,3.30557l0.66666,0.80952z" fill="#e480ff" stroke="#000000" stroke-width="0.3" stroke-linecap="butt"/><path d="M236.16674,178.64381l-0.42857,-2.66666h7.57143l-5.95238,0.57143z" fill="#7f7f7f" stroke="#000000" stroke-width="0.3" stroke-linecap="butt"/><path d="M243.26198,174.12c0,1.15717 -0.07658,2.80953 -2.28572,2.80953c-1.13946,0 -2.66961,-0.18883 -3.23867,-0.76107c-0.53421,-0.53719 -0.14228,-1.44053 -0.14228,-2.00084c0,-0.85234 0.18845,1.18214 1.12037,1.53543c0.33329,0.12635 0.67863,-1.24971 1.26058,-1.24971c2.20914,0 3.28572,-1.49051 3.28572,-0.33334z" fill="#7f7f7f" stroke="#000000" stroke-width="0.3" stroke-linecap="butt"/><path d="M242.92864,175.3769c0,0.58065 0.25675,1.45738 -1.95239,1.45738c-1.13946,0 -2.33627,-0.23761 -2.90533,-0.52474c-0.53421,-0.26955 -0.38038,-0.57997 -0.38038,-0.86112c0,-0.42768 0.09321,0.59317 1.02513,0.77045c0.33329,0.0634 0.67863,-0.62708 1.26058,-0.62708c2.20914,0 2.95239,-0.79553 2.95239,-0.21489z" fill="#404040" stroke="#000000" stroke-width="0" stroke-linecap="butt"/><path d="M239.83801,185.75703l2.16706,-1.90697l-0.31765,2.06422l2.18898,-0.89799l-2.0242,2.04983z" fill="#7f7f7f" stroke="#000000" stroke-width="0.3" stroke-linecap="butt"/><path d="M243.02505,175.22593l-1.8,2.45l-3.1,-2.45" fill="none" stroke="#000000" stroke-width="0.5" stroke-linecap="round"/><path d="M236.8334,185.57146v-2.19048l3.16431,0.95749l-2.40241,0.47108l0.82263,1.74881z" fill="#ab60bf" stroke="#000000" stroke-width="0" stroke-linecap="butt"/><path d="M235.11911,182.14289l-0.00001,-4.09524l1.00001,0.80953l0.28571,1.7619z" fill="#e480ff" stroke="#000000" stroke-width="0.3" stroke-linecap="butt"/><path d="M236.88101,182.95241l-0.41721,-2.62517l-1.16947,1.3254l-0.07998,-1.79548l0.67568,0.57587l0.14509,-1.01484l1.22685,1.15326l-0.07905,1.21867l0.93197,0.14796l0.29934,0.71472l1.7525,1.15675z" fill="#ab60bf" stroke="none" stroke-width="0" stroke-linecap="butt"/><path d="M235.50005,179.14288c0,0 0.25137,0.27792 0.31429,0.46667c0.07706,0.23117 0.11429,0.81905 0.11429,0.81905" fill="none" stroke="#000000" stroke-width="0.3" stroke-linecap="round"/><path d="M238.97625,183.09525l0.7619,1.2381l-2.95238,-0.95238l1.38095,-0.7619z" fill="#ab60bf" stroke="none" stroke-width="0" stroke-linecap="butt"/></g><path d="M242.26583,192.35144c0,-2.22887 1.02667,-6.60715 3.26236,-6.60715c2.23569,0 2.47785,10.32086 0.14167,12.60242c-1.4604,2.16637 -0.74134,6.86274 -1.57024,5.82615c-1.95218,-5.49037 -1.83379,-9.59256 -1.83379,-11.82142z" data-paper-data="{&quot;index&quot;:null}" fill="#404040" stroke="#000000" stroke-width="0.3" stroke-linecap="butt"/><path d="M241.20329,192.4943c0,2.22887 0.90411,5.40249 -1.47664,7.75c-0.47175,0.46517 -3.64166,3.67385 -3.64166,3.67385c0,0 -0.40642,-6.66213 -0.40642,-7.63814c0,-2.22887 -3.33046,-9.75 -1.09477,-9.75c2.23569,0 6.6195,3.73542 6.6195,5.96429z" fill="#404040" stroke="#000000" stroke-width="0.3" stroke-linecap="butt"/><path d="M231.76916,187.92474c0,0 1.96734,-1.35092 2.68329,-1.61426c0.71595,-0.26334 2.2381,-0.42857 2.2381,-0.42857l3.17737,2.14222l2.75135,0.18961l-4.65557,3.57938l4.81986,-3.75432l1.2235,2.26551l-7.92713,5.9112z" fill="#404040" stroke="#000000" stroke-width="0.3" stroke-linecap="butt"/><path d="M245.67202,190.08296l-2.74338,-4.62962c0,0 1.59801,-0.1877 2.71429,0.2381c1.11628,0.4258 2.35891,2.4321 2.35891,2.4321l1.9662,2.00738l-1.99095,4.02204l-8.08812,-4.07737l0.12286,-1.80474z" fill="#404040" stroke="#000000" stroke-width="0.3" stroke-linecap="butt"/><path d="M244.39286,204.53001c0,0.06053 -0.69508,2.0414 -0.254,3.27437c0.4281,1.19667 0.23085,1.90932 0.23085,1.90932c0,0 -0.67628,2.97994 -0.53549,4.02889c0.227,1.69142 2.042,2.03752 2.042,2.03752c0,0 -5.05188,-0.75118 -5.716,0.19527c-0.24645,0.35122 0.11687,-7.87581 -0.31412,-8.38399c-0.22843,-0.26934 -1.40883,7.33509 -0.26143,8.33635c1.47131,1.28392 -1.76417,-1.55823 -1.76417,-1.55823l-2.92579,1.69232l-0.57115,-1.23611c0,0 -1.64418,1.34878 -2.56098,1.36667c-4.01627,0.07834 -0.06427,0.16426 2.13028,-4.16235c1.86225,-3.67147 2.14286,-5.42624 2.14286,-7.71428c0,-2.28804 4.01378,-2 5,-2c0.98622,0 3.35714,-0.07375 3.35714,2.21428z" fill="#404040" stroke="#000000" stroke-width="0.3" stroke-linecap="butt"/><g stroke="#000000" stroke-width="0.3" stroke-linecap="butt"><path d="M237.60715,202.2443l2.07143,-2l3.92857,0.35714v1.78572z" fill="#000000"/><path d="M239.75,202.2443l1,-1.92857l1.78572,0.21428l-0.21429,1.71429z" fill="#fff700"/></g><g stroke="#000000" stroke-width="0.3"><path d="M242.95914,188.25365l1.08855,-0.24919c0,0 -0.09332,-0.50726 0.16474,-0.56215c0.4392,-0.09342 0.95165,-0.00357 1.46551,0.52509c0.98462,1.01298 1.61708,0.9744 1.61708,0.9744l-1.05957,0.22014l-0.48658,0.77853l-2.1734,-0.64878l-0.61634,-1.03804z" fill="#e480ff" stroke-linecap="butt"/><path d="M244.32757,188.47497l0.31175,-0.59558l0.72629,-0.11807" fill="none" stroke-linecap="round"/><path d="M245.12464,189.31874l0.31175,-0.59558l0.72629,-0.11807" fill="none" stroke-linecap="round"/><path d="M244.66083,188.71483l0.31175,-0.59558l0.72629,-0.11807" fill="none" stroke-linecap="round"/></g><g stroke="#000000" stroke-width="0.3"><path d="M240.08069,190.09038c0,0 -2.65991,-2.2347 -3.82006,-1.88334c-1.20751,0.3657 -0.71378,-1.58202 -0.71378,-1.58202l1.94774,-0.78869l0.68516,0.86927l2.02497,1.63325z" fill="#e480ff" stroke-linecap="butt"/><path d="M235.47444,187.64365l0.58533,-0.3306l0.67388,0.29551" fill="none" stroke-linecap="round"/><path d="M235.75286,186.48272l0.66073,0.12389l0.32536,0.65999" fill="none" stroke-linecap="round"/><path d="M236.92084,186.13669l0.4658,0.48471l-0.11862,0.72621" fill="none" stroke-linecap="round"/></g><path d="M242.16667,191.70857c0.06667,8.30457 2.69352,8.57141 0.56667,8.46667c-3.05097,-0.15026 -3.78494,0.5999 -2.76667,-0.26667c1.71938,-1.46322 1.28051,-2.46666 1.36667,-7.86666c0.01733,-1.08602 0.82447,-1.43787 0.83333,-0.33334z" fill="#e480ff" stroke="#000000" stroke-width="0.3" stroke-linecap="butt"/><path d="M242.63334,191.50857l-0.53333,-2.6l1.73334,0.6l0.86666,2.73333z" fill="#cccccc" stroke="#000000" stroke-width="0.3" stroke-linecap="butt"/><path d="M243.4,189.24191c0.64433,0 1.16666,0.50741 1.16666,1.13333c0,0.62593 -0.52233,1.13334 -1.16666,1.13334c-0.64433,0 -1.16666,-0.50742 -1.16666,-1.13334c0,-0.62592 0.52233,-1.13333 1.16666,-1.13333z" fill="#cccccc" stroke="#000000" stroke-width="0.3" stroke-linecap="butt"/><path d="M243.46667,189.44191c0.46024,0 0.83334,0.34324 0.83334,0.76666c0,0.42342 -0.3731,0.76666 -0.83334,0.76666c-0.46023,0 -0.83333,-0.34324 -0.83333,-0.76666c0,-0.42342 0.37309,-0.76666 0.83333,-0.76666z" fill="#ffffff" stroke="#000000" stroke-width="0.3" stroke-linecap="butt"/><g><g fill="#808080" stroke="#000000" stroke-width="0.1" stroke-linecap="butt"><path d="M235.57419,189.33085l0.23092,-1.03099c0,0 0.7793,-0.10007 1.09634,-0.06161c0.32361,0.03925 0.82603,0.29479 0.82603,0.29479l-1.10207,1.26749z"/><path d="M236.31863,189.93616c-0.31129,0.10646 -0.63522,-0.01651 -0.7235,-0.27465c-0.08828,-0.25815 0.0925,-0.55371 0.4038,-0.66017c0.31129,-0.10646 0.63521,0.0165 0.72349,0.27465c0.08828,0.25815 -0.09249,0.55371 -0.40379,0.66017z"/></g><g><path d="M237.10337,186.30057l0.28287,-0.47897l1.7221,1.01095l-0.28286,0.47897z" fill="#808080" stroke="#000000" stroke-width="0.1" stroke-linecap="butt"/><path d="M236.9243,185.5605l0.22262,-0.34334l2.35011,1.31683l-0.22262,0.34334z" fill="#bfbfbf" stroke="#000000" stroke-width="0.1" stroke-linecap="butt"/><path d="M240.88868,184.81611c-0.07717,0.76745 -0.65576,2.28638 -1.43037,1.76112c-0.73066,-0.49545 -1.41632,-0.87113 -2.21776,-1.37602c-0.65262,-0.41114 0.98065,-2.00687 1.7481,-1.9297c0.76745,0.07717 1.9772,0.77714 1.90003,1.54459z" fill="#808080" stroke="#000000" stroke-width="0.1" stroke-linecap="butt"/><path d="M238.34985,185.1373c-0.08407,0.83598 2.00118,1.93076 1.28216,1.45741c-0.67877,-0.44686 -1.49515,-0.83491 -2.24007,-1.40333c-0.66795,-0.50969 0.59001,-1.59357 1.36341,-1.84306c0.94776,-0.30574 -0.32143,0.95301 -0.4055,1.789z" fill="#404040" stroke="none" stroke-width="0" stroke-linecap="butt"/><path d="M237.73442,184.10011c0,0 1.16403,0.52813 1.6508,0.8489c0.43831,0.28883 1.1397,0.98996 1.1397,0.98996" data-paper-data="{&quot;index&quot;:null}" fill="none" stroke="#000000" stroke-width="0.1" stroke-linecap="round"/><path d="M237.30201,184.63689c0,0 1.16404,0.52812 1.65081,0.84889c0.43831,0.28883 1.1397,0.98997 1.1397,0.98997" data-paper-data="{&quot;index&quot;:null}" fill="none" stroke="#000000" stroke-width="0.1" stroke-linecap="round"/><path d="M238.03701,183.58122c0,0 1.16404,0.52812 1.65081,0.8489c0.43831,0.28883 1.13969,0.98996 1.13969,0.98996" data-paper-data="{&quot;index&quot;:null}" fill="none" stroke="#000000" stroke-width="0.1" stroke-linecap="round"/><path d="M238.48915,183.20461c0,0 1.02973,0.43961 1.45448,0.7195c0.38246,0.25203 0.9805,0.88506 0.9805,0.88506" data-paper-data="{&quot;index&quot;:null}" fill="none" stroke="#000000" stroke-width="0.1" stroke-linecap="round"/><path d="M237.69004,185.27722c0,0 0.37584,-0.90155 0.62575,-1.26633c0.22503,-0.32846 0.80695,-0.82483 0.80695,-0.82483" data-paper-data="{&quot;index&quot;:null}" fill="none" stroke="#000000" stroke-width="0.1" stroke-linecap="round"/><path d="M238.23084,185.70178c0,0 0.37584,-0.90155 0.62575,-1.26633c0.22503,-0.32846 0.80694,-0.82482 0.80694,-0.82482" data-paper-data="{&quot;index&quot;:null}" fill="none" stroke="#000000" stroke-width="0.1" stroke-linecap="round"/><path d="M240.76634,184.42122c0,0 -0.22658,0.73053 -0.43964,1.06688c-0.23661,0.37354 -0.91679,1.07452 -0.91679,1.07452" data-paper-data="{&quot;index&quot;:null}" fill="none" stroke="#000000" stroke-width="0.1" stroke-linecap="round"/><path d="M240.16288,184.09173c0,0 -0.22657,0.73052 -0.43964,1.06687c-0.23661,0.37354 -0.9168,1.07453 -0.9168,1.07453" data-paper-data="{&quot;index&quot;:null}" fill="none" stroke="#000000" stroke-width="0.1" stroke-linecap="round"/></g></g><path d="M242.58974,182.25791c0,0.59908 -0.48565,1.08473 -1.08473,1.08473c-0.59908,0 -1.08473,-0.48565 -1.08473,-1.08473c0,-0.59908 0.48565,-1.08473 1.08473,-1.08473c0.59908,0 1.08473,0.48565 1.08473,1.08473z" fill="#000000" stroke="none" stroke-width="0" stroke-linecap="butt"/><path d="M241.1549,181.84865l-0.38312,-0.31435c0,0 0.27228,-0.3588 0.74641,-0.26952c0.53097,0.09998 0.63258,0.15586 0.63258,0.15586l-0.2029,0.47456z" fill="#ffffff" stroke="#000000" stroke-width="0.2" stroke-linecap="butt"/><path d="M240.36318,179.28916c0,0 -1.3975,0.01453 -1.89314,-0.208c-0.42638,-0.19144 -0.90431,-1.048 -0.90431,-1.048" fill="none" stroke="#000000" stroke-width="0.5" stroke-linecap="round"/><path d="M243.16064,177.63353c0,0 0.04497,0.76667 -0.20218,1.05044c-0.26537,0.30468 -1.33927,0.71938 -1.33927,0.71938" fill="none" stroke="#000000" stroke-width="0.5" stroke-linecap="round"/></g></g></svg>