<svg version="1.1" xmlns="http://www.w3.org/2000/svg" xmlns:xlink="http://www.w3.org/1999/xlink" width="20.26477" height="41.33947" viewBox="0,0,20.26477,41.33947"><g transform="translate(-229.88494,-175.0713)"><g data-paper-data="{&quot;isPaintingLayer&quot;:true}" fill-rule="nonzero" stroke-linejoin="miter" stroke-miterlimit="10" stroke-dasharray="" stroke-dashoffset="0" style="mix-blend-mode: normal"><path d="M242.26583,192.35141c0,-2.22887 1.02667,-6.60715 3.26236,-6.60715c2.23569,0 2.47785,10.32086 0.14167,12.60242c-1.4604,2.16637 -0.74134,6.86274 -1.57024,5.82615c-1.95218,-5.49037 -1.83379,-9.59256 -1.83379,-11.82142z" data-paper-data="{&quot;index&quot;:null}" fill="#404040" stroke="#000000" stroke-width="0.3" stroke-linecap="butt"/><path d="M241.20329,192.49427c0,2.22887 0.90411,5.40249 -1.47664,7.75c-0.47175,0.46517 -3.64166,3.67385 -3.64166,3.67385c0,0 -0.40642,-6.66213 -0.40642,-7.63814c0,-2.22887 -3.33046,-9.75 -1.09477,-9.75c2.23569,0 6.6195,3.73542 6.6195,5.96429z" fill="#404040" stroke="#000000" stroke-width="0.3" stroke-linecap="butt"/><path d="M231.76916,187.92471c0,0 1.96734,-1.35092 2.68329,-1.61426c0.71595,-0.26334 2.2381,-0.42857 2.2381,-0.42857l3.17737,2.14222l2.75135,0.18961l-4.65557,3.57938l4.81986,-3.75432l1.2235,2.26551l-7.92713,5.9112z" fill="#404040" stroke="#000000" stroke-width="0.3" stroke-linecap="butt"/><path d="M245.67202,190.08293l-2.74338,-4.62962c0,0 1.59801,-0.1877 2.71429,0.2381c1.11628,0.4258 2.35891,2.4321 2.35891,2.4321l1.9662,2.00738l-1.99095,4.02204l-8.08812,-4.07737l0.12286,-1.80474z" fill="#404040" stroke="#000000" stroke-width="0.3" stroke-linecap="butt"/><path d="M244.39286,204.52998c0,0.06053 -0.69508,2.0414 -0.254,3.27437c0.4281,1.19667 0.23085,1.90932 0.23085,1.90932c0,0 -0.67628,2.97994 -0.53549,4.02889c0.227,1.69142 2.042,2.03752 2.042,2.03752c0,0 -5.05188,-0.75118 -5.716,0.19527c-0.24645,0.35122 0.11687,-7.87581 -0.31412,-8.38399c-0.22843,-0.26934 -1.40883,7.33509 -0.26143,8.33635c1.47131,1.28392 -1.76417,-1.55823 -1.76417,-1.55823l-2.92579,1.69232l-0.57115,-1.23611c0,0 -1.64418,1.34878 -2.56098,1.36667c-4.01627,0.07834 -0.06427,0.16426 2.13028,-4.16235c1.86225,-3.67147 2.14286,-5.42624 2.14286,-7.71428c0,-2.28804 4.01378,-2 5,-2c0.98622,0 3.35714,-0.07375 3.35714,2.21428z" fill="#404040" stroke="#000000" stroke-width="0.3" stroke-linecap="butt"/><g stroke="#000000" stroke-width="0.3" stroke-linecap="butt"><path d="M237.60715,202.24427l2.07143,-2l3.92857,0.35714v1.78572z" fill="#000000"/><path d="M239.75,202.24427l1,-1.92857l1.78572,0.21428l-0.21429,1.71429z" fill="#fff700"/></g><g stroke="#000000" stroke-width="0.3"><path d="M242.95914,188.25362l1.08855,-0.24919c0,0 -0.09332,-0.50726 0.16474,-0.56215c0.4392,-0.09342 0.95165,-0.00357 1.46551,0.52509c0.98462,1.01298 1.61708,0.9744 1.61708,0.9744l-1.05957,0.22014l-0.48658,0.77853l-2.1734,-0.64878l-0.61634,-1.03804z" fill="#e480ff" stroke-linecap="butt"/><path d="M244.32757,188.47494l0.31175,-0.59558l0.72629,-0.11807" fill="none" stroke-linecap="round"/><path d="M245.12464,189.31871l0.31175,-0.59558l0.72629,-0.11807" fill="none" stroke-linecap="round"/><path d="M244.66083,188.7148l0.31175,-0.59558l0.72629,-0.11807" fill="none" stroke-linecap="round"/></g><g stroke="#000000" stroke-width="0.3"><path d="M240.74028,190.06643c0,0 -1.0568,1.31945 -0.6735,2.46944c0.39895,1.19694 -1.56168,0.75724 -1.56168,0.75724l-0.84224,-1.9252l0.84999,-0.70893l1.57663,-2.06935z" fill="#e480ff" stroke-linecap="butt"/><path d="M239.52534,193.33734l-0.34666,-0.57597l0.27676,-0.6818" fill="none" stroke-linecap="round"/><path d="M238.35716,193.09112l0.10558,-0.6639l0.65074,-0.34348" fill="none" stroke-linecap="round"/><path d="M237.97897,191.93315l0.47165,-0.47902l0.72921,0.0985" fill="none" stroke-linecap="round"/></g><path d="M242.16667,191.70854c0.06667,8.30457 2.69352,8.57141 0.56667,8.46667c-3.05097,-0.15026 -3.78494,0.5999 -2.76667,-0.26667c1.71938,-1.46322 1.28051,-2.46666 1.36667,-7.86666c0.01733,-1.08602 0.82447,-1.43787 0.83333,-0.33334z" fill="#e480ff" stroke="#000000" stroke-width="0.3" stroke-linecap="butt"/><path d="M242.63334,191.50854l-0.53333,-2.6l1.73334,0.6l0.86666,2.73333z" fill="#cccccc" stroke="#000000" stroke-width="0.3" stroke-linecap="butt"/><path d="M243.4,189.24188c0.64433,0 1.16666,0.50741 1.16666,1.13333c0,0.62593 -0.52233,1.13334 -1.16666,1.13334c-0.64433,0 -1.16666,-0.50742 -1.16666,-1.13334c0,-0.62592 0.52233,-1.13333 1.16666,-1.13333z" fill="#cccccc" stroke="#000000" stroke-width="0.3" stroke-linecap="butt"/><path d="M243.46667,189.44188c0.46024,0 0.83334,0.34324 0.83334,0.76666c0,0.42342 -0.3731,0.76666 -0.83334,0.76666c-0.46023,0 -0.83333,-0.34324 -0.83333,-0.76666c0,-0.42342 0.37309,-0.76666 0.83333,-0.76666z" fill="#ffffff" stroke="#000000" stroke-width="0.3" stroke-linecap="butt"/><g><g fill="#808080" stroke="#000000" stroke-width="0.1" stroke-linecap="butt"><path d="M241.20915,193.19097l-1.03698,-0.20233c0,0 -0.12157,-0.77623 -0.0919,-1.09421c0.03029,-0.32458 0.27184,-0.83387 0.27184,-0.83387l1.29748,1.06661z"/><path d="M241.79364,192.43008c0.11502,0.30822 0.00106,0.63543 -0.25454,0.73081c-0.25561,0.09539 -0.55605,-0.07716 -0.67109,-0.3854c-0.11502,-0.30822 -0.00107,-0.63542 0.25455,-0.73081c0.25561,-0.09539 0.55605,0.07715 0.67108,0.38539z"/></g><g><path d="M238.13775,191.74616l-0.48662,-0.26952l0.96295,-1.7494l0.4866,0.26951z" fill="#808080" stroke="#000000" stroke-width="0.1" stroke-linecap="butt"/><path d="M237.4029,191.94562l-0.34936,-0.21304l1.25135,-2.38562l0.34936,0.21304z" fill="#bfbfbf" stroke="#000000" stroke-width="0.1" stroke-linecap="butt"/><path d="M236.5492,188.00333c0.76929,0.05592 2.30364,0.59231 1.8,1.38112c-0.47506,0.74408 -0.83164,1.43986 -1.31418,2.25496c-0.39294,0.66374 -2.03322,-0.92479 -1.97729,-1.69408c0.05592,-0.76929 0.72218,-1.99793 1.49147,-1.94201z" fill="#808080" stroke="#000000" stroke-width="0.1" stroke-linecap="butt"/><path d="M236.94045,190.53232c0.83798,0.06093 1.8747,-2.0538 1.4214,-1.32196c-0.42793,0.69086 -0.79325,1.51767 -1.34086,2.27801c-0.49103,0.68178 -1.60927,-0.54573 -1.88005,-1.31194c-0.33183,-0.93894 0.96154,0.29496 1.79952,0.35589z" fill="#404040" stroke="none" stroke-width="0" stroke-linecap="butt"/><path d="M235.92067,191.17619c0,0 0.49574,-1.17819 0.80293,-1.67364c0.2766,-0.44613 0.95807,-1.16663 0.95807,-1.16663" data-paper-data="{&quot;index&quot;:null}" fill="none" stroke="#000000" stroke-width="0.1" stroke-linecap="round"/><path d="M236.4692,191.5936c0,0 0.49574,-1.1782 0.80292,-1.67365c0.2766,-0.44613 0.95808,-1.16663 0.95808,-1.16663" data-paper-data="{&quot;index&quot;:null}" fill="none" stroke="#000000" stroke-width="0.1" stroke-linecap="round"/><path d="M235.39362,190.88807c0,0 0.49574,-1.1782 0.80293,-1.67365c0.2766,-0.44613 0.95808,-1.16662 0.95808,-1.16662" data-paper-data="{&quot;index&quot;:null}" fill="none" stroke="#000000" stroke-width="0.1" stroke-linecap="round"/><path d="M235.00465,190.44651c0,0 0.41098,-1.04149 0.67901,-1.47381c0.24136,-0.38929 0.85761,-1.00459 0.85761,-1.00459" data-paper-data="{&quot;index&quot;:null}" fill="none" stroke="#000000" stroke-width="0.1" stroke-linecap="round"/><path d="M237.09856,191.18801c0,0 -0.9116,-0.35077 -1.28314,-0.5905c-0.33455,-0.21587 -0.84682,-0.78384 -0.84682,-0.78384" data-paper-data="{&quot;index&quot;:null}" fill="none" stroke="#000000" stroke-width="0.1" stroke-linecap="round"/><path d="M237.508,190.63568c0,0 -0.9116,-0.35077 -1.28314,-0.5905c-0.33455,-0.21587 -0.84682,-0.78383 -0.84682,-0.78383" data-paper-data="{&quot;index&quot;:null}" fill="none" stroke="#000000" stroke-width="0.1" stroke-linecap="round"/><path d="M236.15783,188.13656c0,0 0.73652,0.2063 1.07863,0.40998c0.37994,0.22618 1.09945,0.88674 1.09945,0.88674" data-paper-data="{&quot;index&quot;:null}" fill="none" stroke="#000000" stroke-width="0.1" stroke-linecap="round"/><path d="M235.84515,188.74889c0,0 0.7365,0.20629 1.07862,0.40997c0.37994,0.22618 1.09947,0.88674 1.09947,0.88674" data-paper-data="{&quot;index&quot;:null}" fill="none" stroke="#000000" stroke-width="0.1" stroke-linecap="round"/></g></g><g><path d="M236.92626,186.85331l0.12835,-2.37797l3.33614,1.15659l2.20301,-0.11098c0,0 1.06599,0.8046 1.30259,1.43748c0.26021,0.69604 -1.05541,0.94234 -1.05541,0.94234l-3.03402,0.05533z" fill="#e480ff" stroke="#000000" stroke-width="0.3" stroke-linecap="butt"/><path d="M240.25227,185.40356l-3.16553,-0.98651l-0.79879,-7.15263l7.34107,0.18024l0.88036,3.89061l-0.94259,3.27549l0.63882,0.83166z" fill="#e480ff" stroke="#000000" stroke-width="0.3" stroke-linecap="butt"/><path d="M240.4158,184.82746l-2.27214,-1.39605l0.10192,-2.09547l1.4235,1.37045l2.15307,-0.05978l1.4804,-1.13224l-0.8286,2.97361z" fill="#000000" stroke="none" stroke-width="0" stroke-linecap="butt"/><path d="M239.13152,183.3594l-0.33738,-1.35421c0,0 0.42642,0.51232 0.89725,0.61763c0.52727,0.11793 2.11625,0.0564 2.11625,0.0564l-0.58059,1.02636z" fill="#ffffff" stroke="#000000" stroke-width="0.2" stroke-linecap="butt"/><path d="M239.20898,183.94896l0.05938,-0.53726l2.3691,0.26232l-0.16712,0.90394c0,0 -0.81869,0.17402 -1.18868,0.06607c-0.33127,-0.09666 -1.07267,-0.69507 -1.07267,-0.69507z" fill="#ffffff" stroke="#000000" stroke-width="0.2" stroke-linecap="butt"/><path d="M239.4264,183.38158l-0.35004,-0.91716l1.1325,0.32432l-0.16053,0.51866l-0.36721,-0.36813z" fill="#ff8080" stroke="#000000" stroke-width="0.2" stroke-linecap="butt"/><path d="M241.93923,179.53602c-0.03969,1.16965 -1.06765,2.08404 -2.23729,2.04435c-1.16965,-0.03969 -2.03806,-1.01844 -1.99837,-2.18809c0.03969,-1.16965 -0.25125,-1.12821 0.46994,-1.91373c0.36428,-0.39677 0.93695,0.95663 0.93695,0.95663c0,0 2.85019,0.46953 2.82876,1.10085z" fill="#000000" stroke="none" stroke-width="0" stroke-linecap="butt"/><path d="M243.19617,178.4023c0,0 0.34135,-1.32237 0.49542,-0.90802c0.30502,0.82035 0.16815,0.76439 0.12846,1.93404c-0.03969,1.16965 -0.50348,2.10318 -1.06405,2.08416c-0.56057,-0.01902 -1.00563,-0.9834 -0.96593,-2.15305c0.02142,-0.63133 1.4061,-0.95713 1.4061,-0.95713z" data-paper-data="{&quot;index&quot;:null}" fill="#000000" stroke="none" stroke-width="0" stroke-linecap="butt"/><path d="M239.72624,181.3906l-0.36538,-0.87685l-0.8224,-0.45111l0.92742,-0.28359l0.31752,-0.87962l0.24394,0.88497l0.70035,0.35253l-0.66698,0.27873z" fill="#ff0000" stroke="none" stroke-width="0" stroke-linecap="butt"/><path d="M243.02138,181.16888l-0.36538,-0.87685l-0.8224,-0.45111l0.92741,-0.28359l0.31752,-0.87962l0.24393,0.88497l0.70036,0.35253l-0.66698,0.27873z" fill="#ff0000" stroke="none" stroke-width="0" stroke-linecap="butt"/><path d="M236.54111,179.95056l-0.33788,-2.67966l7.56707,0.2568l-5.96834,0.36922z" fill="#7f7f7f" stroke="#000000" stroke-width="0.3" stroke-linecap="butt"/><path d="M243.7857,175.67c-0.03925,1.1565 -0.17183,2.80532 -2.37969,2.73039c-1.1388,-0.03865 -2.66167,-0.27926 -3.21099,-0.87048c-0.51568,-0.555 -0.09334,-1.44453 -0.07434,-2.00451c0.02891,-0.85185 0.14825,1.18785 1.06765,1.57255c0.32881,0.13758 0.72063,-1.22597 1.30224,-1.20624c2.20787,0.07493 3.33438,-1.37821 3.29514,-0.22171z" fill="#7f7f7f" stroke="#000000" stroke-width="0.3" stroke-linecap="butt"/><path d="M243.40992,176.91487c-0.01969,0.58032 0.20717,1.46525 -2.0007,1.39032c-1.1388,-0.03865 -2.32687,-0.31671 -2.88586,-0.62298c-0.52476,-0.28751 -0.36049,-0.59254 -0.35096,-0.87353c0.01451,-0.42743 0.07304,0.59599 0.99841,0.80478c0.33095,0.07467 0.69951,-0.6037 1.28112,-0.58396c2.20787,0.07493 2.97767,-0.69494 2.95798,-0.11463z" fill="#404040" stroke="#000000" stroke-width="0" stroke-linecap="butt"/><path d="M239.96902,187.18421l2.23049,-1.83237l-0.38748,2.05226l2.21818,-0.82323l-2.09256,1.98z" fill="#7f7f7f" stroke="#000000" stroke-width="0.3" stroke-linecap="butt"/><path d="M243.5114,176.76726l-1.88206,2.38754l-3.01512,-2.55373" fill="none" stroke="#000000" stroke-width="0.5" stroke-linecap="round"/><path d="M237.09743,186.70934l-0.05071,-2.00172l3.13001,1.06426l-2.41701,0.38933l1.20034,1.2757z" fill="#ab60bf" stroke="#000000" stroke-width="0" stroke-linecap="butt"/><path d="M235.37541,183.4121l0.13889,-4.09288l0.97198,0.84298l0.22579,1.77058z" fill="#e480ff" stroke="#000000" stroke-width="0.3" stroke-linecap="butt"/><path d="M237.10884,184.28091l-0.32793,-2.63781l-1.21375,1.28497l-0.01904,-1.79716l0.65576,0.59846l0.17943,-1.00934l1.18703,1.19421l-0.12034,1.21529l0.92642,0.17948l0.27493,0.72446l1.71226,1.21552z" fill="#ab60bf" stroke="none" stroke-width="0" stroke-linecap="butt"/><path d="M235.85788,180.42674c0,0 0.2418,0.28629 0.29828,0.47706c0.06918,0.23365 0.08645,0.82246 0.08645,0.82246" fill="none" stroke="#000000" stroke-width="0.3" stroke-linecap="round"/><path d="M239.19803,184.49473l0.71947,1.26323l-2.91838,-1.05197l1.406,-0.71462z" fill="#ab60bf" stroke="none" stroke-width="0" stroke-linecap="butt"/></g></g></g></svg>