<svg version="1.1" xmlns="http://www.w3.org/2000/svg" xmlns:xlink="http://www.w3.org/1999/xlink" width="27.28296" height="34.57828" viewBox="0,0,27.28296,34.57828"><g transform="translate(-226.58298,-167.93045)"><g data-paper-data="{&quot;isPaintingLayer&quot;:true}" fill-rule="nonzero" stroke-linejoin="miter" stroke-miterlimit="10" stroke-dasharray="" stroke-dashoffset="0" style="mix-blend-mode: normal"><path d="M241.22542,186.61373l-0.13357,-1.5361l4.75947,-5.56281l1.41148,2.27209z" data-paper-data="{&quot;index&quot;:null}" fill="#418040" stroke="#000000" stroke-width="0.3" stroke-linecap="butt"/><path d="M242.42516,188.99092c-0.42094,0 -0.63372,-1.84179 -1.68238,-1.77925c-1.73933,0.10373 -4.90256,2.49093 -4.90256,1.8925c0,-0.44139 1.71494,-2.05424 1.71494,-2.05424c0,0 -0.73813,-3.251 -0.13399,-3.251c1.11911,0 3.02632,-0.32765 3.02632,0.63158c0,0.3803 2.65309,4.56041 1.97767,4.56041z" data-paper-data="{&quot;index&quot;:null}" fill="#61bf60" stroke="#000000" stroke-width="0.3" stroke-linecap="butt"/><path d="M231.09185,181.42327l1.41148,-2.27209l4.75947,5.56281l-0.13357,1.5361z" data-paper-data="{&quot;index&quot;:null}" fill="#418040" stroke="#000000" stroke-width="0.3" stroke-linecap="butt"/><g data-paper-data="{&quot;index&quot;:null}"><path d="M231.53688,181.54758c-0.46239,0.21767 -2.78725,-2.49715 -2.00839,-3.07419c0.89262,-0.66133 0.90932,-0.77662 1.23555,-0.97335c0.36077,-0.21757 0.87044,-0.38711 1.65998,-0.79752c0.18235,-0.09477 0.74409,0.39483 0.53998,0.93371c-0.08607,0.22724 -0.64164,0.53478 -0.88097,0.69541c-0.30241,0.20295 0.59757,-0.58396 1.22736,-0.27613c0.27483,0.13432 0.18219,0.73247 -0.78045,1.31876c-0.40587,0.24721 0.56853,-0.1933 1.11593,-0.52199c0.49341,-0.29628 0.80008,1.04426 0.76762,1.06555c-0.77567,0.50894 -0.56739,0.39465 -1.29593,0.834c-0.72854,0.43935 -0.56164,0.31607 -1.58065,0.79577z" data-paper-data="{&quot;index&quot;:null}" fill="#ffc380" stroke="#000000" stroke-width="0.3" stroke-linecap="butt"/><path d="M229.83781,178.30716l-0.42979,-0.67069l2.41174,-1.53658l0.42979,0.67069z" fill="#808080" stroke="#000000" stroke-width="0.3" stroke-linecap="butt"/><path d="M229.0499,177.83925l-0.33648,-0.47973l3.29452,-2.00708l0.33648,0.47973z" fill="#bfbfbf" stroke="#000000" stroke-width="0.3" stroke-linecap="butt"/><path d="M226.75504,174.84364c-0.15048,-1.09427 1.54426,-2.15908 2.63852,-2.30956c1.09427,-0.15048 3.51486,2.04795 2.60235,2.67037c-1.12061,0.76435 -2.08224,1.33775 -3.10204,2.08489c-1.08113,0.79208 -1.98837,-1.35143 -2.13885,-2.4457z" fill="#808080" stroke="#000000" stroke-width="0.3" stroke-linecap="butt"/><path d="M230.40504,175.17084c-0.16391,-1.19198 -2.04588,-2.92714 -0.67362,-2.53904c1.11982,0.31669 2.97659,1.8022 2.0473,2.56645c-1.0364,0.85233 -2.18448,1.45025 -3.13253,2.12514c-1.00428,0.71491 1.92278,-0.96058 1.75887,-2.15255z" fill="#404040" stroke="none" stroke-width="0" stroke-linecap="butt"/><path d="M227.33418,176.43156c0,0 0.96717,-1.03996 1.57936,-1.47616c0.67987,-0.48444 2.31816,-1.30095 2.31816,-1.30095" data-paper-data="{&quot;index&quot;:null}" fill="none" stroke="#000000" stroke-width="0.2" stroke-linecap="round"/><path d="M227.98097,177.17717c0,0 0.96717,-1.03996 1.57936,-1.47616c0.67987,-0.48444 2.31816,-1.30095 2.31816,-1.30095" data-paper-data="{&quot;index&quot;:null}" fill="none" stroke="#000000" stroke-width="0.2" stroke-linecap="round"/><path d="M226.87408,175.70477c0,0 0.96717,-1.03996 1.57936,-1.47616c0.67987,-0.48444 2.31816,-1.30095 2.31816,-1.30095" data-paper-data="{&quot;index&quot;:null}" fill="none" stroke="#000000" stroke-width="0.2" stroke-linecap="round"/><path d="M226.70395,174.83556c0,0 0.82282,-0.93712 1.35701,-1.31774c0.59325,-0.42271 2.04394,-1.10554 2.04394,-1.10554" data-paper-data="{&quot;index&quot;:null}" fill="none" stroke="#000000" stroke-width="0.2" stroke-linecap="round"/><path d="M229.19721,172.41879c0,0 0.85866,0.68 1.19784,1.13831c0.37668,0.509 0.96155,1.77957 0.96155,1.77957" data-paper-data="{&quot;index&quot;:null}" fill="none" stroke="#000000" stroke-width="0.2" stroke-linecap="round"/><path d="M228.44544,173.05457c0,0 0.85866,0.68 1.19784,1.13831c0.37668,0.509 0.96155,1.77957 0.96155,1.77957" data-paper-data="{&quot;index&quot;:null}" fill="none" stroke="#000000" stroke-width="0.2" stroke-linecap="round"/><path d="M228.9624,177.26589c0,0 -1.00997,-0.96768 -1.36806,-1.4899c-0.32246,-0.47023 -0.68481,-1.50387 -0.68481,-1.50387" data-paper-data="{&quot;index&quot;:null}" fill="none" stroke="#000000" stroke-width="0.2" stroke-linecap="round"/><path d="M229.80879,176.76289c0,0 -1.00997,-0.96769 -1.36806,-1.48992c-0.32246,-0.47023 -0.68481,-1.50385 -0.68481,-1.50385" data-paper-data="{&quot;index&quot;:null}" fill="none" stroke="#000000" stroke-width="0.2" stroke-linecap="round"/></g><path d="M234.15005,190.64879l2,-1.5c0,0 3.56465,-1.7667 4.59758,-1.75004c1.03374,0.01667 1.60242,1.85004 1.60242,1.85004l1.84854,1.77826l-0.99525,0.12706l1.97398,-0.05077l-1.51199,4.73341l-2.50633,-3.97364l-1.04022,-1.75587l0.83455,1.8517l-3.66697,2.94517l-0.64377,-2.92706c0,0 -2.32744,-0.54169 -2.98466,-0.5808c-1.30676,-0.07779 0.49212,-0.74746 0.49212,-0.74746z" fill="#e4af72" stroke="#000000" stroke-width="0.3" stroke-linecap="butt"/><g><path d="M243.34458,185.651c-0.33047,0.61899 -2.10372,0.31709 -3.96068,-0.67432c-1.85696,-0.99141 -3.09441,-2.2969 -2.76395,-2.91588c0.19032,-0.35646 0.88243,-3.37283 2.57385,-3.80667c1.24571,-0.31954 3.85628,1.75119 4.64388,2.17168c0.55669,0.29721 -2.63984,3.31962 -2.22004,3.64632c0.98048,0.76309 1.95836,1.14547 1.72696,1.57888z" data-paper-data="{&quot;index&quot;:null}" fill="#ffc380" stroke="#000000" stroke-width="0.3" stroke-linecap="butt"/><path d="M244.07158,180.15758c-0.53391,1.00003 -1.57178,-0.66017 -2.67439,-1.24884c-1.10261,-0.58867 -3.84964,0.84072 -3.31573,-0.15934c0.02272,-0.04254 -1.12391,-0.86329 -1.26115,-1.74397c-0.1282,-0.82268 0.74749,-1.70034 0.89632,-1.97041c0.27687,-0.50235 1.57201,1.52891 1.7662,1.05751c0.49088,-1.19164 0.53044,-1.90251 1.13214,-2.05916c0.65616,-0.17082 1.13529,3.47875 1.66099,3.25692c1.16875,-0.49314 1.26057,-1.35612 1.76017,-1.0894c1.10261,0.58867 0.56935,2.95662 0.03545,3.95666z" data-paper-data="{&quot;index&quot;:null}" fill="#ff7c00" stroke="#000000" stroke-width="0.3" stroke-linecap="butt"/><path d="M235.31891,180.9522l1.84475,-3.73842l0.75407,1.91406l-0.98307,1.62899z" data-paper-data="{&quot;index&quot;:null}" fill="#ffc380" stroke="#000000" stroke-width="0.3" stroke-linecap="butt"/><path d="M235.89861,180.92162l1.07555,-2.05795l0.43779,1.07l-0.37731,0.6388z" data-paper-data="{&quot;index&quot;:null}" fill="#bf9360" stroke="#000000" stroke-width="0.2" stroke-linecap="butt"/><path d="M237.45072,176.80176c-0.54759,1.02568 1.95578,2.65507 0.95573,2.12115c-1.00003,-0.5339 -1.79411,-1.66836 -1.24651,-2.69404c0.54759,-1.02568 0.70747,-1.54113 1.43064,-0.66811c0.70888,0.85576 -0.59226,0.21531 -1.13986,1.24098z" data-paper-data="{&quot;index&quot;:null}" fill="#bf5c00" stroke="none" stroke-width="0" stroke-linecap="butt"/><path d="M240.48533,175.58791c-0.54075,1.01285 -0.87674,0.17848 -0.81309,0.90833c0.01329,0.15249 -0.39026,0.22809 0.1505,-0.78478c0.54075,-1.01285 0.09842,-1.29496 0.64309,-1.59569c0.16675,-0.09206 0.56025,0.45928 0.01949,1.47214z" data-paper-data="{&quot;index&quot;:null}" fill="#bf5c00" stroke="none" stroke-width="0" stroke-linecap="butt"/><path d="M243.71232,176.86331c-1.15111,0.58999 -1.80703,1.65251 -1.25258,0.614c0.55444,-1.0385 0.22337,-0.1827 1.14753,-1.08774c0.19715,-0.19306 1.30238,-0.13995 0.10505,0.47374z" data-paper-data="{&quot;index&quot;:null}" fill="#bf5c00" stroke="none" stroke-width="0" stroke-linecap="butt"/><path d="M243.72846,178.90046c-0.29045,0.54402 -0.9515,0.37919 -1.42193,-0.00903c-0.39433,-0.32541 -0.57739,-0.81973 -1.04511,-1.06944c-1.02568,-0.54759 -2.57717,0.8041 -2.04326,-0.19594c0.5339,-1.00003 1.11988,-0.65502 2.14556,-0.10743c0.38218,0.20405 0.51963,0.65253 0.96874,0.75571c0.75617,0.1737 1.73095,-0.00128 1.39598,0.62611z" data-paper-data="{&quot;index&quot;:null}" fill="#ff9c40" stroke="none" stroke-width="0" stroke-linecap="butt"/><path d="M241.7038,181.68689c-0.29433,0.55131 -0.7512,0.88169 -1.02044,0.73794c-0.26924,-0.14374 -0.0722,-1.26165 -0.0722,-1.26165l1.13808,-0.7348c0,0 0.24889,0.7072 -0.04544,1.25851z" data-paper-data="{&quot;index&quot;:null}" fill="#ffffff" stroke="#000000" stroke-width="0.3" stroke-linecap="butt"/><path d="M240.7059,180.98584c0,0 1.01881,-0.68564 1.41072,-0.71861c0.24914,-0.02096 0.71318,0.53996 0.71318,0.53996" data-paper-data="{&quot;index&quot;:null}" fill="none" stroke="#000000" stroke-width="0.3" stroke-linecap="round"/><path d="M240.06198,180.85088c0,0 -0.89993,1.16027 -1.16917,1.01652c-0.26924,-0.14374 -0.18231,-0.83191 0.19416,-1.53706c0.37647,-0.70515 1.16917,-1.01653 1.16917,-1.01653z" data-paper-data="{&quot;index&quot;:null}" fill="#ffffff" stroke="#000000" stroke-width="0.3" stroke-linecap="butt"/><path d="M238.86838,177.49898c0,0 1.09662,0.29767 1.28465,0.85623c0.20954,0.62249 -0.08496,2.70776 -0.08496,2.70776" data-paper-data="{&quot;index&quot;:null}" fill="none" stroke="#000000" stroke-width="0.3" stroke-linecap="round"/><path d="M238.17591,182.26027c0,0 0.44731,0.69106 0.87874,1.11842c0.5439,0.53877 2.12616,1.85811 2.12616,1.85811c0,0 -0.3259,-0.47969 -1.13789,-0.99379c-0.43268,-0.27395 -1.3426,-0.48243 -1.66319,-0.8c-0.92224,-0.91352 -0.20382,-1.18275 -0.20382,-1.18275z" data-paper-data="{&quot;index&quot;:null}" fill="#ffffff" stroke="#000000" stroke-width="0.3" stroke-linecap="round"/></g><g data-paper-data="{&quot;index&quot;:null}" stroke="#000000" stroke-width="0.3" stroke-linecap="butt"><g fill="#404040"><path d="M247.45749,178.88734c0,0 1.05958,-1.48317 0.78368,-1.70372c-0.31131,-0.24884 -0.99386,-0.79441 -0.99386,-0.79441l0.72266,-0.96071l1.73436,1.47179l-1.44974,2.25089z"/><path d="M244.97211,179.52498l-3.04223,-2.28843l4.8579,-6.45807l3.04223,2.28843z"/><path d="M248.02215,181.67958l-2.87619,-2.16354l0.81614,-1.08499c0,0 2.21819,0.60314 3.65318,0.5751c0.85707,-0.01675 -1.59314,2.6734 -1.59314,2.6734z"/><path d="M245.16057,178.49672l-0.8006,-0.60222l3.61332,-4.80353l0.80059,0.60222z"/><path d="M243.45326,177.3073l-0.42699,-0.32119l3.61331,-4.80353l0.42699,0.32119z"/><path d="M245.98447,171.7353c0.36985,-0.49167 1.08782,-0.57569 1.60367,-0.18766c0.51585,0.38804 0.63421,1.10117 0.26436,1.59284c-0.36984,0.49167 -1.08782,0.57568 -1.60367,0.18764c-0.51585,-0.38804 -0.63421,-1.10115 -0.26436,-1.59281z"/><path d="M248.93804,172.14178l-1.54781,-1.16428l0.86318,-1.14751l1.5478,1.16429z"/><path d="M249.90219,170.95615l-1.60116,-1.20443l0.51649,-1.57544l2.56188,1.92711z"/></g><path d="M247.91768,181.90951c-0.33781,0.3835 -3.55008,-1.18384 -3.06467,-2.02288c0.5563,-0.9616 0.52581,-1.07404 0.74698,-1.3842c0.24461,-0.34302 0.64493,-0.70113 1.20635,-1.39152c0.12967,-0.15944 0.83971,0.06661 0.86656,0.64223c0.01132,0.24272 -0.37628,0.74572 -0.53207,0.98823c-0.19685,0.30641 0.31629,-0.77334 1.01654,-0.74114c0.30557,0.01405 0.45827,0.59975 -0.1921,1.5203c-0.27421,0.38814 0.4449,-0.40332 0.81659,-0.92248c0.33504,-0.46797 1.14917,0.64031 1.12785,0.67275c-0.50955,0.77528 -0.36383,0.58763 -0.85778,1.28032c-0.49395,0.69269 -0.38979,0.51324 -1.13424,1.35838z" data-paper-data="{&quot;index&quot;:null}" fill="#ffc380"/></g><g stroke-linecap="butt"><path d="M244.12693,193.80086l0.92343,-2.78147l1.71916,-0.01248c0,0 3.33247,-0.91513 3.43556,-0.93339c0.30076,-0.05328 2.5924,-0.18407 2.76521,0.93256c0.16749,1.08236 -0.85389,1.994 -1.59602,2.76627c-0.72513,0.75458 -2.22248,3.34981 -3.80717,3.60209c-1.90032,0.30252 -3.85905,-1.81886 -3.85905,-1.81886z" fill="#ff0000" stroke="#000000" stroke-width="0.3"/><path d="M251.27234,194.03825c-1.03551,1.07757 -5.45978,3.39834 -6.33419,2.675c-0.87441,-0.72334 -1.75585,-1.68963 -0.72033,-2.7672c0.38661,-0.40231 1.12405,-0.30504 1.94918,-0.59601c1.38489,-0.48838 3.00632,-1.18824 3.55428,-0.73496c0.87441,0.72334 2.58658,0.3456 1.55107,1.42317z" fill="#bf0000" stroke="none" stroke-width="0"/><path d="M250.06657,190.17771c0.26421,-0.27494 -0.75954,0.65782 0.10306,1.37138c0.8626,0.71357 1.58902,0.94408 1.32482,1.21902c-0.26421,0.27494 -1.56854,0.08632 -2.43114,-0.62724c-0.86259,-0.71356 0.73905,-1.68822 1.00326,-1.96316z" fill="#ff7b00" stroke="#000000" stroke-width="0.3"/><path d="M246.47054,192.83277c-0.8626,-0.71357 0.73904,-1.68822 1.00325,-1.96316c0.26421,-0.27494 -0.75953,0.65783 0.10307,1.37139c0.8626,0.71357 1.58902,0.94407 1.32481,1.21901c-0.26421,0.27494 -1.56854,0.08632 -2.43114,-0.62724z" fill="#ff7b00" stroke="#000000" stroke-width="0.3"/><path d="M253.10038,190.57744c0.31904,0.26392 1.7061,1.63073 -1.16258,4.60667c-2.82608,2.93175 -6.1521,2.32164 -6.45946,2.04606c-1.00899,-0.90471 2.58029,-0.12396 5.31998,-2.77854c3.05104,-2.95627 1.98302,-4.13812 2.30206,-3.8742z" fill="#fffdc0" stroke="#000000" stroke-width="0.3"/><path d="M244.99577,194.15303c0.45252,-0.4709 1.22723,-0.51523 1.73037,-0.09902c0.50314,0.41621 0.54417,1.13535 0.09165,1.60624c-0.45252,0.4709 -1.22723,0.51523 -1.73037,0.09903c-0.50314,-0.41621 -0.54417,-1.13536 -0.09165,-1.60625z" fill="#ff7b00" stroke="#000000" stroke-width="0.3"/></g><g stroke-linecap="butt"><path d="M235.07449,198.8353c0,0 0.18138,2.14636 -0.51458,2.0924c-0.92666,-0.07186 -1.76271,1.6178 -5.20633,-1.46706c-2.22485,-1.99306 1.79097,-5.16081 2.94157,-6.4895c1.20445,-1.39086 1.57892,-1.76867 1.57892,-1.76867l2.74433,0.60616l0.75215,2.93177c0,0 -0.44446,0.73772 -1.06341,1.21609c-0.19513,0.15082 -1.23264,2.8788 -1.23264,2.8788z" fill="#ff0000" stroke="#000000" stroke-width="0.3"/><path d="M234.61166,200.76149c-0.93628,0.28886 -1.27462,0.65741 -2.33135,0.372c-0.58087,-0.15688 -1.33601,-0.3861 -2.58581,-1.48793c-0.88574,-0.78086 -0.77899,-0.82673 -0.89136,-1.19352c-0.19597,-0.63972 -0.01245,-1.32938 0.58235,-1.9506c1.09238,-1.27586 2.34257,-0.06 3.14774,0.65302c0.80517,0.71302 3.1981,3.26159 2.07844,3.60703z" fill="#bf0000" stroke="none" stroke-width="0"/><path d="M233.37662,195.8924c-0.84869,-0.75156 -1.73693,-0.89654 -1.36369,-1.31802c0.37324,-0.42148 1.10236,-0.01742 1.95105,0.73414c0.84869,0.75156 1.26779,1.5851 0.89455,2.00658c-0.37324,0.42148 -0.63321,-0.67114 -1.48191,-1.4227z" data-paper-data="{&quot;index&quot;:null}" fill="#ff7b00" stroke="#000000" stroke-width="0.3"/><path d="M234.61582,194.41368c-0.84869,-0.75156 -1.73694,-0.89654 -1.36369,-1.31802c0.37324,-0.42148 1.10237,-0.01743 1.95106,0.73413c0.84869,0.75156 1.26778,1.58511 0.89454,2.00659c-0.37324,0.42148 -0.63321,-0.67114 -1.48191,-1.4227z" data-paper-data="{&quot;index&quot;:null}" fill="#ff7c00" stroke="#000000" stroke-width="0.3"/><path d="M234.9394,200.86772c-0.27237,0.30757 -3.07699,2.98784 -6.08186,0.31836c-2.96025,-2.62982 -0.05316,-4.68773 0.23098,-4.98442c0.9328,-0.97397 -2.00484,1.17188 0.67369,3.72467c2.98294,2.84292 5.44957,0.6338 5.1772,0.94136z" fill="#fffdc0" stroke="#000000" stroke-width="0.3"/><path d="M229.17523,201.02581c-0.14779,0.16689 -0.8048,-0.34468 -1.2104,-1.29267c-0.23762,-0.5554 -0.33402,-0.76964 -0.31079,-1.06282c0.01903,-0.24011 -0.03545,-0.57059 0.14624,-0.77576c0.40351,-0.45566 1.55146,-1.84308 0.7811,-1.00114c-0.32879,0.35935 -0.73659,1.20883 -0.4446,2.17008c0.26964,0.88765 1.23216,1.74354 1.03844,1.9623z" fill="#bfbfbf" stroke="none" stroke-width="0"/></g></g></g></svg>