<svg version="1.1" xmlns="http://www.w3.org/2000/svg" xmlns:xlink="http://www.w3.org/1999/xlink" width="29.56758" height="30.53976" viewBox="0,0,29.56758,30.53976"><g transform="translate(-225.36069,-191.61677)"><g data-paper-data="{&quot;isPaintingLayer&quot;:true}" fill-rule="nonzero" stroke-linejoin="miter" stroke-miterlimit="10" stroke-dasharray="" stroke-dashoffset="0" style="mix-blend-mode: normal"><path d="M248.97971,202.73616c0,1.39884 -1.94861,1.02776 -2.37072,2.25391c-0.57743,1.67732 1.68032,5.44261 0.85036,6.9339c-0.51772,0.93026 -0.61391,-4.16053 -1.97222,-3.98859c-0.60142,0.07611 -1.07103,4.45085 -1.88169,5.39504c-1.39894,1.62937 -3.19609,0.17323 -3.98925,0.17323c-0.62798,0 -2.93285,0.7127 -4.07746,-0.63912c-1.05843,-1.25002 -0.95513,-4.5678 -1.63862,-4.67458c-1.32041,-0.20629 -1.00354,4.49178 -1.55615,3.62058c-0.79255,-1.24946 0.93827,-4.68145 0.37359,-6.29952c-0.43235,-1.23886 -2.46491,-1.35826 -2.46491,-2.77485c0,-0.35669 -0.12991,-1.95266 0.27947,-2.9611c0.43836,-1.07983 1.41498,-1.56946 1.31786,-1.76219c-0.39073,-0.77531 -3.6087,1.67052 -2.90134,0.49633c1.69017,-2.8056 7.4748,-6.5405 10.66755,-6.5405c2.52206,0 3.79686,3.13885 5.48042,5.0035c0.18341,0.20314 0.65905,0.73513 1.02204,0.616c0.75095,-0.24646 1.53152,-1.41264 1.83212,-0.95679c0.22939,0.34787 -0.4963,1.68697 -1.27539,2.32828c-0.65343,0.53789 -1.36754,0.35991 -1.36225,0.88301c0.00641,0.63198 1.25007,-0.0011 2.03492,0.35693c1.01575,0.46336 1.63165,1.88242 1.63165,2.53656z" fill="#800000" stroke="#000000" stroke-width="0.3" stroke-linecap="butt"/><g stroke="#000000" stroke-width="0.3"><path d="M238.8812,209.15602c0,0 0.76838,-1.27542 0.76087,-1.90561c-0.00623,-0.52272 -0.8028,-1.61374 -0.8028,-1.61374l-0.0295,-2.47594h2.45l-0.07143,2.65575c0,0 2.6647,0.10138 2.60476,1.73323c-0.10106,0.59645 -2.37914,1.73013 -2.37914,1.73013l-0.04866,1.65251c0,0 1.41422,0.31573 1.87956,0.53714c0.5737,0.27297 1.30613,0.97866 1.30613,0.97866c0,0 -0.94905,1.12333 -2.13708,1.1546c-0.8123,0.02137 -1.58748,-1.05051 -2.15406,-1.03561c-0.54242,0.01427 2.02777,1.97507 -2.00052,1.98176c-1.86273,0.0031 -1.5869,-1.89344 -1.5869,-1.89344c0,0 2.16289,-1.07336 2.33678,-1.66123c0.14788,-0.49994 -0.12801,-1.83823 -0.12801,-1.83823z" fill="#ff0000" stroke-linecap="butt"/><path d="M240.9536,205.74893l0.14285,-2.54636c0,0 1.25803,0.1282 2.1,0.7113c0.84197,0.5831 0.72857,1.95459 0.72857,1.95459c0,0 0.68238,1.09751 0.70233,1.62138c0.02021,0.5306 -0.58185,1.54227 -0.58185,1.54227l0.54841,3.40938c0,0 -0.26821,-0.33673 -1.53569,-0.86408c-2.02916,-0.84426 -1.95656,-0.67908 -1.95656,-0.67908l0.01242,-1.73312c0,0 2.15729,-0.01767 2.4156,-1.79647c0.11684,-1.51029 -2.5761,-1.61981 -2.5761,-1.61981z" fill="#404040" stroke-linecap="butt"/><path d="M236.10139,205.59617c0,0 -0.32769,-1.19216 0.51429,-1.77527c0.84197,-0.58311 2.1,-0.71131 2.1,-0.71131l0.07143,2.48658c0,0 0.72562,1.15413 0.73176,1.71391c0.00682,0.62281 -0.69266,1.85405 -0.69266,1.85405c0,0 0.22785,1.37067 0.0324,1.9321c-0.19772,0.56795 -1.21199,1.45623 -1.21199,1.45623l-1.04837,0.03721c0,0 -0.18078,-1.39606 0.04813,-1.84798c0.19795,-0.39079 1.246,-0.70687 1.246,-0.70687l-0.39488,-2.57364z" data-paper-data="{&quot;index&quot;:null}" fill="#404040" stroke-linecap="butt"/><path d="M244.5448,207.72924c0,0 0.13097,1.39771 -1.78063,1.22886c-0.55343,-0.04888 -1.7908,-1.16909 -1.7908,-1.16909" fill="none" stroke-linecap="round"/><path d="M240.47337,206.65332c0,0 0.31743,0.61888 -0.8705,1.23538c-1.50333,0.78019 -1.84379,-0.45833 -1.84379,-0.45833" fill="none" stroke-linecap="round"/></g><path d="M240.16734,213.59718c-0.15823,3.31086 -9.54689,1.67289 -9.54689,1.67289l-2.88791,0.03081c0,0 1.34232,-0.78522 1.00155,-1.86068c-0.25305,-0.79862 -1.82874,-0.78656 -1.82874,-0.78656l-0.4466,-2.07084c0,0 4.83138,5.35231 10.58619,1.13419c1.829,-1.20068 -0.37041,3.76863 0.66498,3.51419c0.984,-0.2418 2.44128,-2.7 2.45741,-1.63399z" data-paper-data="{&quot;index&quot;:null}" fill="#252525" stroke="#000000" stroke-width="0.3" stroke-linecap="butt"/><path d="M238.41312,203.18737l-0.1,-1.32381c0,0 0.70379,0.16122 1.25476,0.17143c0.55097,0.01021 1.63571,-0.3119 1.63571,-0.3119l-0.29047,1.36428z" fill="#e480ff" stroke="#000000" stroke-width="0.3" stroke-linecap="butt"/><path d="M241.36843,203.46207c0.11495,0.77023 -0.62039,1.32361 -1.40909,1.27273c-0.7887,-0.05089 -1.56638,-0.64779 -1.40909,-1.45455" fill="none" stroke="#fff700" stroke-width="0.3" stroke-linecap="round"/><g><path d="M235.72735,201.26574l1.88398,2.61531l-0.32879,2.34429l-4.83951,3.48533c0,0 -3.25431,2.03288 -4.17879,1.29058c-0.79807,-0.73453 -0.6828,-0.36419 -0.50269,-1.45167c0.47825,-2.8876 0.191,-1.90229 0.191,-1.90229l4.69545,-0.12188z" fill="#404040" stroke="#000000" stroke-width="0.3" stroke-linecap="butt"/><path d="M229.99379,211.00665c-0.33543,0.40561 -1.51088,1.41416 -2.4349,0.65002c-0.92402,-0.76414 -0.06422,-1.93859 0.27121,-2.3442c0.33543,-0.40561 -0.54118,0.78915 0.38285,1.55329c0.92402,0.76414 2.11627,-0.26471 1.78084,0.1409z" fill="#fff700" stroke="#000000" stroke-width="0.3" stroke-linecap="butt"/><path d="M229.46745,211.56298c-0.33543,0.40561 -1.51089,1.41416 -2.43491,0.65002c-0.92402,-0.76414 -0.06421,-1.9386 0.27122,-2.34421c0.33543,-0.40561 -0.54117,0.78914 0.38286,1.55328c0.92402,0.76414 2.11626,-0.26472 1.78083,0.1409z" fill="#fff700" stroke="#000000" stroke-width="0.3" stroke-linecap="butt"/><path d="M226.42515,214.9048l-0.23942,-1.21483l1.58684,-0.031l-1.59083,-0.0785l-0.53976,-1.10846l-0.12181,-1.5564l1.23539,-0.30376c0,0 -0.20848,1.06428 0.28042,1.46858c0.51165,0.42312 1.74669,0.11266 1.74669,0.11266l-0.12932,1.12974l1.40968,0.86207l-0.77233,1.07294z" fill="#e480ff" stroke="#000000" stroke-width="0.3" stroke-linecap="butt"/><path d="M225.55877,210.66853c0,0 -0.20697,-1.06759 0.75109,-1.18634c0.76344,-0.09464 0.74102,1.09333 0.74102,1.09333z" fill="#808080" stroke="#000000" stroke-width="0.3" stroke-linecap="butt"/><g><path d="M228.78781,215.029l0.09001,0.5014l-1.83548,-0.01515l-0.09001,-0.5014z" fill="#808080" stroke="#000000" stroke-width="0.1" stroke-linecap="butt"/><path d="M229.36405,215.52659l0.05044,0.36835l-2.46671,0.02837l-0.05044,-0.36835z" fill="#bfbfbf" stroke="#000000" stroke-width="0.1" stroke-linecap="butt"/><path d="M227.00302,217.89126c-0.41106,-0.63423 -0.92244,-2.08104 -0.05403,-2.01914c0.81913,0.05839 1.53365,0.04346 2.40873,0.07738c0.71259,0.02763 0.52228,2.00884 -0.06909,2.29375c-0.59137,0.28491 -1.87457,0.28224 -2.28562,-0.35199z" fill="#808080" stroke="#000000" stroke-width="0.1" stroke-linecap="butt"/><path d="M228.60945,216.4984c-0.44776,-0.69087 -2.59177,-0.60817 -1.79431,-0.5618c0.75283,0.04378 1.5676,-0.0203 2.44115,0.0887c0.78329,0.09772 0.54859,1.51025 0.15127,2.05302c-0.48689,0.66514 -0.35037,-0.88906 -0.79812,-1.57993z" fill="#404040" stroke="none" stroke-width="0" stroke-linecap="butt"/><path d="M229.67563,217.03182c0,0 -1.14647,0.11101 -1.68654,0.07936c-0.4863,-0.02847 -1.40949,-0.26072 -1.40949,-0.26072" data-paper-data="{&quot;index&quot;:null}" fill="none" stroke="#000000" stroke-width="0.1" stroke-linecap="round"/><path d="M229.65664,216.418c0,0 -1.14648,0.11102 -1.68653,0.07939c-0.4863,-0.02847 -1.4095,-0.26073 -1.4095,-0.26073" data-paper-data="{&quot;index&quot;:null}" fill="none" stroke="#000000" stroke-width="0.1" stroke-linecap="round"/><path d="M229.77588,217.57327c0,0 -1.14647,0.11102 -1.68653,0.07938c-0.4863,-0.02847 -1.40949,-0.26073 -1.40949,-0.26073" data-paper-data="{&quot;index&quot;:null}" fill="none" stroke="#000000" stroke-width="0.1" stroke-linecap="round"/><path d="M229.68366,218.07085c0,0 -0.99744,0.11975 -1.46868,0.09215c-0.42434,-0.02486 -1.23288,-0.25038 -1.23288,-0.25038" data-paper-data="{&quot;index&quot;:null}" fill="none" stroke="#000000" stroke-width="0.1" stroke-linecap="round"/><path d="M228.99268,216.09232c0,0 0.28053,0.87333 0.32462,1.2707c0.03969,0.35781 -0.07192,1.00731 -0.07192,1.00731" data-paper-data="{&quot;index&quot;:null}" fill="none" stroke="#000000" stroke-width="0.1" stroke-linecap="round"/><path d="M228.35127,216.0039c0,0 0.28053,0.87334 0.32461,1.27069c0.03969,0.35781 -0.07191,1.0073 -0.07191,1.0073" data-paper-data="{&quot;index&quot;:null}" fill="none" stroke="#000000" stroke-width="0.1" stroke-linecap="round"/><path d="M227.32952,218.14472c0,0 -0.28265,-0.6726 -0.33562,-1.03118c-0.05884,-0.39822 -0.00169,-1.25177 -0.00169,-1.25177" data-paper-data="{&quot;index&quot;:null}" fill="none" stroke="#000000" stroke-width="0.1" stroke-linecap="round"/><path d="M227.95766,218.13068c0,0 -0.28264,-0.67258 -0.33561,-1.03117c-0.05884,-0.39822 -0.00169,-1.25179 -0.00169,-1.25179" data-paper-data="{&quot;index&quot;:null}" fill="none" stroke="#000000" stroke-width="0.1" stroke-linecap="round"/></g></g><path d="M238.29613,203.2476c0.63623,0 0.17723,0.34911 0.17723,1.10769c0,0.75858 -0.33854,1.90523 -0.97477,1.90523c-0.63623,0 -1.152,-0.70357 -1.152,-1.46215c0,-0.75859 1.31331,-1.55077 1.94954,-1.55077z" fill="#404040" stroke="none" stroke-width="0" stroke-linecap="butt"/><g><path d="M236.08812,200.14596l0.07476,-6.05018c0,0 0.42599,0.02116 0.72063,0.20022c0.23936,0.14547 0.80741,0.54016 0.80741,0.54016c0,0 0.02479,-0.45017 0.25267,-0.62391c0.235,-0.17917 0.73055,-0.17892 0.92941,-0.18386c0.21371,-0.00531 0.7151,0.05688 1.01089,0.21951c0.33547,0.18444 0.71529,0.50917 0.71529,0.50917c0,0 0.45464,-0.32656 0.68089,-0.44482c0.43327,-0.22646 0.90805,-0.36629 0.90805,-0.36629l-0.1,3.9l2.2,2.2c0,0 -2.35576,1.97568 -4.15476,1.99762c-1.79899,0.02194 -4.04524,-1.89762 -4.04524,-1.89762z" fill="#e480ff" stroke="#000000" stroke-width="0.3" stroke-linecap="butt"/><path d="M239.01312,196.8332c0,0 -1.95,1.32361 -1.95,0.15c0,-1.17361 0.1,-1.925 0.1,-1.925z" fill="#000000" stroke="none" stroke-width="0" stroke-linecap="butt"/><path d="M241.26312,195.0582c0,0 0.1,0.75139 0.1,1.925c0,1.17361 -1.95,-0.15 -1.95,-0.15z" data-paper-data="{&quot;index&quot;:null}" fill="#000000" stroke="none" stroke-width="0" stroke-linecap="butt"/><path d="M237.88695,197.97393l-0.39491,-0.86395l-0.83723,-0.42296l0.91727,-0.31488l0.2875,-0.88988l0.27381,0.87619l0.7119,0.32857l-0.65714,0.30119z" fill="#ff0000" stroke="none" stroke-width="0" stroke-linecap="butt"/><path d="M240.63695,197.93643l-0.39491,-0.86395l-0.83723,-0.42296l0.91727,-0.31488l0.2875,-0.88988l0.27381,0.87619l0.7119,0.32857l-0.65714,0.30119z" fill="#ff0000" stroke="none" stroke-width="0" stroke-linecap="butt"/><path d="M241.01312,194.6707l-1.85,1.75l-1.7,-1.85" fill="none" stroke="#000000" stroke-width="0.2" stroke-linecap="round"/><path d="M240.58812,199.7082c0,0.33137 -0.4701,-0.6 -1.05,-0.6c-0.5799,0 -1,0.68137 -1,0.35c0,-0.33137 -0.1799,-1.05 0.4,-1.05c0.10196,0 0.36421,0.28224 0.5982,0.26875c0.3114,-0.01795 0.6113,-0.32834 0.79101,-0.27925c0.45325,0.12381 0.26079,1.11494 0.26079,1.3105z" fill="#ff0000" stroke="#000000" stroke-width="0.2" stroke-linecap="butt"/><path d="M240.50062,199.8832c0,0.51086 -0.48652,0.775 -1.025,0.775c-0.53848,0 -0.925,-0.26414 -0.925,-0.775c0,-0.51086 0.38652,0.125 0.925,0.125c0.53848,0 1.025,-0.63586 1.025,-0.125z" fill="#ff0000" stroke="#000000" stroke-width="0.2" stroke-linecap="butt"/><path d="M239.45062,199.9082c-0.52467,0 -0.75,-0.13505 -0.75,-0.425c0,-0.28995 0.27533,-0.225 0.8,-0.225c0.52467,0 0.8,-0.01495 0.8,0.275c0,0.28995 -0.32533,0.375 -0.85,0.375z" fill="#ffffff" stroke="#000000" stroke-width="0.2" stroke-linecap="butt"/><path d="M238.61312,199.6082l-0.75,-0.8" fill="none" stroke="#000000" stroke-width="0.2" stroke-linecap="round"/><path d="M240.53812,199.7582l0.8,-0.5" fill="none" stroke="#000000" stroke-width="0.2" stroke-linecap="round"/><path d="M238.53041,199.28471c0,0 0.00113,-0.55297 0.2381,-0.76191c0.23697,-0.20894 0.66666,0.19047 0.66666,0.19047c0,0 0.38632,0.28734 0.23809,0.38096c-0.14823,0.09362 -1.14285,0.19048 -1.14285,0.19048z" fill="#000000" stroke="none" stroke-width="0" stroke-linecap="butt"/><path d="M239.36954,200.05646c0.19904,0.22114 0.22105,0.40631 -0.03836,0.58664c-0.25941,0.18032 -0.64036,-0.31345 -0.64036,-0.31345c0,0 -0.35074,-0.56792 -0.19274,-0.64389c0.15801,-0.07596 0.67242,0.14956 0.87146,0.3707z" fill="#000000" stroke="none" stroke-width="0" stroke-linecap="butt"/></g><g><path d="M233.00595,199.01215l-0.18096,-3.40476l1.56667,1.33334l-0.1,1.9z" fill="#e480ff" stroke="#000000" stroke-width="0.3" stroke-linecap="butt"/><path d="M233.5664,198.75977l-0.02044,-1.6077l0.89013,0.73771l-0.03199,0.74122z" fill="#ab60bf" stroke="#000000" stroke-width="0.2" stroke-linecap="butt"/><path d="M234.34093,199.01742c0.11495,0.77023 0.4229,1.13963 -0.3658,1.08875c-0.7887,-0.05089 -0.3824,-0.74303 -0.22511,-1.54979" fill="none" stroke="#fff700" stroke-width="0.3" stroke-linecap="round"/></g><g stroke-linecap="butt"><path d="M253.25495,210.97883l0.12907,2.11452c0,0 -2.2808,0.15536 -2.30884,0.99265c-0.03776,1.12753 2.22709,1.77961 2.22709,1.77961c0,0 -1.40242,0.24833 -5.00815,0.37816c-4.52731,-0.32915 -8.12359,0.09283 -8.17732,-4.38789c-0.07192,-2.53814 0.04799,3.35267 1.78877,3.37928c2.22713,0.03405 2.39128,-6.80124 2.37331,-3.62384c3.69243,5.01666 8.97608,-0.63249 8.97608,-0.63249z" fill="#252525" stroke="#000000" stroke-width="0.3"/><path d="M253.32687,212.99031l-2.17469,0.53713l-0.07131,-0.15653l2.36179,-1.45405z" fill="#000000" stroke="none" stroke-width="0"/></g><g stroke="#000000"><path d="M244.16307,211.76794c0,1.12581 -1.11815,3.5 -2.30769,3.5c-1.18953,0 -1.53846,-2.29727 -1.53846,-3.42308c0,-1.12581 0.42584,0.80769 1.61538,0.80769c1.18954,0 2.23077,-2.01043 2.23077,-0.88462z" fill="#e480ff" stroke-width="0.3" stroke-linecap="butt"/><path d="M242.00922,212.65255l-0.07692,2.53846" fill="none" stroke-width="1" stroke-linecap="round"/></g><g stroke="#000000"><path d="M240.31691,213.38333c0,1.04084 -1.22952,2.03846 -2.46154,2.03846c-1.23202,0 -1.46154,-1.61301 -1.46154,-2.65385c0,-1.04085 0.22952,1.03846 1.46154,1.03846c1.23202,0 2.46154,-1.46392 2.46154,-0.42308z" fill="#e480ff" stroke-width="0.3" stroke-linecap="butt"/><path d="M237.85537,215.19101v-1.23077" fill="none" stroke-width="1" stroke-linecap="round"/></g><g stroke="#000000" stroke-width="0.3" stroke-linecap="butt"><path d="M252.95513,217.18001c-0.23758,0.30474 -0.75232,1.09115 -1.02839,1.25529c-0.34229,0.20352 -0.2057,-0.72442 -0.42904,-0.83051c-0.2298,-0.10916 -0.99659,0.43374 -0.91172,0.08948c0.06414,-0.26018 0.67893,-0.91449 0.908,-1.2083c0.53215,-0.68258 1.29063,-1.08056 1.69412,-0.8889c0.40349,0.19165 0.29918,0.90035 -0.23297,1.58293z" fill="#e480ff"/><path d="M251.64187,212.27586l-9.65839,-7.16288l2.09187,-2.2813l9.50228,8.78214l-0.12378,4.52491c0,0 -0.25929,-2.33709 -0.6336,-2.60793c-0.314,-0.22722 -1.4633,1.09065 -1.4633,1.09065z" fill="#404040"/><path d="M253.38057,215.77029c-0.22343,1.15313 0.26641,-1.30395 -0.80707,-1.38719c-1.11869,-0.08675 -1.91529,1.86211 -1.50407,0.76186c0.48825,-1.30635 0.62235,-1.52813 1.69432,-1.42731c0.72285,0.06798 0.97113,0.22418 0.61683,2.05263z" fill="#fff700"/><path d="M252.4686,215.14874c-1.11869,-0.08675 -1.91529,1.86211 -1.50407,0.76186c0.48825,-1.30635 0.62235,-1.52813 1.69432,-1.42731c0.72284,0.06798 0.97113,0.22419 0.61683,2.05265c-0.22344,1.15314 0.26641,-1.30396 -0.80708,-1.3872z" fill="#fff700"/><path d="M253.2712,219.11951c-0.3423,0.20352 -0.2057,-0.72441 -0.42905,-0.8305c-0.22981,-0.10916 -0.99659,0.43374 -0.91172,0.08948c0.06414,-0.26018 0.67893,-0.91449 0.908,-1.2083c0.53215,-0.68258 1.29063,-1.08056 1.69412,-0.8889c0.40349,0.19165 0.29918,0.90035 -0.23297,1.58293c-0.23758,0.30474 -0.75233,1.09114 -1.02839,1.25529z" fill="#e480ff"/><path d="M251.81896,219.67786c-0.74182,1.05071 -1.3696,2.02107 -1.3696,2.02107c0,0 -0.07411,-1.02789 0.66771,-2.07861c0.74182,-1.05071 1.46955,-1.57661 2.04633,-0.83945c0.24775,0.31664 -0.60261,-0.15372 -1.34443,0.89699z" fill="#ff0000"/><path d="M250.47452,218.99364c-0.74182,1.05071 -1.3696,2.02107 -1.3696,2.02107c0,0 -0.07412,-1.0279 0.6677,-2.07861c0.74182,-1.05071 1.46955,-1.57662 2.04633,-0.83945c0.24775,0.31664 -0.60261,-0.15372 -1.34444,0.89699z" fill="#ff0000"/><path d="M251.67447,216.41614c-0.23758,0.30474 -0.75233,1.09114 -1.02839,1.25529c-0.34229,0.20352 -0.2057,-0.72441 -0.42904,-0.8305c-0.2298,-0.10916 -0.99659,0.43374 -0.91172,0.08948c0.06414,-0.26018 0.67893,-0.91449 0.90799,-1.20831c0.53215,-0.68258 1.29063,-1.08056 1.69412,-0.8889c0.40349,0.19165 0.29919,0.90036 -0.23296,1.58294z" fill="#e480ff"/><path d="M249.19385,218.22977c-0.74182,1.05071 -1.3696,2.02106 -1.3696,2.02106c0,0 -0.07411,-1.02789 0.66771,-2.0786c0.74182,-1.05071 1.46955,-1.57662 2.04633,-0.83947c0.24775,0.31664 -0.60261,-0.15372 -1.34443,0.897z" fill="#ff0000"/><path d="M250.39382,215.65225c-0.23758,0.30474 -0.75232,1.09114 -1.02838,1.25528c-0.3423,0.20352 -0.2057,-0.72441 -0.42905,-0.8305c-0.22981,-0.10916 -0.9966,0.43374 -0.91173,0.08948c0.06414,-0.26018 0.67893,-0.91449 0.908,-1.2083c0.53214,-0.68258 1.29062,-1.08057 1.69412,-0.88891c0.40348,0.19166 0.29918,0.90037 -0.23297,1.58294z" fill="#e480ff"/><path d="M247.91318,217.46589c-0.74182,1.05071 -1.3696,2.02107 -1.3696,2.02107c0,0 -0.07411,-1.02789 0.6677,-2.07861c0.74182,-1.05071 1.46955,-1.57661 2.04633,-0.83946c0.24775,0.31664 -0.60261,-0.15372 -1.34443,0.89699z" fill="#ff0000"/></g><path d="M239.75205,192.3448c0,0 1.38918,-0.59573 1.9095,-0.57762c0.19104,0.00665 0.68085,0.40363 0.74367,0.89336c0.08858,0.69061 -0.29603,1.54248 -0.29603,1.54248c0,0 0.71246,1.67301 0.51249,1.71917c-0.0552,0.01274 -0.72966,1.29391 -0.72966,1.29391l-1.37799,0.30676c0,0 1.14122,-0.98134 1.16721,-1.62305c0.02146,-0.52971 -0.70099,-1.43622 -0.70099,-1.43622c0,0 1.0277,-1.67118 0.71003,-1.8298c-0.30539,-0.15249 -1.86777,0.85169 -1.86777,0.85169z" fill="#800000" stroke="#000000" stroke-width="0.3" stroke-linecap="butt"/></g></g></svg>